<?xml version="1.0" encoding="UTF-8"?><svg id="_レイヤー_2" xmlns="http://www.w3.org/2000/svg" viewBox="0 0 440 628.54"><defs><style>.cls-1{fill:#4b5654;}.cls-1,.cls-2,.cls-3,.cls-4{stroke-width:0px;}.cls-5{fill:none;stroke:#dd6743;stroke-width:5px;}.cls-2{fill:#dd6743;}.cls-3{fill:#ddd;}.cls-4{fill:#fff;}</style></defs><g id="_コンテンツ"><rect class="cls-3" y="59" width="440" height="80" rx="15" ry="15"/><path class="cls-1" d="M138.18,84.53c1.2-.38,2.43-.58,3.47-.58,2.3,0,3.97,1.26,3.97,3.15s-1.2,3.14-3.38,3.67c-.7.16-1.41.19-1.95.21l-.45-1.26c.59,0,1.25.02,1.86-.11,1.39-.26,2.66-1.01,2.66-2.48,0-1.34-1.22-2.06-2.72-2.06-1.18,0-2.3.22-3.44.62.03,1.34.06,2.74.06,3.43,0,1.47-.56,1.94-1.41,1.94-1.25,0-3.31-1.2-3.31-2.62,0-1.3,1.65-2.67,3.47-3.46v-.9c0-.64,0-1.38.02-2.08-.43.03-.83.05-1.17.05-.72,0-1.41-.02-2.02-.08l-.03-1.22c.86.11,1.44.13,2.02.13.37,0,.78-.02,1.22-.05.02-.83.03-1.52.03-1.81,0-.32-.03-.85-.1-1.12h1.39c-.03.29-.06.72-.08,1.09-.02.38-.03,1.01-.05,1.71,1.15-.14,2.35-.37,3.25-.64l.02,1.26c-.93.21-2.14.42-3.3.54-.02.75-.03,1.5-.03,2.14v.53ZM137.07,88.94c0-.58-.03-1.65-.05-2.8-1.28.61-2.23,1.5-2.23,2.23s1.09,1.34,1.71,1.34c.37,0,.56-.27.56-.77ZM143.32,79.63c1.12.59,2.85,1.68,3.62,2.32l-.64,1.02c-.79-.75-2.54-1.82-3.55-2.37l.58-.98Z"/><path class="cls-1" d="M157.48,84.93s-.02.38-.03.54c-.29,3.78-.56,5.27-1.14,5.81-.32.38-.69.48-1.26.51-.5.05-1.5.02-2.53-.03-.02-.37-.19-.88-.42-1.22,1.06.1,2.11.11,2.51.11.34,0,.53-.02.7-.18.38-.34.66-1.57.87-4.45h-4.21c-.06.27-.13.53-.18.77l-1.17-.19c.32-1.33.71-3.44.93-5.06h4.67v-2.53h-5.22v-1.12h6.39v4.77h-4.82c-.13.75-.26,1.54-.4,2.26h5.3ZM162.95,77.4v14.44h-1.18v-14.44h1.18Z"/><path class="cls-1" d="M180.73,83.15c-.71.24-1.62.46-2.69.67.46,1.01.98,2.08,1.42,2.91l-.62.78c-.8-.14-2.08-.32-3.09-.45l.11-.98c.77.1,1.52.18,2.02.22-.3-.62-.67-1.46-1.04-2.29-2.05.27-4.64.3-7.09.14l-.05-1.17c2.42.22,4.77.21,6.66-.03l-.56-1.3c-.13-.27-.24-.56-.35-.82-1.6.14-3.6.14-5.57-.03l-.08-1.17c1.89.21,3.67.24,5.19.13-.08-.18-.14-.34-.21-.48-.24-.5-.38-.79-.59-1.12l1.44-.3c.14.54.35,1.15.59,1.76,1.1-.18,2.22-.42,3.15-.75l.22,1.14c-.82.26-1.86.5-2.95.67l.29.66c.13.34.35.83.62,1.42,1.25-.22,2.21-.51,2.93-.78l.24,1.15ZM171.62,86.45c-.19.5-.37,1.2-.37,1.62,0,1.22.96,1.99,3.22,1.99,1.28,0,2.79-.11,3.91-.37l-.03,1.3c-.99.18-2.53.3-3.83.3-2.83,0-4.5-.98-4.5-2.96,0-.67.19-1.41.37-1.99l1.23.11Z"/><path class="cls-1" d="M192.07,79.34v12.47h-1.15v-2.9c-2.02.34-4.07.64-5.59.9l-.21-1.2c.45-.05.98-.11,1.55-.19v-9.08h-1.25v-1.1h7.76v1.1h-1.12ZM190.92,79.34h-3.12v2.13h3.12v-2.13ZM190.92,82.53h-3.12v2.22h3.12v-2.22ZM187.79,88.26c.98-.13,2.05-.29,3.12-.45v-1.97h-3.12v2.42ZM199.49,79.6c-.42,3.42-1.31,6.08-2.59,8.12.88,1.28,1.97,2.3,3.3,2.98-.27.22-.66.67-.85.98-1.26-.72-2.32-1.7-3.19-2.9-.94,1.2-2.05,2.15-3.26,2.85-.18-.3-.53-.74-.79-.96,1.26-.66,2.4-1.65,3.36-2.96-1.1-1.89-1.86-4.21-2.38-6.83l1.14-.21c.42,2.21,1.06,4.23,1.97,5.92.93-1.63,1.62-3.63,1.98-5.99h-5.39v-1.17h5.71l.22-.05.77.22Z"/><path class="cls-1" d="M207.67,78.04c-.34,1.17-.64,3.3-.74,4.4.62-1.63,2.29-3.6,4.29-3.6,2.11,0,3.63,2.11,3.63,5.44,0,4.4-2.77,6.34-6.71,7.06l-.75-1.15c3.44-.53,6.13-1.9,6.13-5.89,0-2.5-.83-4.29-2.51-4.29-1.97,0-3.79,2.87-3.99,4.95-.08.61-.08,1.15.03,1.94l-1.25.1c-.08-.59-.16-1.49-.16-2.51,0-1.5.29-3.84.48-5.12.06-.5.11-.98.13-1.36l1.41.05Z"/><path class="cls-1" d="M233.08,78.33v13.27h-1.25v-.98h-7.94v1.04h-1.2v-13.33h10.39ZM223.89,79.5v4.32h7.94v-4.32h-7.94ZM231.83,89.46v-4.47h-7.94v4.47h7.94Z"/><path class="cls-1" d="M248.53,84.54c0-3.12,1.26-5.67,3.19-7.62l.96.5c-1.84,1.91-2.98,4.27-2.98,7.12s1.14,5.22,2.98,7.12l-.96.5c-1.92-1.95-3.19-4.5-3.19-7.62Z"/><path class="cls-1" d="M264.44,85.42c1.46,1.95,3.83,3.86,5.99,4.79-.26.24-.64.69-.83,1.01-2.13-1.06-4.42-3.06-5.97-5.17v5.79h-1.23v-5.76c-1.55,2.11-3.83,4.03-5.92,5.07-.19-.29-.58-.74-.83-.98,2.14-.93,4.5-2.8,5.96-4.75h-5.62v-1.14h6.42v-3.99h-5.67v-1.14h5.67v-1.92h1.23v1.92h5.79v1.14h-5.79v3.99h6.47v1.14h-5.65ZM259.06,80.67c.64.93,1.3,2.16,1.52,2.99l-1.12.43c-.21-.8-.82-2.1-1.44-3.02l1.04-.4ZM265.48,83.79c.54-.86,1.23-2.22,1.62-3.19l1.22.38c-.56,1.09-1.26,2.35-1.84,3.14l-.99-.34Z"/><path class="cls-1" d="M279.25,87.25c-.42-.46-1.3-1.36-2.02-2.03v6.63h-1.17v-6.19c-.8.78-1.63,1.46-2.45,1.99-.13-.3-.43-.85-.62-1.07,1.91-1.1,3.91-3.12,5.01-5.25h-4.45v-1.09h2.51v-2.98h1.17v2.98h1.39l.21-.05.67.45c-.5,1.23-1.23,2.42-2.07,3.49.74.59,2.15,1.82,2.54,2.18l-.74.96ZM288.07,90.22v1.17h-8.96v-1.17h4.05v-6.64h-3.42v-1.15h3.42v-5.07h1.19v5.07h3.41v1.15h-3.41v6.64h3.73Z"/><path class="cls-1" d="M297.99,89.84c.5-.03.98-.11,1.36-.19,2.03-.45,4.02-1.95,4.02-4.69,0-2.4-1.52-4.37-4.21-4.59-.21,1.47-.51,3.07-.94,4.56-.98,3.25-2.24,4.93-3.71,4.93s-2.83-1.63-2.83-4.24c0-3.44,3.07-6.45,6.95-6.45s6.08,2.62,6.08,5.83-2.19,5.55-5.97,6.05l-.74-1.2ZM296.95,84.65c.4-1.31.7-2.82.88-4.27-3.04.38-4.9,2.99-4.9,5.12,0,2,.93,2.88,1.62,2.88s1.58-1.06,2.4-3.73Z"/><path class="cls-1" d="M313.57,86.62c-1.62.82-3.36,1.67-4.71,2.3l-.46-1.17c.61-.26,1.36-.58,2.18-.94v-5.01h-1.87v-1.12h1.87v-3.33h1.1v3.33h1.73v1.12h-1.73v4.5l1.63-.74.26,1.06ZM316.55,84.78c-.21.38-.43.77-.69,1.12h6.88s-.02.32-.05.48c-.24,3.3-.5,4.55-.95,5.01-.24.27-.53.35-.9.4-.35.02-.94.02-1.58-.02,0-.29-.11-.72-.27-.96.59.05,1.12.06,1.36.06.22,0,.37-.02.48-.18.27-.29.51-1.3.72-3.81h-1.25c-.64,1.9-1.89,3.97-3.26,5.01-.19-.24-.56-.51-.85-.69,1.3-.86,2.47-2.59,3.12-4.32h-1.55c-.85,1.65-2.42,3.39-3.89,4.32-.18-.26-.5-.54-.78-.74,1.33-.72,2.74-2.16,3.6-3.58h-1.62c-.64.72-1.36,1.34-2.08,1.82-.16-.19-.58-.58-.82-.74,1.27-.75,2.42-1.89,3.17-3.2h-2.24v-1.01h10.02v1.01h-6.58ZM321.99,82.88h-7.31v-5.17h7.31v5.17ZM320.89,78.6h-5.12v1.26h5.12v-1.26ZM320.89,80.7h-5.12v1.28h5.12v-1.28Z"/><path class="cls-1" d="M333.91,77.28c1.7,2.35,4.51,4.58,7.03,5.71-.29.27-.58.69-.79,1.02-2.48-1.3-5.28-3.54-6.77-5.59-1.31,1.95-3.91,4.23-6.64,5.68-.14-.27-.46-.69-.74-.94,2.79-1.41,5.46-3.84,6.71-5.89h1.2ZM328.58,85.49h9.73v6.37h-1.22v-.66h-7.35v.66h-1.17v-6.37ZM337.43,82.43v1.06h-8.02v-1.06h8.02ZM329.75,86.56v3.57h7.35v-3.57h-7.35Z"/><path class="cls-1" d="M347.89,84.54c0,3.12-1.26,5.67-3.19,7.62l-.96-.5c1.84-1.9,2.98-4.27,2.98-7.12s-1.14-5.22-2.98-7.12l.96-.5c1.92,1.95,3.19,4.5,3.19,7.62Z"/><path class="cls-1" d="M373.69,90.43c-.93-.85-2.24-1.81-3.83-2.38.02.4.03.75.03.99,0,1.09-.74,2.22-2.8,2.22-2.27,0-3.54-.82-3.54-2.35,0-1.44,1.39-2.42,3.68-2.42.46,0,.9.03,1.33.1-.03-.7-.06-1.46-.08-2.11h-.88c-1.09,0-2.85-.1-3.99-.22v-1.22c1.07.19,2.95.3,3.99.3h.85v-2.27h-.78c-1.11,0-2.79-.13-3.73-.24v-1.18c.96.18,2.66.3,3.71.3h.82v-1.04c0-.26-.02-.72-.05-.94h1.36c-.05.29-.06.59-.08,1.06-.02.19-.02.5-.02.88,1.38-.05,2.67-.18,4.07-.38l.02,1.17c-1.25.13-2.61.26-4.1.34v2.27c1.52-.06,2.98-.21,4.4-.42l.02,1.2c-1.49.19-2.9.3-4.4.37.03.82.08,1.65.11,2.4,2.1.58,3.71,1.74,4.61,2.46l-.72,1.12ZM368.61,87.7c-.5-.1-1.01-.14-1.54-.14-1.5,0-2.32.58-2.32,1.3s.62,1.28,2.19,1.28c.91,0,1.68-.27,1.68-1.36,0-.27-.02-.64-.02-1.07Z"/><path class="cls-1" d="M387.83,81.2c-1.04.24-2.18.42-3.28.54-.14.69-.32,1.42-.5,2.1-.58,2.27-1.65,5.54-2.48,7.27l-1.41-.46c.94-1.63,2.07-4.85,2.66-7.09.14-.53.27-1.1.4-1.68-.51.03-.99.05-1.44.05-.7,0-1.28-.03-1.84-.06l-.05-1.25c.75.1,1.33.11,1.91.11.53,0,1.09-.03,1.7-.06.11-.58.19-1.07.24-1.39.05-.45.08-.98.05-1.31l1.55.13c-.11.35-.22.94-.29,1.26l-.24,1.17c1.03-.13,2.07-.32,3.03-.58v1.26ZM387.2,86.75c-.14.53-.22,1.02-.22,1.42,0,.75.35,1.47,2.61,1.47,1.02,0,2.13-.13,3.09-.3l-.05,1.3c-.85.11-1.91.21-3.06.21-2.5,0-3.81-.77-3.81-2.34,0-.61.1-1.2.24-1.87l1.2.11ZM386.8,82.89c.83-.08,1.87-.13,2.9-.13.91,0,1.89.03,2.74.13l-.03,1.22c-.8-.1-1.74-.19-2.67-.19-.99,0-1.95.06-2.93.18v-1.2Z"/><path class="cls-1" d="M399.94,78.44c-.1.26-.22.79-.27,1.07-.32,1.47-.78,4.61-.78,6.39,0,.77.03,1.39.14,2.16.26-.72.62-1.66.9-2.3l.67.53c-.4,1.1-.96,2.72-1.12,3.5-.05.21-.1.51-.08.71,0,.16.03.38.05.54l-1.14.1c-.32-1.14-.61-2.88-.61-5.03,0-2.32.53-5.35.72-6.66.06-.37.11-.78.11-1.12l1.41.11ZM410.25,89.98c-.78-.74-1.57-1.36-2.38-1.81v.29c0,1.31-.61,2.59-2.75,2.59s-3.3-.88-3.3-2.29c0-1.33,1.19-2.42,3.27-2.42.53,0,1.02.05,1.47.14-.05-1.22-.14-2.74-.16-4.05-.51.02-1.01.03-1.52.03-.9,0-1.73-.05-2.66-.1v-1.22c.9.1,1.76.14,2.69.14.5,0,.99-.02,1.49-.03v-1.97c0-.27-.03-.69-.08-.96h1.46c-.05.3-.08.62-.1.94-.02.43-.03,1.17-.05,1.91.96-.06,1.89-.19,2.74-.37v1.25c-.86.14-1.79.24-2.74.3.02,1.58.13,3.17.19,4.5,1.28.51,2.29,1.33,3.12,2.07l-.69,1.04ZM406.6,87.63c-.51-.18-1.06-.26-1.62-.26-1.18,0-2,.53-2,1.26,0,.78.77,1.23,1.91,1.23,1.34,0,1.73-.66,1.73-1.71,0-.14,0-.34-.02-.53Z"/><path class="cls-1" d="M138.18,112.53c1.2-.38,2.43-.58,3.47-.58,2.3,0,3.97,1.26,3.97,3.15s-1.2,3.14-3.38,3.67c-.7.16-1.41.19-1.95.21l-.45-1.26c.59,0,1.25.02,1.86-.11,1.39-.26,2.66-1.01,2.66-2.48,0-1.34-1.22-2.06-2.72-2.06-1.18,0-2.3.22-3.44.62.03,1.34.06,2.74.06,3.43,0,1.47-.56,1.94-1.41,1.94-1.25,0-3.31-1.2-3.31-2.62,0-1.3,1.65-2.67,3.47-3.46v-.9c0-.64,0-1.38.02-2.08-.43.03-.83.05-1.17.05-.72,0-1.41-.02-2.02-.08l-.03-1.22c.86.11,1.44.13,2.02.13.37,0,.78-.02,1.22-.05.02-.83.03-1.52.03-1.81,0-.32-.03-.85-.1-1.12h1.39c-.03.29-.06.72-.08,1.09-.02.38-.03,1.01-.05,1.71,1.15-.14,2.35-.37,3.25-.64l.02,1.26c-.93.21-2.14.42-3.3.54-.02.75-.03,1.5-.03,2.14v.53ZM137.07,116.94c0-.58-.03-1.65-.05-2.8-1.28.61-2.23,1.5-2.23,2.23s1.09,1.34,1.71,1.34c.37,0,.56-.27.56-.77ZM143.32,107.63c1.12.59,2.85,1.68,3.62,2.32l-.64,1.02c-.79-.75-2.54-1.82-3.55-2.37l.58-.98Z"/><path class="cls-1" d="M157.48,112.93s-.02.38-.03.54c-.29,3.78-.56,5.27-1.14,5.81-.32.38-.69.48-1.26.51-.5.05-1.5.02-2.53-.03-.02-.37-.19-.88-.42-1.22,1.06.1,2.11.11,2.51.11.34,0,.53-.02.7-.18.38-.34.66-1.57.87-4.45h-4.21c-.06.27-.13.53-.18.77l-1.17-.19c.32-1.33.71-3.44.93-5.06h4.67v-2.53h-5.22v-1.12h6.39v4.77h-4.82c-.13.75-.26,1.54-.4,2.26h5.3ZM162.95,105.4v14.44h-1.18v-14.44h1.18Z"/><path class="cls-1" d="M170.4,112.19c-.56-.53-1.75-1.23-2.74-1.68l.67-.88c.96.4,2.16,1.07,2.75,1.58l-.69.98ZM171.36,114.46c-.69,1.7-1.62,3.67-2.4,5.17l-1.07-.7c.74-1.23,1.76-3.33,2.51-5.15l.96.69ZM171.2,108.03c-.53-.54-1.68-1.28-2.62-1.74l.66-.87c.94.42,2.11,1.1,2.67,1.67l-.7.94ZM173.51,111.13c0,2.56-.24,6.21-1.89,8.68-.21-.19-.71-.46-.99-.58,1.6-2.35,1.74-5.7,1.74-8.1v-4.29h4.45v-1.6h1.19v1.6h4.16v1.02h-8.66v1.71h1.79v-1.28h1.04v1.28h2.96v-1.28h1.09v1.28h1.89v.98h-1.89v2.46h-5.09v-2.46h-1.79v.58ZM181.45,114.21c-.58,1.44-1.51,2.58-2.67,3.44,1.04.56,2.29.98,3.68,1.2-.26.22-.56.67-.72.98-1.5-.3-2.83-.82-3.95-1.52-1.23.7-2.64,1.18-4.08,1.5-.11-.27-.37-.74-.58-.96,1.31-.24,2.59-.64,3.73-1.23-.82-.69-1.49-1.52-1.98-2.48l.75-.22h-1.7v-.98h6.59l.21-.05.72.32ZM175.94,114.91c.43.83,1.07,1.54,1.87,2.13.87-.58,1.59-1.28,2.08-2.13h-3.95ZM176.34,110.56v1.52h2.96v-1.52h-2.96Z"/><path class="cls-1" d="M190.08,106.2c-.08.51-.13,1.07-.16,1.58-.06,1.79-.19,5.54-.19,7.91,0,1.75,1.12,2.35,2.59,2.35,2.91,0,4.56-1.63,5.7-3.28l.88,1.1c-1.07,1.5-3.12,3.49-6.61,3.49-2.27,0-3.84-.96-3.84-3.54,0-2.35.16-6.35.16-8.04,0-.58-.05-1.14-.14-1.6l1.62.02Z"/><path class="cls-1" d="M215.48,106.33v13.27h-1.25v-.98h-7.94v1.04h-1.2v-13.33h10.39ZM206.29,107.5v4.32h7.94v-4.32h-7.94ZM214.23,117.46v-4.47h-7.94v4.47h7.94Z"/><path class="cls-1" d="M230.93,112.54c0-3.12,1.26-5.67,3.18-7.62l.96.5c-1.84,1.91-2.98,4.27-2.98,7.12s1.14,5.22,2.98,7.12l-.96.5c-1.92-1.95-3.18-4.5-3.18-7.62Z"/><path class="cls-1" d="M249.29,107.84c-.3.61-.62,1.2-.91,1.68h3.38v8.85c0,.7-.16,1.09-.67,1.28-.53.18-1.41.19-2.72.19-.05-.3-.22-.85-.4-1.15,1.04.05,2,.03,2.29.02.27,0,.35-.08.35-.34v-7.81h-3.35v1.58c0,.32.06.35.46.35h1.39c.35,0,.42-.11.46-1.06.18.16.61.3.91.37-.11,1.28-.4,1.6-1.25,1.6h-1.65c-1.12,0-1.39-.26-1.39-1.25v-1.6h-1.91c-.19,1.92-.91,2.91-3.25,3.47-.1-.24-.37-.64-.58-.83,2.02-.42,2.59-1.15,2.75-2.64h-2.87v9.27h-1.12v-10.31h3.14c-.18-.51-.48-1.18-.75-1.68h-3.06v-1.09h6.2v-1.5h1.2v1.5h6.34v1.09h-3.01ZM243.52,118.13v.98h-1.06v-4.88h6.03v3.91h-4.98ZM247.06,109.52c.27-.46.61-1.14.83-1.68h-4.99c.32.54.61,1.22.75,1.68h3.41ZM243.52,115.15v2.05h3.89v-2.05h-3.89Z"/><path class="cls-1" d="M256.38,112.89h5.65v6.82h-1.17v-.72h-3.35v.86h-1.14v-6.96ZM257.52,114.05v3.79h3.35v-3.79h-3.35ZM267.41,111.21h-8.71v-5.3h8.71v5.3ZM266.21,107.05h-6.35v3.03h6.35v-3.03ZM269.73,112.89v6.85h-1.17v-.75h-3.63v.86h-1.15v-6.96h5.95ZM268.57,117.84v-3.79h-3.63v3.79h3.63Z"/><path class="cls-1" d="M283.14,112v2.38h3.79v1.1h-3.79v2.58c0,.5.1.59.64.59h1.82c.5,0,.58-.32.64-2.03.26.21.75.42,1.07.5-.11,2.03-.45,2.59-1.62,2.59h-2.1c-1.35,0-1.7-.35-1.7-1.66v-2.56h-2.88c-.26,1.71-1.2,3.35-4.34,4.43-.14-.27-.51-.72-.75-.94,2.67-.9,3.58-2.16,3.87-3.49h-3.55v-1.1h3.68v-2.38h-1.68v-.61c-.77.58-1.58,1.04-2.38,1.41-.16-.26-.51-.67-.74-.9,1.1-.45,2.26-1.17,3.25-2.08-.48-.51-1.26-1.18-1.92-1.68l.74-.62c.64.46,1.42,1.09,1.94,1.57.58-.66,1.09-1.36,1.49-2.11h-3.97v-1.06h4.56l.21-.05.78.38c-.69,1.87-1.9,3.44-3.33,4.64h7.52c-1.55-1.39-2.77-3.23-3.57-5.3l1.02-.3c.27.69.61,1.38,1.01,2,.7-.58,1.47-1.33,1.97-1.89l.9.64c-.71.69-1.59,1.46-2.34,2.02.32.43.66.85,1.04,1.23.78-.61,1.71-1.46,2.27-2.06l.9.62c-.74.72-1.7,1.49-2.51,2.08.9.78,1.9,1.42,2.99,1.86-.26.22-.62.69-.82.99-.82-.35-1.58-.83-2.29-1.39v.61h-1.84ZM281.91,112h-2.79v2.38h2.79v-2.38Z"/><path class="cls-1" d="M294.43,116.61c.75,1.17,2.15,1.71,3.99,1.79,1.74.06,5.3.02,7.17-.11-.13.29-.34.85-.38,1.22-1.75.06-5.03.1-6.79.03-2.08-.08-3.51-.66-4.53-1.89-.77.67-1.57,1.36-2.42,2.05l-.64-1.2c.74-.48,1.63-1.15,2.43-1.83v-4.05h-2.22v-1.12h3.39v5.11ZM293.94,108.88c-.5-.77-1.68-1.83-2.72-2.53l.88-.72c1.02.67,2.24,1.7,2.79,2.46l-.95.78ZM301.21,112.62c.67,2,2.03,3.36,4.18,3.97-.27.24-.59.69-.75.99-2.08-.72-3.43-2.08-4.21-4.11-.5,1.44-1.63,2.91-4.18,4.05-.16-.24-.53-.66-.78-.88,2.77-1.12,3.7-2.64,3.99-4.02h-4.11v-1.07h4.24c.02-.16.02-.3.02-.45v-1.78h-3.75v-1.06h2c-.19-.72-.79-1.79-1.38-2.58l1.01-.4c.62.77,1.23,1.83,1.46,2.54l-.96.43h6.9v1.06h-4.1v1.79c0,.14,0,.29-.02.43h4.59v1.07h-4.15ZM304.01,105.63c-.56.91-1.2,1.97-1.73,2.64l-.98-.35c.51-.74,1.17-1.89,1.49-2.69l1.22.4Z"/><path class="cls-1" d="M315.59,117.84c.5-.03.98-.11,1.36-.19,2.03-.45,4.02-1.95,4.02-4.69,0-2.4-1.52-4.37-4.21-4.59-.21,1.47-.51,3.07-.94,4.56-.98,3.25-2.24,4.93-3.71,4.93s-2.83-1.63-2.83-4.24c0-3.44,3.07-6.45,6.95-6.45s6.08,2.62,6.08,5.83-2.19,5.55-5.97,6.05l-.74-1.2ZM314.55,112.65c.4-1.31.71-2.82.88-4.27-3.04.38-4.9,2.99-4.9,5.12,0,2,.93,2.88,1.62,2.88s1.58-1.06,2.4-3.73Z"/><path class="cls-1" d="M331.17,114.62c-1.62.82-3.36,1.67-4.71,2.3l-.46-1.17c.61-.26,1.36-.58,2.18-.94v-5.01h-1.87v-1.12h1.87v-3.33h1.1v3.33h1.73v1.12h-1.73v4.5l1.63-.74.26,1.06ZM334.15,112.78c-.21.38-.43.77-.69,1.12h6.88s-.02.32-.05.48c-.24,3.3-.5,4.55-.95,5.01-.24.27-.53.35-.9.4-.35.02-.94.02-1.58-.02,0-.29-.11-.72-.27-.96.59.05,1.12.06,1.36.06.22,0,.37-.02.48-.18.27-.29.51-1.3.72-3.81h-1.25c-.64,1.9-1.89,3.97-3.27,5.01-.19-.24-.56-.51-.85-.69,1.3-.86,2.47-2.59,3.12-4.32h-1.55c-.85,1.65-2.42,3.39-3.89,4.32-.18-.26-.5-.54-.78-.74,1.33-.72,2.74-2.16,3.6-3.58h-1.62c-.64.72-1.36,1.34-2.08,1.82-.16-.19-.58-.58-.82-.74,1.26-.75,2.42-1.89,3.17-3.2h-2.24v-1.01h10.02v1.01h-6.58ZM339.59,110.88h-7.31v-5.17h7.31v5.17ZM338.49,106.6h-5.12v1.26h5.12v-1.26ZM338.49,108.7h-5.12v1.28h5.12v-1.28Z"/><path class="cls-1" d="M351.51,105.28c1.7,2.35,4.51,4.58,7.03,5.71-.29.27-.58.69-.78,1.02-2.48-1.3-5.28-3.54-6.77-5.59-1.31,1.95-3.91,4.23-6.64,5.68-.14-.27-.46-.69-.74-.94,2.79-1.41,5.46-3.84,6.71-5.89h1.2ZM346.18,113.49h9.73v6.37h-1.22v-.66h-7.35v.66h-1.17v-6.37ZM355.03,110.43v1.06h-8.02v-1.06h8.02ZM347.35,114.56v3.57h7.35v-3.57h-7.35Z"/><path class="cls-1" d="M368.39,117.84c.5-.03.98-.11,1.36-.19,2.03-.45,4.02-1.95,4.02-4.69,0-2.4-1.52-4.37-4.21-4.59-.21,1.47-.51,3.07-.95,4.56-.98,3.25-2.24,4.93-3.71,4.93s-2.83-1.63-2.83-4.24c0-3.44,3.07-6.45,6.95-6.45s6.08,2.62,6.08,5.83-2.19,5.55-5.97,6.05l-.74-1.2ZM367.35,112.65c.4-1.31.7-2.82.88-4.27-3.04.38-4.9,2.99-4.9,5.12,0,2,.93,2.88,1.62,2.88s1.58-1.06,2.4-3.73Z"/><path class="cls-1" d="M383.96,112.03c-.13.32-.27.64-.42.96h8.08v6.79h-1.22v-.54h-6.69v.58h-1.17v-5.06c-.82,1.25-1.79,2.32-2.85,3.12-.18-.24-.64-.67-.9-.88,1.66-1.14,3.03-2.91,3.86-4.96h-3.35v-.98h6.29v-1.1h-4.83v-.93h4.83v-1.1h-5.54v-.96h2.93c-.24-.43-.59-.94-.94-1.36l1.02-.37c.48.48.96,1.15,1.17,1.65l-.19.08h4.23l-.18-.06c.35-.48.85-1.22,1.09-1.7l1.25.37c-.37.5-.75.99-1.1,1.39h3.07v.96h-5.6v1.1h4.88v.93h-4.88v1.1h6.29v.98h-9.14ZM383.71,113.9v.96h6.69v-.96h-6.69ZM390.41,115.62h-6.69v.96h6.69v-.96ZM390.41,118.32v-.99h-6.69v.99h6.69Z"/><path class="cls-1" d="M409.08,106.33v13.27h-1.25v-.98h-7.94v1.04h-1.2v-13.33h10.39ZM399.89,107.5v4.32h7.94v-4.32h-7.94ZM407.83,117.46v-4.47h-7.94v4.47h7.94Z"/><path class="cls-1" d="M418.29,112.54c0,3.12-1.26,5.67-3.19,7.62l-.96-.5c1.84-1.9,2.98-4.27,2.98-7.12s-1.14-5.22-2.98-7.12l.96-.5c1.92,1.95,3.19,4.5,3.19,7.62Z"/><path class="cls-1" d="M28.39,104.25l-2.71-3.89-2.66,3.89h-2.98l4.14-5.7-3.94-5.51h2.95l2.58,3.63,2.53-3.63h2.8l-3.91,5.41,4.18,5.79h-2.99Z"/><path class="cls-1" d="M48.85,103.69c0,1.15-.27,1.7-1.01,2.02-.77.34-1.89.37-3.54.37-.11-.56-.5-1.47-.8-2,1.12.06,2.46.05,2.82.05.38,0,.51-.13.51-.46v-2.32h-6.85c-.42,1.79-1.22,3.54-2.71,4.79-.29-.4-1.06-1.1-1.47-1.38,2.42-2.06,2.64-5.12,2.64-7.55v-5.27h10.4v11.77ZM46.84,99.49v-1.95h-6.42c-.02.61-.05,1.28-.11,1.95h6.53ZM40.42,93.78v1.95h6.42v-1.95h-6.42Z"/><path class="cls-1" d="M60.37,93.04v11.2h-2.59v-9.12h-2.24v-2.08h4.83Z"/><path class="cls-1" d="M79.3,92.13v13.77h-2.05v-1.01h-7.11v1.04h-1.97v-13.8h11.12ZM70.15,94.05v3.44h7.11v-3.44h-7.11ZM77.25,102.97v-3.59h-7.11v3.59h7.11Z"/><path class="cls-1" d="M87.4,99.64c0-3,1.25-5.24,2.76-6.72l1.33.59c-1.4,1.51-2.51,3.45-2.51,6.13s1.11,4.62,2.51,6.14l-1.33.59c-1.51-1.48-2.76-3.73-2.76-6.72Z"/><path class="cls-1" d="M99.94,97.66c0,2.13,1.32,5.35,5.67,6.96-.38.37-.91,1.08-1.16,1.57-3.33-1.37-5.03-4.18-5.42-5.56-.36,1.43-1.9,4.15-5.2,5.56-.22-.38-.81-1.09-1.18-1.43,4.22-1.61,5.49-5,5.49-7.09v-4.37h1.79v4.36ZM96.3,96.24c-.24,1.75-.64,3.42-1.85,4.41l-1.51-.94c1.02-.87,1.49-2.25,1.68-3.84l1.68.37ZM105.01,96.55c-.71,1.36-1.56,2.86-2.26,3.81l-1.46-.62c.67-1.05,1.44-2.65,1.88-3.88l1.84.69Z"/><path class="cls-1" d="M110.83,99.64c0,3-1.25,5.24-2.76,6.72l-1.33-.59c1.4-1.51,2.51-3.45,2.51-6.14s-1.11-4.62-2.51-6.13l1.33-.59c1.51,1.48,2.76,3.73,2.76,6.72Z"/><rect class="cls-3" y="154" width="440" height="55" rx="15" ry="15"/><path class="cls-1" d="M139.57,178.78h-6.04v-.98h6.04v.98ZM139.01,188.85h-3.71v.74h-1.04v-5.36h4.75v4.63ZM134.29,179.96h4.74v.94h-4.74v-.94ZM134.29,182.08h4.74v.96h-4.74v-.96ZM138.98,176.67h-4.61v-.96h4.61v.96ZM135.3,185.2v2.69h2.67v-2.69h-2.67ZM141.96,177.59c0,1.38-.35,3.06-2.05,4.18-.18-.21-.62-.62-.86-.79,1.54-.98,1.78-2.3,1.78-3.41v-1.92h4.99v3.91c0,.35.05.42.3.42h.8c.29,0,.35-.21.38-1.75.22.19.69.37.99.43-.1,1.87-.38,2.34-1.23,2.34h-1.1c-.98,0-1.27-.3-1.27-1.44v-2.85h-2.74v.88ZM147.33,182.28c-.54,1.97-1.49,3.52-2.71,4.72,1.04.78,2.27,1.38,3.68,1.73-.26.24-.61.72-.77,1.01-1.46-.43-2.72-1.09-3.81-1.97-1.18.91-2.56,1.55-4.02,1.98-.11-.29-.42-.8-.64-1.04,1.36-.35,2.66-.93,3.78-1.76-.95-.98-1.7-2.14-2.24-3.49l1.06-.32c.46,1.17,1.17,2.21,2.06,3.09.9-.85,1.62-1.89,2.1-3.12h-6.05v-1.09h6.58l.21-.05.77.3Z"/><path class="cls-1" d="M165.14,177.67v3.12h-1.14v-2.1h-10.92v2.1h-1.1v-3.12h2.26c-.3-.56-.83-1.3-1.3-1.86l1.01-.45c.58.62,1.22,1.5,1.49,2.08l-.48.22h3.12c-.22-.62-.74-1.52-1.18-2.19l1.04-.35c.48.67,1.04,1.63,1.25,2.24l-.79.3h2.91c.58-.69,1.26-1.68,1.63-2.39l1.23.42c-.48.67-1.04,1.39-1.55,1.97h2.51ZM158.9,183.61c-.16.45-.34.88-.51,1.28h5.63v4.87h-1.17v-.59h-8.5v.61h-1.12v-4.88h4.02c.11-.4.26-.86.35-1.28h-3.26v-3.7h8.44v3.7h-3.87ZM162.85,185.93h-8.5v2.18h8.5v-2.18ZM155.46,182.68h6.16v-1.84h-6.16v1.84Z"/><path class="cls-1" d="M181.33,176.25v13.27h-1.25v-.98h-7.94v1.04h-1.2v-13.33h10.39ZM172.15,177.42v4.32h7.94v-4.32h-7.94ZM180.09,187.37v-4.47h-7.94v4.47h7.94Z"/><path class="cls-1" d="M28.39,188.16l-2.71-3.89-2.66,3.89h-2.98l4.14-5.7-3.94-5.51h2.95l2.58,3.63,2.53-3.63h2.8l-3.91,5.41,4.18,5.79h-2.99Z"/><path class="cls-1" d="M48.85,187.6c0,1.15-.27,1.7-1.01,2.02-.77.34-1.89.37-3.54.37-.11-.56-.5-1.47-.8-2,1.12.06,2.46.05,2.82.05.38,0,.51-.13.51-.46v-2.32h-6.85c-.42,1.79-1.22,3.54-2.71,4.79-.29-.4-1.06-1.11-1.47-1.38,2.42-2.06,2.64-5.12,2.64-7.55v-5.27h10.4v11.77ZM46.84,183.4v-1.95h-6.42c-.02.61-.05,1.28-.11,1.95h6.53ZM40.42,177.69v1.95h6.42v-1.95h-6.42Z"/><path class="cls-1" d="M64.42,186.04v2.11h-8.47v-1.68l4.32-4.08c.99-.94,1.17-1.52,1.17-2.06,0-.88-.61-1.39-1.79-1.39-.96,0-1.78.37-2.32,1.12l-1.89-1.22c.87-1.26,2.43-2.08,4.45-2.08,2.5,0,4.16,1.28,4.16,3.31,0,1.09-.3,2.08-1.87,3.54l-2.58,2.43h4.82Z"/><path class="cls-1" d="M82.47,176.04v13.77h-2.05v-1.01h-7.11v1.04h-1.97v-13.8h11.12ZM73.31,177.96v3.44h7.11v-3.44h-7.11ZM80.42,186.88v-3.58h-7.11v3.58h7.11Z"/><path class="cls-1" d="M90.57,183.55c0-3,1.25-5.24,2.76-6.72l1.33.59c-1.4,1.51-2.51,3.45-2.51,6.13s1.11,4.62,2.51,6.13l-1.33.59c-1.51-1.48-2.76-3.72-2.76-6.72Z"/><path class="cls-1" d="M101.15,180.79c-.64,3.8-2.19,6.64-4.16,8.1-.29-.39-.97-1.06-1.39-1.32,1.62-1.09,2.86-3.01,3.49-5.46h-3.04v-1.68h3.66l.31-.06,1.13.42ZM108.59,180.29c-1.12,1.19-2.52,2.51-3.66,3.39.99,1.68,2.31,3.04,4.03,3.85-.42.35-.99,1.05-1.29,1.55-2.03-1.15-3.45-3-4.45-5.28v4.13c0,1.01-.22,1.51-.8,1.79-.6.31-1.51.38-2.79.38-.07-.53-.39-1.37-.66-1.86.92.04,1.81.03,2.1.03s.38-.1.38-.34v-10.91h1.77v2.46c.27.98.59,1.93.99,2.82.99-.93,2.1-2.12,2.81-3.11l1.56,1.09Z"/><path class="cls-1" d="M114,183.55c0,3-1.25,5.24-2.76,6.72l-1.33-.59c1.4-1.51,2.51-3.45,2.51-6.13s-1.11-4.62-2.51-6.13l1.33-.59c1.51,1.49,2.76,3.73,2.76,6.72Z"/><rect class="cls-2" y="224" width="440" height="55" rx="15" ry="15"/><path class="cls-4" d="M135.01,246.52c-.03.3-.05.77-.05,1.15v5.35c0,.4.02.93.05,1.22h-1.47c.02-.24.06-.75.06-1.23v-5.33c0-.29-.03-.85-.06-1.15h1.47ZM142.42,246.41c-.03.38-.06.85-.06,1.38v2.59c0,3.84-.51,5.11-1.67,6.48-1.04,1.25-2.64,1.94-3.81,2.34l-1.04-1.1c1.47-.37,2.85-1.01,3.84-2.13,1.15-1.33,1.34-2.62,1.34-5.65v-2.53c0-.53-.05-.99-.08-1.38h1.47Z"/><path class="cls-4" d="M152.85,247.53l1.43.29c-.11.37-.22.83-.3,1.17-.21.99-.77,3.36-1.44,5.01-.59,1.47-1.47,3.11-2.37,4.4l-1.36-.58c1.02-1.34,1.92-3.03,2.46-4.35.7-1.67,1.36-4.1,1.58-5.94ZM156.84,247.79l1.3-.43c.62,1.17,1.65,3.38,2.34,5.07.64,1.57,1.49,4.03,1.92,5.47l-1.43.46c-.4-1.63-1.15-3.81-1.81-5.51-.64-1.65-1.63-3.87-2.32-5.07Z"/><path class="cls-4" d="M166.83,251.61c.48.03,1.33.08,2.22.08h8.77c.8,0,1.38-.05,1.73-.08v1.57c-.32-.02-.99-.08-1.71-.08h-8.79c-.88,0-1.73.03-2.22.08v-1.57Z"/><path class="cls-4" d="M196.08,249.4c.7,0,1.25-.05,1.46-.08v1.34c-.16-.02-.75-.05-1.46-.05h-1.76v.56c0,4.27-.91,6.47-4.58,8.1l-1.07-1.01c2.91-1.12,4.37-2.5,4.37-6.98v-.67h-4.56v2.59c0,.59.05,1.3.06,1.46h-1.41c.02-.16.06-.85.06-1.46v-2.59h-1.71c-.7,0-1.42.05-1.62.06v-1.39c.14.03.93.11,1.62.11h1.71v-2.05c0-.51-.05-1.01-.06-1.17h1.42c-.02.16-.08.61-.08,1.17v2.05h4.56v-2c0-.62-.05-1.15-.08-1.31h1.44c-.02.16-.08.69-.08,1.31v2h1.76Z"/><path class="cls-4" d="M201.46,258.13c1.34-.96,2.3-2.39,2.78-3.94.46-1.47.48-4.66.48-6.44,0-.48-.05-.83-.11-1.17h1.47c-.02.19-.08.67-.08,1.15,0,1.78-.06,5.2-.5,6.8-.48,1.71-1.5,3.28-2.85,4.39l-1.2-.8ZM208.79,258.21c.06-.26.11-.58.11-.9v-9.59c0-.61-.08-1.06-.1-1.18h1.47c-.02.13-.06.58-.06,1.18v9.24c1.47-.67,3.44-2.13,4.66-3.94l.77,1.09c-1.38,1.87-3.6,3.5-5.46,4.43-.24.13-.38.24-.54.37l-.85-.7Z"/><path class="cls-4" d="M28.39,258.16l-2.71-3.89-2.66,3.89h-2.98l4.14-5.7-3.94-5.51h2.95l2.58,3.63,2.53-3.63h2.8l-3.91,5.41,4.18,5.79h-2.99Z"/><path class="cls-4" d="M48.85,257.6c0,1.15-.27,1.7-1.01,2.02-.77.34-1.89.37-3.54.37-.11-.56-.5-1.47-.8-2,1.12.06,2.46.05,2.82.05.38,0,.51-.13.51-.46v-2.32h-6.85c-.42,1.79-1.22,3.54-2.71,4.79-.29-.4-1.06-1.11-1.47-1.38,2.42-2.06,2.64-5.12,2.64-7.55v-5.27h10.4v11.77ZM46.84,253.4v-1.95h-6.42c-.02.61-.05,1.28-.11,1.95h6.53ZM40.42,247.69v1.95h6.42v-1.95h-6.42Z"/><path class="cls-4" d="M64.32,254.73c0,1.89-1.46,3.62-4.64,3.62-1.57,0-3.19-.43-4.27-1.2l1.01-1.98c.85.64,2.03,1.01,3.2,1.01,1.3,0,2.1-.53,2.1-1.44,0-.85-.62-1.38-2.1-1.38h-1.18v-1.71l2.3-2.61h-4.77v-2.08h7.84v1.68l-2.53,2.88c2.02.32,3.04,1.57,3.04,3.22Z"/><path class="cls-4" d="M82.5,246.04v13.77h-2.05v-1.01h-7.11v1.04h-1.97v-13.8h11.12ZM73.35,247.96v3.44h7.11v-3.44h-7.11ZM80.45,256.88v-3.58h-7.11v3.58h7.11Z"/><path class="cls-4" d="M90.6,253.55c0-3,1.25-5.24,2.76-6.72l1.33.59c-1.4,1.51-2.51,3.45-2.51,6.13s1.11,4.62,2.51,6.13l-1.33.59c-1.51-1.48-2.76-3.72-2.76-6.72Z"/><path class="cls-4" d="M103.88,251.92c1.16,2.14,3.12,4.23,5.18,5.35-.41.34-.98,1-1.25,1.46-1.76-1.13-3.38-2.93-4.61-4.94v6.32h-1.78v-6.25c-1.22,2.03-2.83,3.81-4.62,4.93-.28-.43-.85-1.08-1.25-1.43,2.07-1.12,3.99-3.24,5.14-5.44h-4.5v-1.65h5.22v-3.25h1.78v3.25h5.25v1.65h-4.58Z"/><path class="cls-4" d="M114.03,253.55c0,3-1.25,5.24-2.76,6.72l-1.33-.59c1.4-1.51,2.51-3.45,2.51-6.13s-1.11-4.62-2.51-6.13l1.33-.59c1.51,1.49,2.76,3.73,2.76,6.72Z"/><rect class="cls-2" y="294" width="440" height="55" rx="15" ry="15"/><path class="cls-4" d="M142.34,319.69c1.33,2.74,3.63,5.28,6.15,6.5-.29.24-.7.71-.88,1.04-2.42-1.33-4.56-3.76-6-6.53v4.9h3.04v1.18h-3.04v2.98h-1.23v-2.98h-3.12v-1.18h3.12v-4.9c-1.47,2.77-3.63,5.19-5.99,6.55-.18-.29-.58-.74-.85-.96,2.43-1.26,4.75-3.86,6.1-6.59h-5.55v-1.18h6.29v-3.35h1.23v3.35h6.34v1.18h-5.6Z"/><path class="cls-4" d="M160.4,320.6c1.44,1.25,3.65,2.35,5.63,2.9-.29.24-.62.69-.8,1.01-.48-.16-.98-.35-1.47-.58v5.78h-1.18v-.48h-7.79v.54h-1.14v-5.88c-.58.29-1.15.53-1.7.74-.14-.29-.48-.7-.75-.94,1.9-.59,4.08-1.78,5.52-3.09h-5.11v-1.02h3.46c-.24-.59-.69-1.38-1.14-1.97l.96-.38c-.74.05-1.46.08-2.15.1-.03-.26-.13-.67-.26-.91,3.79-.14,8.36-.53,10.85-1.06l.8.88c-1.38.29-3.14.51-5.03.69v2.66h2.19l-.46-.18c.46-.66,1.02-1.73,1.31-2.46l1.28.35c-.48.8-1.02,1.67-1.47,2.29h3.63v1.02h-5.2ZM163.17,323.64c-1.52-.77-2.99-1.79-4.05-2.91v2.61h-1.15v-2.54c-1.02,1.07-2.42,2.06-3.84,2.85h9.04ZM158,324.59h-3.22v1.38h3.22v-1.38ZM154.79,328.29h3.22v-1.47h-3.22v1.47ZM157.97,317.03c-.99.08-2.02.14-3.01.19.53.64,1.04,1.5,1.25,2.11l-.59.24h2.35v-2.54ZM162.58,324.59h-3.46v1.38h3.46v-1.38ZM162.58,328.29v-1.47h-3.46v1.47h3.46Z"/><path class="cls-4" d="M176.2,320.76c.95,0,1.7.75,1.7,1.7s-.75,1.7-1.7,1.7-1.7-.75-1.7-1.7.75-1.7,1.7-1.7Z"/><path class="cls-4" d="M190.99,322.92l-1.57.54v4.98c0,.61-.14.93-.51,1.12-.37.16-.98.19-1.92.19-.05-.27-.19-.74-.34-1.04.67.02,1.26.02,1.46,0,.19,0,.27-.06.27-.27v-4.61c-.64.22-1.25.43-1.79.61l-.29-1.14c.58-.18,1.3-.4,2.08-.66v-3.2h-1.87v-1.09h1.87v-3.2h1.04v3.2h1.33v1.09h-1.33v2.85l1.39-.46.18,1.09ZM200.44,319.24c-.26,2.56-.67,4.74-1.41,6.56.54,1.22,1.28,2.3,2.29,3.07-.21.19-.56.62-.72.9-.88-.75-1.57-1.73-2.1-2.83-.59,1.1-1.33,2.06-2.26,2.87-.13-.19-.46-.59-.69-.79-.05.26-.18.45-.42.56-.32.18-.83.18-1.58.18-.03-.26-.16-.69-.3-.96h1.12c.16,0,.21-.05.21-.19v-1.57h-2.27v2.71h-1.01v-7.81h4.29v6.67c0,.13,0,.24-.02.35,1.06-.86,1.82-1.94,2.4-3.25-.51-1.39-.85-2.9-1.06-4.31-.19.48-.4.93-.64,1.33-.13-.21-.51-.66-.74-.86.14-.26.29-.51.42-.8l-.54.26c-.06-.18-.14-.38-.26-.61-1.6.16-3.2.27-4.45.37l-.18-.99,1.04-.06c.26-.62.53-1.44.7-2.11h-1.76v-.98h2.42v-1.78h1.09v1.78h2.21v.98h-2.85c-.26.67-.54,1.42-.82,2.07.67-.05,1.41-.1,2.16-.14-.21-.37-.43-.75-.66-1.07l.8-.35c.48.67.98,1.54,1.28,2.19.59-1.54.93-3.47,1.14-5.46l1.04.14c-.13.99-.27,1.97-.46,2.9h3.3v1.06h-.72ZM192.31,322.84v1.23h2.27v-1.23h-2.27ZM194.58,326.17v-1.26h-2.27v1.26h2.27ZM197.62,319.24c-.03.11-.06.22-.1.34.16,1.52.43,3.22.94,4.8.48-1.49.77-3.22.95-5.14h-1.79Z"/><path class="cls-4" d="M210.8,322.92c-.69,1.55-1.57,3.39-2.37,4.8,2.23-.1,4.77-.21,7.25-.34-.64-.93-1.38-1.86-2.07-2.64l1.09-.53c1.42,1.55,2.98,3.65,3.7,5.04l-1.17.62c-.19-.4-.46-.87-.77-1.36-4.16.24-8.55.43-11.44.58l-.18-1.25c.67-.02,1.42-.05,2.24-.08.77-1.38,1.65-3.33,2.21-4.85h-5.01v-1.17h6.45v-3.03h-5.22v-1.17h5.22v-2.42h1.23v2.42h5.41v1.17h-5.41v3.03h6.59v1.17h-7.76Z"/><path class="cls-4" d="M28.39,328.16l-2.71-3.89-2.66,3.89h-2.98l4.14-5.7-3.94-5.51h2.95l2.58,3.63,2.53-3.63h2.8l-3.91,5.41,4.18,5.79h-2.99Z"/><path class="cls-4" d="M48.85,327.6c0,1.15-.27,1.7-1.01,2.02-.77.34-1.89.37-3.54.37-.11-.56-.5-1.47-.8-2,1.12.06,2.46.05,2.82.05.38,0,.51-.13.51-.46v-2.32h-6.85c-.42,1.79-1.22,3.54-2.71,4.79-.29-.4-1.06-1.11-1.47-1.38,2.42-2.06,2.64-5.12,2.64-7.55v-5.27h10.4v11.77ZM46.84,323.4v-1.95h-6.42c-.02.61-.05,1.28-.11,1.95h6.53ZM40.42,317.69v1.95h6.42v-1.95h-6.42Z"/><path class="cls-4" d="M66.31,325.8h-1.82v2.35h-2.53v-2.35h-6.04v-1.74l5.28-7.11h2.72l-4.9,6.74h3.01v-2.1h2.45v2.1h1.82v2.11Z"/><path class="cls-4" d="M84.05,316.04v13.77h-2.05v-1.01h-7.11v1.04h-1.97v-13.8h11.12ZM74.9,317.96v3.44h7.11v-3.44h-7.11ZM82,326.88v-3.58h-7.11v3.58h7.11Z"/><path class="cls-4" d="M92.15,323.55c0-3,1.25-5.24,2.76-6.72l1.33.59c-1.4,1.51-2.51,3.45-2.51,6.13s1.11,4.62,2.51,6.13l-1.33.59c-1.51-1.48-2.76-3.72-2.76-6.72Z"/><path class="cls-4" d="M108.21,326.05c-.53.77-1.08,1.62-1.57,2.21h3.17v1.43h-11.85v-1.43h2.73c-.21-.63-.67-1.57-1.16-2.26l1.28-.55h-2.14v-1.43h4.26v-1.39h-2.58v-.69c-.66.48-1.37.93-2.09,1.3-.21-.39-.67-.99-1.04-1.34,2.38-1.16,4.62-3.26,5.66-4.95h1.72c1.51,2.12,3.77,3.88,5.98,4.78-.42.42-.8.98-1.11,1.5-.7-.36-1.43-.83-2.13-1.33v.73h-2.68v1.39h4.31v1.43h-4.31v2.8h1.53l-.91-.38c.46-.66,1.02-1.68,1.33-2.42l1.6.59ZM100.88,325.46c.53.71,1.08,1.67,1.29,2.31l-1.15.49h1.89v-2.8h-2.03ZM106.39,321.19c-1.04-.84-1.96-1.75-2.58-2.59-.6.84-1.47,1.75-2.48,2.59h5.06Z"/><path class="cls-4" d="M115.58,323.55c0,3-1.25,5.24-2.76,6.72l-1.33-.59c1.4-1.51,2.51-3.45,2.51-6.13s-1.11-4.62-2.51-6.13l1.33-.59c1.51,1.49,2.76,3.73,2.76,6.72Z"/><circle class="cls-2" cx="215" cy="25" r="25"/><path class="cls-4" d="M219.66,30.81v-13.94h-4.27c-.18.89-.36,1.83-.56,2.74h2.26l.48-.1,1.75.53c-.91,8.2-3.58,13.94-7.46,16.78-.38-.69-1.32-1.85-1.88-2.31,1.85-1.27,3.33-3.15,4.44-5.61-.53-.63-1.42-1.45-2.21-2.08-.43.79-.91,1.5-1.47,2.13-.38-.58-1.14-1.5-1.68-2.03v9.88h-2.77v-12.72c-.51.76-1.04,1.47-1.57,2.08-.23-.71-.96-2.46-1.45-3.25,2.06-2.36,3.91-6.07,5.03-9.78l2.79.84-.08.25h8.81v1.8h2.49v14.78h-2.67ZM209.07,26.75c1.93-2.44,2.95-6.4,3.45-9.88h-1.68v-2.16c-.51,1.47-1.12,2.95-1.78,4.39v7.64ZM214.15,22.23c-.25.76-.51,1.5-.79,2.21.71.51,1.52,1.12,2.11,1.68.36-1.19.63-2.49.86-3.88h-2.18ZM226.72,13.6v19.8c0,1.6-.28,2.39-1.22,2.87-.91.48-2.34.58-4.34.58-.1-.81-.51-2.13-.91-2.97,1.37.08,2.67.08,3.12.05.41-.03.56-.13.56-.56V13.6h2.79Z"/><rect class="cls-3" y="364" width="440" height="55" rx="15" ry="15"/><path class="cls-1" d="M139.06,385.62c-.48,1.17-1.07,2.34-1.74,3.42v10.69h-1.17v-8.98c-.59.78-1.23,1.5-1.89,2.11-.11-.29-.5-.91-.72-1.2,1.76-1.52,3.39-3.91,4.34-6.42l1.18.37ZM144.42,390.36c1.02,2.54,2.69,5.09,4.35,6.43-.29.22-.7.64-.9.96-1.55-1.44-3.07-3.87-4.15-6.43v8.45h-1.17v-8.12c-1.07,2.5-2.59,4.79-4.16,6.16-.22-.27-.62-.7-.9-.91,1.73-1.36,3.43-3.94,4.43-6.55h-3.87v-1.15h4.5v-3.84h1.17v3.84h4.63v1.15h-3.94Z"/><path class="cls-1" d="M160.42,395.96c1.46,1.15,3.67,2.1,5.71,2.53-.27.26-.64.72-.8,1.06-2.14-.61-4.48-1.81-6.02-3.28v3.49h-1.17v-3.41c-1.54,1.39-3.87,2.54-5.97,3.15-.16-.3-.51-.75-.77-1.01,1.99-.45,4.21-1.41,5.65-2.53h-5.23v-1.01h6.32v-1.18h-4.82v-.91h4.82v-1.17h-5.62v-.98h3.49c-.14-.48-.46-1.12-.78-1.6l.56-.11h-3.91v-1.02h2.54c-.22-.64-.78-1.6-1.26-2.32l1.01-.34c.54.72,1.12,1.71,1.36,2.35l-.82.3h1.97v-2.83h1.1v2.83h1.91v-2.83h1.12v2.83h1.94l-.59-.19c.42-.67.93-1.71,1.22-2.43l1.22.32c-.45.82-.96,1.7-1.41,2.3h2.48v1.02h-3.2c-.32.61-.67,1.23-.99,1.71h3.63v.98h-5.79v1.17h5.01v.91h-5.01v1.18h6.42v1.01h-5.31ZM156.43,389c.35.5.67,1.17.8,1.6l-.51.11h3.76l-.16-.05c.27-.46.59-1.12.82-1.67h-4.71Z"/><path class="cls-1" d="M181.62,386.25v13.27h-1.25v-.98h-7.94v1.04h-1.2v-13.33h10.39ZM172.43,387.42v4.32h7.94v-4.32h-7.94ZM180.37,397.37v-4.47h-7.94v4.47h7.94Z"/><path class="cls-1" d="M28.39,398.16l-2.71-3.89-2.66,3.89h-2.98l4.14-5.7-3.94-5.51h2.95l2.58,3.63,2.53-3.63h2.8l-3.91,5.41,4.18,5.79h-2.99Z"/><path class="cls-1" d="M48.85,397.6c0,1.15-.27,1.7-1.01,2.02-.77.34-1.89.37-3.54.37-.11-.56-.5-1.47-.8-2,1.12.06,2.46.05,2.82.05.38,0,.51-.13.51-.46v-2.32h-6.85c-.42,1.79-1.22,3.54-2.71,4.79-.29-.4-1.06-1.11-1.47-1.38,2.42-2.06,2.64-5.12,2.64-7.55v-5.27h10.4v11.77ZM46.84,393.4v-1.95h-6.42c-.02.61-.05,1.28-.11,1.95h6.53ZM40.42,387.69v1.95h6.42v-1.95h-6.42Z"/><path class="cls-1" d="M64.52,394.64c0,1.98-1.46,3.71-4.66,3.71-1.55,0-3.19-.43-4.27-1.2l1.03-1.98c.85.64,2.02,1.01,3.19,1.01,1.29,0,2.1-.54,2.1-1.46s-.58-1.46-2.61-1.46h-2.87l.58-6.31h6.84v2.08h-4.67l-.18,2.13h.91c3.31,0,4.62,1.49,4.62,3.47Z"/><path class="cls-1" d="M82.55,386.04v13.77h-2.05v-1.01h-7.11v1.04h-1.97v-13.8h11.12ZM73.39,387.96v3.44h7.11v-3.44h-7.11ZM80.5,396.88v-3.58h-7.11v3.58h7.11Z"/><path class="cls-1" d="M90.65,393.55c0-3,1.25-5.24,2.76-6.72l1.33.59c-1.4,1.51-2.51,3.45-2.51,6.13s1.11,4.62,2.51,6.13l-1.33.59c-1.51-1.48-2.76-3.72-2.76-6.72Z"/><path class="cls-2" d="M108.74,397.87v1.64h-12.69v-1.64h5.41v-4.88h-4.5v-1.65h4.5v-4.3h1.79v4.3h4.57v1.65h-4.57v4.88h5.49Z"/><path class="cls-1" d="M114.08,393.55c0,3-1.25,5.24-2.76,6.72l-1.33-.59c1.4-1.51,2.51-3.45,2.51-6.13s-1.11-4.62-2.51-6.13l1.33-.59c1.51,1.49,2.76,3.73,2.76,6.72Z"/><rect class="cls-3" y="434" width="440" height="55" rx="15" ry="15"/><path class="cls-1" d="M139.06,455.62c-.48,1.17-1.07,2.34-1.74,3.42v10.69h-1.17v-8.98c-.59.78-1.23,1.5-1.89,2.11-.11-.29-.5-.91-.72-1.2,1.76-1.52,3.39-3.91,4.34-6.42l1.18.37ZM144.42,460.36c1.02,2.54,2.69,5.09,4.35,6.43-.29.22-.7.64-.9.96-1.55-1.44-3.07-3.87-4.15-6.43v8.45h-1.17v-8.12c-1.07,2.5-2.59,4.79-4.16,6.16-.22-.27-.62-.7-.9-.91,1.73-1.36,3.43-3.94,4.43-6.55h-3.87v-1.15h4.5v-3.84h1.17v3.84h4.63v1.15h-3.94Z"/><path class="cls-1" d="M160.42,465.96c1.46,1.15,3.67,2.1,5.71,2.53-.27.26-.64.72-.8,1.06-2.14-.61-4.48-1.81-6.02-3.28v3.49h-1.17v-3.41c-1.54,1.39-3.87,2.54-5.97,3.15-.16-.3-.51-.75-.77-1.01,1.99-.45,4.21-1.41,5.65-2.53h-5.23v-1.01h6.32v-1.18h-4.82v-.91h4.82v-1.17h-5.62v-.98h3.49c-.14-.48-.46-1.12-.78-1.6l.56-.11h-3.91v-1.02h2.54c-.22-.64-.78-1.6-1.26-2.32l1.01-.34c.54.72,1.12,1.71,1.36,2.35l-.82.3h1.97v-2.83h1.1v2.83h1.91v-2.83h1.12v2.83h1.94l-.59-.19c.42-.67.93-1.71,1.22-2.43l1.22.32c-.45.82-.96,1.7-1.41,2.3h2.48v1.02h-3.2c-.32.61-.67,1.23-.99,1.71h3.63v.98h-5.79v1.17h5.01v.91h-5.01v1.18h6.42v1.01h-5.31ZM156.43,459c.35.5.67,1.17.8,1.6l-.51.11h3.76l-.16-.05c.27-.46.59-1.12.82-1.67h-4.71Z"/><path class="cls-1" d="M181.62,456.25v13.27h-1.25v-.98h-7.94v1.04h-1.2v-13.33h10.39ZM172.43,457.42v4.32h7.94v-4.32h-7.94ZM180.37,467.37v-4.47h-7.94v4.47h7.94Z"/><path class="cls-1" d="M28.39,468.16l-2.71-3.89-2.66,3.89h-2.98l4.14-5.7-3.94-5.51h2.95l2.58,3.63,2.53-3.63h2.8l-3.91,5.41,4.18,5.79h-2.99Z"/><path class="cls-1" d="M48.85,467.6c0,1.15-.27,1.7-1.01,2.02-.77.34-1.89.37-3.54.37-.11-.56-.5-1.47-.8-2,1.12.06,2.46.05,2.82.05.38,0,.51-.13.51-.46v-2.32h-6.85c-.42,1.79-1.22,3.54-2.71,4.79-.29-.4-1.06-1.11-1.47-1.38,2.42-2.06,2.64-5.12,2.64-7.55v-5.27h10.4v11.77ZM46.84,463.4v-1.95h-6.42c-.02.61-.05,1.28-.11,1.95h6.53ZM40.42,457.69v1.95h6.42v-1.95h-6.42Z"/><path class="cls-1" d="M65.3,464.62c0,2.29-1.87,3.73-4.24,3.73-3.09,0-5.01-1.94-5.01-5.55,0-3.87,2.34-6.03,5.71-6.03,1.18,0,2.34.27,3.12.77l-.96,1.9c-.62-.42-1.34-.56-2.1-.56-1.87,0-3.07,1.11-3.15,3.25.66-.66,1.6-.99,2.77-.99,2.16,0,3.86,1.38,3.86,3.49ZM62.79,464.75c0-1.02-.75-1.68-1.9-1.68s-1.94.7-1.94,1.68.72,1.66,1.97,1.66c1.11,0,1.87-.64,1.87-1.66Z"/><path class="cls-1" d="M83.22,456.04v13.77h-2.05v-1.01h-7.11v1.04h-1.97v-13.8h11.12ZM74.07,457.96v3.44h7.11v-3.44h-7.11ZM81.17,466.88v-3.58h-7.11v3.58h7.11Z"/><path class="cls-1" d="M91.32,463.55c0-3,1.25-5.24,2.76-6.72l1.33.59c-1.4,1.51-2.51,3.45-2.51,6.13s1.11,4.62,2.51,6.13l-1.33.59c-1.51-1.48-2.76-3.72-2.76-6.72Z"/><path class="cls-2" d="M107.94,457.85v12.05h-1.79v-.88h-6.22v.91h-1.72v-12.07h9.73ZM99.93,459.54v3.01h6.22v-3.01h-6.22ZM106.14,467.34v-3.14h-6.22v3.14h6.22Z"/><path class="cls-1" d="M114.75,463.55c0,3-1.25,5.24-2.76,6.72l-1.33-.59c1.4-1.51,2.51-3.45,2.51-6.13s-1.11-4.62-2.51-6.13l1.33-.59c1.51,1.49,2.76,3.73,2.76,6.72Z"/><rect class="cls-3" y="504" width="440" height="55" rx="15" ry="15"/><path class="cls-1" d="M136.96,536.53c.78,1.18,2.21,1.71,4.13,1.79,1.75.06,5.33.02,7.22-.11-.14.29-.34.85-.4,1.22-1.75.06-5.06.1-6.82.03-2.13-.08-3.62-.64-4.64-1.89-.72.67-1.47,1.36-2.27,2.05l-.64-1.18c.72-.5,1.54-1.18,2.27-1.84v-4.05h-2.03v-1.12h3.19v5.11ZM136.5,528.86c-.5-.78-1.58-1.89-2.58-2.62l.88-.7c.99.72,2.11,1.78,2.61,2.56l-.91.77ZM140.23,530.35c-.05,2.14-.42,4.85-1.87,6.75-.18-.21-.69-.56-.96-.66,1.55-2,1.7-4.77,1.7-6.83v-3.67h8.58v1.1h-7.43v2.24h5.94l.22-.05.75.26c-.51,2.11-1.44,3.81-2.64,5.12,1.03.9,2.27,1.58,3.73,1.98-.27.24-.61.69-.77,1.02-1.49-.48-2.74-1.23-3.78-2.19-1.02.9-2.19,1.58-3.42,2.05-.14-.29-.45-.75-.67-.99,1.17-.38,2.31-1.02,3.28-1.91-.99-1.17-1.74-2.59-2.29-4.24h-.37ZM141.72,530.35c.46,1.31,1.12,2.48,1.98,3.46.87-.96,1.55-2.11,2.02-3.46h-4Z"/><path class="cls-1" d="M157.06,534.11c.88,1.36,1.82,3.14,2.16,4.29l-1.06.43c-.11-.35-.26-.77-.45-1.22-2.27.24-4.63.46-6.32.64l-.18-1.17c.35-.02.75-.05,1.18-.08.53-1.25,1.14-3.06,1.52-4.48h-2.69v-1.12h3.42v-2.64h-2.79v-1.07h2.79v-2.54h1.14v2.54h2.71v1.07h-2.71v2.64h3.25v1.12h-3.79c-.48,1.39-1.11,3.09-1.65,4.37,1.12-.1,2.37-.21,3.62-.32-.34-.72-.74-1.44-1.14-2.07l.98-.4ZM165.18,535.45c0,.66-.13,1.02-.59,1.25-.43.22-1.17.24-2.24.24-.05-.35-.24-.9-.4-1.25.83.03,1.55.03,1.79.02.21,0,.27-.05.27-.27v-8.21h-3.23v12.53h-1.14v-13.65h5.54v9.35Z"/><path class="cls-1" d="M181.42,526.25v13.27h-1.25v-.98h-7.94v1.04h-1.2v-13.33h10.39ZM172.23,527.42v4.32h7.94v-4.32h-7.94ZM180.17,537.37v-4.47h-7.94v4.47h7.94Z"/><path class="cls-1" d="M196.87,532.46c0-3.12,1.27-5.67,3.19-7.62l.96.5c-1.84,1.91-2.98,4.27-2.98,7.12s1.14,5.22,2.98,7.12l-.96.5c-1.92-1.95-3.19-4.5-3.19-7.62Z"/><path class="cls-1" d="M207.51,533.9c-.19.62-.32,1.2-.32,1.79,0,1.2,1.22,2.03,3.75,2.03,2.19,0,4.23-.24,5.43-.61l.02,1.36c-1.14.32-3.15.56-5.41.56-3.22,0-5.09-1.07-5.09-3.06,0-.83.18-1.57.34-2.21l1.3.13ZM206.85,527.5c1.15.14,2.61.21,4.19.21s3.14-.11,4.27-.22v1.31c-1.07.08-2.8.19-4.27.19-1.59,0-2.93-.06-4.19-.18v-1.31ZM217.13,527.9l-.87.4c-.32-.66-.86-1.63-1.31-2.24l.87-.35c.4.56.98,1.55,1.31,2.19ZM218.94,527.24l-.88.38c-.34-.69-.86-1.6-1.33-2.21l.85-.37c.43.59,1.04,1.6,1.36,2.19Z"/><path class="cls-1" d="M230.37,533.34c1.46,1.95,3.83,3.86,5.99,4.79-.26.24-.64.69-.83,1.01-2.13-1.06-4.42-3.06-5.97-5.17v5.79h-1.23v-5.76c-1.55,2.11-3.83,4.03-5.92,5.07-.19-.29-.58-.74-.83-.98,2.15-.93,4.5-2.8,5.95-4.75h-5.62v-1.14h6.42v-3.99h-5.67v-1.14h5.67v-1.92h1.23v1.92h5.79v1.14h-5.79v3.99h6.47v1.14h-5.65ZM225,528.59c.64.93,1.3,2.16,1.52,2.99l-1.12.43c-.21-.8-.82-2.1-1.44-3.02l1.04-.4ZM231.41,531.71c.54-.86,1.23-2.22,1.62-3.19l1.22.38c-.56,1.09-1.26,2.35-1.84,3.14l-.99-.34Z"/><path class="cls-1" d="M245.19,535.16c-.42-.46-1.3-1.36-2.02-2.03v6.63h-1.17v-6.19c-.8.78-1.63,1.46-2.45,1.99-.13-.3-.43-.85-.62-1.07,1.9-1.1,3.91-3.12,5.01-5.25h-4.45v-1.09h2.51v-2.98h1.17v2.98h1.39l.21-.05.67.45c-.5,1.23-1.23,2.42-2.07,3.49.74.59,2.15,1.82,2.54,2.18l-.74.96ZM254.01,538.14v1.17h-8.96v-1.17h4.05v-6.64h-3.43v-1.15h3.43v-5.07h1.18v5.07h3.41v1.15h-3.41v6.64h3.73Z"/><path class="cls-1" d="M263.92,537.76c.5-.03.98-.11,1.36-.19,2.03-.45,4.02-1.95,4.02-4.69,0-2.4-1.52-4.37-4.21-4.59-.21,1.47-.51,3.07-.95,4.56-.98,3.25-2.24,4.93-3.71,4.93s-2.83-1.63-2.83-4.24c0-3.44,3.07-6.45,6.95-6.45s6.08,2.62,6.08,5.83-2.19,5.55-5.97,6.05l-.74-1.2ZM262.88,532.57c.4-1.31.7-2.82.88-4.27-3.04.38-4.9,2.99-4.9,5.12,0,2,.93,2.88,1.62,2.88s1.58-1.06,2.4-3.73Z"/><path class="cls-1" d="M279.51,534.54c-1.62.82-3.36,1.67-4.71,2.3l-.46-1.17c.61-.26,1.36-.58,2.18-.94v-5.01h-1.87v-1.12h1.87v-3.33h1.11v3.33h1.73v1.12h-1.73v4.5l1.63-.74.26,1.06ZM282.48,532.7c-.21.38-.43.77-.69,1.12h6.88s-.02.32-.05.48c-.24,3.3-.5,4.55-.94,5.01-.24.27-.53.35-.9.4-.35.02-.95.02-1.59-.02,0-.29-.11-.72-.27-.96.59.05,1.12.06,1.36.06.22,0,.37-.02.48-.18.27-.29.51-1.3.72-3.81h-1.25c-.64,1.9-1.89,3.97-3.27,5.01-.19-.24-.56-.51-.85-.69,1.3-.86,2.46-2.59,3.12-4.32h-1.55c-.85,1.65-2.42,3.39-3.89,4.32-.18-.26-.5-.54-.78-.74,1.33-.72,2.74-2.16,3.6-3.58h-1.62c-.64.72-1.36,1.34-2.08,1.82-.16-.19-.58-.58-.82-.74,1.26-.75,2.42-1.89,3.17-3.2h-2.24v-1.01h10.02v1.01h-6.58ZM287.93,530.79h-7.32v-5.17h7.32v5.17ZM286.82,526.52h-5.12v1.26h5.12v-1.26ZM286.82,528.62h-5.12v1.28h5.12v-1.28Z"/><path class="cls-1" d="M299.84,525.19c1.7,2.35,4.51,4.58,7.03,5.71-.29.27-.58.69-.78,1.02-2.48-1.3-5.28-3.54-6.77-5.59-1.31,1.95-3.91,4.23-6.64,5.68-.14-.27-.46-.69-.74-.94,2.79-1.41,5.46-3.84,6.71-5.89h1.2ZM294.51,533.4h9.73v6.37h-1.22v-.66h-7.35v.66h-1.17v-6.37ZM303.37,530.35v1.06h-8.02v-1.06h8.02ZM295.68,534.48v3.57h7.35v-3.57h-7.35Z"/><path class="cls-1" d="M313.83,532.46c0,3.12-1.26,5.67-3.18,7.62l-.96-.5c1.84-1.9,2.98-4.27,2.98-7.12s-1.14-5.22-2.98-7.12l.96-.5c1.92,1.95,3.18,4.5,3.18,7.62Z"/><path class="cls-1" d="M28.39,538.16l-2.71-3.89-2.66,3.89h-2.98l4.14-5.7-3.94-5.51h2.95l2.58,3.63,2.53-3.63h2.8l-3.91,5.41,4.18,5.79h-2.99Z"/><path class="cls-1" d="M48.85,537.6c0,1.15-.27,1.7-1.01,2.02-.77.34-1.89.37-3.54.37-.11-.56-.5-1.47-.8-2,1.12.06,2.46.05,2.82.05.38,0,.51-.13.51-.46v-2.32h-6.85c-.42,1.79-1.22,3.54-2.71,4.79-.29-.4-1.06-1.11-1.47-1.38,2.42-2.06,2.64-5.12,2.64-7.55v-5.27h10.4v11.77ZM46.84,533.4v-1.95h-6.42c-.02.61-.05,1.28-.11,1.95h6.53ZM40.42,527.69v1.95h6.42v-1.95h-6.42Z"/><path class="cls-1" d="M64.82,526.95v1.68l-4.16,9.52h-2.82l4.02-9.09h-3.71v1.82h-2.3v-3.94h8.98Z"/><path class="cls-1" d="M82.95,526.04v13.77h-2.05v-1.01h-7.11v1.04h-1.97v-13.8h11.12ZM73.79,527.96v3.44h7.11v-3.44h-7.11ZM80.9,536.88v-3.58h-7.11v3.58h7.11Z"/><path class="cls-1" d="M91.05,533.55c0-3,1.25-5.24,2.76-6.72l1.33.59c-1.4,1.51-2.51,3.45-2.51,6.13s1.11,4.62,2.51,6.13l-1.33.59c-1.51-1.48-2.76-3.72-2.76-6.72Z"/><path class="cls-1" d="M107.51,537.97c0,1.01-.24,1.48-.88,1.77-.67.29-1.65.32-3.1.32-.1-.49-.44-1.29-.7-1.75.98.06,2.16.04,2.46.04.34,0,.45-.11.45-.41v-2.03h-6c-.36,1.57-1.06,3.1-2.37,4.19-.25-.35-.92-.97-1.29-1.21,2.12-1.81,2.31-4.48,2.31-6.61v-4.61h9.1v10.29ZM105.75,534.3v-1.71h-5.62c-.01.53-.04,1.12-.1,1.71h5.71ZM100.13,529.3v1.71h5.62v-1.71h-5.62Z"/><path class="cls-1" d="M114.48,533.55c0,3-1.25,5.24-2.76,6.72l-1.33-.59c1.4-1.51,2.51-3.45,2.51-6.13s-1.11-4.62-2.51-6.13l1.33-.59c1.51,1.49,2.76,3.73,2.76,6.72Z"/><rect class="cls-3" y="573.54" width="440" height="55" rx="15" ry="15"/><path class="cls-1" d="M136.96,606.53c.78,1.18,2.21,1.71,4.13,1.79,1.75.06,5.33.02,7.22-.11-.14.29-.34.85-.4,1.22-1.75.06-5.06.1-6.82.03-2.13-.08-3.62-.64-4.64-1.89-.72.67-1.47,1.36-2.27,2.05l-.64-1.18c.72-.5,1.54-1.18,2.27-1.84v-4.05h-2.03v-1.12h3.19v5.11ZM136.5,598.86c-.5-.78-1.58-1.89-2.58-2.62l.88-.7c.99.72,2.11,1.78,2.61,2.56l-.91.77ZM140.23,600.35c-.05,2.14-.42,4.85-1.87,6.75-.18-.21-.69-.56-.96-.66,1.55-2,1.7-4.77,1.7-6.83v-3.67h8.58v1.1h-7.43v2.24h5.94l.22-.05.75.26c-.51,2.11-1.44,3.81-2.64,5.12,1.03.9,2.27,1.58,3.73,1.98-.27.24-.61.69-.77,1.02-1.49-.48-2.74-1.23-3.78-2.19-1.02.9-2.19,1.58-3.42,2.05-.14-.29-.45-.75-.67-.99,1.17-.38,2.31-1.02,3.28-1.91-.99-1.17-1.74-2.59-2.29-4.24h-.37ZM141.72,600.35c.46,1.31,1.12,2.48,1.98,3.46.87-.96,1.55-2.11,2.02-3.46h-4Z"/><path class="cls-1" d="M157.06,604.11c.88,1.36,1.82,3.14,2.16,4.29l-1.06.43c-.11-.35-.26-.77-.45-1.22-2.27.24-4.63.46-6.32.64l-.18-1.17c.35-.02.75-.05,1.18-.08.53-1.25,1.14-3.06,1.52-4.48h-2.69v-1.12h3.42v-2.64h-2.79v-1.07h2.79v-2.54h1.14v2.54h2.71v1.07h-2.71v2.64h3.25v1.12h-3.79c-.48,1.39-1.11,3.09-1.65,4.37,1.12-.1,2.37-.21,3.62-.32-.34-.72-.74-1.44-1.14-2.07l.98-.4ZM165.18,605.45c0,.66-.13,1.02-.59,1.25-.43.22-1.17.24-2.24.24-.05-.35-.24-.9-.4-1.25.83.03,1.55.03,1.79.02.21,0,.27-.05.27-.27v-8.21h-3.23v12.53h-1.14v-13.65h5.54v9.35Z"/><path class="cls-1" d="M181.42,596.25v13.27h-1.25v-.98h-7.94v1.04h-1.2v-13.33h10.39ZM172.23,597.42v4.32h7.94v-4.32h-7.94ZM180.17,607.37v-4.47h-7.94v4.47h7.94Z"/><path class="cls-1" d="M196.87,602.46c0-3.12,1.27-5.67,3.19-7.62l.96.5c-1.84,1.91-2.98,4.27-2.98,7.12s1.14,5.22,2.98,7.12l-.96.5c-1.92-1.95-3.19-4.5-3.19-7.62Z"/><path class="cls-1" d="M213.88,601.92v2.38h3.79v1.1h-3.79v2.58c0,.5.1.59.64.59h1.82c.5,0,.58-.32.64-2.03.26.21.75.42,1.07.5-.11,2.03-.45,2.59-1.62,2.59h-2.1c-1.34,0-1.7-.35-1.7-1.66v-2.56h-2.88c-.26,1.71-1.2,3.35-4.34,4.43-.14-.27-.51-.72-.75-.94,2.67-.9,3.59-2.16,3.87-3.49h-3.55v-1.1h3.68v-2.38h-1.68v-.61c-.77.58-1.58,1.04-2.38,1.41-.16-.26-.51-.67-.74-.9,1.11-.45,2.26-1.17,3.25-2.08-.48-.51-1.26-1.18-1.92-1.68l.74-.62c.64.46,1.42,1.09,1.94,1.57.58-.66,1.09-1.36,1.49-2.11h-3.97v-1.06h4.56l.21-.05.78.38c-.69,1.87-1.91,3.44-3.33,4.64h7.52c-1.55-1.39-2.77-3.23-3.57-5.3l1.03-.3c.27.69.61,1.38,1.01,2,.7-.58,1.47-1.33,1.97-1.89l.9.64c-.71.69-1.58,1.46-2.34,2.02.32.43.66.85,1.04,1.23.79-.61,1.71-1.46,2.27-2.06l.9.62c-.74.72-1.7,1.49-2.51,2.08.9.78,1.9,1.42,2.99,1.86-.26.22-.62.69-.82.99-.82-.35-1.59-.83-2.29-1.39v.61h-1.84ZM212.64,601.92h-2.79v2.38h2.79v-2.38Z"/><path class="cls-1" d="M225.17,606.53c.75,1.17,2.15,1.71,3.99,1.79,1.75.06,5.3.02,7.17-.11-.13.29-.34.85-.38,1.22-1.74.06-5.03.1-6.79.03-2.08-.08-3.5-.66-4.53-1.89-.77.67-1.57,1.36-2.42,2.05l-.64-1.2c.74-.48,1.63-1.15,2.43-1.83v-4.05h-2.22v-1.12h3.39v5.11ZM224.67,598.79c-.5-.77-1.68-1.83-2.72-2.53l.88-.72c1.02.67,2.24,1.7,2.79,2.46l-.94.78ZM231.94,602.54c.67,2,2.03,3.36,4.18,3.97-.27.24-.59.69-.75.99-2.08-.72-3.43-2.08-4.21-4.11-.5,1.44-1.63,2.91-4.18,4.05-.16-.24-.53-.66-.79-.88,2.77-1.12,3.7-2.64,3.99-4.02h-4.11v-1.07h4.24c.02-.16.02-.3.02-.45v-1.78h-3.75v-1.06h2c-.19-.72-.78-1.79-1.38-2.58l1.01-.4c.62.77,1.23,1.83,1.46,2.54l-.96.43h6.9v1.06h-4.1v1.79c0,.14,0,.29-.02.43h4.59v1.07h-4.15ZM234.74,595.54c-.56.91-1.2,1.97-1.73,2.64l-.98-.35c.51-.74,1.17-1.89,1.49-2.69l1.22.4Z"/><path class="cls-1" d="M242.56,606.53c.79,1.18,2.21,1.71,4.13,1.79,1.74.06,5.33.02,7.22-.11-.14.29-.34.85-.4,1.22-1.75.06-5.06.1-6.82.03-2.13-.08-3.62-.64-4.64-1.89-.72.67-1.47,1.36-2.27,2.05l-.64-1.18c.72-.5,1.54-1.18,2.27-1.84v-4.05h-2.03v-1.12h3.18v5.11ZM242.1,598.86c-.5-.78-1.58-1.89-2.58-2.62l.88-.7c.99.72,2.11,1.78,2.61,2.56l-.91.77ZM245.83,600.35c-.05,2.14-.42,4.85-1.87,6.75-.18-.21-.69-.56-.96-.66,1.55-2,1.7-4.77,1.7-6.83v-3.67h8.58v1.1h-7.43v2.24h5.94l.22-.05.75.26c-.51,2.11-1.44,3.81-2.64,5.12,1.02.9,2.27,1.58,3.73,1.98-.27.24-.61.69-.77,1.02-1.49-.48-2.74-1.23-3.78-2.19-1.02.9-2.19,1.58-3.42,2.05-.14-.29-.45-.75-.67-.99,1.17-.38,2.3-1.02,3.28-1.91-.99-1.17-1.75-2.59-2.29-4.24h-.37ZM247.32,600.35c.46,1.31,1.12,2.48,1.99,3.46.86-.96,1.55-2.11,2.02-3.46h-4Z"/><path class="cls-1" d="M262.66,604.11c.88,1.36,1.82,3.14,2.16,4.29l-1.06.43c-.11-.35-.26-.77-.45-1.22-2.27.24-4.63.46-6.32.64l-.18-1.17c.35-.02.75-.05,1.18-.08.53-1.25,1.14-3.06,1.52-4.48h-2.69v-1.12h3.43v-2.64h-2.79v-1.07h2.79v-2.54h1.14v2.54h2.71v1.07h-2.71v2.64h3.25v1.12h-3.79c-.48,1.39-1.1,3.09-1.65,4.37,1.12-.1,2.37-.21,3.62-.32-.34-.72-.74-1.44-1.14-2.07l.98-.4ZM270.78,605.45c0,.66-.13,1.02-.59,1.25-.43.22-1.17.24-2.24.24-.05-.35-.24-.9-.4-1.25.83.03,1.55.03,1.79.02.21,0,.27-.05.27-.27v-8.21h-3.23v12.53h-1.14v-13.65h5.54v9.35Z"/><path class="cls-1" d="M281.52,607.76c.5-.03.98-.11,1.36-.19,2.03-.45,4.02-1.95,4.02-4.69,0-2.4-1.52-4.37-4.21-4.59-.21,1.47-.51,3.07-.95,4.56-.98,3.25-2.24,4.93-3.71,4.93s-2.83-1.63-2.83-4.24c0-3.44,3.07-6.45,6.95-6.45s6.08,2.62,6.08,5.83-2.19,5.55-5.97,6.05l-.74-1.2ZM280.48,602.57c.4-1.31.7-2.82.88-4.27-3.04.38-4.9,2.99-4.9,5.12,0,2,.93,2.88,1.62,2.88s1.58-1.06,2.4-3.73Z"/><path class="cls-1" d="M297.11,604.54c-1.62.82-3.36,1.67-4.71,2.3l-.46-1.17c.61-.26,1.36-.58,2.18-.94v-5.01h-1.87v-1.12h1.87v-3.33h1.1v3.33h1.73v1.12h-1.73v4.5l1.63-.74.26,1.06ZM300.08,602.7c-.21.38-.43.77-.69,1.12h6.88s-.02.32-.05.48c-.24,3.3-.5,4.55-.94,5.01-.24.27-.53.35-.9.4-.35.02-.94.02-1.58-.02,0-.29-.11-.72-.27-.96.59.05,1.12.06,1.36.06.22,0,.37-.02.48-.18.27-.29.51-1.3.72-3.81h-1.25c-.64,1.9-1.89,3.97-3.26,5.01-.19-.24-.56-.51-.85-.69,1.3-.86,2.46-2.59,3.12-4.32h-1.55c-.85,1.65-2.42,3.39-3.89,4.32-.18-.26-.5-.54-.79-.74,1.33-.72,2.74-2.16,3.6-3.58h-1.62c-.64.72-1.36,1.34-2.08,1.82-.16-.19-.58-.58-.82-.74,1.26-.75,2.42-1.89,3.17-3.2h-2.24v-1.01h10.02v1.01h-6.58ZM305.53,600.79h-7.32v-5.17h7.32v5.17ZM304.42,596.52h-5.12v1.26h5.12v-1.26ZM304.42,598.62h-5.12v1.28h5.12v-1.28Z"/><path class="cls-1" d="M317.45,595.19c1.7,2.35,4.51,4.58,7.03,5.71-.29.27-.58.69-.78,1.02-2.48-1.3-5.28-3.54-6.77-5.59-1.31,1.95-3.91,4.23-6.64,5.68-.14-.27-.46-.69-.74-.94,2.79-1.41,5.46-3.84,6.71-5.89h1.2ZM312.12,603.4h9.73v6.37h-1.22v-.66h-7.35v.66h-1.17v-6.37ZM320.97,600.35v1.06h-8.02v-1.06h8.02ZM313.28,604.48v3.57h7.35v-3.57h-7.35Z"/><path class="cls-1" d="M334.32,607.76c.5-.03.98-.11,1.36-.19,2.03-.45,4.02-1.95,4.02-4.69,0-2.4-1.52-4.37-4.21-4.59-.21,1.47-.51,3.07-.94,4.56-.98,3.25-2.24,4.93-3.71,4.93s-2.83-1.63-2.83-4.24c0-3.44,3.07-6.45,6.95-6.45s6.08,2.62,6.08,5.83-2.19,5.55-5.97,6.05l-.74-1.2ZM333.28,602.57c.4-1.31.7-2.82.88-4.27-3.04.38-4.9,2.99-4.9,5.12,0,2,.93,2.88,1.62,2.88s1.58-1.06,2.4-3.73Z"/><path class="cls-1" d="M353.21,607.04l.03,1.07c-2.98.43-6.1.86-8.21,1.17l-.19-1.18c1.01-.11,2.29-.27,3.7-.45v-2.8h-3.06v-1.09h3.06v-1.91h1.15v1.91h3.01v1.09h-3.01v2.66l3.52-.46ZM350.93,598.09c.96,1.1,2.08,2.59,2.53,3.57l-.93.56c-.14-.29-.32-.62-.54-.99-2.51.18-5.09.3-6.91.42l-.1-1.14,1.46-.06c.43-.94.88-2.18,1.18-3.19h-2.61v-1.06h8.16v1.06h-4.23c-.4,1.01-.86,2.19-1.31,3.14,1.14-.05,2.4-.1,3.68-.16-.4-.58-.85-1.15-1.26-1.65l.88-.5ZM355,605.87h-1.14v-8.8h1.14v8.8ZM358.78,595.59v12.56c0,.82-.19,1.18-.72,1.39-.53.19-1.47.21-2.77.21-.06-.32-.24-.88-.4-1.23,1.04.05,2.05.03,2.35.03.29-.02.38-.1.38-.4v-12.56h1.15Z"/><path class="cls-1" d="M367.49,601.95c-.13.32-.27.64-.42.96h8.08v6.79h-1.22v-.54h-6.69v.58h-1.17v-5.06c-.82,1.25-1.79,2.32-2.85,3.12-.18-.24-.64-.67-.9-.88,1.66-1.14,3.03-2.91,3.86-4.96h-3.35v-.98h6.29v-1.1h-4.83v-.93h4.83v-1.1h-5.54v-.96h2.93c-.24-.43-.59-.94-.94-1.36l1.02-.37c.48.48.96,1.15,1.17,1.65l-.19.08h4.22l-.18-.06c.35-.48.85-1.22,1.09-1.7l1.25.37c-.37.5-.75.99-1.11,1.39h3.07v.96h-5.6v1.1h4.88v.93h-4.88v1.1h6.29v.98h-9.14ZM367.25,603.82v.96h6.69v-.96h-6.69ZM373.94,605.53h-6.69v.96h6.69v-.96ZM373.94,608.24v-.99h-6.69v.99h6.69Z"/><path class="cls-1" d="M392.62,596.25v13.27h-1.25v-.98h-7.94v1.04h-1.2v-13.33h10.39ZM383.43,597.42v4.32h7.94v-4.32h-7.94ZM391.37,607.37v-4.47h-7.94v4.47h7.94Z"/><path class="cls-1" d="M401.83,602.46c0,3.12-1.26,5.67-3.18,7.62l-.96-.5c1.84-1.9,2.98-4.27,2.98-7.12s-1.14-5.22-2.98-7.12l.96-.5c1.92,1.95,3.18,4.5,3.18,7.62Z"/><path class="cls-1" d="M28.39,608.16l-2.71-3.89-2.66,3.89h-2.98l4.14-5.7-3.94-5.51h2.95l2.58,3.63,2.53-3.63h2.8l-3.91,5.41,4.18,5.79h-2.99Z"/><path class="cls-1" d="M48.85,607.6c0,1.15-.27,1.7-1.01,2.02-.77.34-1.89.37-3.54.37-.11-.56-.5-1.47-.8-2,1.12.06,2.46.05,2.82.05.38,0,.51-.13.51-.46v-2.32h-6.85c-.42,1.79-1.22,3.54-2.71,4.79-.29-.4-1.06-1.11-1.47-1.38,2.42-2.06,2.64-5.12,2.64-7.55v-5.27h10.4v11.77ZM46.84,603.4v-1.95h-6.42c-.02.61-.05,1.28-.11,1.95h6.53ZM40.42,597.69v1.95h6.42v-1.95h-6.42Z"/><path class="cls-1" d="M65.43,604.91c0,2.11-1.89,3.44-4.74,3.44s-4.71-1.33-4.71-3.44c0-1.2.62-2.1,1.7-2.64-.83-.51-1.3-1.3-1.3-2.3,0-1.97,1.76-3.2,4.31-3.2s4.34,1.23,4.34,3.2c0,1.01-.48,1.79-1.31,2.3,1.09.54,1.71,1.44,1.71,2.64ZM62.8,604.83c0-.99-.82-1.6-2.11-1.6s-2.08.61-2.08,1.6.8,1.62,2.08,1.62,2.11-.62,2.11-1.62ZM58.96,600.07c0,.85.67,1.38,1.73,1.38s1.76-.53,1.76-1.38-.71-1.41-1.76-1.41-1.73.53-1.73,1.41Z"/><path class="cls-1" d="M83.59,596.04v13.77h-2.05v-1.01h-7.11v1.04h-1.97v-13.8h11.12ZM74.43,597.96v3.44h7.11v-3.44h-7.11ZM81.54,606.88v-3.58h-7.11v3.58h7.11Z"/><path class="cls-1" d="M91.69,603.55c0-3,1.25-5.24,2.76-6.72l1.33.59c-1.4,1.51-2.51,3.45-2.51,6.13s1.11,4.62,2.51,6.13l-1.33.59c-1.51-1.48-2.76-3.72-2.76-6.72Z"/><path class="cls-1" d="M104.23,601.57c0,2.13,1.32,5.35,5.67,6.96-.38.36-.91,1.08-1.16,1.57-3.33-1.37-5.03-4.17-5.42-5.56-.37,1.43-1.91,4.15-5.2,5.56-.22-.38-.81-1.09-1.18-1.43,4.22-1.61,5.49-5,5.49-7.09v-4.37h1.79v4.36ZM100.59,600.15c-.24,1.75-.64,3.42-1.85,4.41l-1.51-.94c1.02-.87,1.48-2.26,1.68-3.84l1.68.36ZM109.3,600.46c-.71,1.36-1.55,2.86-2.26,3.81l-1.46-.62c.67-1.05,1.44-2.65,1.88-3.88l1.83.69Z"/><path class="cls-1" d="M115.12,603.55c0,3-1.25,5.24-2.76,6.72l-1.33-.59c1.4-1.51,2.51-3.45,2.51-6.13s-1.11-4.62-2.51-6.13l1.33-.59c1.51,1.49,2.76,3.73,2.76,6.72Z"/><rect class="cls-1" x="285" y="234" width="135" height="105" rx="15" ry="15"/><path class="cls-5" d="M269.15,333.44l-11.65,11.65v-118.1l11.7,11.7c.68.68,1.58,1.03,2.47,1.03s1.79-.34,2.47-1.03c1.37-1.37,1.37-3.58,0-4.95l-17.68-17.68c-1.37-1.37-3.58-1.37-4.95,0l-17.68,17.68c-1.63,1.62-1.32,4.45.92,5.62,1.35.7,3.01.35,4.08-.72l11.65-11.65v118.1l-11.65-11.65c-1.07-1.07-2.74-1.43-4.08-.72-2.24,1.17-2.54,4-.92,5.62l17.68,17.68c.68.68,1.58,1.03,2.47,1.03s1.79-.34,2.47-1.03l17.68-17.68c1.63-1.62,1.32-4.45-.92-5.62-1.35-.7-3.01-.35-4.08.72Z"/><path class="cls-4" d="M269.15,333.44l-11.65,11.65v-118.1l11.7,11.7c.68.68,1.58,1.03,2.47,1.03s1.79-.34,2.47-1.03c1.37-1.37,1.37-3.58,0-4.95l-17.68-17.68c-1.37-1.37-3.58-1.37-4.95,0l-17.68,17.68c-1.63,1.62-1.32,4.45.92,5.62,1.35.7,3.01.35,4.08-.72l11.65-11.65v118.1l-11.65-11.65c-1.07-1.07-2.74-1.43-4.08-.72-2.24,1.17-2.54,4-.92,5.62l17.68,17.68c.68.68,1.58,1.03,2.47,1.03s1.79-.34,2.47-1.03l17.68-17.68c1.63-1.62,1.32-4.45-.92-5.62-1.35-.7-3.01-.35-4.08.72Z"/><path class="cls-4" d="M312.35,268.64v-5.7h-7.06v-11.46h7.06v-2.97h2.77v2.97h7.11v11.46h-7.11v5.7h-2.77ZM308.1,256.03h4.25v-2.11h-4.25v2.11ZM308.1,260.5h4.25v-2.16h-4.25v2.16ZM315.12,256.03h4.29v-2.11h-4.29v2.11ZM315.12,260.5h4.29v-2.16h-4.29v2.16Z"/><path class="cls-4" d="M341.21,268.24c-1.55,0-2.85-.08-3.87-.23-1.03-.15-1.87-.39-2.53-.7s-1.22-.71-1.69-1.18c-.26.19-.6.42-1.02.67-.42.26-.84.51-1.28.77-.43.26-.81.47-1.13.65l-1.08-2.57c.29-.12.65-.26,1.07-.43.42-.17.83-.34,1.22-.53.4-.18.69-.33.88-.43v-5.48h-2.62v-2.29h5.13v7.44c.28.7.95,1.2,2.01,1.5,1.06.29,2.7.44,4.92.44,1.88,0,3.49-.03,4.84-.1,1.35-.07,2.44-.16,3.28-.27-.07.16-.15.41-.24.76s-.16.7-.22,1.07c-.06.37-.09.66-.11.88-.41,0-.95,0-1.61.01-.66,0-1.36.01-2.1.02-.74,0-1.45.01-2.12.01h-1.72ZM333.4,253.88c-.26-.32-.62-.69-1.06-1.1-.44-.41-.9-.82-1.39-1.22-.48-.4-.93-.73-1.34-.98l1.65-1.69c.37.21.8.5,1.31.89.51.39,1,.79,1.47,1.21s.85.78,1.11,1.09c-.13.12-.32.29-.55.52s-.47.46-.69.69c-.23.23-.4.43-.52.59ZM336.7,264.79c-.25-.31-.55-.63-.89-.96s-.69-.59-1.02-.78c1.01-.7,1.87-1.56,2.58-2.57.71-1.01,1.28-2.1,1.72-3.26.43-1.16.71-2.3.85-3.43l1.32.2c-.03-.32-.05-.65-.07-.98s-.02-.67-.02-1.02h-4v-2.53h6.51c-.13,1.98-.06,3.78.22,5.4.28,1.62.84,3.08,1.67,4.37.84,1.29,2.01,2.45,3.52,3.48-.34.28-.69.62-1.06,1.03-.37.41-.65.74-.86.99-1.29-.94-2.41-2.05-3.34-3.33-.94-1.28-1.64-2.8-2.09-4.54-.45,1.61-1.1,3.09-1.95,4.43-.84,1.34-1.87,2.51-3.09,3.51Z"/><path class="cls-4" d="M354.88,264.7v-14.52h6.58v14.52h-6.58ZM357.3,256.25h1.74v-3.76h-1.74v3.76ZM357.3,262.37h1.74v-3.81h-1.74v3.81ZM367.44,268.62c-.03-.37-.1-.81-.21-1.32s-.23-.92-.36-1.23h1.54c.31,0,.53-.05.66-.15s.2-.3.2-.59v-3.72h-4.55c.34.24.7.51,1.08.81.38.31.74.61,1.09.91s.62.58.83.82c-.16.13-.36.33-.6.58-.24.26-.47.51-.68.77s-.36.45-.45.58c-.22-.32-.52-.68-.9-1.07-.38-.39-.77-.75-1.18-1.1-.4-.34-.75-.61-1.04-.8l1.36-1.52h-1.89v-2.31h6.95v-1.8h-7.28v-2.33h4.55v-1.83h-4.03v-2.31h4.03v-2.53h2.75v2.53h4.29v2.31h-4.29v1.83h5.13v2.33h-2.46v1.8h2.22v2.31h-2.22v4.66c0,1.57-.94,2.35-2.82,2.35h-1.69Z"/><path class="cls-4" d="M390.74,267.63c-.12-.22-.27-.48-.46-.78-.19-.3-.39-.6-.61-.89s-.43-.54-.65-.73c1.77-.31,3.21-.79,4.32-1.45,1.11-.66,1.92-1.44,2.43-2.33.51-.89.77-1.85.77-2.86s-.22-2.02-.65-2.89c-.43-.87-1.06-1.59-1.87-2.17-.81-.57-1.81-.94-2.98-1.1-.18,1.86-.46,3.61-.86,5.25-.4,1.64-.87,3.08-1.43,4.32-.56,1.25-1.17,2.23-1.83,2.94-.66.71-1.35,1.07-2.07,1.07-.59,0-1.17-.17-1.75-.51-.58-.34-1.1-.82-1.56-1.44-.46-.62-.83-1.36-1.11-2.21-.28-.85-.42-1.78-.42-2.79,0-1.17.22-2.3.66-3.39.44-1.09,1.08-2.05,1.94-2.9s1.89-1.52,3.12-2.01,2.64-.74,4.22-.74c1.5,0,2.82.24,3.98.71,1.16.48,2.13,1.12,2.93,1.92.79.81,1.39,1.72,1.8,2.75.41,1.03.62,2.09.62,3.19,0,2.24-.73,4.14-2.18,5.69-1.45,1.55-3.58,2.67-6.38,3.36ZM384.71,263.01c.25,0,.55-.26.89-.77.34-.51.7-1.24,1.07-2.19s.71-2.06,1.02-3.36c.32-1.29.56-2.71.74-4.27-1.25.18-2.31.59-3.18,1.24s-1.53,1.44-1.98,2.38c-.45.93-.67,1.91-.67,2.94,0,.79.1,1.49.31,2.1.21.61.47,1.08.79,1.42.32.34.66.51,1.01.51Z"/><path class="cls-4" d="M308.59,294.75c-.18-.13-.42-.31-.73-.54-.31-.23-.56-.39-.77-.5.03-.37.05-.91.08-1.63.02-.72.04-1.53.05-2.42s.02-1.79.02-2.68v-4.58c0-.82-.01-1.53-.03-2.11-.02-.59-.04-.98-.05-1.17.23,0,.54,0,.92.02.38.02.76.03,1.13.03.37,0,.66.01.87.01-.01.22-.04.63-.08,1.22-.04.59-.05,1.26-.05,2.01v3.25c0,.77,0,1.54-.01,2.31,0,.77-.01,1.46-.01,2.07v1.29c.67-.23,1.43-.55,2.27-.96.84-.4,1.7-.85,2.6-1.34s1.77-1.01,2.63-1.56,1.65-1.1,2.39-1.66c.73-.56,1.35-1.08,1.85-1.58.06.29.13.63.22,1.01.09.38.18.74.29,1.09.1.34.19.6.26.78-.82.72-1.8,1.45-2.93,2.2-1.13.75-2.33,1.47-3.59,2.17-1.26.7-2.52,1.33-3.78,1.89-1.26.56-2.44,1.02-3.54,1.38Z"/><path class="cls-4" d="M335.89,284.85c-.26-.28-.6-.6-1.01-.98-.41-.37-.86-.76-1.34-1.14-.48-.39-.96-.75-1.42-1.1-.46-.34-.88-.63-1.24-.85.19-.18.42-.41.7-.69.28-.29.55-.57.8-.85.26-.28.44-.48.54-.59.35.22.76.51,1.23.86.47.35.95.73,1.43,1.12.48.4.93.78,1.35,1.16.42.37.74.69.98.96-.16.15-.37.35-.63.62-.26.26-.51.53-.77.8s-.47.5-.63.69ZM332.72,294.57c-.1-.19-.26-.47-.46-.83-.21-.36-.42-.71-.64-1.07-.22-.35-.4-.6-.55-.75,1.45-.32,2.93-.79,4.43-1.42,1.5-.62,2.98-1.36,4.42-2.22,1.44-.86,2.82-1.81,4.11-2.85,1.3-1.04,2.47-2.14,3.53-3.3.03.18.08.41.17.69.08.29.17.58.25.89.09.31.17.58.25.83.08.24.14.41.19.5-1.28,1.35-2.76,2.64-4.46,3.87-1.69,1.23-3.5,2.34-5.42,3.31-1.92.98-3.87,1.76-5.83,2.34Z"/><path class="cls-4" d="M359.03,296.2c-.19-.31-.47-.68-.85-1.11s-.75-.79-1.11-1.07c1.53-.59,2.94-1.32,4.24-2.2,1.3-.88,2.46-1.88,3.49-2.99-.54-.4-1.07-.76-1.58-1.08-.51-.32-.99-.58-1.43-.77.13-.13.31-.33.54-.58.23-.26.45-.52.67-.79.22-.27.38-.49.48-.65.45.19.94.44,1.45.75.51.31,1.03.65,1.56,1.01.87-1.23,1.57-2.53,2.11-3.89l-5.46.02c-1.35,2.07-2.88,3.84-4.58,5.3-.28-.26-.63-.55-1.06-.85-.43-.3-.84-.54-1.23-.71.95-.75,1.87-1.64,2.74-2.68.87-1.04,1.66-2.15,2.35-3.32.7-1.17,1.27-2.32,1.71-3.45.21.06.49.14.86.25.37.11.73.21,1.1.3.37.09.65.15.84.2-.41.89-.85,1.77-1.32,2.64h1.57c.62,0,1.27,0,1.94-.01.67,0,1.28-.02,1.85-.03s1-.04,1.31-.07c.16.15.36.32.59.53.23.21.42.38.57.53-.1.19-.24.45-.42.78-.18.33-.36.68-.55,1.04-.19.37-.35.7-.48.99-.32.72-.67,1.42-1.06,2.09-.38.67-.8,1.33-1.25,1.96.94.76,1.74,1.48,2.4,2.16-.15.13-.36.34-.64.62l-.84.84c-.28.28-.5.51-.66.68-.25-.31-.55-.64-.89-1s-.72-.72-1.13-1.09c-1.04,1.14-2.21,2.19-3.51,3.15s-2.74,1.8-4.32,2.53Z"/><path class="cls-4" d="M382.33,294.59c-.29-.25-.67-.54-1.14-.86-.47-.32-.9-.59-1.3-.81.76-.62,1.42-1.23,1.97-1.85.55-.62,1-1.29,1.36-2.04.36-.74.63-1.6.8-2.58s.26-2.15.26-3.5c0-1.06,0-1.85-.01-2.39,0-.54-.03-.95-.08-1.24.28.01.6.04.96.07.36.03.71.06,1.06.08.34.02.63.04.85.05-.04.32-.08.74-.11,1.25-.03.51-.04,1.25-.04,2.22,0,1.91-.17,3.56-.51,4.95-.34,1.39-.84,2.62-1.52,3.67-.67,1.06-1.53,2.05-2.55,2.97ZM390.8,294.5c-.18-.13-.39-.29-.65-.46-.26-.18-.47-.32-.63-.42v-11.02c0-.82-.01-1.52-.03-2.09-.02-.57-.04-.96-.05-1.17.23,0,.54,0,.92.02.38.01.76.03,1.13.04s.66.02.87.02c-.01.22-.04.6-.08,1.14-.04.54-.05,1.22-.05,2.05v8.32c.45-.21,1-.49,1.63-.85.63-.36,1.28-.75,1.95-1.17.67-.42,1.29-.83,1.86-1.24.57-.41,1.03-.77,1.36-1.08.04.26.11.58.19.96.08.37.17.73.26,1.08.09.34.17.61.23.78-.54.43-1.18.88-1.91,1.36-.73.48-1.51.96-2.34,1.43-.83.47-1.64.9-2.44,1.3-.8.4-1.54.73-2.21.99Z"/><path class="cls-4" d="M332.06,322.19v-17.25h13.99v17.25h-13.99ZM334.86,312.2h8.4v-4.75h-8.4v4.75ZM334.86,319.68h8.4v-5.08h-8.4v5.08Z"/><path class="cls-4" d="M364.64,323.59c-.1-.21-.25-.46-.43-.75-.18-.29-.38-.58-.58-.86-.19.22-.39.45-.59.7-.21.25-.37.46-.48.62-.26-.25-.57-.51-.92-.78-.35-.27-.73-.55-1.14-.83-.72.5-1.54.9-2.45,1.2s-1.93.52-3.05.67c-.04-.18-.11-.41-.21-.69s-.19-.56-.3-.84-.21-.48-.31-.63c1.66-.13,3.04-.49,4.14-1.08-1.19-.69-2.22-1.22-3.1-1.58.16-.21.34-.47.55-.78.21-.32.42-.66.64-1.02h-2.13v-2.09h3.34c.48-.85.83-1.54,1.03-2.07v-2.16c-.46.51-.96,1.03-1.52,1.54-.56.51-1.08.95-1.56,1.3-.12-.18-.28-.37-.47-.59-.2-.22-.4-.42-.59-.61-.2-.18-.36-.32-.5-.41.32-.19.69-.44,1.11-.76.42-.31.84-.66,1.26-1.04.43-.38.81-.75,1.17-1.1h-3.06v-2h1.63c-.22-.42-.47-.85-.75-1.29s-.54-.79-.79-1.07l1.72-.97c.21.24.43.52.66.86s.46.67.67,1,.38.62.5.87c-.35.15-.73.34-1.14.59h1.67v-3.5h2.2v3.5h1.56c-.19-.12-.38-.22-.57-.31-.19-.09-.36-.16-.51-.22.32-.44.63-.92.91-1.43s.51-.98.67-1.41l1.98.81c-.18.38-.4.81-.67,1.28-.27.47-.54.9-.8,1.28h1.52v2h-2.99c.38.43.81.85,1.29,1.29s.92.78,1.33,1.04c-.22.18-.48.41-.77.71-.29.3-.54.58-.73.85-.38-.29-.76-.63-1.14-1-.38-.37-.74-.77-1.08-1.18v2.29h-1.63l1.67.55c-.09.19-.19.4-.31.63-.12.23-.24.47-.37.72h4.97v2.09h-1.43c-.32,1.22-.83,2.26-1.52,3.12.32.19.63.39.91.59s.55.41.8.62c.91-.38,1.72-.85,2.43-1.41.71-.56,1.32-1.18,1.84-1.87-.41-.75-.76-1.53-1.06-2.35-.29-.82-.54-1.67-.73-2.53-.15.28-.3.54-.45.78-.15.24-.31.48-.47.71-.23-.21-.55-.42-.96-.65s-.79-.4-1.15-.52c.5-.62.95-1.33,1.34-2.13.4-.81.74-1.66,1.04-2.56s.55-1.8.74-2.68c.19-.89.33-1.72.42-2.5l2.42.35c-.21,1.28-.48,2.57-.84,3.87h5.96v2.2h-1.3c-.12,1.58-.35,3.04-.69,4.37s-.83,2.53-1.44,3.62c1.06,1.33,2.38,2.49,3.98,3.48-.19.19-.4.42-.64.68-.24.26-.45.52-.65.77-.2.25-.33.44-.38.57-.75-.48-1.43-1.02-2.06-1.59-.62-.58-1.19-1.18-1.71-1.81-1.28,1.45-2.93,2.62-4.95,3.52ZM360.13,318.87c.44-.56.79-1.2,1.06-1.91h-2.18c-.13.21-.25.4-.36.58s-.21.35-.3.5c.59.23,1.18.51,1.78.84ZM369.57,315.61c.35-.85.62-1.75.81-2.69.19-.95.31-1.92.35-2.92h-2.57c.07,1.04.23,2.03.46,2.97s.55,1.82.95,2.64Z"/></g></svg>