<?xml version="1.0" encoding="UTF-8"?><svg id="_レイヤー_2" xmlns="http://www.w3.org/2000/svg" viewBox="0 0 334.21 285"><defs><style>.cls-1{fill:#dd6743;}.cls-1,.cls-2{stroke-width:0px;}.cls-2{fill:#3bb2a3;}</style></defs><g id="_コンテンツ"><path class="cls-1" d="M126.36,0l-7.74,30H0l22.19,77h78.25l-2.84,11H27.21v12h78.01l30.35-118h20.63V0h-29.86ZM88.21,96v-22h20.02l-5.68,22h-14.34ZM116.15,42l-5.42,21h-22.52v-21h27.94ZM77.21,74v22h-22v-22h22ZM77.21,42v21h-22v-21h22ZM43.21,42v21h-21.64l-6.05-21h27.7ZM43.21,74v22h-12.44l-6.34-22h18.78Z"/><path class="cls-1" d="M38.5,134.33c-8.44,0-15.3,6.86-15.3,15.3s6.87,15.3,15.3,15.3,15.3-6.87,15.3-15.3-6.86-15.3-15.3-15.3ZM38.5,153.56c-2.16,0-3.93-1.76-3.93-3.93s1.76-3.92,3.93-3.92,3.92,1.76,3.92,3.92-1.76,3.93-3.92,3.93Z"/><path class="cls-1" d="M92.34,134.97c-8.44,0-15.3,6.86-15.3,15.3s6.86,15.3,15.3,15.3,15.3-6.86,15.3-15.3-6.86-15.3-15.3-15.3ZM92.34,154.2c-2.16,0-3.92-1.76-3.92-3.93s1.76-3.93,3.92-3.93,3.92,1.76,3.92,3.93-1.76,3.93-3.92,3.93Z"/><path class="cls-2" d="M333.8,178.29c-.71-3.6-2.31-6.89-4.54-9.61-.47-.59-.96-1.12-1.49-1.65-3.95-3.97-15.55-6.02-15.55-6.02h-115.1c-6.03,0-11.54,2.47-15.49,6.42-.53.53-1.02,1.06-1.49,1.65-2.22,2.71-3.81,5.99-4.51,9.58-.28,1.38-.43,2.82-.43,4.26v80.17c0,3.08.65,6.03,1.82,8.7,1.08,2.55,2.67,4.85,4.61,6.79.49.49.98.94,1.51,1.39,3.79,3.14,8.68,5.04,13.98,5.04h115.1c5.32,0,10.25-1.9,14.03-5.07.53-.43,1.02-.88,1.51-1.37,1.94-1.94,3.54-4.25,4.44-6.81v-.02c1.37-2.68,2-5.63,2-8.71v-80.45c0-1.45-.14-2.89-.41-4.28ZM190.09,175.15c1.96-1.96,4.6-3.15,7.59-3.15h114.54c2.99,0,5.65,1.19,7.59,3.15.35.35.67.74.96,1.13l-60.03,52.32c-1.66,1.45-3.7,2.17-5.79,2.17s-4.11-.72-5.79-2.17l-60.01-52.34c.27-.39.59-.75.94-1.1ZM187.21,263.01v-75.29l43.45,37.9-43.42,37.86c-.02-.14-.02-.31-.02-.47ZM312.22,274h-114.54c-1.94,0-3.76-.51-5.32-1.41l45.82-39.93,4.28,3.72c3.58,3.11,8.06,4.69,12.5,4.69s8.94-1.58,12.52-4.69l4.28-3.72,45.8,39.93c-1.56.9-3.37,1.41-5.32,1.41ZM323.21,263.01c0,.16,0,.33-.02.47l-43.42-37.84,43.44-37.9v75.27Z"/></g></svg>