<?xml version="1.0" encoding="UTF-8"?><svg id="_レイヤー_2" xmlns="http://www.w3.org/2000/svg" viewBox="0 0 901 1446"><defs><style>.cls-1{fill:#3bb2a3;}.cls-1,.cls-2,.cls-3,.cls-4,.cls-5,.cls-6{stroke-width:0px;}.cls-2{fill:#5a5;}.cls-3{fill:#ddd;}.cls-4{fill:#4b5654;}.cls-5{fill:#dd6743;}.cls-6{fill:#fff;}</style></defs><g id="_コンテンツ"><rect class="cls-3" y="191" width="900" height="611" rx="15" ry="15"/><rect class="cls-1" x="45" y="236" width="78" height="521"/><path class="cls-6" d="M76.019,352.848v8.803c0,2.343-.34,3.703-1.624,4.534-1.247.831-2.984,1.02-5.402,1.02-.152-1.359-.719-3.551-1.361-4.986,1.209.075,2.456.075,2.91.075s.604-.151.604-.643v-7.442l-3.021.793-1.134-5.251c1.209-.227,2.606-.529,4.155-.907v-5.629h-3.438v-5.025h3.438v-6.914h4.874v6.914h2.606v4.723h4.119v-3.174h-3.627v-4.269h3.627v-4.194h4.873v4.194h3.59v4.269h-3.59v3.174h3.93v4.27h-13.11l.681,4.798-3.099.869ZM76.019,347.672l2.418-.604v-3.854h-2.418v4.458ZM91.697,359.346l.113,4.345c-4.986.604-10.275,1.134-14.281,1.55l-.68-4.647c1.662-.113,3.665-.265,5.818-.453v-3.665h-3.93v-4.307h3.93v-4.081h4.874v4.081h3.815v4.307h-3.815v3.249l4.155-.378ZM100.803,353.905c-.869-1.284-2.191-2.984-3.514-4.571v17.833h-5.062v-35.893h5.062v11.977c1.662,1.322,5.629,4.987,6.574,5.932l-3.061,4.723Z"/><path class="cls-6" d="M77.795,376.307c-.379,1.02-.832,2.493-.982,3.324-.756,3.362-2.078,10.428-1.36,14.13.491-.868,1.095-2.38,1.624-3.476l2.721,1.738c-1.172,3.514-2.078,7.178-2.569,9.407-.151.604-.265,1.474-.265,1.852,0,.415.038,1.133.076,1.7l-4.949.49c-.832-2.229-2.229-7.518-2.229-12.014,0-6.045.642-11.259,1.134-14.243.188-1.096.227-2.456.264-3.552l6.537.643ZM100.803,387.792c-1.398.113-3.211.227-5.213.302v1.247c0,8.765-1.021,13.677-8.048,18.399l-5.101-4.043c1.549-.718,3.59-2.002,4.686-3.287,2.152-2.645,2.984-5.402,2.984-11.107v-.982c-1.285.038-2.569.038-3.816.038-1.512,0-3.551-.113-5.516-.188v-5.63c1.927.265,3.438.378,5.402.378,1.209,0,2.531-.038,3.892-.075-.038-1.776-.075-3.477-.151-4.496-.076-.756-.264-2.003-.453-2.721h6.385c-.15.945-.189,1.89-.227,2.721-.037.793-.037,2.418-.037,4.193,2.002-.151,3.854-.302,5.251-.528l-.038,5.78Z"/><path class="cls-6" d="M88.033,438.943h14.508v5.062h-14.508v6.233h-5.668v-6.233h-14.205v-5.062h14.205v-2.078l-5.024.378-.415-2.456c-2.305,1.134-4.723,2.229-6.764,3.136l-2.568-4.42c2.418-.718,6.082-2.04,9.596-3.325l.643,2.645,2.342-.075c.529-.491,1.059-1.02,1.625-1.587-1.397-1.096-3.174-2.38-4.646-3.362l-2.947,2.456c-1.133-1.209-3.627-3.022-5.554-4.194l3.627-2.909c1.7.907,3.929,2.343,5.327,3.477l1.738-2.153.793.49c.491-.755.906-1.511,1.322-2.267h-11.977v-4.949h12.883v-3.324h5.668v3.324h13.261v4.949h-15.188l.643.227c-1.133,1.436-2.305,2.909-3.362,4.156.491.302.907.643,1.323.944,1.209-1.397,2.342-2.833,3.211-4.08l4.23,1.889c-1.396,1.587-2.946,3.212-4.533,4.799l3.363-1.398c.566.831,1.209,1.738,1.737,2.683l2.456-1.927c2.418,1.247,5.818,3.249,7.556,4.685l-3.967,3.249c-1.021-.982-2.833-2.267-4.685-3.438.264.604.49,1.171.643,1.7l-4.119,1.813c-.15-.529-.34-1.134-.604-1.776-2.305.189-4.609.378-6.801.567h4.836v2.153ZM88.108,432.407c-.265-.491-.566-.982-.868-1.398-.529.491-1.059,1.021-1.588,1.512l2.456-.113ZM92.378,427.685c1.549-1.284,3.513-3.287,4.647-4.836l4.949,2.305c-1.928,1.775-4.006,3.476-5.592,4.609l-4.005-2.078Z"/><path class="cls-6" d="M76.85,461.949l6.536,1.397c-.34,1.172-.868,3.4-.981,4.231-.529,2.796-1.89,7.632-3.061,10.919-1.285,3.702-3.59,8.123-5.441,10.806l-6.309-2.683c2.267-2.985,4.496-7.027,5.78-10.39,1.7-4.308,3.022-9.294,3.476-14.281ZM86.295,463.385l6.008-1.927c1.586,2.946,4.23,8.991,5.516,12.354,1.246,3.173,3.211,9.218,4.231,13.072l-6.688,2.19c-1.096-4.76-2.229-9.218-3.665-13.261-1.397-3.929-3.815-9.597-5.402-12.43ZM98.838,456.282c2.494,0,4.572,2.04,4.572,4.571s-2.078,4.609-4.572,4.609c-2.531,0-4.609-2.078-4.609-4.609s2.078-4.571,4.609-4.571ZM98.838,462.818c1.059,0,1.965-.907,1.965-1.965s-.906-1.965-1.965-1.965c-1.096,0-1.965.907-1.965,1.965s.869,1.965,1.965,1.965Z"/><path class="cls-6" d="M100.652,506.111c-.492.831-1.059,1.927-1.475,3.022-.906,2.645-2.568,6.158-4.911,9.635,1.36.831,2.569,1.662,3.514,2.342l-4.08,5.289c-.907-.793-2.078-1.7-3.4-2.645-3.287,3.477-7.442,6.612-13.186,8.841l-5.214-4.533c6.536-2.003,10.465-4.874,13.337-7.783-2.229-1.436-4.458-2.834-6.233-3.854l3.815-4.27c1.851.944,4.08,2.191,6.31,3.476,1.549-2.304,2.871-4.911,3.324-6.763h-9.521c-2.72,3.514-6.233,7.027-9.71,9.445l-4.873-3.74c6.573-4.005,9.785-8.841,11.75-11.938.642-1.058,1.549-2.947,1.964-4.42l6.46,2.002c-.793,1.134-1.662,2.569-2.229,3.552h6.158c1.209,0,2.721-.189,3.665-.454l4.534,2.796Z"/><path class="cls-6" d="M81.195,571.657c.377-2.683.377-5.855.377-7.404,0-2.985.038-13.45.038-17.077,0-1.436,0-3.854-.378-5.78h7.291c-.377,1.927-.377,4.307-.377,5.742,0,3.665-.038,14.093-.038,17.115,0,1.058,0,4.722.378,7.404h-7.291Z"/><path class="cls-6" d="M84.368,603.957c6.687-3.854,11.675-9.597,14.168-14.811l3.476,6.348c-2.947,5.251-8.236,10.39-14.395,14.017-3.777,2.229-8.613,4.156-13.261,4.874l-3.815-5.895c5.439-.755,10.2-2.418,13.827-4.533ZM85.199,592.207l-4.571,4.723c-1.964-2.153-6.649-6.233-9.294-8.123l4.231-4.533c2.569,1.737,7.405,5.591,9.634,7.934Z"/><path class="cls-6" d="M90.148,647.816h-9.898l-1.813,6.423h-7.216l9.672-28.26h8.689l9.898,28.26h-7.48l-1.852-6.423ZM88.713,642.604l-.718-2.418c-.831-2.834-1.89-6.272-2.758-9.182h-.151c-.831,2.985-1.852,6.348-2.682,9.182l-.719,2.418h7.027Z"/><path class="cls-4" d="M690.743,343.89v24.887h-5.76v-20.265h-4.978v-4.622h10.737Z"/><path class="cls-4" d="M697.57,356.333c0-8.213,4.551-12.87,10.666-12.87,6.15,0,10.666,4.657,10.666,12.87s-4.516,12.87-10.666,12.87c-6.115,0-10.666-4.657-10.666-12.87ZM713.107,356.333c0-5.653-1.992-7.999-4.871-7.999-2.845,0-4.836,2.346-4.836,7.999s1.991,7.999,4.836,7.999c2.879,0,4.871-2.346,4.871-7.999Z"/><path class="cls-4" d="M729.071,365.577c0,.924-.142,1.6-.96,3.555l-2.026,5.12h-3.52l1.563-5.653c-1.172-.462-1.92-1.564-1.92-3.021,0-2.062,1.494-3.413,3.449-3.413,1.991,0,3.413,1.387,3.413,3.413Z"/><path class="cls-4" d="M732.627,356.333c0-8.213,4.551-12.87,10.666-12.87,6.15,0,10.666,4.657,10.666,12.87s-4.516,12.87-10.666,12.87c-6.115,0-10.666-4.657-10.666-12.87ZM748.164,356.333c0-5.653-1.991-7.999-4.871-7.999-2.844,0-4.835,2.346-4.835,7.999s1.991,7.999,4.835,7.999c2.88,0,4.871-2.346,4.871-7.999Z"/><path class="cls-4" d="M757.871,356.333c0-8.213,4.551-12.87,10.666-12.87,6.15,0,10.666,4.657,10.666,12.87s-4.516,12.87-10.666,12.87c-6.115,0-10.666-4.657-10.666-12.87ZM773.408,356.333c0-5.653-1.992-7.999-4.871-7.999-2.845,0-4.836,2.346-4.836,7.999s1.991,7.999,4.836,7.999c2.879,0,4.871-2.346,4.871-7.999Z"/><path class="cls-4" d="M783.115,356.333c0-8.213,4.551-12.87,10.666-12.87,6.15,0,10.666,4.657,10.666,12.87s-4.516,12.87-10.666,12.87c-6.115,0-10.666-4.657-10.666-12.87ZM798.652,356.333c0-5.653-1.992-7.999-4.871-7.999-2.845,0-4.836,2.346-4.836,7.999s1.991,7.999,4.836,7.999c2.879,0,4.871-2.346,4.871-7.999Z"/><path class="cls-4" d="M831.844,349.804v17.018c0,1.934-.846,2.044-4.977,2.044-.09-.422-.355-1.088-.578-1.511.799.022,1.555.045,2.178.045,1.754,0,1.888,0,1.888-.578v-7.242h-15.507v9.331h-1.488v-19.106h18.484ZM814.848,351.27v6.821h6.887v-6.821h-6.887ZM823.223,358.091h7.132v-6.821h-7.132v6.821Z"/><path class="cls-4" d="M170.453,364.54h5.652v-16.639h-4.764v-3.235c2.631-.498,4.443-1.174,6.115-2.204h3.875v22.078h4.941v4.23h-15.82v-4.23Z"/><path class="cls-4" d="M227.588,340.791v30.575h-4.551v-2.24h-15.785v2.312h-4.373v-30.646h24.709ZM207.252,345.057v7.645h15.785v-7.645h-15.785ZM223.037,364.86v-7.964h-15.785v7.964h15.785Z"/><path class="cls-4" d="M239.999,352.843v19.021h-4.195v-31.855h13.616v12.834h-9.421ZM239.999,343.066v1.884h5.476v-1.884h-5.476ZM245.475,349.821v-2.026h-5.476v2.026h5.476ZM265.811,366.851c0,2.275-.463,3.521-1.885,4.195-1.387.711-3.448.818-6.506.818-.107-.89-.498-2.205-.924-3.307h-8.818v1.813h-3.84v-15.395h13.688v12.621c1.387.035,2.702.035,3.165,0,.639,0,.853-.214.853-.782v-13.901h-9.671v-12.905h13.938v26.842ZM247.678,358.104v2.134h5.867v-2.134h-5.867ZM253.545,365.464v-2.204h-5.867v2.204h5.867ZM255.891,343.066v1.884h5.653v-1.884h-5.653ZM261.544,349.893v-2.098h-5.653v2.098h5.653Z"/><path class="cls-4" d="M390.98,358.331l4.693,4.729-1.422,1.529-4.729-4.765-4.765,4.765-1.422-1.529,4.692-4.729-4.692-4.729,1.422-1.528,4.765,4.764,4.729-4.764,1.422,1.528-4.693,4.729Z"/><path class="cls-4" d="M412.029,345.888v24.887h-2.56v-22.611h-5.866v-2.275h8.426Z"/><path class="cls-4" d="M421.559,368.997c0-1.103.854-1.92,1.885-1.92s1.92.817,1.92,1.92-.889,1.955-1.92,1.955-1.885-.853-1.885-1.955Z"/><path class="cls-4" d="M432.616,358.331c0-7.929,4.159-12.657,9.919-12.657s9.955,4.729,9.955,12.657-4.195,12.657-9.955,12.657-9.919-4.729-9.919-12.657ZM449.859,358.331c0-6.648-2.986-10.311-7.324-10.311s-7.323,3.662-7.323,10.311,2.986,10.311,7.323,10.311,7.324-3.662,7.324-10.311Z"/><polygon class="cls-4" points="525 391 523 391 523 390 524 390 524 389 525 389 525 391"/><path class="cls-4" d="M520,391h-3v-1h3v1ZM514,391h-3v-1h3v1ZM508,391h-3v-1h3v1ZM502,391h-3v-1h3v1ZM496,391h-3v-1h3v1ZM490,391h-3v-1h3v1ZM484,391h-3v-1h3v1ZM478,391h-3v-1h3v1ZM472,391h-3v-1h3v1ZM466,391h-3v-1h3v1ZM460,391h-3v-1h3v1ZM454,391h-3v-1h3v1ZM448,391h-3v-1h3v1ZM442,391h-3v-1h3v1ZM436,391h-3v-1h3v1ZM430,391h-3v-1h3v1ZM424,391h-3v-1h3v1ZM418,391h-3v-1h3v1ZM412,391h-3v-1h3v1ZM406,391h-3v-1h3v1ZM399,391h-3v-1h3v1ZM393,391h-3v-1h3v1ZM387,391h-3v-1h3v1ZM381,391h-3v-1h3v1ZM375,391h-3v-1h3v1ZM369,391h-3v-1h3v1ZM363,391h-3v-1h3v1ZM357,391h-3v-1h3v1ZM351,391h-3v-1h3v1ZM345,391h-3v-1h3v1ZM339,391h-3v-1h3v1ZM333,391h-3v-1h3v1ZM327,391h-3v-1h3v1ZM321,391h-3v-1h3v1Z"/><polygon class="cls-4" points="315 391 313 391 313 389 314 389 314 390 315 390 315 391"/><path class="cls-4" d="M314,386h-1v-3h1v3ZM314,380h-1v-3h1v3ZM314,374h-1v-3h1v3ZM314,368h-1v-3h1v3ZM314,362h-1v-3h1v3ZM314,356h-1v-3h1v3ZM314,350h-1v-3h1v3ZM314,344h-1v-3h1v3ZM314,338h-1v-3h1v3ZM314,332h-1v-3h1v3Z"/><polygon class="cls-4" points="314 326 313 326 313 324 315 324 315 325 314 325 314 326"/><path class="cls-4" d="M520,325h-3v-1h3v1ZM514,325h-3v-1h3v1ZM508,325h-3v-1h3v1ZM502,325h-3v-1h3v1ZM496,325h-3v-1h3v1ZM490,325h-3v-1h3v1ZM484,325h-3v-1h3v1ZM478,325h-3v-1h3v1ZM472,325h-3v-1h3v1ZM466,325h-3v-1h3v1ZM460,325h-3v-1h3v1ZM454,325h-3v-1h3v1ZM448,325h-3v-1h3v1ZM442,325h-3v-1h3v1ZM436,325h-3v-1h3v1ZM430,325h-3v-1h3v1ZM424,325h-3v-1h3v1ZM418,325h-3v-1h3v1ZM412,325h-3v-1h3v1ZM406,325h-3v-1h3v1ZM399,325h-3v-1h3v1ZM393,325h-3v-1h3v1ZM387,325h-3v-1h3v1ZM381,325h-3v-1h3v1ZM375,325h-3v-1h3v1ZM369,325h-3v-1h3v1ZM363,325h-3v-1h3v1ZM357,325h-3v-1h3v1ZM351,325h-3v-1h3v1ZM345,325h-3v-1h3v1ZM339,325h-3v-1h3v1ZM333,325h-3v-1h3v1ZM327,325h-3v-1h3v1ZM321,325h-3v-1h3v1Z"/><polygon class="cls-4" points="525 326 524 326 524 325 523 325 523 324 525 324 525 326"/><path class="cls-4" d="M525,386h-1v-3h1v3ZM525,380h-1v-3h1v3ZM525,374h-1v-3h1v3ZM525,368h-1v-3h1v3ZM525,362h-1v-3h1v3ZM525,356h-1v-3h1v3ZM525,350h-1v-3h1v3ZM525,344h-1v-3h1v3ZM525,338h-1v-3h1v3ZM525,332h-1v-3h1v3Z"/><path class="cls-4" d="M634,358h-3v-1h3v1ZM628,358h-3v-1h3v1ZM622,358h-3v-1h3v1ZM616,358h-3v-1h3v1ZM610,358h-3v-1h3v1ZM604,358h-3v-1h3v1ZM598,358h-3v-1h3v1ZM592,358h-3v-1h3v1ZM586,358h-3v-1h3v1ZM580,358h-3v-1h3v1ZM574,358h-3v-1h3v1ZM568,358h-3v-1h3v1ZM562,358h-3v-1h3v1ZM556,358h-3v-1h3v1ZM550,358h-3v-1h3v1ZM544,358h-3v-1h3v1ZM538,358h-3v-1h3v1Z"/><path class="cls-4" d="M635.315,368.982c-.128,0-.256-.049-.354-.146-.195-.195-.195-.512,0-.707l10.462-10.462-10.462-10.461c-.195-.195-.195-.512,0-.707s.512-.195.707,0l10.815,10.815c.094.094.146.221.146.354s-.053.26-.146.354l-10.815,10.815c-.098.098-.226.146-.354.146Z"/><path class="cls-4" d="M690.742,432.778v24.887h-5.76v-20.265h-4.977v-4.622h10.736Z"/><path class="cls-4" d="M717.479,450.057c0,4.195-3.234,8.035-10.311,8.035-3.484,0-7.074-.96-9.492-2.666l2.24-4.409c1.884,1.423,4.516,2.24,7.11,2.24,2.88,0,4.657-1.174,4.657-3.2,0-1.884-1.387-3.058-4.657-3.058h-2.631v-3.804l5.12-5.795h-10.596v-4.622h17.422v3.733l-5.618,6.399c4.479.711,6.755,3.483,6.755,7.146Z"/><path class="cls-4" d="M728.715,454.466c0,.924-.142,1.6-.959,3.555l-2.027,5.12h-3.52l1.564-5.653c-1.174-.462-1.92-1.564-1.92-3.021,0-2.062,1.494-3.413,3.449-3.413,1.99,0,3.412,1.387,3.412,3.413Z"/><path class="cls-4" d="M732.271,445.222c0-8.213,4.551-12.87,10.666-12.87,6.15,0,10.666,4.657,10.666,12.87s-4.516,12.87-10.666,12.87c-6.115,0-10.666-4.657-10.666-12.87ZM747.809,445.222c0-5.653-1.992-7.999-4.871-7.999-2.845,0-4.836,2.346-4.836,7.999s1.991,7.999,4.836,7.999c2.879,0,4.871-2.346,4.871-7.999Z"/><path class="cls-4" d="M757.516,445.222c0-8.213,4.551-12.87,10.665-12.87,6.151,0,10.666,4.657,10.666,12.87s-4.515,12.87-10.666,12.87c-6.114,0-10.665-4.657-10.665-12.87ZM773.052,445.222c0-5.653-1.991-7.999-4.871-7.999-2.845,0-4.835,2.346-4.835,7.999s1.99,7.999,4.835,7.999c2.88,0,4.871-2.346,4.871-7.999Z"/><path class="cls-4" d="M782.76,445.222c0-8.213,4.551-12.87,10.665-12.87,6.151,0,10.666,4.657,10.666,12.87s-4.515,12.87-10.666,12.87c-6.114,0-10.665-4.657-10.665-12.87ZM798.296,445.222c0-5.653-1.991-7.999-4.871-7.999-2.845,0-4.835,2.346-4.835,7.999s1.99,7.999,4.835,7.999c2.88,0,4.871-2.346,4.871-7.999Z"/><path class="cls-4" d="M831.486,438.692v17.018c0,1.934-.844,2.044-4.977,2.044-.088-.422-.355-1.088-.576-1.511.799.022,1.555.045,2.176.045,1.756,0,1.889,0,1.889-.578v-7.242h-15.507v9.331h-1.489v-19.106h18.484ZM814.491,440.158v6.821h6.888v-6.821h-6.888ZM822.867,446.979h7.131v-6.821h-7.131v6.821Z"/><path class="cls-4" d="M170.177,454.645c7.146-6.399,11.377-11.342,11.377-15.395,0-2.667-1.458-4.267-3.946-4.267-1.92,0-3.52,1.244-4.836,2.702l-2.844-2.845c2.418-2.56,4.764-3.981,8.355-3.981,4.977,0,8.283,3.2,8.283,8.106,0,4.764-3.946,9.884-8.746,14.576,1.316-.142,3.059-.284,4.267-.284h5.724v4.408h-17.634v-3.021Z"/><path class="cls-4" d="M228.699,429.687v30.575h-4.551v-2.24h-15.786v2.312h-4.373v-30.646h24.71ZM208.362,433.952v7.645h15.786v-7.645h-15.786ZM224.148,453.756v-7.964h-15.786v7.964h15.786Z"/><path class="cls-4" d="M241.109,441.738v19.021h-4.195v-31.855h13.617v12.834h-9.422ZM241.109,431.962v1.884h5.475v-1.884h-5.475ZM246.584,438.717v-2.026h-5.475v2.026h5.475ZM266.921,455.746c0,2.275-.462,3.521-1.884,4.195-1.387.711-3.449.818-6.507.818-.106-.89-.498-2.205-.925-3.307h-8.816v1.813h-3.84v-15.395h13.688v12.621c1.387.035,2.702.035,3.164,0,.641,0,.854-.214.854-.782v-13.901h-9.67v-12.905h13.937v26.842ZM248.789,447v2.134h5.865v-2.134h-5.865ZM254.654,454.359v-2.204h-5.865v2.204h5.865ZM257.002,431.962v1.884h5.652v-1.884h-5.652ZM262.654,438.788v-2.098h-5.652v2.098h5.652Z"/><path class="cls-4" d="M392.722,447.22l4.693,4.729-1.423,1.529-4.729-4.765-4.764,4.765-1.422-1.529,4.693-4.729-4.693-4.729,1.422-1.528,4.764,4.764,4.729-4.764,1.423,1.528-4.693,4.729Z"/><path class="cls-4" d="M413.771,434.776v24.887h-2.561v-22.611h-5.866v-2.275h8.427Z"/><path class="cls-4" d="M423.301,457.886c0-1.103.854-1.92,1.884-1.92s1.92.817,1.92,1.92-.889,1.955-1.92,1.955-1.884-.853-1.884-1.955Z"/><path class="cls-4" d="M450.818,452.518c0,4.159-3.021,7.359-9.03,7.359-3.591,0-7.04-1.245-8.96-3.2l1.245-2.026c1.6,1.671,4.479,2.88,7.715,2.88,4.124,0,6.399-1.92,6.399-5.013,0-2.987-2.098-4.942-6.719-4.942h-1.778v-1.884l6.897-8.64h-12.729v-2.275h16v1.813l-7.04,8.853c5.333.284,7.999,3.093,7.999,7.075Z"/><polygon class="cls-4" points="525 481 523 481 523 480 524 480 524 479 525 479 525 481"/><path class="cls-4" d="M520,481h-3v-1h3v1ZM514,481h-3v-1h3v1ZM508,481h-3v-1h3v1ZM502,481h-3v-1h3v1ZM496,481h-3v-1h3v1ZM490,481h-3v-1h3v1ZM484,481h-3v-1h3v1ZM478,481h-3v-1h3v1ZM472,481h-3v-1h3v1ZM466,481h-3v-1h3v1ZM460,481h-3v-1h3v1ZM454,481h-3v-1h3v1ZM448,481h-3v-1h3v1ZM442,481h-3v-1h3v1ZM436,481h-3v-1h3v1ZM430,481h-3v-1h3v1ZM424,481h-3v-1h3v1ZM418,481h-3v-1h3v1ZM412,481h-3v-1h3v1ZM406,481h-3v-1h3v1ZM399,481h-3v-1h3v1ZM393,481h-3v-1h3v1ZM387,481h-3v-1h3v1ZM381,481h-3v-1h3v1ZM375,481h-3v-1h3v1ZM369,481h-3v-1h3v1ZM363,481h-3v-1h3v1ZM357,481h-3v-1h3v1ZM351,481h-3v-1h3v1ZM345,481h-3v-1h3v1ZM339,481h-3v-1h3v1ZM333,481h-3v-1h3v1ZM327,481h-3v-1h3v1ZM321,481h-3v-1h3v1Z"/><polygon class="cls-4" points="315 481 313 481 313 479 314 479 314 480 315 480 315 481"/><path class="cls-4" d="M314,476h-1v-3h1v3ZM314,470h-1v-3h1v3ZM314,464h-1v-3h1v3ZM314,458h-1v-3h1v3ZM314,452h-1v-3h1v3ZM314,446h-1v-3h1v3ZM314,440h-1v-3h1v3ZM314,434h-1v-3h1v3ZM314,428h-1v-3h1v3ZM314,422h-1v-3h1v3Z"/><polygon class="cls-4" points="314 416 313 416 313 414 315 414 315 415 314 415 314 416"/><path class="cls-4" d="M520,415h-3v-1h3v1ZM514,415h-3v-1h3v1ZM508,415h-3v-1h3v1ZM502,415h-3v-1h3v1ZM496,415h-3v-1h3v1ZM490,415h-3v-1h3v1ZM484,415h-3v-1h3v1ZM478,415h-3v-1h3v1ZM472,415h-3v-1h3v1ZM466,415h-3v-1h3v1ZM460,415h-3v-1h3v1ZM454,415h-3v-1h3v1ZM448,415h-3v-1h3v1ZM442,415h-3v-1h3v1ZM436,415h-3v-1h3v1ZM430,415h-3v-1h3v1ZM424,415h-3v-1h3v1ZM418,415h-3v-1h3v1ZM412,415h-3v-1h3v1ZM406,415h-3v-1h3v1ZM399,415h-3v-1h3v1ZM393,415h-3v-1h3v1ZM387,415h-3v-1h3v1ZM381,415h-3v-1h3v1ZM375,415h-3v-1h3v1ZM369,415h-3v-1h3v1ZM363,415h-3v-1h3v1ZM357,415h-3v-1h3v1ZM351,415h-3v-1h3v1ZM345,415h-3v-1h3v1ZM339,415h-3v-1h3v1ZM333,415h-3v-1h3v1ZM327,415h-3v-1h3v1ZM321,415h-3v-1h3v1Z"/><polygon class="cls-4" points="525 416 524 416 524 415 523 415 523 414 525 414 525 416"/><path class="cls-4" d="M525,476h-1v-3h1v3ZM525,470h-1v-3h1v3ZM525,464h-1v-3h1v3ZM525,458h-1v-3h1v3ZM525,452h-1v-3h1v3ZM525,446h-1v-3h1v3ZM525,440h-1v-3h1v3ZM525,434h-1v-3h1v3ZM525,428h-1v-3h1v3ZM525,422h-1v-3h1v3Z"/><path class="cls-4" d="M634,448h-3v-1h3v1ZM628,448h-3v-1h3v1ZM622,448h-3v-1h3v1ZM616,448h-3v-1h3v1ZM610,448h-3v-1h3v1ZM604,448h-3v-1h3v1ZM598,448h-3v-1h3v1ZM592,448h-3v-1h3v1ZM586,448h-3v-1h3v1ZM580,448h-3v-1h3v1ZM574,448h-3v-1h3v1ZM568,448h-3v-1h3v1ZM562,448h-3v-1h3v1ZM556,448h-3v-1h3v1ZM550,448h-3v-1h3v1ZM544,448h-3v-1h3v1ZM538,448h-3v-1h3v1Z"/><path class="cls-4" d="M635.314,457.871c-.128,0-.256-.049-.354-.146-.195-.195-.195-.512,0-.707l10.461-10.461-10.461-10.462c-.195-.195-.195-.512,0-.707s.512-.195.707,0l10.815,10.815c.195.195.195.512,0,.707l-10.815,10.815c-.098.098-.226.146-.354.146Z"/><path class="cls-4" d="M690.745,521.669v24.887h-5.76v-20.265h-4.978v-4.622h10.737Z"/><path class="cls-4" d="M717.482,538.734c0,4.408-3.235,8.248-10.346,8.248-3.449,0-7.076-.96-9.493-2.666l2.275-4.409c1.884,1.423,4.479,2.24,7.075,2.24,2.88,0,4.657-1.209,4.657-3.235,0-1.955-1.28-3.235-5.795-3.235h-6.364l1.28-14.008h15.181v4.622h-10.381l-.392,4.729h2.026c7.359,0,10.275,3.307,10.275,7.715Z"/><path class="cls-4" d="M728.326,543.356c0,.924-.142,1.6-.959,3.555l-2.027,5.12h-3.52l1.564-5.653c-1.174-.462-1.92-1.564-1.92-3.021,0-2.062,1.494-3.413,3.449-3.413,1.99,0,3.412,1.387,3.412,3.413Z"/><path class="cls-4" d="M731.883,534.112c0-8.213,4.551-12.87,10.666-12.87,6.15,0,10.666,4.657,10.666,12.87s-4.516,12.87-10.666,12.87c-6.115,0-10.666-4.657-10.666-12.87ZM747.42,534.112c0-5.653-1.991-7.999-4.871-7.999-2.844,0-4.835,2.346-4.835,7.999s1.991,7.999,4.835,7.999c2.88,0,4.871-2.346,4.871-7.999Z"/><path class="cls-4" d="M757.127,534.112c0-8.213,4.551-12.87,10.666-12.87,6.15,0,10.666,4.657,10.666,12.87s-4.516,12.87-10.666,12.87c-6.115,0-10.666-4.657-10.666-12.87ZM772.664,534.112c0-5.653-1.992-7.999-4.871-7.999-2.845,0-4.836,2.346-4.836,7.999s1.991,7.999,4.836,7.999c2.879,0,4.871-2.346,4.871-7.999Z"/><path class="cls-4" d="M782.371,534.112c0-8.213,4.551-12.87,10.665-12.87,6.151,0,10.666,4.657,10.666,12.87s-4.515,12.87-10.666,12.87c-6.114,0-10.665-4.657-10.665-12.87ZM797.907,534.112c0-5.653-1.991-7.999-4.871-7.999-2.845,0-4.835,2.346-4.835,7.999s1.99,7.999,4.835,7.999c2.88,0,4.871-2.346,4.871-7.999Z"/><path class="cls-4" d="M831.098,527.583v17.018c0,1.934-.844,2.044-4.977,2.044-.088-.422-.355-1.088-.576-1.511.799.022,1.555.045,2.176.045,1.756,0,1.889,0,1.889-.578v-7.242h-15.507v9.331h-1.489v-19.106h18.484ZM814.103,529.049v6.821h6.888v-6.821h-6.888ZM822.479,535.87h7.131v-6.821h-7.131v6.821Z"/><path class="cls-4" d="M169.575,543.392l2.453-3.307c1.564,1.529,3.484,2.702,5.866,2.702,2.666,0,4.48-1.315,4.48-3.662,0-2.595-1.529-4.195-7.254-4.195v-3.769c4.836,0,6.4-1.671,6.4-4.018,0-2.062-1.28-3.271-3.52-3.306-1.885.035-3.414.924-4.979,2.346l-2.666-3.199c2.275-1.991,4.8-3.235,7.893-3.235,5.084,0,8.533,2.488,8.533,7.004,0,2.844-1.6,4.906-4.408,6.009v.178c2.986.817,5.262,3.021,5.262,6.471,0,4.835-4.231,7.644-9.244,7.644-4.16,0-6.969-1.564-8.817-3.662Z"/><path class="cls-4" d="M228.701,518.576v30.575h-4.551v-2.24h-15.785v2.312h-4.373v-30.646h24.709ZM208.365,522.842v7.645h15.785v-7.645h-15.785ZM224.15,542.646v-7.964h-15.785v7.964h15.785Z"/><path class="cls-4" d="M241.112,530.628v19.021h-4.195v-31.855h13.616v12.834h-9.421ZM241.112,520.852v1.884h5.476v-1.884h-5.476ZM246.588,527.606v-2.026h-5.476v2.026h5.476ZM266.924,544.636c0,2.275-.463,3.521-1.885,4.195-1.387.711-3.448.818-6.506.818-.107-.89-.498-2.205-.924-3.307h-8.818v1.813h-3.84v-15.395h13.688v12.621c1.387.035,2.702.035,3.165,0,.639,0,.853-.214.853-.782v-13.901h-9.671v-12.905h13.938v26.842ZM248.791,535.89v2.134h5.867v-2.134h-5.867ZM254.658,543.249v-2.204h-5.867v2.204h5.867ZM257.004,520.852v1.884h5.653v-1.884h-5.653ZM262.657,527.678v-2.098h-5.653v2.098h5.653Z"/><path class="cls-4" d="M392.688,536.108l4.693,4.729-1.422,1.529-4.729-4.765-4.764,4.765-1.422-1.529,4.692-4.729-4.692-4.729,1.422-1.528,4.764,4.764,4.729-4.764,1.422,1.528-4.693,4.729Z"/><path class="cls-4" d="M413.737,523.665v24.887h-2.56v-22.611h-5.867v-2.275h8.427Z"/><path class="cls-4" d="M423.267,546.774c0-1.103.854-1.92,1.884-1.92s1.92.817,1.92,1.92-.889,1.955-1.92,1.955-1.884-.853-1.884-1.955Z"/><path class="cls-4" d="M451.211,541.229c0,4.23-2.95,7.537-9.029,7.537-3.592,0-7.004-1.245-8.924-3.2l1.244-2.026c1.6,1.671,4.443,2.88,7.644,2.88,4.231,0,6.471-2.062,6.471-5.084,0-3.2-1.991-5.191-8.319-5.191h-5.297l1.279-12.479h13.617v2.275h-11.377l-.854,7.928h3.199c7.502,0,10.346,2.951,10.346,7.36Z"/><polygon class="cls-4" points="525 569 523 569 523 568 524 568 524 567 525 567 525 569"/><path class="cls-4" d="M520,569h-3v-1h3v1ZM514,569h-3v-1h3v1ZM508,569h-3v-1h3v1ZM502,569h-3v-1h3v1ZM496,569h-3v-1h3v1ZM490,569h-3v-1h3v1ZM484,569h-3v-1h3v1ZM478,569h-3v-1h3v1ZM472,569h-3v-1h3v1ZM466,569h-3v-1h3v1ZM460,569h-3v-1h3v1ZM454,569h-3v-1h3v1ZM448,569h-3v-1h3v1ZM442,569h-3v-1h3v1ZM436,569h-3v-1h3v1ZM430,569h-3v-1h3v1ZM424,569h-3v-1h3v1ZM418,569h-3v-1h3v1ZM412,569h-3v-1h3v1ZM406,569h-3v-1h3v1ZM399,569h-3v-1h3v1ZM393,569h-3v-1h3v1ZM387,569h-3v-1h3v1ZM381,569h-3v-1h3v1ZM375,569h-3v-1h3v1ZM369,569h-3v-1h3v1ZM363,569h-3v-1h3v1ZM357,569h-3v-1h3v1ZM351,569h-3v-1h3v1ZM345,569h-3v-1h3v1ZM339,569h-3v-1h3v1ZM333,569h-3v-1h3v1ZM327,569h-3v-1h3v1ZM321,569h-3v-1h3v1Z"/><polygon class="cls-4" points="315 569 313 569 313 567 314 567 314 568 315 568 315 569"/><path class="cls-4" d="M314,564h-1v-3h1v3ZM314,558h-1v-3h1v3ZM314,552h-1v-3h1v3ZM314,546h-1v-3h1v3ZM314,540h-1v-3h1v3ZM314,534h-1v-3h1v3ZM314,528h-1v-3h1v3ZM314,522h-1v-3h1v3ZM314,516h-1v-3h1v3ZM314,510h-1v-3h1v3Z"/><polygon class="cls-4" points="314 504 313 504 313 502 315 502 315 503 314 503 314 504"/><path class="cls-4" d="M520,503h-3v-1h3v1ZM514,503h-3v-1h3v1ZM508,503h-3v-1h3v1ZM502,503h-3v-1h3v1ZM496,503h-3v-1h3v1ZM490,503h-3v-1h3v1ZM484,503h-3v-1h3v1ZM478,503h-3v-1h3v1ZM472,503h-3v-1h3v1ZM466,503h-3v-1h3v1ZM460,503h-3v-1h3v1ZM454,503h-3v-1h3v1ZM448,503h-3v-1h3v1ZM442,503h-3v-1h3v1ZM436,503h-3v-1h3v1ZM430,503h-3v-1h3v1ZM424,503h-3v-1h3v1ZM418,503h-3v-1h3v1ZM412,503h-3v-1h3v1ZM406,503h-3v-1h3v1ZM399,503h-3v-1h3v1ZM393,503h-3v-1h3v1ZM387,503h-3v-1h3v1ZM381,503h-3v-1h3v1ZM375,503h-3v-1h3v1ZM369,503h-3v-1h3v1ZM363,503h-3v-1h3v1ZM357,503h-3v-1h3v1ZM351,503h-3v-1h3v1ZM345,503h-3v-1h3v1ZM339,503h-3v-1h3v1ZM333,503h-3v-1h3v1ZM327,503h-3v-1h3v1ZM321,503h-3v-1h3v1Z"/><polygon class="cls-4" points="525 504 524 504 524 503 523 503 523 502 525 502 525 504"/><path class="cls-4" d="M525,564h-1v-3h1v3ZM525,558h-1v-3h1v3ZM525,552h-1v-3h1v3ZM525,546h-1v-3h1v3ZM525,540h-1v-3h1v3ZM525,534h-1v-3h1v3ZM525,528h-1v-3h1v3ZM525,522h-1v-3h1v3ZM525,516h-1v-3h1v3ZM525,510h-1v-3h1v3Z"/><path class="cls-4" d="M634,536h-3v-1h3v1ZM628,536h-3v-1h3v1ZM622,536h-3v-1h3v1ZM616,536h-3v-1h3v1ZM610,536h-3v-1h3v1ZM604,536h-3v-1h3v1ZM598,536h-3v-1h3v1ZM592,536h-3v-1h3v1ZM586,536h-3v-1h3v1ZM580,536h-3v-1h3v1ZM574,536h-3v-1h3v1ZM568,536h-3v-1h3v1ZM562,536h-3v-1h3v1ZM556,536h-3v-1h3v1ZM550,536h-3v-1h3v1ZM544,536h-3v-1h3v1ZM538,536h-3v-1h3v1Z"/><path class="cls-4" d="M635.316,546.76c-.128,0-.256-.049-.354-.146-.195-.195-.195-.512,0-.707l10.462-10.462-10.462-10.461c-.195-.195-.195-.512,0-.707s.512-.195.707,0l10.815,10.815c.094.094.146.221.146.354s-.053.26-.146.354l-10.815,10.815c-.098.098-.226.146-.354.146Z"/><path class="cls-4" d="M690.743,610.557v24.887h-5.76v-20.265h-4.978v-4.622h10.737Z"/><path class="cls-4" d="M717.765,610.557v3.733l-9.243,21.153h-6.258l8.924-20.193h-8.248v4.053h-5.12v-8.746h19.945Z"/><path class="cls-4" d="M727.045,632.244c0,.924-.142,1.6-.959,3.555l-2.027,5.12h-3.52l1.564-5.653c-1.174-.462-1.92-1.564-1.92-3.021,0-2.062,1.494-3.413,3.449-3.413,1.99,0,3.412,1.387,3.412,3.413Z"/><path class="cls-4" d="M731.775,623c0-8.213,4.551-12.87,10.665-12.87,6.151,0,10.666,4.657,10.666,12.87s-4.515,12.87-10.666,12.87c-6.114,0-10.665-4.657-10.665-12.87ZM747.312,623c0-5.653-1.991-7.999-4.871-7.999-2.845,0-4.835,2.346-4.835,7.999s1.99,7.999,4.835,7.999c2.88,0,4.871-2.346,4.871-7.999Z"/><path class="cls-4" d="M757.019,623c0-8.213,4.551-12.87,10.665-12.87,6.151,0,10.666,4.657,10.666,12.87s-4.515,12.87-10.666,12.87c-6.114,0-10.665-4.657-10.665-12.87ZM772.555,623c0-5.653-1.99-7.999-4.871-7.999-2.844,0-4.834,2.346-4.834,7.999s1.99,7.999,4.834,7.999c2.881,0,4.871-2.346,4.871-7.999Z"/><path class="cls-4" d="M782.262,623c0-8.213,4.551-12.87,10.666-12.87,6.15,0,10.666,4.657,10.666,12.87s-4.516,12.87-10.666,12.87c-6.115,0-10.666-4.657-10.666-12.87ZM797.799,623c0-5.653-1.991-7.999-4.871-7.999-2.844,0-4.835,2.346-4.835,7.999s1.991,7.999,4.835,7.999c2.88,0,4.871-2.346,4.871-7.999Z"/><path class="cls-4" d="M830.99,616.471v17.018c0,1.934-.844,2.044-4.977,2.044-.09-.422-.355-1.088-.578-1.511.801.022,1.555.045,2.178.045,1.755,0,1.889,0,1.889-.578v-7.242h-15.508v9.331h-1.488v-19.106h18.484ZM813.994,617.937v6.821h6.887v-6.821h-6.887ZM822.369,624.758h7.133v-6.821h-7.133v6.821Z"/><path class="cls-4" d="M188.596,628.618h-3.129v6.826h-4.87v-6.826h-11.199v-3.555l9.812-15.928h6.257v15.501h3.129v3.981ZM180.597,624.637v-5.369c0-1.528.142-3.91.214-5.439h-.143c-.641,1.387-1.352,2.845-2.098,4.267l-4.089,6.542h6.115Z"/><path class="cls-4" d="M228.701,607.465v30.575h-4.551v-2.24h-15.785v2.312h-4.373v-30.646h24.709ZM208.365,611.73v7.645h15.785v-7.645h-15.785ZM224.15,631.534v-7.964h-15.785v7.964h15.785Z"/><path class="cls-4" d="M241.112,619.517v19.021h-4.195v-31.855h13.616v12.834h-9.421ZM241.112,609.74v1.884h5.476v-1.884h-5.476ZM246.588,616.495v-2.026h-5.476v2.026h5.476ZM266.924,633.524c0,2.275-.463,3.521-1.885,4.195-1.387.711-3.448.818-6.506.818-.107-.89-.498-2.205-.924-3.307h-8.818v1.813h-3.84v-15.395h13.688v12.621c1.387.035,2.702.035,3.165,0,.639,0,.853-.214.853-.782v-13.901h-9.671v-12.905h13.938v26.842ZM248.791,624.778v2.134h5.867v-2.134h-5.867ZM254.658,632.138v-2.204h-5.867v2.204h5.867ZM257.004,609.74v1.884h5.653v-1.884h-5.653ZM262.657,616.566v-2.098h-5.653v2.098h5.653Z"/><path class="cls-4" d="M392.278,624.998l4.693,4.729-1.423,1.529-4.729-4.765-4.764,4.765-1.422-1.529,4.693-4.729-4.693-4.729,1.422-1.528,4.764,4.764,4.729-4.764,1.423,1.528-4.693,4.729Z"/><path class="cls-4" d="M413.328,612.555v24.887h-2.561v-22.611h-5.866v-2.275h8.427Z"/><path class="cls-4" d="M422.857,635.664c0-1.103.854-1.92,1.884-1.92s1.92.817,1.92,1.92-.889,1.955-1.92,1.955-1.884-.853-1.884-1.955Z"/><path class="cls-4" d="M451.478,612.555v1.813l-10.417,23.073h-2.773l10.239-22.611h-12.799v4.657h-2.524v-6.933h18.274Z"/><polygon class="cls-4" points="525 659 523 659 523 658 524 658 524 657 525 657 525 659"/><path class="cls-4" d="M520,659h-3v-1h3v1ZM514,659h-3v-1h3v1ZM508,659h-3v-1h3v1ZM502,659h-3v-1h3v1ZM496,659h-3v-1h3v1ZM490,659h-3v-1h3v1ZM484,659h-3v-1h3v1ZM478,659h-3v-1h3v1ZM472,659h-3v-1h3v1ZM466,659h-3v-1h3v1ZM460,659h-3v-1h3v1ZM454,659h-3v-1h3v1ZM448,659h-3v-1h3v1ZM442,659h-3v-1h3v1ZM436,659h-3v-1h3v1ZM430,659h-3v-1h3v1ZM424,659h-3v-1h3v1ZM418,659h-3v-1h3v1ZM412,659h-3v-1h3v1ZM406,659h-3v-1h3v1ZM399,659h-3v-1h3v1ZM393,659h-3v-1h3v1ZM387,659h-3v-1h3v1ZM381,659h-3v-1h3v1ZM375,659h-3v-1h3v1ZM369,659h-3v-1h3v1ZM363,659h-3v-1h3v1ZM357,659h-3v-1h3v1ZM351,659h-3v-1h3v1ZM345,659h-3v-1h3v1ZM339,659h-3v-1h3v1ZM333,659h-3v-1h3v1ZM327,659h-3v-1h3v1ZM321,659h-3v-1h3v1Z"/><polygon class="cls-4" points="315 659 313 659 313 657 314 657 314 658 315 658 315 659"/><path class="cls-4" d="M314,654h-1v-3h1v3ZM314,648h-1v-3h1v3ZM314,642h-1v-3h1v3ZM314,636h-1v-3h1v3ZM314,630h-1v-3h1v3ZM314,624h-1v-3h1v3ZM314,618h-1v-3h1v3ZM314,612h-1v-3h1v3ZM314,606h-1v-3h1v3ZM314,600h-1v-3h1v3Z"/><polygon class="cls-4" points="314 594 313 594 313 592 315 592 315 593 314 593 314 594"/><path class="cls-4" d="M520,593h-3v-1h3v1ZM514,593h-3v-1h3v1ZM508,593h-3v-1h3v1ZM502,593h-3v-1h3v1ZM496,593h-3v-1h3v1ZM490,593h-3v-1h3v1ZM484,593h-3v-1h3v1ZM478,593h-3v-1h3v1ZM472,593h-3v-1h3v1ZM466,593h-3v-1h3v1ZM460,593h-3v-1h3v1ZM454,593h-3v-1h3v1ZM448,593h-3v-1h3v1ZM442,593h-3v-1h3v1ZM436,593h-3v-1h3v1ZM430,593h-3v-1h3v1ZM424,593h-3v-1h3v1ZM418,593h-3v-1h3v1ZM412,593h-3v-1h3v1ZM406,593h-3v-1h3v1ZM399,593h-3v-1h3v1ZM393,593h-3v-1h3v1ZM387,593h-3v-1h3v1ZM381,593h-3v-1h3v1ZM375,593h-3v-1h3v1ZM369,593h-3v-1h3v1ZM363,593h-3v-1h3v1ZM357,593h-3v-1h3v1ZM351,593h-3v-1h3v1ZM345,593h-3v-1h3v1ZM339,593h-3v-1h3v1ZM333,593h-3v-1h3v1ZM327,593h-3v-1h3v1ZM321,593h-3v-1h3v1Z"/><polygon class="cls-4" points="525 594 524 594 524 593 523 593 523 592 525 592 525 594"/><path class="cls-4" d="M525,654h-1v-3h1v3ZM525,648h-1v-3h1v3ZM525,642h-1v-3h1v3ZM525,636h-1v-3h1v3ZM525,630h-1v-3h1v3ZM525,624h-1v-3h1v3ZM525,618h-1v-3h1v3ZM525,612h-1v-3h1v3ZM525,606h-1v-3h1v3ZM525,600h-1v-3h1v3Z"/><path class="cls-4" d="M634,626h-3v-1h3v1ZM628,626h-3v-1h3v1ZM622,626h-3v-1h3v1ZM616,626h-3v-1h3v1ZM610,626h-3v-1h3v1ZM604,626h-3v-1h3v1ZM598,626h-3v-1h3v1ZM592,626h-3v-1h3v1ZM586,626h-3v-1h3v1ZM580,626h-3v-1h3v1ZM574,626h-3v-1h3v1ZM568,626h-3v-1h3v1ZM562,626h-3v-1h3v1ZM556,626h-3v-1h3v1ZM550,626h-3v-1h3v1ZM544,626h-3v-1h3v1ZM538,626h-3v-1h3v1Z"/><path class="cls-4" d="M635.316,635.648c-.128,0-.256-.049-.354-.146-.195-.195-.195-.512,0-.707l10.461-10.461-10.461-10.462c-.195-.195-.195-.512,0-.707s.512-.195.707,0l10.815,10.815c.195.195.195.512,0,.707l-10.815,10.815c-.098.098-.226.146-.354.146Z"/><path class="cls-4" d="M690.745,699.445v24.887h-5.76v-20.265h-4.978v-4.622h10.737Z"/><path class="cls-4" d="M717.695,717.115c0,4.692-4.195,7.644-10.523,7.644-6.293,0-10.453-2.951-10.453-7.644,0-2.667,1.387-4.657,3.77-5.866-1.85-1.138-2.881-2.88-2.881-5.12,0-4.373,3.911-7.11,9.564-7.11,5.724,0,9.635,2.737,9.635,7.11,0,2.24-1.066,3.982-2.916,5.12,2.418,1.209,3.805,3.199,3.805,5.866ZM711.865,716.938c0-2.204-1.814-3.556-4.693-3.556-2.845,0-4.622,1.352-4.622,3.556s1.777,3.591,4.622,3.591c2.879,0,4.693-1.387,4.693-3.591ZM703.332,706.378c0,1.885,1.493,3.058,3.84,3.058,2.382,0,3.91-1.173,3.91-3.058,0-1.955-1.564-3.129-3.91-3.129-2.311,0-3.84,1.174-3.84,3.129Z"/><path class="cls-4" d="M728.718,721.133c0,.924-.142,1.6-.96,3.555l-2.026,5.12h-3.52l1.563-5.653c-1.172-.462-1.92-1.564-1.92-3.021,0-2.062,1.494-3.413,3.449-3.413,1.991,0,3.413,1.387,3.413,3.413Z"/><path class="cls-4" d="M732.273,711.889c0-8.213,4.551-12.87,10.666-12.87,6.15,0,10.666,4.657,10.666,12.87s-4.516,12.87-10.666,12.87c-6.115,0-10.666-4.657-10.666-12.87ZM747.811,711.889c0-5.653-1.991-7.999-4.871-7.999-2.844,0-4.835,2.346-4.835,7.999s1.991,7.999,4.835,7.999c2.88,0,4.871-2.346,4.871-7.999Z"/><path class="cls-4" d="M757.518,711.889c0-8.213,4.551-12.87,10.666-12.87,6.15,0,10.666,4.657,10.666,12.87s-4.516,12.87-10.666,12.87c-6.115,0-10.666-4.657-10.666-12.87ZM773.055,711.889c0-5.653-1.991-7.999-4.871-7.999-2.844,0-4.835,2.346-4.835,7.999s1.991,7.999,4.835,7.999c2.88,0,4.871-2.346,4.871-7.999Z"/><path class="cls-4" d="M782.762,711.889c0-8.213,4.551-12.87,10.666-12.87,6.15,0,10.666,4.657,10.666,12.87s-4.516,12.87-10.666,12.87c-6.115,0-10.666-4.657-10.666-12.87ZM798.299,711.889c0-5.653-1.992-7.999-4.871-7.999-2.845,0-4.836,2.346-4.836,7.999s1.991,7.999,4.836,7.999c2.879,0,4.871-2.346,4.871-7.999Z"/><path class="cls-4" d="M831.49,705.359v17.018c0,1.934-.846,2.044-4.977,2.044-.09-.422-.355-1.088-.578-1.511.799.022,1.555.045,2.178.045,1.754,0,1.888,0,1.888-.578v-7.242h-15.507v9.331h-1.488v-19.106h18.484ZM814.494,706.825v6.821h6.887v-6.821h-6.887ZM822.869,713.646h7.132v-6.821h-7.132v6.821Z"/><path class="cls-4" d="M169.575,721.24l2.417-3.342c1.494,1.457,3.343,2.666,5.796,2.666,2.737,0,4.657-1.742,4.657-4.835,0-3.058-1.777-4.764-4.443-4.764-1.564,0-2.418.391-3.947,1.386l-2.382-1.564.711-12.763h14.079v4.373h-9.564l-.497,5.581c1.031-.497,1.956-.746,3.164-.746,4.409,0,8.106,2.631,8.106,8.354,0,5.866-4.338,9.244-9.209,9.244-4.159,0-6.932-1.636-8.888-3.591Z"/><path class="cls-4" d="M228.701,696.354v30.575h-4.551v-2.24h-15.785v2.312h-4.373v-30.646h24.709ZM208.365,700.619v7.645h15.785v-7.645h-15.785ZM224.15,720.423v-7.964h-15.785v7.964h15.785Z"/><path class="cls-4" d="M241.112,708.405v19.021h-4.195v-31.855h13.616v12.834h-9.421ZM241.112,698.629v1.884h5.476v-1.884h-5.476ZM246.588,705.384v-2.026h-5.476v2.026h5.476ZM266.924,722.413c0,2.275-.463,3.521-1.885,4.195-1.387.711-3.448.818-6.506.818-.107-.89-.498-2.205-.924-3.307h-8.818v1.813h-3.84v-15.395h13.688v12.621c1.387.035,2.702.035,3.165,0,.639,0,.853-.214.853-.782v-13.901h-9.671v-12.905h13.938v26.842ZM248.791,713.667v2.134h5.867v-2.134h-5.867ZM254.658,721.026v-2.204h-5.867v2.204h5.867ZM257.004,698.629v1.884h5.653v-1.884h-5.653ZM262.657,705.455v-2.098h-5.653v2.098h5.653Z"/><path class="cls-4" d="M391.408,713.886l4.693,4.729-1.422,1.529-4.729-4.765-4.765,4.765-1.422-1.529,4.692-4.729-4.692-4.729,1.422-1.528,4.765,4.764,4.729-4.764,1.422,1.528-4.693,4.729Z"/><path class="cls-4" d="M412.457,701.442v24.887h-2.56v-22.611h-5.866v-2.275h8.426Z"/><path class="cls-4" d="M421.986,724.552c0-1.103.854-1.92,1.885-1.92s1.92.817,1.92,1.92-.889,1.955-1.92,1.955-1.885-.853-1.885-1.955Z"/><path class="cls-4" d="M452.172,719.396c0,4.408-3.733,7.146-9.671,7.146-5.973,0-9.599-2.738-9.599-7.146,0-2.986,1.706-5.084,4.799-6.115-2.523-.995-3.91-2.88-3.91-5.475,0-4.054,3.448-6.578,8.71-6.578s8.782,2.524,8.782,6.578c0,2.595-1.422,4.479-3.982,5.475,3.129,1.031,4.871,3.164,4.871,6.115ZM449.541,719.361c0-3.058-2.631-4.978-7.04-4.978s-7.004,1.92-7.004,4.978c0,3.093,2.596,5.013,7.004,5.013s7.04-1.92,7.04-5.013ZM442.501,712.357c3.876,0,6.187-1.742,6.187-4.444,0-2.809-2.453-4.516-6.187-4.516-3.769,0-6.15,1.707-6.15,4.479,0,2.738,2.275,4.48,6.15,4.48Z"/><polygon class="cls-4" points="525 747 523 747 523 746 524 746 524 745 525 745 525 747"/><path class="cls-4" d="M520,747h-3v-1h3v1ZM514,747h-3v-1h3v1ZM508,747h-3v-1h3v1ZM502,747h-3v-1h3v1ZM496,747h-3v-1h3v1ZM490,747h-3v-1h3v1ZM484,747h-3v-1h3v1ZM478,747h-3v-1h3v1ZM472,747h-3v-1h3v1ZM466,747h-3v-1h3v1ZM460,747h-3v-1h3v1ZM454,747h-3v-1h3v1ZM448,747h-3v-1h3v1ZM442,747h-3v-1h3v1ZM436,747h-3v-1h3v1ZM430,747h-3v-1h3v1ZM424,747h-3v-1h3v1ZM418,747h-3v-1h3v1ZM412,747h-3v-1h3v1ZM406,747h-3v-1h3v1ZM399,747h-3v-1h3v1ZM393,747h-3v-1h3v1ZM387,747h-3v-1h3v1ZM381,747h-3v-1h3v1ZM375,747h-3v-1h3v1ZM369,747h-3v-1h3v1ZM363,747h-3v-1h3v1ZM357,747h-3v-1h3v1ZM351,747h-3v-1h3v1ZM345,747h-3v-1h3v1ZM339,747h-3v-1h3v1ZM333,747h-3v-1h3v1ZM327,747h-3v-1h3v1ZM321,747h-3v-1h3v1Z"/><polygon class="cls-4" points="315 747 313 747 313 745 314 745 314 746 315 746 315 747"/><path class="cls-4" d="M314,742h-1v-3h1v3ZM314,736h-1v-3h1v3ZM314,730h-1v-3h1v3ZM314,724h-1v-3h1v3ZM314,718h-1v-3h1v3ZM314,712h-1v-3h1v3ZM314,706h-1v-3h1v3ZM314,700h-1v-3h1v3ZM314,694h-1v-3h1v3ZM314,688h-1v-3h1v3Z"/><polygon class="cls-4" points="314 682 313 682 313 680 315 680 315 681 314 681 314 682"/><path class="cls-4" d="M520,681h-3v-1h3v1ZM514,681h-3v-1h3v1ZM508,681h-3v-1h3v1ZM502,681h-3v-1h3v1ZM496,681h-3v-1h3v1ZM490,681h-3v-1h3v1ZM484,681h-3v-1h3v1ZM478,681h-3v-1h3v1ZM472,681h-3v-1h3v1ZM466,681h-3v-1h3v1ZM460,681h-3v-1h3v1ZM454,681h-3v-1h3v1ZM448,681h-3v-1h3v1ZM442,681h-3v-1h3v1ZM436,681h-3v-1h3v1ZM430,681h-3v-1h3v1ZM424,681h-3v-1h3v1ZM418,681h-3v-1h3v1ZM412,681h-3v-1h3v1ZM406,681h-3v-1h3v1ZM399,681h-3v-1h3v1ZM393,681h-3v-1h3v1ZM387,681h-3v-1h3v1ZM381,681h-3v-1h3v1ZM375,681h-3v-1h3v1ZM369,681h-3v-1h3v1ZM363,681h-3v-1h3v1ZM357,681h-3v-1h3v1ZM351,681h-3v-1h3v1ZM345,681h-3v-1h3v1ZM339,681h-3v-1h3v1ZM333,681h-3v-1h3v1ZM327,681h-3v-1h3v1ZM321,681h-3v-1h3v1Z"/><polygon class="cls-4" points="525 682 524 682 524 681 523 681 523 680 525 680 525 682"/><path class="cls-4" d="M525,742h-1v-3h1v3ZM525,736h-1v-3h1v3ZM525,730h-1v-3h1v3ZM525,724h-1v-3h1v3ZM525,718h-1v-3h1v3ZM525,712h-1v-3h1v3ZM525,706h-1v-3h1v3ZM525,700h-1v-3h1v3ZM525,694h-1v-3h1v3ZM525,688h-1v-3h1v3Z"/><path class="cls-4" d="M634,714h-3v-1h3v1ZM628,714h-3v-1h3v1ZM622,714h-3v-1h3v1ZM616,714h-3v-1h3v1ZM610,714h-3v-1h3v1ZM604,714h-3v-1h3v1ZM598,714h-3v-1h3v1ZM592,714h-3v-1h3v1ZM586,714h-3v-1h3v1ZM580,714h-3v-1h3v1ZM574,714h-3v-1h3v1ZM568,714h-3v-1h3v1ZM562,714h-3v-1h3v1ZM556,714h-3v-1h3v1ZM550,714h-3v-1h3v1ZM544,714h-3v-1h3v1ZM538,714h-3v-1h3v1Z"/><path class="cls-4" d="M635.316,724.538c-.128,0-.256-.049-.354-.146-.195-.195-.195-.512,0-.707l10.462-10.462-10.462-10.462c-.195-.195-.195-.512,0-.707s.512-.195.707,0l10.815,10.815c.195.195.195.512,0,.707l-10.815,10.815c-.098.098-.226.146-.354.146Z"/><path class="cls-4" d="M208.873,251.909v30.575h-4.551v-2.24h-15.785v2.312h-4.373v-30.646h24.709ZM188.537,256.175v7.645h15.785v-7.645h-15.785ZM204.322,275.979v-7.964h-15.785v7.964h15.785Z"/><path class="cls-4" d="M246.562,260.086c-.747,5.262-1.955,9.67-3.875,13.262,1.636,2.523,3.697,4.551,6.293,5.901-.96.854-2.275,2.488-2.915,3.662-2.418-1.458-4.373-3.342-5.973-5.653-1.956,2.347-4.409,4.267-7.502,5.831-.25-.604-.783-1.564-1.352-2.418l-1.6,1.636c-.96-.817-2.24-1.742-3.697-2.667-2.098,1.564-4.942,2.596-8.746,3.378-.249-1.209-.996-2.631-1.672-3.52,2.845-.355,5.084-.96,6.756-1.885-.641-.355-1.316-.675-1.991-.96l-.392.676-3.697-1.138c.782-1.244,1.672-2.844,2.561-4.551h-3.378v-3.413h5.155c.426-.889.854-1.742,1.209-2.524l.781.178v-3.413c-1.635,1.636-3.555,3.129-5.332,4.124-.463-.924-1.352-2.311-2.133-3.058,2.168-.889,4.551-2.595,6.256-4.443h-5.545v-3.343h2.701c-.32-1.208-1.102-2.844-1.849-4.124l3.058-1.279c.924,1.351,1.849,3.164,2.133,4.408l-2.275.995h2.986v-5.973h3.876v5.973h2.809l-2.347-1.03c.818-1.28,1.813-3.165,2.383-4.516l3.555,1.422c-1.102,1.529-2.204,3.022-3.058,4.124h3.378v3.343h-5.831c1.706.96,4.231,2.453,5.013,2.986l-2.24,2.915c-.781-.746-2.275-1.991-3.661-3.093v4.302h-2.275l1.528.32-.854,1.706h8.463c-.818-.817-2.098-1.92-2.881-2.453,3.022-3.626,4.729-9.671,5.582-15.999l4.267.569c-.284,1.99-.676,3.946-1.138,5.83h9.457v3.911h-1.991ZM222.03,273.525c1.066.426,2.098.853,3.128,1.351.569-.889,1.031-1.955,1.352-3.235h-3.449l-1.03,1.885ZM230.492,271.641c-.392,1.991-.996,3.662-1.885,5.049,1.102.64,2.133,1.279,2.951,1.884,2.631-1.387,4.693-3.164,6.258-5.368-.996-2.098-1.778-4.444-2.418-7.004-.498.924-1.066,1.777-1.636,2.56-.142-.143-.284-.32-.497-.533v3.413h-2.773ZM238.1,260.086c.498,2.986,1.209,5.795,2.17,8.354.889-2.417,1.527-5.226,1.919-8.354h-4.089Z"/><path class="cls-4" d="M370.705,268.402c-1.066.32-2.169.676-3.236.995v9.173c0,1.956-.319,2.986-1.422,3.627-1.031.675-2.559.817-4.834.782-.107-1.031-.57-2.702-1.067-3.84,1.28.071,2.524.071,2.951.071s.604-.143.604-.641v-8.035c-1.174.32-2.311.641-3.342.925l-.925-4.053c1.208-.249,2.667-.641,4.267-1.031v-6.009h-3.627v-3.875h3.627v-6.684h3.768v6.684h2.738v3.875h-2.738v4.978l2.703-.746.533,3.804ZM382.758,276.011l.105,3.342c-4.764.676-9.848,1.315-13.616,1.813l-.569-3.627c1.637-.178,3.662-.391,5.831-.604v-4.089h-4.124v-3.378h4.124v-4.195h3.733v4.195h4.053v3.378h-4.053v3.662l4.516-.498ZM374.545,257.31h-3.77v-3.306h3.77v-4.195h3.768v4.195h3.734v3.306h-3.734v3.662h4.231v3.342h-12.515v-3.342h4.516v-3.662ZM391.254,270.251c-.924-1.244-2.523-3.058-3.981-4.622v17.351h-3.911v-33.171h3.911v11.27c1.564,1.209,5.368,4.658,6.329,5.547l-2.348,3.626Z"/><path class="cls-4" d="M404.27,252.332c-.285.854-.676,2.098-.818,2.845-.853,3.911-2.098,11.271-1.173,15.644.462-1.067,1.067-2.773,1.636-4.054l2.24,1.387c-1.031,3.058-1.956,6.613-2.383,8.604-.143.533-.248,1.315-.248,1.706.035.355.07.96.105,1.458l-3.945.391c-.747-2.133-2.027-7.039-2.027-11.412,0-5.76.711-11.199,1.174-14.044.178-.995.213-2.169.213-3.058l5.227.533ZM426.846,262.571c-1.422.178-3.235.32-5.227.427v1.458c0,8.319-.64,13.403-7.644,17.883l-4.089-3.199c1.352-.604,3.129-1.707,4.125-2.809,2.701-2.809,3.27-5.938,3.27-11.875v-1.28c-1.314.036-2.666.071-3.945.071-1.529,0-3.697-.106-5.439-.178v-4.479c1.742.249,3.448.355,5.332.355,1.28,0,2.631-.035,3.982-.071-.035-1.955-.107-3.769-.178-4.729-.071-.746-.213-1.813-.391-2.417h5.154c-.143.781-.143,1.6-.178,2.382s-.035,2.595-.035,4.515c1.99-.142,3.84-.355,5.297-.64l-.035,4.586Z"/><path class="cls-4" d="M442.67,267.193c.675-.64,1.351-1.315,2.025-1.991-1.279-1.102-2.986-2.346-4.479-3.306l-2.596,2.168c-1.103-1.138-3.449-2.844-5.333-3.91l2.809-2.312c1.636.89,3.804,2.275,5.12,3.378l1.635-1.991.854.533c.604-.889,1.174-1.849,1.671-2.737h-11.626v-3.769h12.515v-3.448h4.337v3.448h12.836v3.769h-14.72l.782.284c-1.102,1.423-2.275,2.88-3.307,4.089.641.462,1.244.889,1.777,1.315,1.245-1.458,2.348-2.88,3.236-4.159l3.307,1.528c-1.956,2.311-4.338,4.8-6.613,6.933l3.662-.178c-.392-.676-.854-1.315-1.28-1.92l2.986-1.244c.569.747,1.209,1.6,1.778,2.453l2.168-1.742c2.453,1.209,5.76,3.164,7.431,4.551l-3.058,2.524c-1.209-1.066-3.484-2.631-5.652-3.875.533.924.959,1.812,1.209,2.56l-3.2,1.422c-.178-.533-.427-1.138-.747-1.777-4.302.391-8.639.711-12.053.96l-.426-2.453c-2.24,1.102-4.586,2.204-6.506,3.058l-1.992-3.413c2.24-.711,5.654-2.026,8.924-3.307l.641,2.631,1.885-.071ZM449.602,272.74h13.938v3.91h-13.938v6.329h-4.337v-6.329h-13.652v-3.91h13.652v-2.275h4.337v2.275ZM454.117,262.003c1.6-1.209,3.592-3.058,4.8-4.516l3.769,1.813c-1.812,1.671-3.875,3.271-5.475,4.373l-3.094-1.671Z"/><path class="cls-4" d="M721.817,251.056c-.889,2.347-1.991,4.729-3.2,7.004v24.887h-3.981v-18.559c-.711.96-1.422,1.849-2.169,2.631-.391-.995-1.492-3.235-2.168-4.267,3.057-3.093,5.973-7.999,7.715-12.905l3.804,1.209ZM737.426,257.028v4.444h6.008v20.514h-4.053v-1.812h-14.079v2.026h-3.911v-20.728h5.725v-4.444h-6.08v-3.769h22.576v3.769h-6.186ZM725.302,276.547h2.204v-11.412h-2.204v11.412ZM731.062,265.135v11.412h2.382v-11.412h-2.382ZM733.443,257.028h-2.346v4.444h2.346v-4.444ZM739.381,265.135h-2.383v11.412h2.383v-11.412Z"/><path class="cls-4" d="M777.604,254.61c-1.209,3.698-3.059,6.826-5.404,9.457,2.239,1.707,4.941,3.094,8.035,3.947-.854.817-2.027,2.488-2.561,3.52l-.64-.249v11.59h-4.089v-1.138h-7.43v1.245h-3.947v-11.377c-.604.284-1.209.533-1.812.746-.392-.817-1.139-1.955-1.814-2.809l-.319.462c-.427-.889-1.173-2.204-1.956-3.448v16.39h-3.981v-13.475c-.995,2.845-2.204,5.476-3.556,7.289-.391-1.174-1.314-2.81-1.955-3.84,2.169-2.809,4.195-7.716,5.191-11.946h-4.338v-3.911h4.657v-7.288h3.981v7.288h3.982v1.92c2.524-2.453,4.729-5.83,6.009-9.243l4.018,1.102c-.356.89-.747,1.778-1.173,2.667h5.724l.747-.143,2.631,1.244ZM758.689,268.512c2.844-1.066,5.545-2.56,7.856-4.479-.995-1.138-1.884-2.311-2.667-3.484-.853,1.031-1.742,1.956-2.631,2.738-.533-.569-1.635-1.564-2.559-2.312h-3.023v.854c.961,1.031,3.627,4.195,4.231,5.013l-1.208,1.671ZM773.656,269.721c-1.564-.854-2.986-1.849-4.266-2.915-1.28,1.102-2.631,2.062-4.089,2.915h8.354ZM772.945,278.111v-4.835h-7.43v4.835h7.43ZM766.439,257.1l-.249.355c.817,1.351,1.813,2.702,3.058,3.981,1.174-1.315,2.204-2.772,3.021-4.337h-5.83Z"/><rect class="cls-4" x="159" y="301" width="689" height="1"/><rect class="cls-3" y="834" width="901" height="612" rx="15" ry="15"/><rect class="cls-2" x="45" y="879" width="78" height="522"/><path class="cls-6" d="M75.607,996.294v8.813c0,2.345-.341,3.707-1.627,4.539-1.248.832-2.988,1.021-5.409,1.021-.151-1.362-.719-3.556-1.362-4.993,1.211.075,2.459.075,2.913.075s.605-.151.605-.643v-7.452l-3.026.795-1.135-5.259c1.211-.227,2.609-.529,4.161-.907v-5.637h-3.442v-5.03h3.442v-6.923h4.88v6.923h2.609v4.729h4.123v-3.178h-3.631v-4.274h3.631v-4.199h4.88v4.199h3.593v4.274h-3.593v3.178h3.935v4.274h-13.127l.682,4.804-3.102.87ZM75.607,991.111l2.42-.605v-3.858h-2.42v4.464ZM91.305,1002.8l.113,4.35c-4.992.605-10.289,1.135-14.298,1.552l-.681-4.653c1.664-.113,3.669-.265,5.825-.454v-3.669h-3.935v-4.312h3.935v-4.085h4.88v4.085h3.82v4.312h-3.82v3.253l4.16-.378ZM100.422,997.353c-.871-1.286-2.195-2.988-3.519-4.577v17.854h-5.069v-35.936h5.069v11.991c1.665,1.324,5.636,4.993,6.582,5.938l-3.063,4.729Z"/><path class="cls-6" d="M77.385,1019.776c-.379,1.021-.832,2.496-.983,3.329-.757,3.366-2.081,10.439-1.362,14.146.492-.87,1.098-2.383,1.627-3.479l2.724,1.739c-1.173,3.519-2.081,7.188-2.572,9.419-.151.605-.265,1.476-.265,1.854,0,.416.037,1.135.076,1.702l-4.956.492c-.832-2.231-2.231-7.527-2.231-12.029,0-6.052.643-11.272,1.135-14.261.189-1.097.227-2.458.265-3.556l6.544.644ZM100.422,1031.275c-1.4.113-3.216.228-5.221.303v1.248c0,8.776-1.021,13.693-8.057,18.422l-5.107-4.048c1.551-.719,3.594-2.005,4.691-3.291,2.156-2.647,2.988-5.409,2.988-11.12v-.984c-1.287.038-2.572.038-3.82.038-1.514,0-3.557-.113-5.523-.188v-5.637c1.93.265,3.442.378,5.409.378,1.21,0,2.534-.037,3.896-.075-.037-1.778-.074-3.48-.15-4.501-.076-.757-.266-2.005-.454-2.724h6.393c-.151.945-.188,1.891-.228,2.724-.037.794-.037,2.421-.037,4.198,2.005-.151,3.858-.303,5.258-.529l-.037,5.787Z"/><path class="cls-6" d="M87.636,1082.485h14.525v5.068h-14.525v6.241h-5.674v-6.241h-14.223v-5.068h14.223v-2.081l-5.031.379-.416-2.459c-2.308,1.135-4.728,2.231-6.771,3.14l-2.572-4.426c2.421-.719,6.09-2.043,9.607-3.329l.644,2.648,2.345-.076c.529-.491,1.06-1.021,1.627-1.589-1.4-1.097-3.178-2.383-4.652-3.366l-2.951,2.459c-1.135-1.211-3.631-3.026-5.561-4.199l3.632-2.912c1.702.907,3.934,2.345,5.333,3.479l1.74-2.156.795.492c.491-.757.907-1.513,1.324-2.27h-11.992v-4.955h12.899v-3.329h5.674v3.329h13.277v4.955h-15.206l.643.227c-1.135,1.438-2.307,2.913-3.367,4.161.492.303.908.644,1.324.945,1.211-1.399,2.346-2.837,3.216-4.085l4.236,1.892c-1.399,1.589-2.95,3.215-4.539,4.804l3.366-1.399c.568.832,1.211,1.74,1.74,2.686l2.459-1.929c2.421,1.248,5.825,3.253,7.564,4.69l-3.971,3.253c-1.021-.983-2.838-2.27-4.691-3.442.266.605.492,1.173.644,1.702l-4.123,1.815c-.151-.529-.341-1.135-.604-1.777-2.309.188-4.615.378-6.81.567h4.842v2.156ZM87.711,1075.941c-.264-.492-.566-.983-.869-1.4-.529.492-1.06,1.021-1.589,1.514l2.458-.113ZM91.986,1071.213c1.551-1.286,3.518-3.291,4.652-4.842l4.955,2.308c-1.93,1.777-4.01,3.479-5.598,4.614l-4.01-2.08Z"/><path class="cls-6" d="M76.439,1105.515l6.543,1.399c-.34,1.173-.869,3.404-.982,4.236-.529,2.799-1.892,7.641-3.064,10.932-1.286,3.707-3.594,8.133-5.447,10.818l-6.316-2.686c2.27-2.988,4.501-7.035,5.787-10.402,1.702-4.312,3.026-9.305,3.48-14.298ZM85.896,1106.952l6.014-1.93c1.589,2.95,4.236,9.003,5.523,12.369,1.248,3.178,3.215,9.229,4.236,13.088l-6.695,2.194c-1.098-4.767-2.232-9.229-3.67-13.277-1.399-3.934-3.82-9.607-5.408-12.444ZM98.454,1099.84c2.497,0,4.577,2.043,4.577,4.577s-2.08,4.615-4.577,4.615c-2.534,0-4.614-2.08-4.614-4.615s2.08-4.577,4.614-4.577ZM98.454,1106.385c1.06,0,1.968-.908,1.968-1.968s-.908-1.967-1.968-1.967c-1.097,0-1.967.908-1.967,1.967s.87,1.968,1.967,1.968Z"/><path class="cls-6" d="M100.27,1149.727c-.491.832-1.059,1.929-1.475,3.025-.908,2.648-2.572,6.166-4.918,9.646,1.361.832,2.572,1.664,3.518,2.345l-4.085,5.296c-.907-.795-2.08-1.702-3.404-2.647-3.291,3.479-7.452,6.619-13.201,8.851l-5.22-4.539c6.543-2.005,10.478-4.88,13.352-7.792-2.23-1.438-4.463-2.837-6.24-3.858l3.82-4.274c1.854.945,4.085,2.194,6.316,3.48,1.551-2.308,2.875-4.918,3.329-6.771h-9.532c-2.724,3.518-6.242,7.036-9.722,9.457l-4.88-3.745c6.582-4.01,9.797-8.852,11.765-11.953.644-1.06,1.551-2.95,1.967-4.426l6.468,2.005c-.794,1.135-1.664,2.572-2.23,3.556h6.165c1.21,0,2.724-.189,3.669-.454l4.539,2.8Z"/><path class="cls-6" d="M80.789,1215.349c.379-2.686.379-5.863.379-7.414,0-2.988.037-13.467.037-17.098,0-1.438,0-3.858-.378-5.787h7.3c-.377,1.929-.377,4.312-.377,5.749,0,3.669-.039,14.109-.039,17.136,0,1.059,0,4.729.379,7.414h-7.301Z"/><path class="cls-6" d="M83.967,1247.682c6.695-3.858,11.688-9.608,14.185-14.828l3.48,6.354c-2.95,5.259-8.247,10.402-14.412,14.034-3.782,2.231-8.624,4.161-13.277,4.88l-3.82-5.901c5.447-.757,10.214-2.421,13.845-4.539ZM84.799,1235.918l-4.577,4.728c-1.967-2.156-6.657-6.241-9.306-8.133l4.236-4.539c2.572,1.74,7.414,5.599,9.646,7.944Z"/><path class="cls-6" d="M74.018,1269.727h10.705c6.582,0,11.424,1.589,11.424,7.111,0,2.496-1.399,5.22-3.972,6.09v.151c3.216.757,5.522,2.875,5.522,6.619,0,5.75-4.842,8.322-12.066,8.322h-11.613v-28.294ZM85.025,1281.036c2.648,0,4.426-1.097,4.426-3.14,0-2.27-1.664-3.025-4.426-3.025h-4.236v6.165h4.236ZM85.707,1292.838c3.328,0,5.258-1.021,5.258-3.593,0-2.308-1.854-3.216-5.258-3.216h-4.918v6.809h4.918Z"/><path class="cls-4" d="M691.013,987.325v24.919h-5.767v-20.292h-4.984v-4.627h10.751Z"/><path class="cls-4" d="M697.846,999.784c0-8.224,4.557-12.887,10.68-12.887,6.158,0,10.68,4.663,10.68,12.887s-4.521,12.887-10.68,12.887c-6.123,0-10.68-4.663-10.68-12.887ZM713.402,999.784c0-5.66-1.993-8.01-4.877-8.01-2.848,0-4.842,2.35-4.842,8.01s1.994,8.01,4.842,8.01c2.884,0,4.877-2.35,4.877-8.01Z"/><path class="cls-4" d="M729.383,1009.04c0,.926-.143,1.602-.961,3.56l-2.029,5.127h-3.523l1.566-5.661c-1.176-.462-1.923-1.565-1.923-3.025,0-2.064,1.495-3.418,3.453-3.418,1.993,0,3.417,1.389,3.417,3.418Z"/><path class="cls-4" d="M732.941,999.784c0-8.224,4.557-12.887,10.68-12.887,6.158,0,10.68,4.663,10.68,12.887s-4.521,12.887-10.68,12.887c-6.123,0-10.68-4.663-10.68-12.887ZM748.498,999.784c0-5.66-1.993-8.01-4.877-8.01-2.848,0-4.842,2.35-4.842,8.01s1.994,8.01,4.842,8.01c2.884,0,4.877-2.35,4.877-8.01Z"/><path class="cls-4" d="M758.213,999.784c0-8.224,4.557-12.887,10.68-12.887,6.159,0,10.68,4.663,10.68,12.887s-4.521,12.887-10.68,12.887c-6.123,0-10.68-4.663-10.68-12.887ZM773.77,999.784c0-5.66-1.992-8.01-4.877-8.01-2.848,0-4.841,2.35-4.841,8.01s1.993,8.01,4.841,8.01c2.885,0,4.877-2.35,4.877-8.01Z"/><path class="cls-4" d="M783.485,999.784c0-8.224,4.557-12.887,10.68-12.887,6.159,0,10.68,4.663,10.68,12.887s-4.521,12.887-10.68,12.887c-6.123,0-10.68-4.663-10.68-12.887ZM799.042,999.784c0-5.66-1.993-8.01-4.877-8.01-2.848,0-4.841,2.35-4.841,8.01s1.993,8.01,4.841,8.01c2.884,0,4.877-2.35,4.877-8.01Z"/><path class="cls-4" d="M832.272,993.245v17.041c0,1.936-.845,2.047-4.983,2.047-.089-.422-.355-1.09-.578-1.513.801.022,1.557.045,2.18.045,1.758,0,1.891,0,1.891-.579v-7.252h-15.527v9.344h-1.491v-19.133h18.51ZM815.254,994.714v6.829h6.896v-6.829h-6.896ZM823.641,1001.543h7.141v-6.829h-7.141v6.829Z"/><path class="cls-4" d="M171.254,1008.008h5.66v-16.66h-4.77v-3.239c2.635-.499,4.449-1.175,6.123-2.208h3.881v22.107h4.947v4.236h-15.842v-4.236Z"/><path class="cls-4" d="M228.459,984.228v30.615h-4.557v-2.243h-15.807v2.314h-4.379v-30.687h24.742ZM208.096,988.5v7.653h15.807v-7.653h-15.807ZM223.902,1008.328v-7.975h-15.807v7.975h15.807Z"/><path class="cls-4" d="M240.879,996.296v19.045h-4.201v-31.896h13.635v12.852h-9.434ZM240.879,986.506v1.887h5.482v-1.887h-5.482ZM246.361,993.27v-2.029h-5.482v2.029h5.482ZM266.724,1010.321c0,2.278-.462,3.524-1.887,4.201-1.388.712-3.453.818-6.515.818-.106-.89-.498-2.207-.926-3.311h-8.828v1.815h-3.845v-15.414h13.706v12.638c1.388.035,2.705.035,3.168,0,.641,0,.854-.214.854-.783v-13.919h-9.683v-12.923h13.954v26.877ZM248.568,1001.564v2.136h5.874v-2.136h-5.874ZM254.442,1008.934v-2.207h-5.874v2.207h5.874ZM256.791,986.506v1.887h5.661v-1.887h-5.661ZM262.452,993.341v-2.101h-5.661v2.101h5.661Z"/><path class="cls-4" d="M390.916,1001.783l4.699,4.734-1.424,1.531-4.734-4.771-4.77,4.771-1.425-1.531,4.699-4.734-4.699-4.734,1.425-1.531,4.77,4.771,4.734-4.771,1.424,1.531-4.699,4.734Z"/><path class="cls-4" d="M411.988,989.324v24.919h-2.562v-22.641h-5.874v-2.278h8.437Z"/><path class="cls-4" d="M421.527,1012.463c0-1.104.854-1.922,1.887-1.922s1.922.818,1.922,1.922-.89,1.958-1.922,1.958-1.887-.854-1.887-1.958Z"/><path class="cls-4" d="M432.598,1001.783c0-7.938,4.164-12.673,9.932-12.673s9.968,4.734,9.968,12.673-4.2,12.673-9.968,12.673-9.932-4.734-9.932-12.673ZM449.863,1001.783c0-6.657-2.99-10.323-7.334-10.323s-7.334,3.666-7.334,10.323,2.99,10.324,7.334,10.324,7.334-3.667,7.334-10.324Z"/><polygon class="cls-4" points="526 1035 524 1035 524 1034 525 1034 525 1033 526 1033 526 1035"/><path class="cls-4" d="M521,1035h-3v-1h3v1ZM515,1035h-3v-1h3v1ZM509,1035h-3v-1h3v1ZM502,1035h-3v-1h3v1ZM496,1035h-3v-1h3v1ZM490,1035h-3v-1h3v1ZM484,1035h-3v-1h3v1ZM478,1035h-3v-1h3v1ZM472,1035h-3v-1h3v1ZM466,1035h-3v-1h3v1ZM460,1035h-3v-1h3v1ZM454,1035h-3v-1h3v1ZM448,1035h-3v-1h3v1ZM442,1035h-3v-1h3v1ZM436,1035h-3v-1h3v1ZM430,1035h-3v-1h3v1ZM424,1035h-3v-1h3v1ZM418,1035h-3v-1h3v1ZM412,1035h-3v-1h3v1ZM406,1035h-3v-1h3v1ZM400,1035h-3v-1h3v1ZM394,1035h-3v-1h3v1ZM388,1035h-3v-1h3v1ZM382,1035h-3v-1h3v1ZM376,1035h-3v-1h3v1ZM370,1035h-3v-1h3v1ZM364,1035h-3v-1h3v1ZM358,1035h-3v-1h3v1ZM352,1035h-3v-1h3v1ZM346,1035h-3v-1h3v1ZM340,1035h-3v-1h3v1ZM334,1035h-3v-1h3v1ZM328,1035h-3v-1h3v1ZM322,1035h-3v-1h3v1Z"/><polygon class="cls-4" points="316 1035 314 1035 314 1033 315 1033 315 1034 316 1034 316 1035"/><path class="cls-4" d="M315,1030h-1v-3h1v3ZM315,1024h-1v-3h1v3ZM315,1018h-1v-3h1v3ZM315,1012h-1v-3h1v3ZM315,1006h-1v-3h1v3ZM315,1000h-1v-3h1v3ZM315,994h-1v-3h1v3ZM315,988h-1v-3h1v3ZM315,982h-1v-3h1v3ZM315,976h-1v-3h1v3Z"/><polygon class="cls-4" points="315 970 314 970 314 968 316 968 316 969 315 969 315 970"/><path class="cls-4" d="M521,969h-3v-1h3v1ZM515,969h-3v-1h3v1ZM509,969h-3v-1h3v1ZM502,969h-3v-1h3v1ZM496,969h-3v-1h3v1ZM490,969h-3v-1h3v1ZM484,969h-3v-1h3v1ZM478,969h-3v-1h3v1ZM472,969h-3v-1h3v1ZM466,969h-3v-1h3v1ZM460,969h-3v-1h3v1ZM454,969h-3v-1h3v1ZM448,969h-3v-1h3v1ZM442,969h-3v-1h3v1ZM436,969h-3v-1h3v1ZM430,969h-3v-1h3v1ZM424,969h-3v-1h3v1ZM418,969h-3v-1h3v1ZM412,969h-3v-1h3v1ZM406,969h-3v-1h3v1ZM400,969h-3v-1h3v1ZM394,969h-3v-1h3v1ZM388,969h-3v-1h3v1ZM382,969h-3v-1h3v1ZM376,969h-3v-1h3v1ZM370,969h-3v-1h3v1ZM364,969h-3v-1h3v1ZM358,969h-3v-1h3v1ZM352,969h-3v-1h3v1ZM346,969h-3v-1h3v1ZM340,969h-3v-1h3v1ZM334,969h-3v-1h3v1ZM328,969h-3v-1h3v1ZM322,969h-3v-1h3v1Z"/><polygon class="cls-4" points="526 970 525 970 525 969 524 969 524 968 526 968 526 970"/><path class="cls-4" d="M526,1030h-1v-3h1v3ZM526,1024h-1v-3h1v3ZM526,1018h-1v-3h1v3ZM526,1012h-1v-3h1v3ZM526,1006h-1v-3h1v3ZM526,1000h-1v-3h1v3ZM526,994h-1v-3h1v3ZM526,988h-1v-3h1v3ZM526,982h-1v-3h1v3ZM526,976h-1v-3h1v3Z"/><path class="cls-4" d="M635,1002h-3v-1h3v1ZM629,1002h-3v-1h3v1ZM623,1002h-3v-1h3v1ZM617,1002h-3v-1h3v1ZM611,1002h-3v-1h3v1ZM605,1002h-3v-1h3v1ZM599,1002h-3v-1h3v1ZM593,1002h-3v-1h3v1ZM587,1002h-3v-1h3v1ZM581,1002h-3v-1h3v1ZM575,1002h-3v-1h3v1ZM569,1002h-3v-1h3v1ZM563,1002h-3v-1h3v1ZM557,1002h-3v-1h3v1ZM551,1002h-3v-1h3v1ZM545,1002h-3v-1h3v1ZM539,1002h-3v-1h3v1Z"/><path class="cls-4" d="M635.521,1012.448c-.128,0-.256-.049-.354-.146-.195-.195-.195-.512,0-.707l10.474-10.474-10.474-10.474c-.195-.195-.195-.512,0-.707s.512-.195.707,0l10.827,10.827c.195.195.195.512,0,.707l-10.827,10.828c-.098.098-.226.146-.354.146Z"/><path class="cls-4" d="M691.013,1076.312v24.919h-5.767v-20.292h-4.984v-4.627h10.751Z"/><path class="cls-4" d="M718.422,1093.364c0,5.09-4.165,8.294-9.434,8.294-6.871,0-11.143-4.308-11.143-12.353,0-8.615,5.197-13.421,12.709-13.421,2.635,0,5.197.605,6.941,1.709l-2.136,4.236c-1.388-.926-2.99-1.246-4.663-1.246-4.166,0-6.836,2.456-7.014,7.227,1.46-1.46,3.561-2.207,6.159-2.207,4.806,0,8.579,3.062,8.579,7.761ZM712.833,1093.648c0-2.278-1.673-3.737-4.236-3.737-2.527,0-4.308,1.566-4.308,3.737,0,2.136,1.602,3.702,4.379,3.702,2.456,0,4.165-1.424,4.165-3.702Z"/><path class="cls-4" d="M729.027,1098.027c0,.926-.143,1.602-.961,3.56l-2.029,5.127h-3.523l1.566-5.661c-1.176-.462-1.923-1.565-1.923-3.025,0-2.064,1.495-3.418,3.453-3.418,1.993,0,3.417,1.389,3.417,3.418Z"/><path class="cls-4" d="M732.586,1088.771c0-8.224,4.557-12.887,10.68-12.887,6.158,0,10.68,4.663,10.68,12.887s-4.521,12.887-10.68,12.887c-6.123,0-10.68-4.663-10.68-12.887ZM748.143,1088.771c0-5.66-1.993-8.01-4.877-8.01-2.848,0-4.842,2.35-4.842,8.01s1.994,8.01,4.842,8.01c2.884,0,4.877-2.35,4.877-8.01Z"/><path class="cls-4" d="M757.857,1088.771c0-8.224,4.557-12.887,10.68-12.887,6.159,0,10.68,4.663,10.68,12.887s-4.521,12.887-10.68,12.887c-6.123,0-10.68-4.663-10.68-12.887ZM773.414,1088.771c0-5.66-1.992-8.01-4.877-8.01-2.848,0-4.841,2.35-4.841,8.01s1.993,8.01,4.841,8.01c2.885,0,4.877-2.35,4.877-8.01Z"/><path class="cls-4" d="M783.13,1088.771c0-8.224,4.557-12.887,10.68-12.887,6.159,0,10.68,4.663,10.68,12.887s-4.521,12.887-10.68,12.887c-6.123,0-10.68-4.663-10.68-12.887ZM798.687,1088.771c0-5.66-1.993-8.01-4.877-8.01-2.848,0-4.841,2.35-4.841,8.01s1.993,8.01,4.841,8.01c2.884,0,4.877-2.35,4.877-8.01Z"/><path class="cls-4" d="M831.917,1082.232v17.041c0,1.936-.845,2.047-4.983,2.047-.089-.422-.355-1.09-.578-1.513.801.022,1.557.045,2.18.045,1.758,0,1.891,0,1.891-.579v-7.252h-15.527v9.344h-1.491v-19.133h18.51ZM814.898,1083.701v6.829h6.896v-6.829h-6.896ZM823.285,1090.53h7.141v-6.829h-7.141v6.829Z"/><path class="cls-4" d="M169.865,1098.206c7.155-6.407,11.392-11.355,11.392-15.414,0-2.67-1.46-4.271-3.952-4.271-1.922,0-3.523,1.246-4.841,2.705l-2.848-2.848c2.421-2.563,4.771-3.987,8.366-3.987,4.982,0,8.294,3.204,8.294,8.116,0,4.771-3.952,9.896-8.757,14.596,1.316-.143,3.061-.284,4.271-.284h5.73v4.414h-17.656v-3.026Z"/><path class="cls-4" d="M228.457,1073.216v30.615h-4.557v-2.243h-15.805v2.314h-4.379v-30.687h24.74ZM208.096,1077.488v7.653h15.805v-7.653h-15.805ZM223.9,1097.316v-7.975h-15.805v7.975h15.805Z"/><path class="cls-4" d="M240.878,1085.284v19.045h-4.2v-31.896h13.635v12.852h-9.435ZM240.878,1075.494v1.887h5.482v-1.887h-5.482ZM246.36,1082.258v-2.029h-5.482v2.029h5.482ZM266.723,1099.31c0,2.278-.463,3.524-1.887,4.201-1.389.712-3.453.818-6.515.818-.106-.89-.498-2.207-.925-3.311h-8.829v1.815h-3.845v-15.414h13.705v12.638c1.389.035,2.706.035,3.169,0,.641,0,.854-.214.854-.783v-13.919h-9.684v-12.923h13.955v26.877ZM248.567,1090.553v2.136h5.874v-2.136h-5.874ZM254.441,1097.922v-2.207h-5.874v2.207h5.874ZM256.791,1075.494v1.887h5.66v-1.887h-5.66ZM262.451,1082.329v-2.101h-5.66v2.101h5.66Z"/><path class="cls-4" d="M391.859,1090.771l4.699,4.734-1.424,1.53-4.735-4.77-4.771,4.77-1.424-1.53,4.699-4.734-4.699-4.735,1.424-1.53,4.771,4.771,4.735-4.771,1.424,1.53-4.699,4.735Z"/><path class="cls-4" d="M412.932,1078.312v24.919h-2.563v-22.641h-5.874v-2.278h8.438Z"/><path class="cls-4" d="M422.47,1101.451c0-1.104.854-1.923,1.887-1.923s1.923.819,1.923,1.923-.891,1.958-1.923,1.958-1.887-.854-1.887-1.958Z"/><path class="cls-4" d="M452.265,1095.791c0,4.663-3.667,7.653-8.509,7.653-6.621,0-10.217-4.592-10.217-12.46,0-8.472,4.629-12.887,11.393-12.887,2.242,0,4.343.392,5.909,1.354l-1.032,2.064c-1.281-.854-2.99-1.175-4.842-1.175-5.375,0-8.828,3.453-8.828,10.217,0,.569.035,1.281.106,2.029,1.246-2.741,4.165-4.272,7.618-4.272,4.948,0,8.401,2.92,8.401,7.477ZM449.736,1095.861c0-3.274-2.42-5.375-6.265-5.375-3.81,0-6.407,2.35-6.407,5.446,0,2.741,2.277,5.34,6.586,5.34,3.595,0,6.086-2.1,6.086-5.411Z"/><polygon class="cls-4" points="526 1125 524 1125 524 1124 525 1124 525 1123 526 1123 526 1125"/><path class="cls-4" d="M521,1125h-3v-1h3v1ZM515,1125h-3v-1h3v1ZM509,1125h-3v-1h3v1ZM502,1125h-3v-1h3v1ZM496,1125h-3v-1h3v1ZM490,1125h-3v-1h3v1ZM484,1125h-3v-1h3v1ZM478,1125h-3v-1h3v1ZM472,1125h-3v-1h3v1ZM466,1125h-3v-1h3v1ZM460,1125h-3v-1h3v1ZM454,1125h-3v-1h3v1ZM448,1125h-3v-1h3v1ZM442,1125h-3v-1h3v1ZM436,1125h-3v-1h3v1ZM430,1125h-3v-1h3v1ZM424,1125h-3v-1h3v1ZM418,1125h-3v-1h3v1ZM412,1125h-3v-1h3v1ZM406,1125h-3v-1h3v1ZM400,1125h-3v-1h3v1ZM394,1125h-3v-1h3v1ZM388,1125h-3v-1h3v1ZM382,1125h-3v-1h3v1ZM376,1125h-3v-1h3v1ZM370,1125h-3v-1h3v1ZM364,1125h-3v-1h3v1ZM358,1125h-3v-1h3v1ZM352,1125h-3v-1h3v1ZM346,1125h-3v-1h3v1ZM340,1125h-3v-1h3v1ZM334,1125h-3v-1h3v1ZM328,1125h-3v-1h3v1ZM322,1125h-3v-1h3v1Z"/><polygon class="cls-4" points="316 1125 314 1125 314 1123 315 1123 315 1124 316 1124 316 1125"/><path class="cls-4" d="M315,1120h-1v-3h1v3ZM315,1114h-1v-3h1v3ZM315,1108h-1v-3h1v3ZM315,1102h-1v-3h1v3ZM315,1096h-1v-3h1v3ZM315,1090h-1v-3h1v3ZM315,1084h-1v-3h1v3ZM315,1078h-1v-3h1v3ZM315,1072h-1v-3h1v3ZM315,1066h-1v-3h1v3Z"/><polygon class="cls-4" points="315 1060 314 1060 314 1058 316 1058 316 1059 315 1059 315 1060"/><path class="cls-4" d="M521,1059h-3v-1h3v1ZM515,1059h-3v-1h3v1ZM509,1059h-3v-1h3v1ZM502,1059h-3v-1h3v1ZM496,1059h-3v-1h3v1ZM490,1059h-3v-1h3v1ZM484,1059h-3v-1h3v1ZM478,1059h-3v-1h3v1ZM472,1059h-3v-1h3v1ZM466,1059h-3v-1h3v1ZM460,1059h-3v-1h3v1ZM454,1059h-3v-1h3v1ZM448,1059h-3v-1h3v1ZM442,1059h-3v-1h3v1ZM436,1059h-3v-1h3v1ZM430,1059h-3v-1h3v1ZM424,1059h-3v-1h3v1ZM418,1059h-3v-1h3v1ZM412,1059h-3v-1h3v1ZM406,1059h-3v-1h3v1ZM400,1059h-3v-1h3v1ZM394,1059h-3v-1h3v1ZM388,1059h-3v-1h3v1ZM382,1059h-3v-1h3v1ZM376,1059h-3v-1h3v1ZM370,1059h-3v-1h3v1ZM364,1059h-3v-1h3v1ZM358,1059h-3v-1h3v1ZM352,1059h-3v-1h3v1ZM346,1059h-3v-1h3v1ZM340,1059h-3v-1h3v1ZM334,1059h-3v-1h3v1ZM328,1059h-3v-1h3v1ZM322,1059h-3v-1h3v1Z"/><polygon class="cls-4" points="526 1060 525 1060 525 1059 524 1059 524 1058 526 1058 526 1060"/><path class="cls-4" d="M526,1120h-1v-3h1v3ZM526,1114h-1v-3h1v3ZM526,1108h-1v-3h1v3ZM526,1102h-1v-3h1v3ZM526,1096h-1v-3h1v3ZM526,1090h-1v-3h1v3ZM526,1084h-1v-3h1v3ZM526,1078h-1v-3h1v3ZM526,1072h-1v-3h1v3ZM526,1066h-1v-3h1v3Z"/><path class="cls-4" d="M635,1091h-3v-1h3v1ZM629,1091h-3v-1h3v1ZM623,1091h-3v-1h3v1ZM617,1091h-3v-1h3v1ZM611,1091h-3v-1h3v1ZM605,1091h-3v-1h3v1ZM599,1091h-3v-1h3v1ZM593,1091h-3v-1h3v1ZM587,1091h-3v-1h3v1ZM581,1091h-3v-1h3v1ZM575,1091h-3v-1h3v1ZM569,1091h-3v-1h3v1ZM563,1091h-3v-1h3v1ZM557,1091h-3v-1h3v1ZM551,1091h-3v-1h3v1ZM545,1091h-3v-1h3v1ZM539,1091h-3v-1h3v1Z"/><path class="cls-4" d="M635.52,1101.435c-.128,0-.256-.049-.354-.146-.195-.195-.195-.512,0-.707l10.474-10.474-10.474-10.474c-.195-.195-.195-.512,0-.707s.512-.195.707,0l10.828,10.827c.094.094.146.221.146.354s-.053.26-.146.354l-10.828,10.827c-.098.098-.226.146-.354.146Z"/><path class="cls-4" d="M700.021,1185.521v4.699h-18.832v-3.738l9.611-9.077c2.207-2.101,2.6-3.382,2.6-4.593,0-1.957-1.354-3.097-3.988-3.097-2.135,0-3.951.818-5.161,2.492l-4.2-2.706c1.922-2.812,5.41-4.628,9.896-4.628,5.553,0,9.255,2.849,9.255,7.369,0,2.421-.677,4.628-4.165,7.867l-5.73,5.411h10.715Z"/><path class="cls-4" d="M722.873,1185.521v4.699h-18.832v-3.738l9.612-9.077c2.207-2.101,2.599-3.382,2.599-4.593,0-1.957-1.354-3.097-3.987-3.097-2.136,0-3.951.818-5.161,2.492l-4.201-2.706c1.922-2.812,5.411-4.628,9.896-4.628,5.553,0,9.256,2.849,9.256,7.369,0,2.421-.677,4.628-4.166,7.867l-5.73,5.411h10.715Z"/><path class="cls-4" d="M732.732,1187.016c0,.926-.143,1.603-.962,3.561l-2.028,5.126h-3.525l1.566-5.66c-1.174-.463-1.922-1.566-1.922-3.026,0-2.064,1.495-3.417,3.453-3.417,1.993,0,3.418,1.388,3.418,3.417Z"/><path class="cls-4" d="M735.329,1177.76c0-8.223,4.557-12.887,10.68-12.887,6.159,0,10.68,4.664,10.68,12.887s-4.521,12.887-10.68,12.887c-6.123,0-10.68-4.663-10.68-12.887ZM750.886,1177.76c0-5.66-1.993-8.01-4.877-8.01-2.848,0-4.841,2.35-4.841,8.01s1.993,8.01,4.841,8.01c2.884,0,4.877-2.35,4.877-8.01Z"/><path class="cls-4" d="M759.498,1177.76c0-8.223,4.557-12.887,10.68-12.887,6.158,0,10.68,4.664,10.68,12.887s-4.521,12.887-10.68,12.887c-6.123,0-10.68-4.663-10.68-12.887ZM775.055,1177.76c0-5.66-1.994-8.01-4.877-8.01-2.848,0-4.842,2.35-4.842,8.01s1.994,8.01,4.842,8.01c2.883,0,4.877-2.35,4.877-8.01Z"/><path class="cls-4" d="M783.666,1177.76c0-8.223,4.557-12.887,10.68-12.887,6.158,0,10.68,4.664,10.68,12.887s-4.521,12.887-10.68,12.887c-6.123,0-10.68-4.663-10.68-12.887ZM799.223,1177.76c0-5.66-1.993-8.01-4.877-8.01-2.848,0-4.842,2.35-4.842,8.01s1.994,8.01,4.842,8.01c2.884,0,4.877-2.35,4.877-8.01Z"/><path class="cls-4" d="M832.453,1171.221v17.042c0,1.936-.846,2.047-4.983,2.047-.089-.423-.356-1.091-.579-1.514.802.022,1.559.045,2.181.045,1.758,0,1.892,0,1.892-.578v-7.253h-15.529v9.344h-1.49v-19.133h18.51ZM815.434,1172.689v6.83h6.896v-6.83h-6.896ZM823.821,1179.52h7.142v-6.83h-7.142v6.83Z"/><path class="cls-4" d="M169.26,1187.052l2.457-3.311c1.566,1.53,3.488,2.705,5.873,2.705,2.67,0,4.486-1.317,4.486-3.667,0-2.599-1.531-4.2-7.263-4.2v-3.773c4.841,0,6.407-1.674,6.407-4.022,0-2.065-1.281-3.275-3.523-3.312-1.887.036-3.418.926-4.984,2.35l-2.67-3.203c2.279-1.994,4.807-3.24,7.903-3.24,5.091,0,8.544,2.492,8.544,7.014,0,2.848-1.603,4.912-4.414,6.016v.178c2.99.819,5.268,3.026,5.268,6.479,0,4.842-4.236,7.653-9.256,7.653-4.164,0-6.977-1.566-8.828-3.666Z"/><path class="cls-4" d="M228.457,1162.203v30.615h-4.557v-2.242h-15.805v2.313h-4.379v-30.687h24.74ZM208.096,1166.476v7.653h15.805v-7.653h-15.805ZM223.9,1186.304v-7.974h-15.805v7.974h15.805Z"/><path class="cls-4" d="M240.878,1174.271v19.045h-4.2v-31.896h13.635v12.852h-9.435ZM240.878,1164.481v1.887h5.482v-1.887h-5.482ZM246.36,1171.245v-2.028h-5.482v2.028h5.482ZM266.723,1188.298c0,2.278-.463,3.523-1.887,4.2-1.389.712-3.453.818-6.515.818-.106-.89-.498-2.207-.925-3.311h-8.829v1.815h-3.845v-15.414h13.705v12.638c1.389.036,2.706.036,3.169,0,.641,0,.854-.214.854-.783v-13.919h-9.684v-12.923h13.955v26.878ZM248.567,1179.54v2.136h5.874v-2.136h-5.874ZM254.441,1186.909v-2.207h-5.874v2.207h5.874ZM256.791,1164.481v1.887h5.66v-1.887h-5.66ZM262.451,1171.316v-2.1h-5.66v2.1h5.66Z"/><path class="cls-4" d="M388.906,1179.76l4.699,4.735-1.424,1.53-4.734-4.771-4.771,4.771-1.425-1.53,4.699-4.735-4.699-4.734,1.425-1.53,4.771,4.77,4.734-4.77,1.424,1.53-4.699,4.734Z"/><path class="cls-4" d="M420.088,1189.941v2.278h-17.479v-1.815l10.359-10.146c2.812-2.777,3.346-4.45,3.346-6.159,0-2.883-2.028-4.663-5.838-4.663-2.919,0-5.162.89-6.799,2.776l-1.816-1.566c1.923-2.278,5.02-3.56,8.829-3.56,5.056,0,8.259,2.563,8.259,6.729,0,2.385-.748,4.521-4.094,7.796l-8.473,8.33h13.705Z"/><path class="cls-4" d="M426.885,1190.439c0-1.104.855-1.922,1.887-1.922s1.923.818,1.923,1.922-.89,1.958-1.923,1.958-1.887-.854-1.887-1.958Z"/><path class="cls-4" d="M454.971,1189.941v2.278h-17.479v-1.815l10.359-10.146c2.812-2.777,3.346-4.45,3.346-6.159,0-2.883-2.028-4.663-5.838-4.663-2.919,0-5.162.89-6.799,2.776l-1.816-1.566c1.923-2.278,5.02-3.56,8.829-3.56,5.056,0,8.259,2.563,8.259,6.729,0,2.385-.748,4.521-4.094,7.796l-8.473,8.33h13.705Z"/><polygon class="cls-4" points="526 1213 524 1213 524 1212 525 1212 525 1211 526 1211 526 1213"/><path class="cls-4" d="M521,1213h-3v-1h3v1ZM515,1213h-3v-1h3v1ZM509,1213h-3v-1h3v1ZM502,1213h-3v-1h3v1ZM496,1213h-3v-1h3v1ZM490,1213h-3v-1h3v1ZM484,1213h-3v-1h3v1ZM478,1213h-3v-1h3v1ZM472,1213h-3v-1h3v1ZM466,1213h-3v-1h3v1ZM460,1213h-3v-1h3v1ZM454,1213h-3v-1h3v1ZM448,1213h-3v-1h3v1ZM442,1213h-3v-1h3v1ZM436,1213h-3v-1h3v1ZM430,1213h-3v-1h3v1ZM424,1213h-3v-1h3v1ZM418,1213h-3v-1h3v1ZM412,1213h-3v-1h3v1ZM406,1213h-3v-1h3v1ZM400,1213h-3v-1h3v1ZM394,1213h-3v-1h3v1ZM388,1213h-3v-1h3v1ZM382,1213h-3v-1h3v1ZM376,1213h-3v-1h3v1ZM370,1213h-3v-1h3v1ZM364,1213h-3v-1h3v1ZM358,1213h-3v-1h3v1ZM352,1213h-3v-1h3v1ZM346,1213h-3v-1h3v1ZM340,1213h-3v-1h3v1ZM334,1213h-3v-1h3v1ZM328,1213h-3v-1h3v1ZM322,1213h-3v-1h3v1Z"/><polygon class="cls-4" points="316 1213 314 1213 314 1211 315 1211 315 1212 316 1212 316 1213"/><path class="cls-4" d="M315,1208h-1v-3h1v3ZM315,1202h-1v-3h1v3ZM315,1196h-1v-3h1v3ZM315,1190h-1v-3h1v3ZM315,1184h-1v-3h1v3ZM315,1178h-1v-3h1v3ZM315,1172h-1v-3h1v3ZM315,1166h-1v-3h1v3ZM315,1160h-1v-3h1v3ZM315,1154h-1v-3h1v3Z"/><polygon class="cls-4" points="315 1148 314 1148 314 1146 316 1146 316 1147 315 1147 315 1148"/><path class="cls-4" d="M521,1147h-3v-1h3v1ZM515,1147h-3v-1h3v1ZM509,1147h-3v-1h3v1ZM502,1147h-3v-1h3v1ZM496,1147h-3v-1h3v1ZM490,1147h-3v-1h3v1ZM484,1147h-3v-1h3v1ZM478,1147h-3v-1h3v1ZM472,1147h-3v-1h3v1ZM466,1147h-3v-1h3v1ZM460,1147h-3v-1h3v1ZM454,1147h-3v-1h3v1ZM448,1147h-3v-1h3v1ZM442,1147h-3v-1h3v1ZM436,1147h-3v-1h3v1ZM430,1147h-3v-1h3v1ZM424,1147h-3v-1h3v1ZM418,1147h-3v-1h3v1ZM412,1147h-3v-1h3v1ZM406,1147h-3v-1h3v1ZM400,1147h-3v-1h3v1ZM394,1147h-3v-1h3v1ZM388,1147h-3v-1h3v1ZM382,1147h-3v-1h3v1ZM376,1147h-3v-1h3v1ZM370,1147h-3v-1h3v1ZM364,1147h-3v-1h3v1ZM358,1147h-3v-1h3v1ZM352,1147h-3v-1h3v1ZM346,1147h-3v-1h3v1ZM340,1147h-3v-1h3v1ZM334,1147h-3v-1h3v1ZM328,1147h-3v-1h3v1ZM322,1147h-3v-1h3v1Z"/><polygon class="cls-4" points="526 1148 525 1148 525 1147 524 1147 524 1146 526 1146 526 1148"/><path class="cls-4" d="M526,1208h-1v-3h1v3ZM526,1202h-1v-3h1v3ZM526,1196h-1v-3h1v3ZM526,1190h-1v-3h1v3ZM526,1184h-1v-3h1v3ZM526,1178h-1v-3h1v3ZM526,1172h-1v-3h1v3ZM526,1166h-1v-3h1v3ZM526,1160h-1v-3h1v3ZM526,1154h-1v-3h1v3Z"/><path class="cls-4" d="M635,1180h-3v-1h3v1ZM629,1180h-3v-1h3v1ZM623,1180h-3v-1h3v1ZM617,1180h-3v-1h3v1ZM611,1180h-3v-1h3v1ZM605,1180h-3v-1h3v1ZM599,1180h-3v-1h3v1ZM593,1180h-3v-1h3v1ZM587,1180h-3v-1h3v1ZM581,1180h-3v-1h3v1ZM575,1180h-3v-1h3v1ZM569,1180h-3v-1h3v1ZM563,1180h-3v-1h3v1ZM557,1180h-3v-1h3v1ZM551,1180h-3v-1h3v1ZM545,1180h-3v-1h3v1ZM539,1180h-3v-1h3v1Z"/><path class="cls-4" d="M635.522,1190.423c-.128,0-.256-.049-.354-.146-.195-.195-.195-.512,0-.707l10.474-10.474-10.474-10.474c-.195-.195-.195-.512,0-.707s.512-.195.707,0l10.827,10.828c.195.195.195.512,0,.707l-10.827,10.827c-.098.098-.226.146-.354.146Z"/><path class="cls-4" d="M700.02,1274.508v4.699h-18.832v-3.738l9.611-9.077c2.207-2.101,2.6-3.382,2.6-4.593,0-1.958-1.354-3.097-3.988-3.097-2.135,0-3.951.818-5.161,2.492l-4.2-2.706c1.922-2.812,5.41-4.628,9.896-4.628,5.553,0,9.255,2.849,9.255,7.369,0,2.421-.677,4.628-4.165,7.867l-5.73,5.411h10.715Z"/><path class="cls-4" d="M724.01,1271.34c0,5.091-4.164,8.294-9.434,8.294-6.87,0-11.143-4.307-11.143-12.353,0-8.614,5.198-13.421,12.709-13.421,2.635,0,5.197.605,6.942,1.709l-2.136,4.236c-1.389-.926-2.99-1.246-4.664-1.246-4.165,0-6.834,2.456-7.013,7.227,1.46-1.459,3.56-2.207,6.159-2.207,4.805,0,8.578,3.062,8.578,7.761ZM718.422,1271.624c0-2.278-1.674-3.737-4.236-3.737-2.527,0-4.309,1.566-4.309,3.737,0,2.137,1.603,3.703,4.379,3.703,2.457,0,4.166-1.425,4.166-3.703Z"/><path class="cls-4" d="M732.836,1276.003c0,.926-.143,1.603-.961,3.561l-2.029,5.126h-3.523l1.566-5.66c-1.176-.463-1.923-1.566-1.923-3.026,0-2.064,1.495-3.417,3.453-3.417,1.993,0,3.417,1.388,3.417,3.417Z"/><path class="cls-4" d="M735.434,1266.747c0-8.223,4.557-12.887,10.68-12.887,6.158,0,10.68,4.664,10.68,12.887s-4.521,12.887-10.68,12.887c-6.123,0-10.68-4.663-10.68-12.887ZM750.99,1266.747c0-5.66-1.993-8.01-4.877-8.01-2.848,0-4.842,2.35-4.842,8.01s1.994,8.01,4.842,8.01c2.884,0,4.877-2.35,4.877-8.01Z"/><path class="cls-4" d="M759.602,1266.747c0-8.223,4.557-12.887,10.68-12.887,6.159,0,10.68,4.664,10.68,12.887s-4.521,12.887-10.68,12.887c-6.123,0-10.68-4.663-10.68-12.887ZM775.158,1266.747c0-5.66-1.992-8.01-4.877-8.01-2.848,0-4.841,2.35-4.841,8.01s1.993,8.01,4.841,8.01c2.885,0,4.877-2.35,4.877-8.01Z"/><path class="cls-4" d="M783.771,1266.747c0-8.223,4.557-12.887,10.68-12.887,6.159,0,10.68,4.664,10.68,12.887s-4.521,12.887-10.68,12.887c-6.123,0-10.68-4.663-10.68-12.887ZM799.327,1266.747c0-5.66-1.993-8.01-4.877-8.01-2.848,0-4.841,2.35-4.841,8.01s1.993,8.01,4.841,8.01c2.884,0,4.877-2.35,4.877-8.01Z"/><path class="cls-4" d="M832.558,1260.208v17.042c0,1.936-.845,2.047-4.983,2.047-.089-.423-.355-1.091-.578-1.513.801.021,1.557.044,2.18.044,1.758,0,1.891,0,1.891-.578v-7.253h-15.527v9.344h-1.491v-19.133h18.51ZM815.539,1261.677v6.83h6.896v-6.83h-6.896ZM823.926,1268.507h7.141v-6.83h-7.141v6.83Z"/><path class="cls-4" d="M188.305,1272.372h-3.132v6.835h-4.878v-6.835h-11.213v-3.56l9.825-15.948h6.266v15.521h3.132v3.987ZM180.295,1268.385v-5.375c0-1.531.143-3.916.215-5.446h-.143c-.641,1.388-1.354,2.848-2.101,4.271l-4.094,6.55h6.122Z"/><path class="cls-4" d="M228.457,1251.19v30.615h-4.557v-2.242h-15.805v2.313h-4.379v-30.687h24.74ZM208.096,1255.463v7.653h15.805v-7.653h-15.805ZM223.9,1275.291v-7.974h-15.805v7.974h15.805Z"/><path class="cls-4" d="M240.878,1263.259v19.045h-4.2v-31.896h13.635v12.852h-9.435ZM240.878,1253.469v1.887h5.482v-1.887h-5.482ZM246.36,1260.232v-2.028h-5.482v2.028h5.482ZM266.723,1277.285c0,2.278-.463,3.523-1.887,4.2-1.389.712-3.453.818-6.515.818-.106-.89-.498-2.207-.925-3.311h-8.829v1.815h-3.845v-15.414h13.705v12.638c1.389.035,2.706.035,3.169,0,.641,0,.854-.214.854-.783v-13.919h-9.684v-12.923h13.955v26.878ZM248.567,1268.527v2.136h5.874v-2.136h-5.874ZM254.441,1275.896v-2.207h-5.874v2.207h5.874ZM256.791,1253.469v1.887h5.66v-1.887h-5.66ZM262.451,1260.304v-2.1h-5.66v2.1h5.66Z"/><path class="cls-4" d="M388.177,1268.747l4.699,4.735-1.424,1.53-4.735-4.771-4.77,4.771-1.424-1.53,4.699-4.735-4.699-4.734,1.424-1.53,4.77,4.77,4.735-4.77,1.424,1.53-4.699,4.734Z"/><path class="cls-4" d="M419.359,1278.929v2.278h-17.479v-1.815l10.359-10.146c2.812-2.777,3.347-4.45,3.347-6.159,0-2.883-2.029-4.663-5.838-4.663-2.92,0-5.162.89-6.8,2.776l-1.815-1.566c1.922-2.278,5.02-3.56,8.828-3.56,5.055,0,8.259,2.563,8.259,6.729,0,2.385-.747,4.521-4.094,7.796l-8.473,8.33h13.706Z"/><path class="cls-4" d="M426.156,1279.427c0-1.104.854-1.922,1.887-1.922s1.922.818,1.922,1.922-.891,1.958-1.922,1.958-1.887-.854-1.887-1.958Z"/><path class="cls-4" d="M455.951,1273.767c0,4.664-3.668,7.654-8.509,7.654-6.621,0-10.217-4.593-10.217-12.46,0-8.473,4.628-12.887,11.392-12.887,2.242,0,4.344.392,5.91,1.353l-1.033,2.065c-1.281-.854-2.99-1.175-4.842-1.175-5.375,0-8.828,3.453-8.828,10.217,0,.569.035,1.281.107,2.029,1.246-2.741,4.164-4.272,7.617-4.272,4.949,0,8.402,2.919,8.402,7.476ZM453.423,1273.838c0-3.274-2.421-5.375-6.265-5.375-3.81,0-6.408,2.35-6.408,5.446,0,2.741,2.278,5.34,6.586,5.34,3.596,0,6.087-2.101,6.087-5.411Z"/><polygon class="cls-4" points="526 1303 524 1303 524 1302 525 1302 525 1301 526 1301 526 1303"/><path class="cls-4" d="M521,1303h-3v-1h3v1ZM515,1303h-3v-1h3v1ZM509,1303h-3v-1h3v1ZM502,1303h-3v-1h3v1ZM496,1303h-3v-1h3v1ZM490,1303h-3v-1h3v1ZM484,1303h-3v-1h3v1ZM478,1303h-3v-1h3v1ZM472,1303h-3v-1h3v1ZM466,1303h-3v-1h3v1ZM460,1303h-3v-1h3v1ZM454,1303h-3v-1h3v1ZM448,1303h-3v-1h3v1ZM442,1303h-3v-1h3v1ZM436,1303h-3v-1h3v1ZM430,1303h-3v-1h3v1ZM424,1303h-3v-1h3v1ZM418,1303h-3v-1h3v1ZM412,1303h-3v-1h3v1ZM406,1303h-3v-1h3v1ZM400,1303h-3v-1h3v1ZM394,1303h-3v-1h3v1ZM388,1303h-3v-1h3v1ZM382,1303h-3v-1h3v1ZM376,1303h-3v-1h3v1ZM370,1303h-3v-1h3v1ZM364,1303h-3v-1h3v1ZM358,1303h-3v-1h3v1ZM352,1303h-3v-1h3v1ZM346,1303h-3v-1h3v1ZM340,1303h-3v-1h3v1ZM334,1303h-3v-1h3v1ZM328,1303h-3v-1h3v1ZM322,1303h-3v-1h3v1Z"/><polygon class="cls-4" points="316 1303 314 1303 314 1301 315 1301 315 1302 316 1302 316 1303"/><path class="cls-4" d="M315,1298h-1v-3h1v3ZM315,1292h-1v-3h1v3ZM315,1286h-1v-3h1v3ZM315,1280h-1v-3h1v3ZM315,1274h-1v-3h1v3ZM315,1268h-1v-3h1v3ZM315,1262h-1v-3h1v3ZM315,1256h-1v-3h1v3ZM315,1250h-1v-3h1v3ZM315,1244h-1v-3h1v3Z"/><polygon class="cls-4" points="315 1238 314 1238 314 1236 316 1236 316 1237 315 1237 315 1238"/><path class="cls-4" d="M521,1237h-3v-1h3v1ZM515,1237h-3v-1h3v1ZM509,1237h-3v-1h3v1ZM502,1237h-3v-1h3v1ZM496,1237h-3v-1h3v1ZM490,1237h-3v-1h3v1ZM484,1237h-3v-1h3v1ZM478,1237h-3v-1h3v1ZM472,1237h-3v-1h3v1ZM466,1237h-3v-1h3v1ZM460,1237h-3v-1h3v1ZM454,1237h-3v-1h3v1ZM448,1237h-3v-1h3v1ZM442,1237h-3v-1h3v1ZM436,1237h-3v-1h3v1ZM430,1237h-3v-1h3v1ZM424,1237h-3v-1h3v1ZM418,1237h-3v-1h3v1ZM412,1237h-3v-1h3v1ZM406,1237h-3v-1h3v1ZM400,1237h-3v-1h3v1ZM394,1237h-3v-1h3v1ZM388,1237h-3v-1h3v1ZM382,1237h-3v-1h3v1ZM376,1237h-3v-1h3v1ZM370,1237h-3v-1h3v1ZM364,1237h-3v-1h3v1ZM358,1237h-3v-1h3v1ZM352,1237h-3v-1h3v1ZM346,1237h-3v-1h3v1ZM340,1237h-3v-1h3v1ZM334,1237h-3v-1h3v1ZM328,1237h-3v-1h3v1ZM322,1237h-3v-1h3v1Z"/><polygon class="cls-4" points="526 1238 525 1238 525 1237 524 1237 524 1236 526 1236 526 1238"/><path class="cls-4" d="M526,1298h-1v-3h1v3ZM526,1292h-1v-3h1v3ZM526,1286h-1v-3h1v3ZM526,1280h-1v-3h1v3ZM526,1274h-1v-3h1v3ZM526,1268h-1v-3h1v3ZM526,1262h-1v-3h1v3ZM526,1256h-1v-3h1v3ZM526,1250h-1v-3h1v3ZM526,1244h-1v-3h1v3Z"/><path class="cls-4" d="M635,1269h-3v-1h3v1ZM629,1269h-3v-1h3v1ZM623,1269h-3v-1h3v1ZM617,1269h-3v-1h3v1ZM611,1269h-3v-1h3v1ZM605,1269h-3v-1h3v1ZM599,1269h-3v-1h3v1ZM593,1269h-3v-1h3v1ZM587,1269h-3v-1h3v1ZM581,1269h-3v-1h3v1ZM575,1269h-3v-1h3v1ZM569,1269h-3v-1h3v1ZM563,1269h-3v-1h3v1ZM557,1269h-3v-1h3v1ZM551,1269h-3v-1h3v1ZM545,1269h-3v-1h3v1ZM539,1269h-3v-1h3v1Z"/><path class="cls-4" d="M635.521,1279.411c-.128,0-.256-.049-.354-.146-.195-.195-.195-.512,0-.707l10.474-10.474-10.474-10.474c-.195-.195-.195-.512,0-.707s.512-.195.707,0l10.827,10.827c.195.195.195.512,0,.707l-10.827,10.828c-.098.098-.226.146-.354.146Z"/><path class="cls-4" d="M699.808,1360.576c0,4.2-3.239,8.045-10.323,8.045-3.489,0-7.084-.961-9.506-2.67l2.243-4.414c1.887,1.424,4.521,2.243,7.12,2.243,2.883,0,4.663-1.175,4.663-3.204,0-1.887-1.388-3.062-4.663-3.062h-2.635v-3.809l5.127-5.803h-10.609v-4.628h17.443v3.737l-5.624,6.408c4.485.712,6.764,3.488,6.764,7.155Z"/><path class="cls-4" d="M702.475,1355.734c0-8.223,4.557-12.887,10.68-12.887,6.159,0,10.68,4.664,10.68,12.887s-4.521,12.887-10.68,12.887c-6.123,0-10.68-4.663-10.68-12.887ZM718.031,1355.734c0-5.66-1.992-8.01-4.877-8.01-2.848,0-4.841,2.35-4.841,8.01s1.993,8.01,4.841,8.01c2.885,0,4.877-2.35,4.877-8.01Z"/><path class="cls-4" d="M733.372,1364.99c0,.926-.143,1.603-.962,3.561l-2.029,5.126h-3.523l1.566-5.66c-1.175-.463-1.922-1.566-1.922-3.026,0-2.064,1.494-3.417,3.453-3.417,1.992,0,3.417,1.388,3.417,3.417Z"/><path class="cls-4" d="M735.969,1355.734c0-8.223,4.557-12.887,10.68-12.887,6.159,0,10.68,4.664,10.68,12.887s-4.521,12.887-10.68,12.887c-6.123,0-10.68-4.663-10.68-12.887ZM751.525,1355.734c0-5.66-1.992-8.01-4.877-8.01-2.848,0-4.841,2.35-4.841,8.01s1.993,8.01,4.841,8.01c2.885,0,4.877-2.35,4.877-8.01Z"/><path class="cls-4" d="M760.138,1355.734c0-8.223,4.557-12.887,10.68-12.887,6.159,0,10.68,4.664,10.68,12.887s-4.521,12.887-10.68,12.887c-6.123,0-10.68-4.663-10.68-12.887ZM775.694,1355.734c0-5.66-1.993-8.01-4.877-8.01-2.848,0-4.841,2.35-4.841,8.01s1.993,8.01,4.841,8.01c2.884,0,4.877-2.35,4.877-8.01Z"/><path class="cls-4" d="M784.307,1355.734c0-8.223,4.557-12.887,10.68-12.887,6.158,0,10.68,4.664,10.68,12.887s-4.521,12.887-10.68,12.887c-6.123,0-10.68-4.663-10.68-12.887ZM799.863,1355.734c0-5.66-1.994-8.01-4.877-8.01-2.848,0-4.842,2.35-4.842,8.01s1.994,8.01,4.842,8.01c2.883,0,4.877-2.35,4.877-8.01Z"/><path class="cls-4" d="M833.094,1349.195v17.042c0,1.936-.846,2.047-4.984,2.047-.088-.423-.355-1.091-.578-1.514.801.022,1.558.045,2.18.045,1.758,0,1.892,0,1.892-.578v-7.253h-15.528v9.344h-1.49v-19.133h18.51ZM816.074,1350.664v6.83h6.896v-6.83h-6.896ZM824.461,1357.494h7.142v-6.83h-7.142v6.83Z"/><path class="cls-4" d="M169.26,1365.098l2.421-3.347c1.495,1.46,3.347,2.67,5.803,2.67,2.741,0,4.663-1.744,4.663-4.842,0-3.062-1.779-4.77-4.449-4.77-1.566,0-2.421.392-3.951,1.388l-2.386-1.566.712-12.779h14.098v4.378h-9.576l-.498,5.59c1.031-.499,1.957-.748,3.168-.748,4.414,0,8.116,2.635,8.116,8.366,0,5.873-4.343,9.255-9.22,9.255-4.166,0-6.942-1.637-8.9-3.595Z"/><path class="cls-4" d="M228.457,1340.178v30.615h-4.557v-2.242h-15.805v2.313h-4.379v-30.687h24.74ZM208.096,1344.45v7.653h15.805v-7.653h-15.805ZM223.9,1364.278v-7.974h-15.805v7.974h15.805Z"/><path class="cls-4" d="M240.878,1352.246v19.045h-4.2v-31.896h13.635v12.852h-9.435ZM240.878,1342.456v1.887h5.482v-1.887h-5.482ZM246.36,1349.22v-2.028h-5.482v2.028h5.482ZM266.723,1366.272c0,2.278-.463,3.523-1.887,4.2-1.389.712-3.453.818-6.515.818-.106-.89-.498-2.207-.925-3.311h-8.829v1.815h-3.845v-15.414h13.705v12.638c1.389.036,2.706.036,3.169,0,.641,0,.854-.214.854-.783v-13.919h-9.684v-12.923h13.955v26.878ZM248.567,1357.515v2.136h5.874v-2.136h-5.874ZM254.441,1364.884v-2.207h-5.874v2.207h5.874ZM256.791,1342.456v1.887h5.66v-1.887h-5.66ZM262.451,1349.291v-2.1h-5.66v2.1h5.66Z"/><path class="cls-4" d="M387.305,1357.734l4.699,4.735-1.424,1.53-4.734-4.771-4.771,4.771-1.425-1.53,4.699-4.735-4.699-4.734,1.425-1.53,4.771,4.77,4.734-4.77,1.424,1.53-4.699,4.734Z"/><path class="cls-4" d="M417.953,1363.039c0,4.165-3.025,7.369-9.042,7.369-3.596,0-7.049-1.246-8.972-3.204l1.246-2.029c1.603,1.673,4.486,2.884,7.726,2.884,4.13,0,6.407-1.923,6.407-5.02,0-2.99-2.1-4.948-6.729-4.948h-1.779v-1.887l6.906-8.65h-12.744v-2.278h16.02v1.815l-7.049,8.864c5.34.284,8.01,3.097,8.01,7.084Z"/><path class="cls-4" d="M425.142,1368.414c0-1.104.854-1.922,1.887-1.922s1.923.818,1.923,1.922-.891,1.958-1.923,1.958-1.887-.854-1.887-1.958Z"/><path class="cls-4" d="M436.211,1357.734c0-7.938,4.166-12.673,9.933-12.673s9.968,4.734,9.968,12.673-4.201,12.674-9.968,12.674-9.933-4.735-9.933-12.674ZM453.477,1357.734c0-6.656-2.99-10.323-7.333-10.323s-7.333,3.667-7.333,10.323,2.99,10.324,7.333,10.324,7.333-3.667,7.333-10.324Z"/><polygon class="cls-4" points="526 1391 524 1391 524 1390 525 1390 525 1389 526 1389 526 1391"/><path class="cls-4" d="M521,1391h-3v-1h3v1ZM515,1391h-3v-1h3v1ZM509,1391h-3v-1h3v1ZM502,1391h-3v-1h3v1ZM496,1391h-3v-1h3v1ZM490,1391h-3v-1h3v1ZM484,1391h-3v-1h3v1ZM478,1391h-3v-1h3v1ZM472,1391h-3v-1h3v1ZM466,1391h-3v-1h3v1ZM460,1391h-3v-1h3v1ZM454,1391h-3v-1h3v1ZM448,1391h-3v-1h3v1ZM442,1391h-3v-1h3v1ZM436,1391h-3v-1h3v1ZM430,1391h-3v-1h3v1ZM424,1391h-3v-1h3v1ZM418,1391h-3v-1h3v1ZM412,1391h-3v-1h3v1ZM406,1391h-3v-1h3v1ZM400,1391h-3v-1h3v1ZM394,1391h-3v-1h3v1ZM388,1391h-3v-1h3v1ZM382,1391h-3v-1h3v1ZM376,1391h-3v-1h3v1ZM370,1391h-3v-1h3v1ZM364,1391h-3v-1h3v1ZM358,1391h-3v-1h3v1ZM352,1391h-3v-1h3v1ZM346,1391h-3v-1h3v1ZM340,1391h-3v-1h3v1ZM334,1391h-3v-1h3v1ZM328,1391h-3v-1h3v1ZM322,1391h-3v-1h3v1Z"/><polygon class="cls-4" points="316 1391 314 1391 314 1389 315 1389 315 1390 316 1390 316 1391"/><path class="cls-4" d="M315,1386h-1v-3h1v3ZM315,1380h-1v-3h1v3ZM315,1374h-1v-3h1v3ZM315,1368h-1v-3h1v3ZM315,1362h-1v-3h1v3ZM315,1356h-1v-3h1v3ZM315,1350h-1v-3h1v3ZM315,1344h-1v-3h1v3ZM315,1338h-1v-3h1v3ZM315,1332h-1v-3h1v3Z"/><polygon class="cls-4" points="315 1326 314 1326 314 1324 316 1324 316 1325 315 1325 315 1326"/><path class="cls-4" d="M521,1325h-3v-1h3v1ZM515,1325h-3v-1h3v1ZM509,1325h-3v-1h3v1ZM502,1325h-3v-1h3v1ZM496,1325h-3v-1h3v1ZM490,1325h-3v-1h3v1ZM484,1325h-3v-1h3v1ZM478,1325h-3v-1h3v1ZM472,1325h-3v-1h3v1ZM466,1325h-3v-1h3v1ZM460,1325h-3v-1h3v1ZM454,1325h-3v-1h3v1ZM448,1325h-3v-1h3v1ZM442,1325h-3v-1h3v1ZM436,1325h-3v-1h3v1ZM430,1325h-3v-1h3v1ZM424,1325h-3v-1h3v1ZM418,1325h-3v-1h3v1ZM412,1325h-3v-1h3v1ZM406,1325h-3v-1h3v1ZM400,1325h-3v-1h3v1ZM394,1325h-3v-1h3v1ZM388,1325h-3v-1h3v1ZM382,1325h-3v-1h3v1ZM376,1325h-3v-1h3v1ZM370,1325h-3v-1h3v1ZM364,1325h-3v-1h3v1ZM358,1325h-3v-1h3v1ZM352,1325h-3v-1h3v1ZM346,1325h-3v-1h3v1ZM340,1325h-3v-1h3v1ZM334,1325h-3v-1h3v1ZM328,1325h-3v-1h3v1ZM322,1325h-3v-1h3v1Z"/><polygon class="cls-4" points="526 1326 525 1326 525 1325 524 1325 524 1324 526 1324 526 1326"/><path class="cls-4" d="M526,1386h-1v-3h1v3ZM526,1380h-1v-3h1v3ZM526,1374h-1v-3h1v3ZM526,1368h-1v-3h1v3ZM526,1362h-1v-3h1v3ZM526,1356h-1v-3h1v3ZM526,1350h-1v-3h1v3ZM526,1344h-1v-3h1v3ZM526,1338h-1v-3h1v3ZM526,1332h-1v-3h1v3Z"/><path class="cls-4" d="M635,1358h-3v-1h3v1ZM629,1358h-3v-1h3v1ZM623,1358h-3v-1h3v1ZM617,1358h-3v-1h3v1ZM611,1358h-3v-1h3v1ZM605,1358h-3v-1h3v1ZM599,1358h-3v-1h3v1ZM593,1358h-3v-1h3v1ZM587,1358h-3v-1h3v1ZM581,1358h-3v-1h3v1ZM575,1358h-3v-1h3v1ZM569,1358h-3v-1h3v1ZM563,1358h-3v-1h3v1ZM557,1358h-3v-1h3v1ZM551,1358h-3v-1h3v1ZM545,1358h-3v-1h3v1ZM539,1358h-3v-1h3v1Z"/><path class="cls-4" d="M635.522,1368.398c-.128,0-.256-.049-.354-.146-.195-.195-.195-.512,0-.707l10.474-10.474-10.474-10.474c-.195-.195-.195-.512,0-.707s.512-.195.707,0l10.827,10.827c.195.195.195.512,0,.707l-10.827,10.827c-.098.098-.226.146-.354.146Z"/><path class="cls-4" d="M208.609,895.241v30.614h-4.557v-2.242h-15.806v2.313h-4.379v-30.686h24.741ZM188.247,899.513v7.653h15.806v-7.653h-15.806ZM204.053,919.341v-7.974h-15.806v7.974h15.806Z"/><path class="cls-4" d="M246.341,903.429c-.747,5.269-1.958,9.683-3.88,13.278,1.637,2.527,3.701,4.557,6.301,5.909-.961.854-2.279,2.492-2.92,3.667-2.42-1.46-4.378-3.347-5.98-5.66-1.957,2.35-4.414,4.271-7.511,5.838-.249-.605-.783-1.566-1.353-2.421l-1.603,1.638c-.961-.818-2.243-1.744-3.702-2.67-2.1,1.566-4.948,2.599-8.758,3.382-.248-1.21-.996-2.634-1.672-3.524,2.848-.355,5.09-.961,6.764-1.887-.642-.355-1.318-.676-1.994-.961l-.392.677-3.702-1.14c.783-1.246,1.673-2.848,2.562-4.557h-3.381v-3.417h5.161c.427-.891.854-1.745,1.21-2.528l.783.179v-3.418c-1.637,1.638-3.56,3.133-5.34,4.13-.463-.926-1.352-2.314-2.135-3.062,2.171-.891,4.557-2.599,6.265-4.45h-5.554v-3.346h2.706c-.32-1.211-1.104-2.849-1.851-4.13l3.061-1.281c.926,1.353,1.852,3.168,2.137,4.414l-2.279.997h2.99v-5.981h3.881v5.981h2.812l-2.35-1.033c.818-1.281,1.815-3.168,2.385-4.521l3.561,1.424c-1.104,1.53-2.207,3.026-3.062,4.13h3.383v3.346h-5.838c1.708.961,4.235,2.456,5.019,2.99l-2.243,2.919c-.783-.747-2.277-1.993-3.666-3.097v4.308h-2.278l1.53.32-.854,1.709h8.473c-.819-.819-2.102-1.923-2.885-2.457,3.026-3.631,4.735-9.683,5.59-16.02l4.271.57c-.285,1.993-.676,3.951-1.139,5.838h9.469v3.916h-1.993ZM221.777,916.885c1.068.428,2.101.854,3.133,1.353.57-.89,1.032-1.958,1.354-3.239h-3.453l-1.033,1.887ZM230.25,914.998c-.392,1.993-.996,3.667-1.887,5.055,1.104.642,2.136,1.282,2.955,1.887,2.634-1.388,4.699-3.168,6.266-5.375-.998-2.101-1.781-4.45-2.422-7.013-.498.926-1.067,1.779-1.637,2.562-.143-.142-.285-.32-.498-.533v3.417h-2.777ZM237.868,903.429c.499,2.99,1.21,5.803,2.171,8.365.891-2.42,1.531-5.232,1.923-8.365h-4.094Z"/><path class="cls-4" d="M370.619,911.758c-1.068.32-2.172.676-3.239.997v9.184c0,1.958-.32,2.991-1.425,3.632-1.031.676-2.562.818-4.841.783-.106-1.032-.569-2.706-1.067-3.845,1.281.071,2.527.071,2.954.071s.605-.143.605-.642v-8.045c-1.175.32-2.313.641-3.347.926l-.926-4.059c1.211-.249,2.67-.641,4.272-1.032v-6.017h-3.632v-3.88h3.632v-6.692h3.773v6.692h2.741v3.88h-2.741v4.984l2.706-.748.533,3.81ZM382.688,919.376l.106,3.346c-4.771.677-9.86,1.317-13.634,1.816l-.57-3.632c1.638-.178,3.667-.392,5.838-.604v-4.094h-4.129v-3.383h4.129v-4.2h3.738v4.2h4.059v3.383h-4.059v3.666l4.521-.498ZM374.464,900.651h-3.773v-3.312h3.773v-4.2h3.773v4.2h3.737v3.312h-3.737v3.666h4.236v3.347h-12.53v-3.347h4.521v-3.666ZM391.195,913.608c-.926-1.245-2.527-3.062-3.986-4.627v17.372h-3.916v-33.214h3.916v11.285c1.565,1.21,5.375,4.663,6.336,5.553l-2.35,3.631Z"/><path class="cls-4" d="M404.221,895.667c-.285.854-.676,2.101-.818,2.848-.854,3.916-2.101,11.285-1.175,15.664.462-1.068,1.067-2.777,1.638-4.059l2.242,1.389c-1.032,3.062-1.957,6.621-2.385,8.614-.143.534-.25,1.317-.25,1.709.036.356.072.961.107,1.46l-3.951.392c-.748-2.137-2.029-7.049-2.029-11.428,0-5.767.712-11.214,1.175-14.062.178-.996.214-2.171.214-3.062l5.232.534ZM426.826,905.92c-1.424.178-3.24.32-5.232.427v1.46c0,8.33-.642,13.42-7.654,17.906l-4.094-3.204c1.353-.605,3.133-1.709,4.129-2.812,2.706-2.812,3.275-5.945,3.275-11.89v-1.282c-1.316.036-2.67.071-3.951.071-1.531,0-3.703-.106-5.447-.178v-4.485c1.744.249,3.453.355,5.34.355,1.281,0,2.635-.035,3.987-.071-.036-1.957-.106-3.773-.178-4.734-.071-.747-.214-1.815-.392-2.421h5.162c-.143.783-.143,1.603-.178,2.386-.036.783-.036,2.599-.036,4.521,1.993-.143,3.845-.355,5.304-.641l-.035,4.593Z"/><path class="cls-4" d="M442.664,910.547c.676-.641,1.353-1.316,2.029-1.993-1.281-1.104-2.99-2.35-4.486-3.311l-2.598,2.172c-1.104-1.14-3.453-2.849-5.34-3.916l2.812-2.314c1.637.891,3.809,2.278,5.125,3.382l1.639-1.993.854.534c.605-.891,1.176-1.852,1.674-2.741h-11.641v-3.773h12.53v-3.453h4.343v3.453h12.852v3.773h-14.738l.783.285c-1.104,1.424-2.277,2.883-3.311,4.094.641.463,1.246.89,1.78,1.316,1.245-1.459,2.349-2.883,3.239-4.165l3.311,1.531c-1.957,2.313-4.343,4.806-6.621,6.941l3.666-.178c-.391-.677-.854-1.317-1.281-1.923l2.99-1.245c.57.747,1.211,1.602,1.78,2.456l2.171-1.744c2.457,1.21,5.768,3.168,7.441,4.557l-3.062,2.527c-1.21-1.068-3.488-2.635-5.66-3.881.534.926.961,1.816,1.211,2.563l-3.204,1.424c-.179-.534-.427-1.139-.747-1.779-4.309.392-8.65.712-12.068.961l-.428-2.456c-2.242,1.104-4.592,2.207-6.514,3.061l-1.994-3.417c2.242-.712,5.66-2.029,8.936-3.311l.641,2.634,1.887-.071ZM449.605,916.101h13.955v3.916h-13.955v6.337h-4.343v-6.337h-13.67v-3.916h13.67v-2.278h4.343v2.278ZM454.127,905.35c1.602-1.21,3.596-3.062,4.806-4.521l3.773,1.815c-1.815,1.673-3.88,3.275-5.481,4.379l-3.098-1.674Z"/><path class="cls-4" d="M722.121,894.387c-.891,2.35-1.994,4.734-3.204,7.013v24.919h-3.987v-18.582c-.712.961-1.424,1.851-2.172,2.634-.391-.996-1.494-3.239-2.171-4.271,3.062-3.098,5.98-8.01,7.725-12.923l3.81,1.211ZM737.748,900.367v4.45h6.017v20.54h-4.058v-1.815h-14.098v2.029h-3.916v-20.754h5.731v-4.45h-6.087v-3.773h22.605v3.773h-6.195ZM725.609,919.911h2.207v-11.428h-2.207v11.428ZM731.377,908.483v11.428h2.385v-11.428h-2.385ZM733.762,900.367h-2.35v4.45h2.35v-4.45ZM739.707,908.483h-2.386v11.428h2.386v-11.428Z"/><path class="cls-4" d="M777.972,897.946c-1.21,3.702-3.062,6.835-5.411,9.47,2.242,1.708,4.948,3.097,8.045,3.951-.854.818-2.029,2.492-2.562,3.524l-.641-.249v11.604h-4.094v-1.139h-7.44v1.246h-3.952v-11.392c-.604.284-1.21.533-1.814.747-.393-.818-1.14-1.958-1.816-2.812l-.32.463c-.427-.89-1.174-2.207-1.957-3.453v16.411h-3.988v-13.492c-.996,2.849-2.207,5.482-3.559,7.298-.393-1.175-1.318-2.812-1.959-3.845,2.172-2.812,4.201-7.725,5.197-11.961h-4.342v-3.916h4.662v-7.298h3.988v7.298h3.986v1.923c2.527-2.456,4.734-5.839,6.016-9.256l4.023,1.104c-.355.89-.748,1.78-1.175,2.67h5.731l.748-.143,2.634,1.246ZM759.033,911.865c2.848-1.067,5.553-2.562,7.867-4.485-.996-1.139-1.887-2.313-2.67-3.488-.854,1.032-1.744,1.958-2.635,2.741-.533-.57-1.637-1.566-2.562-2.314h-3.025v.854c.961,1.032,3.631,4.201,4.236,5.02l-1.211,1.673ZM774.02,913.076c-1.566-.854-2.99-1.852-4.271-2.92-1.281,1.104-2.635,2.065-4.094,2.92h8.365ZM773.309,921.478v-4.842h-7.44v4.842h7.44ZM766.793,900.438l-.248.355c.818,1.354,1.814,2.706,3.061,3.987,1.176-1.317,2.207-2.776,3.026-4.343h-5.839Z"/><rect class="cls-4" x="152" y="944" width="690" height="1"/><circle class="cls-5" cx="450" cy="51" r="51"/><path class="cls-6" d="M457.253,62.894v-28.507h-8.724c-.363,1.817-.727,3.738-1.142,5.607h4.621l.986-.207,3.583,1.09c-1.869,16.772-7.321,28.508-15.267,34.323-.778-1.402-2.699-3.791-3.842-4.726,3.79-2.596,6.802-6.438,9.087-11.476-1.091-1.298-2.908-2.959-4.518-4.258-.883,1.61-1.869,3.063-3.012,4.362-.779-1.194-2.337-3.063-3.427-4.154v20.199h-5.66v-26.015c-1.039,1.558-2.129,3.012-3.22,4.258-.467-1.454-1.973-5.037-2.96-6.646,4.206-4.829,7.997-12.41,10.281-19.991l5.712,1.713-.155.52h18.018v3.687h5.089v30.221h-5.452ZM435.601,54.586c3.946-4.985,6.023-13.086,7.062-20.199h-3.427v-4.414c-1.039,3.012-2.285,6.023-3.635,8.983v15.63ZM445.985,45.343c-.52,1.558-1.038,3.063-1.609,4.518,1.453,1.039,3.115,2.285,4.31,3.427.727-2.44,1.298-5.088,1.766-7.944h-4.466ZM471.688,27.688v40.502c0,3.271-.571,4.881-2.492,5.867-1.869.986-4.777,1.194-8.88,1.194-.207-1.661-1.038-4.361-1.869-6.075,2.804.156,5.452.156,6.387.104.831-.052,1.143-.259,1.143-1.142V27.688h5.712Z"/><path class="cls-4" d="M158.226,149.438c.327-.654.36-1.146.36-1.833v-18.296c0-1.048-.131-2.553-.295-3.306h4.059c-.163,1.015-.294,2.192-.294,3.272v17.903c5.891-1.57,13.32-5.825,17.444-10.997l1.866,2.881c-4.354,5.335-11.128,9.295-19.082,11.75-.393.098-1.015.294-1.637.687l-2.422-2.062Z"/><path class="cls-4" d="M204.471,143.514c5.27-3.24,9.36-8.15,11.357-12.34l1.996,3.567c-2.356,4.223-6.382,8.707-11.488,11.849-3.306,2.029-7.462,3.96-12.535,4.877l-2.193-3.371c5.466-.818,9.721-2.651,12.863-4.582ZM203.357,133.04l-2.586,2.65c-1.701-1.734-5.76-5.27-8.183-6.938l2.39-2.553c2.324,1.538,6.546,4.942,8.379,6.841Z"/><path class="cls-4" d="M252.287,129.636c-.295.557-.688,1.375-.917,2.029-.818,2.717-2.422,6.186-4.647,9.394,1.211.785,2.324,1.506,3.143,2.095l-2.291,3.011c-.786-.654-1.866-1.439-3.109-2.291-2.913,3.306-6.906,6.35-12.471,8.478l-2.979-2.618c5.761-1.735,9.754-4.714,12.602-7.758-2.422-1.57-4.942-3.109-6.71-4.091l2.16-2.455c1.833.949,4.354,2.39,6.742,3.83,1.801-2.586,3.273-5.663,3.862-7.954h-10.408c-2.16,2.979-5.105,6.121-8.607,8.51l-2.815-2.127c5.695-3.502,8.936-8.248,10.474-11.161.426-.654,1.015-1.996,1.244-2.945l3.731,1.178c-.622.982-1.343,2.226-1.67,2.881l-.393.72h7.953c.917,0,1.833-.131,2.455-.36l2.651,1.637Z"/><path class="cls-4" d="M261.153,149.568c2.815-1.996,4.681-4.942,5.63-7.953.949-2.913.949-9.296.949-13.06,0-1.113-.065-1.898-.262-2.651h3.797c-.033.262-.164,1.473-.164,2.618,0,3.731-.131,10.703-1.015,13.977-.981,3.6-3.044,6.808-5.826,9.164l-3.109-2.095ZM276.21,149.863c.131-.557.229-1.31.229-2.062v-19.376c0-1.342-.196-2.422-.196-2.618h3.797c-.033.196-.164,1.276-.164,2.618v18.1c2.848-1.276,6.546-4.059,8.903-7.528l1.963,2.815c-2.781,3.698-7.364,7.135-11.128,9.033-.557.262-.884.557-1.243.818l-2.16-1.8Z"/><path class="cls-4" d="M306.154,124.071c-.818,2.259-1.865,4.55-3.044,6.71v22.354h-2.848v-17.805c-.851,1.146-1.701,2.226-2.585,3.142-.263-.654-1.146-2.258-1.604-2.979,2.913-2.979,5.663-7.593,7.332-12.307l2.749.884ZM320.392,129.079v4.779h5.761v18.524h-2.945v-1.833h-14.304v1.997h-2.814v-18.688h5.499v-4.779h-5.859v-2.749h20.653v2.749h-5.99ZM308.903,147.899h2.946v-11.325h-2.946v11.325ZM317.512,129.079h-3.076v4.779h3.076v-4.779ZM314.436,136.574v11.325h3.076v-11.325h-3.076ZM323.207,136.574h-3.109v11.325h3.109v-11.325Z"/><path class="cls-4" d="M360.581,127.345c-1.112,3.371-2.912,6.219-5.105,8.608,2.128,1.701,4.746,3.142,7.79,4.025-.622.589-1.473,1.8-1.898,2.553-.36-.131-.721-.262-1.08-.426v10.965h-2.946v-1.178h-8.084v1.276h-2.814v-10.801c-.721.327-1.44.621-2.193.884-.36-.721-1.112-1.833-1.734-2.455l.196-.065c-.491-.917-1.342-2.226-2.128-3.404v15.809h-2.847v-14.14c-1.08,3.241-2.455,6.284-3.896,8.248-.262-.851-1.015-2.029-1.473-2.716,2.062-2.717,4.091-7.528,5.073-11.751h-4.32v-2.814h4.615v-6.841h2.847v6.841h3.993v1.768c2.39-2.291,4.419-5.368,5.663-8.641l2.912.785c-.359.917-.785,1.833-1.243,2.717h6.219l.557-.131,1.897.884ZM343.333,140.535c2.88-1.015,5.662-2.586,8.052-4.615-1.179-1.276-2.16-2.618-2.979-3.96-.949,1.146-1.898,2.16-2.881,3.044-.49-.557-1.669-1.571-2.356-2.029l.229-.197h-2.815v1.113c.884.949,3.438,4.091,4.059,4.844l-1.309,1.801ZM358.29,141.189c-1.8-.916-3.437-2.062-4.844-3.273-1.44,1.244-3.011,2.357-4.681,3.273h9.524ZM357.341,149.241v-5.466h-8.084v5.466h8.084ZM350.402,129.21l-.295.459c.786,1.473,1.898,2.978,3.273,4.386,1.342-1.44,2.487-3.077,3.371-4.845h-6.35Z"/><path class="cls-4" d="M385.649,127.181v22.911h-5.302v-18.656h-4.582v-4.255h9.884Z"/><path class="cls-4" d="M390.656,138.637c0-7.562,4.189-11.849,9.819-11.849,5.662,0,9.818,4.287,9.818,11.849s-4.156,11.848-9.818,11.848c-5.63,0-9.819-4.287-9.819-11.848ZM404.959,138.637c0-5.204-1.832-7.364-4.483-7.364-2.618,0-4.451,2.16-4.451,7.364s1.833,7.364,4.451,7.364c2.651,0,4.483-2.16,4.483-7.364Z"/><path class="cls-4" d="M420.079,147.146c0,.851-.131,1.473-.884,3.272l-1.866,4.713h-3.24l1.44-5.204c-1.08-.425-1.768-1.439-1.768-2.781,0-1.898,1.375-3.143,3.175-3.143,1.833,0,3.143,1.276,3.143,3.143Z"/><path class="cls-4" d="M423.481,138.637c0-7.562,4.189-11.849,9.819-11.849,5.662,0,9.818,4.287,9.818,11.849s-4.156,11.848-9.818,11.848c-5.63,0-9.819-4.287-9.819-11.848ZM437.784,138.637c0-5.204-1.832-7.364-4.483-7.364-2.618,0-4.451,2.16-4.451,7.364s1.833,7.364,4.451,7.364c2.651,0,4.483-2.16,4.483-7.364Z"/><path class="cls-4" d="M446.718,138.637c0-7.562,4.189-11.849,9.819-11.849,5.662,0,9.818,4.287,9.818,11.849s-4.156,11.848-9.818,11.848c-5.63,0-9.819-4.287-9.819-11.848ZM461.021,138.637c0-5.204-1.832-7.364-4.483-7.364-2.618,0-4.451,2.16-4.451,7.364s1.833,7.364,4.451,7.364c2.651,0,4.483-2.16,4.483-7.364Z"/><path class="cls-4" d="M469.954,138.637c0-7.562,4.189-11.849,9.819-11.849,5.662,0,9.818,4.287,9.818,11.849s-4.156,11.848-9.818,11.848c-5.63,0-9.819-4.287-9.819-11.848ZM484.257,138.637c0-5.204-1.832-7.364-4.483-7.364-2.618,0-4.451,2.16-4.451,7.364s1.833,7.364,4.451,7.364c2.651,0,4.483-2.16,4.483-7.364Z"/><path class="cls-4" d="M530.076,149.372c0,1.768-.393,2.684-1.604,3.207-1.179.491-3.076.557-5.989.557-.131-.851-.622-2.226-1.113-3.044,2.095.099,4.189.065,4.812.033.622,0,.818-.196.818-.786v-9.099h-20.915v12.929h-3.044v-27.887h27.035v24.09ZM506.085,137.229h8.772v-8.936h-8.772v8.936ZM527,137.229v-8.936h-9.132v8.936h9.132Z"/><path class="cls-4" d="M551.773,148.587c1.146-.099,2.095-.263,2.88-.459,4.157-.949,7.855-3.96,7.855-9.197,0-4.713-2.814-8.411-7.79-9.033-.458,2.913-1.047,6.056-1.931,9.099-1.964,6.612-4.647,10.311-7.888,10.311-3.208,0-6.153-3.633-6.153-9.033,0-7.201,6.382-13.452,14.499-13.452,7.79,0,12.732,5.433,12.732,12.241,0,6.774-4.354,11.487-12.274,12.601l-1.931-3.076ZM549.482,138.31c.818-2.554,1.44-5.499,1.768-8.347-5.826.949-9.23,6.022-9.23,10.016,0,3.731,1.67,5.434,2.979,5.434,1.407,0,2.979-2.095,4.484-7.103Z"/><path class="cls-4" d="M596.645,128.687c-.622,1.146-1.179,2.193-1.735,3.077h6.71v17.87c0,1.604-.327,2.521-1.473,3.011-1.179.459-2.946.524-5.597.524-.131-.818-.59-2.128-1.015-2.946,1.964.099,3.862.065,4.418.065.59-.032.753-.196.753-.687v-12.144c-.327,2.095-1.047,2.651-2.717,2.651h-3.044c-2.553,0-3.142-.654-3.142-2.945v-2.75h-3.306c-.393,3.797-1.734,5.826-6.579,6.972-.229-.622-.818-1.604-1.374-2.095v13.812h-2.913v-21.34h6.153c-.328-.982-.818-2.161-1.343-3.077h-6.055v-2.782h12.405v-2.782h3.108v2.782h12.667v2.782h-5.924ZM578.545,139.226c3.927-.785,4.941-2.095,5.236-4.812h-5.236v4.812ZM585.058,149.765v1.898h-2.717v-10.081h12.503v8.183h-9.786ZM591.538,131.764c.524-.884,1.113-2.095,1.506-3.077h-9.295c.556.982,1.047,2.193,1.309,3.077h6.48ZM585.058,143.906v3.567h7.037v-3.567h-7.037ZM598.706,134.414h-6.251v2.717c0,.654.098.72.851.72h2.356c.622,0,.753-.229.852-1.996.458.36,1.439.72,2.192.851v-2.291Z"/><path class="cls-4" d="M610.813,138.833h11.848v14.106h-3.011v-1.473h-5.957v1.702h-2.88v-14.336ZM613.693,141.746v6.808h5.957v-6.808h-5.957ZM633.725,135.658h-18.296v-11.161h18.296v11.161ZM630.615,127.41h-12.274v5.335h12.274v-5.335ZM638.307,138.833v14.172h-3.044v-1.538h-6.48v1.702h-2.913v-14.336h12.438ZM635.263,148.554v-6.808h-6.48v6.808h6.48Z"/><path class="cls-4" d="M659.774,148.587c1.146-.099,2.095-.263,2.88-.459,4.157-.949,7.855-3.96,7.855-9.197,0-4.713-2.814-8.411-7.79-9.033-.458,2.913-1.047,6.056-1.931,9.099-1.964,6.612-4.647,10.311-7.888,10.311-3.208,0-6.153-3.633-6.153-9.033,0-7.201,6.382-13.452,14.499-13.452,7.79,0,12.732,5.433,12.732,12.241,0,6.774-4.354,11.487-12.274,12.601l-1.931-3.076ZM657.483,138.31c.818-2.554,1.44-5.499,1.768-8.347-5.826.949-9.23,6.022-9.23,10.016,0,3.731,1.67,5.434,2.979,5.434,1.407,0,2.979-2.095,4.484-7.103Z"/><path class="cls-4" d="M691.946,142.761c-3.273,1.669-6.809,3.437-9.558,4.746l-1.178-3.044c1.178-.459,2.65-1.08,4.255-1.768v-9.754h-3.601v-2.88h3.601v-6.611h2.814v6.611h3.306v2.88h-3.306v8.51c.981-.458,1.996-.916,3.011-1.375l.655,2.685ZM698.296,138.898c-.36.688-.753,1.342-1.211,1.964h13.681s-.032.753-.065,1.146c-.523,6.546-1.015,9.099-1.898,10.081-.557.622-1.178.818-1.964.916-.753.065-1.964.099-3.272.033-.033-.721-.295-1.801-.688-2.455,1.112.131,2.127.131,2.553.131.491,0,.753-.032,1.015-.36.491-.556.917-2.422,1.31-7.036h-1.964c-1.31,3.796-3.862,7.888-6.579,9.949-.491-.556-1.44-1.276-2.192-1.702,2.553-1.701,4.844-4.941,6.219-8.247h-2.586c-1.768,3.24-4.877,6.709-7.79,8.542-.458-.622-1.31-1.375-2.029-1.833,2.586-1.374,5.27-3.993,7.07-6.709h-2.75c-1.243,1.374-2.618,2.553-4.025,3.502-.426-.491-1.473-1.474-2.062-1.898,2.455-1.407,4.681-3.535,6.187-6.022h-4.189v-2.586h20.456v2.586h-13.223ZM709.228,134.741h-15.121v-10.735h15.121v10.735ZM706.413,126.199h-9.558v2.127h9.558v-2.127ZM706.413,130.389h-9.558v2.16h9.558v-2.16Z"/><path class="cls-4" d="M733.771,123.188c3.503,4.877,9.034,9.197,14.173,11.423-.753.753-1.473,1.801-1.997,2.717-1.734-.916-3.567-2.029-5.302-3.306v2.324h-16.3v-2.226c-1.669,1.243-3.47,2.356-5.27,3.338-.36-.72-1.244-1.8-1.865-2.422,5.597-2.848,10.964-7.757,13.451-11.849h3.109ZM722.48,140.044h20.161v13.157h-3.109v-1.276h-14.074v1.276h-2.978v-13.157ZM740.089,133.629c-3.077-2.291-5.892-4.942-7.725-7.463-1.669,2.422-4.287,5.106-7.364,7.463h15.089ZM725.458,142.793v6.415h14.074v-6.415h-14.074Z"/></g></svg>