<?xml version="1.0" encoding="UTF-8"?><svg id="_レイヤー_2" xmlns="http://www.w3.org/2000/svg" viewBox="0 0 328 146.3"><defs><style>.cls-1{fill:#c1c1c1;stroke-width:0px;}</style></defs><g id="_コンテンツ"><path class="cls-1" d="M37.14,8.34c-9.3,0-16.83,7.54-16.83,16.83s7.54,16.83,16.83,16.83,16.83-7.54,16.83-16.83-7.54-16.83-16.83-16.83ZM31.53,25.18c-3.1,0-5.61-2.51-5.61-5.61s2.51-5.61,5.61-5.61,5.61,2.51,5.61,5.61-2.51,5.61-5.61,5.61Z"/><path class="cls-1" d="M70.89,0H3.11C1.4,0,0,1.4,0,3.11v44.12c0,1.71,1.35,3.11,3,3.11v7.65h7v-8h54v8h7v-7.65c1.65,0,3-1.4,3-3.11V3.11c0-1.71-1.4-3.11-3.11-3.11ZM37.14,47.21c-12.17,0-22.03-9.86-22.03-22.03S24.97,3.15,37.14,3.15s22.03,9.86,22.03,22.03-9.86,22.03-22.03,22.03Z"/><path class="cls-1" d="M328,50V0h-74v50h33v3h-14v5h36v-5h-14v-3h33ZM261,7h61v37h-61V7Z"/><path class="cls-1" d="M77,109.16l-19,6.05v-28.23l19,6.05v16.14ZM134,85h-54v32h54v-32ZM111,118h-7v22h7v-22ZM100.94,123.06l-4.71-4.71-15.31,15.31,4.71,4.71,15.31-15.31ZM118.6,118.35l-4.71,4.71,15.31,15.31,4.71-4.71-15.31-15.31Z"/><path class="cls-1" d="M204.1,11.46c-.51,2.54-2.04,4.6-4.08,5.87l-7.59,27.23-3.41-.68-1.19,5.95-2.03-.41,1.19-5.95-2.56-.51,3.45-28.05c-1.39-1.96-2.01-4.45-1.51-6.99.98-4.89,5.74-8.07,10.63-7.09,4.89.98,8.07,5.74,7.09,10.63ZM165.25,32.69c0,4.14-3.36,7.5-7.5,7.5s-7.5-3.36-7.5-7.5,3.36-7.5,7.5-7.5,7.5,3.36,7.5,7.5ZM161.77,35.06c0-2.22-1.8-4.03-4.03-4.03s-4.03,1.8-4.03,4.03,1.8,4.03,4.03,4.03,4.03-1.8,4.03-4.03ZM175,2.57v44.87c0,1.41-1.15,2.57-2.57,2.57h-28.87c-1.41,0-2.57-1.15-2.57-2.57V2.57c0-1.41,1.15-2.57,2.57-2.57h28.87c1.41,0,2.57,1.15,2.57,2.57ZM147,17h22V7h-22v10ZM169.61,32.69c0-6.55-5.31-11.87-11.87-11.87s-11.87,5.31-11.87,11.87,5.31,11.87,11.87,11.87,11.87-5.31,11.87-11.87Z"/><path class="cls-1" d="M256.51,112.68s-.03,0-.04,0l-6.24-21.85c2.22-1.37,3.7-3.81,3.7-6.6,0-4.29-3.47-7.76-7.76-7.76-3.43,0-6.33,2.22-7.36,5.3l-19.82-4.41c-.21-4.1-3.59-7.36-7.74-7.36s-7.76,3.47-7.76,7.76c0,3.04,1.75,5.67,4.3,6.94l-9.42,21.98c-.83-.3-1.71-.47-2.64-.47-4.29,0-7.76,3.47-7.76,7.76s3.47,7.76,7.76,7.76c1.85,0,3.56-.65,4.89-1.74l16.9,14.59c-.69,1.16-1.09,2.51-1.09,3.96,0,4.29,3.47,7.76,7.76,7.76s7.76-3.47,7.76-7.76c0-.68-.1-1.33-.26-1.96l18.8-11.28c1.42,1.76,3.6,2.89,6.04,2.89,4.29,0,7.76-3.47,7.76-7.76s-3.47-7.76-7.76-7.76ZM253.91,113.13c-1.37.49-2.57,1.35-3.46,2.46l-10.4-4.33c.6-1.57.94-3.27.94-5.05,0-3.63-1.37-6.93-3.6-9.44l5.29-5.62c1.05.53,2.23.83,3.49.83.57,0,1.12-.06,1.65-.18l6.09,21.33ZM223.87,130.8c-1.78.07-3.41.74-4.68,1.81l-16.86-14.56c.71-1.15,1.13-2.5,1.16-3.95l10.08-2.63c1.8,4.51,5.83,7.87,10.73,8.74l-.42,10.59ZM218.69,79.95l19.72,4.38c.03,2.05.85,3.9,2.17,5.28l-5.08,5.4c-2.41-1.88-5.44-3.02-8.74-3.02-1.91,0-3.74.38-5.41,1.07l-4.96-9.51c1.07-.95,1.87-2.19,2.29-3.6ZM210.28,85.45c.32.04.64.07.97.07,1.05,0,2.05-.21,2.96-.59l4.87,9.33c-3.93,2.53-6.53,6.93-6.53,11.95,0,.95.1,1.88.28,2.78l-9.73,2.54c-.47-1.41-1.33-2.65-2.46-3.57l9.65-22.51ZM230.62,134.21c-.98-1.46-2.45-2.56-4.17-3.09l.43-10.69c5.11-.04,9.56-2.77,12.04-6.84l10.28,4.28c-.28.8-.44,1.66-.44,2.56s.17,1.8.46,2.61l-18.6,11.16Z"/></g></svg>