<?xml version="1.0" encoding="UTF-8"?><svg xmlns="http://www.w3.org/2000/svg" xmlns:xlink="http://www.w3.org/1999/xlink" viewBox="0 0 1200 280"><defs><style>.cls-1{fill:#dcdcdc;}.cls-1,.cls-2,.cls-3,.cls-4,.cls-5,.cls-6,.cls-7,.cls-8,.cls-9,.cls-10,.cls-11,.cls-12,.cls-13,.cls-14,.cls-15,.cls-16,.cls-17,.cls-18,.cls-19,.cls-20,.cls-21,.cls-22,.cls-23,.cls-24,.cls-25,.cls-26,.cls-27,.cls-28,.cls-29,.cls-30,.cls-31{stroke-width:0px;}.cls-2{fill:#c85a3a;}.cls-32{clip-path:url(#clippath-2);}.cls-33{isolation:isolate;}.cls-3{fill:#d9dbdb;}.cls-4{fill:#c81d1d;}.cls-5{fill:#c9fbfd;}.cls-6{fill:#1b2d54;}.cls-7{fill:#b0afaf;}.cls-8{fill:#f5f5f5;}.cls-9,.cls-34{fill:none;}.cls-10{fill:#85c6b3;opacity:.58;}.cls-11{fill:#4f4f51;}.cls-35{clip-path:url(#clippath-1);}.cls-12,.cls-27{fill:#edecec;}.cls-13{fill:#303233;}.cls-14{fill:#fff;}.cls-15{fill:#f8f6bb;}.cls-16{fill:#888;}.cls-36{fill:#e6f0f8;stroke-width:.38px;}.cls-36,.cls-34{stroke:#303233;stroke-miterlimit:10;}.cls-17{fill:#555757;}.cls-18{fill:#9f9fa0;}.cls-19{fill:#b74f37;}.cls-37{clip-path:url(#clippath);}.cls-20{fill:#edc6b2;}.cls-21{fill:#d9d9d9;}.cls-22{fill:#565757;}.cls-38{clip-path:url(#clippath-3);}.cls-23{fill:#3bb2a3;}.cls-24{fill:#922223;}.cls-25{fill:#79d82e;}.cls-26{fill:#e5e5e5;}.cls-26,.cls-27,.cls-39{mix-blend-mode:multiply;}.cls-34{stroke-width:1.38px;}.cls-28{fill:#64a45d;}.cls-29{fill:#ff7016;}.cls-30{fill:#de8e71;}.cls-31{fill:#535252;}</style><clipPath id="clippath"><rect class="cls-9" y="60" width="1200" height="220"/></clipPath><clipPath id="clippath-1"><rect class="cls-9" width="1200" height="280"/></clipPath><clipPath id="clippath-2"><rect class="cls-9" x="183.57" y="130.03" width="31.95" height="32.65" transform="translate(45.93 340.37) rotate(-87.89)"/></clipPath><clipPath id="clippath-3"><rect class="cls-9" x="43.12" y="130.15" width="22.76" height="30.89" transform="translate(-93.01 194.69) rotate(-87.88)"/></clipPath></defs><g class="cls-33"><g id="_レイヤー_2"><g id="_コンテンツ"><rect class="cls-23" y="60" width="1200" height="220"/><g class="cls-37"><polygon class="cls-10" points="845 185 940 350 1505 310 1120 -150 845 185"/><polygon class="cls-10" points="415 15 155 360 -75 340 -65 -10 415 15"/></g><path class="cls-13" d="M1084.84,237.01s-.07-7.45,0-7.75,2.21-1.15,4.12-1.19,4.15,1.02,4.32,1.32,0,8.01,0,8.01c0,0-7.12,2.08-8.44-.4Z"/><path class="cls-6" d="M1084.59,236.48h9.01c.07.18.57,16.27-.34,20.11h-26.68s-.31-4.61.52-6.6,3.4-4.6,8.15-4.4c3.67.16,8.81.71,8.81.71l.52-9.82Z"/><path class="cls-26" d="M1084.81,233.15s4.29.61,8.53-.29v-2.23l-8.53-.28v2.8Z"/><path class="cls-13" d="M1109.12,237.01s.07-7.45,0-7.75-2.21-1.15-4.12-1.19-4.15,1.02-4.32,1.32,0,8.01,0,8.01c0,0,7.12,2.08,8.44-.4Z"/><path class="cls-6" d="M1109.37,236.48h-9.01c-.07.18-.57,16.27.34,20.11h26.68s.31-4.61-.52-6.6-3.4-4.6-8.15-4.4c-3.67.16-8.81.71-8.81.71l-.52-9.82Z"/><path class="cls-26" d="M1109.14,233.15s-4.29.61-8.53-.29v-2.23s8.53-.28,8.53-.28v2.8Z"/><path class="cls-18" d="M1126.26,168.35c2.3,1.38,1.16,8.13.32,10.89-.84,2.75-4.12,8.39-4.12,8.39,0,0-8.24-17.09-6.56-19.28,1.68-2.19,7.73-1.59,10.36,0Z"/><path class="cls-18" d="M1065.92,167.41s-16.02,1.96-16.55,2.23-1.78,2.7-1.45,5.21c.33,2.51,1.41,5.3,3.06,5.69,1.65.4,17.84-2.73,21.53-3.45s3.41-6.59,1.7-8.57c-1.7-1.98-6.19-1.37-8.3-1.1Z"/><path class="cls-13" d="M1049.37,169.64c1.17-.23,2.18,2.04,2.64,4.61s.4,5.67-.59,6.2-2.94-1.32-3.55-5.08.6-5.56,1.5-5.74Z"/><path class="cls-18" d="M1047.19,169.97c.92.09,3.18,1.2,3.7,4.29.53,3.09.12,5.78-1.53,6.29s-21.79,3.58-23.65,3.59c-2.79,0-3.8-3.48-3.67-7.01s.95-5.41,2.79-5.81,20.38-1.53,22.36-1.33Z"/><path class="cls-13" d="M1021.75,178.41c-.24-2.52.36-6.53,2.98-7.06s3.65,3.7,3.82,6.55c.12,1.98-.06,5.96-3.02,6.24s-3.6-3.88-3.78-5.73Z"/><path class="cls-18" d="M999.86,164.5c1.19-1.37,23.62,5.93,25.28,7.06,1.09.75,2.56,2.5,2.56,6.85,0,2.97-.88,4.55-2.56,5.21-1.41.55-29.65-4.34-30.54-5.71-1.17-1.8,1.19-8.73,5.26-13.41Z"/><path class="cls-13" d="M995.06,171.01c1.44-4.15,3.64-6.71,5.13-6.59s1.48,3.56-.39,7.86c-1.52,3.5-3.29,5.67-4.74,5.8-1.46.13-.88-4.56,0-7.07Z"/><path class="cls-18" d="M982.82,153.64c.86-.68,14.89,6.7,17.14,11.39.91,1.89-1.13,10.77-6.45,13.05-1.8.77-8.96.47-13.62-1.91-4.25-2.17-5.74-3.86-5.74-3.86,0,0-.33-11.55,8.67-18.67Z"/><path class="cls-13" d="M979.18,166.97c1.82-3.25,3.05-6.94,3.63-10.51.13-.83.23-1.66.28-2.5.09-1.49-3.76,1.77-6.03,6.27-1.76,3.5-3.13,6.76-3.14,10.72,0,.42.01,1.24.41,1.54.64.28,2.35-1.81,2.93-2.58.7-.92,1.33-1.91,1.91-2.95Z"/><path class="cls-18" d="M962.77,139.5c1-.88,3.15-.29,5.7,1.51,2.75,1.94,13.43,12.52,13.89,13.98.45,1.47-.02,4.49-2.02,5.37-1.14.5-7.72-5.04-10.4-8-2.68-2.97-9.23-11.02-7.16-12.85Z"/><path class="cls-18" d="M953.35,147.74c.74-1.03,6.5,1.27,11.25,3.91s14.88,9.04,15.3,9.51.83,2.05-.28,3.48c-.85,1.09-1.55,1.84-2.82,2.02-.79.12-15.3-8.55-16.9-9.57-1.6-1.02-8.71-6.34-6.54-9.35Z"/><path class="cls-18" d="M951.51,161.91c.8-2.82,7.11-1.05,12,.11,5.28,1.25,13.13,5.02,13.13,5.02,0,0,.44,2.92-2.06,5.08,0,0-11.68-3.11-14.45-4.19-2.78-1.08-9.45-3.08-8.62-6.03Z"/><path class="cls-26" d="M1119.69,169.62s4.21,10.62,7.28,8.1c0,0-.35,2.28-2.41,6.05,0,0-8.65-11.84-4.87-14.15Z"/><path class="cls-26" d="M1052.23,178.41s21.44-2.78,25.45-4.32l-7.29,3.41s-17.03,3.39-19.36,3.04c0,0,1.05.14,1.2-2.13Z"/><path class="cls-26" d="M1025.7,184.12s1.34-.14,2.13-1.56c0,0,19.63-2.8,22.96-3.6,0,0-.2.63-.51.96-.51.55-.69.57-1.33.73-.53.14-9.63,1.61-16.33,2.59-3.43.5-6.22.95-6.93.88Z"/><path class="cls-26" d="M997.44,176.39s20.93,4.96,29.35,5.93c0,0-.58.95-1.8,1.34,0,0-1.15-.04-1.66-.09s-6.21-.73-6.74-.92c0,0-4.8-.76-6.93-1.17-.47-.09-5.19-.95-7.22-1.39-.37-.08-3.66-.78-5-1.15-1.72-.47-2.56-.71-2.8-.99,0,0,1.31.31,2.8-1.56Z"/><path class="cls-26" d="M977.59,169.47s3.83,3.49,8.28,5.22,8.98,1.95,10.19,1.59c0,0-1.3,1.3-2.56,1.8s-4.22.51-7.06.05c-2.85-.46-5.24-.92-9.37-3.57,0,0-1.87-1.18-2.74-2.07,0,0,.42.54,3.26-3.03Z"/><path class="cls-26" d="M951.51,162.91s3.34,2.34,7.85,3.92,14.95,4.29,16.07,4.39l-.43.5-.43.41s-11.79-3.08-15.83-4.7c-2.87-1.15-6.6-2.48-7.24-4.51Z"/><path class="cls-26" d="M953.02,148.45s2.03,6.46,25.31,17.68c0,0-.63.51-1.53.53,0,0-1.98-.89-2.65-1.25s-6.08-3.45-6.66-3.79-7.41-4.39-7.99-4.8-3.48-2.64-4.47-3.86-2.35-2.53-2.02-4.51Z"/><path class="cls-26" d="M962.77,139.5s2.45,10,18.22,20.45c0,0-.58.59-1.09.4-1.15-.44-2.7-1.52-3.65-2.28s-2.98-2.44-3.61-3.03-2.87-2.74-4.4-4.64c-.93-1.16-3.58-4.43-4.56-6.33-1.01-1.97-1.86-3.54-.91-4.57Z"/><path class="cls-1" d="M1073.04,169.24s-16.22,50.43-16.61,52.01c-.4,1.58,7.22,7.23,16.61,8.8,17.11,2.87,25.91,0,25.91,0l-7.42-53.3-7.12-9.2s-8.31-.89-11.37,1.68Z"/><path class="cls-13" d="M1057.49,217.8c-.62,1.98-1.01,3.23-1.07,3.46-.4,1.58,7.22,7.23,16.61,8.8,17.11,2.87,25.91,0,25.91,0l-.56-4.04s-10.71,2.86-24.36.48c-10.01-1.74-16.53-8.7-16.53-8.7Z"/><path class="cls-26" d="M1082.22,186.75l16.03,43.31s-1.87.58-3.29.8c0,0-12.82-38.18-12.74-44.11Z"/><path class="cls-1" d="M1075.25,168.75s21.12,62.18,22.09,63.18c0,0,30.06,3.68,39.92-11.03,0,0-16.05-46.97-18.22-53.15-2.17-6.18-40.45-7.86-43.79,1Z"/><path class="cls-13" d="M1095.87,228.28c.7,1.88,1.35,3.52,1.47,3.65,0,0,30.06,3.68,39.92-11.03,0,0-.42-1.24-1.14-3.35,0,0-4.05,6.38-16.7,9.54-11.59,2.9-23.54,1.19-23.54,1.19Z"/><path class="cls-26" d="M1073.04,169.24s12.47,10.78,29.58,10.58c17.11-.2,17.44-9.32,16.43-12.08-1.01-2.76-42.54-11.26-46.01,1.49"/><path class="cls-18" d="M1045.19,90.17c3.66-1.96,20.76-4.95,49.81-5.16s49.17,3.01,52.82,5.16c3.66,2.15,9.27,8.86,11.24,22.9,1.98,14.04,1.04,43.72-5.01,50.68-4.04,4.65-28.22,7.66-58.87,7.46-30.65-.2-55.66-3.66-58.82-9.4-2.39-4.33-4.66-26.89-3.08-40.7,1.39-12.16,4.82-27.15,11.9-30.95Z"/><ellipse class="cls-13" cx="1126.22" cy="123.97" rx="25.24" ry="29.37"/><ellipse class="cls-11" cx="1126.54" cy="120.73" rx="16.68" ry="18.29"/><path class="cls-5" d="M1112.96,116.41s-.95,7.8,2.27,12.24c3.22,4.45,7.57,7.17,12.28,6.5s8.99-4.16,10.38-7.21c1.4-3.05,1.51-4.58,1.51-4.58,0,0-24.36-8.43-26.44-6.95Z"/><path class="cls-13" d="M1118.08,115.63c-2.31,4.94-.7,11.62,4.41,14.09,8.62,4.17,17.35-6.79,11.63-14.37-.03-.04-.06-.08-.09-.12-1.31-1.68-3.19-2.8-5.26-3.25-4.52-.99-8.94-.1-10.69,3.65Z"/><path class="cls-15" d="M1113.35,116.03s3.02-14.37,16.36-10.08c11.51,3.71,10.03,17.41,10.03,17.41,0,0-24.78-6.44-26.39-7.33Z"/><path class="cls-34" d="M1126.46,105.35c10.39.42,16.15,13.52,11.83,22.27-3.83,7.75-14.07,9.75-20.55,4.02-4.7-4.15-6.24-11.72-3.84-17.47,2.04-4.88,7.1-9.04,12.55-8.83Z"/><path class="cls-34" d="M1111.49,115.63c.05.02,19.58,4.02,29.73,8.34"/><path class="cls-29" d="M1070.51,85.97v5.78c0,1.47-1.32,2.67-2.94,2.67s-2.94-1.19-2.94-2.67v-5.26c.24-.03.71-.11,2.89-.32,1.32-.13,2.75-.19,2.99-.2Z"/><path class="cls-25" d="M1058.53,87.2v5.29c0,1.55-1.32,2.8-2.95,2.8s-2.95-1.26-2.95-2.8v-4.36c.48-.13,1.2-.26,2.62-.5,1.99-.33,3.28-.43,3.28-.43Z"/><path class="cls-31" d="M1094.96,171.23v-10.3c0-1.19,1.07-2.16,2.38-2.16h0c1.31,0,2.38.97,2.38,2.16v10.3h-4.76Z"/><path class="cls-31" d="M1087.19,171.09v-9.51c0-1.19,1.07-2.16,2.38-2.16h0c1.31,0,2.38.97,2.38,2.16v9.64s-4.76-.13-4.76-.13Z"/><path class="cls-31" d="M1107.37,171.09v-9.51c0-1.19-1.07-2.16-2.38-2.16h0c-1.31,0-2.38.97-2.38,2.16v9.64s4.76-.13,4.76-.13Z"/><path class="cls-31" d="M1079.84,170.87v-8.28c0-1.19,1.07-2.16,2.38-2.16h0c1.31,0,2.38.97,2.38,2.16v8.41s-4.76-.13-4.76-.13Z"/><path class="cls-31" d="M1114.9,170.88l.03-8.29c0-1.19-1.07-2.16-2.38-2.16h0c-1.31,0-2.38.97-2.38,2.16v8.41s4.73-.13,4.73-.13Z"/><path class="cls-13" d="M1032.75,131.21v-1.36c.1-.09,1.49-1.71,4.87-2.32,3.25-.58,63.23-2.3,65.78-2.38l.03,1.19c-.62.02-62.44,1.79-65.61,2.36-3.01.54-5.06,2.49-5.08,2.51Z"/><path class="cls-13" d="M1148.05,126.34l-.03-1.19c.44-.01,10.17.03,11.94.33l.04,1.21c-1.38-.23-8.98-.43-11.95-.35Z"/><path class="cls-26" d="M1158.55,150.59c-.96,6.12-2.43,10.8-4.49,13.17-4.04,4.65-28.22,7.66-58.87,7.46-30.65-.2-55.66-3.66-58.82-9.4-1.1-1.99-2.17-7.48-2.85-14.53.43.59,2.8,9.52,12.03,13.14,16.15,6.33,35.08,6.29,45.75,6.57,13.82,0,43.56.8,55.64-5.93,7.67-4.28,11.61-10.48,11.61-10.48.2,0,0,0,0,0Z"/><g class="cls-35"><path class="cls-21" d="M94.62,178.58s-6.52,12.07-8.15,21.01-33.05,102.54-58.25,112.56c-25.2,10.03-42.62,36.03-11.63,37.45,30.99,1.42,49.33-13.54,59.14-43.34s18.9-127.68,18.9-127.68Z"/><path class="cls-21" d="M159.09,182.21c8.44-5.78,42.09-55.31,39.69-81.67-2.4-26.36-14.51-94.06,10.07-95.48,24.58-1.43,40.26,23.84,25.3,77.47-14.96,53.64-37.89,107.4-75.06,108.84v-9.16Z"/><path class="cls-27" d="M234.45,42.83c-3.35-3.87-7.21-7-11.28-9.9-4.84-1.88-9.73-3.56-14.9-4.17,3.08,4.47,10.83,5.54,14.94,8.75.48.37.04,1.06-.45,1.09-2.73.17-5.44-.37-8.13.12,2.55,3.05,7.13,3.85,10.58,5.57,3.47,1.74,6.81,3.85,9.47,6.71.69.74,1.34,1.5,1.97,2.28.22-2.43-1.26-9.36-2.21-10.45Z"/><path class="cls-27" d="M200.82,121.73c-.75-7,.23-15.43,6.78-19.34-4.61-5.54-7.44-11.47-10.06-18.18-.28-.71-.55-1.43-.82-2.15.83,7.14,1.62,13.54,2.07,18.48,2.4,26.36-31.25,75.89-39.69,81.67v9.16c22.34-.87,39.54-20.65,52.96-47.94-6.06-5.64-10.35-13.47-11.23-21.71Z"/><path class="cls-8" d="M202.46,43.32c-5.67,6.39-13.29-9.02-8.23-18,5.06-8.98,15.68,9.6,8.23,18Z"/><path class="cls-4" d="M164.1,180.94c3.56,13.82,3.97,44.24,6.06,62.16,2.08,17.92-1.28,46.68-6.06,64.18-4.78,17.5-8.53,33.76-8.53,33.76,0,0,22.92-6.25,38.34,0,15.42,6.25,7.92,23.34,0,25.01-7.92,1.67-49.35,10.42-51.35-13.34-2-23.75,3-61.58-13.25-61.26-11.58.22-11.53,44.28-9.05,52.2,2.48,7.92,3.72,24.17-12.32,23.34-16.04-.83-53.71,3.34-47.95-19.83,4.68-18.82,39.78-6.3,39.78-6.3,0,0-.37-24.09-5.79-44.1-5.42-20-10.28-87.41.85-117.42l69.25,1.6Z"/><path class="cls-27" d="M115.33,202.14c4.48-.1,8.9-.58,13.36-1.03,3.51-.36,6.67-1.02,9.9.65,2.87,1.49,3.79,6.29,4.26,9.05.9,5.33,2.06,10.86,7.62,13.25,5.69,2.45,12.18,1.96,18.12-.09-1.05-15.86-2.01-33.44-4.48-43.03l-69.25-1.6c-1.46,3.95-2.64,8.55-3.59,13.6,5.61,7.39,14.8,9.42,24.07,9.2Z"/><path class="cls-7" d="M141.44,210.25c0-5.29,4.29-9.58,9.58-9.58s9.58,4.29,9.58,9.58-4.29,9.58-9.58,9.58-9.58-4.29-9.58-9.58Z"/><polygon class="cls-21" points="151.01 219.83 143.16 214.67 153.97 201.41 159.85 205.33 151.01 219.83"/><path class="cls-28" d="M152,226.21c0,1.76-.77,3.2-1.72,3.2s-1.72-1.43-1.72-3.2.77-3.19,1.72-3.19,1.72,1.43,1.72,3.19Z"/><path class="cls-2" d="M159.36,225.97c0,1.9-.77,3.44-1.72,3.44s-1.72-1.54-1.72-3.44.77-3.44,1.72-3.44,1.72,1.54,1.72,3.44Z"/><path class="cls-24" d="M201.81,159.62s-2.33,12.09-20.56,15.42l1.55-17.5,19.01,2.08Z"/><g class="cls-32"><path class="cls-4" d="M183.24,145.75c.32-8.82,7.89-15.69,16.9-15.36,9.01.33,16.05,7.75,15.73,16.57-.33,8.82-7.89,15.69-16.91,15.36-9.01-.33-16.05-7.75-15.72-16.56"/></g><path class="cls-24" d="M51.74,153.99s6.56,16.04,30.16,19.38l7.14-12.92-37.3-6.46Z"/><path class="cls-4" d="M71.87,141.64c-.32,8.82-7.89,15.7-16.91,15.36-9.01-.33-16.05-7.75-15.73-16.56.32-8.82,7.89-15.69,16.91-15.36,9.02.33,16.06,7.74,15.73,16.56"/><g class="cls-39"><g class="cls-38"><path class="cls-12" d="M53.94,146.19c-5.61-2.6-9.86-7.19-12.89-12.47-1.07,2.02-1.72,4.3-1.81,6.72-.33,8.82,6.71,16.23,15.73,16.56,6.36.24,11.98-3.12,14.87-8.21-5.42.44-10.83-.26-15.9-2.6"/></g></g><path class="cls-16" d="M162.43,50.23c.06.05.12.1.18.15l-19.71,25.05-.58-2.47,20.11-22.73Z"/><path class="cls-21" d="M165.03,50.21c.38-1.2-.28-2.48-1.48-2.87-1.2-.38-2.48.28-2.87,1.48-.38,1.21.28,2.49,1.48,2.87,1.2.38,2.48-.28,2.87-1.48"/><path class="cls-16" d="M98.94,47.88c-.07.05-.13.09-.19.14l17.81,26.43.76-2.42-18.38-24.15Z"/><path class="cls-21" d="M96.36,47.67c-.29-1.22.46-2.46,1.69-2.75,1.22-.29,2.45.46,2.75,1.69.29,1.23-.46,2.46-1.69,2.75-1.23.29-2.46-.46-2.75-1.69"/><path class="cls-21" d="M128.66,103.97c-11.34-.42-20.21-9.37-19.82-19.99.39-10.63,9.9-18.9,21.24-18.48,11.33.42,20.2,9.37,19.81,19.99-.39,10.62-9.9,18.9-21.23,18.48"/><g class="cls-39"><path class="cls-12" d="M115.37,70.59c-3.85,3.35-6.33,8.07-6.52,13.39-.39,10.62,8.48,19.57,19.81,19.99,11.34.42,20.84-7.86,21.24-18.48.09-2.49-.34-4.87-1.18-7.08-11.5,5.52-27.8,3.89-33.35-7.82"/></g><path class="cls-22" d="M201.75,139.5c-1.49-31.56-26.54-45.63-46.74-51.85-5.25-2.05-12.05-3.58-19.65-4.27-2.9-.38-4.87-.52-5.58-.57h0s-.6-.03-.6-.03h0c-.79,0-3.95,0-8.6.38-3.96.24-7.66.73-10.98,1.43-20.94,3.72-51.54,15.04-55.72,49.46-4.56,37.51,33.63,46.85,56.34,49.11,5.02.77,10.33,1.28,15.84,1.49,5.51.2,10.85.08,15.91-.32,22.81-.58,61.58-7.08,59.8-44.82"/><path class="cls-3" d="M126.01,185.3c-5.39-.2-10.74-.7-15.91-1.5-16.26-1.62-38.1-6.56-49.59-20.91-6.23-7.77-8.69-17.5-7.29-28.92,4.33-35.61,37.11-46.62,56.26-50.02,3.38-.71,7.11-1.2,11.06-1.44,3.92-.33,6.82-.37,8.12-.37v-.02s1.8.05,1.8.05v.04c.97.07,2.69.23,4.99.53,7.47.67,14.33,2.16,19.81,4.31,20.66,6.36,45.65,20.64,47.16,52.43.54,11.49-2.62,21.01-9.4,28.3-12.52,13.47-34.67,16.79-51.04,17.2-5.18.4-10.56.51-15.95.31ZM129.36,83.44h-.2c-.85,0-3.99-.01-8.54.37-3.89.24-7.56.71-10.91,1.41-22.98,4.08-51.19,15.87-55.21,48.9-1.34,11.06,1.02,20.45,7.02,27.95,11.2,14,32.69,18.84,48.74,20.44,10.31,1.58,21.31,1.98,31.63,1.17,16.16-.41,37.94-3.66,50.15-16.79,6.54-7.03,9.59-16.23,9.06-27.35-1.47-31.03-25.98-45.01-46.29-51.27-5.41-2.11-12.14-3.57-19.52-4.23-2.92-.38-4.86-.53-5.56-.58l-.37-.02Z"/><path class="cls-14" d="M186.92,136.06c-1.19-25.18-21.18-36.41-37.3-41.38-4.19-1.63-9.61-2.85-15.68-3.4-2.31-.3-3.88-.43-4.45-.46h0s-.48-.03-.48-.03h0c-.63,0-3.15,0-6.86.31-3.16.19-6.11.58-8.77,1.14-16.71,2.97-41.12,12.01-44.46,39.46-3.64,29.92,26.84,37.38,44.95,39.18,4.01.62,8.24,1.03,12.64,1.19,4.4.16,8.65.06,12.69-.26,18.19-.46,49.13-5.65,47.72-35.76"/><path class="cls-36" d="M142.86,112.15c-.09,4.95-1.68,8.94-3.56,8.9s-3.33-4.08-3.24-9.03c.08-4.94,1.68-8.93,3.56-8.9,1.88.03,3.33,4.07,3.24,9.03"/><path class="cls-13" d="M140.28,113.75c.1,3.49-.78,6.35-1.97,6.39-1.18.03-2.22-2.78-2.32-6.27-.1-3.49.79-6.35,1.97-6.38,1.19-.03,2.22,2.77,2.32,6.26"/><path class="cls-17" d="M125.69,119.86l5.28-1.96-2.47,7.08s-1.97-5.28-2.81-5.12"/><path class="cls-36" d="M114.08,110.4c-.92,4.87-.17,9.09,1.68,9.44,1.85.35,4.09-3.32,5-8.18.91-4.87.16-9.09-1.68-9.45-1.85-.34-4.09,3.32-5.01,8.18"/><path class="cls-13" d="M116.28,112.49c-.8,3.4-.52,6.38.63,6.65,1.15.27,2.74-2.26,3.54-5.66.8-3.4.52-6.38-.63-6.65-1.15-.28-2.74,2.26-3.54,5.66"/><path class="cls-20" d="M85.55,121.48c.18-3.18,2.91-5.62,6.09-5.43,3.18.18,5.61,2.91,5.43,6.09-.18,3.18-2.91,5.61-6.09,5.43-3.18-.18-5.61-2.91-5.43-6.09"/><path class="cls-20" d="M163.78,125.35c.19-3.18,2.91-5.61,6.1-5.43,3.18.18,5.61,2.91,5.43,6.09-.18,3.18-2.91,5.61-6.09,5.43-3.18-.18-5.61-2.91-5.43-6.09"/><path class="cls-30" d="M111.71,129.25s-5.08,20.56,16.49,22.04c20.02,1.13,16.33-21.71,16.33-21.71,0,0-7.85,5.02-15.9,4.53-8.04-.49-12.11-2.02-16.93-4.85Z"/><path class="cls-19" d="M117.91,147.87s-.14-4.23,10.66-3.94c10.21.28,9.09,5.26,9.09,5.26,0,0-1.39,2.17-9.46,2.1-8.18-.07-10.29-3.42-10.29-3.42Z"/><path class="cls-13" d="M110.59,127.73s-.81,3.12-3.64,5.37c0,0,3-1.17,3.98-3.88,0,0,6.97,5.66,18.39,5.2,11.33-.46,16.32-5.3,16.32-5.3,0,0,.66,3.47,3.3,3.76,0,0-2.39-1.95-2.48-5.01,0,0-7.29,5.92-17.13,5.86-9.82-.07-14.14-2.88-18.75-6Z"/><path class="cls-13" d="M111.42,129.24s-4.34,21.67,17.45,22.57c19.58-.46,16.07-22.51,16.07-22.51l-.71.46s3.52,21.86-15.43,21.26c-18.95-.6-17.65-17.07-16.8-21.47l-.58-.31Z"/></g></g></g></g></svg>