<?xml version="1.0" encoding="UTF-8"?><svg id="_レイヤー_2" xmlns="http://www.w3.org/2000/svg" viewBox="0 0 33.75 30"><defs><style>.cls-1{fill:#fff;}.cls-1,.cls-2{stroke-width:0px;}.cls-2{fill:#3bb2a3;}</style></defs><g id="PC"><circle class="cls-2" cx="15" cy="15" r="15"/><path class="cls-2" d="M26.25,18.28s3.75,7.5,7.5,7.5c0,0,0,3.75-11.25,0l3.75-7.5Z"/><path class="cls-1" d="M12.05,19.35l-.64,1.95c-.38,1.12-.55,1.61-1.63,1.61-.57,0-1.84-.25-1.84-1.29,0-.38.11-.68.34-1.31l4.05-10.94c.44-1.17.83-2.29,2.69-2.29s2.25,1.15,2.67,2.29l4.03,10.94c.23.62.34.95.34,1.32,0,.97-1.15,1.27-1.85,1.27-1.06,0-1.23-.49-1.61-1.61l-.66-1.95h-5.89ZM17.03,16.67l-2.03-6.06-2.03,6.06h4.05Z"/></g></svg>