<?xml version="1.0" encoding="UTF-8"?><svg id="_レイヤー_2" xmlns="http://www.w3.org/2000/svg" viewBox="0 0 62.58 55.62"><defs><style>.cls-1{fill:#dd6743;}.cls-1,.cls-2{stroke-width:0px;}.cls-2{fill:#fff;}</style></defs><g id="PC"><circle class="cls-1" cx="27.81" cy="27.81" r="27.81"/><path class="cls-2" d="M37.98,38.3c.61.73.9,1.06.9,1.76,0,1.44-1.5,2.3-2.69,2.3-.83,0-1.21-.45-1.92-1.31l-1.57-1.92c-.32.13-2.27.86-4.92.86-7.29,0-13.24-5.44-13.24-13.37s5.88-13.37,13.27-13.37,13.27,5.5,13.27,13.37c0,3.49-1.18,7.26-4.38,10.14l1.28,1.53ZM27.78,33.06c-.58-.7-.93-1.12-.93-1.76,0-1.02,1.12-2.24,2.59-2.24.86,0,1.15.38,1.79,1.15l2.08,2.49c1.6-1.63,2.33-4.03,2.33-6.08,0-4.35-3.07-8.38-7.83-8.38s-7.83,4.03-7.83,8.38,3.1,8.38,7.83,8.38c.7,0,1.15-.06,1.44-.13l-1.47-1.82Z"/><path class="cls-1" d="M48.67,33.9s6.95,13.91,13.91,13.91c0,0,0,6.95-20.86,0l6.95-13.91Z"/></g></svg>