<svg xmlns="http://www.w3.org/2000/svg" width="55" height="40.27" viewBox="0 0 55 40.27"><path fill="#172449" d="M31.26,4.27a4.39,4.39,0,0,1,2.1.41l.25.17c.46.32.19.79-.69,1.13l-2.29.9,11,7.31c1,.59,1.19,1.48.36,2.17l-.78.64a6.06,6.06,0,0,1-3.49.93A6.87,6.87,0,0,1,34,17.06L24.32,9.28,15.09,12.7a7.9,7.9,0,0,1-3.77.23,4.07,4.07,0,0,1-2.73-1.37l-.25-.41c-.42-.73.18-1.47,1.44-1.8L28.43,4.53a10.91,10.91,0,0,1,2.83-.26m7-.71c0-.57-1-1-2.27-1s-2.26.46-2.26,1,1,1,2.26,1,2.27-.46,2.27-1M27.5,0C42.09,0,53.92,5.23,53.92,11.68S42.09,23.36,27.5,23.36,1.08,18.13,1.08,11.68,12.91,0,27.5,0m0,21.74c13.13,0,23.78-4.7,23.78-10.51S40.63.72,27.5.72,3.72,5.43,3.72,11.23,14.37,21.74,27.5,21.74M.8,27.1c-.44,0-.8.22-.8.48s.36.47.8.47.79.21.79.47v2.82c0,.26.36.47.8.47s.8-.21.8-.47V28.52c0-.26.36-.47.79-.47s.8-.22.8-.47-.36-.48-.8-.48Zm10.36,0c.43,0,.79.22.79.48v3.76c0,.26-.36.47-.79.47s-.8-.21-.8-.47v-.95c0-.26-.36-.47-.8-.47s-.8.21-.8.47v.95c0,.26-.35.47-.79.47s-.8-.21-.8-.47V27.58c0-.26.36-.48.8-.48Zm-.8,1.41c0-.25-.36-.46-.8-.46s-.8.21-.8.46.36.47.8.47.8-.21.8-.47M29.49,27.1c-.44,0-.8.22-.8.48v3.76c0,.26.36.47.8.47s.79-.21.79-.47V28.52c0-.26.36-.47.8-.47s.8.21.8.47v2.82c0,.26.36.47.79.47s.8-.21.8-.47V27.58c0-.26-.36-.48-.8-.48Zm-7.18,0c-.44,0-.79.22-.79.48v3.76c0,.26.35.47.79.47H25.5c.44,0,.8-.21.8-.47s-.36-.47-.8-.47H23.91c-.44,0-.8-.21-.8-.47s.36-.47.8-.47H25.5c.44,0,.8-.21.8-.47s-.36-.47-.8-.47H23.91c-.44,0-.8-.21-.8-.47h0c0-.26.36-.47.8-.47H25.5c.44,0,.8-.22.8-.47s-.36-.48-.8-.48Zm-4,0a1.07,1.07,0,0,0-1,.27l-1,1.2L16,29V27.58c0-.26-.36-.48-.8-.48s-.8.22-.8.48v3.76c0,.26.36.47.8.47s.8-.21.8-.47V30.4c0-.26.35-.47.79-.47s.8.21.8.47v.94c0,.26.36.47.8.47s.79-.21.79-.47V29.46c0-.26-.35-.47-.79-.47s-.64-.19-.44-.42l.73-.86c.2-.23.13-.5-.28-.61M47,27.1a1,1,0,0,0-1,.27l-1,1.2-.35.42a3.93,3.93,0,0,1,0-.47v-.94c0-.26-.36-.48-.79-.48s-.8.22-.8.48v3.76c0,.26.36.47.8.47s.79-.21.79-.47V30.4c0-.26.36-.47.8-.47s.8.21.8.47v.94c0,.26.36.47.79.47s.8-.21.8-.47V29.46c0-.26-.36-.47-.79-.47s-.64-.19-.44-.42l.73-.86c.2-.23.12-.5-.29-.61m-7.17,0c.44,0,.8.22.8.48v3.76c0,.26-.36.47-.8.47s-.8-.21-.8-.47v-.95c0-.26-.36-.47-.79-.47s-.8.21-.8.47v.95c0,.26-.36.47-.8.47s-.8-.21-.8-.47V27.58c0-.26.36-.48.8-.48Zm-.8,1.41c0-.25-.36-.46-.79-.46s-.8.21-.8.46.36.47.8.47.79-.21.79-.47M54.2,27.1c.44,0,.8.22.8.48v3.76c0,.26-.36.47-.8.47s-.79-.21-.79-.47v-.95c0-.26-.36-.47-.8-.47s-.8.21-.8.47v.95c0,.26-.36.47-.8.47s-.79-.21-.79-.47V27.58c0-.26.36-.48.79-.48Zm-.79,1.41c0-.25-.36-.46-.8-.46s-.8.21-.8.46.36.47.8.47.8-.21.8-.47m-44.5,7.7-.49.57v1.51l.5.57h1.74l.49-.56V36.79l-.51-.58Zm12,0v2.59h1.72l.54-.54v-1.5l-.54-.55Zm5.48-1.39v5.42H.36V34.85ZM6.54,38.55,3.83,36.38,4,36.21H5.52l.39.4.5-.49-.55-.56H3.56l-.72.95L5.53,38.7l-.12.16H3.72l-.41-.4-.5.49.57.57H5.79Zm5.26-2-.86-1H8.64l-.86,1v2l.86,1h2.3l.86-1Zm4.69,2.27H14.13V35.58h-.7v3.91h3.06Zm2-3.23h-.71v3.91h.71Zm5.39,1-1-1H20.18v3.91H23l1-1Zm9.14,1.11v.59a.26.26,0,0,1-.07.16l-.28.27a.22.22,0,0,1-.31,0l-.78-.79a.24.24,0,0,1-.07-.16v0l-.73,0a.2.2,0,0,1-.06.15l-.77.78a.22.22,0,0,1-.32,0l-.28-.28a.24.24,0,0,1-.07-.16v-.34l-.72.11v.55a.21.21,0,0,0,.07.15l.78.82a.51.51,0,0,0,.72,0l.85-.89a.22.22,0,0,1,.32,0l.86.89a.51.51,0,0,0,.72,0l.79-.82a.21.21,0,0,0,.07-.15v-.89Zm-3.74-1.72a.22.22,0,0,0-.22-.23h-.27a.23.23,0,0,0-.23.23v1.63l.72-.11Zm2.23.25a.22.22,0,0,0-.22-.23H31a.22.22,0,0,0-.22.23v1.13l.72-.05Zm2.23,1v-1.3a.23.23,0,0,0-.23-.23h-.27a.22.22,0,0,0-.22.23v1.3Zm2.54.66a.22.22,0,0,1-.21-.15l-.71,0v1.69a.22.22,0,0,0,.22.22h.25a.22.22,0,0,0,.23-.22v-.66a.22.22,0,0,1,.22-.22h2a.22.22,0,0,1,.22.22v.66a.22.22,0,0,0,.23.22H39a.22.22,0,0,0,.23-.22V38l-1.17-.12Zm-.22-.71a.25.25,0,0,1,.06-.16l.64-.62a.2.2,0,0,1,.15-.06h.77a.22.22,0,0,1,.15.06l.63.63a.2.2,0,0,1,.07.16v.32l.71.07v-.65a.25.25,0,0,0-.06-.16l-1-1a.24.24,0,0,0-.16-.07h-1.4a.24.24,0,0,0-.16.07l-1,1a.23.23,0,0,0-.06.16v.34l.7,0Zm6.83-.59a.22.22,0,0,1,.22-.23h.69a.23.23,0,0,1,.15.07l.21.21a.22.22,0,0,0,.32,0l.2-.2a.22.22,0,0,0,0-.32l-.35-.35a.26.26,0,0,0-.16-.07H40.93a.26.26,0,0,0-.16.07l-.35.35a.22.22,0,0,0,0,.32l.19.2a.22.22,0,0,0,.32,0l.21-.21a.24.24,0,0,1,.16-.07H42a.23.23,0,0,1,.23.23V38l.71.07Zm-.71,2.8a.22.22,0,0,0,.22.22h.26a.22.22,0,0,0,.23-.22v-1l-.71-.07ZM46.88,38h.29c.62-.07,1.23-.15,1.81-.25v-.21a.23.23,0,0,0-.23-.23H46.88a.22.22,0,0,1-.22-.22v-.48a.22.22,0,0,1,.22-.22H49a.22.22,0,0,0,.22-.23v-.21A.22.22,0,0,0,49,35.7h-2.8a.23.23,0,0,0-.23.23v2.14c.27,0,.54,0,.8-.06A.28.28,0,0,1,46.88,38ZM46,39.39a.22.22,0,0,0,.23.22H49a.22.22,0,0,0,.23-.22v-.22A.22.22,0,0,0,49,39H46.88a.22.22,0,0,1-.22-.23v-.28l-.71.05Zm5.53-2.8a.23.23,0,0,1,.23-.23h1.76a.23.23,0,0,1,.15.07l0,0,.7-.27-.41-.42a.24.24,0,0,0-.16-.07H51a.22.22,0,0,0-.22.23v1.42l.71-.19Zm2.43.22v.37a.26.26,0,0,1-.07.17l-.35.33a.18.18,0,0,1-.15.07H51.71a.23.23,0,0,1-.22-.16l-.72.19v1.61a.22.22,0,0,0,.22.22h.27a.22.22,0,0,0,.22-.22v-.77a.23.23,0,0,1,.23-.23h1.64a.2.2,0,0,1,.16.07l.32.32a.2.2,0,0,1,.07.16v.45a.22.22,0,0,0,.22.22h.28a.22.22,0,0,0,.23-.22v-.7a.24.24,0,0,0-.07-.16l-.33-.33a.22.22,0,0,1,0-.32l.35-.35a.23.23,0,0,0,.06-.16v-.85Z"/></svg>
