<?xml version="1.0" encoding="utf-8"?>
<!-- Generator: Adobe Illustrator 28.0.0, SVG Export Plug-In . SVG Version: 6.00 Build 0)  -->
<svg version="1.1" xmlns="http://www.w3.org/2000/svg" xmlns:xlink="http://www.w3.org/1999/xlink" x="0px" y="0px"
	 viewBox="0 0 97.6 68.7" style="enable-background:new 0 0 97.6 68.7;" xml:space="preserve">
<style type="text/css">
	.st0{fill:#172449;}
	.st1{fill:#FFFFFF;}
</style>
<g id="レイヤー_2">
</g>
<g id="レイヤー_1">
	<g>
		<g>
			<path class="st0" d="M55.5,7.6c-1.8-0.1-3.6,0.1-5,0.5l-33.1,8.6c-2.2,0.6-3.3,1.9-2.6,3.2l0.4,0.7c0.7,1.1,2.5,2,4.8,2.4
				c2.4,0.4,4.9,0.2,6.7-0.4l16.4-6.1l17.2,13.8c1.4,1,3.8,1.6,6.5,1.5c2.6,0,4.9-0.7,6.2-1.7l1.4-1.1c1.5-1.2,1.2-2.8-0.6-3.8
				l-19.5-13l4.1-1.6c1.6-0.6,2-1.4,1.2-2l-0.4-0.3C58.6,7.9,57.2,7.6,55.5,7.6"/>
			<path class="st0" d="M68,6.3c0,1-1.8,1.8-4,1.8c-2.2,0-4-0.8-4-1.8c0-1,1.8-1.8,4-1.8C66.2,4.5,68,5.3,68,6.3"/>
			<path class="st0" d="M48.8,0C22.9,0,1.9,9.3,1.9,20.7c0,11.4,21,20.7,46.9,20.7c25.9,0,46.9-9.3,46.9-20.7
				C95.7,9.3,74.7,0,48.8,0 M48.8,38.6c-23.3,0-42.2-8.4-42.2-18.7C6.6,9.6,25.5,1.3,48.8,1.3C72.1,1.3,91,9.6,91,19.9
				C91,30.2,72.1,38.6,48.8,38.6"/>
			<g>
				<path class="st0" d="M1.4,48.1C0.6,48.1,0,48.5,0,49c0,0.5,0.6,0.8,1.4,0.8c0.8,0,1.4,0.4,1.4,0.8v5c0,0.5,0.6,0.8,1.4,0.8
					c0.8,0,1.4-0.4,1.4-0.8v-5c0-0.5,0.6-0.8,1.4-0.8c0.8,0,1.4-0.4,1.4-0.8c0-0.5-0.6-0.8-1.4-0.8H1.4z"/>
				<path class="st0" d="M14.1,48.1c-0.8,0-1.4,0.4-1.4,0.8v6.7c0,0.5,0.6,0.8,1.4,0.8c0.8,0,1.4-0.4,1.4-0.8V54
					c0-0.5,0.6-0.8,1.4-0.8c0.8,0,1.4,0.4,1.4,0.8v1.7c0,0.5,0.6,0.8,1.4,0.8c0.8,0,1.4-0.4,1.4-0.8V49c0-0.5-0.6-0.8-1.4-0.8H14.1z
					 M18.4,50.6c0,0.5-0.6,0.8-1.4,0.8c-0.8,0-1.4-0.4-1.4-0.8c0-0.5,0.6-0.8,1.4-0.8C17.8,49.8,18.4,50.2,18.4,50.6"/>
				<path class="st0" d="M52.3,48.1c-0.8,0-1.4,0.4-1.4,0.8v6.7c0,0.5,0.6,0.8,1.4,0.8c0.8,0,1.4-0.4,1.4-0.8v-5
					c0-0.5,0.6-0.8,1.4-0.8c0.8,0,1.4,0.4,1.4,0.8v5c0,0.5,0.6,0.8,1.4,0.8s1.4-0.4,1.4-0.8V49c0-0.5-0.6-0.8-1.4-0.8H52.3z"/>
				<path class="st0" d="M39.6,48.1c-0.8,0-1.4,0.4-1.4,0.8v6.7c0,0.5,0.6,0.8,1.4,0.8h5.7c0.8,0,1.4-0.4,1.4-0.8
					c0-0.5-0.6-0.8-1.4-0.8h-2.8c-0.8,0-1.4-0.4-1.4-0.8c0-0.5,0.6-0.8,1.4-0.8h2.8c0.8,0,1.4-0.4,1.4-0.8c0-0.5-0.6-0.8-1.4-0.8
					h-2.8c-0.8,0-1.4-0.4-1.4-0.8v0c0-0.5,0.6-0.8,1.4-0.8h2.8c0.8,0,1.4-0.4,1.4-0.8c0-0.5-0.6-0.8-1.4-0.8H39.6z"/>
				<path class="st0" d="M32.6,48.1c-0.7-0.2-1.5,0.1-1.8,0.5l-1.8,2.1c-0.3,0.4-0.6,0.7-0.6,0.7c0,0,0-0.4,0-0.8V49
					c0-0.5-0.6-0.8-1.4-0.8c-0.8,0-1.4,0.4-1.4,0.8v6.7c0,0.5,0.6,0.8,1.4,0.8c0.8,0,1.4-0.4,1.4-0.8V54c0-0.5,0.6-0.8,1.4-0.8
					c0.8,0,1.4,0.4,1.4,0.8v1.7c0,0.5,0.6,0.8,1.4,0.8c0.8,0,1.4-0.4,1.4-0.8v-3.3c0-0.5-0.6-0.8-1.4-0.8c-0.8,0-1.1-0.3-0.8-0.7
					l1.3-1.5C33.4,48.8,33.3,48.3,32.6,48.1"/>
				<path class="st0" d="M83.5,48.1c-0.7-0.2-1.5,0.1-1.8,0.5l-1.8,2.1c-0.4,0.4-0.6,0.7-0.6,0.7c0,0,0-0.4,0-0.8V49
					c0-0.5-0.6-0.8-1.4-0.8c-0.8,0-1.4,0.4-1.4,0.8v6.7c0,0.5,0.6,0.8,1.4,0.8c0.8,0,1.4-0.4,1.4-0.8V54c0-0.5,0.6-0.8,1.4-0.8
					c0.8,0,1.4,0.4,1.4,0.8v1.7c0,0.5,0.6,0.8,1.4,0.8c0.8,0,1.4-0.4,1.4-0.8v-3.3c0-0.5-0.6-0.8-1.4-0.8c-0.8,0-1.1-0.3-0.8-0.7
					l1.3-1.5C84.4,48.8,84.2,48.3,83.5,48.1"/>
				<path class="st0" d="M65.1,48.1c-0.8,0-1.4,0.4-1.4,0.8v6.7c0,0.5,0.6,0.8,1.4,0.8c0.8,0,1.4-0.4,1.4-0.8V54
					c0-0.5,0.6-0.8,1.4-0.8c0.8,0,1.4,0.4,1.4,0.8v1.7c0,0.5,0.6,0.8,1.4,0.8c0.8,0,1.4-0.4,1.4-0.8V49c0-0.5-0.6-0.8-1.4-0.8H65.1z
					 M69.3,50.6c0,0.5-0.6,0.8-1.4,0.8c-0.8,0-1.4-0.4-1.4-0.8c0-0.5,0.6-0.8,1.4-0.8C68.7,49.8,69.3,50.2,69.3,50.6"/>
				<path class="st0" d="M90.6,48.1c-0.8,0-1.4,0.4-1.4,0.8v6.7c0,0.5,0.6,0.8,1.4,0.8c0.8,0,1.4-0.4,1.4-0.8V54
					c0-0.5,0.6-0.8,1.4-0.8c0.8,0,1.4,0.4,1.4,0.8v1.7c0,0.5,0.6,0.8,1.4,0.8c0.8,0,1.4-0.4,1.4-0.8V49c0-0.5-0.6-0.8-1.4-0.8H90.6z
					 M94.8,50.6c0,0.5-0.6,0.8-1.4,0.8c-0.8,0-1.4-0.4-1.4-0.8c0-0.5,0.6-0.8,1.4-0.8C94.2,49.8,94.8,50.2,94.8,50.6"/>
			</g>
		</g>
		<g id="solidwater_00000111174698724978714030000004879412638056893366_">
			<g>
				<path class="st0" d="M19.7,63.2c-0.1,0-0.2,0-0.2,0c-0.1,0-0.1,0-0.2,0.1c-0.1,0-0.1,0.1-0.1,0.1c0,0-0.1,0.1-0.1,0.2
					c0,0.1,0,0.2,0.1,0.2c0.1,0.1,0.1,0.1,0.2,0.2c0.1,0,0.2,0.1,0.4,0.1c0.2,0,0.3,0.1,0.5,0.2c0.3,0.1,0.5,0.2,0.7,0.3
					c0.2,0.1,0.4,0.3,0.6,0.5c0.2,0.2,0.3,0.4,0.4,0.6c0.1,0.2,0.1,0.5,0.1,0.7c0,0.3-0.1,0.6-0.2,0.9c-0.1,0.3-0.3,0.5-0.6,0.7
					s-0.5,0.4-0.8,0.5c-0.3,0.1-0.6,0.2-1,0.2c-0.3,0-0.5,0-0.8-0.1c-0.3-0.1-0.5-0.2-0.7-0.4c-0.2-0.1-0.4-0.3-0.6-0.5
					c-0.2-0.2-0.3-0.4-0.4-0.7l0.5-0.3c0.1,0,0.2-0.1,0.3-0.1c0.1,0,0.2,0,0.3,0c0.1,0,0.3,0,0.4,0.1c0.1,0.1,0.2,0.1,0.3,0.2
					c0.1,0.1,0.2,0.1,0.3,0.2c0.1,0.1,0.2,0.1,0.4,0.1c0.1,0,0.2,0,0.3,0c0.1,0,0.2-0.1,0.3-0.1c0.1-0.1,0.2-0.1,0.2-0.2
					c0.1-0.1,0.1-0.2,0.1-0.3c0-0.1,0-0.2-0.1-0.3c-0.1-0.1-0.1-0.1-0.2-0.2c-0.1,0-0.2-0.1-0.3-0.1s-0.3-0.1-0.4-0.1
					c-0.2-0.1-0.5-0.2-0.7-0.3c-0.2-0.1-0.4-0.2-0.6-0.4c-0.2-0.2-0.3-0.3-0.4-0.6c-0.1-0.2-0.2-0.5-0.2-0.8c0-0.3,0.1-0.6,0.2-0.8
					c0.1-0.2,0.3-0.5,0.5-0.6c0.2-0.2,0.4-0.3,0.7-0.4c0.3-0.1,0.5-0.1,0.8-0.1c0.2,0,0.4,0,0.6,0.1c0.2,0.1,0.4,0.2,0.5,0.3
					c0.2,0.1,0.3,0.2,0.5,0.4c0.2,0.1,0.3,0.3,0.4,0.4l-0.5,0.4c-0.1,0.1-0.2,0.1-0.3,0.2c-0.1,0-0.2,0.1-0.3,0.1
					c-0.1,0-0.2,0-0.3,0c-0.1,0-0.1-0.1-0.2-0.1c-0.1,0-0.1-0.1-0.2-0.1S19.8,63.2,19.7,63.2L19.7,63.2z"/>
				<path class="st0" d="M22.9,65.1c0-0.3,0-0.6,0.1-0.9c0.1-0.3,0.2-0.6,0.4-0.8c0.2-0.3,0.3-0.5,0.6-0.7c0.2-0.2,0.5-0.4,0.7-0.6
					c0.3-0.2,0.5-0.3,0.8-0.4c0.3-0.1,0.6-0.1,0.9-0.1c0.3,0,0.6,0,0.9,0.1c0.3,0.1,0.6,0.2,0.8,0.4c0.3,0.2,0.5,0.3,0.7,0.6
					c0.2,0.2,0.4,0.5,0.6,0.7c0.2,0.3,0.3,0.5,0.4,0.8c0.1,0.3,0.1,0.6,0.1,0.9c0,0.3,0,0.6-0.1,0.9c-0.1,0.3-0.2,0.6-0.4,0.8
					c-0.2,0.3-0.3,0.5-0.6,0.7c-0.2,0.2-0.5,0.4-0.7,0.6c-0.3,0.2-0.5,0.3-0.8,0.4c-0.3,0.1-0.6,0.1-0.9,0.1c-0.3,0-0.6,0-0.9-0.1
					c-0.3-0.1-0.6-0.2-0.8-0.4c-0.3-0.2-0.5-0.3-0.7-0.6c-0.2-0.2-0.4-0.5-0.6-0.7c-0.2-0.3-0.3-0.5-0.4-0.8
					C22.9,65.8,22.9,65.4,22.9,65.1L22.9,65.1z M24.5,65.1c0,0.3,0.1,0.5,0.2,0.8c0.1,0.2,0.2,0.4,0.4,0.6c0.2,0.2,0.4,0.3,0.6,0.4
					c0.2,0.1,0.5,0.2,0.8,0.2c0.3,0,0.5,0,0.8-0.2c0.2-0.1,0.4-0.2,0.6-0.4c0.2-0.2,0.3-0.4,0.4-0.6c0.1-0.2,0.2-0.5,0.2-0.8
					c0-0.3-0.1-0.5-0.2-0.8c-0.1-0.2-0.2-0.4-0.4-0.6c-0.2-0.2-0.4-0.3-0.6-0.4c-0.2-0.1-0.5-0.2-0.8-0.2c-0.3,0-0.5,0.1-0.8,0.2
					c-0.2,0.1-0.4,0.2-0.6,0.4c-0.2,0.2-0.3,0.4-0.4,0.6C24.5,64.6,24.5,64.9,24.5,65.1z"/>
				<path class="st0" d="M31.2,68.6v-6.9h1.6v5.5h2.7v1.5L31.2,68.6L31.2,68.6z"/>
				<path class="st0" d="M38.3,68.6h-1.6v-6.9h0.5c0.6,0,1.1,0.5,1.1,1.1V68.6z"/>
				<path class="st0" d="M40.1,68.6v-6.9H43c0.3,0,0.6,0,0.9,0.1c0.3,0.1,0.6,0.2,0.8,0.4c0.3,0.2,0.5,0.3,0.7,0.5
					c0.2,0.2,0.4,0.4,0.5,0.7c0.2,0.3,0.3,0.5,0.4,0.8c0.1,0.3,0.1,0.6,0.1,0.9c0,0.3,0,0.6-0.1,0.9c-0.1,0.3-0.2,0.6-0.4,0.8
					c-0.2,0.3-0.3,0.5-0.5,0.7c-0.2,0.2-0.4,0.4-0.7,0.5c-0.3,0.1-0.5,0.3-0.8,0.3c-0.3,0.1-0.6,0.1-0.9,0.1H40.1L40.1,68.6z M43,67
					c0.3,0,0.5,0,0.7-0.1c0.2-0.1,0.4-0.2,0.6-0.4c0.2-0.2,0.3-0.4,0.4-0.6c0.1-0.2,0.2-0.5,0.2-0.7s-0.1-0.5-0.2-0.7
					c-0.1-0.2-0.2-0.4-0.4-0.6c-0.2-0.2-0.4-0.3-0.6-0.4c-0.2-0.1-0.5-0.1-0.7-0.1h-1.3V67L43,67L43,67z"/>
				<path class="st0" d="M58.6,61.6h1.4l3,6.9h-1c-0.1,0-0.2,0-0.3,0c-0.1,0-0.2-0.1-0.3-0.1c-0.1-0.1-0.2-0.1-0.2-0.2
					C61,68.2,61,68.1,60.9,68l-0.3-0.8h-2.7L57.6,68c0,0.1-0.1,0.2-0.2,0.2c-0.1,0.1-0.1,0.1-0.2,0.2c-0.1,0.1-0.2,0.1-0.3,0.1
					c-0.1,0-0.2,0-0.3,0h-1L58.6,61.6z M58.5,65.8H60l-0.6-1.5c0-0.1-0.1-0.1-0.1-0.2c0-0.1,0-0.1,0-0.2c0-0.1,0-0.1,0-0.1
					c0,0,0,0.1,0,0.1c0,0,0,0.1,0,0.2c0,0.1,0,0.1-0.1,0.2L58.5,65.8L58.5,65.8z"/>
				<path class="st0" d="M62.2,63.1v-1.5h5.4v1.5h-1.9v5.5h-1.6v-5.5H62.2L62.2,63.1z"/>
				<path class="st0" d="M73.3,68.6h-4.6v-6.9h4.6v1.5h-3v1.2h2.4v1.5h-2.4v1.3h3V68.6z"/>
				<path class="st0" d="M76.3,68.6h-1.6v-6.9h2.7c0.3,0,0.5,0,0.7,0.1c0.2,0.1,0.4,0.2,0.6,0.3c0.2,0.1,0.3,0.3,0.5,0.4
					c0.1,0.2,0.2,0.3,0.3,0.5c0.1,0.2,0.2,0.4,0.2,0.6s0.1,0.4,0.1,0.6s0,0.4-0.1,0.5c0,0.2-0.1,0.4-0.2,0.5
					c-0.1,0.2-0.2,0.3-0.3,0.5c-0.1,0.2-0.3,0.3-0.5,0.4l1.8,2.5h-1.3c0,0-0.1,0-0.1,0c-0.1,0-0.1,0-0.2-0.1c-0.1,0-0.2-0.1-0.3-0.2
					c-0.1-0.1-0.2-0.2-0.3-0.3l-1.2-1.6h-0.9L76.3,68.6L76.3,68.6z M77.5,64.9c0.1,0,0.2,0,0.3-0.1c0.1,0,0.2-0.1,0.2-0.2
					c0.1-0.1,0.1-0.2,0.2-0.3c0-0.1,0.1-0.2,0.1-0.3c0-0.1,0-0.2-0.1-0.3c0-0.1-0.1-0.2-0.2-0.3c-0.1-0.1-0.1-0.1-0.2-0.2
					c-0.1,0-0.2-0.1-0.3-0.1h-1.2v1.6L77.5,64.9L77.5,64.9z"/>
				<path class="st0" d="M51,67.2l-0.7,1.5l-4-7.1h2.2l2.5,4.5C51.2,66.4,51.2,66.8,51,67.2L51,67.2z"/>
				<path class="st0" d="M55.1,67.2l-0.7,1.5l-4-7.1h2.2l2.5,4.5C55.2,66.4,55.2,66.8,55.1,67.2L55.1,67.2z"/>
			</g>
		</g>
	</g>
</g>
</svg>
