<?xml version="1.0" encoding="UTF-8"?><svg id="_レイヤー_2" xmlns="http://www.w3.org/2000/svg" viewBox="0 0 706 321"><defs><style>.cls-1{font-family:Montserrat-ExtraBold, Montserrat;font-weight:700;}.cls-2,.cls-3,.cls-4,.cls-5,.cls-6,.cls-7{stroke-width:0px;}.cls-2,.cls-8{fill:#bc4646;}.cls-3{fill:#f2f2f2;}.cls-9{fill:none;stroke:#ddd;stroke-linecap:round;stroke-linejoin:round;stroke-width:10px;}.cls-8{stroke:#bc4646;}.cls-8,.cls-10{stroke-miterlimit:10;}.cls-4,.cls-10{fill:#4f6ab7;}.cls-5,.cls-11{fill:#4b5654;}.cls-6{fill:#dd6743;}.cls-12{font-family:NotoSansJP-Black-90ms-RKSJ-H, 'Noto Sans JP';font-weight:800;}.cls-7{fill:#fff;}.cls-10{stroke:#4f6ab7;}.cls-11{font-size:20px;letter-spacing:.1em;}</style></defs><g id="_コンテンツ"><rect class="cls-6" x="504" y="246" width="101" height="74"/><path class="cls-5" d="M705,174h-3v-1h3v1ZM699,174h-3v-1h3v1ZM693,174h-3v-1h3v1ZM687,174h-3v-1h3v1ZM681,174h-3v-1h3v1ZM675,174h-3v-1h3v1ZM669,174h-3v-1h3v1ZM663,174h-3v-1h3v1ZM657,174h-3v-1h3v1ZM651,174h-3v-1h3v1ZM645,174h-3v-1h3v1ZM639,174h-3v-1h3v1ZM633,174h-3v-1h3v1ZM627,174h-3v-1h3v1ZM621,174h-3v-1h3v1ZM615,174h-3v-1h3v1ZM609,174h-3v-1h3v1ZM603,174h-3v-1h3v1ZM597,174h-3v-1h3v1ZM591,174h-3v-1h3v1ZM585,174h-3v-1h3v1ZM579,174h-3v-1h3v1ZM573,174h-3v-1h3v1ZM567,174h-3v-1h3v1ZM561,174h-3v-1h3v1ZM555,174h-3v-1h3v1ZM549,174h-3v-1h3v1ZM543,174h-3v-1h3v1ZM537,174h-3v-1h3v1ZM531,174h-3v-1h3v1ZM525,174h-3v-1h3v1ZM519,174h-3v-1h3v1ZM513,174h-3v-1h3v1ZM507,174h-3v-1h3v1ZM501,174h-3v-1h3v1ZM495,174h-3v-1h3v1ZM489,174h-3v-1h3v1ZM483,174h-3v-1h3v1ZM477,174h-3v-1h3v1ZM471,174h-3v-1h3v1ZM465,174h-3v-1h3v1ZM459,174h-3v-1h3v1ZM453,174h-3v-1h3v1ZM447,174h-3v-1h3v1ZM441,174h-3v-1h3v1ZM435,174h-3v-1h3v1ZM429,174h-3v-1h3v1ZM423,174h-3v-1h3v1ZM417,174h-3v-1h3v1ZM411,174h-3v-1h3v1ZM405,174h-3v-1h3v1ZM399,174h-3v-1h3v1ZM393,174h-3v-1h3v1ZM387,174h-3v-1h3v1ZM381,174h-3v-1h3v1ZM375,174h-3v-1h3v1ZM369,174h-3v-1h3v1ZM363,174h-3v-1h3v1ZM357,174h-3v-1h3v1ZM351,174h-3v-1h3v1ZM345,174h-3v-1h3v1ZM339,174h-3v-1h3v1ZM333,174h-3v-1h3v1ZM327,174h-3v-1h3v1ZM321,174h-3v-1h3v1ZM315,174h-3v-1h3v1ZM309,174h-3v-1h3v1ZM303,174h-3v-1h3v1ZM297,174h-3v-1h3v1ZM291,174h-3v-1h3v1ZM285,174h-3v-1h3v1ZM279,174h-3v-1h3v1ZM273,174h-3v-1h3v1ZM267,174h-3v-1h3v1ZM261,174h-3v-1h3v1ZM255,174h-3v-1h3v1ZM249,174h-3v-1h3v1ZM243,174h-3v-1h3v1ZM237,174h-3v-1h3v1ZM231,174h-3v-1h3v1ZM225,174h-3v-1h3v1ZM219,174h-3v-1h3v1ZM213,174h-3v-1h3v1ZM207,174h-3v-1h3v1ZM201,174h-3v-1h3v1ZM195,174h-3v-1h3v1ZM189,174h-3v-1h3v1ZM183,174h-3v-1h3v1ZM177,174h-3v-1h3v1ZM171,174h-3v-1h3v1ZM165,174h-3v-1h3v1ZM159,174h-3v-1h3v1ZM153,174h-3v-1h3v1ZM147,174h-3v-1h3v1ZM141,174h-3v-1h3v1ZM135,174h-3v-1h3v1ZM129,174h-3v-1h3v1ZM123,174h-3v-1h3v1ZM117,174h-3v-1h3v1ZM111,174h-3v-1h3v1ZM105,174h-3v-1h3v1ZM99,174h-3v-1h3v1ZM93,174h-3v-1h3v1ZM87,174h-3v-1h3v1ZM81,174h-3v-1h3v1ZM75,174h-3v-1h3v1ZM69,174h-3v-1h3v1ZM63,174h-3v-1h3v1ZM57,174h-3v-1h3v1ZM51,174h-3v-1h3v1ZM45,174h-3v-1h3v1ZM39,174h-3v-1h3v1ZM33,174h-3v-1h3v1ZM27,174h-3v-1h3v1ZM21,174h-3v-1h3v1ZM15,174h-3v-1h3v1ZM9,174h-3v-1h3v1ZM3,174H0v-1h3v1Z"/><path class="cls-5" d="M705,247h-3v-1h3v1ZM699,247h-3v-1h3v1ZM693,247h-3v-1h3v1ZM687,247h-3v-1h3v1ZM681,247h-3v-1h3v1ZM675,247h-3v-1h3v1ZM669,247h-3v-1h3v1ZM663,247h-3v-1h3v1ZM657,247h-3v-1h3v1ZM651,247h-3v-1h3v1ZM645,247h-3v-1h3v1ZM639,247h-3v-1h3v1ZM633,247h-3v-1h3v1ZM627,247h-3v-1h3v1ZM621,247h-3v-1h3v1ZM615,247h-3v-1h3v1ZM609,247h-3v-1h3v1ZM603,247h-3v-1h3v1ZM597,247h-3v-1h3v1ZM591,247h-3v-1h3v1ZM585,247h-3v-1h3v1ZM579,247h-3v-1h3v1ZM573,247h-3v-1h3v1ZM567,247h-3v-1h3v1ZM561,247h-3v-1h3v1ZM555,247h-3v-1h3v1ZM549,247h-3v-1h3v1ZM543,247h-3v-1h3v1ZM537,247h-3v-1h3v1ZM531,247h-3v-1h3v1ZM525,247h-3v-1h3v1ZM519,247h-3v-1h3v1ZM513,247h-3v-1h3v1ZM507,247h-3v-1h3v1ZM501,247h-3v-1h3v1ZM495,247h-3v-1h3v1ZM489,247h-3v-1h3v1ZM483,247h-3v-1h3v1ZM477,247h-3v-1h3v1ZM471,247h-3v-1h3v1ZM465,247h-3v-1h3v1ZM459,247h-3v-1h3v1ZM453,247h-3v-1h3v1ZM447,247h-3v-1h3v1ZM441,247h-3v-1h3v1ZM435,247h-3v-1h3v1ZM429,247h-3v-1h3v1ZM423,247h-3v-1h3v1ZM417,247h-3v-1h3v1ZM411,247h-3v-1h3v1ZM405,247h-3v-1h3v1ZM399,247h-3v-1h3v1ZM393,247h-3v-1h3v1ZM387,247h-3v-1h3v1ZM381,247h-3v-1h3v1ZM375,247h-3v-1h3v1ZM369,247h-3v-1h3v1ZM363,247h-3v-1h3v1ZM357,247h-3v-1h3v1ZM351,247h-3v-1h3v1ZM345,247h-3v-1h3v1ZM339,247h-3v-1h3v1ZM333,247h-3v-1h3v1ZM327,247h-3v-1h3v1ZM321,247h-3v-1h3v1ZM315,247h-3v-1h3v1ZM309,247h-3v-1h3v1ZM303,247h-3v-1h3v1ZM297,247h-3v-1h3v1ZM291,247h-3v-1h3v1ZM285,247h-3v-1h3v1ZM279,247h-3v-1h3v1ZM273,247h-3v-1h3v1ZM267,247h-3v-1h3v1ZM261,247h-3v-1h3v1ZM255,247h-3v-1h3v1ZM249,247h-3v-1h3v1ZM243,247h-3v-1h3v1ZM237,247h-3v-1h3v1ZM231,247h-3v-1h3v1ZM225,247h-3v-1h3v1ZM219,247h-3v-1h3v1ZM213,247h-3v-1h3v1ZM207,247h-3v-1h3v1ZM201,247h-3v-1h3v1ZM195,247h-3v-1h3v1ZM189,247h-3v-1h3v1ZM183,247h-3v-1h3v1ZM177,247h-3v-1h3v1ZM171,247h-3v-1h3v1ZM165,247h-3v-1h3v1ZM159,247h-3v-1h3v1ZM153,247h-3v-1h3v1ZM147,247h-3v-1h3v1ZM141,247h-3v-1h3v1ZM135,247h-3v-1h3v1ZM129,247h-3v-1h3v1ZM123,247h-3v-1h3v1ZM117,247h-3v-1h3v1ZM111,247h-3v-1h3v1ZM105,247h-3v-1h3v1ZM99,247h-3v-1h3v1ZM93,247h-3v-1h3v1ZM87,247h-3v-1h3v1ZM81,247h-3v-1h3v1ZM75,247h-3v-1h3v1ZM69,247h-3v-1h3v1ZM63,247h-3v-1h3v1ZM57,247h-3v-1h3v1ZM51,247h-3v-1h3v1ZM45,247h-3v-1h3v1ZM39,247h-3v-1h3v1ZM33,247h-3v-1h3v1ZM27,247h-3v-1h3v1ZM21,247h-3v-1h3v1ZM15,247h-3v-1h3v1ZM9,247h-3v-1h3v1ZM3,247H0v-1h3v1Z"/><path class="cls-5" d="M101,320h-1v-3h1v3ZM101,314h-1v-3h1v3ZM101,308h-1v-3h1v3ZM101,302h-1v-3h1v3ZM101,296h-1v-3h1v3ZM101,290h-1v-3h1v3ZM101,284h-1v-3h1v3ZM101,278h-1v-3h1v3ZM101,272h-1v-3h1v3ZM101,266h-1v-3h1v3ZM101,260h-1v-3h1v3ZM101,254h-1v-3h1v3ZM101,248h-1v-3h1v3ZM101,242h-1v-3h1v3ZM101,236h-1v-3h1v3ZM101,230h-1v-3h1v3ZM101,224h-1v-3h1v3ZM101,218h-1v-3h1v3ZM101,212h-1v-3h1v3ZM101,206h-1v-3h1v3ZM101,200h-1v-3h1v3ZM101,194h-1v-3h1v3ZM101,188h-1v-3h1v3ZM101,182h-1v-3h1v3ZM101,176h-1v-3h1v3ZM101,170h-1v-3h1v3ZM101,164h-1v-3h1v3ZM101,158h-1v-3h1v3ZM101,152h-1v-3h1v3ZM101,146h-1v-3h1v3ZM101,140h-1v-3h1v3ZM101,134h-1v-3h1v3ZM101,128h-1v-3h1v3ZM101,122h-1v-3h1v3ZM101,116h-1v-3h1v3ZM101,110h-1v-3h1v3ZM101,104h-1v-3h1v3Z"/><path class="cls-5" d="M202,320h-1v-3h1v3ZM202,314h-1v-3h1v3ZM202,308h-1v-3h1v3ZM202,302h-1v-3h1v3ZM202,296h-1v-3h1v3ZM202,290h-1v-3h1v3ZM202,284h-1v-3h1v3ZM202,278h-1v-3h1v3ZM202,272h-1v-3h1v3ZM202,266h-1v-3h1v3ZM202,260h-1v-3h1v3ZM202,254h-1v-3h1v3ZM202,248h-1v-3h1v3ZM202,242h-1v-3h1v3ZM202,236h-1v-3h1v3ZM202,230h-1v-3h1v3ZM202,224h-1v-3h1v3ZM202,218h-1v-3h1v3ZM202,212h-1v-3h1v3ZM202,206h-1v-3h1v3ZM202,200h-1v-3h1v3ZM202,194h-1v-3h1v3ZM202,188h-1v-3h1v3ZM202,182h-1v-3h1v3ZM202,176h-1v-3h1v3ZM202,170h-1v-3h1v3ZM202,164h-1v-3h1v3ZM202,158h-1v-3h1v3ZM202,152h-1v-3h1v3ZM202,146h-1v-3h1v3ZM202,140h-1v-3h1v3ZM202,134h-1v-3h1v3ZM202,128h-1v-3h1v3ZM202,122h-1v-3h1v3ZM202,116h-1v-3h1v3ZM202,110h-1v-3h1v3ZM202,104h-1v-3h1v3Z"/><path class="cls-5" d="M504,320h-1v-3h1v3ZM504,314h-1v-3h1v3ZM504,308h-1v-3h1v3ZM504,302h-1v-3h1v3ZM504,296h-1v-3h1v3ZM504,290h-1v-3h1v3ZM504,284h-1v-3h1v3ZM504,278h-1v-3h1v3ZM504,272h-1v-3h1v3ZM504,266h-1v-3h1v3ZM504,260h-1v-3h1v3ZM504,254h-1v-3h1v3ZM504,248h-1v-3h1v3ZM504,242h-1v-3h1v3ZM504,236h-1v-3h1v3ZM504,230h-1v-3h1v3ZM504,224h-1v-3h1v3ZM504,218h-1v-3h1v3ZM504,212h-1v-3h1v3ZM504,206h-1v-3h1v3ZM504,200h-1v-3h1v3ZM504,194h-1v-3h1v3ZM504,188h-1v-3h1v3ZM504,182h-1v-3h1v3ZM504,176h-1v-3h1v3ZM504,170h-1v-3h1v3ZM504,164h-1v-3h1v3ZM504,158h-1v-3h1v3ZM504,152h-1v-3h1v3ZM504,146h-1v-3h1v3ZM504,140h-1v-3h1v3ZM504,134h-1v-3h1v3ZM504,128h-1v-3h1v3ZM504,122h-1v-3h1v3ZM504,116h-1v-3h1v3ZM504,110h-1v-3h1v3ZM504,104h-1v-3h1v3Z"/><path class="cls-5" d="M403,320h-1v-3h1v3ZM403,314h-1v-3h1v3ZM403,308h-1v-3h1v3ZM403,302h-1v-3h1v3ZM403,296h-1v-3h1v3ZM403,290h-1v-3h1v3ZM403,284h-1v-3h1v3ZM403,278h-1v-3h1v3ZM403,272h-1v-3h1v3ZM403,266h-1v-3h1v3ZM403,260h-1v-3h1v3ZM403,254h-1v-3h1v3ZM403,248h-1v-3h1v3ZM403,242h-1v-3h1v3ZM403,236h-1v-3h1v3ZM403,230h-1v-3h1v3ZM403,224h-1v-3h1v3ZM403,218h-1v-3h1v3ZM403,212h-1v-3h1v3ZM403,206h-1v-3h1v3ZM403,200h-1v-3h1v3ZM403,194h-1v-3h1v3ZM403,188h-1v-3h1v3ZM403,182h-1v-3h1v3ZM403,176h-1v-3h1v3ZM403,170h-1v-3h1v3ZM403,164h-1v-3h1v3ZM403,158h-1v-3h1v3ZM403,152h-1v-3h1v3ZM403,146h-1v-3h1v3ZM403,140h-1v-3h1v3ZM403,134h-1v-3h1v3ZM403,128h-1v-3h1v3ZM403,122h-1v-3h1v3ZM403,116h-1v-3h1v3ZM403,110h-1v-3h1v3ZM403,104h-1v-3h1v3Z"/><path class="cls-5" d="M303,320h-1v-3h1v3ZM303,314h-1v-3h1v3ZM303,308h-1v-3h1v3ZM303,302h-1v-3h1v3ZM303,296h-1v-3h1v3ZM303,290h-1v-3h1v3ZM303,284h-1v-3h1v3ZM303,278h-1v-3h1v3ZM303,272h-1v-3h1v3ZM303,266h-1v-3h1v3ZM303,260h-1v-3h1v3ZM303,254h-1v-3h1v3ZM303,248h-1v-3h1v3ZM303,242h-1v-3h1v3ZM303,236h-1v-3h1v3ZM303,230h-1v-3h1v3ZM303,224h-1v-3h1v3ZM303,218h-1v-3h1v3ZM303,212h-1v-3h1v3ZM303,206h-1v-3h1v3ZM303,200h-1v-3h1v3ZM303,194h-1v-3h1v3ZM303,188h-1v-3h1v3ZM303,182h-1v-3h1v3ZM303,176h-1v-3h1v3ZM303,170h-1v-3h1v3ZM303,164h-1v-3h1v3ZM303,158h-1v-3h1v3ZM303,152h-1v-3h1v3ZM303,146h-1v-3h1v3ZM303,140h-1v-3h1v3ZM303,134h-1v-3h1v3ZM303,128h-1v-3h1v3ZM303,122h-1v-3h1v3ZM303,116h-1v-3h1v3ZM303,110h-1v-3h1v3ZM303,104h-1v-3h1v3Z"/><path class="cls-5" d="M605,320h-1v-3h1v3ZM605,314h-1v-3h1v3ZM605,308h-1v-3h1v3ZM605,302h-1v-3h1v3ZM605,296h-1v-3h1v3ZM605,290h-1v-3h1v3ZM605,284h-1v-3h1v3ZM605,278h-1v-3h1v3ZM605,272h-1v-3h1v3ZM605,266h-1v-3h1v3ZM605,260h-1v-3h1v3ZM605,254h-1v-3h1v3ZM605,248h-1v-3h1v3ZM605,242h-1v-3h1v3ZM605,236h-1v-3h1v3ZM605,230h-1v-3h1v3ZM605,224h-1v-3h1v3ZM605,218h-1v-3h1v3ZM605,212h-1v-3h1v3ZM605,206h-1v-3h1v3ZM605,200h-1v-3h1v3ZM605,194h-1v-3h1v3ZM605,188h-1v-3h1v3ZM605,182h-1v-3h1v3ZM605,176h-1v-3h1v3ZM605,170h-1v-3h1v3ZM605,164h-1v-3h1v3ZM605,158h-1v-3h1v3ZM605,152h-1v-3h1v3ZM605,146h-1v-3h1v3ZM605,140h-1v-3h1v3ZM605,134h-1v-3h1v3ZM605,128h-1v-3h1v3ZM605,122h-1v-3h1v3ZM605,116h-1v-3h1v3ZM605,110h-1v-3h1v3ZM605,104h-1v-3h1v3Z"/><rect class="cls-5" x="5" y="65" width="90" height="25" rx="12" ry="12"/><path class="cls-3" d="M56.522,82.166c0,1.152-.271,1.697-1.008,2.017-.769.336-1.889.368-3.537.368-.112-.561-.497-1.473-.801-2.001,1.12.064,2.465.048,2.817.048.384,0,.512-.128.512-.464v-2.321h-6.851c-.416,1.793-1.217,3.538-2.705,4.786-.288-.4-1.057-1.104-1.473-1.376,2.417-2.065,2.642-5.122,2.642-7.555v-5.266h10.403v11.765ZM54.506,77.972v-1.953h-6.418c-.017.608-.049,1.281-.112,1.953h6.53ZM48.088,72.258v1.953h6.418v-1.953h-6.418Z"/><path class="cls-5" d="M706,321H0V100h706v221ZM1,320h704V101H1v219Z"/><rect class="cls-5" x="105" y="65" width="90" height="25" rx="12" ry="12"/><path class="cls-3" d="M152.041,74.851c0,2.433,1.505,6.115,6.482,7.955-.432.417-1.04,1.233-1.328,1.793-3.81-1.569-5.746-4.77-6.194-6.354-.416,1.633-2.177,4.738-5.938,6.354-.256-.432-.929-1.249-1.345-1.633,4.818-1.841,6.274-5.714,6.274-8.099v-4.994h2.049v4.978ZM147.88,73.234c-.272,2.001-.736,3.906-2.113,5.042l-1.729-1.072c1.168-.992,1.696-2.577,1.921-4.386l1.921.416ZM157.836,73.586c-.816,1.553-1.777,3.266-2.577,4.354l-1.665-.704c.769-1.201,1.648-3.025,2.145-4.434l2.098.784Z"/><rect class="cls-5" x="205" y="65" width="90" height="25" rx="12" ry="12"/><path class="cls-3" d="M249.8,73.97c-.736,4.338-2.497,7.587-4.754,9.252-.336-.448-1.104-1.217-1.584-1.505,1.856-1.249,3.265-3.441,3.985-6.242h-3.474v-1.921h4.178l.353-.064,1.296.48ZM258.3,73.394c-1.28,1.361-2.881,2.865-4.178,3.874,1.137,1.921,2.641,3.474,4.609,4.402-.479.4-1.136,1.201-1.473,1.777-2.32-1.312-3.938-3.425-5.09-6.035v4.722c0,1.152-.256,1.729-.912,2.049-.688.352-1.729.432-3.186.432-.08-.608-.448-1.569-.752-2.129,1.057.048,2.064.032,2.4.032.32,0,.433-.112.433-.384v-12.469h2.017v2.817c.305,1.12.673,2.208,1.137,3.217,1.137-1.057,2.401-2.417,3.217-3.554l1.777,1.249Z"/><rect class="cls-5" x="305" y="65" width="90" height="25" rx="12" ry="12"/><path class="cls-3" d="M352.89,75.251c1.328,2.449,3.569,4.834,5.922,6.114-.464.384-1.12,1.137-1.424,1.665-2.018-1.296-3.858-3.345-5.267-5.65v7.219h-2.033v-7.139c-1.393,2.321-3.232,4.354-5.281,5.634-.32-.497-.977-1.233-1.425-1.633,2.369-1.281,4.562-3.698,5.874-6.21h-5.138v-1.889h5.97v-3.714h2.033v3.714h6.003v1.889h-5.234Z"/><rect class="cls-5" x="410" y="65" width="90" height="25" rx="12" ry="12"/><path class="cls-3" d="M461.059,79.973c-.608.88-1.232,1.857-1.793,2.529h3.618v1.632h-13.542v-1.632h3.121c-.239-.721-.768-1.793-1.328-2.577l1.457-.625h-2.449v-1.632h4.866v-1.585h-2.945v-.784c-.753.544-1.569,1.057-2.386,1.489-.239-.448-.768-1.137-1.184-1.537,2.721-1.329,5.281-3.729,6.466-5.65h1.969c1.729,2.417,4.306,4.434,6.835,5.458-.48.48-.912,1.121-1.265,1.713-.8-.416-1.633-.944-2.433-1.521v.832h-3.058v1.585h4.931v1.632h-4.931v3.202h1.745l-1.04-.432c.527-.752,1.168-1.921,1.521-2.77l1.824.672ZM452.688,79.3c.608.816,1.232,1.905,1.473,2.641l-1.312.561h2.161v-3.202h-2.321ZM458.978,74.418c-1.185-.96-2.24-2.001-2.944-2.961-.688.96-1.682,2-2.834,2.961h5.778Z"/><rect class="cls-4" x="510" y="65" width="90" height="25" rx="12" ry="12"/><path class="cls-3" d="M563.38,82.054v1.873h-14.502v-1.873h6.179v-5.57h-5.139v-1.889h5.139v-4.914h2.049v4.914h5.218v1.889h-5.218v5.57h6.274Z"/><rect class="cls-2" x="610" y="65" width="90" height="25" rx="12" ry="12"/><path class="cls-3" d="M661.699,70.609v13.766h-2.049v-1.008h-7.107v1.041h-1.969v-13.798h11.125ZM652.543,72.53v3.441h7.107v-3.441h-7.107ZM659.65,81.445v-3.585h-7.107v3.585h7.107Z"/><path class="cls-7" d="M518.439,283.79c.784.592,2.369,1.953,2.802,2.289l-1.104,1.632c-.385-.496-1.057-1.216-1.697-1.873v5.522h-1.841v-5.73c-.72,1.457-1.568,2.833-2.448,3.761-.192-.56-.656-1.376-.961-1.856,1.152-1.121,2.321-2.945,3.041-4.61h-2.673v-1.745h3.041v-1.985c-.912.176-1.824.32-2.688.432-.08-.417-.32-1.088-.545-1.489,2.306-.336,4.883-.944,6.435-1.648l1.345,1.472c-.8.32-1.729.592-2.705.833v2.385h2.753v1.745h-2.753v.864ZM523.802,287.327h-1.856v-8.948h1.856v8.948ZM527.611,276.747v12.325c0,1.104-.224,1.632-.88,1.937-.656.32-1.729.384-3.186.368-.08-.544-.368-1.424-.656-1.969,1.04.048,2.064.048,2.4.048.305-.016.433-.112.433-.4v-12.309h1.889Z"/><path class="cls-7" d="M544.795,289.136c0,1.024-.224,1.537-.864,1.825-.656.32-1.633.352-3.073.336-.063-.512-.368-1.329-.608-1.825.896.048,1.953.032,2.241.032.305,0,.416-.096.416-.384v-2.401h-3.377v4.466h-1.921v-4.466h-3.266c-.288,1.745-.864,3.505-2.017,4.754-.304-.352-1.072-1.008-1.505-1.232,1.745-1.921,1.89-4.77,1.89-7.011v-5.714h12.084v11.621ZM537.608,284.926v-1.969h-3.009v.288c0,.512-.017,1.088-.049,1.681h3.058ZM534.6,279.324v1.857h3.009v-1.857h-3.009ZM542.906,279.324h-3.377v1.857h3.377v-1.857ZM542.906,284.926v-1.969h-3.377v1.969h3.377Z"/><path class="cls-7" d="M551.159,282.717v8.675h-1.857v-14.342h6.163v5.667h-4.306ZM551.159,278.411v.816h2.513v-.816h-2.513ZM553.672,281.34v-.88h-2.513v.88h2.513ZM558.361,287.791v3.297h-1.664v-3.297h-1.537c-.16,1.104-.688,2.657-2.049,3.585-.271-.336-.848-.832-1.216-1.088,1.024-.64,1.473-1.681,1.633-2.497h-1.617v-1.553h1.681v-1.2h-1.456v-1.505h7.73v1.505h-1.505v1.2h1.761v1.553h-1.761ZM556.697,286.238v-1.2h-1.488v1.2h1.488ZM562.796,289.167c0,.977-.177,1.505-.753,1.809-.576.32-1.408.368-2.625.368-.063-.528-.32-1.393-.576-1.889.721.032,1.505.032,1.745.016.256,0,.336-.096.336-.32v-6.403h-4.401v-5.698h6.274v12.117ZM558.33,278.411v.816h2.593v-.816h-2.593ZM560.923,281.373v-.913h-2.593v.913h2.593Z"/><path class="cls-7" d="M572.504,279.756c-.176,2.913-.608,5.234-1.328,7.091.704.576,1.312,1.152,1.712,1.665l-1.136,1.521c-.336-.448-.833-.977-1.409-1.505-.752,1.232-1.712,2.193-2.896,2.929-.272-.48-.784-1.168-1.152-1.521,1.056-.56,1.937-1.44,2.608-2.609-.32-.256-.656-.512-.977-.736l-.16.56-1.536-.833c.384-1.312.816-3.089,1.217-4.946h-1.169v-1.745h1.537c.224-1.104.432-2.193.592-3.186l1.793.176c-.176.944-.385,1.969-.608,3.009h1.457l.319-.048,1.137.176ZM569.207,281.373c-.272,1.201-.561,2.385-.833,3.473.416.256.849.544,1.281.849.464-1.232.768-2.689.96-4.322h-1.408ZM573.721,281.645c.576-1.568,1.152-3.633,1.456-5.202l2.113.368c-.513,1.585-1.12,3.33-1.713,4.722.929-.048,1.905-.112,2.897-.16-.336-.592-.688-1.168-1.041-1.681l1.505-.769c.992,1.345,2.049,3.122,2.434,4.338l-1.649.88c-.096-.336-.224-.704-.399-1.104-2.386.192-4.898.368-6.724.496l-.191-1.825,1.312-.064ZM573.433,284.718h7.043v6.611h-1.889v-.56h-3.361v.624h-1.793v-6.675ZM575.226,286.431v2.625h3.361v-2.625h-3.361Z"/><path class="cls-7" d="M596.811,277.403v13.766h-2.049v-1.008h-7.106v1.041h-1.969v-13.798h11.124ZM587.655,279.324v3.441h7.106v-3.441h-7.106ZM594.762,288.239v-3.585h-7.106v3.585h7.106Z"/><rect class="cls-2" x="14.999" y="293" width="480" height="5"/><path class="cls-2" d="M495.945,298.492c2.23-1.609,2.23-4.243,0-5.852l-11.891-8.582c-2.23-1.609-4.054-.676-4.054,2.074v18.868c0,2.75,1.824,3.683,4.054,2.074l11.891-8.582Z"/><path class="cls-2" d="M9.054,292.64c-2.23,1.609-2.23,4.243,0,5.852l11.891,8.582c2.23,1.609,4.054.676,4.054-2.074v-18.868c0-2.75-1.824-3.683-4.054-2.074l-11.891,8.582Z"/><path class="cls-9" d="M188.334,275.326c-.416.032-1.072.144-1.681.24-.769.128-2.064.336-3.474.56.257,1.312.48,2.385.576,2.881.112.48.272,1.056.417,1.568l-2.306.416c-.08-.608-.128-1.152-.224-1.616-.08-.464-.288-1.569-.544-2.914-1.633.272-3.138.528-3.826.656-.688.128-1.232.24-1.601.336l-.448-2.145c.433-.016,1.152-.112,1.665-.176.736-.112,2.225-.352,3.842-.608l-.48-2.561c-1.409.224-2.642.432-3.138.512-.56.112-.992.208-1.473.336l-.432-2.209c.512-.016.992-.048,1.488-.112.561-.064,1.793-.24,3.169-.464-.128-.672-.239-1.2-.288-1.457-.096-.448-.208-.832-.319-1.216l2.257-.368c.048.32.096.864.176,1.249.032.224.128.752.256,1.473,1.36-.224,2.577-.417,3.153-.528.513-.096,1.121-.224,1.505-.336l.384,2.097c-.352.032-.992.128-1.473.192l-3.201.512.496,2.545c1.44-.24,2.754-.448,3.474-.592.624-.128,1.217-.256,1.633-.384l.416,2.113Z"/><path class="cls-9" d="M200.268,276.431c.816-.736,1.921-2.097,2.354-2.881-.385.08-1.969.4-3.697.769.607,2.193,1.28,4.658,1.536,5.49.096.288.304.992.433,1.312l-2.178.528c-.048-.416-.159-.944-.288-1.393-.239-.864-.896-3.345-1.473-5.538-1.344.288-2.513.528-2.993.64l-.496-1.92c.513-.048.944-.096,1.473-.192.225-.032.801-.128,1.537-.272-.16-.624-.305-1.136-.416-1.489-.112-.416-.272-.8-.448-1.136l2.145-.512c.064.384.16.8.256,1.216l.433,1.553c2.032-.384,4.273-.816,4.897-.96.288-.048.593-.144.816-.256l1.28.912c-.672,1.409-2.288,3.81-3.409,5.01l-1.761-.88Z"/><path class="cls-9" d="M216.939,276.398c2.722-1.617,4.818-4.065,5.826-6.227l1.249,2.257c-1.217,2.161-3.346,4.37-5.923,5.923-1.616.976-3.682,1.873-5.938,2.257l-1.344-2.113c2.496-.353,4.577-1.168,6.13-2.097ZM216.939,271.212l-1.633,1.681c-.832-.896-2.833-2.641-4.001-3.458l1.504-1.601c1.121.752,3.202,2.417,4.13,3.377Z"/><path class="cls-9" d="M235.548,275.326c1.057-.944,2.112-2.401,2.561-3.233-.496.096-2.657.528-4.93.977v4.242c0,.992.288,1.344,2.033,1.344,1.696,0,3.473-.224,5.058-.528l-.064,2.161c-1.328.192-3.249.352-4.962.352-3.649,0-4.178-.88-4.178-2.769v-4.37c-1.424.288-2.688.544-3.361.704l-.384-2.097c.752-.096,2.161-.336,3.745-.625v-2.289c0-.528-.048-1.345-.128-1.825h2.385c-.079.48-.144,1.28-.144,1.825v1.889c2.337-.432,4.578-.896,5.298-1.057.448-.112.833-.224,1.137-.384l1.536,1.2c-.144.224-.384.576-.527.864-.705,1.329-2.161,3.538-3.313,4.658l-1.761-1.041Z"/><path class="cls-9" d="M244.792,279.408c1.409-.992,2.273-2.465,2.722-3.826.448-1.376.464-4.401.464-6.338,0-.64-.048-1.072-.144-1.457h2.353c-.016.064-.112.784-.112,1.44,0,1.889-.048,5.266-.479,6.883-.48,1.809-1.473,3.377-2.85,4.594l-1.953-1.296ZM252.203,279.648c.064-.304.128-.752.128-1.185v-9.332c0-.721-.111-1.329-.128-1.377h2.385c-.016.048-.111.672-.111,1.393v8.372c1.296-.56,2.881-1.825,3.953-3.377l1.232,1.761c-1.328,1.729-3.633,3.458-5.426,4.37-.336.176-.496.32-.704.48l-1.329-1.104Z"/><path class="cls-9" d="M265.738,275.358v3.922c0,.832-.129,1.296-.593,1.584-.448.288-1.057.352-1.969.352-.032-.48-.24-1.216-.464-1.696.448.016.88.016,1.024.016.176,0,.224-.064.224-.24v-3.33c-.464.16-.912.304-1.328.448l-.448-1.825c.512-.128,1.104-.304,1.776-.496v-2.865h-1.553v-1.761h1.553v-3.009h1.777v3.009h1.328v1.761h-1.328v2.305l1.152-.384.304,1.681-1.456.528ZM273.854,277.583c.896.848,2.225,1.601,3.521,2.017-.384.32-.928.993-1.2,1.441-1.12-.48-2.257-1.281-3.137-2.225v2.609h-1.81v-2.561c-1.088,1.024-2.448,1.825-3.873,2.305-.272-.432-.784-1.121-1.169-1.473,1.553-.4,3.09-1.185,4.13-2.113h-2.945v-1.537h3.857v-.977h-3.649v-3.761h4.227v3.697h.624v-3.697h4.369v3.761h-3.761v.977h4.033v1.537h-3.217ZM270.3,272.589h-1.312v1.185h1.312v-1.185ZM275.277,270.748h-6.258v-3.713h6.258v3.713ZM273.549,268.363h-2.913v1.057h2.913v-1.057ZM273.901,273.773h1.376v-1.185h-1.376v1.185Z"/><path class="cls-9" d="M285.242,267.083c-.416,1.12-.944,2.257-1.536,3.329v10.964h-1.921v-8.003c-.336.4-.672.8-.992,1.152-.176-.464-.721-1.553-1.057-2.033,1.457-1.441,2.85-3.714,3.649-5.987l1.856.577ZM290.316,270.86v1.681h4.146v1.729h-4.146v1.809h4.354v1.761h-4.354v3.553h-1.952v-10.532h-.608c-.641,1.185-1.377,2.273-2.097,3.105-.305-.352-1.057-1.024-1.457-1.328,1.408-1.441,2.673-3.746,3.394-6.035l1.841.464c-.225.672-.48,1.329-.784,1.985h6.21v1.809h-4.546Z"/><path class="cls-9" d="M313.085,279.184l-4.113-4.114-4.113,4.114-1.153-1.152,4.114-4.114-4.114-4.114,1.153-1.152,4.113,4.114,4.113-4.114,1.152,1.152-4.113,4.114,4.113,4.114-1.152,1.152Z"/><path class="cls-2" d="M188.334,275.326c-.416.032-1.072.144-1.681.24-.769.128-2.064.336-3.474.56.257,1.312.48,2.385.576,2.881.112.48.272,1.056.417,1.568l-2.306.416c-.08-.608-.128-1.152-.224-1.616-.08-.464-.288-1.569-.544-2.914-1.633.272-3.138.528-3.826.656-.688.128-1.232.24-1.601.336l-.448-2.145c.433-.016,1.152-.112,1.665-.176.736-.112,2.225-.352,3.842-.608l-.48-2.561c-1.409.224-2.642.432-3.138.512-.56.112-.992.208-1.473.336l-.432-2.209c.512-.016.992-.048,1.488-.112.561-.064,1.793-.24,3.169-.464-.128-.672-.239-1.2-.288-1.457-.096-.448-.208-.832-.319-1.216l2.257-.368c.048.32.096.864.176,1.249.032.224.128.752.256,1.473,1.36-.224,2.577-.417,3.153-.528.513-.096,1.121-.224,1.505-.336l.384,2.097c-.352.032-.992.128-1.473.192l-3.201.512.496,2.545c1.44-.24,2.754-.448,3.474-.592.624-.128,1.217-.256,1.633-.384l.416,2.113Z"/><path class="cls-2" d="M200.268,276.431c.816-.736,1.921-2.097,2.354-2.881-.385.08-1.969.4-3.697.769.607,2.193,1.28,4.658,1.536,5.49.096.288.304.992.433,1.312l-2.178.528c-.048-.416-.159-.944-.288-1.393-.239-.864-.896-3.345-1.473-5.538-1.344.288-2.513.528-2.993.64l-.496-1.92c.513-.048.944-.096,1.473-.192.225-.032.801-.128,1.537-.272-.16-.624-.305-1.136-.416-1.489-.112-.416-.272-.8-.448-1.136l2.145-.512c.064.384.16.8.256,1.216l.433,1.553c2.032-.384,4.273-.816,4.897-.96.288-.048.593-.144.816-.256l1.28.912c-.672,1.409-2.288,3.81-3.409,5.01l-1.761-.88Z"/><path class="cls-2" d="M216.939,276.398c2.722-1.617,4.818-4.065,5.826-6.227l1.249,2.257c-1.217,2.161-3.346,4.37-5.923,5.923-1.616.976-3.682,1.873-5.938,2.257l-1.344-2.113c2.496-.353,4.577-1.168,6.13-2.097ZM216.939,271.212l-1.633,1.681c-.832-.896-2.833-2.641-4.001-3.458l1.504-1.601c1.121.752,3.202,2.417,4.13,3.377Z"/><path class="cls-2" d="M235.548,275.326c1.057-.944,2.112-2.401,2.561-3.233-.496.096-2.657.528-4.93.977v4.242c0,.992.288,1.344,2.033,1.344,1.696,0,3.473-.224,5.058-.528l-.064,2.161c-1.328.192-3.249.352-4.962.352-3.649,0-4.178-.88-4.178-2.769v-4.37c-1.424.288-2.688.544-3.361.704l-.384-2.097c.752-.096,2.161-.336,3.745-.625v-2.289c0-.528-.048-1.345-.128-1.825h2.385c-.079.48-.144,1.28-.144,1.825v1.889c2.337-.432,4.578-.896,5.298-1.057.448-.112.833-.224,1.137-.384l1.536,1.2c-.144.224-.384.576-.527.864-.705,1.329-2.161,3.538-3.313,4.658l-1.761-1.041Z"/><path class="cls-2" d="M244.792,279.408c1.409-.992,2.273-2.465,2.722-3.826.448-1.376.464-4.401.464-6.338,0-.64-.048-1.072-.144-1.457h2.353c-.016.064-.112.784-.112,1.44,0,1.889-.048,5.266-.479,6.883-.48,1.809-1.473,3.377-2.85,4.594l-1.953-1.296ZM252.203,279.648c.064-.304.128-.752.128-1.185v-9.332c0-.721-.111-1.329-.128-1.377h2.385c-.016.048-.111.672-.111,1.393v8.372c1.296-.56,2.881-1.825,3.953-3.377l1.232,1.761c-1.328,1.729-3.633,3.458-5.426,4.37-.336.176-.496.32-.704.48l-1.329-1.104Z"/><path class="cls-2" d="M265.738,275.358v3.922c0,.832-.129,1.296-.593,1.584-.448.288-1.057.352-1.969.352-.032-.48-.24-1.216-.464-1.696.448.016.88.016,1.024.016.176,0,.224-.064.224-.24v-3.33c-.464.16-.912.304-1.328.448l-.448-1.825c.512-.128,1.104-.304,1.776-.496v-2.865h-1.553v-1.761h1.553v-3.009h1.777v3.009h1.328v1.761h-1.328v2.305l1.152-.384.304,1.681-1.456.528ZM273.854,277.583c.896.848,2.225,1.601,3.521,2.017-.384.32-.928.993-1.2,1.441-1.12-.48-2.257-1.281-3.137-2.225v2.609h-1.81v-2.561c-1.088,1.024-2.448,1.825-3.873,2.305-.272-.432-.784-1.121-1.169-1.473,1.553-.4,3.09-1.185,4.13-2.113h-2.945v-1.537h3.857v-.977h-3.649v-3.761h4.227v3.697h.624v-3.697h4.369v3.761h-3.761v.977h4.033v1.537h-3.217ZM270.3,272.589h-1.312v1.185h1.312v-1.185ZM275.277,270.748h-6.258v-3.713h6.258v3.713ZM273.549,268.363h-2.913v1.057h2.913v-1.057ZM273.901,273.773h1.376v-1.185h-1.376v1.185Z"/><path class="cls-2" d="M285.242,267.083c-.416,1.12-.944,2.257-1.536,3.329v10.964h-1.921v-8.003c-.336.4-.672.8-.992,1.152-.176-.464-.721-1.553-1.057-2.033,1.457-1.441,2.85-3.714,3.649-5.987l1.856.577ZM290.316,270.86v1.681h4.146v1.729h-4.146v1.809h4.354v1.761h-4.354v3.553h-1.952v-10.532h-.608c-.641,1.185-1.377,2.273-2.097,3.105-.305-.352-1.057-1.024-1.457-1.328,1.408-1.441,2.673-3.746,3.394-6.035l1.841.464c-.225.672-.48,1.329-.784,1.985h6.21v1.809h-4.546Z"/><path class="cls-8" d="M313.085,279.184l-4.113-4.114-4.113,4.114-1.153-1.152,4.114-4.114-4.114-4.114,1.153-1.152,4.113,4.114,4.113-4.114,1.152,1.152-4.113,4.114,4.113,4.114-1.152,1.152Z"/><rect class="cls-4" y="220" width="695" height="5"/><path class="cls-4" d="M695.946,225.426c2.23-1.609,2.23-4.243,0-5.852l-11.891-8.582c-2.23-1.609-4.054-.676-4.054,2.074v18.868c0,2.75,1.824,3.683,4.054,2.074l11.891-8.582Z"/><path class="cls-4" d="M9.054,144.574c-2.23,1.609-2.23,4.243,0,5.852l11.891,8.582c2.23,1.609,4.054.676,4.054-2.074v-18.868c0-2.75-1.824-3.683-4.054-2.074l-11.891,8.582Z"/><rect class="cls-4" x="10" y="145" width="695" height="5"/><path class="cls-9" d="M290.271,125.326c-.416.032-1.072.144-1.681.24-.769.128-2.064.336-3.474.56.257,1.312.48,2.385.576,2.881.112.48.272,1.056.417,1.568l-2.306.416c-.08-.608-.128-1.152-.224-1.616-.08-.464-.288-1.569-.544-2.914-1.633.272-3.138.528-3.826.656-.688.128-1.232.24-1.601.336l-.448-2.145c.433-.016,1.152-.112,1.665-.176.736-.112,2.225-.352,3.842-.608l-.48-2.561c-1.409.224-2.642.432-3.138.512-.56.112-.992.208-1.473.336l-.432-2.209c.512-.016.992-.048,1.488-.112.561-.064,1.793-.24,3.169-.464-.128-.672-.239-1.2-.288-1.457-.096-.448-.208-.832-.319-1.216l2.257-.368c.048.32.096.864.176,1.249.032.224.128.752.256,1.473,1.36-.224,2.577-.417,3.153-.528.513-.096,1.121-.224,1.505-.336l.384,2.097c-.352.032-.992.128-1.473.192l-3.201.512.496,2.545c1.44-.24,2.754-.448,3.474-.592.624-.128,1.217-.256,1.633-.384l.416,2.113Z"/><path class="cls-9" d="M302.205,126.431c.816-.736,1.921-2.097,2.354-2.881-.385.08-1.969.4-3.697.769.607,2.193,1.28,4.658,1.536,5.49.096.288.304.992.433,1.312l-2.178.528c-.048-.416-.159-.944-.288-1.393-.239-.864-.896-3.345-1.473-5.538-1.344.288-2.513.528-2.993.64l-.496-1.92c.513-.048.944-.096,1.473-.192.225-.032.801-.128,1.537-.272-.16-.624-.305-1.136-.416-1.489-.112-.416-.272-.8-.448-1.136l2.145-.512c.064.384.16.8.256,1.216l.433,1.553c2.032-.384,4.273-.816,4.897-.96.288-.048.593-.144.816-.256l1.28.912c-.672,1.409-2.288,3.81-3.409,5.01l-1.761-.88Z"/><path class="cls-9" d="M318.877,126.398c2.722-1.617,4.818-4.065,5.826-6.227l1.249,2.257c-1.217,2.161-3.346,4.37-5.923,5.923-1.616.976-3.682,1.873-5.938,2.257l-1.344-2.113c2.496-.353,4.577-1.168,6.13-2.097ZM318.877,121.212l-1.633,1.681c-.832-.896-2.833-2.641-4.001-3.458l1.504-1.601c1.121.752,3.202,2.417,4.13,3.377Z"/><path class="cls-9" d="M337.485,125.326c1.057-.944,2.112-2.401,2.561-3.233-.496.096-2.657.528-4.93.977v4.242c0,.992.288,1.344,2.033,1.344,1.696,0,3.473-.224,5.058-.528l-.064,2.161c-1.328.192-3.249.352-4.962.352-3.649,0-4.178-.88-4.178-2.769v-4.37c-1.424.288-2.688.544-3.361.704l-.384-2.097c.752-.096,2.161-.336,3.745-.625v-2.289c0-.528-.048-1.345-.128-1.825h2.385c-.079.48-.144,1.28-.144,1.825v1.889c2.337-.432,4.578-.896,5.298-1.057.448-.112.833-.224,1.137-.384l1.536,1.2c-.144.224-.384.576-.527.864-.705,1.329-2.161,3.538-3.313,4.658l-1.761-1.041Z"/><path class="cls-9" d="M346.729,129.408c1.409-.992,2.273-2.465,2.722-3.826.448-1.376.464-4.401.464-6.338,0-.64-.048-1.072-.144-1.457h2.353c-.016.064-.112.784-.112,1.44,0,1.889-.048,5.266-.479,6.883-.48,1.809-1.473,3.377-2.85,4.594l-1.953-1.296ZM354.141,129.648c.064-.304.128-.752.128-1.185v-9.332c0-.721-.111-1.329-.128-1.377h2.385c-.016.048-.111.672-.111,1.393v8.372c1.296-.56,2.881-1.825,3.953-3.377l1.232,1.761c-1.328,1.729-3.633,3.458-5.426,4.37-.336.176-.496.32-.704.48l-1.329-1.104Z"/><path class="cls-9" d="M367.676,125.358v3.922c0,.832-.129,1.296-.593,1.584-.448.288-1.057.352-1.969.352-.032-.48-.24-1.216-.464-1.696.448.016.88.016,1.024.016.176,0,.224-.064.224-.24v-3.33c-.464.16-.912.304-1.328.448l-.448-1.825c.512-.128,1.104-.304,1.776-.496v-2.865h-1.553v-1.761h1.553v-3.009h1.777v3.009h1.328v1.761h-1.328v2.305l1.152-.384.304,1.681-1.456.528ZM375.791,127.583c.896.848,2.225,1.601,3.521,2.017-.384.32-.928.993-1.2,1.441-1.12-.48-2.257-1.281-3.137-2.225v2.609h-1.81v-2.561c-1.088,1.024-2.448,1.825-3.873,2.305-.272-.432-.784-1.121-1.169-1.473,1.553-.4,3.09-1.185,4.13-2.113h-2.945v-1.537h3.857v-.977h-3.649v-3.761h4.227v3.697h.624v-3.697h4.369v3.761h-3.761v.977h4.033v1.537h-3.217ZM372.237,122.589h-1.312v1.185h1.312v-1.185ZM377.215,120.748h-6.258v-3.713h6.258v3.713ZM375.486,118.363h-2.913v1.057h2.913v-1.057ZM375.839,123.773h1.376v-1.185h-1.376v1.185Z"/><path class="cls-9" d="M387.18,117.083c-.416,1.12-.944,2.257-1.536,3.329v10.964h-1.921v-8.003c-.336.4-.672.8-.992,1.152-.176-.464-.721-1.553-1.057-2.033,1.457-1.441,2.85-3.714,3.649-5.987l1.856.577ZM392.254,120.86v1.681h4.146v1.729h-4.146v1.809h4.354v1.761h-4.354v3.553h-1.952v-10.532h-.608c-.641,1.185-1.377,2.273-2.097,3.105-.305-.352-1.057-1.024-1.457-1.328,1.408-1.441,2.673-3.746,3.394-6.035l1.841.464c-.225.672-.48,1.329-.784,1.985h6.21v1.809h-4.546Z"/><path class="cls-9" d="M410.093,116.715c3.985,0,7.203,3.217,7.203,7.203s-3.218,7.203-7.203,7.203-7.203-3.217-7.203-7.203,3.218-7.203,7.203-7.203ZM410.093,117.419c-3.585,0-6.499,2.913-6.499,6.499s2.914,6.499,6.499,6.499,6.499-2.913,6.499-6.499-2.913-6.499-6.499-6.499ZM410.093,119.211c2.609,0,4.706,2.097,4.706,4.706s-2.097,4.706-4.706,4.706-4.706-2.097-4.706-4.706,2.097-4.706,4.706-4.706ZM410.093,119.804c-2.272,0-4.113,1.841-4.113,4.114s1.841,4.114,4.113,4.114,4.113-1.841,4.113-4.114-1.84-4.114-4.113-4.114Z"/><path class="cls-2" d="M290.271,125.326c-.416.032-1.072.144-1.681.24-.769.128-2.064.336-3.474.56.257,1.312.48,2.385.576,2.881.112.48.272,1.056.417,1.568l-2.306.416c-.08-.608-.128-1.152-.224-1.616-.08-.464-.288-1.569-.544-2.914-1.633.272-3.138.528-3.826.656-.688.128-1.232.24-1.601.336l-.448-2.145c.433-.016,1.152-.112,1.665-.176.736-.112,2.225-.352,3.842-.608l-.48-2.561c-1.409.224-2.642.432-3.138.512-.56.112-.992.208-1.473.336l-.432-2.209c.512-.016.992-.048,1.488-.112.561-.064,1.793-.24,3.169-.464-.128-.672-.239-1.2-.288-1.457-.096-.448-.208-.832-.319-1.216l2.257-.368c.048.32.096.864.176,1.249.032.224.128.752.256,1.473,1.36-.224,2.577-.417,3.153-.528.513-.096,1.121-.224,1.505-.336l.384,2.097c-.352.032-.992.128-1.473.192l-3.201.512.496,2.545c1.44-.24,2.754-.448,3.474-.592.624-.128,1.217-.256,1.633-.384l.416,2.113Z"/><path class="cls-2" d="M302.205,126.431c.816-.736,1.921-2.097,2.354-2.881-.385.08-1.969.4-3.697.769.607,2.193,1.28,4.658,1.536,5.49.096.288.304.992.433,1.312l-2.178.528c-.048-.416-.159-.944-.288-1.393-.239-.864-.896-3.345-1.473-5.538-1.344.288-2.513.528-2.993.64l-.496-1.92c.513-.048.944-.096,1.473-.192.225-.032.801-.128,1.537-.272-.16-.624-.305-1.136-.416-1.489-.112-.416-.272-.8-.448-1.136l2.145-.512c.064.384.16.8.256,1.216l.433,1.553c2.032-.384,4.273-.816,4.897-.96.288-.048.593-.144.816-.256l1.28.912c-.672,1.409-2.288,3.81-3.409,5.01l-1.761-.88Z"/><path class="cls-2" d="M318.877,126.398c2.722-1.617,4.818-4.065,5.826-6.227l1.249,2.257c-1.217,2.161-3.346,4.37-5.923,5.923-1.616.976-3.682,1.873-5.938,2.257l-1.344-2.113c2.496-.353,4.577-1.168,6.13-2.097ZM318.877,121.212l-1.633,1.681c-.832-.896-2.833-2.641-4.001-3.458l1.504-1.601c1.121.752,3.202,2.417,4.13,3.377Z"/><path class="cls-2" d="M337.485,125.326c1.057-.944,2.112-2.401,2.561-3.233-.496.096-2.657.528-4.93.977v4.242c0,.992.288,1.344,2.033,1.344,1.696,0,3.473-.224,5.058-.528l-.064,2.161c-1.328.192-3.249.352-4.962.352-3.649,0-4.178-.88-4.178-2.769v-4.37c-1.424.288-2.688.544-3.361.704l-.384-2.097c.752-.096,2.161-.336,3.745-.625v-2.289c0-.528-.048-1.345-.128-1.825h2.385c-.079.48-.144,1.28-.144,1.825v1.889c2.337-.432,4.578-.896,5.298-1.057.448-.112.833-.224,1.137-.384l1.536,1.2c-.144.224-.384.576-.527.864-.705,1.329-2.161,3.538-3.313,4.658l-1.761-1.041Z"/><path class="cls-2" d="M346.729,129.408c1.409-.992,2.273-2.465,2.722-3.826.448-1.376.464-4.401.464-6.338,0-.64-.048-1.072-.144-1.457h2.353c-.016.064-.112.784-.112,1.44,0,1.889-.048,5.266-.479,6.883-.48,1.809-1.473,3.377-2.85,4.594l-1.953-1.296ZM354.141,129.648c.064-.304.128-.752.128-1.185v-9.332c0-.721-.111-1.329-.128-1.377h2.385c-.016.048-.111.672-.111,1.393v8.372c1.296-.56,2.881-1.825,3.953-3.377l1.232,1.761c-1.328,1.729-3.633,3.458-5.426,4.37-.336.176-.496.32-.704.48l-1.329-1.104Z"/><path class="cls-2" d="M367.676,125.358v3.922c0,.832-.129,1.296-.593,1.584-.448.288-1.057.352-1.969.352-.032-.48-.24-1.216-.464-1.696.448.016.88.016,1.024.016.176,0,.224-.064.224-.24v-3.33c-.464.16-.912.304-1.328.448l-.448-1.825c.512-.128,1.104-.304,1.776-.496v-2.865h-1.553v-1.761h1.553v-3.009h1.777v3.009h1.328v1.761h-1.328v2.305l1.152-.384.304,1.681-1.456.528ZM375.791,127.583c.896.848,2.225,1.601,3.521,2.017-.384.32-.928.993-1.2,1.441-1.12-.48-2.257-1.281-3.137-2.225v2.609h-1.81v-2.561c-1.088,1.024-2.448,1.825-3.873,2.305-.272-.432-.784-1.121-1.169-1.473,1.553-.4,3.09-1.185,4.13-2.113h-2.945v-1.537h3.857v-.977h-3.649v-3.761h4.227v3.697h.624v-3.697h4.369v3.761h-3.761v.977h4.033v1.537h-3.217ZM372.237,122.589h-1.312v1.185h1.312v-1.185ZM377.215,120.748h-6.258v-3.713h6.258v3.713ZM375.486,118.363h-2.913v1.057h2.913v-1.057ZM375.839,123.773h1.376v-1.185h-1.376v1.185Z"/><path class="cls-2" d="M387.18,117.083c-.416,1.12-.944,2.257-1.536,3.329v10.964h-1.921v-8.003c-.336.4-.672.8-.992,1.152-.176-.464-.721-1.553-1.057-2.033,1.457-1.441,2.85-3.714,3.649-5.987l1.856.577ZM392.254,120.86v1.681h4.146v1.729h-4.146v1.809h4.354v1.761h-4.354v3.553h-1.952v-10.532h-.608c-.641,1.185-1.377,2.273-2.097,3.105-.305-.352-1.057-1.024-1.457-1.328,1.408-1.441,2.673-3.746,3.394-6.035l1.841.464c-.225.672-.48,1.329-.784,1.985h6.21v1.809h-4.546Z"/><path class="cls-10" d="M410.093,116.715c3.985,0,7.203,3.217,7.203,7.203s-3.218,7.203-7.203,7.203-7.203-3.217-7.203-7.203,3.218-7.203,7.203-7.203ZM410.093,117.419c-3.585,0-6.499,2.913-6.499,6.499s2.914,6.499,6.499,6.499,6.499-2.913,6.499-6.499-2.913-6.499-6.499-6.499ZM410.093,119.211c2.609,0,4.706,2.097,4.706,4.706s-2.097,4.706-4.706,4.706-4.706-2.097-4.706-4.706,2.097-4.706,4.706-4.706ZM410.093,119.804c-2.272,0-4.113,1.841-4.113,4.114s1.841,4.114,4.113,4.114,4.113-1.841,4.113-4.114-1.84-4.114-4.113-4.114Z"/><path class="cls-4" d="M290.271,125.326c-.416.032-1.072.144-1.681.24-.769.128-2.064.336-3.474.56.257,1.312.48,2.385.576,2.881.112.48.272,1.056.417,1.568l-2.306.416c-.08-.608-.128-1.152-.224-1.616-.08-.464-.288-1.569-.544-2.914-1.633.272-3.138.528-3.826.656-.688.128-1.232.24-1.601.336l-.448-2.145c.433-.016,1.152-.112,1.665-.176.736-.112,2.225-.352,3.842-.608l-.48-2.561c-1.409.224-2.642.432-3.138.512-.56.112-.992.208-1.473.336l-.432-2.209c.512-.016.992-.048,1.488-.112.561-.064,1.793-.24,3.169-.464-.128-.672-.239-1.2-.288-1.457-.096-.448-.208-.832-.319-1.216l2.257-.368c.048.32.096.864.176,1.249.032.224.128.752.256,1.473,1.36-.224,2.577-.417,3.153-.528.513-.096,1.121-.224,1.505-.336l.384,2.097c-.352.032-.992.128-1.473.192l-3.201.512.496,2.545c1.44-.24,2.754-.448,3.474-.592.624-.128,1.217-.256,1.633-.384l.416,2.113Z"/><path class="cls-4" d="M302.205,126.431c.816-.736,1.921-2.097,2.354-2.881-.385.08-1.969.4-3.697.769.607,2.193,1.28,4.658,1.536,5.49.096.288.304.992.433,1.312l-2.178.528c-.048-.416-.159-.944-.288-1.393-.239-.864-.896-3.345-1.473-5.538-1.344.288-2.513.528-2.993.64l-.496-1.92c.513-.048.944-.096,1.473-.192.225-.032.801-.128,1.537-.272-.16-.624-.305-1.136-.416-1.489-.112-.416-.272-.8-.448-1.136l2.145-.512c.064.384.16.8.256,1.216l.433,1.553c2.032-.384,4.273-.816,4.897-.96.288-.048.593-.144.816-.256l1.28.912c-.672,1.409-2.288,3.81-3.409,5.01l-1.761-.88Z"/><path class="cls-4" d="M318.877,126.398c2.722-1.617,4.818-4.065,5.826-6.227l1.249,2.257c-1.217,2.161-3.346,4.37-5.923,5.923-1.616.976-3.682,1.873-5.938,2.257l-1.344-2.113c2.496-.353,4.577-1.168,6.13-2.097ZM318.877,121.212l-1.633,1.681c-.832-.896-2.833-2.641-4.001-3.458l1.504-1.601c1.121.752,3.202,2.417,4.13,3.377Z"/><path class="cls-4" d="M337.485,125.326c1.057-.944,2.112-2.401,2.561-3.233-.496.096-2.657.528-4.93.977v4.242c0,.992.288,1.344,2.033,1.344,1.696,0,3.473-.224,5.058-.528l-.064,2.161c-1.328.192-3.249.352-4.962.352-3.649,0-4.178-.88-4.178-2.769v-4.37c-1.424.288-2.688.544-3.361.704l-.384-2.097c.752-.096,2.161-.336,3.745-.625v-2.289c0-.528-.048-1.345-.128-1.825h2.385c-.079.48-.144,1.28-.144,1.825v1.889c2.337-.432,4.578-.896,5.298-1.057.448-.112.833-.224,1.137-.384l1.536,1.2c-.144.224-.384.576-.527.864-.705,1.329-2.161,3.538-3.313,4.658l-1.761-1.041Z"/><path class="cls-4" d="M346.729,129.408c1.409-.992,2.273-2.465,2.722-3.826.448-1.376.464-4.401.464-6.338,0-.64-.048-1.072-.144-1.457h2.353c-.016.064-.112.784-.112,1.44,0,1.889-.048,5.266-.479,6.883-.48,1.809-1.473,3.377-2.85,4.594l-1.953-1.296ZM354.141,129.648c.064-.304.128-.752.128-1.185v-9.332c0-.721-.111-1.329-.128-1.377h2.385c-.016.048-.111.672-.111,1.393v8.372c1.296-.56,2.881-1.825,3.953-3.377l1.232,1.761c-1.328,1.729-3.633,3.458-5.426,4.37-.336.176-.496.32-.704.48l-1.329-1.104Z"/><path class="cls-4" d="M367.676,125.358v3.922c0,.832-.129,1.296-.593,1.584-.448.288-1.057.352-1.969.352-.032-.48-.24-1.216-.464-1.696.448.016.88.016,1.024.016.176,0,.224-.064.224-.24v-3.33c-.464.16-.912.304-1.328.448l-.448-1.825c.512-.128,1.104-.304,1.776-.496v-2.865h-1.553v-1.761h1.553v-3.009h1.777v3.009h1.328v1.761h-1.328v2.305l1.152-.384.304,1.681-1.456.528ZM375.791,127.583c.896.848,2.225,1.601,3.521,2.017-.384.32-.928.993-1.2,1.441-1.12-.48-2.257-1.281-3.137-2.225v2.609h-1.81v-2.561c-1.088,1.024-2.448,1.825-3.873,2.305-.272-.432-.784-1.121-1.169-1.473,1.553-.4,3.09-1.185,4.13-2.113h-2.945v-1.537h3.857v-.977h-3.649v-3.761h4.227v3.697h.624v-3.697h4.369v3.761h-3.761v.977h4.033v1.537h-3.217ZM372.237,122.589h-1.312v1.185h1.312v-1.185ZM377.215,120.748h-6.258v-3.713h6.258v3.713ZM375.486,118.363h-2.913v1.057h2.913v-1.057ZM375.839,123.773h1.376v-1.185h-1.376v1.185Z"/><path class="cls-4" d="M387.18,117.083c-.416,1.12-.944,2.257-1.536,3.329v10.964h-1.921v-8.003c-.336.4-.672.8-.992,1.152-.176-.464-.721-1.553-1.057-2.033,1.457-1.441,2.85-3.714,3.649-5.987l1.856.577ZM392.254,120.86v1.681h4.146v1.729h-4.146v1.809h4.354v1.761h-4.354v3.553h-1.952v-10.532h-.608c-.641,1.185-1.377,2.273-2.097,3.105-.305-.352-1.057-1.024-1.457-1.328,1.408-1.441,2.673-3.746,3.394-6.035l1.841.464c-.225.672-.48,1.329-.784,1.985h6.21v1.809h-4.546Z"/><path class="cls-4" d="M410.093,116.715c3.985,0,7.203,3.217,7.203,7.203s-3.218,7.203-7.203,7.203-7.203-3.217-7.203-7.203,3.218-7.203,7.203-7.203ZM410.093,117.419c-3.585,0-6.499,2.913-6.499,6.499s2.914,6.499,6.499,6.499,6.499-2.913,6.499-6.499-2.913-6.499-6.499-6.499ZM410.093,119.211c2.609,0,4.706,2.097,4.706,4.706s-2.097,4.706-4.706,4.706-4.706-2.097-4.706-4.706,2.097-4.706,4.706-4.706ZM410.093,119.804c-2.272,0-4.113,1.841-4.113,4.114s1.841,4.114,4.113,4.114,4.113-1.841,4.113-4.114-1.84-4.114-4.113-4.114Z"/><path class="cls-9" d="M290.271,200.326c-.416.032-1.072.144-1.681.24-.769.128-2.064.336-3.474.56.257,1.312.48,2.385.576,2.881.112.48.272,1.056.417,1.568l-2.306.416c-.08-.608-.128-1.152-.224-1.616-.08-.464-.288-1.569-.544-2.914-1.633.272-3.138.528-3.826.656-.688.128-1.232.24-1.601.336l-.448-2.145c.433-.016,1.152-.112,1.665-.176.736-.112,2.225-.352,3.842-.608l-.48-2.561c-1.409.224-2.642.432-3.138.512-.56.112-.992.208-1.473.336l-.432-2.209c.512-.016.992-.048,1.488-.112.561-.064,1.793-.24,3.169-.464-.128-.672-.239-1.2-.288-1.457-.096-.448-.208-.832-.319-1.216l2.257-.368c.048.32.096.864.176,1.249.032.224.128.752.256,1.473,1.36-.224,2.577-.417,3.153-.528.513-.096,1.121-.224,1.505-.336l.384,2.097c-.352.032-.992.128-1.473.192l-3.201.512.496,2.545c1.44-.24,2.754-.448,3.474-.592.624-.128,1.217-.256,1.633-.384l.416,2.113Z"/><path class="cls-9" d="M302.205,201.431c.816-.736,1.921-2.097,2.354-2.881-.385.08-1.969.4-3.697.769.607,2.193,1.28,4.658,1.536,5.49.096.288.304.992.433,1.312l-2.178.528c-.048-.416-.159-.944-.288-1.393-.239-.864-.896-3.345-1.473-5.538-1.344.288-2.513.528-2.993.64l-.496-1.92c.513-.048.944-.096,1.473-.192.225-.032.801-.128,1.537-.272-.16-.624-.305-1.136-.416-1.489-.112-.416-.272-.8-.448-1.136l2.145-.512c.064.384.16.8.256,1.216l.433,1.553c2.032-.384,4.273-.816,4.897-.96.288-.048.593-.144.816-.256l1.28.912c-.672,1.409-2.288,3.81-3.409,5.01l-1.761-.88Z"/><path class="cls-9" d="M318.877,201.398c2.722-1.617,4.818-4.065,5.826-6.227l1.249,2.257c-1.217,2.161-3.346,4.37-5.923,5.923-1.616.976-3.682,1.873-5.938,2.257l-1.344-2.113c2.496-.353,4.577-1.168,6.13-2.097ZM318.877,196.212l-1.633,1.681c-.832-.896-2.833-2.641-4.001-3.458l1.504-1.601c1.121.752,3.202,2.417,4.13,3.377Z"/><path class="cls-9" d="M337.485,200.326c1.057-.944,2.112-2.401,2.561-3.233-.496.096-2.657.528-4.93.977v4.242c0,.992.288,1.344,2.033,1.344,1.696,0,3.473-.224,5.058-.528l-.064,2.161c-1.328.192-3.249.352-4.962.352-3.649,0-4.178-.88-4.178-2.769v-4.37c-1.424.288-2.688.544-3.361.704l-.384-2.097c.752-.096,2.161-.336,3.745-.625v-2.289c0-.528-.048-1.345-.128-1.825h2.385c-.079.48-.144,1.28-.144,1.825v1.889c2.337-.432,4.578-.896,5.298-1.057.448-.112.833-.224,1.137-.384l1.536,1.2c-.144.224-.384.576-.527.864-.705,1.329-2.161,3.538-3.313,4.658l-1.761-1.041Z"/><path class="cls-9" d="M346.729,204.408c1.409-.992,2.273-2.465,2.722-3.826.448-1.376.464-4.401.464-6.338,0-.64-.048-1.072-.144-1.457h2.353c-.016.064-.112.784-.112,1.44,0,1.889-.048,5.266-.479,6.883-.48,1.809-1.473,3.377-2.85,4.594l-1.953-1.296ZM354.141,204.648c.064-.304.128-.752.128-1.185v-9.332c0-.721-.111-1.329-.128-1.377h2.385c-.016.048-.111.672-.111,1.393v8.372c1.296-.56,2.881-1.825,3.953-3.377l1.232,1.761c-1.328,1.729-3.633,3.458-5.426,4.37-.336.176-.496.32-.704.48l-1.329-1.104Z"/><path class="cls-9" d="M367.676,200.358v3.922c0,.832-.129,1.296-.593,1.584-.448.288-1.057.352-1.969.352-.032-.48-.24-1.216-.464-1.696.448.016.88.016,1.024.016.176,0,.224-.064.224-.24v-3.33c-.464.16-.912.304-1.328.448l-.448-1.825c.512-.128,1.104-.304,1.776-.496v-2.865h-1.553v-1.761h1.553v-3.009h1.777v3.009h1.328v1.761h-1.328v2.305l1.152-.384.304,1.681-1.456.528ZM375.791,202.583c.896.848,2.225,1.601,3.521,2.017-.384.32-.928.993-1.2,1.441-1.12-.48-2.257-1.281-3.137-2.225v2.609h-1.81v-2.561c-1.088,1.024-2.448,1.825-3.873,2.305-.272-.432-.784-1.121-1.169-1.473,1.553-.4,3.09-1.185,4.13-2.113h-2.945v-1.537h3.857v-.977h-3.649v-3.761h4.227v3.697h.624v-3.697h4.369v3.761h-3.761v.977h4.033v1.537h-3.217ZM372.237,197.589h-1.312v1.185h1.312v-1.185ZM377.215,195.748h-6.258v-3.713h6.258v3.713ZM375.486,193.363h-2.913v1.057h2.913v-1.057ZM375.839,198.773h1.376v-1.185h-1.376v1.185Z"/><path class="cls-9" d="M387.18,192.083c-.416,1.12-.944,2.257-1.536,3.329v10.964h-1.921v-8.003c-.336.4-.672.8-.992,1.152-.176-.464-.721-1.553-1.057-2.033,1.457-1.441,2.85-3.714,3.649-5.987l1.856.577ZM392.254,195.86v1.681h4.146v1.729h-4.146v1.809h4.354v1.761h-4.354v3.553h-1.952v-10.532h-.608c-.641,1.185-1.377,2.273-2.097,3.105-.305-.352-1.057-1.024-1.457-1.328,1.408-1.441,2.673-3.746,3.394-6.035l1.841.464c-.225.672-.48,1.329-.784,1.985h6.21v1.809h-4.546Z"/><path class="cls-9" d="M410.093,191.715c3.985,0,7.203,3.217,7.203,7.203s-3.218,7.203-7.203,7.203-7.203-3.217-7.203-7.203,3.218-7.203,7.203-7.203ZM410.093,192.419c-3.585,0-6.499,2.913-6.499,6.499s2.914,6.499,6.499,6.499,6.499-2.913,6.499-6.499-2.913-6.499-6.499-6.499ZM410.093,194.211c2.609,0,4.706,2.097,4.706,4.706s-2.097,4.706-4.706,4.706-4.706-2.097-4.706-4.706,2.097-4.706,4.706-4.706ZM410.093,194.804c-2.272,0-4.113,1.841-4.113,4.114s1.841,4.114,4.113,4.114,4.113-1.841,4.113-4.114-1.84-4.114-4.113-4.114Z"/><path class="cls-2" d="M290.271,200.326c-.416.032-1.072.144-1.681.24-.769.128-2.064.336-3.474.56.257,1.312.48,2.385.576,2.881.112.48.272,1.056.417,1.568l-2.306.416c-.08-.608-.128-1.152-.224-1.616-.08-.464-.288-1.569-.544-2.914-1.633.272-3.138.528-3.826.656-.688.128-1.232.24-1.601.336l-.448-2.145c.433-.016,1.152-.112,1.665-.176.736-.112,2.225-.352,3.842-.608l-.48-2.561c-1.409.224-2.642.432-3.138.512-.56.112-.992.208-1.473.336l-.432-2.209c.512-.016.992-.048,1.488-.112.561-.064,1.793-.24,3.169-.464-.128-.672-.239-1.2-.288-1.457-.096-.448-.208-.832-.319-1.216l2.257-.368c.048.32.096.864.176,1.249.032.224.128.752.256,1.473,1.36-.224,2.577-.417,3.153-.528.513-.096,1.121-.224,1.505-.336l.384,2.097c-.352.032-.992.128-1.473.192l-3.201.512.496,2.545c1.44-.24,2.754-.448,3.474-.592.624-.128,1.217-.256,1.633-.384l.416,2.113Z"/><path class="cls-2" d="M302.205,201.431c.816-.736,1.921-2.097,2.354-2.881-.385.08-1.969.4-3.697.769.607,2.193,1.28,4.658,1.536,5.49.096.288.304.992.433,1.312l-2.178.528c-.048-.416-.159-.944-.288-1.393-.239-.864-.896-3.345-1.473-5.538-1.344.288-2.513.528-2.993.64l-.496-1.92c.513-.048.944-.096,1.473-.192.225-.032.801-.128,1.537-.272-.16-.624-.305-1.136-.416-1.489-.112-.416-.272-.8-.448-1.136l2.145-.512c.064.384.16.8.256,1.216l.433,1.553c2.032-.384,4.273-.816,4.897-.96.288-.048.593-.144.816-.256l1.28.912c-.672,1.409-2.288,3.81-3.409,5.01l-1.761-.88Z"/><path class="cls-2" d="M318.877,201.398c2.722-1.617,4.818-4.065,5.826-6.227l1.249,2.257c-1.217,2.161-3.346,4.37-5.923,5.923-1.616.976-3.682,1.873-5.938,2.257l-1.344-2.113c2.496-.353,4.577-1.168,6.13-2.097ZM318.877,196.212l-1.633,1.681c-.832-.896-2.833-2.641-4.001-3.458l1.504-1.601c1.121.752,3.202,2.417,4.13,3.377Z"/><path class="cls-2" d="M337.485,200.326c1.057-.944,2.112-2.401,2.561-3.233-.496.096-2.657.528-4.93.977v4.242c0,.992.288,1.344,2.033,1.344,1.696,0,3.473-.224,5.058-.528l-.064,2.161c-1.328.192-3.249.352-4.962.352-3.649,0-4.178-.88-4.178-2.769v-4.37c-1.424.288-2.688.544-3.361.704l-.384-2.097c.752-.096,2.161-.336,3.745-.625v-2.289c0-.528-.048-1.345-.128-1.825h2.385c-.079.48-.144,1.28-.144,1.825v1.889c2.337-.432,4.578-.896,5.298-1.057.448-.112.833-.224,1.137-.384l1.536,1.2c-.144.224-.384.576-.527.864-.705,1.329-2.161,3.538-3.313,4.658l-1.761-1.041Z"/><path class="cls-2" d="M346.729,204.408c1.409-.992,2.273-2.465,2.722-3.826.448-1.376.464-4.401.464-6.338,0-.64-.048-1.072-.144-1.457h2.353c-.016.064-.112.784-.112,1.44,0,1.889-.048,5.266-.479,6.883-.48,1.809-1.473,3.377-2.85,4.594l-1.953-1.296ZM354.141,204.648c.064-.304.128-.752.128-1.185v-9.332c0-.721-.111-1.329-.128-1.377h2.385c-.016.048-.111.672-.111,1.393v8.372c1.296-.56,2.881-1.825,3.953-3.377l1.232,1.761c-1.328,1.729-3.633,3.458-5.426,4.37-.336.176-.496.32-.704.48l-1.329-1.104Z"/><path class="cls-2" d="M367.676,200.358v3.922c0,.832-.129,1.296-.593,1.584-.448.288-1.057.352-1.969.352-.032-.48-.24-1.216-.464-1.696.448.016.88.016,1.024.016.176,0,.224-.064.224-.24v-3.33c-.464.16-.912.304-1.328.448l-.448-1.825c.512-.128,1.104-.304,1.776-.496v-2.865h-1.553v-1.761h1.553v-3.009h1.777v3.009h1.328v1.761h-1.328v2.305l1.152-.384.304,1.681-1.456.528ZM375.791,202.583c.896.848,2.225,1.601,3.521,2.017-.384.32-.928.993-1.2,1.441-1.12-.48-2.257-1.281-3.137-2.225v2.609h-1.81v-2.561c-1.088,1.024-2.448,1.825-3.873,2.305-.272-.432-.784-1.121-1.169-1.473,1.553-.4,3.09-1.185,4.13-2.113h-2.945v-1.537h3.857v-.977h-3.649v-3.761h4.227v3.697h.624v-3.697h4.369v3.761h-3.761v.977h4.033v1.537h-3.217ZM372.237,197.589h-1.312v1.185h1.312v-1.185ZM377.215,195.748h-6.258v-3.713h6.258v3.713ZM375.486,193.363h-2.913v1.057h2.913v-1.057ZM375.839,198.773h1.376v-1.185h-1.376v1.185Z"/><path class="cls-2" d="M387.18,192.083c-.416,1.12-.944,2.257-1.536,3.329v10.964h-1.921v-8.003c-.336.4-.672.8-.992,1.152-.176-.464-.721-1.553-1.057-2.033,1.457-1.441,2.85-3.714,3.649-5.987l1.856.577ZM392.254,195.86v1.681h4.146v1.729h-4.146v1.809h4.354v1.761h-4.354v3.553h-1.952v-10.532h-.608c-.641,1.185-1.377,2.273-2.097,3.105-.305-.352-1.057-1.024-1.457-1.328,1.408-1.441,2.673-3.746,3.394-6.035l1.841.464c-.225.672-.48,1.329-.784,1.985h6.21v1.809h-4.546Z"/><path class="cls-10" d="M410.093,191.715c3.985,0,7.203,3.217,7.203,7.203s-3.218,7.203-7.203,7.203-7.203-3.217-7.203-7.203,3.218-7.203,7.203-7.203ZM410.093,192.419c-3.585,0-6.499,2.913-6.499,6.499s2.914,6.499,6.499,6.499,6.499-2.913,6.499-6.499-2.913-6.499-6.499-6.499ZM410.093,194.211c2.609,0,4.706,2.097,4.706,4.706s-2.097,4.706-4.706,4.706-4.706-2.097-4.706-4.706,2.097-4.706,4.706-4.706ZM410.093,194.804c-2.272,0-4.113,1.841-4.113,4.114s1.841,4.114,4.113,4.114,4.113-1.841,4.113-4.114-1.84-4.114-4.113-4.114Z"/><path class="cls-4" d="M290.271,200.326c-.416.032-1.072.144-1.681.24-.769.128-2.064.336-3.474.56.257,1.312.48,2.385.576,2.881.112.48.272,1.056.417,1.568l-2.306.416c-.08-.608-.128-1.152-.224-1.616-.08-.464-.288-1.569-.544-2.914-1.633.272-3.138.528-3.826.656-.688.128-1.232.24-1.601.336l-.448-2.145c.433-.016,1.152-.112,1.665-.176.736-.112,2.225-.352,3.842-.608l-.48-2.561c-1.409.224-2.642.432-3.138.512-.56.112-.992.208-1.473.336l-.432-2.209c.512-.016.992-.048,1.488-.112.561-.064,1.793-.24,3.169-.464-.128-.672-.239-1.2-.288-1.457-.096-.448-.208-.832-.319-1.216l2.257-.368c.048.32.096.864.176,1.249.032.224.128.752.256,1.473,1.36-.224,2.577-.417,3.153-.528.513-.096,1.121-.224,1.505-.336l.384,2.097c-.352.032-.992.128-1.473.192l-3.201.512.496,2.545c1.44-.24,2.754-.448,3.474-.592.624-.128,1.217-.256,1.633-.384l.416,2.113Z"/><path class="cls-4" d="M302.205,201.431c.816-.736,1.921-2.097,2.354-2.881-.385.08-1.969.4-3.697.769.607,2.193,1.28,4.658,1.536,5.49.096.288.304.992.433,1.312l-2.178.528c-.048-.416-.159-.944-.288-1.393-.239-.864-.896-3.345-1.473-5.538-1.344.288-2.513.528-2.993.64l-.496-1.92c.513-.048.944-.096,1.473-.192.225-.032.801-.128,1.537-.272-.16-.624-.305-1.136-.416-1.489-.112-.416-.272-.8-.448-1.136l2.145-.512c.064.384.16.8.256,1.216l.433,1.553c2.032-.384,4.273-.816,4.897-.96.288-.048.593-.144.816-.256l1.28.912c-.672,1.409-2.288,3.81-3.409,5.01l-1.761-.88Z"/><path class="cls-4" d="M318.877,201.398c2.722-1.617,4.818-4.065,5.826-6.227l1.249,2.257c-1.217,2.161-3.346,4.37-5.923,5.923-1.616.976-3.682,1.873-5.938,2.257l-1.344-2.113c2.496-.353,4.577-1.168,6.13-2.097ZM318.877,196.212l-1.633,1.681c-.832-.896-2.833-2.641-4.001-3.458l1.504-1.601c1.121.752,3.202,2.417,4.13,3.377Z"/><path class="cls-4" d="M337.485,200.326c1.057-.944,2.112-2.401,2.561-3.233-.496.096-2.657.528-4.93.977v4.242c0,.992.288,1.344,2.033,1.344,1.696,0,3.473-.224,5.058-.528l-.064,2.161c-1.328.192-3.249.352-4.962.352-3.649,0-4.178-.88-4.178-2.769v-4.37c-1.424.288-2.688.544-3.361.704l-.384-2.097c.752-.096,2.161-.336,3.745-.625v-2.289c0-.528-.048-1.345-.128-1.825h2.385c-.079.48-.144,1.28-.144,1.825v1.889c2.337-.432,4.578-.896,5.298-1.057.448-.112.833-.224,1.137-.384l1.536,1.2c-.144.224-.384.576-.527.864-.705,1.329-2.161,3.538-3.313,4.658l-1.761-1.041Z"/><path class="cls-4" d="M346.729,204.408c1.409-.992,2.273-2.465,2.722-3.826.448-1.376.464-4.401.464-6.338,0-.64-.048-1.072-.144-1.457h2.353c-.016.064-.112.784-.112,1.44,0,1.889-.048,5.266-.479,6.883-.48,1.809-1.473,3.377-2.85,4.594l-1.953-1.296ZM354.141,204.648c.064-.304.128-.752.128-1.185v-9.332c0-.721-.111-1.329-.128-1.377h2.385c-.016.048-.111.672-.111,1.393v8.372c1.296-.56,2.881-1.825,3.953-3.377l1.232,1.761c-1.328,1.729-3.633,3.458-5.426,4.37-.336.176-.496.32-.704.48l-1.329-1.104Z"/><path class="cls-4" d="M367.676,200.358v3.922c0,.832-.129,1.296-.593,1.584-.448.288-1.057.352-1.969.352-.032-.48-.24-1.216-.464-1.696.448.016.88.016,1.024.016.176,0,.224-.064.224-.24v-3.33c-.464.16-.912.304-1.328.448l-.448-1.825c.512-.128,1.104-.304,1.776-.496v-2.865h-1.553v-1.761h1.553v-3.009h1.777v3.009h1.328v1.761h-1.328v2.305l1.152-.384.304,1.681-1.456.528ZM375.791,202.583c.896.848,2.225,1.601,3.521,2.017-.384.32-.928.993-1.2,1.441-1.12-.48-2.257-1.281-3.137-2.225v2.609h-1.81v-2.561c-1.088,1.024-2.448,1.825-3.873,2.305-.272-.432-.784-1.121-1.169-1.473,1.553-.4,3.09-1.185,4.13-2.113h-2.945v-1.537h3.857v-.977h-3.649v-3.761h4.227v3.697h.624v-3.697h4.369v3.761h-3.761v.977h4.033v1.537h-3.217ZM372.237,197.589h-1.312v1.185h1.312v-1.185ZM377.215,195.748h-6.258v-3.713h6.258v3.713ZM375.486,193.363h-2.913v1.057h2.913v-1.057ZM375.839,198.773h1.376v-1.185h-1.376v1.185Z"/><path class="cls-4" d="M387.18,192.083c-.416,1.12-.944,2.257-1.536,3.329v10.964h-1.921v-8.003c-.336.4-.672.8-.992,1.152-.176-.464-.721-1.553-1.057-2.033,1.457-1.441,2.85-3.714,3.649-5.987l1.856.577ZM392.254,195.86v1.681h4.146v1.729h-4.146v1.809h4.354v1.761h-4.354v3.553h-1.952v-10.532h-.608c-.641,1.185-1.377,2.273-2.097,3.105-.305-.352-1.057-1.024-1.457-1.328,1.408-1.441,2.673-3.746,3.394-6.035l1.841.464c-.225.672-.48,1.329-.784,1.985h6.21v1.809h-4.546Z"/><path class="cls-4" d="M410.093,191.715c3.985,0,7.203,3.217,7.203,7.203s-3.218,7.203-7.203,7.203-7.203-3.217-7.203-7.203,3.218-7.203,7.203-7.203ZM410.093,192.419c-3.585,0-6.499,2.913-6.499,6.499s2.914,6.499,6.499,6.499,6.499-2.913,6.499-6.499-2.913-6.499-6.499-6.499ZM410.093,194.211c2.609,0,4.706,2.097,4.706,4.706s-2.097,4.706-4.706,4.706-4.706-2.097-4.706-4.706,2.097-4.706,4.706-4.706ZM410.093,194.804c-2.272,0-4.113,1.841-4.113,4.114s1.841,4.114,4.113,4.114,4.113-1.841,4.113-4.114-1.84-4.114-4.113-4.114Z"/><text class="cls-11" transform="translate(123.365 25.3)"><tspan class="cls-12" x="0" y="0">利用開始日の</tspan><tspan class="cls-1" x="137" y="-.6">5</tspan><tspan class="cls-12" x="156.14" y="0">日前に営業外の日が含まれない場合</tspan></text><path class="cls-6" d="M93,36c-9.925,0-18-8.075-18-18S83.075,0,93,0s18,8.075,18,18-8.075,18-18,18ZM93,1c-9.374,0-17,7.626-17,17s7.626,17,17,17,17-7.626,17-17S102.374,1,93,1Z"/><path class="cls-6" d="M96,21v-9h-3.111c-.13.648-.259,1.333-.407,2h2.317l.349-.071,1.266.372c-.661,5.725-2.587,9.731-5.394,11.716-.275-.479-.954-1.294-1.358-1.613,1.339-.886,2.404-2.198,3.211-3.917-.385-.443-1.028-1.01-1.596-1.453-.312.549-.661,1.046-1.064,1.489-.275-.408-.826-1.046-1.211-1.418v6.895h-2v-9.14s-1.064,1.031-1.437,1.457c-.16-.498-.675-1.724-1.013-2.275,1.44-1.653,2.737-4.248,3.519-6.843l1.955.587-.053.214h6.029v1h2v10h-2ZM89,18.726c.953-1.706,1.664-4.479,2.019-6.726h-1.019v-1.698c-.509,1.031-.936,2.062-1,3.075v5.35ZM92.157,16c-.178.533-.355,1.049-.551,1.546.498.355,1.066.782,1.475,1.173.249-.835.444-1.742.604-2.719h-1.529ZM101,10v13.863c0,1.12-.2,1.671-.873,2.008-.655.338-1.673.409-3.11.409-.073-.569-.364-1.493-.655-2.079.982.053,1.91.053,2.237.036.291-.018.4-.089.4-.391v-13.846h2Z"/></g></svg>