<?xml version="1.0" encoding="UTF-8"?><svg id="_レイヤー_2" xmlns="http://www.w3.org/2000/svg" viewBox="0 0 706 321.5"><defs><style>.cls-1,.cls-2,.cls-3,.cls-4,.cls-5,.cls-6,.cls-7{stroke-width:0px;}.cls-1,.cls-8{fill:#bc4646;}.cls-2{fill:#f2f2f2;}.cls-9{fill:none;stroke:#ddd;stroke-linecap:round;stroke-linejoin:round;stroke-width:10px;}.cls-8{stroke:#bc4646;}.cls-8,.cls-10{stroke-miterlimit:10;}.cls-3,.cls-10{fill:#4f6ab7;}.cls-4{fill:#4b5654;}.cls-5{fill:#dd6743;}.cls-6{fill:#fff;}.cls-10{stroke:#4f6ab7;}.cls-7{fill:#c9c9c9;}</style></defs><g id="_コンテンツ"><rect class="cls-5" x="201" y="246.5" width="101" height="74"/><path class="cls-6" d="M215.37,283.79c.784.592,2.369,1.953,2.801,2.289l-1.104,1.632c-.384-.496-1.057-1.216-1.696-1.873v5.522h-1.841v-5.73c-.721,1.457-1.568,2.833-2.449,3.761-.192-.56-.656-1.376-.96-1.856,1.152-1.121,2.32-2.945,3.041-4.61h-2.673v-1.745h3.041v-1.985c-.912.176-1.825.32-2.689.432-.08-.417-.32-1.088-.544-1.489,2.305-.336,4.882-.944,6.435-1.648l1.345,1.472c-.801.32-1.729.592-2.705.833v2.385h2.753v1.745h-2.753v.864ZM220.732,287.327h-1.857v-8.948h1.857v8.948ZM224.542,276.747v12.325c0,1.104-.225,1.632-.881,1.937-.656.32-1.729.384-3.186.368-.08-.544-.368-1.424-.656-1.969,1.041.048,2.065.048,2.401.048.304-.016.432-.112.432-.4v-12.309h1.89Z"/><path class="cls-6" d="M241.726,289.136c0,1.024-.225,1.537-.864,1.825-.656.32-1.633.352-3.073.336-.064-.512-.368-1.329-.608-1.825.896.048,1.953.032,2.241.032.304,0,.416-.096.416-.384v-2.401h-3.378v4.466h-1.92v-4.466h-3.266c-.288,1.745-.864,3.505-2.017,4.754-.305-.352-1.073-1.008-1.505-1.232,1.744-1.921,1.889-4.77,1.889-7.011v-5.714h12.085v11.621ZM234.539,284.926v-1.969h-3.01v.288c0,.512-.016,1.088-.048,1.681h3.058ZM231.529,279.324v1.857h3.01v-1.857h-3.01ZM239.837,279.324h-3.378v1.857h3.378v-1.857ZM239.837,284.926v-1.969h-3.378v1.969h3.378Z"/><path class="cls-6" d="M248.089,282.717v8.675h-1.856v-14.342h6.162v5.667h-4.306ZM248.089,278.411v.816h2.514v-.816h-2.514ZM250.603,281.34v-.88h-2.514v.88h2.514ZM255.292,287.791v3.297h-1.665v-3.297h-1.536c-.16,1.104-.688,2.657-2.049,3.585-.272-.336-.849-.832-1.217-1.088,1.024-.64,1.473-1.681,1.633-2.497h-1.616v-1.553h1.681v-1.2h-1.457v-1.505h7.731v1.505h-1.505v1.2h1.761v1.553h-1.761ZM253.627,286.238v-1.2h-1.488v1.2h1.488ZM259.726,289.167c0,.977-.176,1.505-.752,1.809-.576.32-1.409.368-2.625.368-.064-.528-.32-1.393-.576-1.889.72.032,1.504.032,1.744.016.257,0,.336-.096.336-.32v-6.403h-4.401v-5.698h6.274v12.117ZM255.26,278.411v.816h2.593v-.816h-2.593ZM257.853,281.373v-.913h-2.593v.913h2.593Z"/><path class="cls-6" d="M269.435,279.756c-.177,2.913-.608,5.234-1.329,7.091.704.576,1.312,1.152,1.713,1.665l-1.137,1.521c-.336-.448-.832-.977-1.408-1.505-.752,1.232-1.713,2.193-2.897,2.929-.271-.48-.784-1.168-1.152-1.521,1.057-.56,1.937-1.44,2.609-2.609-.32-.256-.656-.512-.977-.736l-.16.56-1.537-.833c.385-1.312.816-3.089,1.217-4.946h-1.168v-1.745h1.536c.225-1.104.433-2.193.593-3.186l1.792.176c-.176.944-.384,1.969-.607,3.009h1.456l.32-.048,1.137.176ZM266.137,281.373c-.272,1.201-.561,2.385-.832,3.473.416.256.849.544,1.28.849.464-1.232.769-2.689.961-4.322h-1.409ZM270.65,281.645c.576-1.568,1.152-3.633,1.457-5.202l2.112.368c-.512,1.585-1.12,3.33-1.712,4.722.928-.048,1.904-.112,2.896-.16-.336-.592-.688-1.168-1.04-1.681l1.505-.769c.992,1.345,2.049,3.122,2.433,4.338l-1.648.88c-.097-.336-.225-.704-.4-1.104-2.385.192-4.898.368-6.723.496l-.192-1.825,1.312-.064ZM270.362,284.718h7.043v6.611h-1.889v-.56h-3.361v.624h-1.793v-6.675ZM272.155,286.431v2.625h3.361v-2.625h-3.361Z"/><path class="cls-6" d="M293.741,277.403v13.766h-2.049v-1.008h-7.107v1.041h-1.969v-13.798h11.125ZM284.585,279.324v3.441h7.107v-3.441h-7.107ZM291.692,288.239v-3.585h-7.107v3.585h7.107Z"/><rect class="cls-7" x="504" y="173.5" width="201" height="74"/><path class="cls-4" d="M705,174.5h-3v-1h3v1ZM699,174.5h-3v-1h3v1ZM693,174.5h-3v-1h3v1ZM687,174.5h-3v-1h3v1ZM681,174.5h-3v-1h3v1ZM675,174.5h-3v-1h3v1ZM669,174.5h-3v-1h3v1ZM663,174.5h-3v-1h3v1ZM657,174.5h-3v-1h3v1ZM651,174.5h-3v-1h3v1ZM645,174.5h-3v-1h3v1ZM639,174.5h-3v-1h3v1ZM633,174.5h-3v-1h3v1ZM627,174.5h-3v-1h3v1ZM621,174.5h-3v-1h3v1ZM615,174.5h-3v-1h3v1ZM609,174.5h-3v-1h3v1ZM603,174.5h-3v-1h3v1ZM597,174.5h-3v-1h3v1ZM591,174.5h-3v-1h3v1ZM585,174.5h-3v-1h3v1ZM579,174.5h-3v-1h3v1ZM573,174.5h-3v-1h3v1ZM567,174.5h-3v-1h3v1ZM561,174.5h-3v-1h3v1ZM555,174.5h-3v-1h3v1ZM549,174.5h-3v-1h3v1ZM543,174.5h-3v-1h3v1ZM537,174.5h-3v-1h3v1ZM531,174.5h-3v-1h3v1ZM525,174.5h-3v-1h3v1ZM519,174.5h-3v-1h3v1ZM513,174.5h-3v-1h3v1ZM507,174.5h-3v-1h3v1ZM501,174.5h-3v-1h3v1ZM495,174.5h-3v-1h3v1ZM489,174.5h-3v-1h3v1ZM483,174.5h-3v-1h3v1ZM477,174.5h-3v-1h3v1ZM471,174.5h-3v-1h3v1ZM465,174.5h-3v-1h3v1ZM459,174.5h-3v-1h3v1ZM453,174.5h-3v-1h3v1ZM447,174.5h-3v-1h3v1ZM441,174.5h-3v-1h3v1ZM435,174.5h-3v-1h3v1ZM429,174.5h-3v-1h3v1ZM423,174.5h-3v-1h3v1ZM417,174.5h-3v-1h3v1ZM411,174.5h-3v-1h3v1ZM405,174.5h-3v-1h3v1ZM399,174.5h-3v-1h3v1ZM393,174.5h-3v-1h3v1ZM387,174.5h-3v-1h3v1ZM381,174.5h-3v-1h3v1ZM375,174.5h-3v-1h3v1ZM369,174.5h-3v-1h3v1ZM363,174.5h-3v-1h3v1ZM357,174.5h-3v-1h3v1ZM351,174.5h-3v-1h3v1ZM345,174.5h-3v-1h3v1ZM339,174.5h-3v-1h3v1ZM333,174.5h-3v-1h3v1ZM327,174.5h-3v-1h3v1ZM321,174.5h-3v-1h3v1ZM315,174.5h-3v-1h3v1ZM309,174.5h-3v-1h3v1ZM303,174.5h-3v-1h3v1ZM297,174.5h-3v-1h3v1ZM291,174.5h-3v-1h3v1ZM285,174.5h-3v-1h3v1ZM279,174.5h-3v-1h3v1ZM273,174.5h-3v-1h3v1ZM267,174.5h-3v-1h3v1ZM261,174.5h-3v-1h3v1ZM255,174.5h-3v-1h3v1ZM249,174.5h-3v-1h3v1ZM243,174.5h-3v-1h3v1ZM237,174.5h-3v-1h3v1ZM231,174.5h-3v-1h3v1ZM225,174.5h-3v-1h3v1ZM219,174.5h-3v-1h3v1ZM213,174.5h-3v-1h3v1ZM207,174.5h-3v-1h3v1ZM201,174.5h-3v-1h3v1ZM195,174.5h-3v-1h3v1ZM189,174.5h-3v-1h3v1ZM183,174.5h-3v-1h3v1ZM177,174.5h-3v-1h3v1ZM171,174.5h-3v-1h3v1ZM165,174.5h-3v-1h3v1ZM159,174.5h-3v-1h3v1ZM153,174.5h-3v-1h3v1ZM147,174.5h-3v-1h3v1ZM141,174.5h-3v-1h3v1ZM135,174.5h-3v-1h3v1ZM129,174.5h-3v-1h3v1ZM123,174.5h-3v-1h3v1ZM117,174.5h-3v-1h3v1ZM111,174.5h-3v-1h3v1ZM105,174.5h-3v-1h3v1ZM99,174.5h-3v-1h3v1ZM93,174.5h-3v-1h3v1ZM87,174.5h-3v-1h3v1ZM81,174.5h-3v-1h3v1ZM75,174.5h-3v-1h3v1ZM69,174.5h-3v-1h3v1ZM63,174.5h-3v-1h3v1ZM57,174.5h-3v-1h3v1ZM51,174.5h-3v-1h3v1ZM45,174.5h-3v-1h3v1ZM39,174.5h-3v-1h3v1ZM33,174.5h-3v-1h3v1ZM27,174.5h-3v-1h3v1ZM21,174.5h-3v-1h3v1ZM15,174.5h-3v-1h3v1ZM9,174.5h-3v-1h3v1ZM3,174.5H0v-1h3v1Z"/><path class="cls-4" d="M705,247.5h-3v-1h3v1ZM699,247.5h-3v-1h3v1ZM693,247.5h-3v-1h3v1ZM687,247.5h-3v-1h3v1ZM681,247.5h-3v-1h3v1ZM675,247.5h-3v-1h3v1ZM669,247.5h-3v-1h3v1ZM663,247.5h-3v-1h3v1ZM657,247.5h-3v-1h3v1ZM651,247.5h-3v-1h3v1ZM645,247.5h-3v-1h3v1ZM639,247.5h-3v-1h3v1ZM633,247.5h-3v-1h3v1ZM627,247.5h-3v-1h3v1ZM621,247.5h-3v-1h3v1ZM615,247.5h-3v-1h3v1ZM609,247.5h-3v-1h3v1ZM603,247.5h-3v-1h3v1ZM597,247.5h-3v-1h3v1ZM591,247.5h-3v-1h3v1ZM585,247.5h-3v-1h3v1ZM579,247.5h-3v-1h3v1ZM573,247.5h-3v-1h3v1ZM567,247.5h-3v-1h3v1ZM561,247.5h-3v-1h3v1ZM555,247.5h-3v-1h3v1ZM549,247.5h-3v-1h3v1ZM543,247.5h-3v-1h3v1ZM537,247.5h-3v-1h3v1ZM531,247.5h-3v-1h3v1ZM525,247.5h-3v-1h3v1ZM519,247.5h-3v-1h3v1ZM513,247.5h-3v-1h3v1ZM507,247.5h-3v-1h3v1ZM501,247.5h-3v-1h3v1ZM495,247.5h-3v-1h3v1ZM489,247.5h-3v-1h3v1ZM483,247.5h-3v-1h3v1ZM477,247.5h-3v-1h3v1ZM471,247.5h-3v-1h3v1ZM465,247.5h-3v-1h3v1ZM459,247.5h-3v-1h3v1ZM453,247.5h-3v-1h3v1ZM447,247.5h-3v-1h3v1ZM441,247.5h-3v-1h3v1ZM435,247.5h-3v-1h3v1ZM429,247.5h-3v-1h3v1ZM423,247.5h-3v-1h3v1ZM417,247.5h-3v-1h3v1ZM411,247.5h-3v-1h3v1ZM405,247.5h-3v-1h3v1ZM399,247.5h-3v-1h3v1ZM393,247.5h-3v-1h3v1ZM387,247.5h-3v-1h3v1ZM381,247.5h-3v-1h3v1ZM375,247.5h-3v-1h3v1ZM369,247.5h-3v-1h3v1ZM363,247.5h-3v-1h3v1ZM357,247.5h-3v-1h3v1ZM351,247.5h-3v-1h3v1ZM345,247.5h-3v-1h3v1ZM339,247.5h-3v-1h3v1ZM333,247.5h-3v-1h3v1ZM327,247.5h-3v-1h3v1ZM321,247.5h-3v-1h3v1ZM315,247.5h-3v-1h3v1ZM309,247.5h-3v-1h3v1ZM303,247.5h-3v-1h3v1ZM297,247.5h-3v-1h3v1ZM291,247.5h-3v-1h3v1ZM285,247.5h-3v-1h3v1ZM279,247.5h-3v-1h3v1ZM273,247.5h-3v-1h3v1ZM267,247.5h-3v-1h3v1ZM261,247.5h-3v-1h3v1ZM255,247.5h-3v-1h3v1ZM249,247.5h-3v-1h3v1ZM243,247.5h-3v-1h3v1ZM237,247.5h-3v-1h3v1ZM231,247.5h-3v-1h3v1ZM225,247.5h-3v-1h3v1ZM219,247.5h-3v-1h3v1ZM213,247.5h-3v-1h3v1ZM207,247.5h-3v-1h3v1ZM201,247.5h-3v-1h3v1ZM195,247.5h-3v-1h3v1ZM189,247.5h-3v-1h3v1ZM183,247.5h-3v-1h3v1ZM177,247.5h-3v-1h3v1ZM171,247.5h-3v-1h3v1ZM165,247.5h-3v-1h3v1ZM159,247.5h-3v-1h3v1ZM153,247.5h-3v-1h3v1ZM147,247.5h-3v-1h3v1ZM141,247.5h-3v-1h3v1ZM135,247.5h-3v-1h3v1ZM129,247.5h-3v-1h3v1ZM123,247.5h-3v-1h3v1ZM117,247.5h-3v-1h3v1ZM111,247.5h-3v-1h3v1ZM105,247.5h-3v-1h3v1ZM99,247.5h-3v-1h3v1ZM93,247.5h-3v-1h3v1ZM87,247.5h-3v-1h3v1ZM81,247.5h-3v-1h3v1ZM75,247.5h-3v-1h3v1ZM69,247.5h-3v-1h3v1ZM63,247.5h-3v-1h3v1ZM57,247.5h-3v-1h3v1ZM51,247.5h-3v-1h3v1ZM45,247.5h-3v-1h3v1ZM39,247.5h-3v-1h3v1ZM33,247.5h-3v-1h3v1ZM27,247.5h-3v-1h3v1ZM21,247.5h-3v-1h3v1ZM15,247.5h-3v-1h3v1ZM9,247.5h-3v-1h3v1ZM3,247.5H0v-1h3v1Z"/><path class="cls-4" d="M101,320.5h-1v-3h1v3ZM101,314.5h-1v-3h1v3ZM101,308.5h-1v-3h1v3ZM101,302.5h-1v-3h1v3ZM101,296.5h-1v-3h1v3ZM101,290.5h-1v-3h1v3ZM101,284.5h-1v-3h1v3ZM101,278.5h-1v-3h1v3ZM101,272.5h-1v-3h1v3ZM101,266.5h-1v-3h1v3ZM101,260.5h-1v-3h1v3ZM101,254.5h-1v-3h1v3ZM101,248.5h-1v-3h1v3ZM101,242.5h-1v-3h1v3ZM101,236.5h-1v-3h1v3ZM101,230.5h-1v-3h1v3ZM101,224.5h-1v-3h1v3ZM101,218.5h-1v-3h1v3ZM101,212.5h-1v-3h1v3ZM101,206.5h-1v-3h1v3ZM101,200.5h-1v-3h1v3ZM101,194.5h-1v-3h1v3ZM101,188.5h-1v-3h1v3ZM101,182.5h-1v-3h1v3ZM101,176.5h-1v-3h1v3ZM101,170.5h-1v-3h1v3ZM101,164.5h-1v-3h1v3ZM101,158.5h-1v-3h1v3ZM101,152.5h-1v-3h1v3ZM101,146.5h-1v-3h1v3ZM101,140.5h-1v-3h1v3ZM101,134.5h-1v-3h1v3ZM101,128.5h-1v-3h1v3ZM101,122.5h-1v-3h1v3ZM101,116.5h-1v-3h1v3ZM101,110.5h-1v-3h1v3ZM101,104.5h-1v-3h1v3Z"/><path class="cls-4" d="M202,320.5h-1v-3h1v3ZM202,314.5h-1v-3h1v3ZM202,308.5h-1v-3h1v3ZM202,302.5h-1v-3h1v3ZM202,296.5h-1v-3h1v3ZM202,290.5h-1v-3h1v3ZM202,284.5h-1v-3h1v3ZM202,278.5h-1v-3h1v3ZM202,272.5h-1v-3h1v3ZM202,266.5h-1v-3h1v3ZM202,260.5h-1v-3h1v3ZM202,254.5h-1v-3h1v3ZM202,248.5h-1v-3h1v3ZM202,242.5h-1v-3h1v3ZM202,236.5h-1v-3h1v3ZM202,230.5h-1v-3h1v3ZM202,224.5h-1v-3h1v3ZM202,218.5h-1v-3h1v3ZM202,212.5h-1v-3h1v3ZM202,206.5h-1v-3h1v3ZM202,200.5h-1v-3h1v3ZM202,194.5h-1v-3h1v3ZM202,188.5h-1v-3h1v3ZM202,182.5h-1v-3h1v3ZM202,176.5h-1v-3h1v3ZM202,170.5h-1v-3h1v3ZM202,164.5h-1v-3h1v3ZM202,158.5h-1v-3h1v3ZM202,152.5h-1v-3h1v3ZM202,146.5h-1v-3h1v3ZM202,140.5h-1v-3h1v3ZM202,134.5h-1v-3h1v3ZM202,128.5h-1v-3h1v3ZM202,122.5h-1v-3h1v3ZM202,116.5h-1v-3h1v3ZM202,110.5h-1v-3h1v3ZM202,104.5h-1v-3h1v3Z"/><path class="cls-4" d="M504,320.5h-1v-3h1v3ZM504,314.5h-1v-3h1v3ZM504,308.5h-1v-3h1v3ZM504,302.5h-1v-3h1v3ZM504,296.5h-1v-3h1v3ZM504,290.5h-1v-3h1v3ZM504,284.5h-1v-3h1v3ZM504,278.5h-1v-3h1v3ZM504,272.5h-1v-3h1v3ZM504,266.5h-1v-3h1v3ZM504,260.5h-1v-3h1v3ZM504,254.5h-1v-3h1v3ZM504,248.5h-1v-3h1v3ZM504,242.5h-1v-3h1v3ZM504,236.5h-1v-3h1v3ZM504,230.5h-1v-3h1v3ZM504,224.5h-1v-3h1v3ZM504,218.5h-1v-3h1v3ZM504,212.5h-1v-3h1v3ZM504,206.5h-1v-3h1v3ZM504,200.5h-1v-3h1v3ZM504,194.5h-1v-3h1v3ZM504,188.5h-1v-3h1v3ZM504,182.5h-1v-3h1v3ZM504,176.5h-1v-3h1v3ZM504,170.5h-1v-3h1v3ZM504,164.5h-1v-3h1v3ZM504,158.5h-1v-3h1v3ZM504,152.5h-1v-3h1v3ZM504,146.5h-1v-3h1v3ZM504,140.5h-1v-3h1v3ZM504,134.5h-1v-3h1v3ZM504,128.5h-1v-3h1v3ZM504,122.5h-1v-3h1v3ZM504,116.5h-1v-3h1v3ZM504,110.5h-1v-3h1v3ZM504,104.5h-1v-3h1v3Z"/><path class="cls-4" d="M403,320.5h-1v-3h1v3ZM403,314.5h-1v-3h1v3ZM403,308.5h-1v-3h1v3ZM403,302.5h-1v-3h1v3ZM403,296.5h-1v-3h1v3ZM403,290.5h-1v-3h1v3ZM403,284.5h-1v-3h1v3ZM403,278.5h-1v-3h1v3ZM403,272.5h-1v-3h1v3ZM403,266.5h-1v-3h1v3ZM403,260.5h-1v-3h1v3ZM403,254.5h-1v-3h1v3ZM403,248.5h-1v-3h1v3ZM403,242.5h-1v-3h1v3ZM403,236.5h-1v-3h1v3ZM403,230.5h-1v-3h1v3ZM403,224.5h-1v-3h1v3ZM403,218.5h-1v-3h1v3ZM403,212.5h-1v-3h1v3ZM403,206.5h-1v-3h1v3ZM403,200.5h-1v-3h1v3ZM403,194.5h-1v-3h1v3ZM403,188.5h-1v-3h1v3ZM403,182.5h-1v-3h1v3ZM403,176.5h-1v-3h1v3ZM403,170.5h-1v-3h1v3ZM403,164.5h-1v-3h1v3ZM403,158.5h-1v-3h1v3ZM403,152.5h-1v-3h1v3ZM403,146.5h-1v-3h1v3ZM403,140.5h-1v-3h1v3ZM403,134.5h-1v-3h1v3ZM403,128.5h-1v-3h1v3ZM403,122.5h-1v-3h1v3ZM403,116.5h-1v-3h1v3ZM403,110.5h-1v-3h1v3ZM403,104.5h-1v-3h1v3Z"/><path class="cls-4" d="M303,320.5h-1v-3h1v3ZM303,314.5h-1v-3h1v3ZM303,308.5h-1v-3h1v3ZM303,302.5h-1v-3h1v3ZM303,296.5h-1v-3h1v3ZM303,290.5h-1v-3h1v3ZM303,284.5h-1v-3h1v3ZM303,278.5h-1v-3h1v3ZM303,272.5h-1v-3h1v3ZM303,266.5h-1v-3h1v3ZM303,260.5h-1v-3h1v3ZM303,254.5h-1v-3h1v3ZM303,248.5h-1v-3h1v3ZM303,242.5h-1v-3h1v3ZM303,236.5h-1v-3h1v3ZM303,230.5h-1v-3h1v3ZM303,224.5h-1v-3h1v3ZM303,218.5h-1v-3h1v3ZM303,212.5h-1v-3h1v3ZM303,206.5h-1v-3h1v3ZM303,200.5h-1v-3h1v3ZM303,194.5h-1v-3h1v3ZM303,188.5h-1v-3h1v3ZM303,182.5h-1v-3h1v3ZM303,176.5h-1v-3h1v3ZM303,170.5h-1v-3h1v3ZM303,164.5h-1v-3h1v3ZM303,158.5h-1v-3h1v3ZM303,152.5h-1v-3h1v3ZM303,146.5h-1v-3h1v3ZM303,140.5h-1v-3h1v3ZM303,134.5h-1v-3h1v3ZM303,128.5h-1v-3h1v3ZM303,122.5h-1v-3h1v3ZM303,116.5h-1v-3h1v3ZM303,110.5h-1v-3h1v3ZM303,104.5h-1v-3h1v3Z"/><path class="cls-4" d="M605,320.5h-1v-3h1v3ZM605,314.5h-1v-3h1v3ZM605,308.5h-1v-3h1v3ZM605,302.5h-1v-3h1v3ZM605,296.5h-1v-3h1v3ZM605,290.5h-1v-3h1v3ZM605,284.5h-1v-3h1v3ZM605,278.5h-1v-3h1v3ZM605,272.5h-1v-3h1v3ZM605,266.5h-1v-3h1v3ZM605,260.5h-1v-3h1v3ZM605,254.5h-1v-3h1v3ZM605,248.5h-1v-3h1v3ZM605,242.5h-1v-3h1v3ZM605,236.5h-1v-3h1v3ZM605,230.5h-1v-3h1v3ZM605,224.5h-1v-3h1v3ZM605,218.5h-1v-3h1v3ZM605,212.5h-1v-3h1v3ZM605,206.5h-1v-3h1v3ZM605,200.5h-1v-3h1v3ZM605,194.5h-1v-3h1v3ZM605,188.5h-1v-3h1v3ZM605,182.5h-1v-3h1v3ZM605,176.5h-1v-3h1v3ZM605,170.5h-1v-3h1v3ZM605,164.5h-1v-3h1v3ZM605,158.5h-1v-3h1v3ZM605,152.5h-1v-3h1v3ZM605,146.5h-1v-3h1v3ZM605,140.5h-1v-3h1v3ZM605,134.5h-1v-3h1v3ZM605,128.5h-1v-3h1v3ZM605,122.5h-1v-3h1v3ZM605,116.5h-1v-3h1v3ZM605,110.5h-1v-3h1v3ZM605,104.5h-1v-3h1v3Z"/><rect class="cls-4" x="5" y="65.5" width="90" height="25" rx="12" ry="12"/><path class="cls-2" d="M56.024,82.166c0,1.152-.272,1.696-1.009,2.017-.768.336-1.889.368-3.537.368-.112-.561-.496-1.473-.8-2.001,1.12.064,2.465.048,2.816.048.385,0,.513-.128.513-.464v-2.321h-6.851c-.417,1.793-1.217,3.538-2.705,4.786-.288-.4-1.057-1.104-1.473-1.376,2.417-2.065,2.641-5.122,2.641-7.556v-5.266h10.404v11.765ZM54.008,77.973v-1.953h-6.419c-.016.608-.048,1.28-.112,1.953h6.531ZM47.589,72.258v1.953h6.419v-1.953h-6.419Z"/><path class="cls-4" d="M706,321.5H0V100.5h706v221ZM1,320.5h704V101.5H1v219Z"/><rect class="cls-4" x="105" y="65.5" width="90" height="25" rx="12" ry="12"/><path class="cls-2" d="M151.543,74.851c0,2.433,1.504,6.115,6.482,7.955-.432.417-1.041,1.233-1.328,1.793-3.811-1.569-5.746-4.77-6.195-6.354-.416,1.633-2.176,4.738-5.938,6.354-.256-.432-.929-1.249-1.346-1.633,4.818-1.841,6.275-5.714,6.275-8.099v-4.994h2.049v4.978ZM147.381,73.234c-.271,2.001-.736,3.906-2.113,5.042l-1.729-1.072c1.169-.992,1.697-2.577,1.922-4.386l1.92.416ZM157.338,73.586c-.816,1.553-1.777,3.266-2.578,4.354l-1.664-.704c.768-1.201,1.648-3.025,2.145-4.434l2.098.784Z"/><rect class="cls-4" x="205" y="65.5" width="90" height="25" rx="12" ry="12"/><path class="cls-2" d="M249.302,73.97c-.736,4.338-2.497,7.587-4.754,9.252-.336-.448-1.104-1.217-1.585-1.505,1.857-1.249,3.266-3.441,3.986-6.242h-3.474v-1.921h4.178l.353-.064,1.296.48ZM257.801,73.394c-1.279,1.361-2.881,2.865-4.178,3.874,1.137,1.921,2.642,3.474,4.61,4.402-.479.4-1.136,1.201-1.473,1.777-2.321-1.312-3.938-3.425-5.09-6.035v4.722c0,1.152-.257,1.729-.913,2.049-.688.352-1.729.432-3.185.432-.08-.608-.448-1.569-.753-2.129,1.057.048,2.065.032,2.401.032.32,0,.433-.112.433-.384v-12.469h2.017v2.817c.304,1.12.673,2.208,1.136,3.217,1.137-1.057,2.402-2.417,3.218-3.554l1.776,1.249Z"/><rect class="cls-4" x="305" y="65.5" width="90" height="25" rx="12" ry="12"/><path class="cls-2" d="M352.391,75.251c1.329,2.449,3.57,4.834,5.923,6.114-.464.384-1.12,1.137-1.425,1.665-2.017-1.296-3.857-3.345-5.266-5.65v7.219h-2.033v-7.139c-1.393,2.321-3.232,4.354-5.281,5.634-.32-.497-.977-1.233-1.426-1.633,2.369-1.281,4.562-3.698,5.875-6.21h-5.139v-1.889h5.971v-3.714h2.033v3.714h6.002v1.889h-5.234Z"/><rect class="cls-4" x="410" y="65.5" width="90" height="25" rx="12" ry="12"/><path class="cls-2" d="M460.561,79.973c-.608.88-1.232,1.857-1.793,2.529h3.617v1.632h-13.541v-1.632h3.121c-.24-.721-.768-1.793-1.328-2.577l1.457-.625h-2.449v-1.632h4.865v-1.585h-2.945v-.784c-.752.544-1.568,1.057-2.385,1.489-.24-.448-.768-1.137-1.184-1.537,2.721-1.329,5.281-3.729,6.466-5.65h1.969c1.729,2.417,4.306,4.434,6.835,5.458-.48.48-.912,1.121-1.265,1.713-.8-.416-1.633-.944-2.433-1.521v.832h-3.058v1.585h4.931v1.632h-4.931v3.202h1.745l-1.041-.432c.528-.752,1.169-1.921,1.521-2.77l1.824.672ZM452.189,79.3c.607.816,1.232,1.905,1.473,2.641l-1.312.561h2.16v-3.202h-2.32ZM458.479,74.418c-1.185-.96-2.241-2.001-2.944-2.961-.689.96-1.682,2-2.834,2.961h5.778Z"/><rect class="cls-3" x="510" y="65.5" width="90" height="25" rx="12" ry="12"/><path class="cls-2" d="M562.881,82.054v1.873h-14.502v-1.873h6.18v-5.57h-5.139v-1.889h5.139v-4.914h2.049v4.914h5.218v1.889h-5.218v5.57h6.273Z"/><rect class="cls-1" x="610" y="65.5" width="90" height="25" rx="12" ry="12"/><path class="cls-2" d="M661.201,70.609v13.766h-2.049v-1.008h-7.107v1.041h-1.969v-13.798h11.125ZM652.045,72.53v3.441h7.107v-3.441h-7.107ZM659.152,81.445v-3.585h-7.107v3.585h7.107Z"/><rect class="cls-1" x="0" y="303.5" width="185.001" height="5"/><path class="cls-1" d="M190.946,308.492c2.23-1.609,2.23-4.243,0-5.852l-11.891-8.582c-2.23-1.609-4.054-.676-4.054,2.074v18.868c0,2.75,1.824,3.683,4.054,2.074l11.891-8.582Z"/><path class="cls-9" d="M34.082,285.326c-.416.032-1.072.144-1.681.24-.769.128-2.064.336-3.474.56.257,1.312.48,2.385.576,2.881.112.48.272,1.056.417,1.568l-2.306.416c-.08-.608-.128-1.152-.224-1.616-.08-.464-.288-1.569-.544-2.914-1.633.272-3.138.528-3.826.656-.688.128-1.232.24-1.601.336l-.448-2.145c.433-.016,1.152-.112,1.665-.176.736-.112,2.225-.352,3.842-.608l-.48-2.561c-1.409.224-2.642.432-3.138.512-.56.112-.992.208-1.473.336l-.432-2.209c.512-.016.992-.048,1.488-.112.561-.064,1.793-.24,3.169-.464-.128-.672-.239-1.2-.288-1.457-.096-.448-.208-.832-.319-1.216l2.257-.368c.048.32.096.864.176,1.249.032.224.128.752.256,1.473,1.36-.224,2.577-.417,3.153-.528.513-.096,1.121-.224,1.505-.336l.384,2.097c-.352.032-.992.128-1.473.192l-3.201.512.496,2.545c1.44-.24,2.754-.448,3.474-.592.624-.128,1.217-.256,1.633-.384l.416,2.113Z"/><path class="cls-9" d="M46.016,286.431c.816-.736,1.921-2.097,2.354-2.881-.385.08-1.969.4-3.697.769.607,2.193,1.28,4.658,1.536,5.49.096.288.304.992.433,1.312l-2.178.528c-.048-.416-.159-.944-.288-1.393-.239-.864-.896-3.345-1.473-5.538-1.344.288-2.513.528-2.993.64l-.496-1.92c.513-.048.944-.096,1.473-.192.225-.032.801-.128,1.537-.272-.16-.624-.305-1.136-.416-1.489-.112-.416-.272-.8-.448-1.136l2.145-.512c.064.384.16.8.256,1.216l.433,1.553c2.032-.384,4.273-.816,4.897-.96.288-.048.593-.144.816-.256l1.28.912c-.672,1.409-2.288,3.81-3.409,5.01l-1.761-.88Z"/><path class="cls-9" d="M62.688,286.398c2.722-1.617,4.818-4.065,5.826-6.227l1.249,2.257c-1.217,2.161-3.346,4.37-5.923,5.923-1.616.976-3.682,1.873-5.938,2.257l-1.344-2.113c2.496-.353,4.577-1.168,6.13-2.097ZM62.688,281.212l-1.633,1.681c-.832-.896-2.833-2.641-4.001-3.458l1.504-1.601c1.121.752,3.202,2.417,4.13,3.377Z"/><path class="cls-9" d="M81.296,285.326c1.057-.944,2.112-2.401,2.561-3.233-.496.096-2.657.528-4.93.977v4.242c0,.992.288,1.344,2.033,1.344,1.696,0,3.473-.224,5.058-.528l-.064,2.161c-1.328.192-3.249.352-4.962.352-3.649,0-4.178-.88-4.178-2.769v-4.37c-1.424.288-2.688.544-3.361.704l-.384-2.097c.752-.096,2.161-.336,3.745-.625v-2.289c0-.528-.048-1.345-.128-1.825h2.385c-.079.48-.144,1.28-.144,1.825v1.889c2.337-.432,4.578-.896,5.298-1.057.448-.112.833-.224,1.137-.384l1.536,1.2c-.144.224-.384.576-.527.864-.705,1.329-2.161,3.538-3.313,4.658l-1.761-1.041Z"/><path class="cls-9" d="M90.54,289.408c1.409-.992,2.273-2.465,2.722-3.826.448-1.376.464-4.401.464-6.338,0-.64-.048-1.072-.144-1.457h2.353c-.016.064-.112.784-.112,1.44,0,1.889-.048,5.266-.479,6.883-.48,1.809-1.473,3.377-2.85,4.594l-1.953-1.296ZM97.951,289.648c.064-.304.128-.752.128-1.185v-9.332c0-.721-.111-1.329-.128-1.377h2.385c-.016.048-.111.672-.111,1.393v8.372c1.296-.56,2.881-1.825,3.953-3.377l1.232,1.761c-1.328,1.729-3.633,3.458-5.426,4.37-.336.176-.496.32-.704.48l-1.329-1.104Z"/><path class="cls-9" d="M111.486,285.358v3.922c0,.832-.129,1.296-.593,1.584-.448.288-1.057.352-1.969.352-.032-.48-.24-1.216-.464-1.696.448.016.88.016,1.024.016.176,0,.224-.064.224-.24v-3.33c-.464.16-.912.304-1.328.448l-.448-1.825c.512-.128,1.104-.304,1.776-.496v-2.865h-1.553v-1.761h1.553v-3.009h1.777v3.009h1.328v1.761h-1.328v2.305l1.152-.384.304,1.681-1.456.528ZM119.602,287.583c.896.848,2.225,1.601,3.521,2.017-.384.32-.928.993-1.2,1.441-1.12-.48-2.257-1.281-3.137-2.225v2.609h-1.81v-2.561c-1.088,1.024-2.448,1.825-3.873,2.305-.272-.432-.784-1.121-1.169-1.473,1.553-.4,3.09-1.185,4.13-2.113h-2.945v-1.537h3.857v-.977h-3.649v-3.761h4.227v3.697h.624v-3.697h4.369v3.761h-3.761v.977h4.033v1.537h-3.217ZM116.048,282.589h-1.312v1.185h1.312v-1.185ZM121.025,280.748h-6.258v-3.713h6.258v3.713ZM119.297,278.363h-2.913v1.057h2.913v-1.057ZM119.649,283.773h1.376v-1.185h-1.376v1.185Z"/><path class="cls-9" d="M130.99,277.083c-.416,1.12-.944,2.257-1.536,3.329v10.964h-1.921v-8.003c-.336.4-.672.8-.992,1.152-.176-.464-.721-1.553-1.057-2.033,1.457-1.441,2.85-3.714,3.649-5.987l1.856.577ZM136.064,280.86v1.681h4.146v1.729h-4.146v1.809h4.354v1.761h-4.354v3.553h-1.952v-10.532h-.608c-.641,1.185-1.377,2.273-2.097,3.105-.305-.352-1.057-1.024-1.457-1.328,1.408-1.441,2.673-3.746,3.394-6.035l1.841.464c-.225.672-.48,1.329-.784,1.985h6.21v1.809h-4.546Z"/><path class="cls-9" d="M158.833,289.184l-4.113-4.114-4.113,4.114-1.153-1.152,4.114-4.114-4.114-4.114,1.153-1.152,4.113,4.114,4.113-4.114,1.152,1.152-4.113,4.114,4.113,4.114-1.152,1.152Z"/><path class="cls-1" d="M34.082,285.326c-.416.032-1.072.144-1.681.24-.769.128-2.064.336-3.474.56.257,1.312.48,2.385.576,2.881.112.48.272,1.056.417,1.568l-2.306.416c-.08-.608-.128-1.152-.224-1.616-.08-.464-.288-1.569-.544-2.914-1.633.272-3.138.528-3.826.656-.688.128-1.232.24-1.601.336l-.448-2.145c.433-.016,1.152-.112,1.665-.176.736-.112,2.225-.352,3.842-.608l-.48-2.561c-1.409.224-2.642.432-3.138.512-.56.112-.992.208-1.473.336l-.432-2.209c.512-.016.992-.048,1.488-.112.561-.064,1.793-.24,3.169-.464-.128-.672-.239-1.2-.288-1.457-.096-.448-.208-.832-.319-1.216l2.257-.368c.048.32.096.864.176,1.249.032.224.128.752.256,1.473,1.36-.224,2.577-.417,3.153-.528.513-.096,1.121-.224,1.505-.336l.384,2.097c-.352.032-.992.128-1.473.192l-3.201.512.496,2.545c1.44-.24,2.754-.448,3.474-.592.624-.128,1.217-.256,1.633-.384l.416,2.113Z"/><path class="cls-1" d="M46.016,286.431c.816-.736,1.921-2.097,2.354-2.881-.385.08-1.969.4-3.697.769.607,2.193,1.28,4.658,1.536,5.49.096.288.304.992.433,1.312l-2.178.528c-.048-.416-.159-.944-.288-1.393-.239-.864-.896-3.345-1.473-5.538-1.344.288-2.513.528-2.993.64l-.496-1.92c.513-.048.944-.096,1.473-.192.225-.032.801-.128,1.537-.272-.16-.624-.305-1.136-.416-1.489-.112-.416-.272-.8-.448-1.136l2.145-.512c.064.384.16.8.256,1.216l.433,1.553c2.032-.384,4.273-.816,4.897-.96.288-.048.593-.144.816-.256l1.28.912c-.672,1.409-2.288,3.81-3.409,5.01l-1.761-.88Z"/><path class="cls-1" d="M62.688,286.398c2.722-1.617,4.818-4.065,5.826-6.227l1.249,2.257c-1.217,2.161-3.346,4.37-5.923,5.923-1.616.976-3.682,1.873-5.938,2.257l-1.344-2.113c2.496-.353,4.577-1.168,6.13-2.097ZM62.688,281.212l-1.633,1.681c-.832-.896-2.833-2.641-4.001-3.458l1.504-1.601c1.121.752,3.202,2.417,4.13,3.377Z"/><path class="cls-1" d="M81.296,285.326c1.057-.944,2.112-2.401,2.561-3.233-.496.096-2.657.528-4.93.977v4.242c0,.992.288,1.344,2.033,1.344,1.696,0,3.473-.224,5.058-.528l-.064,2.161c-1.328.192-3.249.352-4.962.352-3.649,0-4.178-.88-4.178-2.769v-4.37c-1.424.288-2.688.544-3.361.704l-.384-2.097c.752-.096,2.161-.336,3.745-.625v-2.289c0-.528-.048-1.345-.128-1.825h2.385c-.079.48-.144,1.28-.144,1.825v1.889c2.337-.432,4.578-.896,5.298-1.057.448-.112.833-.224,1.137-.384l1.536,1.2c-.144.224-.384.576-.527.864-.705,1.329-2.161,3.538-3.313,4.658l-1.761-1.041Z"/><path class="cls-1" d="M90.54,289.408c1.409-.992,2.273-2.465,2.722-3.826.448-1.376.464-4.401.464-6.338,0-.64-.048-1.072-.144-1.457h2.353c-.016.064-.112.784-.112,1.44,0,1.889-.048,5.266-.479,6.883-.48,1.809-1.473,3.377-2.85,4.594l-1.953-1.296ZM97.951,289.648c.064-.304.128-.752.128-1.185v-9.332c0-.721-.111-1.329-.128-1.377h2.385c-.016.048-.111.672-.111,1.393v8.372c1.296-.56,2.881-1.825,3.953-3.377l1.232,1.761c-1.328,1.729-3.633,3.458-5.426,4.37-.336.176-.496.32-.704.48l-1.329-1.104Z"/><path class="cls-1" d="M111.486,285.358v3.922c0,.832-.129,1.296-.593,1.584-.448.288-1.057.352-1.969.352-.032-.48-.24-1.216-.464-1.696.448.016.88.016,1.024.016.176,0,.224-.064.224-.24v-3.33c-.464.16-.912.304-1.328.448l-.448-1.825c.512-.128,1.104-.304,1.776-.496v-2.865h-1.553v-1.761h1.553v-3.009h1.777v3.009h1.328v1.761h-1.328v2.305l1.152-.384.304,1.681-1.456.528ZM119.602,287.583c.896.848,2.225,1.601,3.521,2.017-.384.32-.928.993-1.2,1.441-1.12-.48-2.257-1.281-3.137-2.225v2.609h-1.81v-2.561c-1.088,1.024-2.448,1.825-3.873,2.305-.272-.432-.784-1.121-1.169-1.473,1.553-.4,3.09-1.185,4.13-2.113h-2.945v-1.537h3.857v-.977h-3.649v-3.761h4.227v3.697h.624v-3.697h4.369v3.761h-3.761v.977h4.033v1.537h-3.217ZM116.048,282.589h-1.312v1.185h1.312v-1.185ZM121.025,280.748h-6.258v-3.713h6.258v3.713ZM119.297,278.363h-2.913v1.057h2.913v-1.057ZM119.649,283.773h1.376v-1.185h-1.376v1.185Z"/><path class="cls-1" d="M130.99,277.083c-.416,1.12-.944,2.257-1.536,3.329v10.964h-1.921v-8.003c-.336.4-.672.8-.992,1.152-.176-.464-.721-1.553-1.057-2.033,1.457-1.441,2.85-3.714,3.649-5.987l1.856.577ZM136.064,280.86v1.681h4.146v1.729h-4.146v1.809h4.354v1.761h-4.354v3.553h-1.952v-10.532h-.608c-.641,1.185-1.377,2.273-2.097,3.105-.305-.352-1.057-1.024-1.457-1.328,1.408-1.441,2.673-3.746,3.394-6.035l1.841.464c-.225.672-.48,1.329-.784,1.985h6.21v1.809h-4.546Z"/><path class="cls-8" d="M158.833,289.184l-4.113-4.114-4.113,4.114-1.153-1.152,4.114-4.114-4.114-4.114,1.153-1.152,4.113,4.114,4.113-4.114,1.152,1.152-4.113,4.114,4.113,4.114-1.152,1.152Z"/><rect class="cls-3" x="0" y="228.5" width="190" height="5"/><path class="cls-3" d="M190.946,233.492c2.23-1.609,2.23-4.243,0-5.852l-11.891-8.582c-2.23-1.609-4.054-.676-4.054,2.074v18.868c0,2.75,1.824,3.683,4.054,2.074l11.891-8.582Z"/><path class="cls-3" d="M9.056,149.574c-2.23,1.609-2.23,4.243,0,5.852l11.891,8.582c2.23,1.609,4.054.676,4.054-2.074v-18.868c0-2.75-1.824-3.683-4.054-2.074l-11.891,8.582Z"/><rect class="cls-3" x="10" y="150.5" width="695" height="5"/><path class="cls-9" d="M289.773,130.326c-.416.032-1.072.144-1.681.24-.769.128-2.065.336-3.474.56.256,1.312.48,2.385.576,2.881.112.48.272,1.056.416,1.568l-2.305.416c-.08-.608-.128-1.152-.225-1.616-.08-.464-.287-1.569-.543-2.914-1.633.272-3.139.528-3.826.656-.688.128-1.232.24-1.601.336l-.448-2.145c.432-.016,1.152-.112,1.664-.176.736-.112,2.226-.352,3.842-.608l-.48-2.561c-1.408.224-2.641.432-3.137.512-.561.112-.992.208-1.473.336l-.432-2.209c.512-.016.992-.048,1.488-.112.561-.064,1.793-.24,3.169-.464-.128-.672-.239-1.2-.288-1.457-.096-.448-.208-.832-.32-1.216l2.258-.368c.047.32.096.864.176,1.249.031.224.128.752.256,1.473,1.36-.224,2.577-.417,3.153-.528.513-.096,1.12-.224,1.505-.336l.384,2.097c-.353.032-.992.128-1.473.192l-3.201.512.496,2.545c1.44-.24,2.753-.448,3.474-.592.624-.128,1.217-.256,1.633-.384l.416,2.113Z"/><path class="cls-9" d="M301.707,131.431c.816-.736,1.921-2.097,2.354-2.881-.385.08-1.969.4-3.697.769.607,2.193,1.279,4.658,1.536,5.49.096.288.304.992.433,1.312l-2.178.528c-.048-.416-.16-.944-.288-1.393-.239-.864-.896-3.345-1.473-5.538-1.345.288-2.513.528-2.993.64l-.496-1.92c.512-.048.944-.096,1.473-.192.225-.032.801-.128,1.537-.272-.16-.624-.305-1.136-.416-1.489-.113-.416-.273-.8-.449-1.136l2.146-.512c.063.384.159.8.256,1.216l.433,1.553c2.032-.384,4.273-.816,4.897-.96.288-.048.593-.144.816-.256l1.28.912c-.672,1.409-2.289,3.81-3.409,5.01l-1.761-.88Z"/><path class="cls-9" d="M318.379,131.398c2.721-1.617,4.818-4.065,5.826-6.227l1.248,2.257c-1.216,2.161-3.345,4.37-5.922,5.923-1.617.976-3.682,1.873-5.938,2.257l-1.345-2.113c2.497-.353,4.578-1.168,6.131-2.097ZM318.379,126.212l-1.633,1.681c-.832-.896-2.833-2.641-4.002-3.458l1.505-1.601c1.12.752,3.202,2.417,4.13,3.377Z"/><path class="cls-9" d="M336.986,130.326c1.057-.944,2.113-2.401,2.562-3.233-.496.096-2.657.528-4.931.977v4.242c0,.992.289,1.344,2.033,1.344,1.697,0,3.474-.224,5.059-.528l-.064,2.161c-1.328.192-3.249.352-4.962.352-3.649,0-4.178-.88-4.178-2.769v-4.37c-1.425.288-2.688.544-3.361.704l-.384-2.097c.752-.096,2.16-.336,3.745-.625v-2.289c0-.528-.048-1.345-.128-1.825h2.385c-.08.48-.145,1.28-.145,1.825v1.889c2.338-.432,4.578-.896,5.299-1.057.448-.112.832-.224,1.137-.384l1.536,1.2c-.144.224-.384.576-.528.864-.704,1.329-2.16,3.538-3.312,4.658l-1.762-1.041Z"/><path class="cls-9" d="M346.231,134.408c1.409-.992,2.272-2.465,2.722-3.826.447-1.376.464-4.401.464-6.338,0-.64-.048-1.072-.144-1.457h2.353c-.017.064-.112.784-.112,1.44,0,1.889-.048,5.266-.48,6.883-.48,1.809-1.473,3.377-2.849,4.594l-1.953-1.296ZM353.643,134.648c.064-.304.128-.752.128-1.185v-9.332c0-.721-.112-1.329-.128-1.377h2.385c-.016.048-.111.672-.111,1.393v8.372c1.296-.56,2.881-1.825,3.953-3.377l1.232,1.761c-1.328,1.729-3.633,3.458-5.426,4.37-.336.176-.496.32-.705.48l-1.328-1.104Z"/><path class="cls-9" d="M367.178,130.358v3.922c0,.832-.129,1.296-.593,1.584-.448.288-1.057.352-1.969.352-.032-.48-.24-1.216-.464-1.696.447.016.88.016,1.023.016.176,0,.225-.064.225-.24v-3.33c-.465.16-.912.304-1.328.448l-.449-1.825c.513-.128,1.105-.304,1.777-.496v-2.865h-1.553v-1.761h1.553v-3.009h1.777v3.009h1.328v1.761h-1.328v2.305l1.152-.384.304,1.681-1.456.528ZM375.293,132.583c.896.848,2.225,1.601,3.521,2.017-.384.32-.929.993-1.2,1.441-1.121-.48-2.257-1.281-3.137-2.225v2.609h-1.81v-2.561c-1.089,1.024-2.448,1.825-3.874,2.305-.271-.432-.783-1.121-1.168-1.473,1.553-.4,3.09-1.185,4.13-2.113h-2.945v-1.537h3.857v-.977h-3.649v-3.761h4.227v3.697h.623v-3.697h4.37v3.761h-3.761v.977h4.033v1.537h-3.217ZM371.738,127.589h-1.312v1.185h1.312v-1.185ZM376.717,125.748h-6.258v-3.713h6.258v3.713ZM374.988,123.363h-2.913v1.057h2.913v-1.057ZM375.34,128.773h1.377v-1.185h-1.377v1.185Z"/><path class="cls-9" d="M386.682,122.083c-.416,1.12-.944,2.257-1.536,3.329v10.964h-1.921v-8.003c-.336.4-.672.8-.992,1.152-.176-.464-.721-1.553-1.057-2.033,1.457-1.441,2.85-3.714,3.649-5.987l1.856.577ZM391.756,125.86v1.681h4.146v1.729h-4.146v1.809h4.354v1.761h-4.354v3.553h-1.953v-10.532h-.607c-.641,1.185-1.377,2.273-2.098,3.105-.304-.352-1.057-1.024-1.456-1.328,1.408-1.441,2.673-3.746,3.394-6.035l1.84.464c-.224.672-.479,1.329-.783,1.985h6.21v1.809h-4.546Z"/><path class="cls-9" d="M409.595,121.715c3.985,0,7.202,3.217,7.202,7.203s-3.217,7.203-7.202,7.203-7.203-3.217-7.203-7.203,3.218-7.203,7.203-7.203ZM409.595,122.419c-3.585,0-6.499,2.913-6.499,6.499s2.914,6.499,6.499,6.499,6.499-2.913,6.499-6.499-2.914-6.499-6.499-6.499ZM409.595,124.211c2.608,0,4.706,2.097,4.706,4.706s-2.098,4.706-4.706,4.706-4.706-2.097-4.706-4.706,2.097-4.706,4.706-4.706ZM409.595,124.804c-2.272,0-4.114,1.841-4.114,4.114s1.842,4.114,4.114,4.114,4.113-1.841,4.113-4.114-1.841-4.114-4.113-4.114Z"/><path class="cls-1" d="M289.773,130.326c-.416.032-1.072.144-1.681.24-.769.128-2.065.336-3.474.56.256,1.312.48,2.385.576,2.881.112.48.272,1.056.416,1.568l-2.305.416c-.08-.608-.128-1.152-.225-1.616-.08-.464-.287-1.569-.543-2.914-1.633.272-3.139.528-3.826.656-.688.128-1.232.24-1.601.336l-.448-2.145c.432-.016,1.152-.112,1.664-.176.736-.112,2.226-.352,3.842-.608l-.48-2.561c-1.408.224-2.641.432-3.137.512-.561.112-.992.208-1.473.336l-.432-2.209c.512-.016.992-.048,1.488-.112.561-.064,1.793-.24,3.169-.464-.128-.672-.239-1.2-.288-1.457-.096-.448-.208-.832-.32-1.216l2.258-.368c.047.32.096.864.176,1.249.031.224.128.752.256,1.473,1.36-.224,2.577-.417,3.153-.528.513-.096,1.12-.224,1.505-.336l.384,2.097c-.353.032-.992.128-1.473.192l-3.201.512.496,2.545c1.44-.24,2.753-.448,3.474-.592.624-.128,1.217-.256,1.633-.384l.416,2.113Z"/><path class="cls-1" d="M301.707,131.431c.816-.736,1.921-2.097,2.354-2.881-.385.08-1.969.4-3.697.769.607,2.193,1.279,4.658,1.536,5.49.096.288.304.992.433,1.312l-2.178.528c-.048-.416-.16-.944-.288-1.393-.239-.864-.896-3.345-1.473-5.538-1.345.288-2.513.528-2.993.64l-.496-1.92c.512-.048.944-.096,1.473-.192.225-.032.801-.128,1.537-.272-.16-.624-.305-1.136-.416-1.489-.113-.416-.273-.8-.449-1.136l2.146-.512c.063.384.159.8.256,1.216l.433,1.553c2.032-.384,4.273-.816,4.897-.96.288-.048.593-.144.816-.256l1.28.912c-.672,1.409-2.289,3.81-3.409,5.01l-1.761-.88Z"/><path class="cls-1" d="M318.379,131.398c2.721-1.617,4.818-4.065,5.826-6.227l1.248,2.257c-1.216,2.161-3.345,4.37-5.922,5.923-1.617.976-3.682,1.873-5.938,2.257l-1.345-2.113c2.497-.353,4.578-1.168,6.131-2.097ZM318.379,126.212l-1.633,1.681c-.832-.896-2.833-2.641-4.002-3.458l1.505-1.601c1.12.752,3.202,2.417,4.13,3.377Z"/><path class="cls-1" d="M336.986,130.326c1.057-.944,2.113-2.401,2.562-3.233-.496.096-2.657.528-4.931.977v4.242c0,.992.289,1.344,2.033,1.344,1.697,0,3.474-.224,5.059-.528l-.064,2.161c-1.328.192-3.249.352-4.962.352-3.649,0-4.178-.88-4.178-2.769v-4.37c-1.425.288-2.688.544-3.361.704l-.384-2.097c.752-.096,2.16-.336,3.745-.625v-2.289c0-.528-.048-1.345-.128-1.825h2.385c-.08.48-.145,1.28-.145,1.825v1.889c2.338-.432,4.578-.896,5.299-1.057.448-.112.832-.224,1.137-.384l1.536,1.2c-.144.224-.384.576-.528.864-.704,1.329-2.16,3.538-3.312,4.658l-1.762-1.041Z"/><path class="cls-1" d="M346.231,134.408c1.409-.992,2.272-2.465,2.722-3.826.447-1.376.464-4.401.464-6.338,0-.64-.048-1.072-.144-1.457h2.353c-.017.064-.112.784-.112,1.44,0,1.889-.048,5.266-.48,6.883-.48,1.809-1.473,3.377-2.849,4.594l-1.953-1.296ZM353.643,134.648c.064-.304.128-.752.128-1.185v-9.332c0-.721-.112-1.329-.128-1.377h2.385c-.016.048-.111.672-.111,1.393v8.372c1.296-.56,2.881-1.825,3.953-3.377l1.232,1.761c-1.328,1.729-3.633,3.458-5.426,4.37-.336.176-.496.32-.705.48l-1.328-1.104Z"/><path class="cls-1" d="M367.178,130.358v3.922c0,.832-.129,1.296-.593,1.584-.448.288-1.057.352-1.969.352-.032-.48-.24-1.216-.464-1.696.447.016.88.016,1.023.016.176,0,.225-.064.225-.24v-3.33c-.465.16-.912.304-1.328.448l-.449-1.825c.513-.128,1.105-.304,1.777-.496v-2.865h-1.553v-1.761h1.553v-3.009h1.777v3.009h1.328v1.761h-1.328v2.305l1.152-.384.304,1.681-1.456.528ZM375.293,132.583c.896.848,2.225,1.601,3.521,2.017-.384.32-.929.993-1.2,1.441-1.121-.48-2.257-1.281-3.137-2.225v2.609h-1.81v-2.561c-1.089,1.024-2.448,1.825-3.874,2.305-.271-.432-.783-1.121-1.168-1.473,1.553-.4,3.09-1.185,4.13-2.113h-2.945v-1.537h3.857v-.977h-3.649v-3.761h4.227v3.697h.623v-3.697h4.37v3.761h-3.761v.977h4.033v1.537h-3.217ZM371.738,127.589h-1.312v1.185h1.312v-1.185ZM376.717,125.748h-6.258v-3.713h6.258v3.713ZM374.988,123.363h-2.913v1.057h2.913v-1.057ZM375.34,128.773h1.377v-1.185h-1.377v1.185Z"/><path class="cls-1" d="M386.682,122.083c-.416,1.12-.944,2.257-1.536,3.329v10.964h-1.921v-8.003c-.336.4-.672.8-.992,1.152-.176-.464-.721-1.553-1.057-2.033,1.457-1.441,2.85-3.714,3.649-5.987l1.856.577ZM391.756,125.86v1.681h4.146v1.729h-4.146v1.809h4.354v1.761h-4.354v3.553h-1.953v-10.532h-.607c-.641,1.185-1.377,2.273-2.098,3.105-.304-.352-1.057-1.024-1.456-1.328,1.408-1.441,2.673-3.746,3.394-6.035l1.84.464c-.224.672-.479,1.329-.783,1.985h6.21v1.809h-4.546Z"/><path class="cls-10" d="M409.595,121.715c3.985,0,7.202,3.217,7.202,7.203s-3.217,7.203-7.202,7.203-7.203-3.217-7.203-7.203,3.218-7.203,7.203-7.203ZM409.595,122.419c-3.585,0-6.499,2.913-6.499,6.499s2.914,6.499,6.499,6.499,6.499-2.913,6.499-6.499-2.914-6.499-6.499-6.499ZM409.595,124.211c2.608,0,4.706,2.097,4.706,4.706s-2.098,4.706-4.706,4.706-4.706-2.097-4.706-4.706,2.097-4.706,4.706-4.706ZM409.595,124.804c-2.272,0-4.114,1.841-4.114,4.114s1.842,4.114,4.114,4.114,4.113-1.841,4.113-4.114-1.841-4.114-4.113-4.114Z"/><path class="cls-3" d="M289.773,130.326c-.416.032-1.072.144-1.681.24-.769.128-2.065.336-3.474.56.256,1.312.48,2.385.576,2.881.112.48.272,1.056.416,1.568l-2.305.416c-.08-.608-.128-1.152-.225-1.616-.08-.464-.287-1.569-.543-2.914-1.633.272-3.139.528-3.826.656-.688.128-1.232.24-1.601.336l-.448-2.145c.432-.016,1.152-.112,1.664-.176.736-.112,2.226-.352,3.842-.608l-.48-2.561c-1.408.224-2.641.432-3.137.512-.561.112-.992.208-1.473.336l-.432-2.209c.512-.016.992-.048,1.488-.112.561-.064,1.793-.24,3.169-.464-.128-.672-.239-1.2-.288-1.457-.096-.448-.208-.832-.32-1.216l2.258-.368c.047.32.096.864.176,1.249.031.224.128.752.256,1.473,1.36-.224,2.577-.417,3.153-.528.513-.096,1.12-.224,1.505-.336l.384,2.097c-.353.032-.992.128-1.473.192l-3.201.512.496,2.545c1.44-.24,2.753-.448,3.474-.592.624-.128,1.217-.256,1.633-.384l.416,2.113Z"/><path class="cls-3" d="M301.707,131.431c.816-.736,1.921-2.097,2.354-2.881-.385.08-1.969.4-3.697.769.607,2.193,1.279,4.658,1.536,5.49.096.288.304.992.433,1.312l-2.178.528c-.048-.416-.16-.944-.288-1.393-.239-.864-.896-3.345-1.473-5.538-1.345.288-2.513.528-2.993.64l-.496-1.92c.512-.048.944-.096,1.473-.192.225-.032.801-.128,1.537-.272-.16-.624-.305-1.136-.416-1.489-.113-.416-.273-.8-.449-1.136l2.146-.512c.063.384.159.8.256,1.216l.433,1.553c2.032-.384,4.273-.816,4.897-.96.288-.048.593-.144.816-.256l1.28.912c-.672,1.409-2.289,3.81-3.409,5.01l-1.761-.88Z"/><path class="cls-3" d="M318.379,131.398c2.721-1.617,4.818-4.065,5.826-6.227l1.248,2.257c-1.216,2.161-3.345,4.37-5.922,5.923-1.617.976-3.682,1.873-5.938,2.257l-1.345-2.113c2.497-.353,4.578-1.168,6.131-2.097ZM318.379,126.212l-1.633,1.681c-.832-.896-2.833-2.641-4.002-3.458l1.505-1.601c1.12.752,3.202,2.417,4.13,3.377Z"/><path class="cls-3" d="M336.986,130.326c1.057-.944,2.113-2.401,2.562-3.233-.496.096-2.657.528-4.931.977v4.242c0,.992.289,1.344,2.033,1.344,1.697,0,3.474-.224,5.059-.528l-.064,2.161c-1.328.192-3.249.352-4.962.352-3.649,0-4.178-.88-4.178-2.769v-4.37c-1.425.288-2.688.544-3.361.704l-.384-2.097c.752-.096,2.16-.336,3.745-.625v-2.289c0-.528-.048-1.345-.128-1.825h2.385c-.08.48-.145,1.28-.145,1.825v1.889c2.338-.432,4.578-.896,5.299-1.057.448-.112.832-.224,1.137-.384l1.536,1.2c-.144.224-.384.576-.528.864-.704,1.329-2.16,3.538-3.312,4.658l-1.762-1.041Z"/><path class="cls-3" d="M346.231,134.408c1.409-.992,2.272-2.465,2.722-3.826.447-1.376.464-4.401.464-6.338,0-.64-.048-1.072-.144-1.457h2.353c-.017.064-.112.784-.112,1.44,0,1.889-.048,5.266-.48,6.883-.48,1.809-1.473,3.377-2.849,4.594l-1.953-1.296ZM353.643,134.648c.064-.304.128-.752.128-1.185v-9.332c0-.721-.112-1.329-.128-1.377h2.385c-.016.048-.111.672-.111,1.393v8.372c1.296-.56,2.881-1.825,3.953-3.377l1.232,1.761c-1.328,1.729-3.633,3.458-5.426,4.37-.336.176-.496.32-.705.48l-1.328-1.104Z"/><path class="cls-3" d="M367.178,130.358v3.922c0,.832-.129,1.296-.593,1.584-.448.288-1.057.352-1.969.352-.032-.48-.24-1.216-.464-1.696.447.016.88.016,1.023.016.176,0,.225-.064.225-.24v-3.33c-.465.16-.912.304-1.328.448l-.449-1.825c.513-.128,1.105-.304,1.777-.496v-2.865h-1.553v-1.761h1.553v-3.009h1.777v3.009h1.328v1.761h-1.328v2.305l1.152-.384.304,1.681-1.456.528ZM375.293,132.583c.896.848,2.225,1.601,3.521,2.017-.384.32-.929.993-1.2,1.441-1.121-.48-2.257-1.281-3.137-2.225v2.609h-1.81v-2.561c-1.089,1.024-2.448,1.825-3.874,2.305-.271-.432-.783-1.121-1.168-1.473,1.553-.4,3.09-1.185,4.13-2.113h-2.945v-1.537h3.857v-.977h-3.649v-3.761h4.227v3.697h.623v-3.697h4.37v3.761h-3.761v.977h4.033v1.537h-3.217ZM371.738,127.589h-1.312v1.185h1.312v-1.185ZM376.717,125.748h-6.258v-3.713h6.258v3.713ZM374.988,123.363h-2.913v1.057h2.913v-1.057ZM375.34,128.773h1.377v-1.185h-1.377v1.185Z"/><path class="cls-3" d="M386.682,122.083c-.416,1.12-.944,2.257-1.536,3.329v10.964h-1.921v-8.003c-.336.4-.672.8-.992,1.152-.176-.464-.721-1.553-1.057-2.033,1.457-1.441,2.85-3.714,3.649-5.987l1.856.577ZM391.756,125.86v1.681h4.146v1.729h-4.146v1.809h4.354v1.761h-4.354v3.553h-1.953v-10.532h-.607c-.641,1.185-1.377,2.273-2.098,3.105-.304-.352-1.057-1.024-1.456-1.328,1.408-1.441,2.673-3.746,3.394-6.035l1.84.464c-.224.672-.479,1.329-.783,1.985h6.21v1.809h-4.546Z"/><path class="cls-3" d="M409.595,121.715c3.985,0,7.202,3.217,7.202,7.203s-3.217,7.203-7.202,7.203-7.203-3.217-7.203-7.203,3.218-7.203,7.203-7.203ZM409.595,122.419c-3.585,0-6.499,2.913-6.499,6.499s2.914,6.499,6.499,6.499,6.499-2.913,6.499-6.499-2.914-6.499-6.499-6.499ZM409.595,124.211c2.608,0,4.706,2.097,4.706,4.706s-2.098,4.706-4.706,4.706-4.706-2.097-4.706-4.706,2.097-4.706,4.706-4.706ZM409.595,124.804c-2.272,0-4.114,1.841-4.114,4.114s1.842,4.114,4.114,4.114,4.113-1.841,4.113-4.114-1.841-4.114-4.113-4.114Z"/><path class="cls-1" d="M214.055,227.64c-2.23,1.609-2.23,4.243,0,5.852l11.891,8.582c2.23,1.609,4.054.676,4.054-2.074v-18.868c0-2.75-1.824-3.683-4.054-2.074l-11.891,8.582Z"/><path class="cls-9" d="M294.084,210.326c-.416.032-1.072.144-1.681.24-.769.128-2.065.336-3.474.56.256,1.312.48,2.385.576,2.881.112.48.272,1.056.416,1.568l-2.305.416c-.08-.608-.128-1.152-.225-1.616-.08-.464-.287-1.569-.543-2.914-1.633.272-3.139.528-3.826.656-.688.128-1.232.24-1.601.336l-.448-2.145c.432-.016,1.152-.112,1.664-.176.736-.112,2.226-.352,3.842-.608l-.48-2.561c-1.408.224-2.641.432-3.137.512-.561.112-.992.208-1.473.336l-.432-2.209c.512-.016.992-.048,1.488-.112.561-.064,1.793-.24,3.169-.464-.128-.672-.239-1.2-.288-1.457-.096-.448-.208-.832-.32-1.216l2.258-.368c.047.32.096.864.176,1.249.031.224.128.752.256,1.473,1.36-.224,2.577-.417,3.153-.528.513-.096,1.12-.224,1.505-.336l.384,2.097c-.353.032-.992.128-1.473.192l-3.201.512.496,2.545c1.44-.24,2.753-.448,3.474-.592.624-.128,1.217-.256,1.633-.384l.416,2.113Z"/><path class="cls-9" d="M306.018,211.431c.816-.736,1.921-2.097,2.354-2.881-.385.08-1.969.4-3.697.769.607,2.193,1.279,4.658,1.536,5.49.096.288.304.992.433,1.312l-2.178.528c-.048-.416-.16-.944-.288-1.393-.239-.864-.896-3.345-1.473-5.538-1.345.288-2.513.528-2.993.64l-.496-1.92c.512-.048.944-.096,1.473-.192.225-.032.801-.128,1.537-.272-.16-.624-.305-1.136-.416-1.489-.113-.416-.273-.8-.449-1.136l2.146-.512c.063.384.159.8.256,1.216l.433,1.553c2.032-.384,4.273-.816,4.897-.96.288-.048.593-.144.816-.256l1.28.912c-.672,1.409-2.289,3.81-3.409,5.01l-1.761-.88Z"/><path class="cls-9" d="M322.689,211.398c2.721-1.617,4.818-4.065,5.826-6.227l1.248,2.257c-1.216,2.161-3.345,4.37-5.922,5.923-1.617.976-3.682,1.873-5.938,2.257l-1.345-2.113c2.497-.353,4.578-1.168,6.131-2.097ZM322.689,206.212l-1.633,1.681c-.832-.896-2.833-2.641-4.002-3.458l1.505-1.601c1.12.752,3.202,2.417,4.13,3.377Z"/><path class="cls-9" d="M341.297,210.326c1.057-.944,2.113-2.401,2.562-3.233-.496.096-2.657.528-4.931.977v4.242c0,.992.289,1.344,2.033,1.344,1.697,0,3.474-.224,5.059-.528l-.064,2.161c-1.328.192-3.249.352-4.962.352-3.649,0-4.178-.88-4.178-2.769v-4.37c-1.425.288-2.688.544-3.361.704l-.384-2.097c.752-.096,2.16-.336,3.745-.625v-2.289c0-.528-.048-1.345-.128-1.825h2.385c-.08.48-.145,1.28-.145,1.825v1.889c2.338-.432,4.578-.896,5.299-1.057.448-.112.832-.224,1.137-.384l1.536,1.2c-.144.224-.384.576-.528.864-.704,1.329-2.16,3.538-3.312,4.658l-1.762-1.041Z"/><path class="cls-9" d="M350.542,214.408c1.409-.992,2.272-2.465,2.722-3.826.447-1.376.464-4.401.464-6.338,0-.64-.048-1.072-.144-1.457h2.353c-.017.064-.112.784-.112,1.44,0,1.889-.048,5.266-.48,6.883-.48,1.809-1.473,3.377-2.849,4.594l-1.953-1.296ZM357.953,214.648c.064-.304.128-.752.128-1.185v-9.332c0-.721-.112-1.329-.128-1.377h2.385c-.016.048-.111.672-.111,1.393v8.372c1.296-.56,2.881-1.825,3.953-3.377l1.232,1.761c-1.328,1.729-3.633,3.458-5.426,4.37-.336.176-.496.32-.705.48l-1.328-1.104Z"/><path class="cls-9" d="M371.488,210.358v3.922c0,.832-.129,1.296-.593,1.584-.448.288-1.057.352-1.969.352-.032-.48-.24-1.216-.464-1.696.447.016.88.016,1.023.016.176,0,.225-.064.225-.24v-3.33c-.465.16-.912.304-1.328.448l-.449-1.825c.513-.128,1.105-.304,1.777-.496v-2.865h-1.553v-1.761h1.553v-3.009h1.777v3.009h1.328v1.761h-1.328v2.305l1.152-.384.304,1.681-1.456.528ZM379.604,212.583c.896.848,2.225,1.601,3.521,2.017-.384.32-.929.993-1.2,1.441-1.121-.48-2.257-1.281-3.137-2.225v2.609h-1.81v-2.561c-1.089,1.024-2.448,1.825-3.874,2.305-.271-.432-.783-1.121-1.168-1.473,1.553-.4,3.09-1.185,4.13-2.113h-2.945v-1.537h3.857v-.977h-3.649v-3.761h4.227v3.697h.623v-3.697h4.37v3.761h-3.761v.977h4.033v1.537h-3.217ZM376.049,207.589h-1.312v1.185h1.312v-1.185ZM381.027,205.748h-6.258v-3.713h6.258v3.713ZM379.299,203.363h-2.913v1.057h2.913v-1.057ZM379.65,208.773h1.377v-1.185h-1.377v1.185Z"/><path class="cls-9" d="M390.992,202.083c-.416,1.12-.944,2.257-1.536,3.329v10.964h-1.921v-8.003c-.336.4-.672.8-.992,1.152-.176-.464-.721-1.553-1.057-2.033,1.457-1.441,2.85-3.714,3.649-5.987l1.856.577ZM396.066,205.86v1.681h4.146v1.729h-4.146v1.809h4.354v1.761h-4.354v3.553h-1.953v-10.532h-.607c-.641,1.185-1.377,2.273-2.098,3.105-.304-.352-1.057-1.024-1.456-1.328,1.408-1.441,2.673-3.746,3.394-6.035l1.84.464c-.224.672-.479,1.329-.783,1.985h6.21v1.809h-4.546Z"/><path class="cls-9" d="M418.835,214.184l-4.114-4.114-4.113,4.114-1.152-1.152,4.113-4.114-4.113-4.114,1.152-1.152,4.113,4.114,4.114-4.114,1.152,1.152-4.113,4.114,4.113,4.114-1.152,1.152Z"/><path class="cls-1" d="M294.084,210.326c-.416.032-1.072.144-1.681.24-.769.128-2.065.336-3.474.56.256,1.312.48,2.385.576,2.881.112.48.272,1.056.416,1.568l-2.305.416c-.08-.608-.128-1.152-.225-1.616-.08-.464-.287-1.569-.543-2.914-1.633.272-3.139.528-3.826.656-.688.128-1.232.24-1.601.336l-.448-2.145c.432-.016,1.152-.112,1.664-.176.736-.112,2.226-.352,3.842-.608l-.48-2.561c-1.408.224-2.641.432-3.137.512-.561.112-.992.208-1.473.336l-.432-2.209c.512-.016.992-.048,1.488-.112.561-.064,1.793-.24,3.169-.464-.128-.672-.239-1.2-.288-1.457-.096-.448-.208-.832-.32-1.216l2.258-.368c.047.32.096.864.176,1.249.031.224.128.752.256,1.473,1.36-.224,2.577-.417,3.153-.528.513-.096,1.12-.224,1.505-.336l.384,2.097c-.353.032-.992.128-1.473.192l-3.201.512.496,2.545c1.44-.24,2.753-.448,3.474-.592.624-.128,1.217-.256,1.633-.384l.416,2.113Z"/><path class="cls-1" d="M306.018,211.431c.816-.736,1.921-2.097,2.354-2.881-.385.08-1.969.4-3.697.769.607,2.193,1.279,4.658,1.536,5.49.096.288.304.992.433,1.312l-2.178.528c-.048-.416-.16-.944-.288-1.393-.239-.864-.896-3.345-1.473-5.538-1.345.288-2.513.528-2.993.64l-.496-1.92c.512-.048.944-.096,1.473-.192.225-.032.801-.128,1.537-.272-.16-.624-.305-1.136-.416-1.489-.113-.416-.273-.8-.449-1.136l2.146-.512c.063.384.159.8.256,1.216l.433,1.553c2.032-.384,4.273-.816,4.897-.96.288-.048.593-.144.816-.256l1.28.912c-.672,1.409-2.289,3.81-3.409,5.01l-1.761-.88Z"/><path class="cls-1" d="M322.689,211.398c2.721-1.617,4.818-4.065,5.826-6.227l1.248,2.257c-1.216,2.161-3.345,4.37-5.922,5.923-1.617.976-3.682,1.873-5.938,2.257l-1.345-2.113c2.497-.353,4.578-1.168,6.131-2.097ZM322.689,206.212l-1.633,1.681c-.832-.896-2.833-2.641-4.002-3.458l1.505-1.601c1.12.752,3.202,2.417,4.13,3.377Z"/><path class="cls-1" d="M341.297,210.326c1.057-.944,2.113-2.401,2.562-3.233-.496.096-2.657.528-4.931.977v4.242c0,.992.289,1.344,2.033,1.344,1.697,0,3.474-.224,5.059-.528l-.064,2.161c-1.328.192-3.249.352-4.962.352-3.649,0-4.178-.88-4.178-2.769v-4.37c-1.425.288-2.688.544-3.361.704l-.384-2.097c.752-.096,2.16-.336,3.745-.625v-2.289c0-.528-.048-1.345-.128-1.825h2.385c-.08.48-.145,1.28-.145,1.825v1.889c2.338-.432,4.578-.896,5.299-1.057.448-.112.832-.224,1.137-.384l1.536,1.2c-.144.224-.384.576-.528.864-.704,1.329-2.16,3.538-3.312,4.658l-1.762-1.041Z"/><path class="cls-1" d="M350.542,214.408c1.409-.992,2.272-2.465,2.722-3.826.447-1.376.464-4.401.464-6.338,0-.64-.048-1.072-.144-1.457h2.353c-.017.064-.112.784-.112,1.44,0,1.889-.048,5.266-.48,6.883-.48,1.809-1.473,3.377-2.849,4.594l-1.953-1.296ZM357.953,214.648c.064-.304.128-.752.128-1.185v-9.332c0-.721-.112-1.329-.128-1.377h2.385c-.016.048-.111.672-.111,1.393v8.372c1.296-.56,2.881-1.825,3.953-3.377l1.232,1.761c-1.328,1.729-3.633,3.458-5.426,4.37-.336.176-.496.32-.705.48l-1.328-1.104Z"/><path class="cls-1" d="M371.488,210.358v3.922c0,.832-.129,1.296-.593,1.584-.448.288-1.057.352-1.969.352-.032-.48-.24-1.216-.464-1.696.447.016.88.016,1.023.016.176,0,.225-.064.225-.24v-3.33c-.465.16-.912.304-1.328.448l-.449-1.825c.513-.128,1.105-.304,1.777-.496v-2.865h-1.553v-1.761h1.553v-3.009h1.777v3.009h1.328v1.761h-1.328v2.305l1.152-.384.304,1.681-1.456.528ZM379.604,212.583c.896.848,2.225,1.601,3.521,2.017-.384.32-.929.993-1.2,1.441-1.121-.48-2.257-1.281-3.137-2.225v2.609h-1.81v-2.561c-1.089,1.024-2.448,1.825-3.874,2.305-.271-.432-.783-1.121-1.168-1.473,1.553-.4,3.09-1.185,4.13-2.113h-2.945v-1.537h3.857v-.977h-3.649v-3.761h4.227v3.697h.623v-3.697h4.37v3.761h-3.761v.977h4.033v1.537h-3.217ZM376.049,207.589h-1.312v1.185h1.312v-1.185ZM381.027,205.748h-6.258v-3.713h6.258v3.713ZM379.299,203.363h-2.913v1.057h2.913v-1.057ZM379.65,208.773h1.377v-1.185h-1.377v1.185Z"/><path class="cls-1" d="M390.992,202.083c-.416,1.12-.944,2.257-1.536,3.329v10.964h-1.921v-8.003c-.336.4-.672.8-.992,1.152-.176-.464-.721-1.553-1.057-2.033,1.457-1.441,2.85-3.714,3.649-5.987l1.856.577ZM396.066,205.86v1.681h4.146v1.729h-4.146v1.809h4.354v1.761h-4.354v3.553h-1.953v-10.532h-.607c-.641,1.185-1.377,2.273-2.098,3.105-.304-.352-1.057-1.024-1.456-1.328,1.408-1.441,2.673-3.746,3.394-6.035l1.84.464c-.224.672-.479,1.329-.783,1.985h6.21v1.809h-4.546Z"/><path class="cls-8" d="M418.835,214.184l-4.114-4.114-4.113,4.114-1.152-1.152,4.113-4.114-4.113-4.114,1.152-1.152,4.113,4.114,4.114-4.114,1.152,1.152-4.113,4.114,4.113,4.114-1.152,1.152Z"/><rect class="cls-1" x="220" y="228.5" width="485.001" height="5"/><path class="cls-6" d="M569.963,195.698v5.941h-3.208v-3.124h-17.433v3.124h-3.013v-5.941h3.375c-.502-.893-1.199-1.897-1.841-2.734l2.873-1.227c.921,1.06,2.009,2.538,2.482,3.57l-.893.391h4.296c-.391-1.004-1.144-2.371-1.813-3.431l2.901-.976c.809,1.088,1.729,2.678,2.119,3.682l-1.952.726h4.574c.893-1.2,1.953-2.901,2.482-4.212l3.57,1.115c-.809,1.061-1.646,2.176-2.427,3.097h3.905ZM559.447,206.716c-.223.613-.474,1.171-.726,1.701h9.233v9.065h-3.292v-.92h-13.082v.92h-3.151v-9.065h7.001c.14-.558.307-1.144.418-1.701h-5.076v-6.834h14.561v6.834h-5.886ZM564.663,211.262h-13.082v2.427h13.082v-2.427ZM553.841,204.289h8.284v-1.953h-8.284v1.953Z"/><path class="cls-6" d="M593.008,211.067c2.371,1.45,5.606,2.538,8.842,3.04-.753.725-1.729,2.12-2.231,3.013-3.431-.865-6.806-2.539-9.372-4.714v5.021h-3.263v-4.854c-2.595,2.036-6.025,3.654-9.345,4.519-.474-.809-1.423-2.092-2.12-2.761,3.124-.642,6.416-1.813,8.814-3.263h-8.005v-2.734h10.655v-1.227h-8.033v-2.399h8.033v-1.255h-9.429v-2.594h5.3c-.223-.697-.586-1.534-.948-2.176l.335-.056h-5.83v-2.706h3.738c-.391-1.06-1.116-2.398-1.729-3.458l2.845-.976c.809,1.199,1.729,2.845,2.12,3.933l-1.367.502h2.539v-4.546h3.096v4.546h2.064v-4.546h3.124v4.546h2.482l-1.005-.307c.67-1.144,1.367-2.817,1.758-4.044l3.486.837c-.781,1.283-1.534,2.538-2.176,3.514h3.626v2.706h-5.243c-.446.809-.893,1.562-1.312,2.231h5.467v2.594h-9.679v1.255h8.368v2.399h-8.368v1.227h10.851v2.734h-8.089ZM585.421,198.627c.391.725.753,1.534.948,2.147l-.474.084h5.216c.335-.67.669-1.479.976-2.231h-6.666Z"/><path class="cls-6" d="M629.105,193.048v23.988h-3.57v-1.757h-12.385v1.813h-3.431v-24.044h19.386ZM613.15,196.396v5.997h12.385v-5.997h-12.385ZM625.535,211.932v-6.248h-12.385v6.248h12.385Z"/><path class="cls-6" d="M657.841,204.429c1.785,1.562,3.793,2.845,5.829,3.737-.809.697-1.868,2.036-2.427,2.901-1.171-.614-2.314-1.367-3.402-2.204v8.508h-3.459v-11.743c-1.255-1.367-2.398-2.901-3.403-4.491-2.092,7.894-5.969,13.221-10.934,16.039-.558-.726-1.841-1.953-2.65-2.482,3.068-1.59,5.606-3.989,7.56-7.225-1.088-1.004-2.706-2.203-4.184-3.18-.447.614-.921,1.144-1.423,1.646-.586-.558-1.953-1.646-2.762-2.12,3.068-2.79,5.328-7.448,6.555-12.44l3.292.642c-.307,1.171-.642,2.287-1.032,3.403h3.877l.586-.111,2.176.753c-.14.837-.279,1.646-.419,2.427l1.032-.391c.475.893,1.06,1.813,1.729,2.678v-9.344h3.459v12.998ZM644.146,198.571c-.503,1.144-1.061,2.203-1.674,3.235,1.395.809,2.873,1.813,3.988,2.706.753-1.785,1.339-3.766,1.785-5.941h-4.1Z"/><path class="cls-4" d="M262.285,10.997v4.461h-2.801v-2.021h-11.902v2.021h-2.641v-4.461h2.24c-.34-.58-.78-1.24-1.18-1.761l2.52-1.06c.66.74,1.421,1.78,1.74,2.521l-.699.3h2.66c-.279-.7-.76-1.62-1.2-2.32l2.561-.881c.54.78,1.2,1.881,1.48,2.601l-1.66.601h3.12c.601-.86,1.261-2.101,1.621-3.041l3.16.921c-.58.76-1.141,1.5-1.641,2.12h2.621ZM254.863,19.199c-.141.359-.3.68-.46,1h6.421v6.761h-2.9v-.6h-8.682v.6h-2.761v-6.761h5.001c.08-.34.16-.681.221-1h-3.401v-5.082h10.462v5.082h-3.9ZM257.924,22.68h-8.682v1.2h8.682v-1.2ZM250.982,17.118h4.941v-.92h-4.941v.92Z"/><path class="cls-4" d="M279.443,22.439c1.581.78,3.602,1.34,5.701,1.641-.66.62-1.52,1.84-1.96,2.641-2.36-.561-4.521-1.601-6.261-3.001v3.181h-2.881v-3.081c-1.801,1.301-4.041,2.321-6.302,2.901-.399-.7-1.24-1.82-1.86-2.421,2.061-.36,4.161-1.021,5.781-1.86h-5.121v-2.36h7.502v-.561h-5.661v-2.061h5.661v-.56h-6.642v-2.24h3.501c-.12-.421-.32-.921-.48-1.301h-3.841v-2.36h2.401c-.281-.7-.701-1.561-1.081-2.24l2.501-.841c.54.841,1.16,2.001,1.42,2.761l-.9.32h1.44v-3.121h2.7v3.121h.961v-3.121h2.74v3.121h1.32l-.6-.18c.42-.801.88-1.961,1.119-2.821l3.062.7c-.521.86-1.021,1.66-1.46,2.301h2.3v2.36h-3.62c-.281.46-.541.9-.781,1.301h3.602v2.24h-6.781v.56h5.881v2.061h-5.881v.561h7.641v2.36h-5.121ZM273.482,13.357c.221.44.42.92.521,1.261l-.24.04h3.401c.18-.4.359-.86.5-1.301h-4.182Z"/><path class="cls-4" d="M303.484,17.398c1.2,1,2.521,1.84,3.921,2.44-.7.601-1.641,1.78-2.12,2.561-.621-.34-1.221-.7-1.801-1.12v5.581h-3.041v-8.361c-.779-.881-1.5-1.841-2.16-2.861-1.52,5.342-4.181,9.062-7.642,11.062-.479-.64-1.601-1.74-2.32-2.181,2.101-1.08,3.821-2.681,5.161-4.801-.68-.64-1.641-1.36-2.521-1.96-.28.34-.561.68-.86.979-.52-.5-1.74-1.46-2.42-1.88,2.199-1.98,3.82-5.361,4.66-8.982l2.9.601c-.199.76-.42,1.521-.68,2.261h2.24l.5-.101,1.921.641c-.101.62-.2,1.22-.32,1.82l.761-.28c.22.44.479.86.779,1.28v-6.142h3.041v9.442ZM293.482,13.478c-.32.72-.66,1.4-1.041,2.04.82.501,1.682,1.061,2.361,1.601.439-1.1.82-2.32,1.1-3.641h-2.42Z"/><path class="cls-4" d="M318.743,23.159c.84-.1,1.38-.22,1.94-.359,2.521-.62,4.201-2.381,4.201-4.981,0-2.561-1.24-4.381-3.521-4.921-.26,1.601-.62,3.341-1.16,5.161-1.18,3.961-2.961,6.621-5.301,6.621-2.441,0-4.321-2.66-4.321-6.041,0-4.701,4.062-8.702,9.362-8.702,5.041,0,8.242,3.481,8.242,7.982,0,4.16-2.461,7.221-7.622,8.081l-1.82-2.841ZM318.104,12.957c-2.941.801-4.402,3.461-4.402,5.361,0,1.721.601,2.621,1.281,2.621.8,0,1.4-1.2,2.1-3.501.44-1.341.781-2.921,1.021-4.481Z"/><path class="cls-4" d="M348.765,9.017v17.644h-3.141v-1.32h-8.302v1.32h-3V9.017h14.442ZM337.322,11.957v3.661h8.302v-3.661h-8.302ZM345.624,22.399v-3.9h-8.302v3.9h8.302Z"/><path class="cls-4" d="M362.943,9.337c-.141.6-.301,1.34-.42,1.9-.101.54-.221,1.08-.341,1.601.521-.04.98-.061,1.341-.061,2.28,0,3.78,1.08,3.78,4.041,0,2.32-.26,5.501-1.1,7.262-.681,1.42-1.841,1.92-3.461,1.92-.761,0-1.7-.12-2.401-.28l-.52-3.16c.721.2,1.92.42,2.42.42.621,0,1.081-.22,1.341-.76.5-.98.74-3.241.74-5.081,0-1.44-.601-1.621-1.841-1.621-.22,0-.56.021-.92.04-.8,3.081-2.28,7.842-3.961,10.562l-3.141-1.26c1.881-2.541,3.161-6.242,3.9-8.942-.52.08-.959.14-1.24.18-.64.08-1.779.24-2.439.36l-.26-3.221c.76.061,1.52.021,2.3,0,.58-.02,1.4-.08,2.28-.14.28-1.541.42-2.921.381-4.141l3.561.38ZM369.984,11.457c1.181,1.881,2.661,5.301,3.201,7.122l-3.061,1.42c-.48-2.301-1.801-5.821-3.241-7.662l1.74-.72c-.4-.78-.9-1.761-1.36-2.44l1.881-.761c.5.74,1.2,2.041,1.561,2.741l-.721.3ZM371.305,10.977c-.4-.819-1.04-2-1.58-2.76l1.88-.761c.521.761,1.24,2.041,1.581,2.721l-1.881.8Z"/><path class="cls-4" d="M386.743,7.856c2.301,2.301,5.401,3.881,8.542,4.681-.64.681-1.28,1.681-1.74,2.501-1.301-.48-2.78-1.16-4.161-1.961v1.101h-7.762v-1.141c-1.34.78-2.82,1.48-4.28,2.021-.32-.66-1.041-1.76-1.581-2.34,3.281-1.021,6.502-3.041,8.122-4.861h2.86ZM391.984,15.778c-.66,1.28-1.4,2.54-2.141,3.721h2.521v7.441h-3v-.62h-7.622v.62h-2.86v-7.441h7.502c.38-.601.779-1.261,1.14-1.881h-8.882v-2.521h10.562l.5-.12,2.28.801ZM389.364,23.84v-1.86h-7.622v1.86h7.622ZM387.384,11.817c-.761-.521-1.421-1.061-1.961-1.601-.52.54-1.16,1.08-1.9,1.601h3.861Z"/><path class="cls-4" d="M413.364,25.28c-.98-.94-2.181-1.881-3.541-2.581v.4c0,1.86-1.5,3.121-4.12,3.121-3.341,0-5.081-1.32-5.081-3.521,0-2.12,1.9-3.62,5.061-3.62.32,0,.641.02.96.04l-.06-1.32h-.96c-1.061,0-3.381-.101-4.642-.261l.021-2.82c1.04.24,3.74.38,4.661.38h.88l.02-1.62h-.939c-1.2,0-2.961-.12-4.102-.3l-.02-2.721c1.28.24,2.94.38,4.101.38h.98v-.68c0-.36-.04-1.001-.12-1.44h3.24c-.06.42-.119.979-.14,1.44l-.02.6c1.46-.08,2.82-.22,4.521-.479l.061,2.74c-1.181.12-2.721.28-4.621.36l-.021,1.64c2.041-.1,3.621-.279,5.142-.46l.02,2.82c-1.74.181-3.2.301-5.101.36.04.62.08,1.28.119,1.921,2.421.72,4.262,1.98,5.422,2.94l-1.721,2.681ZM406.763,21.659c-.479-.08-.979-.12-1.48-.12-1.1,0-1.74.42-1.74.98,0,.66.66,1,1.681,1s1.561-.28,1.561-1.3c0-.141,0-.32-.021-.561Z"/><path class="cls-4" d="M438.925,24.12c-.84.74-2.021,1.4-3.78,1.4-1.58,0-2.641-1.2-2.641-3.281,0-2.12.7-4.821.7-6.562,0-.88-.46-1.36-1.2-1.36-1.36,0-3.381,1.761-4.901,3.441-.02.42-.02.84-.02,1.24,0,1.5,0,3.44.14,5.341.02.36.1,1.221.16,1.7h-3.281c.04-.5.061-1.32.061-1.641.02-1.2.04-2.24.08-3.5-.761,1.1-1.561,2.32-2.101,3.061l-1.86-2.641c1.12-1.381,2.98-3.781,4.161-5.481l.06-1.061c-1.021.12-2.4.301-3.461.44l-.3-3.061c.641.021,1.141.021,1.961-.02.54-.04,1.26-.101,2-.221.04-.62.06-1.12.06-1.32,0-.62.021-1.26-.1-1.94l3.48.101c-.14.62-.3,1.62-.46,2.82l.761,1c-.261.34-.721,1.04-1.081,1.561v.06c1.561-1.3,3.701-2.74,5.562-2.74,2.301,0,3.32,1.381,3.32,3.081,0,2.08-.62,4.721-.62,6.801,0,.44.24.681.62.681.561,0,1.44-.42,2.301-1.28l.38,3.381Z"/><path class="cls-4" d="M457.225,11.377c-.521.32-1.021.62-1.521.96-1.12.761-2.86,2.181-3.941,3.021.521-.101.9-.12,1.381-.12,3.4,0,6.081,2.18,6.081,5.161,0,3.101-2.24,5.801-7.361,5.801-2.801,0-5.121-1.3-5.121-3.48,0-1.74,1.601-3.361,3.841-3.361,2.421,0,3.98,1.4,4.321,3.281.779-.54,1.16-1.32,1.16-2.28,0-1.701-1.741-2.761-3.921-2.761-2.901,0-4.981,1.74-6.882,4.061l-2.181-2.261c1.28-1,3.581-2.96,4.762-3.921,1.1-.92,2.94-2.34,3.9-3.2-1,.02-3.041.1-4.101.18-.601.04-1.301.101-1.78.181l-.101-3.101c.62.08,1.36.119,2.021.119,1.061,0,5.021-.06,6.201-.159.94-.08,1.501-.16,1.761-.24l1.48,2.12ZM452.144,23.439c-.101-1.1-.7-1.8-1.541-1.8-.64,0-1.02.38-1.02.78,0,.62.66,1.06,1.66,1.06.32,0,.62-.02.9-.04Z"/><path class="cls-4" d="M475.144,18.299c-.12.24-.26.479-.4.7h7.922s-.02.64-.06.96c-.261,3.78-.58,5.421-1.121,6.041-.42.5-.899.681-1.439.761-.48.08-1.221.1-2.061.08-.04-.58-.2-1.36-.48-1.94-.6.819-1.26,1.56-1.94,2.08-.5-.54-1.34-1.2-2.061-1.601,1.44-.88,2.721-2.46,3.581-4.121h-.7c-1.08,1.821-2.921,3.761-4.601,4.821-.461-.58-1.221-1.28-1.9-1.7,1.359-.66,2.74-1.841,3.801-3.121h-.7c-.66.681-1.381,1.28-2.121,1.761-.32-.36-.96-.96-1.48-1.4-1.56.801-3.141,1.58-4.501,2.24l-1.06-2.94c.64-.22,1.44-.52,2.32-.86v-5.281h-1.841v-2.74h1.841v-3.841h2.7v3.841h1.681v2.74h-1.681v4.182l1.341-.561.439,1.74c.62-.54,1.201-1.16,1.661-1.84h-1.961v-2.421h12.703v2.421h-7.882ZM481.665,15.318h-9.702v-6.962h9.702v6.962ZM478.984,10.316h-4.461v.601h4.461v-.601ZM478.984,12.758h-4.461v.6h4.461v-.6ZM479.524,21.259c-.44,1.121-1.08,2.301-1.82,3.361.4.02.72.02.92.02.26,0,.42-.04.58-.24.24-.26.46-1.14.641-3.141h-.32Z"/><path class="cls-4" d="M496.823,7.916c2.181,3.121,5.262,5.542,8.482,6.762-.721.74-1.381,1.721-1.9,2.621-.961-.501-1.921-1.101-2.861-1.761v1.32h-10.002v-1.421c-.94.681-1.94,1.301-2.961,1.841-.38-.68-1.2-1.761-1.82-2.36,3.421-1.62,6.582-4.621,8.022-7.002h3.04ZM489.082,18.559h13.043v8.382h-3.001v-.7h-7.182v.7h-2.86v-8.382ZM491.942,21.1v2.601h7.182v-2.601h-7.182ZM498.924,14.317c-1.42-1.16-2.66-2.4-3.501-3.561-.84,1.181-2.021,2.4-3.421,3.561h6.922Z"/><path class="cls-5" d="M216.5,36c-9.925,0-18-8.075-18-18S206.575,0,216.5,0s18,8.075,18,18-8.075,18-18,18ZM216.5,1c-9.374,0-17,7.626-17,17s7.626,17,17,17,17-7.626,17-17-7.626-17-17-17Z"/><path class="cls-5" d="M219,21.5v-9h-3.111c-.13.648-.259,1.333-.407,2h2.317l.349-.071,1.266.372c-.661,5.725-2.587,9.731-5.394,11.716-.275-.479-.954-1.294-1.358-1.613,1.339-.886,2.404-2.198,3.211-3.917-.385-.443-1.028-1.01-1.596-1.453-.312.549-.661,1.046-1.064,1.489-.275-.408-.826-1.046-1.211-1.418v6.895h-2v-9.14s-.519,1.031-.892,1.457c-.16-.498-.675-1.724-1.013-2.275,1.44-1.653,2.737-4.248,3.519-6.843l1.955.587-.053.214h5.484v1h2v10h-2ZM212,19.226c1.498-1.706,2.209-4.479,2.565-6.726h-1.565v-1.698c.036,1.031-.39,2.062-1,3.075v5.35ZM215.203,16.5c-.178.533-.355,1.049-.551,1.546.498.355,1.066.782,1.475,1.173.249-.835.444-1.742.604-2.719h-1.529ZM225,10.5v13.863c0,1.12-.2,1.671-.873,2.008-.655.338-1.673.409-3.109.409-.073-.569-.364-1.493-.655-2.079.982.053,1.909.053,2.236.036.291-.018.4-.089.4-.391v-13.846h2Z"/></g></svg>