<?xml version="1.0" encoding="UTF-8"?><svg id="_レイヤー_2" xmlns="http://www.w3.org/2000/svg" viewBox="0 0 706 321.5"><defs><style>.cls-1,.cls-2,.cls-3,.cls-4,.cls-5,.cls-6{stroke-width:0px;}.cls-1,.cls-7{fill:#bc4646;}.cls-2{fill:#f2f2f2;}.cls-8{fill:none;stroke:#ddd;stroke-linecap:round;stroke-linejoin:round;stroke-width:10px;}.cls-7{stroke:#bc4646;}.cls-7,.cls-9{stroke-miterlimit:10;}.cls-3,.cls-9{fill:#4f6ab7;}.cls-4{fill:#4b5654;}.cls-5{fill:#dd6743;}.cls-6{fill:#fff;}.cls-9{stroke:#4f6ab7;}</style></defs><g id="_コンテンツ"><rect class="cls-5" x="504" y="246.5" width="101" height="74"/><path class="cls-4" d="M705,174.5h-3v-1h3v1ZM699,174.5h-3v-1h3v1ZM693,174.5h-3v-1h3v1ZM687,174.5h-3v-1h3v1ZM681,174.5h-3v-1h3v1ZM675,174.5h-3v-1h3v1ZM669,174.5h-3v-1h3v1ZM663,174.5h-3v-1h3v1ZM657,174.5h-3v-1h3v1ZM651,174.5h-3v-1h3v1ZM645,174.5h-3v-1h3v1ZM639,174.5h-3v-1h3v1ZM633,174.5h-3v-1h3v1ZM627,174.5h-3v-1h3v1ZM621,174.5h-3v-1h3v1ZM615,174.5h-3v-1h3v1ZM609,174.5h-3v-1h3v1ZM603,174.5h-3v-1h3v1ZM597,174.5h-3v-1h3v1ZM591,174.5h-3v-1h3v1ZM585,174.5h-3v-1h3v1ZM579,174.5h-3v-1h3v1ZM573,174.5h-3v-1h3v1ZM567,174.5h-3v-1h3v1ZM561,174.5h-3v-1h3v1ZM555,174.5h-3v-1h3v1ZM549,174.5h-3v-1h3v1ZM543,174.5h-3v-1h3v1ZM537,174.5h-3v-1h3v1ZM531,174.5h-3v-1h3v1ZM525,174.5h-3v-1h3v1ZM519,174.5h-3v-1h3v1ZM513,174.5h-3v-1h3v1ZM507,174.5h-3v-1h3v1ZM501,174.5h-3v-1h3v1ZM495,174.5h-3v-1h3v1ZM489,174.5h-3v-1h3v1ZM483,174.5h-3v-1h3v1ZM477,174.5h-3v-1h3v1ZM471,174.5h-3v-1h3v1ZM465,174.5h-3v-1h3v1ZM459,174.5h-3v-1h3v1ZM453,174.5h-3v-1h3v1ZM447,174.5h-3v-1h3v1ZM441,174.5h-3v-1h3v1ZM435,174.5h-3v-1h3v1ZM429,174.5h-3v-1h3v1ZM423,174.5h-3v-1h3v1ZM417,174.5h-3v-1h3v1ZM411,174.5h-3v-1h3v1ZM405,174.5h-3v-1h3v1ZM399,174.5h-3v-1h3v1ZM393,174.5h-3v-1h3v1ZM387,174.5h-3v-1h3v1ZM381,174.5h-3v-1h3v1ZM375,174.5h-3v-1h3v1ZM369,174.5h-3v-1h3v1ZM363,174.5h-3v-1h3v1ZM357,174.5h-3v-1h3v1ZM351,174.5h-3v-1h3v1ZM345,174.5h-3v-1h3v1ZM339,174.5h-3v-1h3v1ZM333,174.5h-3v-1h3v1ZM327,174.5h-3v-1h3v1ZM321,174.5h-3v-1h3v1ZM315,174.5h-3v-1h3v1ZM309,174.5h-3v-1h3v1ZM303,174.5h-3v-1h3v1ZM297,174.5h-3v-1h3v1ZM291,174.5h-3v-1h3v1ZM285,174.5h-3v-1h3v1ZM279,174.5h-3v-1h3v1ZM273,174.5h-3v-1h3v1ZM267,174.5h-3v-1h3v1ZM261,174.5h-3v-1h3v1ZM255,174.5h-3v-1h3v1ZM249,174.5h-3v-1h3v1ZM243,174.5h-3v-1h3v1ZM237,174.5h-3v-1h3v1ZM231,174.5h-3v-1h3v1ZM225,174.5h-3v-1h3v1ZM219,174.5h-3v-1h3v1ZM213,174.5h-3v-1h3v1ZM207,174.5h-3v-1h3v1ZM201,174.5h-3v-1h3v1ZM195,174.5h-3v-1h3v1ZM189,174.5h-3v-1h3v1ZM183,174.5h-3v-1h3v1ZM177,174.5h-3v-1h3v1ZM171,174.5h-3v-1h3v1ZM165,174.5h-3v-1h3v1ZM159,174.5h-3v-1h3v1ZM153,174.5h-3v-1h3v1ZM147,174.5h-3v-1h3v1ZM141,174.5h-3v-1h3v1ZM135,174.5h-3v-1h3v1ZM129,174.5h-3v-1h3v1ZM123,174.5h-3v-1h3v1ZM117,174.5h-3v-1h3v1ZM111,174.5h-3v-1h3v1ZM105,174.5h-3v-1h3v1ZM99,174.5h-3v-1h3v1ZM93,174.5h-3v-1h3v1ZM87,174.5h-3v-1h3v1ZM81,174.5h-3v-1h3v1ZM75,174.5h-3v-1h3v1ZM69,174.5h-3v-1h3v1ZM63,174.5h-3v-1h3v1ZM57,174.5h-3v-1h3v1ZM51,174.5h-3v-1h3v1ZM45,174.5h-3v-1h3v1ZM39,174.5h-3v-1h3v1ZM33,174.5h-3v-1h3v1ZM27,174.5h-3v-1h3v1ZM21,174.5h-3v-1h3v1ZM15,174.5h-3v-1h3v1ZM9,174.5h-3v-1h3v1ZM3,174.5H0v-1h3v1Z"/><path class="cls-4" d="M705,247.5h-3v-1h3v1ZM699,247.5h-3v-1h3v1ZM693,247.5h-3v-1h3v1ZM687,247.5h-3v-1h3v1ZM681,247.5h-3v-1h3v1ZM675,247.5h-3v-1h3v1ZM669,247.5h-3v-1h3v1ZM663,247.5h-3v-1h3v1ZM657,247.5h-3v-1h3v1ZM651,247.5h-3v-1h3v1ZM645,247.5h-3v-1h3v1ZM639,247.5h-3v-1h3v1ZM633,247.5h-3v-1h3v1ZM627,247.5h-3v-1h3v1ZM621,247.5h-3v-1h3v1ZM615,247.5h-3v-1h3v1ZM609,247.5h-3v-1h3v1ZM603,247.5h-3v-1h3v1ZM597,247.5h-3v-1h3v1ZM591,247.5h-3v-1h3v1ZM585,247.5h-3v-1h3v1ZM579,247.5h-3v-1h3v1ZM573,247.5h-3v-1h3v1ZM567,247.5h-3v-1h3v1ZM561,247.5h-3v-1h3v1ZM555,247.5h-3v-1h3v1ZM549,247.5h-3v-1h3v1ZM543,247.5h-3v-1h3v1ZM537,247.5h-3v-1h3v1ZM531,247.5h-3v-1h3v1ZM525,247.5h-3v-1h3v1ZM519,247.5h-3v-1h3v1ZM513,247.5h-3v-1h3v1ZM507,247.5h-3v-1h3v1ZM501,247.5h-3v-1h3v1ZM495,247.5h-3v-1h3v1ZM489,247.5h-3v-1h3v1ZM483,247.5h-3v-1h3v1ZM477,247.5h-3v-1h3v1ZM471,247.5h-3v-1h3v1ZM465,247.5h-3v-1h3v1ZM459,247.5h-3v-1h3v1ZM453,247.5h-3v-1h3v1ZM447,247.5h-3v-1h3v1ZM441,247.5h-3v-1h3v1ZM435,247.5h-3v-1h3v1ZM429,247.5h-3v-1h3v1ZM423,247.5h-3v-1h3v1ZM417,247.5h-3v-1h3v1ZM411,247.5h-3v-1h3v1ZM405,247.5h-3v-1h3v1ZM399,247.5h-3v-1h3v1ZM393,247.5h-3v-1h3v1ZM387,247.5h-3v-1h3v1ZM381,247.5h-3v-1h3v1ZM375,247.5h-3v-1h3v1ZM369,247.5h-3v-1h3v1ZM363,247.5h-3v-1h3v1ZM357,247.5h-3v-1h3v1ZM351,247.5h-3v-1h3v1ZM345,247.5h-3v-1h3v1ZM339,247.5h-3v-1h3v1ZM333,247.5h-3v-1h3v1ZM327,247.5h-3v-1h3v1ZM321,247.5h-3v-1h3v1ZM315,247.5h-3v-1h3v1ZM309,247.5h-3v-1h3v1ZM303,247.5h-3v-1h3v1ZM297,247.5h-3v-1h3v1ZM291,247.5h-3v-1h3v1ZM285,247.5h-3v-1h3v1ZM279,247.5h-3v-1h3v1ZM273,247.5h-3v-1h3v1ZM267,247.5h-3v-1h3v1ZM261,247.5h-3v-1h3v1ZM255,247.5h-3v-1h3v1ZM249,247.5h-3v-1h3v1ZM243,247.5h-3v-1h3v1ZM237,247.5h-3v-1h3v1ZM231,247.5h-3v-1h3v1ZM225,247.5h-3v-1h3v1ZM219,247.5h-3v-1h3v1ZM213,247.5h-3v-1h3v1ZM207,247.5h-3v-1h3v1ZM201,247.5h-3v-1h3v1ZM195,247.5h-3v-1h3v1ZM189,247.5h-3v-1h3v1ZM183,247.5h-3v-1h3v1ZM177,247.5h-3v-1h3v1ZM171,247.5h-3v-1h3v1ZM165,247.5h-3v-1h3v1ZM159,247.5h-3v-1h3v1ZM153,247.5h-3v-1h3v1ZM147,247.5h-3v-1h3v1ZM141,247.5h-3v-1h3v1ZM135,247.5h-3v-1h3v1ZM129,247.5h-3v-1h3v1ZM123,247.5h-3v-1h3v1ZM117,247.5h-3v-1h3v1ZM111,247.5h-3v-1h3v1ZM105,247.5h-3v-1h3v1ZM99,247.5h-3v-1h3v1ZM93,247.5h-3v-1h3v1ZM87,247.5h-3v-1h3v1ZM81,247.5h-3v-1h3v1ZM75,247.5h-3v-1h3v1ZM69,247.5h-3v-1h3v1ZM63,247.5h-3v-1h3v1ZM57,247.5h-3v-1h3v1ZM51,247.5h-3v-1h3v1ZM45,247.5h-3v-1h3v1ZM39,247.5h-3v-1h3v1ZM33,247.5h-3v-1h3v1ZM27,247.5h-3v-1h3v1ZM21,247.5h-3v-1h3v1ZM15,247.5h-3v-1h3v1ZM9,247.5h-3v-1h3v1ZM3,247.5H0v-1h3v1Z"/><path class="cls-4" d="M101,320.5h-1v-3h1v3ZM101,314.5h-1v-3h1v3ZM101,308.5h-1v-3h1v3ZM101,302.5h-1v-3h1v3ZM101,296.5h-1v-3h1v3ZM101,290.5h-1v-3h1v3ZM101,284.5h-1v-3h1v3ZM101,278.5h-1v-3h1v3ZM101,272.5h-1v-3h1v3ZM101,266.5h-1v-3h1v3ZM101,260.5h-1v-3h1v3ZM101,254.5h-1v-3h1v3ZM101,248.5h-1v-3h1v3ZM101,242.5h-1v-3h1v3ZM101,236.5h-1v-3h1v3ZM101,230.5h-1v-3h1v3ZM101,224.5h-1v-3h1v3ZM101,218.5h-1v-3h1v3ZM101,212.5h-1v-3h1v3ZM101,206.5h-1v-3h1v3ZM101,200.5h-1v-3h1v3ZM101,194.5h-1v-3h1v3ZM101,188.5h-1v-3h1v3ZM101,182.5h-1v-3h1v3ZM101,176.5h-1v-3h1v3ZM101,170.5h-1v-3h1v3ZM101,164.5h-1v-3h1v3ZM101,158.5h-1v-3h1v3ZM101,152.5h-1v-3h1v3ZM101,146.5h-1v-3h1v3ZM101,140.5h-1v-3h1v3ZM101,134.5h-1v-3h1v3ZM101,128.5h-1v-3h1v3ZM101,122.5h-1v-3h1v3ZM101,116.5h-1v-3h1v3ZM101,110.5h-1v-3h1v3ZM101,104.5h-1v-3h1v3Z"/><path class="cls-4" d="M202,320.5h-1v-3h1v3ZM202,314.5h-1v-3h1v3ZM202,308.5h-1v-3h1v3ZM202,302.5h-1v-3h1v3ZM202,296.5h-1v-3h1v3ZM202,290.5h-1v-3h1v3ZM202,284.5h-1v-3h1v3ZM202,278.5h-1v-3h1v3ZM202,272.5h-1v-3h1v3ZM202,266.5h-1v-3h1v3ZM202,260.5h-1v-3h1v3ZM202,254.5h-1v-3h1v3ZM202,248.5h-1v-3h1v3ZM202,242.5h-1v-3h1v3ZM202,236.5h-1v-3h1v3ZM202,230.5h-1v-3h1v3ZM202,224.5h-1v-3h1v3ZM202,218.5h-1v-3h1v3ZM202,212.5h-1v-3h1v3ZM202,206.5h-1v-3h1v3ZM202,200.5h-1v-3h1v3ZM202,194.5h-1v-3h1v3ZM202,188.5h-1v-3h1v3ZM202,182.5h-1v-3h1v3ZM202,176.5h-1v-3h1v3ZM202,170.5h-1v-3h1v3ZM202,164.5h-1v-3h1v3ZM202,158.5h-1v-3h1v3ZM202,152.5h-1v-3h1v3ZM202,146.5h-1v-3h1v3ZM202,140.5h-1v-3h1v3ZM202,134.5h-1v-3h1v3ZM202,128.5h-1v-3h1v3ZM202,122.5h-1v-3h1v3ZM202,116.5h-1v-3h1v3ZM202,110.5h-1v-3h1v3ZM202,104.5h-1v-3h1v3Z"/><path class="cls-4" d="M504,320.5h-1v-3h1v3ZM504,314.5h-1v-3h1v3ZM504,308.5h-1v-3h1v3ZM504,302.5h-1v-3h1v3ZM504,296.5h-1v-3h1v3ZM504,290.5h-1v-3h1v3ZM504,284.5h-1v-3h1v3ZM504,278.5h-1v-3h1v3ZM504,272.5h-1v-3h1v3ZM504,266.5h-1v-3h1v3ZM504,260.5h-1v-3h1v3ZM504,254.5h-1v-3h1v3ZM504,248.5h-1v-3h1v3ZM504,242.5h-1v-3h1v3ZM504,236.5h-1v-3h1v3ZM504,230.5h-1v-3h1v3ZM504,224.5h-1v-3h1v3ZM504,218.5h-1v-3h1v3ZM504,212.5h-1v-3h1v3ZM504,206.5h-1v-3h1v3ZM504,200.5h-1v-3h1v3ZM504,194.5h-1v-3h1v3ZM504,188.5h-1v-3h1v3ZM504,182.5h-1v-3h1v3ZM504,176.5h-1v-3h1v3ZM504,170.5h-1v-3h1v3ZM504,164.5h-1v-3h1v3ZM504,158.5h-1v-3h1v3ZM504,152.5h-1v-3h1v3ZM504,146.5h-1v-3h1v3ZM504,140.5h-1v-3h1v3ZM504,134.5h-1v-3h1v3ZM504,128.5h-1v-3h1v3ZM504,122.5h-1v-3h1v3ZM504,116.5h-1v-3h1v3ZM504,110.5h-1v-3h1v3ZM504,104.5h-1v-3h1v3Z"/><path class="cls-4" d="M403,320.5h-1v-3h1v3ZM403,314.5h-1v-3h1v3ZM403,308.5h-1v-3h1v3ZM403,302.5h-1v-3h1v3ZM403,296.5h-1v-3h1v3ZM403,290.5h-1v-3h1v3ZM403,284.5h-1v-3h1v3ZM403,278.5h-1v-3h1v3ZM403,272.5h-1v-3h1v3ZM403,266.5h-1v-3h1v3ZM403,260.5h-1v-3h1v3ZM403,254.5h-1v-3h1v3ZM403,248.5h-1v-3h1v3ZM403,242.5h-1v-3h1v3ZM403,236.5h-1v-3h1v3ZM403,230.5h-1v-3h1v3ZM403,224.5h-1v-3h1v3ZM403,218.5h-1v-3h1v3ZM403,212.5h-1v-3h1v3ZM403,206.5h-1v-3h1v3ZM403,200.5h-1v-3h1v3ZM403,194.5h-1v-3h1v3ZM403,188.5h-1v-3h1v3ZM403,182.5h-1v-3h1v3ZM403,176.5h-1v-3h1v3ZM403,170.5h-1v-3h1v3ZM403,164.5h-1v-3h1v3ZM403,158.5h-1v-3h1v3ZM403,152.5h-1v-3h1v3ZM403,146.5h-1v-3h1v3ZM403,140.5h-1v-3h1v3ZM403,134.5h-1v-3h1v3ZM403,128.5h-1v-3h1v3ZM403,122.5h-1v-3h1v3ZM403,116.5h-1v-3h1v3ZM403,110.5h-1v-3h1v3ZM403,104.5h-1v-3h1v3Z"/><path class="cls-4" d="M303,320.5h-1v-3h1v3ZM303,314.5h-1v-3h1v3ZM303,308.5h-1v-3h1v3ZM303,302.5h-1v-3h1v3ZM303,296.5h-1v-3h1v3ZM303,290.5h-1v-3h1v3ZM303,284.5h-1v-3h1v3ZM303,278.5h-1v-3h1v3ZM303,272.5h-1v-3h1v3ZM303,266.5h-1v-3h1v3ZM303,260.5h-1v-3h1v3ZM303,254.5h-1v-3h1v3ZM303,248.5h-1v-3h1v3ZM303,242.5h-1v-3h1v3ZM303,236.5h-1v-3h1v3ZM303,230.5h-1v-3h1v3ZM303,224.5h-1v-3h1v3ZM303,218.5h-1v-3h1v3ZM303,212.5h-1v-3h1v3ZM303,206.5h-1v-3h1v3ZM303,200.5h-1v-3h1v3ZM303,194.5h-1v-3h1v3ZM303,188.5h-1v-3h1v3ZM303,182.5h-1v-3h1v3ZM303,176.5h-1v-3h1v3ZM303,170.5h-1v-3h1v3ZM303,164.5h-1v-3h1v3ZM303,158.5h-1v-3h1v3ZM303,152.5h-1v-3h1v3ZM303,146.5h-1v-3h1v3ZM303,140.5h-1v-3h1v3ZM303,134.5h-1v-3h1v3ZM303,128.5h-1v-3h1v3ZM303,122.5h-1v-3h1v3ZM303,116.5h-1v-3h1v3ZM303,110.5h-1v-3h1v3ZM303,104.5h-1v-3h1v3Z"/><path class="cls-4" d="M605,320.5h-1v-3h1v3ZM605,314.5h-1v-3h1v3ZM605,308.5h-1v-3h1v3ZM605,302.5h-1v-3h1v3ZM605,296.5h-1v-3h1v3ZM605,290.5h-1v-3h1v3ZM605,284.5h-1v-3h1v3ZM605,278.5h-1v-3h1v3ZM605,272.5h-1v-3h1v3ZM605,266.5h-1v-3h1v3ZM605,260.5h-1v-3h1v3ZM605,254.5h-1v-3h1v3ZM605,248.5h-1v-3h1v3ZM605,242.5h-1v-3h1v3ZM605,236.5h-1v-3h1v3ZM605,230.5h-1v-3h1v3ZM605,224.5h-1v-3h1v3ZM605,218.5h-1v-3h1v3ZM605,212.5h-1v-3h1v3ZM605,206.5h-1v-3h1v3ZM605,200.5h-1v-3h1v3ZM605,194.5h-1v-3h1v3ZM605,188.5h-1v-3h1v3ZM605,182.5h-1v-3h1v3ZM605,176.5h-1v-3h1v3ZM605,170.5h-1v-3h1v3ZM605,164.5h-1v-3h1v3ZM605,158.5h-1v-3h1v3ZM605,152.5h-1v-3h1v3ZM605,146.5h-1v-3h1v3ZM605,140.5h-1v-3h1v3ZM605,134.5h-1v-3h1v3ZM605,128.5h-1v-3h1v3ZM605,122.5h-1v-3h1v3ZM605,116.5h-1v-3h1v3ZM605,110.5h-1v-3h1v3ZM605,104.5h-1v-3h1v3Z"/><rect class="cls-4" x="5" y="65.5" width="90" height="25" rx="12" ry="12"/><path class="cls-2" d="M56.022,82.166c0,1.152-.271,1.697-1.008,2.017-.769.336-1.889.368-3.537.368-.112-.561-.497-1.473-.801-2.001,1.12.064,2.465.048,2.817.048.384,0,.512-.128.512-.464v-2.321h-6.851c-.416,1.793-1.217,3.538-2.705,4.786-.288-.4-1.057-1.104-1.473-1.376,2.417-2.065,2.642-5.122,2.642-7.555v-5.266h10.403v11.765ZM54.006,77.972v-1.953h-6.418c-.017.608-.049,1.281-.112,1.953h6.53ZM47.588,72.258v1.953h6.418v-1.953h-6.418Z"/><path class="cls-4" d="M706,321.5H0V100.5h706v221ZM1,320.5h704V101.5H1v219Z"/><rect class="cls-4" x="105" y="65.5" width="90" height="25" rx="12" ry="12"/><path class="cls-2" d="M151.541,74.851c0,2.433,1.505,6.115,6.482,7.955-.432.417-1.04,1.233-1.328,1.793-3.81-1.569-5.746-4.77-6.194-6.354-.416,1.633-2.177,4.738-5.938,6.354-.256-.432-.929-1.249-1.345-1.633,4.818-1.841,6.274-5.714,6.274-8.099v-4.994h2.049v4.978ZM147.38,73.234c-.272,2.001-.736,3.906-2.113,5.042l-1.729-1.072c1.168-.992,1.696-2.577,1.921-4.386l1.921.416ZM157.336,73.586c-.816,1.553-1.777,3.266-2.577,4.354l-1.665-.704c.769-1.201,1.648-3.025,2.145-4.434l2.098.784Z"/><rect class="cls-4" x="205" y="65.5" width="90" height="25" rx="12" ry="12"/><path class="cls-2" d="M249.3,73.97c-.736,4.338-2.497,7.587-4.754,9.252-.336-.448-1.104-1.217-1.584-1.505,1.856-1.249,3.265-3.441,3.985-6.242h-3.474v-1.921h4.178l.353-.064,1.296.48ZM257.8,73.394c-1.28,1.361-2.881,2.865-4.178,3.874,1.137,1.921,2.641,3.474,4.609,4.402-.479.4-1.136,1.201-1.473,1.777-2.32-1.312-3.938-3.425-5.09-6.035v4.722c0,1.152-.256,1.729-.912,2.049-.688.352-1.729.432-3.186.432-.08-.608-.448-1.569-.752-2.129,1.057.048,2.064.032,2.4.032.32,0,.433-.112.433-.384v-12.469h2.017v2.817c.305,1.12.673,2.208,1.137,3.217,1.137-1.057,2.401-2.417,3.217-3.554l1.777,1.249Z"/><rect class="cls-4" x="305" y="65.5" width="90" height="25" rx="12" ry="12"/><path class="cls-2" d="M352.39,75.251c1.328,2.449,3.569,4.834,5.922,6.114-.464.384-1.12,1.137-1.424,1.665-2.018-1.296-3.858-3.345-5.267-5.65v7.219h-2.033v-7.139c-1.393,2.321-3.232,4.354-5.281,5.634-.32-.497-.977-1.233-1.425-1.633,2.369-1.281,4.562-3.698,5.874-6.21h-5.138v-1.889h5.97v-3.714h2.033v3.714h6.003v1.889h-5.234Z"/><rect class="cls-4" x="410" y="65.5" width="90" height="25" rx="12" ry="12"/><path class="cls-2" d="M460.559,79.973c-.608.88-1.232,1.857-1.793,2.529h3.618v1.632h-13.542v-1.632h3.121c-.239-.721-.768-1.793-1.328-2.577l1.457-.625h-2.449v-1.632h4.866v-1.585h-2.945v-.784c-.753.544-1.569,1.057-2.386,1.489-.239-.448-.768-1.137-1.184-1.537,2.721-1.329,5.281-3.729,6.466-5.65h1.969c1.729,2.417,4.306,4.434,6.835,5.458-.48.48-.912,1.121-1.265,1.713-.8-.416-1.633-.944-2.433-1.521v.832h-3.058v1.585h4.931v1.632h-4.931v3.202h1.745l-1.04-.432c.527-.752,1.168-1.921,1.521-2.77l1.824.672ZM452.188,79.3c.608.816,1.232,1.905,1.473,2.641l-1.312.561h2.161v-3.202h-2.321ZM458.478,74.418c-1.185-.96-2.24-2.001-2.944-2.961-.688.96-1.682,2-2.834,2.961h5.778Z"/><rect class="cls-3" x="510" y="65.5" width="90" height="25" rx="12" ry="12"/><path class="cls-2" d="M562.88,82.054v1.873h-14.502v-1.873h6.179v-5.57h-5.139v-1.889h5.139v-4.914h2.049v4.914h5.218v1.889h-5.218v5.57h6.274Z"/><rect class="cls-1" x="610" y="65.5" width="90" height="25" rx="12" ry="12"/><path class="cls-2" d="M661.199,70.609v13.766h-2.049v-1.008h-7.107v1.041h-1.969v-13.798h11.125ZM652.043,72.53v3.441h7.107v-3.441h-7.107ZM659.15,81.445v-3.585h-7.107v3.585h7.107Z"/><path class="cls-6" d="M517.939,283.79c.784.592,2.369,1.953,2.802,2.289l-1.104,1.632c-.385-.496-1.057-1.216-1.697-1.873v5.522h-1.841v-5.73c-.72,1.457-1.568,2.833-2.448,3.761-.192-.56-.656-1.376-.961-1.856,1.152-1.121,2.321-2.945,3.041-4.61h-2.673v-1.745h3.041v-1.985c-.912.176-1.824.32-2.688.432-.08-.417-.32-1.088-.545-1.489,2.306-.336,4.883-.944,6.435-1.648l1.345,1.472c-.8.32-1.729.592-2.705.833v2.385h2.753v1.745h-2.753v.864ZM523.302,287.327h-1.856v-8.948h1.856v8.948ZM527.111,276.747v12.325c0,1.104-.224,1.632-.88,1.937-.656.32-1.729.384-3.186.368-.08-.544-.368-1.424-.656-1.969,1.04.048,2.064.048,2.4.048.305-.016.433-.112.433-.4v-12.309h1.889Z"/><path class="cls-6" d="M544.295,289.136c0,1.024-.224,1.537-.864,1.825-.656.32-1.633.352-3.073.336-.063-.512-.368-1.329-.608-1.825.896.048,1.953.032,2.241.032.305,0,.416-.096.416-.384v-2.401h-3.377v4.466h-1.921v-4.466h-3.266c-.288,1.745-.864,3.505-2.017,4.754-.304-.352-1.072-1.008-1.505-1.232,1.745-1.921,1.89-4.77,1.89-7.011v-5.714h12.084v11.621ZM537.108,284.926v-1.969h-3.009v.288c0,.512-.017,1.088-.049,1.681h3.058ZM534.1,279.324v1.857h3.009v-1.857h-3.009ZM542.406,279.324h-3.377v1.857h3.377v-1.857ZM542.406,284.926v-1.969h-3.377v1.969h3.377Z"/><path class="cls-6" d="M550.659,282.717v8.675h-1.857v-14.342h6.163v5.667h-4.306ZM550.659,278.411v.816h2.513v-.816h-2.513ZM553.172,281.34v-.88h-2.513v.88h2.513ZM557.861,287.791v3.297h-1.664v-3.297h-1.537c-.16,1.104-.688,2.657-2.049,3.585-.271-.336-.848-.832-1.216-1.088,1.024-.64,1.473-1.681,1.633-2.497h-1.617v-1.553h1.681v-1.2h-1.456v-1.505h7.73v1.505h-1.505v1.2h1.761v1.553h-1.761ZM556.197,286.238v-1.2h-1.488v1.2h1.488ZM562.296,289.167c0,.977-.177,1.505-.753,1.809-.576.32-1.408.368-2.625.368-.063-.528-.32-1.393-.576-1.889.721.032,1.505.032,1.745.016.256,0,.336-.096.336-.32v-6.403h-4.401v-5.698h6.274v12.117ZM557.83,278.411v.816h2.593v-.816h-2.593ZM560.423,281.373v-.913h-2.593v.913h2.593Z"/><path class="cls-6" d="M572.004,279.756c-.176,2.913-.608,5.234-1.328,7.091.704.576,1.312,1.152,1.712,1.665l-1.136,1.521c-.336-.448-.833-.977-1.409-1.505-.752,1.232-1.712,2.193-2.896,2.929-.272-.48-.784-1.168-1.152-1.521,1.056-.56,1.937-1.44,2.608-2.609-.32-.256-.656-.512-.977-.736l-.16.56-1.536-.833c.384-1.312.816-3.089,1.217-4.946h-1.169v-1.745h1.537c.224-1.104.432-2.193.592-3.186l1.793.176c-.176.944-.385,1.969-.608,3.009h1.457l.319-.048,1.137.176ZM568.707,281.373c-.272,1.201-.561,2.385-.833,3.473.416.256.849.544,1.281.849.464-1.232.768-2.689.96-4.322h-1.408ZM573.221,281.645c.576-1.568,1.152-3.633,1.456-5.202l2.113.368c-.513,1.585-1.12,3.33-1.713,4.722.929-.048,1.905-.112,2.897-.16-.336-.592-.688-1.168-1.041-1.681l1.505-.769c.992,1.345,2.049,3.122,2.434,4.338l-1.649.88c-.096-.336-.224-.704-.399-1.104-2.386.192-4.898.368-6.724.496l-.191-1.825,1.312-.064ZM572.933,284.718h7.043v6.611h-1.889v-.56h-3.361v.624h-1.793v-6.675ZM574.726,286.431v2.625h3.361v-2.625h-3.361Z"/><path class="cls-6" d="M596.311,277.403v13.766h-2.049v-1.008h-7.106v1.041h-1.969v-13.798h11.124ZM587.155,279.324v3.441h7.106v-3.441h-7.106ZM594.262,288.239v-3.585h-7.106v3.585h7.106Z"/><rect class="cls-1" x="14.999" y="293.5" width="480" height="5"/><path class="cls-1" d="M495.945,298.492c2.23-1.609,2.23-4.243,0-5.852l-11.891-8.582c-2.23-1.609-4.054-.676-4.054,2.074v18.868c0,2.75,1.824,3.683,4.054,2.074l11.891-8.582Z"/><path class="cls-1" d="M9.054,292.64c-2.23,1.609-2.23,4.243,0,5.852l11.891,8.582c2.23,1.609,4.054.676,4.054-2.074v-18.868c0-2.75-1.824-3.683-4.054-2.074l-11.891,8.582Z"/><path class="cls-8" d="M187.834,275.326c-.416.032-1.072.144-1.681.24-.769.128-2.064.336-3.474.56.257,1.312.48,2.385.576,2.881.112.48.272,1.056.417,1.568l-2.306.416c-.08-.608-.128-1.152-.224-1.616-.08-.464-.288-1.569-.544-2.914-1.633.272-3.138.528-3.826.656-.688.128-1.232.24-1.601.336l-.448-2.145c.433-.016,1.152-.112,1.665-.176.736-.112,2.225-.352,3.842-.608l-.48-2.561c-1.409.224-2.642.432-3.138.512-.56.112-.992.208-1.473.336l-.432-2.209c.512-.016.992-.048,1.488-.112.561-.064,1.793-.24,3.169-.464-.128-.672-.239-1.2-.288-1.457-.096-.448-.208-.832-.319-1.216l2.257-.368c.048.32.096.864.176,1.249.032.224.128.752.256,1.473,1.36-.224,2.577-.417,3.153-.528.513-.096,1.121-.224,1.505-.336l.384,2.097c-.352.032-.992.128-1.473.192l-3.201.512.496,2.545c1.44-.24,2.754-.448,3.474-.592.624-.128,1.217-.256,1.633-.384l.416,2.113Z"/><path class="cls-8" d="M199.768,276.431c.816-.736,1.921-2.097,2.354-2.881-.385.08-1.969.4-3.697.769.607,2.193,1.28,4.658,1.536,5.49.096.288.304.992.433,1.312l-2.178.528c-.048-.416-.159-.944-.288-1.393-.239-.864-.896-3.345-1.473-5.538-1.344.288-2.513.528-2.993.64l-.496-1.92c.513-.048.944-.096,1.473-.192.225-.032.801-.128,1.537-.272-.16-.624-.305-1.136-.416-1.489-.112-.416-.272-.8-.448-1.136l2.145-.512c.064.384.16.8.256,1.216l.433,1.553c2.032-.384,4.273-.816,4.897-.96.288-.048.593-.144.816-.256l1.28.912c-.672,1.409-2.288,3.81-3.409,5.01l-1.761-.88Z"/><path class="cls-8" d="M216.439,276.398c2.722-1.617,4.818-4.065,5.826-6.227l1.249,2.257c-1.217,2.161-3.346,4.37-5.923,5.923-1.616.976-3.682,1.873-5.938,2.257l-1.344-2.113c2.496-.353,4.577-1.168,6.13-2.097ZM216.439,271.212l-1.633,1.681c-.832-.896-2.833-2.641-4.001-3.458l1.504-1.601c1.121.752,3.202,2.417,4.13,3.377Z"/><path class="cls-8" d="M235.048,275.326c1.057-.944,2.112-2.401,2.561-3.233-.496.096-2.657.528-4.93.977v4.242c0,.992.288,1.344,2.033,1.344,1.696,0,3.473-.224,5.058-.528l-.064,2.161c-1.328.192-3.249.352-4.962.352-3.649,0-4.178-.88-4.178-2.769v-4.37c-1.424.288-2.688.544-3.361.704l-.384-2.097c.752-.096,2.161-.336,3.745-.625v-2.289c0-.528-.048-1.345-.128-1.825h2.385c-.079.48-.144,1.28-.144,1.825v1.889c2.337-.432,4.578-.896,5.298-1.057.448-.112.833-.224,1.137-.384l1.536,1.2c-.144.224-.384.576-.527.864-.705,1.329-2.161,3.538-3.313,4.658l-1.761-1.041Z"/><path class="cls-8" d="M244.292,279.408c1.409-.992,2.273-2.465,2.722-3.826.448-1.376.464-4.401.464-6.338,0-.64-.048-1.072-.144-1.457h2.353c-.016.064-.112.784-.112,1.44,0,1.889-.048,5.266-.479,6.883-.48,1.809-1.473,3.377-2.85,4.594l-1.953-1.296ZM251.703,279.648c.064-.304.128-.752.128-1.185v-9.332c0-.721-.111-1.329-.128-1.377h2.385c-.016.048-.111.672-.111,1.393v8.372c1.296-.56,2.881-1.825,3.953-3.377l1.232,1.761c-1.328,1.729-3.633,3.458-5.426,4.37-.336.176-.496.32-.704.48l-1.329-1.104Z"/><path class="cls-8" d="M265.238,275.358v3.922c0,.832-.129,1.296-.593,1.584-.448.288-1.057.352-1.969.352-.032-.48-.24-1.216-.464-1.696.448.016.88.016,1.024.016.176,0,.224-.064.224-.24v-3.33c-.464.16-.912.304-1.328.448l-.448-1.825c.512-.128,1.104-.304,1.776-.496v-2.865h-1.553v-1.761h1.553v-3.009h1.777v3.009h1.328v1.761h-1.328v2.305l1.152-.384.304,1.681-1.456.528ZM273.354,277.583c.896.848,2.225,1.601,3.521,2.017-.384.32-.928.993-1.2,1.441-1.12-.48-2.257-1.281-3.137-2.225v2.609h-1.81v-2.561c-1.088,1.024-2.448,1.825-3.873,2.305-.272-.432-.784-1.121-1.169-1.473,1.553-.4,3.09-1.185,4.13-2.113h-2.945v-1.537h3.857v-.977h-3.649v-3.761h4.227v3.697h.624v-3.697h4.369v3.761h-3.761v.977h4.033v1.537h-3.217ZM269.8,272.589h-1.312v1.185h1.312v-1.185ZM274.777,270.748h-6.258v-3.713h6.258v3.713ZM273.049,268.363h-2.913v1.057h2.913v-1.057ZM273.401,273.773h1.376v-1.185h-1.376v1.185Z"/><path class="cls-8" d="M284.742,267.083c-.416,1.12-.944,2.257-1.536,3.329v10.964h-1.921v-8.003c-.336.4-.672.8-.992,1.152-.176-.464-.721-1.553-1.057-2.033,1.457-1.441,2.85-3.714,3.649-5.987l1.856.577ZM289.816,270.86v1.681h4.146v1.729h-4.146v1.809h4.354v1.761h-4.354v3.553h-1.952v-10.532h-.608c-.641,1.185-1.377,2.273-2.097,3.105-.305-.352-1.057-1.024-1.457-1.328,1.408-1.441,2.673-3.746,3.394-6.035l1.841.464c-.225.672-.48,1.329-.784,1.985h6.21v1.809h-4.546Z"/><path class="cls-8" d="M312.585,279.184l-4.113-4.114-4.113,4.114-1.153-1.152,4.114-4.114-4.114-4.114,1.153-1.152,4.113,4.114,4.113-4.114,1.152,1.152-4.113,4.114,4.113,4.114-1.152,1.152Z"/><path class="cls-1" d="M187.834,275.326c-.416.032-1.072.144-1.681.24-.769.128-2.064.336-3.474.56.257,1.312.48,2.385.576,2.881.112.48.272,1.056.417,1.568l-2.306.416c-.08-.608-.128-1.152-.224-1.616-.08-.464-.288-1.569-.544-2.914-1.633.272-3.138.528-3.826.656-.688.128-1.232.24-1.601.336l-.448-2.145c.433-.016,1.152-.112,1.665-.176.736-.112,2.225-.352,3.842-.608l-.48-2.561c-1.409.224-2.642.432-3.138.512-.56.112-.992.208-1.473.336l-.432-2.209c.512-.016.992-.048,1.488-.112.561-.064,1.793-.24,3.169-.464-.128-.672-.239-1.2-.288-1.457-.096-.448-.208-.832-.319-1.216l2.257-.368c.048.32.096.864.176,1.249.032.224.128.752.256,1.473,1.36-.224,2.577-.417,3.153-.528.513-.096,1.121-.224,1.505-.336l.384,2.097c-.352.032-.992.128-1.473.192l-3.201.512.496,2.545c1.44-.24,2.754-.448,3.474-.592.624-.128,1.217-.256,1.633-.384l.416,2.113Z"/><path class="cls-1" d="M199.768,276.431c.816-.736,1.921-2.097,2.354-2.881-.385.08-1.969.4-3.697.769.607,2.193,1.28,4.658,1.536,5.49.096.288.304.992.433,1.312l-2.178.528c-.048-.416-.159-.944-.288-1.393-.239-.864-.896-3.345-1.473-5.538-1.344.288-2.513.528-2.993.64l-.496-1.92c.513-.048.944-.096,1.473-.192.225-.032.801-.128,1.537-.272-.16-.624-.305-1.136-.416-1.489-.112-.416-.272-.8-.448-1.136l2.145-.512c.064.384.16.8.256,1.216l.433,1.553c2.032-.384,4.273-.816,4.897-.96.288-.048.593-.144.816-.256l1.28.912c-.672,1.409-2.288,3.81-3.409,5.01l-1.761-.88Z"/><path class="cls-1" d="M216.439,276.398c2.722-1.617,4.818-4.065,5.826-6.227l1.249,2.257c-1.217,2.161-3.346,4.37-5.923,5.923-1.616.976-3.682,1.873-5.938,2.257l-1.344-2.113c2.496-.353,4.577-1.168,6.13-2.097ZM216.439,271.212l-1.633,1.681c-.832-.896-2.833-2.641-4.001-3.458l1.504-1.601c1.121.752,3.202,2.417,4.13,3.377Z"/><path class="cls-1" d="M235.048,275.326c1.057-.944,2.112-2.401,2.561-3.233-.496.096-2.657.528-4.93.977v4.242c0,.992.288,1.344,2.033,1.344,1.696,0,3.473-.224,5.058-.528l-.064,2.161c-1.328.192-3.249.352-4.962.352-3.649,0-4.178-.88-4.178-2.769v-4.37c-1.424.288-2.688.544-3.361.704l-.384-2.097c.752-.096,2.161-.336,3.745-.625v-2.289c0-.528-.048-1.345-.128-1.825h2.385c-.079.48-.144,1.28-.144,1.825v1.889c2.337-.432,4.578-.896,5.298-1.057.448-.112.833-.224,1.137-.384l1.536,1.2c-.144.224-.384.576-.527.864-.705,1.329-2.161,3.538-3.313,4.658l-1.761-1.041Z"/><path class="cls-1" d="M244.292,279.408c1.409-.992,2.273-2.465,2.722-3.826.448-1.376.464-4.401.464-6.338,0-.64-.048-1.072-.144-1.457h2.353c-.016.064-.112.784-.112,1.44,0,1.889-.048,5.266-.479,6.883-.48,1.809-1.473,3.377-2.85,4.594l-1.953-1.296ZM251.703,279.648c.064-.304.128-.752.128-1.185v-9.332c0-.721-.111-1.329-.128-1.377h2.385c-.016.048-.111.672-.111,1.393v8.372c1.296-.56,2.881-1.825,3.953-3.377l1.232,1.761c-1.328,1.729-3.633,3.458-5.426,4.37-.336.176-.496.32-.704.48l-1.329-1.104Z"/><path class="cls-1" d="M265.238,275.358v3.922c0,.832-.129,1.296-.593,1.584-.448.288-1.057.352-1.969.352-.032-.48-.24-1.216-.464-1.696.448.016.88.016,1.024.016.176,0,.224-.064.224-.24v-3.33c-.464.16-.912.304-1.328.448l-.448-1.825c.512-.128,1.104-.304,1.776-.496v-2.865h-1.553v-1.761h1.553v-3.009h1.777v3.009h1.328v1.761h-1.328v2.305l1.152-.384.304,1.681-1.456.528ZM273.354,277.583c.896.848,2.225,1.601,3.521,2.017-.384.32-.928.993-1.2,1.441-1.12-.48-2.257-1.281-3.137-2.225v2.609h-1.81v-2.561c-1.088,1.024-2.448,1.825-3.873,2.305-.272-.432-.784-1.121-1.169-1.473,1.553-.4,3.09-1.185,4.13-2.113h-2.945v-1.537h3.857v-.977h-3.649v-3.761h4.227v3.697h.624v-3.697h4.369v3.761h-3.761v.977h4.033v1.537h-3.217ZM269.8,272.589h-1.312v1.185h1.312v-1.185ZM274.777,270.748h-6.258v-3.713h6.258v3.713ZM273.049,268.363h-2.913v1.057h2.913v-1.057ZM273.401,273.773h1.376v-1.185h-1.376v1.185Z"/><path class="cls-1" d="M284.742,267.083c-.416,1.12-.944,2.257-1.536,3.329v10.964h-1.921v-8.003c-.336.4-.672.8-.992,1.152-.176-.464-.721-1.553-1.057-2.033,1.457-1.441,2.85-3.714,3.649-5.987l1.856.577ZM289.816,270.86v1.681h4.146v1.729h-4.146v1.809h4.354v1.761h-4.354v3.553h-1.952v-10.532h-.608c-.641,1.185-1.377,2.273-2.097,3.105-.305-.352-1.057-1.024-1.457-1.328,1.408-1.441,2.673-3.746,3.394-6.035l1.841.464c-.225.672-.48,1.329-.784,1.985h6.21v1.809h-4.546Z"/><path class="cls-7" d="M312.585,279.184l-4.113-4.114-4.113,4.114-1.153-1.152,4.114-4.114-4.114-4.114,1.153-1.152,4.113,4.114,4.113-4.114,1.152,1.152-4.113,4.114,4.113,4.114-1.152,1.152Z"/><rect class="cls-3" y="220.5" width="695" height="5"/><path class="cls-3" d="M695.946,225.426c2.23-1.609,2.23-4.243,0-5.852l-11.891-8.582c-2.23-1.609-4.054-.676-4.054,2.074v18.868c0,2.75,1.824,3.683,4.054,2.074l11.891-8.582Z"/><path class="cls-3" d="M9.054,144.574c-2.23,1.609-2.23,4.243,0,5.852l11.891,8.582c2.23,1.609,4.054.676,4.054-2.074v-18.868c0-2.75-1.824-3.683-4.054-2.074l-11.891,8.582Z"/><rect class="cls-3" x="10" y="145.5" width="695" height="5"/><path class="cls-8" d="M289.771,125.326c-.416.032-1.072.144-1.681.24-.769.128-2.064.336-3.474.56.257,1.312.48,2.385.576,2.881.112.48.272,1.056.417,1.568l-2.306.416c-.08-.608-.128-1.152-.224-1.616-.08-.464-.288-1.569-.544-2.914-1.633.272-3.138.528-3.826.656-.688.128-1.232.24-1.601.336l-.448-2.145c.433-.016,1.152-.112,1.665-.176.736-.112,2.225-.352,3.842-.608l-.48-2.561c-1.409.224-2.642.432-3.138.512-.56.112-.992.208-1.473.336l-.432-2.209c.512-.016.992-.048,1.488-.112.561-.064,1.793-.24,3.169-.464-.128-.672-.239-1.2-.288-1.457-.096-.448-.208-.832-.319-1.216l2.257-.368c.048.32.096.864.176,1.249.032.224.128.752.256,1.473,1.36-.224,2.577-.417,3.153-.528.513-.096,1.121-.224,1.505-.336l.384,2.097c-.352.032-.992.128-1.473.192l-3.201.512.496,2.545c1.44-.24,2.754-.448,3.474-.592.624-.128,1.217-.256,1.633-.384l.416,2.113Z"/><path class="cls-8" d="M301.705,126.431c.816-.736,1.921-2.097,2.354-2.881-.385.08-1.969.4-3.697.769.607,2.193,1.28,4.658,1.536,5.49.096.288.304.992.433,1.312l-2.178.528c-.048-.416-.159-.944-.288-1.393-.239-.864-.896-3.345-1.473-5.538-1.344.288-2.513.528-2.993.64l-.496-1.92c.513-.048.944-.096,1.473-.192.225-.032.801-.128,1.537-.272-.16-.624-.305-1.136-.416-1.489-.112-.416-.272-.8-.448-1.136l2.145-.512c.064.384.16.8.256,1.216l.433,1.553c2.032-.384,4.273-.816,4.897-.96.288-.048.593-.144.816-.256l1.28.912c-.672,1.409-2.288,3.81-3.409,5.01l-1.761-.88Z"/><path class="cls-8" d="M318.377,126.398c2.722-1.617,4.818-4.065,5.826-6.227l1.249,2.257c-1.217,2.161-3.346,4.37-5.923,5.923-1.616.976-3.682,1.873-5.938,2.257l-1.344-2.113c2.496-.353,4.577-1.168,6.13-2.097ZM318.377,121.212l-1.633,1.681c-.832-.896-2.833-2.641-4.001-3.458l1.504-1.601c1.121.752,3.202,2.417,4.13,3.377Z"/><path class="cls-8" d="M336.985,125.326c1.057-.944,2.112-2.401,2.561-3.233-.496.096-2.657.528-4.93.977v4.242c0,.992.288,1.344,2.033,1.344,1.696,0,3.473-.224,5.058-.528l-.064,2.161c-1.328.192-3.249.352-4.962.352-3.649,0-4.178-.88-4.178-2.769v-4.37c-1.424.288-2.688.544-3.361.704l-.384-2.097c.752-.096,2.161-.336,3.745-.625v-2.289c0-.528-.048-1.345-.128-1.825h2.385c-.079.48-.144,1.28-.144,1.825v1.889c2.337-.432,4.578-.896,5.298-1.057.448-.112.833-.224,1.137-.384l1.536,1.2c-.144.224-.384.576-.527.864-.705,1.329-2.161,3.538-3.313,4.658l-1.761-1.041Z"/><path class="cls-8" d="M346.229,129.408c1.409-.992,2.273-2.465,2.722-3.826.448-1.376.464-4.401.464-6.338,0-.64-.048-1.072-.144-1.457h2.353c-.016.064-.112.784-.112,1.44,0,1.889-.048,5.266-.479,6.883-.48,1.809-1.473,3.377-2.85,4.594l-1.953-1.296ZM353.641,129.648c.064-.304.128-.752.128-1.185v-9.332c0-.721-.111-1.329-.128-1.377h2.385c-.016.048-.111.672-.111,1.393v8.372c1.296-.56,2.881-1.825,3.953-3.377l1.232,1.761c-1.328,1.729-3.633,3.458-5.426,4.37-.336.176-.496.32-.704.48l-1.329-1.104Z"/><path class="cls-8" d="M367.176,125.358v3.922c0,.832-.129,1.296-.593,1.584-.448.288-1.057.352-1.969.352-.032-.48-.24-1.216-.464-1.696.448.016.88.016,1.024.016.176,0,.224-.064.224-.24v-3.33c-.464.16-.912.304-1.328.448l-.448-1.825c.512-.128,1.104-.304,1.776-.496v-2.865h-1.553v-1.761h1.553v-3.009h1.777v3.009h1.328v1.761h-1.328v2.305l1.152-.384.304,1.681-1.456.528ZM375.291,127.583c.896.848,2.225,1.601,3.521,2.017-.384.32-.928.993-1.2,1.441-1.12-.48-2.257-1.281-3.137-2.225v2.609h-1.81v-2.561c-1.088,1.024-2.448,1.825-3.873,2.305-.272-.432-.784-1.121-1.169-1.473,1.553-.4,3.09-1.185,4.13-2.113h-2.945v-1.537h3.857v-.977h-3.649v-3.761h4.227v3.697h.624v-3.697h4.369v3.761h-3.761v.977h4.033v1.537h-3.217ZM371.737,122.589h-1.312v1.185h1.312v-1.185ZM376.715,120.748h-6.258v-3.713h6.258v3.713ZM374.986,118.363h-2.913v1.057h2.913v-1.057ZM375.339,123.773h1.376v-1.185h-1.376v1.185Z"/><path class="cls-8" d="M386.68,117.083c-.416,1.12-.944,2.257-1.536,3.329v10.964h-1.921v-8.003c-.336.4-.672.8-.992,1.152-.176-.464-.721-1.553-1.057-2.033,1.457-1.441,2.85-3.714,3.649-5.987l1.856.577ZM391.754,120.86v1.681h4.146v1.729h-4.146v1.809h4.354v1.761h-4.354v3.553h-1.952v-10.532h-.608c-.641,1.185-1.377,2.273-2.097,3.105-.305-.352-1.057-1.024-1.457-1.328,1.408-1.441,2.673-3.746,3.394-6.035l1.841.464c-.225.672-.48,1.329-.784,1.985h6.21v1.809h-4.546Z"/><path class="cls-8" d="M409.593,116.715c3.985,0,7.203,3.217,7.203,7.203s-3.218,7.203-7.203,7.203-7.203-3.217-7.203-7.203,3.218-7.203,7.203-7.203ZM409.593,117.419c-3.585,0-6.499,2.913-6.499,6.499s2.914,6.499,6.499,6.499,6.499-2.913,6.499-6.499-2.913-6.499-6.499-6.499ZM409.593,119.211c2.609,0,4.706,2.097,4.706,4.706s-2.097,4.706-4.706,4.706-4.706-2.097-4.706-4.706,2.097-4.706,4.706-4.706ZM409.593,119.804c-2.272,0-4.113,1.841-4.113,4.114s1.841,4.114,4.113,4.114,4.113-1.841,4.113-4.114-1.84-4.114-4.113-4.114Z"/><path class="cls-1" d="M289.771,125.326c-.416.032-1.072.144-1.681.24-.769.128-2.064.336-3.474.56.257,1.312.48,2.385.576,2.881.112.48.272,1.056.417,1.568l-2.306.416c-.08-.608-.128-1.152-.224-1.616-.08-.464-.288-1.569-.544-2.914-1.633.272-3.138.528-3.826.656-.688.128-1.232.24-1.601.336l-.448-2.145c.433-.016,1.152-.112,1.665-.176.736-.112,2.225-.352,3.842-.608l-.48-2.561c-1.409.224-2.642.432-3.138.512-.56.112-.992.208-1.473.336l-.432-2.209c.512-.016.992-.048,1.488-.112.561-.064,1.793-.24,3.169-.464-.128-.672-.239-1.2-.288-1.457-.096-.448-.208-.832-.319-1.216l2.257-.368c.048.32.096.864.176,1.249.032.224.128.752.256,1.473,1.36-.224,2.577-.417,3.153-.528.513-.096,1.121-.224,1.505-.336l.384,2.097c-.352.032-.992.128-1.473.192l-3.201.512.496,2.545c1.44-.24,2.754-.448,3.474-.592.624-.128,1.217-.256,1.633-.384l.416,2.113Z"/><path class="cls-1" d="M301.705,126.431c.816-.736,1.921-2.097,2.354-2.881-.385.08-1.969.4-3.697.769.607,2.193,1.28,4.658,1.536,5.49.096.288.304.992.433,1.312l-2.178.528c-.048-.416-.159-.944-.288-1.393-.239-.864-.896-3.345-1.473-5.538-1.344.288-2.513.528-2.993.64l-.496-1.92c.513-.048.944-.096,1.473-.192.225-.032.801-.128,1.537-.272-.16-.624-.305-1.136-.416-1.489-.112-.416-.272-.8-.448-1.136l2.145-.512c.064.384.16.8.256,1.216l.433,1.553c2.032-.384,4.273-.816,4.897-.96.288-.048.593-.144.816-.256l1.28.912c-.672,1.409-2.288,3.81-3.409,5.01l-1.761-.88Z"/><path class="cls-1" d="M318.377,126.398c2.722-1.617,4.818-4.065,5.826-6.227l1.249,2.257c-1.217,2.161-3.346,4.37-5.923,5.923-1.616.976-3.682,1.873-5.938,2.257l-1.344-2.113c2.496-.353,4.577-1.168,6.13-2.097ZM318.377,121.212l-1.633,1.681c-.832-.896-2.833-2.641-4.001-3.458l1.504-1.601c1.121.752,3.202,2.417,4.13,3.377Z"/><path class="cls-1" d="M336.985,125.326c1.057-.944,2.112-2.401,2.561-3.233-.496.096-2.657.528-4.93.977v4.242c0,.992.288,1.344,2.033,1.344,1.696,0,3.473-.224,5.058-.528l-.064,2.161c-1.328.192-3.249.352-4.962.352-3.649,0-4.178-.88-4.178-2.769v-4.37c-1.424.288-2.688.544-3.361.704l-.384-2.097c.752-.096,2.161-.336,3.745-.625v-2.289c0-.528-.048-1.345-.128-1.825h2.385c-.079.48-.144,1.28-.144,1.825v1.889c2.337-.432,4.578-.896,5.298-1.057.448-.112.833-.224,1.137-.384l1.536,1.2c-.144.224-.384.576-.527.864-.705,1.329-2.161,3.538-3.313,4.658l-1.761-1.041Z"/><path class="cls-1" d="M346.229,129.408c1.409-.992,2.273-2.465,2.722-3.826.448-1.376.464-4.401.464-6.338,0-.64-.048-1.072-.144-1.457h2.353c-.016.064-.112.784-.112,1.44,0,1.889-.048,5.266-.479,6.883-.48,1.809-1.473,3.377-2.85,4.594l-1.953-1.296ZM353.641,129.648c.064-.304.128-.752.128-1.185v-9.332c0-.721-.111-1.329-.128-1.377h2.385c-.016.048-.111.672-.111,1.393v8.372c1.296-.56,2.881-1.825,3.953-3.377l1.232,1.761c-1.328,1.729-3.633,3.458-5.426,4.37-.336.176-.496.32-.704.48l-1.329-1.104Z"/><path class="cls-1" d="M367.176,125.358v3.922c0,.832-.129,1.296-.593,1.584-.448.288-1.057.352-1.969.352-.032-.48-.24-1.216-.464-1.696.448.016.88.016,1.024.016.176,0,.224-.064.224-.24v-3.33c-.464.16-.912.304-1.328.448l-.448-1.825c.512-.128,1.104-.304,1.776-.496v-2.865h-1.553v-1.761h1.553v-3.009h1.777v3.009h1.328v1.761h-1.328v2.305l1.152-.384.304,1.681-1.456.528ZM375.291,127.583c.896.848,2.225,1.601,3.521,2.017-.384.32-.928.993-1.2,1.441-1.12-.48-2.257-1.281-3.137-2.225v2.609h-1.81v-2.561c-1.088,1.024-2.448,1.825-3.873,2.305-.272-.432-.784-1.121-1.169-1.473,1.553-.4,3.09-1.185,4.13-2.113h-2.945v-1.537h3.857v-.977h-3.649v-3.761h4.227v3.697h.624v-3.697h4.369v3.761h-3.761v.977h4.033v1.537h-3.217ZM371.737,122.589h-1.312v1.185h1.312v-1.185ZM376.715,120.748h-6.258v-3.713h6.258v3.713ZM374.986,118.363h-2.913v1.057h2.913v-1.057ZM375.339,123.773h1.376v-1.185h-1.376v1.185Z"/><path class="cls-1" d="M386.68,117.083c-.416,1.12-.944,2.257-1.536,3.329v10.964h-1.921v-8.003c-.336.4-.672.8-.992,1.152-.176-.464-.721-1.553-1.057-2.033,1.457-1.441,2.85-3.714,3.649-5.987l1.856.577ZM391.754,120.86v1.681h4.146v1.729h-4.146v1.809h4.354v1.761h-4.354v3.553h-1.952v-10.532h-.608c-.641,1.185-1.377,2.273-2.097,3.105-.305-.352-1.057-1.024-1.457-1.328,1.408-1.441,2.673-3.746,3.394-6.035l1.841.464c-.225.672-.48,1.329-.784,1.985h6.21v1.809h-4.546Z"/><path class="cls-9" d="M409.593,116.715c3.985,0,7.203,3.217,7.203,7.203s-3.218,7.203-7.203,7.203-7.203-3.217-7.203-7.203,3.218-7.203,7.203-7.203ZM409.593,117.419c-3.585,0-6.499,2.913-6.499,6.499s2.914,6.499,6.499,6.499,6.499-2.913,6.499-6.499-2.913-6.499-6.499-6.499ZM409.593,119.211c2.609,0,4.706,2.097,4.706,4.706s-2.097,4.706-4.706,4.706-4.706-2.097-4.706-4.706,2.097-4.706,4.706-4.706ZM409.593,119.804c-2.272,0-4.113,1.841-4.113,4.114s1.841,4.114,4.113,4.114,4.113-1.841,4.113-4.114-1.84-4.114-4.113-4.114Z"/><path class="cls-3" d="M289.771,125.326c-.416.032-1.072.144-1.681.24-.769.128-2.064.336-3.474.56.257,1.312.48,2.385.576,2.881.112.48.272,1.056.417,1.568l-2.306.416c-.08-.608-.128-1.152-.224-1.616-.08-.464-.288-1.569-.544-2.914-1.633.272-3.138.528-3.826.656-.688.128-1.232.24-1.601.336l-.448-2.145c.433-.016,1.152-.112,1.665-.176.736-.112,2.225-.352,3.842-.608l-.48-2.561c-1.409.224-2.642.432-3.138.512-.56.112-.992.208-1.473.336l-.432-2.209c.512-.016.992-.048,1.488-.112.561-.064,1.793-.24,3.169-.464-.128-.672-.239-1.2-.288-1.457-.096-.448-.208-.832-.319-1.216l2.257-.368c.048.32.096.864.176,1.249.032.224.128.752.256,1.473,1.36-.224,2.577-.417,3.153-.528.513-.096,1.121-.224,1.505-.336l.384,2.097c-.352.032-.992.128-1.473.192l-3.201.512.496,2.545c1.44-.24,2.754-.448,3.474-.592.624-.128,1.217-.256,1.633-.384l.416,2.113Z"/><path class="cls-3" d="M301.705,126.431c.816-.736,1.921-2.097,2.354-2.881-.385.08-1.969.4-3.697.769.607,2.193,1.28,4.658,1.536,5.49.096.288.304.992.433,1.312l-2.178.528c-.048-.416-.159-.944-.288-1.393-.239-.864-.896-3.345-1.473-5.538-1.344.288-2.513.528-2.993.64l-.496-1.92c.513-.048.944-.096,1.473-.192.225-.032.801-.128,1.537-.272-.16-.624-.305-1.136-.416-1.489-.112-.416-.272-.8-.448-1.136l2.145-.512c.064.384.16.8.256,1.216l.433,1.553c2.032-.384,4.273-.816,4.897-.96.288-.048.593-.144.816-.256l1.28.912c-.672,1.409-2.288,3.81-3.409,5.01l-1.761-.88Z"/><path class="cls-3" d="M318.377,126.398c2.722-1.617,4.818-4.065,5.826-6.227l1.249,2.257c-1.217,2.161-3.346,4.37-5.923,5.923-1.616.976-3.682,1.873-5.938,2.257l-1.344-2.113c2.496-.353,4.577-1.168,6.13-2.097ZM318.377,121.212l-1.633,1.681c-.832-.896-2.833-2.641-4.001-3.458l1.504-1.601c1.121.752,3.202,2.417,4.13,3.377Z"/><path class="cls-3" d="M336.985,125.326c1.057-.944,2.112-2.401,2.561-3.233-.496.096-2.657.528-4.93.977v4.242c0,.992.288,1.344,2.033,1.344,1.696,0,3.473-.224,5.058-.528l-.064,2.161c-1.328.192-3.249.352-4.962.352-3.649,0-4.178-.88-4.178-2.769v-4.37c-1.424.288-2.688.544-3.361.704l-.384-2.097c.752-.096,2.161-.336,3.745-.625v-2.289c0-.528-.048-1.345-.128-1.825h2.385c-.079.48-.144,1.28-.144,1.825v1.889c2.337-.432,4.578-.896,5.298-1.057.448-.112.833-.224,1.137-.384l1.536,1.2c-.144.224-.384.576-.527.864-.705,1.329-2.161,3.538-3.313,4.658l-1.761-1.041Z"/><path class="cls-3" d="M346.229,129.408c1.409-.992,2.273-2.465,2.722-3.826.448-1.376.464-4.401.464-6.338,0-.64-.048-1.072-.144-1.457h2.353c-.016.064-.112.784-.112,1.44,0,1.889-.048,5.266-.479,6.883-.48,1.809-1.473,3.377-2.85,4.594l-1.953-1.296ZM353.641,129.648c.064-.304.128-.752.128-1.185v-9.332c0-.721-.111-1.329-.128-1.377h2.385c-.016.048-.111.672-.111,1.393v8.372c1.296-.56,2.881-1.825,3.953-3.377l1.232,1.761c-1.328,1.729-3.633,3.458-5.426,4.37-.336.176-.496.32-.704.48l-1.329-1.104Z"/><path class="cls-3" d="M367.176,125.358v3.922c0,.832-.129,1.296-.593,1.584-.448.288-1.057.352-1.969.352-.032-.48-.24-1.216-.464-1.696.448.016.88.016,1.024.016.176,0,.224-.064.224-.24v-3.33c-.464.16-.912.304-1.328.448l-.448-1.825c.512-.128,1.104-.304,1.776-.496v-2.865h-1.553v-1.761h1.553v-3.009h1.777v3.009h1.328v1.761h-1.328v2.305l1.152-.384.304,1.681-1.456.528ZM375.291,127.583c.896.848,2.225,1.601,3.521,2.017-.384.32-.928.993-1.2,1.441-1.12-.48-2.257-1.281-3.137-2.225v2.609h-1.81v-2.561c-1.088,1.024-2.448,1.825-3.873,2.305-.272-.432-.784-1.121-1.169-1.473,1.553-.4,3.09-1.185,4.13-2.113h-2.945v-1.537h3.857v-.977h-3.649v-3.761h4.227v3.697h.624v-3.697h4.369v3.761h-3.761v.977h4.033v1.537h-3.217ZM371.737,122.589h-1.312v1.185h1.312v-1.185ZM376.715,120.748h-6.258v-3.713h6.258v3.713ZM374.986,118.363h-2.913v1.057h2.913v-1.057ZM375.339,123.773h1.376v-1.185h-1.376v1.185Z"/><path class="cls-3" d="M386.68,117.083c-.416,1.12-.944,2.257-1.536,3.329v10.964h-1.921v-8.003c-.336.4-.672.8-.992,1.152-.176-.464-.721-1.553-1.057-2.033,1.457-1.441,2.85-3.714,3.649-5.987l1.856.577ZM391.754,120.86v1.681h4.146v1.729h-4.146v1.809h4.354v1.761h-4.354v3.553h-1.952v-10.532h-.608c-.641,1.185-1.377,2.273-2.097,3.105-.305-.352-1.057-1.024-1.457-1.328,1.408-1.441,2.673-3.746,3.394-6.035l1.841.464c-.225.672-.48,1.329-.784,1.985h6.21v1.809h-4.546Z"/><path class="cls-3" d="M409.593,116.715c3.985,0,7.203,3.217,7.203,7.203s-3.218,7.203-7.203,7.203-7.203-3.217-7.203-7.203,3.218-7.203,7.203-7.203ZM409.593,117.419c-3.585,0-6.499,2.913-6.499,6.499s2.914,6.499,6.499,6.499,6.499-2.913,6.499-6.499-2.913-6.499-6.499-6.499ZM409.593,119.211c2.609,0,4.706,2.097,4.706,4.706s-2.097,4.706-4.706,4.706-4.706-2.097-4.706-4.706,2.097-4.706,4.706-4.706ZM409.593,119.804c-2.272,0-4.113,1.841-4.113,4.114s1.841,4.114,4.113,4.114,4.113-1.841,4.113-4.114-1.84-4.114-4.113-4.114Z"/><path class="cls-8" d="M289.771,200.326c-.416.032-1.072.144-1.681.24-.769.128-2.064.336-3.474.56.257,1.312.48,2.385.576,2.881.112.48.272,1.056.417,1.568l-2.306.416c-.08-.608-.128-1.152-.224-1.616-.08-.464-.288-1.569-.544-2.914-1.633.272-3.138.528-3.826.656-.688.128-1.232.24-1.601.336l-.448-2.145c.433-.016,1.152-.112,1.665-.176.736-.112,2.225-.352,3.842-.608l-.48-2.561c-1.409.224-2.642.432-3.138.512-.56.112-.992.208-1.473.336l-.432-2.209c.512-.016.992-.048,1.488-.112.561-.064,1.793-.24,3.169-.464-.128-.672-.239-1.2-.288-1.457-.096-.448-.208-.832-.319-1.216l2.257-.368c.048.32.096.864.176,1.249.032.224.128.752.256,1.473,1.36-.224,2.577-.417,3.153-.528.513-.096,1.121-.224,1.505-.336l.384,2.097c-.352.032-.992.128-1.473.192l-3.201.512.496,2.545c1.44-.24,2.754-.448,3.474-.592.624-.128,1.217-.256,1.633-.384l.416,2.113Z"/><path class="cls-8" d="M301.705,201.431c.816-.736,1.921-2.097,2.354-2.881-.385.08-1.969.4-3.697.769.607,2.193,1.28,4.658,1.536,5.49.096.288.304.992.433,1.312l-2.178.528c-.048-.416-.159-.944-.288-1.393-.239-.864-.896-3.345-1.473-5.538-1.344.288-2.513.528-2.993.64l-.496-1.92c.513-.048.944-.096,1.473-.192.225-.032.801-.128,1.537-.272-.16-.624-.305-1.136-.416-1.489-.112-.416-.272-.8-.448-1.136l2.145-.512c.064.384.16.8.256,1.216l.433,1.553c2.032-.384,4.273-.816,4.897-.96.288-.048.593-.144.816-.256l1.28.912c-.672,1.409-2.288,3.81-3.409,5.01l-1.761-.88Z"/><path class="cls-8" d="M318.377,201.398c2.722-1.617,4.818-4.065,5.826-6.227l1.249,2.257c-1.217,2.161-3.346,4.37-5.923,5.923-1.616.976-3.682,1.873-5.938,2.257l-1.344-2.113c2.496-.353,4.577-1.168,6.13-2.097ZM318.377,196.212l-1.633,1.681c-.832-.896-2.833-2.641-4.001-3.458l1.504-1.601c1.121.752,3.202,2.417,4.13,3.377Z"/><path class="cls-8" d="M336.985,200.326c1.057-.944,2.112-2.401,2.561-3.233-.496.096-2.657.528-4.93.977v4.242c0,.992.288,1.344,2.033,1.344,1.696,0,3.473-.224,5.058-.528l-.064,2.161c-1.328.192-3.249.352-4.962.352-3.649,0-4.178-.88-4.178-2.769v-4.37c-1.424.288-2.688.544-3.361.704l-.384-2.097c.752-.096,2.161-.336,3.745-.625v-2.289c0-.528-.048-1.345-.128-1.825h2.385c-.079.48-.144,1.28-.144,1.825v1.889c2.337-.432,4.578-.896,5.298-1.057.448-.112.833-.224,1.137-.384l1.536,1.2c-.144.224-.384.576-.527.864-.705,1.329-2.161,3.538-3.313,4.658l-1.761-1.041Z"/><path class="cls-8" d="M346.229,204.408c1.409-.992,2.273-2.465,2.722-3.826.448-1.376.464-4.401.464-6.338,0-.64-.048-1.072-.144-1.457h2.353c-.016.064-.112.784-.112,1.44,0,1.889-.048,5.266-.479,6.883-.48,1.809-1.473,3.377-2.85,4.594l-1.953-1.296ZM353.641,204.648c.064-.304.128-.752.128-1.185v-9.332c0-.721-.111-1.329-.128-1.377h2.385c-.016.048-.111.672-.111,1.393v8.372c1.296-.56,2.881-1.825,3.953-3.377l1.232,1.761c-1.328,1.729-3.633,3.458-5.426,4.37-.336.176-.496.32-.704.48l-1.329-1.104Z"/><path class="cls-8" d="M367.176,200.358v3.922c0,.832-.129,1.296-.593,1.584-.448.288-1.057.352-1.969.352-.032-.48-.24-1.216-.464-1.696.448.016.88.016,1.024.016.176,0,.224-.064.224-.24v-3.33c-.464.16-.912.304-1.328.448l-.448-1.825c.512-.128,1.104-.304,1.776-.496v-2.865h-1.553v-1.761h1.553v-3.009h1.777v3.009h1.328v1.761h-1.328v2.305l1.152-.384.304,1.681-1.456.528ZM375.291,202.583c.896.848,2.225,1.601,3.521,2.017-.384.32-.928.993-1.2,1.441-1.12-.48-2.257-1.281-3.137-2.225v2.609h-1.81v-2.561c-1.088,1.024-2.448,1.825-3.873,2.305-.272-.432-.784-1.121-1.169-1.473,1.553-.4,3.09-1.185,4.13-2.113h-2.945v-1.537h3.857v-.977h-3.649v-3.761h4.227v3.697h.624v-3.697h4.369v3.761h-3.761v.977h4.033v1.537h-3.217ZM371.737,197.589h-1.312v1.185h1.312v-1.185ZM376.715,195.748h-6.258v-3.713h6.258v3.713ZM374.986,193.363h-2.913v1.057h2.913v-1.057ZM375.339,198.773h1.376v-1.185h-1.376v1.185Z"/><path class="cls-8" d="M386.68,192.083c-.416,1.12-.944,2.257-1.536,3.329v10.964h-1.921v-8.003c-.336.4-.672.8-.992,1.152-.176-.464-.721-1.553-1.057-2.033,1.457-1.441,2.85-3.714,3.649-5.987l1.856.577ZM391.754,195.86v1.681h4.146v1.729h-4.146v1.809h4.354v1.761h-4.354v3.553h-1.952v-10.532h-.608c-.641,1.185-1.377,2.273-2.097,3.105-.305-.352-1.057-1.024-1.457-1.328,1.408-1.441,2.673-3.746,3.394-6.035l1.841.464c-.225.672-.48,1.329-.784,1.985h6.21v1.809h-4.546Z"/><path class="cls-8" d="M409.593,191.715c3.985,0,7.203,3.217,7.203,7.203s-3.218,7.203-7.203,7.203-7.203-3.217-7.203-7.203,3.218-7.203,7.203-7.203ZM409.593,192.419c-3.585,0-6.499,2.913-6.499,6.499s2.914,6.499,6.499,6.499,6.499-2.913,6.499-6.499-2.913-6.499-6.499-6.499ZM409.593,194.211c2.609,0,4.706,2.097,4.706,4.706s-2.097,4.706-4.706,4.706-4.706-2.097-4.706-4.706,2.097-4.706,4.706-4.706ZM409.593,194.804c-2.272,0-4.113,1.841-4.113,4.114s1.841,4.114,4.113,4.114,4.113-1.841,4.113-4.114-1.84-4.114-4.113-4.114Z"/><path class="cls-1" d="M289.771,200.326c-.416.032-1.072.144-1.681.24-.769.128-2.064.336-3.474.56.257,1.312.48,2.385.576,2.881.112.48.272,1.056.417,1.568l-2.306.416c-.08-.608-.128-1.152-.224-1.616-.08-.464-.288-1.569-.544-2.914-1.633.272-3.138.528-3.826.656-.688.128-1.232.24-1.601.336l-.448-2.145c.433-.016,1.152-.112,1.665-.176.736-.112,2.225-.352,3.842-.608l-.48-2.561c-1.409.224-2.642.432-3.138.512-.56.112-.992.208-1.473.336l-.432-2.209c.512-.016.992-.048,1.488-.112.561-.064,1.793-.24,3.169-.464-.128-.672-.239-1.2-.288-1.457-.096-.448-.208-.832-.319-1.216l2.257-.368c.048.32.096.864.176,1.249.032.224.128.752.256,1.473,1.36-.224,2.577-.417,3.153-.528.513-.096,1.121-.224,1.505-.336l.384,2.097c-.352.032-.992.128-1.473.192l-3.201.512.496,2.545c1.44-.24,2.754-.448,3.474-.592.624-.128,1.217-.256,1.633-.384l.416,2.113Z"/><path class="cls-1" d="M301.705,201.431c.816-.736,1.921-2.097,2.354-2.881-.385.08-1.969.4-3.697.769.607,2.193,1.28,4.658,1.536,5.49.096.288.304.992.433,1.312l-2.178.528c-.048-.416-.159-.944-.288-1.393-.239-.864-.896-3.345-1.473-5.538-1.344.288-2.513.528-2.993.64l-.496-1.92c.513-.048.944-.096,1.473-.192.225-.032.801-.128,1.537-.272-.16-.624-.305-1.136-.416-1.489-.112-.416-.272-.8-.448-1.136l2.145-.512c.064.384.16.8.256,1.216l.433,1.553c2.032-.384,4.273-.816,4.897-.96.288-.048.593-.144.816-.256l1.28.912c-.672,1.409-2.288,3.81-3.409,5.01l-1.761-.88Z"/><path class="cls-1" d="M318.377,201.398c2.722-1.617,4.818-4.065,5.826-6.227l1.249,2.257c-1.217,2.161-3.346,4.37-5.923,5.923-1.616.976-3.682,1.873-5.938,2.257l-1.344-2.113c2.496-.353,4.577-1.168,6.13-2.097ZM318.377,196.212l-1.633,1.681c-.832-.896-2.833-2.641-4.001-3.458l1.504-1.601c1.121.752,3.202,2.417,4.13,3.377Z"/><path class="cls-1" d="M336.985,200.326c1.057-.944,2.112-2.401,2.561-3.233-.496.096-2.657.528-4.93.977v4.242c0,.992.288,1.344,2.033,1.344,1.696,0,3.473-.224,5.058-.528l-.064,2.161c-1.328.192-3.249.352-4.962.352-3.649,0-4.178-.88-4.178-2.769v-4.37c-1.424.288-2.688.544-3.361.704l-.384-2.097c.752-.096,2.161-.336,3.745-.625v-2.289c0-.528-.048-1.345-.128-1.825h2.385c-.079.48-.144,1.28-.144,1.825v1.889c2.337-.432,4.578-.896,5.298-1.057.448-.112.833-.224,1.137-.384l1.536,1.2c-.144.224-.384.576-.527.864-.705,1.329-2.161,3.538-3.313,4.658l-1.761-1.041Z"/><path class="cls-1" d="M346.229,204.408c1.409-.992,2.273-2.465,2.722-3.826.448-1.376.464-4.401.464-6.338,0-.64-.048-1.072-.144-1.457h2.353c-.016.064-.112.784-.112,1.44,0,1.889-.048,5.266-.479,6.883-.48,1.809-1.473,3.377-2.85,4.594l-1.953-1.296ZM353.641,204.648c.064-.304.128-.752.128-1.185v-9.332c0-.721-.111-1.329-.128-1.377h2.385c-.016.048-.111.672-.111,1.393v8.372c1.296-.56,2.881-1.825,3.953-3.377l1.232,1.761c-1.328,1.729-3.633,3.458-5.426,4.37-.336.176-.496.32-.704.48l-1.329-1.104Z"/><path class="cls-1" d="M367.176,200.358v3.922c0,.832-.129,1.296-.593,1.584-.448.288-1.057.352-1.969.352-.032-.48-.24-1.216-.464-1.696.448.016.88.016,1.024.016.176,0,.224-.064.224-.24v-3.33c-.464.16-.912.304-1.328.448l-.448-1.825c.512-.128,1.104-.304,1.776-.496v-2.865h-1.553v-1.761h1.553v-3.009h1.777v3.009h1.328v1.761h-1.328v2.305l1.152-.384.304,1.681-1.456.528ZM375.291,202.583c.896.848,2.225,1.601,3.521,2.017-.384.32-.928.993-1.2,1.441-1.12-.48-2.257-1.281-3.137-2.225v2.609h-1.81v-2.561c-1.088,1.024-2.448,1.825-3.873,2.305-.272-.432-.784-1.121-1.169-1.473,1.553-.4,3.09-1.185,4.13-2.113h-2.945v-1.537h3.857v-.977h-3.649v-3.761h4.227v3.697h.624v-3.697h4.369v3.761h-3.761v.977h4.033v1.537h-3.217ZM371.737,197.589h-1.312v1.185h1.312v-1.185ZM376.715,195.748h-6.258v-3.713h6.258v3.713ZM374.986,193.363h-2.913v1.057h2.913v-1.057ZM375.339,198.773h1.376v-1.185h-1.376v1.185Z"/><path class="cls-1" d="M386.68,192.083c-.416,1.12-.944,2.257-1.536,3.329v10.964h-1.921v-8.003c-.336.4-.672.8-.992,1.152-.176-.464-.721-1.553-1.057-2.033,1.457-1.441,2.85-3.714,3.649-5.987l1.856.577ZM391.754,195.86v1.681h4.146v1.729h-4.146v1.809h4.354v1.761h-4.354v3.553h-1.952v-10.532h-.608c-.641,1.185-1.377,2.273-2.097,3.105-.305-.352-1.057-1.024-1.457-1.328,1.408-1.441,2.673-3.746,3.394-6.035l1.841.464c-.225.672-.48,1.329-.784,1.985h6.21v1.809h-4.546Z"/><path class="cls-9" d="M409.593,191.715c3.985,0,7.203,3.217,7.203,7.203s-3.218,7.203-7.203,7.203-7.203-3.217-7.203-7.203,3.218-7.203,7.203-7.203ZM409.593,192.419c-3.585,0-6.499,2.913-6.499,6.499s2.914,6.499,6.499,6.499,6.499-2.913,6.499-6.499-2.913-6.499-6.499-6.499ZM409.593,194.211c2.609,0,4.706,2.097,4.706,4.706s-2.097,4.706-4.706,4.706-4.706-2.097-4.706-4.706,2.097-4.706,4.706-4.706ZM409.593,194.804c-2.272,0-4.113,1.841-4.113,4.114s1.841,4.114,4.113,4.114,4.113-1.841,4.113-4.114-1.84-4.114-4.113-4.114Z"/><path class="cls-3" d="M289.771,200.326c-.416.032-1.072.144-1.681.24-.769.128-2.064.336-3.474.56.257,1.312.48,2.385.576,2.881.112.48.272,1.056.417,1.568l-2.306.416c-.08-.608-.128-1.152-.224-1.616-.08-.464-.288-1.569-.544-2.914-1.633.272-3.138.528-3.826.656-.688.128-1.232.24-1.601.336l-.448-2.145c.433-.016,1.152-.112,1.665-.176.736-.112,2.225-.352,3.842-.608l-.48-2.561c-1.409.224-2.642.432-3.138.512-.56.112-.992.208-1.473.336l-.432-2.209c.512-.016.992-.048,1.488-.112.561-.064,1.793-.24,3.169-.464-.128-.672-.239-1.2-.288-1.457-.096-.448-.208-.832-.319-1.216l2.257-.368c.048.32.096.864.176,1.249.032.224.128.752.256,1.473,1.36-.224,2.577-.417,3.153-.528.513-.096,1.121-.224,1.505-.336l.384,2.097c-.352.032-.992.128-1.473.192l-3.201.512.496,2.545c1.44-.24,2.754-.448,3.474-.592.624-.128,1.217-.256,1.633-.384l.416,2.113Z"/><path class="cls-3" d="M301.705,201.431c.816-.736,1.921-2.097,2.354-2.881-.385.08-1.969.4-3.697.769.607,2.193,1.28,4.658,1.536,5.49.096.288.304.992.433,1.312l-2.178.528c-.048-.416-.159-.944-.288-1.393-.239-.864-.896-3.345-1.473-5.538-1.344.288-2.513.528-2.993.64l-.496-1.92c.513-.048.944-.096,1.473-.192.225-.032.801-.128,1.537-.272-.16-.624-.305-1.136-.416-1.489-.112-.416-.272-.8-.448-1.136l2.145-.512c.064.384.16.8.256,1.216l.433,1.553c2.032-.384,4.273-.816,4.897-.96.288-.048.593-.144.816-.256l1.28.912c-.672,1.409-2.288,3.81-3.409,5.01l-1.761-.88Z"/><path class="cls-3" d="M318.377,201.398c2.722-1.617,4.818-4.065,5.826-6.227l1.249,2.257c-1.217,2.161-3.346,4.37-5.923,5.923-1.616.976-3.682,1.873-5.938,2.257l-1.344-2.113c2.496-.353,4.577-1.168,6.13-2.097ZM318.377,196.212l-1.633,1.681c-.832-.896-2.833-2.641-4.001-3.458l1.504-1.601c1.121.752,3.202,2.417,4.13,3.377Z"/><path class="cls-3" d="M336.985,200.326c1.057-.944,2.112-2.401,2.561-3.233-.496.096-2.657.528-4.93.977v4.242c0,.992.288,1.344,2.033,1.344,1.696,0,3.473-.224,5.058-.528l-.064,2.161c-1.328.192-3.249.352-4.962.352-3.649,0-4.178-.88-4.178-2.769v-4.37c-1.424.288-2.688.544-3.361.704l-.384-2.097c.752-.096,2.161-.336,3.745-.625v-2.289c0-.528-.048-1.345-.128-1.825h2.385c-.079.48-.144,1.28-.144,1.825v1.889c2.337-.432,4.578-.896,5.298-1.057.448-.112.833-.224,1.137-.384l1.536,1.2c-.144.224-.384.576-.527.864-.705,1.329-2.161,3.538-3.313,4.658l-1.761-1.041Z"/><path class="cls-3" d="M346.229,204.408c1.409-.992,2.273-2.465,2.722-3.826.448-1.376.464-4.401.464-6.338,0-.64-.048-1.072-.144-1.457h2.353c-.016.064-.112.784-.112,1.44,0,1.889-.048,5.266-.479,6.883-.48,1.809-1.473,3.377-2.85,4.594l-1.953-1.296ZM353.641,204.648c.064-.304.128-.752.128-1.185v-9.332c0-.721-.111-1.329-.128-1.377h2.385c-.016.048-.111.672-.111,1.393v8.372c1.296-.56,2.881-1.825,3.953-3.377l1.232,1.761c-1.328,1.729-3.633,3.458-5.426,4.37-.336.176-.496.32-.704.48l-1.329-1.104Z"/><path class="cls-3" d="M367.176,200.358v3.922c0,.832-.129,1.296-.593,1.584-.448.288-1.057.352-1.969.352-.032-.48-.24-1.216-.464-1.696.448.016.88.016,1.024.016.176,0,.224-.064.224-.24v-3.33c-.464.16-.912.304-1.328.448l-.448-1.825c.512-.128,1.104-.304,1.776-.496v-2.865h-1.553v-1.761h1.553v-3.009h1.777v3.009h1.328v1.761h-1.328v2.305l1.152-.384.304,1.681-1.456.528ZM375.291,202.583c.896.848,2.225,1.601,3.521,2.017-.384.32-.928.993-1.2,1.441-1.12-.48-2.257-1.281-3.137-2.225v2.609h-1.81v-2.561c-1.088,1.024-2.448,1.825-3.873,2.305-.272-.432-.784-1.121-1.169-1.473,1.553-.4,3.09-1.185,4.13-2.113h-2.945v-1.537h3.857v-.977h-3.649v-3.761h4.227v3.697h.624v-3.697h4.369v3.761h-3.761v.977h4.033v1.537h-3.217ZM371.737,197.589h-1.312v1.185h1.312v-1.185ZM376.715,195.748h-6.258v-3.713h6.258v3.713ZM374.986,193.363h-2.913v1.057h2.913v-1.057ZM375.339,198.773h1.376v-1.185h-1.376v1.185Z"/><path class="cls-3" d="M386.68,192.083c-.416,1.12-.944,2.257-1.536,3.329v10.964h-1.921v-8.003c-.336.4-.672.8-.992,1.152-.176-.464-.721-1.553-1.057-2.033,1.457-1.441,2.85-3.714,3.649-5.987l1.856.577ZM391.754,195.86v1.681h4.146v1.729h-4.146v1.809h4.354v1.761h-4.354v3.553h-1.952v-10.532h-.608c-.641,1.185-1.377,2.273-2.097,3.105-.305-.352-1.057-1.024-1.457-1.328,1.408-1.441,2.673-3.746,3.394-6.035l1.841.464c-.225.672-.48,1.329-.784,1.985h6.21v1.809h-4.546Z"/><path class="cls-3" d="M409.593,191.715c3.985,0,7.203,3.217,7.203,7.203s-3.218,7.203-7.203,7.203-7.203-3.217-7.203-7.203,3.218-7.203,7.203-7.203ZM409.593,192.419c-3.585,0-6.499,2.913-6.499,6.499s2.914,6.499,6.499,6.499,6.499-2.913,6.499-6.499-2.913-6.499-6.499-6.499ZM409.593,194.211c2.609,0,4.706,2.097,4.706,4.706s-2.097,4.706-4.706,4.706-4.706-2.097-4.706-4.706,2.097-4.706,4.706-4.706ZM409.593,194.804c-2.272,0-4.113,1.841-4.113,4.114s1.841,4.114,4.113,4.114,4.113-1.841,4.113-4.114-1.84-4.114-4.113-4.114Z"/><path class="cls-4" d="M130.127,17.678c1.02.74,2.84,2.261,3.32,2.661l-1.641,2.521c-.439-.561-1.039-1.28-1.68-1.98v6.302h-2.841v-6.322c-.78,1.541-1.66,2.961-2.62,3.981-.28-.86-1-2.101-1.461-2.881,1.34-1.3,2.641-3.32,3.501-5.181h-3.04v-2.681h3.62v-1.94c-1.04.2-2.081.359-3.061.5-.12-.66-.521-1.66-.841-2.261,2.881-.46,5.962-1.24,7.942-2.141l2.04,2.221c-1,.4-2.1.74-3.24,1.04v2.581h3.181v2.681h-3.181v.899ZM136.889,21.999h-2.821v-11.343h2.821v11.343ZM141.59,8.576v15.163c0,1.62-.301,2.4-1.221,2.881-.94.46-2.381.561-4.221.561-.121-.841-.58-2.201-1-3.021,1.26.061,2.58.061,3.02.061.381,0,.541-.12.541-.5v-15.144h2.881Z"/><path class="cls-4" d="M163.069,23.939c0,1.44-.3,2.2-1.181,2.641-.92.46-2.16.521-3.94.5-.101-.78-.54-2.04-.921-2.78.98.08,2.281.06,2.641.06s.5-.12.5-.46v-2.4h-3.561v5.421h-2.94v-5.421h-3.601c-.381,2.181-1.141,4.321-2.541,5.821-.459-.54-1.66-1.521-2.301-1.881,2.182-2.38,2.342-5.98,2.342-8.802v-7.142h15.503v14.443ZM153.667,18.759v-1.98h-3.221c0,.62-.021,1.28-.06,1.98h3.28ZM150.446,12.257v1.82h3.221v-1.82h-3.221ZM160.168,12.257h-3.561v1.82h3.561v-1.82ZM160.168,18.759v-1.98h-3.561v1.98h3.561Z"/><path class="cls-4" d="M171.166,16.238v10.962h-2.84V8.916h8.001v7.322h-5.161ZM171.166,10.937v.681h2.44v-.681h-2.44ZM173.606,14.197v-.74h-2.44v.74h2.44ZM179.988,22.879v3.961h-2.541v-3.961h-1.4c-.22,1.381-.92,3.261-2.5,4.361-.4-.5-1.26-1.261-1.841-1.641,1.081-.66,1.62-1.78,1.841-2.721h-1.721v-2.34h1.84v-1.141h-1.58v-2.261h9.562v2.261h-1.66v1.141h1.939v2.34h-1.939ZM177.447,20.539v-1.141h-1.32v1.141h1.32ZM185.51,23.939c0,1.38-.221,2.16-1.021,2.641-.819.48-1.88.561-3.42.54-.08-.78-.46-2.12-.84-2.86.76.04,1.72.04,2.02.04s.4-.12.4-.4v-7.602h-5.281v-7.382h8.143v15.023ZM180.128,10.937v.681h2.521v-.681h-2.521ZM182.648,14.258v-.801h-2.521v.801h2.521Z"/><path class="cls-4" d="M197.428,15.038c-.261,2.44-.701,4.48-1.361,6.221.86.721,1.601,1.421,2.081,2.061l-1.741,2.341c-.379-.54-.959-1.16-1.619-1.801-.9,1.421-2.061,2.541-3.481,3.44-.399-.72-1.16-1.78-1.74-2.32,1.261-.66,2.28-1.68,3.061-3-.24-.2-.5-.4-.74-.601l-.159.601-2.342-1.261c.461-1.601.961-3.721,1.441-5.941h-1.24v-2.681h1.8c.261-1.36.5-2.681.7-3.921l2.721.301c-.221,1.16-.461,2.38-.74,3.62h1.36l.5-.06,1.72.28c-.039.8-.1,1.56-.18,2.3l1.561-.08c.66-1.94,1.301-4.4,1.601-6.361l3.241.58c-.601,1.921-1.32,3.961-2.001,5.642l2.7-.16c-.34-.6-.699-1.2-1.061-1.74l2.301-1.16c1.201,1.7,2.501,3.921,2.961,5.481l-2.521,1.32c-.101-.4-.261-.86-.46-1.36-2.861.239-5.861.46-8.122.62l-.239-2.36ZM193.486,14.777c-.301,1.341-.6,2.661-.9,3.901.381.26.78.52,1.18.82.48-1.4.801-2.981,1.001-4.722h-1.28ZM198.627,18.658h9.043v8.462h-2.881v-.64h-3.422v.72h-2.74v-8.542ZM201.367,21.279v2.58h3.422v-2.58h-3.422Z"/><path class="cls-4" d="M228.129,9.316v17.644h-3.141v-1.32h-8.302v1.32h-3.001V9.316h14.443ZM216.687,12.257v3.661h8.302v-3.661h-8.302ZM224.988,22.699v-3.9h-8.302v3.9h8.302Z"/><path class="cls-4" d="M242.107,23.459c.84-.1,1.38-.22,1.94-.359,2.521-.62,4.2-2.381,4.2-4.981,0-2.561-1.24-4.381-3.521-4.921-.26,1.601-.62,3.341-1.16,5.161-1.181,3.961-2.96,6.621-5.301,6.621-2.44,0-4.321-2.66-4.321-6.041,0-4.701,4.061-8.702,9.362-8.702,5.041,0,8.241,3.481,8.241,7.982,0,4.16-2.46,7.221-7.621,8.081l-1.82-2.841ZM241.467,13.257c-2.94.801-4.4,3.461-4.4,5.361,0,1.721.6,2.621,1.279,2.621.801,0,1.4-1.2,2.102-3.501.439-1.341.779-2.921,1.02-4.481Z"/><path class="cls-4" d="M271.548,20.199c0,2.501-1.881,4.781-6.102,4.781-1.94,0-4.001-.48-5.421-1.381l1.42-2.98c1.141.761,2.541,1.16,3.881,1.16s2.24-.54,2.24-1.48c0-.859-.58-1.42-2.72-1.42h-3.801l.7-8.182h8.922v3.061h-5.642l-.18,2.04h.939c4.142,0,5.762,1.921,5.762,4.401Z"/><path class="cls-4" d="M296.269,9.316v17.644h-3.141v-1.32h-8.302v1.32h-3.001V9.316h14.443ZM284.826,12.257v3.661h8.302v-3.661h-8.302ZM293.128,22.699v-3.9h-8.302v3.9h8.302Z"/><path class="cls-4" d="M320.209,11.057v2.621h-18.384v-2.621h3.881c-.32-.62-.841-1.36-1.32-1.92l2.78-.961c.7.74,1.48,1.741,1.801,2.501l-1.101.38h5.281c.58-.9,1.16-2,1.5-2.9l3.181.92c-.439.7-.899,1.381-1.34,1.98h3.721ZM311.127,24.479c0,1.16-.22,1.82-.96,2.221-.74.42-1.66.46-2.841.46-.14-.72-.54-1.801-.9-2.44.58.04,1.341.04,1.581.02.239,0,.319-.079.319-.3v-1.26h-2.761v3.9h-2.74v-12.263h8.302v9.662ZM305.565,17.238v.84h2.761v-.84h-2.761ZM308.326,21.079v-.9h-2.761v.9h2.761ZM315.088,23.239h-2.66v-8.201h2.66v8.201ZM316.408,14.518h2.86v9.622c0,1.34-.24,2.061-1.12,2.5-.86.44-1.98.521-3.4.501-.141-.78-.601-2.001-1.021-2.741.9.061,1.94.061,2.261.04.32,0,.42-.08.42-.34v-9.582Z"/><path class="cls-4" d="M329.246,9.877c-.18.439-.48,1.66-.56,2.02-.221,1.021-.94,5.222-.94,7.062,0,.061,0,.381.02.461.261-.561.5-.961.761-1.521l1.46,1.14c-.6,1.801-1.221,3.981-1.44,5.102-.06.28-.12.76-.12.94,0,.22,0,.58.021.899l-2.761.181c-.4-1.341-.8-3.841-.8-6.521,0-3.041.58-6.342.779-7.802.08-.601.221-1.5.24-2.24l3.341.28ZM333.927,19.759c-.14.62-.199,1.06-.199,1.58,0,.88.819,1.2,2.44,1.2,1.78,0,3.2-.16,5.001-.52l.06,3.24c-1.3.24-2.88.38-5.221.38-3.461,0-5.182-1.3-5.182-3.4,0-.9.141-1.761.36-2.721l2.74.24ZM340.608,11.057v3.101c-2.601.2-6.062.221-8.701,0l-.021-3.08c2.581.319,6.501.22,8.722-.021Z"/><path class="cls-4" d="M363.789,11.297v4.461h-2.801v-2.021h-11.902v2.021h-2.641v-4.461h2.24c-.34-.58-.78-1.24-1.18-1.761l2.521-1.06c.66.74,1.42,1.78,1.74,2.521l-.7.3h2.66c-.28-.7-.76-1.62-1.2-2.32l2.561-.881c.54.78,1.2,1.881,1.48,2.601l-1.66.601h3.12c.601-.86,1.261-2.101,1.621-3.041l3.16.921c-.58.76-1.141,1.5-1.641,2.12h2.621ZM356.367,19.499c-.14.359-.3.68-.46,1h6.421v6.761h-2.9v-.6h-8.682v.6h-2.761v-6.761h5.001c.08-.34.16-.681.221-1h-3.401v-5.081h10.463v5.081h-3.901ZM359.428,22.979h-8.682v1.2h8.682v-1.2ZM352.486,17.418h4.941v-.92h-4.941v.92Z"/><path class="cls-4" d="M380.948,22.739c1.58.78,3.601,1.34,5.701,1.641-.66.62-1.521,1.84-1.961,2.641-2.36-.561-4.521-1.601-6.261-3.001v3.181h-2.881v-3.081c-1.801,1.301-4.041,2.321-6.302,2.901-.399-.7-1.24-1.82-1.86-2.421,2.061-.36,4.161-1.021,5.781-1.86h-5.121v-2.36h7.502v-.561h-5.661v-2.061h5.661v-.56h-6.642v-2.24h3.501c-.12-.421-.32-.921-.48-1.301h-3.841v-2.36h2.4c-.28-.7-.7-1.561-1.08-2.24l2.501-.841c.54.841,1.16,2.001,1.42,2.761l-.9.32h1.44v-3.121h2.701v3.121h.96v-3.121h2.74v3.121h1.32l-.6-.18c.42-.801.88-1.961,1.12-2.821l3.061.7c-.521.86-1.021,1.66-1.461,2.301h2.301v2.36h-3.621c-.279.46-.54.9-.779,1.301h3.601v2.24h-6.781v.56h5.881v2.061h-5.881v.561h7.642v2.36h-5.121ZM374.986,13.657c.221.44.42.92.521,1.261l-.24.04h3.4c.181-.4.36-.86.501-1.301h-4.182Z"/><path class="cls-4" d="M404.988,17.698c1.2,1,2.521,1.841,3.921,2.44-.7.601-1.641,1.78-2.12,2.561-.62-.34-1.221-.7-1.801-1.12v5.581h-3.041v-8.361c-.779-.881-1.5-1.841-2.16-2.861-1.521,5.342-4.181,9.062-7.642,11.062-.48-.64-1.601-1.74-2.32-2.181,2.101-1.08,3.82-2.681,5.161-4.801-.681-.64-1.641-1.36-2.521-1.96-.28.34-.561.68-.86.979-.521-.5-1.74-1.46-2.421-1.88,2.201-1.98,3.821-5.361,4.661-8.982l2.9.601c-.199.76-.42,1.521-.68,2.261h2.24l.5-.101,1.921.641c-.101.62-.2,1.22-.32,1.82l.761-.28c.22.44.479.86.779,1.28v-6.142h3.041v9.442ZM394.986,13.777c-.32.72-.66,1.4-1.04,2.04.819.501,1.68,1.061,2.36,1.601.439-1.1.82-2.32,1.1-3.641h-2.42Z"/><path class="cls-4" d="M420.247,23.459c.84-.1,1.38-.22,1.94-.359,2.521-.62,4.2-2.381,4.2-4.981,0-2.561-1.24-4.381-3.521-4.921-.26,1.601-.62,3.341-1.16,5.161-1.18,3.961-2.961,6.621-5.301,6.621-2.44,0-4.321-2.66-4.321-6.041,0-4.701,4.061-8.702,9.362-8.702,5.041,0,8.241,3.481,8.241,7.982,0,4.16-2.46,7.221-7.621,8.081l-1.82-2.841ZM419.606,13.257c-2.94.801-4.4,3.461-4.4,5.361,0,1.721.6,2.621,1.28,2.621.8,0,1.4-1.2,2.101-3.501.439-1.341.779-2.921,1.02-4.481Z"/><path class="cls-4" d="M450.269,9.316v17.644h-3.141v-1.32h-8.302v1.32h-3.001V9.316h14.443ZM438.826,12.257v3.661h8.302v-3.661h-8.302ZM447.128,22.699v-3.9h-8.302v3.9h8.302Z"/><path class="cls-4" d="M464.447,9.637c-.141.6-.301,1.34-.421,1.9-.1.54-.22,1.08-.34,1.6.521-.039.98-.06,1.341-.06,2.28,0,3.78,1.08,3.78,4.041,0,2.32-.26,5.501-1.1,7.262-.681,1.42-1.841,1.92-3.461,1.92-.761,0-1.7-.12-2.4-.28l-.521-3.16c.721.2,1.921.42,2.421.42.62,0,1.08-.22,1.34-.76.5-.98.74-3.241.74-5.081,0-1.44-.6-1.621-1.841-1.621-.22,0-.56.021-.92.04-.8,3.081-2.28,7.842-3.961,10.562l-3.141-1.26c1.881-2.541,3.161-6.242,3.901-8.942-.521.08-.961.14-1.24.18-.641.08-1.78.24-2.44.36l-.261-3.221c.761.061,1.521.021,2.301,0,.58-.02,1.4-.08,2.28-.14.28-1.54.42-2.921.38-4.141l3.562.38ZM471.488,11.757c1.181,1.881,2.661,5.301,3.201,7.122l-3.061,1.42c-.48-2.301-1.801-5.821-3.241-7.662l1.74-.72c-.399-.78-.9-1.761-1.36-2.44l1.881-.761c.5.74,1.2,2.041,1.561,2.741l-.721.3ZM472.809,11.276c-.4-.819-1.04-2-1.58-2.76l1.88-.761c.521.761,1.24,2.041,1.581,2.721l-1.881.8Z"/><path class="cls-4" d="M488.247,8.156c2.301,2.301,5.401,3.881,8.542,4.681-.64.681-1.28,1.681-1.74,2.501-1.301-.48-2.78-1.16-4.161-1.961v1.101h-7.762v-1.141c-1.34.78-2.82,1.48-4.28,2.021-.32-.66-1.041-1.76-1.581-2.34,3.281-1.021,6.502-3.041,8.122-4.861h2.86ZM493.488,16.078c-.66,1.28-1.4,2.54-2.141,3.721h2.521v7.441h-3v-.62h-7.622v.62h-2.86v-7.441h7.501c.381-.601.78-1.261,1.141-1.881h-8.882v-2.521h10.562l.5-.12,2.28.801ZM490.868,24.14v-1.86h-7.622v1.86h7.622ZM488.888,12.117c-.761-.521-1.421-1.061-1.961-1.601-.52.54-1.16,1.08-1.9,1.601h3.861Z"/><path class="cls-4" d="M514.868,25.58c-.98-.94-2.181-1.881-3.541-2.581v.4c0,1.86-1.5,3.121-4.12,3.121-3.341,0-5.081-1.32-5.081-3.521,0-2.12,1.9-3.62,5.061-3.62.32,0,.641.02.96.04l-.06-1.32h-.96c-1.061,0-3.381-.101-4.642-.261l.021-2.82c1.04.24,3.74.38,4.661.38h.88l.02-1.62h-.939c-1.2,0-2.961-.12-4.102-.3l-.02-2.721c1.28.24,2.94.38,4.101.38h.98v-.68c0-.36-.04-1.001-.12-1.44h3.24c-.06.42-.119.979-.14,1.44l-.02.6c1.46-.08,2.82-.22,4.521-.48l.061,2.741c-1.181.12-2.721.28-4.621.36l-.021,1.64c2.041-.1,3.621-.279,5.142-.46l.02,2.82c-1.74.181-3.2.301-5.101.36.04.62.08,1.28.12,1.921,2.42.72,4.261,1.98,5.421,2.94l-1.721,2.681ZM508.267,21.959c-.479-.08-.979-.12-1.48-.12-1.1,0-1.74.42-1.74.98,0,.66.66,1,1.681,1s1.561-.28,1.561-1.3c0-.141,0-.32-.021-.561Z"/><path class="cls-4" d="M540.429,24.42c-.84.74-2.021,1.4-3.78,1.4-1.58,0-2.641-1.2-2.641-3.281,0-2.12.7-4.821.7-6.562,0-.88-.46-1.36-1.2-1.36-1.36,0-3.381,1.761-4.901,3.441-.02.42-.02.84-.02,1.24,0,1.5,0,3.44.14,5.341.02.36.1,1.221.16,1.7h-3.281c.04-.5.061-1.32.061-1.641.02-1.2.04-2.24.08-3.5-.761,1.1-1.561,2.32-2.101,3.061l-1.86-2.641c1.12-1.381,2.98-3.781,4.161-5.481l.06-1.061c-1.021.12-2.4.301-3.461.44l-.3-3.061c.641.021,1.141.021,1.96-.02.541-.04,1.261-.101,2.001-.221.04-.62.06-1.12.06-1.32,0-.62.021-1.26-.1-1.94l3.48.101c-.14.62-.3,1.62-.46,2.82l.761,1c-.261.34-.721,1.04-1.081,1.561v.06c1.561-1.3,3.701-2.74,5.562-2.74,2.301,0,3.32,1.38,3.32,3.081,0,2.08-.62,4.721-.62,6.801,0,.44.24.681.62.681.561,0,1.44-.42,2.301-1.28l.38,3.381Z"/><path class="cls-4" d="M554.527,13.817c-.82.22-2.021.48-3.36.68-.921,2.781-2.601,6.222-4.201,8.522l-2.9-1.461c1.56-1.94,3.08-4.721,3.94-6.781-.22.021-.44.021-.64.021-.841,0-1.641-.021-2.561-.08l-.221-2.761c.921.1,2.101.14,2.761.14.521,0,1.021-.02,1.54-.06.28-1.08.461-2.221.501-3.241l3.28.32c-.14.62-.36,1.521-.641,2.521.921-.18,1.761-.38,2.421-.58l.08,2.761ZM557.308,15.317c-.06.86-.02,1.801,0,2.781.021.46.061,1.24.101,2.061,1.72.659,3.12,1.66,4.101,2.58l-1.58,2.58c-.62-.58-1.421-1.34-2.4-2.02-.061,1.9-1.101,3.32-4.021,3.32-2.62,0-4.661-1.221-4.661-3.521,0-1.98,1.561-3.681,4.621-3.681.36,0,.7.02,1.041.06-.08-1.42-.16-3.041-.221-4.161h3.021ZM554.607,21.979c-.42-.08-.88-.141-1.341-.141-.979,0-1.58.4-1.58.96,0,.641.54,1.081,1.381,1.081,1.18,0,1.54-.7,1.54-1.801v-.1ZM560.389,16.658c-1.181-.921-3.501-2.261-4.881-2.861l1.54-2.38c1.42.62,3.98,1.98,5.041,2.721l-1.7,2.521Z"/><path class="cls-4" d="M570.366,13.558c0,1.3,0,2.601.12,3.921.24,2.601.64,4.421,1.78,4.421.92,0,1.62-2.48,1.9-3.821l2.42,2.961c-1.38,3.501-2.64,4.741-4.381,4.741-2.34,0-4.28-2.001-4.841-7.422-.2-1.881-.22-4.141-.22-5.401,0-.6-.04-1.44-.181-2.141l3.682.04c-.16.841-.28,2.121-.28,2.701ZM584.009,21.579l-3.181,1.22c-.28-2.98-1.24-8.041-3.561-10.562l3.061-1.001c1.94,2.281,3.521,7.482,3.681,10.343Z"/><path class="cls-4" d="M598.647,18.599c-.12.24-.26.479-.4.7h7.922s-.02.64-.06.96c-.261,3.78-.58,5.421-1.121,6.041-.42.5-.899.681-1.439.761-.48.08-1.221.1-2.061.08-.04-.58-.2-1.36-.48-1.94-.6.819-1.26,1.56-1.94,2.08-.5-.54-1.34-1.2-2.061-1.601,1.44-.88,2.721-2.46,3.581-4.121h-.7c-1.08,1.82-2.921,3.761-4.601,4.821-.461-.58-1.221-1.28-1.9-1.7,1.359-.66,2.74-1.841,3.801-3.121h-.7c-.66.681-1.381,1.28-2.121,1.761-.319-.36-.96-.96-1.48-1.4-1.56.801-3.141,1.58-4.501,2.24l-1.06-2.94c.64-.22,1.44-.52,2.32-.86v-5.281h-1.841v-2.74h1.841v-3.841h2.7v3.841h1.681v2.74h-1.681v4.182l1.341-.561.439,1.74c.62-.54,1.2-1.16,1.661-1.84h-1.961v-2.421h12.703v2.421h-7.882ZM605.169,15.618h-9.702v-6.962h9.702v6.962ZM602.488,10.616h-4.461v.601h4.461v-.601ZM602.488,13.058h-4.461v.6h4.461v-.6ZM603.028,21.559c-.44,1.121-1.08,2.301-1.82,3.361.4.02.72.02.92.02.26,0,.42-.04.58-.24.24-.26.46-1.14.641-3.141h-.32Z"/><path class="cls-4" d="M620.327,8.216c2.181,3.121,5.262,5.542,8.482,6.762-.721.74-1.381,1.721-1.9,2.621-.961-.501-1.921-1.101-2.861-1.761v1.32h-10.002v-1.421c-.94.681-1.94,1.301-2.961,1.841-.38-.68-1.2-1.761-1.82-2.36,3.421-1.62,6.582-4.621,8.022-7.002h3.04ZM612.586,18.858h13.043v8.382h-3.001v-.7h-7.182v.7h-2.86v-8.382ZM615.446,21.399v2.601h7.182v-2.601h-7.182ZM622.428,14.617c-1.42-1.16-2.66-2.4-3.501-3.561-.84,1.181-2.021,2.4-3.421,3.561h6.922Z"/><path class="cls-5" d="M92.5,36c-9.925,0-18-8.075-18-18S82.575,0,92.5,0s18,8.075,18,18-8.075,18-18,18ZM92.5,1c-9.374,0-17,7.626-17,17s7.626,17,17,17,17-7.626,17-17S101.874,1,92.5,1Z"/><path class="cls-5" d="M96,21.5v-9h-3.111c-.13.648-.259,1.333-.407,2h2.317l.349-.071,1.266.372c-.661,5.725-2.587,9.731-5.394,11.716-.275-.479-.954-1.294-1.358-1.613,1.339-.886,2.404-2.198,3.211-3.917-.385-.443-1.028-1.01-1.596-1.453-.312.549-.661,1.046-1.064,1.489-.275-.408-.826-1.046-1.211-1.418v6.895h-2v-9.14s-1.064,1.031-1.437,1.457c-.16-.498-.675-1.724-1.013-2.275,1.44-1.653,2.737-4.248,3.519-6.843l1.955.587-.053.214h6.029v1h2v10h-2ZM89,19.226c.953-1.706,1.664-4.479,2.019-6.726h-1.019v-1.698c-.509,1.031-.936,2.062-1,3.075v5.35ZM91.657,16.5c-.178.533-.355,1.049-.551,1.546.498.355,1.066.782,1.475,1.173.249-.835.444-1.742.604-2.719h-1.529ZM101,10.5v13.863c0,1.12-.2,1.671-.873,2.008-.655.338-1.673.409-3.11.409-.073-.569-.364-1.493-.655-2.079.982.053,1.91.053,2.237.036.291-.018.4-.089.4-.391v-13.846h2Z"/></g></svg>