<svg xmlns="http://www.w3.org/2000/svg" width="200" height="14.87" viewBox="0 0 200 14.87"><defs><style>.cls-1{fill:#c0994c;}.cls-2{fill:#fff;}</style></defs><path class="cls-1" d="M142.82,14.38c-3.74,0-6.36-2.84-6.36-6.9V7.43c0-3.89,2.79-6.93,6.34-6.93a6.25,6.25,0,0,1,4.46,1.55l.15.14-1.45,2L145.79,4a4.43,4.43,0,0,0-3.08-1.18c-2.09,0-3.79,2.05-3.79,4.57v0c0,2.7,1.68,4.66,4,4.66a4.26,4.26,0,0,0,2.8-.95V8.78h-2.78V6.63h5v5.66l-.07.06A7.42,7.42,0,0,1,142.82,14.38Z"/><path class="cls-1" d="M158,14.13l-2.62-4.34a.2.2,0,0,0-.16-.1H152.8v4.44h-2.34V.74H156a4.46,4.46,0,0,1,3.5,1.35,4.21,4.21,0,0,1,1,3v0a4,4,0,0,1-2.53,4.08.21.21,0,0,0-.12.15.24.24,0,0,0,0,.23l2.8,4.56Zm-2.17-6.65a2.11,2.11,0,0,0,2.32-2.21v0A2.06,2.06,0,0,0,155.74,3H152.8V7.48Z"/><path class="cls-1" d="M168.6,14.38c-3.66,0-6.43-3-6.43-6.9V7.43c0-3.95,2.78-6.93,6.46-6.93s6.41,3,6.41,6.89v0C175,11.39,172.27,14.38,168.6,14.38Zm0-11.56c-2.26,0-4,2-4,4.57v0c0,2.63,1.72,4.62,4,4.62s4-2,4-4.57V7.43C172.58,4.84,170.83,2.82,168.6,2.82Z"/><path class="cls-1" d="M182.34,14.25c-3.36,0-5.21-2.11-5.21-5.94V.63h2.34V8.24c0,2.33,1.05,3.67,2.89,3.67s2.92-1.3,2.92-3.58V.63h2.34V8.21C187.62,12.1,185.74,14.25,182.34,14.25Z"/><path class="cls-1" d="M190,14.13V.74h5.15c3,0,4.83,1.75,4.83,4.56v0c0,2.82-2,4.64-5.1,4.64h-2.45v4.16Zm5-6.39a2.33,2.33,0,0,0,2.52-2.35A2.29,2.29,0,0,0,194.92,3h-2.47V7.74Z"/><polygon class="cls-1" points="4.29 6.2 6.44 4.96 8.59 3.72 10.73 2.48 8.59 1.24 6.44 0 4.29 1.24 2.15 2.48 0 3.72 0 6.2 0 8.68 2.15 7.44 4.29 6.2"/><polygon class="cls-1" points="17.17 8.68 19.32 7.44 21.47 6.2 23.61 4.96 25.76 3.72 23.61 2.48 21.47 1.24 19.32 0 17.17 1.24 15.03 2.48 12.88 3.72 10.73 4.96 8.59 6.2 6.44 7.44 4.29 8.68 2.15 9.91 0 11.15 2.15 12.39 4.29 13.63 6.44 14.87 8.59 13.63 10.73 12.39 12.88 11.15 15.03 9.91 17.17 8.68"/><polygon class="cls-1" points="21.47 8.68 19.32 9.91 17.17 11.15 15.03 12.39 17.17 13.63 19.32 14.87 21.47 13.63 23.61 12.39 25.76 11.15 25.76 8.68 25.76 6.2 23.61 7.44 21.47 8.68"/><path class="cls-2" d="M37.62,3.07a3.13,3.13,0,0,0-.7.08,2.07,2.07,0,0,0-.59.23,1.21,1.21,0,0,0-.54.65,1.22,1.22,0,0,0,.13.79,1.59,1.59,0,0,0,.47.4,4.09,4.09,0,0,0,.82.33l1.18.38.47.16a7.65,7.65,0,0,1,1.47.64,4.5,4.5,0,0,1,1.1.84,3.46,3.46,0,0,1,.7,1.08A3.4,3.4,0,0,1,42.38,10,3.5,3.5,0,0,1,42,11.72a4.28,4.28,0,0,1-1.13,1.34,5.42,5.42,0,0,1-1.65.87,6,6,0,0,1-1.94.32,5.62,5.62,0,0,1-2-.35,5.13,5.13,0,0,1-1.62-1,4,4,0,0,1-.74-.82,7.26,7.26,0,0,1-.44-.77c.14-.07,2.07-1.21,2.23-1.21a3.45,3.45,0,0,0,2.56,1.68,2.51,2.51,0,0,0,.84-.12,2.78,2.78,0,0,0,.81-.34,2.08,2.08,0,0,0,.61-.57,1.33,1.33,0,0,0,.24-.78,1.09,1.09,0,0,0-.23-.7,2,2,0,0,0-.59-.47,5.31,5.31,0,0,0-.83-.35l-.95-.32c-.49-.18-1-.36-1.46-.56a6,6,0,0,1-1.28-.74,3.47,3.47,0,0,1-.92-1.06,3.2,3.2,0,0,1-.34-1.55,3,3,0,0,1,.38-1.54,3.55,3.55,0,0,1,1-1.14A4.61,4.61,0,0,1,36,.85l.35-.09a5,5,0,0,1,3.63.53h0a6.79,6.79,0,0,1,1,.69,6.13,6.13,0,0,1,.77.75L39.85,4.16s-1.28-.84-1.41-.89A4.08,4.08,0,0,0,37.62,3.07Z"/><path class="cls-2" d="M76.58,8.75a2.83,2.83,0,0,0,.24,1.16,2.9,2.9,0,0,0,.66.95,3.11,3.11,0,0,0,1,.65,2.93,2.93,0,0,0,1.18.24,3,3,0,0,0,1.18-.24,3.11,3.11,0,0,0,1-.65,3.23,3.23,0,0,0,.66-.95,2.83,2.83,0,0,0,.24-1.16V.68h2.49V8.75A4.93,4.93,0,0,1,85,10.2a5.28,5.28,0,0,1-.55,1.29,4.91,4.91,0,0,1-.87,1.1,5.23,5.23,0,0,1-1.13.85,5.4,5.4,0,0,1-1.33.55,5.49,5.49,0,0,1-1.47.2,5.41,5.41,0,0,1-2.16-.43,5.7,5.7,0,0,1-1.76-1.17,5.46,5.46,0,0,1-1.19-1.72,5.23,5.23,0,0,1-.44-2.12V.68h2.49Z"/><path class="cls-2" d="M104.71,14.12h-2.49V.75h2.49Z"/><path class="cls-2" d="M106.77,3.11V.75h10.47V3.11h-4v11h-2.49v-11Z"/><path class="cls-2" d="M52.82.75,49.31,5.83,45.79.75H42.94s5.19,7.55,5.19,7.71v5.66h2.35V8.46c0-.16,5.19-7.71,5.19-7.71Z"/><path class="cls-2" d="M128.77.75l-3.52,5.08L121.74.75h-2.85s5.19,7.55,5.19,7.71v5.66h2.35V8.46c0-.16,5.19-7.71,5.19-7.71Z"/><path class="cls-2" d="M96.9.75v9.41C96.89,10.1,90,.75,90,.75H87.78V14.12h2.36V4.71c0,.06,6.93,9.41,6.93,9.41h2.2V.75Z"/><path class="cls-2" d="M68,.75s-3.73,10.06-3.74,10.11S60.47.75,60.47.75H56.91V14.12h2.38V4.4l3.85,9.72h2.14s3.79-9.54,3.85-9.72v9.72h2.38V.75Z"/></svg>
