<svg xmlns="http://www.w3.org/2000/svg" width="212.48" height="35.68" viewBox="0 0 212.48 35.68"><path fill="#fff" d="M32.25,4.56A4.65,4.65,0,0,1,34.49,5l.26.18c.49.35.21.84-.73,1.21l-2.46,1,11.72,7.81c1.08.63,1.27,1.58.39,2.32l-.84.68a6.46,6.46,0,0,1-3.73,1,7.12,7.12,0,0,1-3.89-.93L24.83,9.91,15,13.56a8.29,8.29,0,0,1-4,.26A4.33,4.33,0,0,1,8,12.35l-.26-.43C7.31,11.13,8,10.34,9.29,10L29.22,4.84a11.93,11.93,0,0,1,3-.28m7.52-.76c0-.6-1.09-1.09-2.43-1.09s-2.42.49-2.42,1.09S36,4.9,37.34,4.9s2.43-.49,2.43-1.1M28.23,0C43.81,0,56.45,5.59,56.45,12.48S43.81,25,28.23,25,0,19.37,0,12.48,12.64,0,28.23,0m0,23.23c14,0,25.4-5,25.4-11.23S42.26.77,28.23.77,2.82,5.8,2.82,12,14.2,23.23,28.23,23.23M62.76,5.93c-1.21,0-2.2.59-2.2,1.3s1,1.3,2.2,1.3,2.2.59,2.2,1.3v7.8c0,.72,1,1.3,2.2,1.3s2.2-.58,2.2-1.3V9.83c0-.71,1-1.3,2.2-1.3s2.21-.58,2.21-1.3-1-1.3-2.21-1.3Zm28.61,0c1.21,0,2.2.59,2.2,1.3v10.4c0,.72-1,1.3-2.2,1.3s-2.2-.58-2.2-1.3V15c0-.72-1-1.3-2.2-1.3s-2.2.58-2.2,1.3v2.62c0,.72-1,1.3-2.2,1.3s-2.21-.58-2.21-1.3V7.23c0-.71,1-1.3,2.21-1.3Zm-2.2,3.89c0-.71-1-1.29-2.2-1.29s-2.2.58-2.2,1.29,1,1.29,2.2,1.29,2.2-.58,2.2-1.29M142,5.93c-1.22,0-2.2.59-2.2,1.3v10.4c0,.72,1,1.3,2.2,1.3s2.2-.58,2.2-1.3V9.83c0-.71,1-1.3,2.2-1.3s2.2.59,2.2,1.3v7.8c0,.72,1,1.3,2.2,1.3s2.2-.58,2.2-1.3V7.23c0-.71-1-1.3-2.2-1.3Zm-19.82,0c-1.21,0-2.2.59-2.2,1.3v10.4c0,.72,1,1.3,2.2,1.3H131c1.21,0,2.2-.58,2.2-1.3s-1-1.3-2.2-1.3h-4.41c-1.21,0-2.2-.58-2.2-1.29s1-1.3,2.2-1.3H131c1.21,0,2.2-.58,2.2-1.3s-1-1.3-2.2-1.3h-4.41c-1.21,0-2.2-.58-2.2-1.3h0c0-.71,1-1.3,2.2-1.3H131c1.21,0,2.2-.58,2.2-1.3s-1-1.3-2.2-1.3Zm-11,0a2.88,2.88,0,0,0-2.81.74L105.6,10l-1,1.16s0-.58,0-1.3V7.23c0-.71-1-1.3-2.2-1.3s-2.2.59-2.2,1.3v10.4c0,.72,1,1.3,2.2,1.3s2.2-.58,2.2-1.3V15c0-.71,1-1.3,2.2-1.3S109,14.33,109,15v2.6c0,.72,1,1.3,2.2,1.3s2.2-.58,2.2-1.3v-5.2c0-.71-1-1.3-2.2-1.3S109.46,10.62,110,10l2-2.38c.55-.64.35-1.37-.78-1.67m79.24,0a2.88,2.88,0,0,0-2.81.74L184.84,10l-1,1.16V7.23c0-.71-1-1.3-2.21-1.3s-2.2.59-2.2,1.3v10.4c0,.72,1,1.3,2.2,1.3s2.21-.58,2.21-1.3V15c0-.71,1-1.3,2.2-1.3s2.2.59,2.2,1.3v2.6c0,.72,1,1.3,2.2,1.3s2.2-.58,2.2-1.3v-5.2c0-.71-1-1.3-2.2-1.3s-1.75-.52-1.21-1.16l2-2.38c.55-.64.35-1.37-.78-1.67m-19.82,0c1.21,0,2.2.59,2.2,1.3v10.4c0,.72-1,1.3-2.2,1.3s-2.2-.58-2.2-1.3V15c0-.72-1-1.3-2.2-1.3s-2.21.58-2.21,1.3v2.62c0,.72-1,1.3-2.2,1.3s-2.2-.58-2.2-1.3V7.23c0-.71,1-1.3,2.2-1.3Zm-2.2,3.89c0-.71-1-1.29-2.2-1.29s-2.21.58-2.21,1.29,1,1.29,2.21,1.29,2.2-.58,2.2-1.29m41.82-3.89c1.21,0,2.2.59,2.2,1.3v10.4c0,.72-1,1.3-2.2,1.3s-2.2-.58-2.2-1.3V15c0-.72-1-1.3-2.21-1.3s-2.2.58-2.2,1.3v2.62c0,.72-1,1.3-2.2,1.3s-2.2-.58-2.2-1.3V7.23c0-.71,1-1.3,2.2-1.3Zm-2.2,3.89c0-.71-1-1.29-2.21-1.29s-2.2.58-2.2,1.29,1,1.29,2.2,1.29,2.21-.58,2.21-1.29M72.51,34.52a.27.27,0,0,0-.23-.08h-2V29.52h1.9a.29.29,0,0,0,.23-.08.3.3,0,0,0,.07-.23v-.63a.26.26,0,0,0-.3-.3h-1.9V26.51a.33.33,0,0,0-.07-.23.32.32,0,0,0-.23-.07h-.65a.3.3,0,0,0-.23.07.3.3,0,0,0-.08.23v1.77H68.2a.26.26,0,0,0-.3.3v.63a.3.3,0,0,0,.07.23.29.29,0,0,0,.23.08h.86v4.91a1.07,1.07,0,0,0,1.25,1.25h2a.28.28,0,0,0,.31-.31v-.63A.27.27,0,0,0,72.51,34.52Zm6.67-6a1.29,1.29,0,0,0-1-.29h-3V26.51a.3.3,0,0,0-.08-.23.3.3,0,0,0-.23-.07h-.65a.32.32,0,0,0-.23.07.34.34,0,0,0-.08.23v8.86a.31.31,0,0,0,.08.23.29.29,0,0,0,.23.08h.65a.28.28,0,0,0,.31-.31V29.52h3v5.85a.28.28,0,0,0,.31.31h.65a.29.29,0,0,0,.23-.08.3.3,0,0,0,.07-.23V29.53A1.29,1.29,0,0,0,79.18,28.57Zm6.82,4a.29.29,0,0,0,.23-.08.29.29,0,0,0,.07-.22V29.53a1.06,1.06,0,0,0-1.25-1.25H82.41a1.07,1.07,0,0,0-1.26,1.25v4.9a1.31,1.31,0,0,0,.3,1,1.33,1.33,0,0,0,1,.29H86a.3.3,0,0,0,.23-.08.3.3,0,0,0,.07-.23v-.6a.3.3,0,0,0-.07-.23.3.3,0,0,0-.23-.08H82.42V32.62Zm-1-3.1v1.86H82.42V29.52Zm27.31-2.07-1,1.15v3.06l1,1.16h3.52l1-1.13V28.61l-1-1.16Zm24.3.06v5.26h3.5l1.09-1.11v-3l-1.11-1.12Zm11.12-2.83v11H95v-11ZM107.53,32.2,102,27.8l.27-.35h3.15l.8.8,1-1-1.11-1.13h-4.67L100,28.06l5.45,4.43-.25.34h-3.42L101,32l-1,1,1.15,1.15H106Zm10.68-4.09-1.76-2H111.8l-1.76,2v4.06l1.76,2h4.65l1.76-2Zm9.51,4.62h-4.78V26.17H121.5V34.1h6.22Zm4.11-6.56H130.4V34.1h1.43Zm10.95,1.95-1.94-1.95h-5.63V34.1h5.63l1.94-1.94Zm18.53,2.25v1.18a.51.51,0,0,1-.13.33l-.56.55a.46.46,0,0,1-.64,0l-1.58-1.61a.42.42,0,0,1-.13-.32v0c-.51,0-1,.05-1.48.09a.48.48,0,0,1-.13.3l-1.57,1.58a.45.45,0,0,1-.64,0l-.57-.57a.43.43,0,0,1-.14-.32v-.69c-.51.06-1,.14-1.46.21v1.12a.46.46,0,0,0,.13.31L154,34.13a1,1,0,0,0,1.46,0l1.73-1.8a.47.47,0,0,1,.66,0l1.74,1.81a1,1,0,0,0,1.46,0l1.61-1.66a.46.46,0,0,0,.13-.31v-1.8Zm-7.57-3.5a.46.46,0,0,0-.45-.46h-.55a.46.46,0,0,0-.46.46v3.3l1.46-.21Zm4.53.51a.47.47,0,0,0-.46-.46h-.56a.46.46,0,0,0-.46.46v2.29c.48,0,1-.07,1.48-.09Zm4.51,2.13V26.87a.47.47,0,0,0-.46-.46h-.55a.47.47,0,0,0-.46.46V29.5Zm5.16,1.34a.46.46,0,0,1-.43-.31l-1.45-.07v3.42a.47.47,0,0,0,.46.46H167a.47.47,0,0,0,.46-.46V32.56a.46.46,0,0,1,.45-.46h4.11a.47.47,0,0,1,.46.46v1.33a.46.46,0,0,0,.45.46h.53a.46.46,0,0,0,.45-.46v-2.8l-2.36-.24Zm-.45-1.43a.51.51,0,0,1,.13-.33l1.28-1.26a.48.48,0,0,1,.32-.13h1.55a.43.43,0,0,1,.32.14l1.28,1.27a.43.43,0,0,1,.14.32v.65l1.43.15V28.91a.42.42,0,0,0-.13-.32l-2.06-2.1a.47.47,0,0,0-.33-.14h-2.84a.43.43,0,0,0-.32.14l-2.07,2.11a.46.46,0,0,0-.13.32v.69l1.43.07Zm13.85-1.21a.47.47,0,0,1,.46-.46h1.39a.45.45,0,0,1,.32.14l.42.42a.46.46,0,0,0,.65,0l.4-.4a.45.45,0,0,0,0-.64l-.71-.72a.47.47,0,0,0-.33-.14h-6.62a.43.43,0,0,0-.32.14l-.72.72a.45.45,0,0,0,0,.64l.39.4a.46.46,0,0,0,.65,0l.42-.42a.45.45,0,0,1,.32-.14h1.39a.47.47,0,0,1,.46.46V31l1.43.15Zm-1.43,5.68a.46.46,0,0,0,.45.46h.53a.46.46,0,0,0,.45-.46V32l-1.43-.14ZM189.39,31H190c1.27-.12,2.49-.3,3.67-.5v-.43a.46.46,0,0,0-.46-.45h-3.79a.46.46,0,0,1-.46-.46v-1a.45.45,0,0,1,.46-.45h4.25a.47.47,0,0,0,.46-.46v-.44a.47.47,0,0,0-.46-.46H188a.47.47,0,0,0-.46.46v4.34c.55,0,1.09-.06,1.63-.11A.45.45,0,0,1,189.39,31Zm-1.89,2.87a.47.47,0,0,0,.46.46h5.73a.47.47,0,0,0,.46-.46v-.44a.47.47,0,0,0-.46-.46h-4.3a.45.45,0,0,1-.46-.45V32c-.47,0-1,.07-1.43.09Zm11.22-5.68a.46.46,0,0,1,.46-.46h3.57a.48.48,0,0,1,.32.13l.06.06,1.42-.55-.84-.84a.43.43,0,0,0-.32-.14h-5.66a.46.46,0,0,0-.46.46v2.88l1.45-.38Zm4.92.45v.76a.47.47,0,0,1-.14.33l-.69.68a.45.45,0,0,1-.32.14h-3.31a.46.46,0,0,1-.44-.33l-1.47.38v3.27a.46.46,0,0,0,.46.46h.53a.46.46,0,0,0,.46-.46V32.32a.45.45,0,0,1,.46-.45h3.33a.46.46,0,0,1,.32.13l.66.66a.45.45,0,0,1,.14.33v.9a.46.46,0,0,0,.45.46h.57a.46.46,0,0,0,.45-.46V32.48a.51.51,0,0,0-.13-.33l-.68-.66a.46.46,0,0,1,0-.65l.71-.71a.45.45,0,0,0,.14-.32V28.18s0-.07,0-.1Z"/></svg>
