<?xml version="1.0" encoding="utf-8"?>
<!-- Generator: Adobe Illustrator 28.0.0, SVG Export Plug-In . SVG Version: 6.00 Build 0)  -->
<svg version="1.1" xmlns="http://www.w3.org/2000/svg" xmlns:xlink="http://www.w3.org/1999/xlink" x="0px" y="0px"
	 viewBox="0 0 212.6 35.3" style="enable-background:new 0 0 212.6 35.3;" xml:space="preserve">
<style type="text/css">
	.st0{fill:#172449;}
	.st1{fill:#FFFFFF;}
</style>
<g id="レイヤー_2">
</g>
<g id="レイヤー_1">
	<g id="takenaka_x5F_solidwater_x5F_logo_00000048493403189668966210000000067182525913942433_">
		<g id="logo_00000135667867802522077140000004669735999697898420_">
			<path class="st0" d="M32.3,4.6c-1.1,0-2.2,0.1-3,0.3L9.3,10c-1.3,0.4-2,1.1-1.5,1.9L8,12.4c0.4,0.7,1.5,1.2,2.9,1.5
				c1.4,0.2,3,0.1,4-0.3l9.9-3.7l10.4,8.3c0.8,0.6,2.3,0.9,3.9,0.9c1.6,0,3-0.4,3.7-1l0.8-0.7c0.9-0.7,0.7-1.7-0.4-2.3L31.6,7.4
				l2.5-1C35,6,35.3,5.5,34.8,5.2L34.5,5C34.1,4.7,33.3,4.6,32.3,4.6"/>
			<path class="st0" d="M39.8,3.8c0,0.6-1.1,1.1-2.4,1.1c-1.3,0-2.4-0.5-2.4-1.1c0-0.6,1.1-1.1,2.4-1.1C38.7,2.7,39.8,3.2,39.8,3.8"
				/>
			<path class="st0" d="M28.2,0C12.6,0,0,5.6,0,12.5C0,19.4,12.6,25,28.2,25c15.6,0,28.2-5.6,28.2-12.5C56.5,5.6,43.8,0,28.2,0
				 M28.2,23.2c-14,0-25.4-5-25.4-11.2S14.2,0.8,28.2,0.8c14,0,25.4,5,25.4,11.2S42.3,23.2,28.2,23.2"/>
		</g>
		<g id="takenaka_x5F_solidwater_00000115496248303607994270000014266603073892101518_">
			<g id="takenaka_00000130631315274571247940000017060175318688061061_">
				<path class="st0" d="M62.8,5.9c-1.2,0-2.2,0.6-2.2,1.3c0,0.7,1,1.3,2.2,1.3S65,9.1,65,9.8v7.8c0,0.7,1,1.3,2.2,1.3
					c1.2,0,2.2-0.6,2.2-1.3V9.8c0-0.7,1-1.3,2.2-1.3c1.2,0,2.2-0.6,2.2-1.3c0-0.7-1-1.3-2.2-1.3H62.8z"/>
				<path class="st0" d="M82.6,5.9c-1.2,0-2.2,0.6-2.2,1.3v10.4c0,0.7,1,1.3,2.2,1.3c1.2,0,2.2-0.6,2.2-1.3V15c0-0.7,1-1.3,2.2-1.3
					c1.2,0,2.2,0.6,2.2,1.3v2.6c0,0.7,1,1.3,2.2,1.3c1.2,0,2.2-0.6,2.2-1.3V7.2c0-0.7-1-1.3-2.2-1.3H82.6z M89.2,9.8
					c0,0.7-1,1.3-2.2,1.3c-1.2,0-2.2-0.6-2.2-1.3c0-0.7,1-1.3,2.2-1.3C88.2,8.5,89.2,9.1,89.2,9.8"/>
				<path class="st0" d="M142.1,5.9c-1.2,0-2.2,0.6-2.2,1.3v10.4c0,0.7,1,1.3,2.2,1.3c1.2,0,2.2-0.6,2.2-1.3V9.8
					c0-0.7,1-1.3,2.2-1.3c1.2,0,2.2,0.6,2.2,1.3v7.8c0,0.7,1,1.3,2.2,1.3c1.2,0,2.2-0.6,2.2-1.3V7.2c0-0.7-1-1.3-2.2-1.3H142.1z"/>
				<path class="st0" d="M122.3,5.9c-1.2,0-2.2,0.6-2.2,1.3v10.4c0,0.7,1,1.3,2.2,1.3h8.8c1.2,0,2.2-0.6,2.2-1.3
					c0-0.7-1-1.3-2.2-1.3h-4.4c-1.2,0-2.2-0.6-2.2-1.3c0-0.7,1-1.3,2.2-1.3h4.4c1.2,0,2.2-0.6,2.2-1.3c0-0.7-1-1.3-2.2-1.3h-4.4
					c-1.2,0-2.2-0.6-2.2-1.3v0c0-0.7,1-1.3,2.2-1.3h4.4c1.2,0,2.2-0.6,2.2-1.3c0-0.7-1-1.3-2.2-1.3H122.3z"/>
				<path class="st0" d="M111.3,5.9c-1.1-0.3-2.3,0.1-2.8,0.7l-2.8,3.3c-0.5,0.6-1,1.2-1,1.2c0,0,0-0.6,0-1.3V7.2
					c0-0.7-1-1.3-2.2-1.3c-1.2,0-2.2,0.6-2.2,1.3v10.4c0,0.7,1,1.3,2.2,1.3c1.2,0,2.2-0.6,2.2-1.3v-2.6c0-0.7,1-1.3,2.2-1.3
					c1.2,0,2.2,0.6,2.2,1.3v2.6c0,0.7,1,1.3,2.2,1.3c1.2,0,2.2-0.6,2.2-1.3v-5.2c0-0.7-1-1.3-2.2-1.3c-1.2,0-1.8-0.5-1.2-1.2l2-2.4
					C112.6,7,112.4,6.2,111.3,5.9"/>
				<path class="st0" d="M190.6,5.9c-1.1-0.3-2.3,0.1-2.8,0.7l-2.8,3.3c-0.5,0.6-1,1.2-1,1.2c0,0,0-0.6,0-1.3V7.2
					c0-0.7-1-1.3-2.2-1.3c-1.2,0-2.2,0.6-2.2,1.3v10.4c0,0.7,1,1.3,2.2,1.3c1.2,0,2.2-0.6,2.2-1.3v-2.6c0-0.7,1-1.3,2.2-1.3
					c1.2,0,2.2,0.6,2.2,1.3v2.6c0,0.7,1,1.3,2.2,1.3c1.2,0,2.2-0.6,2.2-1.3v-5.2c0-0.7-1-1.3-2.2-1.3c-1.2,0-1.8-0.5-1.2-1.2l2-2.4
					C191.9,7,191.7,6.2,190.6,5.9"/>
				<path class="st0" d="M161.9,5.9c-1.2,0-2.2,0.6-2.2,1.3v10.4c0,0.7,1,1.3,2.2,1.3c1.2,0,2.2-0.6,2.2-1.3V15c0-0.7,1-1.3,2.2-1.3
					c1.2,0,2.2,0.6,2.2,1.3v2.6c0,0.7,1,1.3,2.2,1.3c1.2,0,2.2-0.6,2.2-1.3V7.2c0-0.7-1-1.3-2.2-1.3H161.9z M168.6,9.8
					c0,0.7-1,1.3-2.2,1.3c-1.2,0-2.2-0.6-2.2-1.3c0-0.7,1-1.3,2.2-1.3C167.6,8.5,168.6,9.1,168.6,9.8"/>
				<path class="st0" d="M201.6,5.9c-1.2,0-2.2,0.6-2.2,1.3v10.4c0,0.7,1,1.3,2.2,1.3c1.2,0,2.2-0.6,2.2-1.3V15c0-0.7,1-1.3,2.2-1.3
					c1.2,0,2.2,0.6,2.2,1.3v2.6c0,0.7,1,1.3,2.2,1.3c1.2,0,2.2-0.6,2.2-1.3V7.2c0-0.7-1-1.3-2.2-1.3H201.6z M208.2,9.8
					c0,0.7-1,1.3-2.2,1.3c-1.2,0-2.2-0.6-2.2-1.3c0-0.7,1-1.3,2.2-1.3C207.2,8.5,208.2,9.1,208.2,9.8"/>
			</g>
			<g id="solidwater_00000003093183580961337140000010981355884337610396_">
				<g>
					<path class="st0" d="M94.8,27.4c-0.1,0-0.2,0-0.3,0c-0.1,0-0.2,0.1-0.3,0.1c-0.1,0-0.2,0.1-0.2,0.2c-0.1,0.1-0.1,0.2-0.1,0.3
						c0,0.1,0,0.3,0.1,0.3c0.1,0.1,0.2,0.2,0.3,0.2c0.2,0.1,0.3,0.1,0.6,0.2c0.2,0.1,0.5,0.1,0.8,0.2c0.4,0.1,0.7,0.3,1,0.5
						c0.3,0.2,0.6,0.4,0.8,0.7c0.2,0.3,0.4,0.5,0.5,0.9c0.1,0.3,0.2,0.7,0.2,1.1c0,0.5-0.1,0.9-0.3,1.3c-0.2,0.4-0.5,0.7-0.8,1
						c-0.3,0.3-0.7,0.5-1.2,0.7c-0.4,0.2-0.9,0.2-1.4,0.2c-0.4,0-0.8-0.1-1.2-0.2c-0.4-0.1-0.7-0.3-1-0.5c-0.3-0.2-0.6-0.5-0.8-0.8
						c-0.2-0.3-0.4-0.6-0.5-1l0.7-0.4c0.1-0.1,0.2-0.1,0.4-0.2c0.1,0,0.3-0.1,0.4-0.1c0.2,0,0.4,0,0.5,0.1c0.2,0.1,0.3,0.2,0.5,0.3
						c0.2,0.1,0.3,0.2,0.5,0.3c0.2,0.1,0.3,0.1,0.6,0.1c0.1,0,0.3,0,0.5-0.1c0.2,0,0.3-0.1,0.5-0.2s0.3-0.2,0.3-0.3
						c0.1-0.1,0.1-0.3,0.1-0.4c0-0.2,0-0.3-0.1-0.4c-0.1-0.1-0.2-0.2-0.3-0.3c-0.1-0.1-0.3-0.1-0.5-0.2c-0.2-0.1-0.4-0.1-0.6-0.2
						c-0.3-0.1-0.7-0.3-1-0.4c-0.3-0.2-0.6-0.3-0.9-0.6c-0.3-0.2-0.5-0.5-0.6-0.8c-0.2-0.3-0.2-0.7-0.2-1.2c0-0.5,0.1-0.9,0.3-1.2
						c0.2-0.4,0.4-0.6,0.7-0.9c0.3-0.2,0.6-0.4,1-0.6c0.4-0.1,0.8-0.2,1.2-0.2c0.3,0,0.6,0,0.9,0.1c0.3,0.1,0.5,0.2,0.8,0.4
						c0.2,0.2,0.5,0.3,0.7,0.5c0.2,0.2,0.4,0.4,0.6,0.6L97,27.5c-0.1,0.1-0.3,0.2-0.4,0.3c-0.2,0.1-0.3,0.1-0.5,0.1
						c-0.1,0-0.3,0-0.4-0.1c-0.1,0-0.2-0.1-0.3-0.1c-0.1,0-0.2-0.1-0.3-0.1C95,27.5,94.9,27.4,94.8,27.4L94.8,27.4z"/>
					<path class="st0" d="M99.3,30.2c0-0.5,0.1-0.9,0.2-1.4c0.1-0.4,0.3-0.8,0.5-1.2c0.2-0.4,0.5-0.7,0.8-1c0.3-0.3,0.7-0.6,1-0.8
						c0.4-0.2,0.8-0.4,1.2-0.5c0.4-0.1,0.9-0.2,1.3-0.2c0.5,0,0.9,0.1,1.3,0.2c0.4,0.1,0.8,0.3,1.2,0.5c0.4,0.2,0.7,0.5,1,0.8
						c0.3,0.3,0.6,0.7,0.8,1c0.2,0.4,0.4,0.8,0.5,1.2c0.1,0.4,0.2,0.9,0.2,1.4s-0.1,0.9-0.2,1.4c-0.1,0.4-0.3,0.8-0.5,1.2
						c-0.2,0.4-0.5,0.7-0.8,1c-0.3,0.3-0.7,0.6-1,0.8c-0.4,0.2-0.8,0.4-1.2,0.5c-0.4,0.1-0.9,0.2-1.3,0.2c-0.5,0-0.9-0.1-1.3-0.2
						c-0.4-0.1-0.8-0.3-1.2-0.5c-0.4-0.2-0.7-0.5-1-0.8c-0.3-0.3-0.6-0.7-0.8-1c-0.2-0.4-0.4-0.8-0.5-1.2
						C99.4,31.1,99.3,30.7,99.3,30.2L99.3,30.2z M101.6,30.2c0,0.4,0.1,0.7,0.2,1.1c0.2,0.3,0.4,0.6,0.6,0.9
						c0.3,0.3,0.6,0.5,0.9,0.6c0.3,0.1,0.7,0.2,1.1,0.2c0.4,0,0.7-0.1,1.1-0.2c0.3-0.1,0.6-0.3,0.9-0.6c0.3-0.3,0.5-0.6,0.6-0.9
						c0.2-0.3,0.2-0.7,0.2-1.1c0-0.4-0.1-0.7-0.2-1.1c-0.2-0.3-0.4-0.6-0.6-0.9c-0.3-0.3-0.6-0.5-0.9-0.6c-0.3-0.1-0.7-0.2-1.1-0.2
						c-0.4,0-0.7,0.1-1.1,0.2c-0.3,0.1-0.6,0.3-0.9,0.6c-0.3,0.3-0.5,0.6-0.6,0.9C101.6,29.5,101.6,29.8,101.6,30.2z"/>
					<path class="st0" d="M111.3,35.2v-10h2.3v7.8h3.9v2.1L111.3,35.2L111.3,35.2z"/>
					<path class="st0" d="M121.4,35.2h-2.3v-10h0.7c0.9,0,1.6,0.7,1.6,1.6V35.2z"/>
					<path class="st0" d="M124.1,35.2v-10h4.1c0.5,0,0.9,0.1,1.3,0.2s0.8,0.3,1.2,0.5c0.4,0.2,0.7,0.5,1,0.8c0.3,0.3,0.6,0.6,0.8,1
						c0.2,0.4,0.4,0.8,0.5,1.2c0.1,0.4,0.2,0.9,0.2,1.3c0,0.5-0.1,0.9-0.2,1.3c-0.1,0.4-0.3,0.8-0.5,1.2c-0.2,0.4-0.5,0.7-0.8,1
						c-0.3,0.3-0.6,0.6-1,0.8c-0.4,0.2-0.8,0.4-1.2,0.5c-0.4,0.1-0.9,0.2-1.3,0.2H124.1L124.1,35.2z M128.2,32.9
						c0.4,0,0.7-0.1,1-0.2c0.3-0.1,0.6-0.3,0.9-0.6c0.2-0.2,0.4-0.5,0.6-0.9c0.1-0.3,0.2-0.7,0.2-1.1s-0.1-0.7-0.2-1.1
						c-0.1-0.3-0.3-0.6-0.6-0.9c-0.3-0.2-0.5-0.4-0.9-0.6c-0.3-0.1-0.7-0.2-1-0.2h-1.8v5.4L128.2,32.9L128.2,32.9z"/>
					<path class="st0" d="M150.6,25.2h1.9l4.3,10h-1.5c-0.2,0-0.3,0-0.4-0.1c-0.1,0-0.3-0.1-0.4-0.2c-0.1-0.1-0.2-0.2-0.3-0.3
						c-0.1-0.1-0.2-0.2-0.2-0.4l-0.5-1.1h-3.9l-0.5,1.1c-0.1,0.1-0.1,0.2-0.2,0.3c-0.1,0.1-0.2,0.2-0.3,0.3
						c-0.1,0.1-0.3,0.1-0.4,0.2c-0.1,0-0.3,0.1-0.4,0.1h-1.5L150.6,25.2z M150.5,31.2h2.1l-0.9-2.1c0-0.1-0.1-0.2-0.1-0.3
						c0-0.1,0-0.2-0.1-0.2c0-0.1,0-0.1,0-0.2c0,0.1,0,0.1,0,0.2c0,0.1,0,0.1-0.1,0.2c0,0.1-0.1,0.2-0.1,0.3L150.5,31.2L150.5,31.2z"
						/>
					<path class="st0" d="M155.9,27.4v-2.1h7.8v2.1h-2.7v7.8h-2.3v-7.8H155.9L155.9,27.4z"/>
					<path class="st0" d="M171.7,35.2h-6.6v-10h6.6v2.1h-4.3v1.7h3.5v2.1h-3.5v1.8h4.3V35.2z"/>
					<path class="st0" d="M176,35.2h-2.3v-10h3.9c0.4,0,0.7,0,1,0.1s0.6,0.2,0.9,0.4c0.3,0.2,0.5,0.4,0.7,0.6
						c0.2,0.2,0.4,0.5,0.5,0.7c0.1,0.3,0.2,0.5,0.3,0.8s0.1,0.5,0.1,0.8s0,0.5-0.1,0.8c-0.1,0.3-0.1,0.5-0.3,0.8
						c-0.1,0.3-0.3,0.5-0.5,0.7c-0.2,0.2-0.4,0.4-0.7,0.6l2.6,3.6h-1.9c0,0-0.1,0-0.2,0c-0.1,0-0.2,0-0.3-0.1
						c-0.1,0-0.3-0.1-0.4-0.2c-0.1-0.1-0.3-0.2-0.4-0.4l-1.7-2.3H176L176,35.2L176,35.2z M177.8,29.9c0.1,0,0.3,0,0.4-0.1
						c0.1-0.1,0.2-0.2,0.3-0.3c0.1-0.1,0.2-0.2,0.2-0.4c0.1-0.1,0.1-0.3,0.1-0.4c0-0.1,0-0.3-0.1-0.4c-0.1-0.1-0.1-0.3-0.2-0.4
						c-0.1-0.1-0.2-0.2-0.3-0.3c-0.1-0.1-0.3-0.1-0.4-0.1H176v2.4L177.8,29.9L177.8,29.9z"/>
					<path class="st0" d="M139.8,33.2l-1,2.1L133,25.2h3.2l3.6,6.4C140,32.1,140,32.7,139.8,33.2L139.8,33.2z"/>
					<path class="st0" d="M145.6,33.2l-1,2.1l-5.8-10.2h3.2l3.6,6.4C145.8,32.1,145.8,32.7,145.6,33.2L145.6,33.2z"/>
				</g>
			</g>
		</g>
	</g>
</g>
</svg>
