<?xml version="1.0" encoding="UTF-8"?>
<svg id="_レイヤー_2" data-name="レイヤー 2" xmlns="http://www.w3.org/2000/svg" viewBox="0 0 706 321">
  <defs>
    <style>
      .cls-1 {
        fill: #4b5654;
      }

      .cls-1, .cls-2, .cls-3, .cls-4, .cls-5, .cls-6 {
        stroke-width: 0px;
      }

      .cls-7 {
        stroke: #ddd;
        stroke-linecap: round;
        stroke-linejoin: round;
        stroke-width: 10px;
      }

      .cls-7, .cls-8 {
        fill: none;
      }

      .cls-2 {
        fill: #dd6743;
      }

      .cls-3 {
        fill: #bc4646;
      }

      .cls-4 {
        fill: #fff;
      }

      .cls-5 {
        fill: #4f6ab7;
      }

      .cls-8 {
        stroke: #4b5654;
        stroke-miterlimit: 10;
      }

      .cls-6 {
        fill: #f2f2f2;
      }
    </style>
  </defs>
  <g id="_コンテンツ" data-name="コンテンツ">
    <rect class="cls-2" x="504" y="246.5" width="101" height="74"/>
    <path class="cls-1" d="M605.29,320.5h-1v-3h1v3ZM504.57,320.5h-1v-3h1v3ZM403.86,320.5h-1v-3h1v3ZM303.14,320.5h-1v-3h1v3ZM202.43,320.5h-1v-3h1v3ZM101.71,320.5h-1v-3h1v3ZM605.29,314.5h-1v-3h1v3ZM504.57,314.5h-1v-3h1v3ZM403.86,314.5h-1v-3h1v3ZM303.14,314.5h-1v-3h1v3ZM202.43,314.5h-1v-3h1v3ZM101.71,314.5h-1v-3h1v3ZM605.29,308.5h-1v-3h1v3ZM504.57,308.5h-1v-3h1v3ZM403.86,308.5h-1v-3h1v3ZM303.14,308.5h-1v-3h1v3ZM202.43,308.5h-1v-3h1v3ZM101.71,308.5h-1v-3h1v3ZM605.29,302.5h-1v-3h1v3ZM504.57,302.5h-1v-3h1v3ZM403.86,302.5h-1v-3h1v3ZM303.14,302.5h-1v-3h1v3ZM202.43,302.5h-1v-3h1v3ZM101.71,302.5h-1v-3h1v3ZM605.29,296.5h-1v-3h1v3ZM504.57,296.5h-1v-3h1v3ZM403.86,296.5h-1v-3h1v3ZM303.14,296.5h-1v-3h1v3ZM202.43,296.5h-1v-3h1v3ZM101.71,296.5h-1v-3h1v3ZM605.29,290.5h-1v-3h1v3ZM504.57,290.5h-1v-3h1v3ZM403.86,290.5h-1v-3h1v3ZM303.14,290.5h-1v-3h1v3ZM202.43,290.5h-1v-3h1v3ZM101.71,290.5h-1v-3h1v3ZM605.29,284.5h-1v-3h1v3ZM504.57,284.5h-1v-3h1v3ZM403.86,284.5h-1v-3h1v3ZM303.14,284.5h-1v-3h1v3ZM202.43,284.5h-1v-3h1v3ZM101.71,284.5h-1v-3h1v3ZM605.29,278.5h-1v-3h1v3ZM504.57,278.5h-1v-3h1v3ZM403.86,278.5h-1v-3h1v3ZM303.14,278.5h-1v-3h1v3ZM202.43,278.5h-1v-3h1v3ZM101.71,278.5h-1v-3h1v3ZM605.29,272.5h-1v-3h1v3ZM504.57,272.5h-1v-3h1v3ZM403.86,272.5h-1v-3h1v3ZM303.14,272.5h-1v-3h1v3ZM202.43,272.5h-1v-3h1v3ZM101.71,272.5h-1v-3h1v3ZM605.29,266.5h-1v-3h1v3ZM504.57,266.5h-1v-3h1v3ZM403.86,266.5h-1v-3h1v3ZM303.14,266.5h-1v-3h1v3ZM202.43,266.5h-1v-3h1v3ZM101.71,266.5h-1v-3h1v3ZM605.29,260.5h-1v-3h1v3ZM504.57,260.5h-1v-3h1v3ZM403.86,260.5h-1v-3h1v3ZM303.14,260.5h-1v-3h1v3ZM202.43,260.5h-1v-3h1v3ZM101.71,260.5h-1v-3h1v3ZM605.29,254.5h-1v-3h1v3ZM504.57,254.5h-1v-3h1v3ZM403.86,254.5h-1v-3h1v3ZM303.14,254.5h-1v-3h1v3ZM202.43,254.5h-1v-3h1v3ZM101.71,254.5h-1v-3h1v3ZM605.29,248.5h-1v-3h1v3ZM504.57,248.5h-1v-3h1v1.17h2.93v1h-2.93v.83ZM403.86,248.5h-1v-.83h-.36v-1h.36v-1.17h1v1.17h1.64v1h-1.64v.83ZM303.14,248.5h-1v-.83h-1.64v-1h1.64v-1.17h1v1.17h.36v1h-.36v.83ZM202.43,248.5h-1v-.83h-2.93v-1h2.93v-1.17h1v3ZM101.71,248.5h-1v-3h1v3ZM705.5,247.67h-3v-1h3v1ZM699.5,247.67h-3v-1h3v1ZM693.5,247.67h-3v-1h3v1ZM687.5,247.67h-3v-1h3v1ZM681.5,247.67h-3v-1h3v1ZM675.5,247.67h-3v-1h3v1ZM669.5,247.67h-3v-1h3v1ZM663.5,247.67h-3v-1h3v1ZM657.5,247.67h-3v-1h3v1ZM651.5,247.67h-3v-1h3v1ZM645.5,247.67h-3v-1h3v1ZM639.5,247.67h-3v-1h3v1ZM633.5,247.67h-3v-1h3v1ZM627.5,247.67h-3v-1h3v1ZM621.5,247.67h-3v-1h3v1ZM615.5,247.67h-3v-1h3v1ZM609.5,247.67h-3v-1h3v1ZM603.5,247.67h-3v-1h3v1ZM597.5,247.67h-3v-1h3v1ZM591.5,247.67h-3v-1h3v1ZM585.5,247.67h-3v-1h3v1ZM579.5,247.67h-3v-1h3v1ZM573.5,247.67h-3v-1h3v1ZM567.5,247.67h-3v-1h3v1ZM561.5,247.67h-3v-1h3v1ZM555.5,247.67h-3v-1h3v1ZM549.5,247.67h-3v-1h3v1ZM543.5,247.67h-3v-1h3v1ZM537.5,247.67h-3v-1h3v1ZM531.5,247.67h-3v-1h3v1ZM525.5,247.67h-3v-1h3v1ZM519.5,247.67h-3v-1h3v1ZM513.5,247.67h-3v-1h3v1ZM501.5,247.67h-3v-1h3v1ZM495.5,247.67h-3v-1h3v1ZM489.5,247.67h-3v-1h3v1ZM483.5,247.67h-3v-1h3v1ZM477.5,247.67h-3v-1h3v1ZM471.5,247.67h-3v-1h3v1ZM465.5,247.67h-3v-1h3v1ZM459.5,247.67h-3v-1h3v1ZM453.5,247.67h-3v-1h3v1ZM447.5,247.67h-3v-1h3v1ZM441.5,247.67h-3v-1h3v1ZM435.5,247.67h-3v-1h3v1ZM429.5,247.67h-3v-1h3v1ZM423.5,247.67h-3v-1h3v1ZM417.5,247.67h-3v-1h3v1ZM411.5,247.67h-3v-1h3v1ZM399.5,247.67h-3v-1h3v1ZM393.5,247.67h-3v-1h3v1ZM387.5,247.67h-3v-1h3v1ZM381.5,247.67h-3v-1h3v1ZM375.5,247.67h-3v-1h3v1ZM369.5,247.67h-3v-1h3v1ZM363.5,247.67h-3v-1h3v1ZM357.5,247.67h-3v-1h3v1ZM351.5,247.67h-3v-1h3v1ZM345.5,247.67h-3v-1h3v1ZM339.5,247.67h-3v-1h3v1ZM333.5,247.67h-3v-1h3v1ZM327.5,247.67h-3v-1h3v1ZM321.5,247.67h-3v-1h3v1ZM315.5,247.67h-3v-1h3v1ZM309.5,247.67h-3v-1h3v1ZM297.5,247.67h-3v-1h3v1ZM291.5,247.67h-3v-1h3v1ZM285.5,247.67h-3v-1h3v1ZM279.5,247.67h-3v-1h3v1ZM273.5,247.67h-3v-1h3v1ZM267.5,247.67h-3v-1h3v1ZM261.5,247.67h-3v-1h3v1ZM255.5,247.67h-3v-1h3v1ZM249.5,247.67h-3v-1h3v1ZM243.5,247.67h-3v-1h3v1ZM237.5,247.67h-3v-1h3v1ZM231.5,247.67h-3v-1h3v1ZM225.5,247.67h-3v-1h3v1ZM219.5,247.67h-3v-1h3v1ZM213.5,247.67h-3v-1h3v1ZM207.5,247.67h-3v-1h3v1ZM195.5,247.67h-3v-1h3v1ZM189.5,247.67h-3v-1h3v1ZM183.5,247.67h-3v-1h3v1ZM177.5,247.67h-3v-1h3v1ZM171.5,247.67h-3v-1h3v1ZM165.5,247.67h-3v-1h3v1ZM159.5,247.67h-3v-1h3v1ZM153.5,247.67h-3v-1h3v1ZM147.5,247.67h-3v-1h3v1ZM141.5,247.67h-3v-1h3v1ZM135.5,247.67h-3v-1h3v1ZM129.5,247.67h-3v-1h3v1ZM123.5,247.67h-3v-1h3v1ZM117.5,247.67h-3v-1h3v1ZM111.5,247.67h-3v-1h3v1ZM105.5,247.67h-3v-1h3v1ZM99.5,247.67h-3v-1h3v1ZM93.5,247.67h-3v-1h3v1ZM87.5,247.67h-3v-1h3v1ZM81.5,247.67h-3v-1h3v1ZM75.5,247.67h-3v-1h3v1ZM69.5,247.67h-3v-1h3v1ZM63.5,247.67h-3v-1h3v1ZM57.5,247.67h-3v-1h3v1ZM51.5,247.67h-3v-1h3v1ZM45.5,247.67h-3v-1h3v1ZM39.5,247.67h-3v-1h3v1ZM33.5,247.67h-3v-1h3v1ZM27.5,247.67h-3v-1h3v1ZM21.5,247.67h-3v-1h3v1ZM15.5,247.67h-3v-1h3v1ZM9.5,247.67h-3v-1h3v1ZM3.5,247.67H.5v-1h3v1ZM605.29,242.5h-1v-3h1v3ZM504.57,242.5h-1v-3h1v3ZM403.86,242.5h-1v-3h1v3ZM303.14,242.5h-1v-3h1v3ZM202.43,242.5h-1v-3h1v3ZM101.71,242.5h-1v-3h1v3ZM605.29,236.5h-1v-3h1v3ZM504.57,236.5h-1v-3h1v3ZM403.86,236.5h-1v-3h1v3ZM303.14,236.5h-1v-3h1v3ZM202.43,236.5h-1v-3h1v3ZM101.71,236.5h-1v-3h1v3ZM605.29,230.5h-1v-3h1v3ZM504.57,230.5h-1v-3h1v3ZM403.86,230.5h-1v-3h1v3ZM303.14,230.5h-1v-3h1v3ZM202.43,230.5h-1v-3h1v3ZM101.71,230.5h-1v-3h1v3ZM605.29,224.5h-1v-3h1v3ZM504.57,224.5h-1v-3h1v3ZM403.86,224.5h-1v-3h1v3ZM303.14,224.5h-1v-3h1v3ZM202.43,224.5h-1v-3h1v3ZM101.71,224.5h-1v-3h1v3ZM605.29,218.5h-1v-3h1v3ZM504.57,218.5h-1v-3h1v3ZM403.86,218.5h-1v-3h1v3ZM303.14,218.5h-1v-3h1v3ZM202.43,218.5h-1v-3h1v3ZM101.71,218.5h-1v-3h1v3ZM605.29,212.5h-1v-3h1v3ZM504.57,212.5h-1v-3h1v3ZM403.86,212.5h-1v-3h1v3ZM303.14,212.5h-1v-3h1v3ZM202.43,212.5h-1v-3h1v3ZM101.71,212.5h-1v-3h1v3ZM605.29,206.5h-1v-3h1v3ZM504.57,206.5h-1v-3h1v3ZM403.86,206.5h-1v-3h1v3ZM303.14,206.5h-1v-3h1v3ZM202.43,206.5h-1v-3h1v3ZM101.71,206.5h-1v-3h1v3ZM605.29,200.5h-1v-3h1v3ZM504.57,200.5h-1v-3h1v3ZM403.86,200.5h-1v-3h1v3ZM303.14,200.5h-1v-3h1v3ZM202.43,200.5h-1v-3h1v3ZM101.71,200.5h-1v-3h1v3ZM605.29,194.5h-1v-3h1v3ZM504.57,194.5h-1v-3h1v3ZM403.86,194.5h-1v-3h1v3ZM303.14,194.5h-1v-3h1v3ZM202.43,194.5h-1v-3h1v3ZM101.71,194.5h-1v-3h1v3ZM605.29,188.5h-1v-3h1v3ZM504.57,188.5h-1v-3h1v3ZM403.86,188.5h-1v-3h1v3ZM303.14,188.5h-1v-3h1v3ZM202.43,188.5h-1v-3h1v3ZM101.71,188.5h-1v-3h1v3ZM605.29,182.5h-1v-3h1v3ZM504.57,182.5h-1v-3h1v3ZM403.86,182.5h-1v-3h1v3ZM303.14,182.5h-1v-3h1v3ZM202.43,182.5h-1v-3h1v3ZM101.71,182.5h-1v-3h1v3ZM605.29,176.5h-1v-3h1v3ZM504.57,176.5h-1v-3h.93v-.17h3v1h-2.93v2.17ZM403.86,176.5h-1v-2.17h-.36v-1h3v1h-1.64v2.17ZM303.14,176.5h-1v-2.17h-1.64v-1h3v1h-.36v2.17ZM202.43,176.5h-1v-2.17h-2.93v-1h3v.17h.93v3ZM101.71,176.5h-1v-3h1v3ZM705.5,174.33h-3v-1h3v1ZM699.5,174.33h-3v-1h3v1ZM693.5,174.33h-3v-1h3v1ZM687.5,174.33h-3v-1h3v1ZM681.5,174.33h-3v-1h3v1ZM675.5,174.33h-3v-1h3v1ZM669.5,174.33h-3v-1h3v1ZM663.5,174.33h-3v-1h3v1ZM657.5,174.33h-3v-1h3v1ZM651.5,174.33h-3v-1h3v1ZM645.5,174.33h-3v-1h3v1ZM639.5,174.33h-3v-1h3v1ZM633.5,174.33h-3v-1h3v1ZM627.5,174.33h-3v-1h3v1ZM621.5,174.33h-3v-1h3v1ZM615.5,174.33h-3v-1h3v1ZM609.5,174.33h-3v-1h3v1ZM603.5,174.33h-3v-1h3v1ZM597.5,174.33h-3v-1h3v1ZM591.5,174.33h-3v-1h3v1ZM585.5,174.33h-3v-1h3v1ZM579.5,174.33h-3v-1h3v1ZM573.5,174.33h-3v-1h3v1ZM567.5,174.33h-3v-1h3v1ZM561.5,174.33h-3v-1h3v1ZM555.5,174.33h-3v-1h3v1ZM549.5,174.33h-3v-1h3v1ZM543.5,174.33h-3v-1h3v1ZM537.5,174.33h-3v-1h3v1ZM531.5,174.33h-3v-1h3v1ZM525.5,174.33h-3v-1h3v1ZM519.5,174.33h-3v-1h3v1ZM513.5,174.33h-3v-1h3v1ZM501.5,174.33h-3v-1h3v1ZM495.5,174.33h-3v-1h3v1ZM489.5,174.33h-3v-1h3v1ZM483.5,174.33h-3v-1h3v1ZM477.5,174.33h-3v-1h3v1ZM471.5,174.33h-3v-1h3v1ZM465.5,174.33h-3v-1h3v1ZM459.5,174.33h-3v-1h3v1ZM453.5,174.33h-3v-1h3v1ZM447.5,174.33h-3v-1h3v1ZM441.5,174.33h-3v-1h3v1ZM435.5,174.33h-3v-1h3v1ZM429.5,174.33h-3v-1h3v1ZM423.5,174.33h-3v-1h3v1ZM417.5,174.33h-3v-1h3v1ZM411.5,174.33h-3v-1h3v1ZM399.5,174.33h-3v-1h3v1ZM393.5,174.33h-3v-1h3v1ZM387.5,174.33h-3v-1h3v1ZM381.5,174.33h-3v-1h3v1ZM375.5,174.33h-3v-1h3v1ZM369.5,174.33h-3v-1h3v1ZM363.5,174.33h-3v-1h3v1ZM357.5,174.33h-3v-1h3v1ZM351.5,174.33h-3v-1h3v1ZM345.5,174.33h-3v-1h3v1ZM339.5,174.33h-3v-1h3v1ZM333.5,174.33h-3v-1h3v1ZM327.5,174.33h-3v-1h3v1ZM321.5,174.33h-3v-1h3v1ZM315.5,174.33h-3v-1h3v1ZM309.5,174.33h-3v-1h3v1ZM297.5,174.33h-3v-1h3v1ZM291.5,174.33h-3v-1h3v1ZM285.5,174.33h-3v-1h3v1ZM279.5,174.33h-3v-1h3v1ZM273.5,174.33h-3v-1h3v1ZM267.5,174.33h-3v-1h3v1ZM261.5,174.33h-3v-1h3v1ZM255.5,174.33h-3v-1h3v1ZM249.5,174.33h-3v-1h3v1ZM243.5,174.33h-3v-1h3v1ZM237.5,174.33h-3v-1h3v1ZM231.5,174.33h-3v-1h3v1ZM225.5,174.33h-3v-1h3v1ZM219.5,174.33h-3v-1h3v1ZM213.5,174.33h-3v-1h3v1ZM207.5,174.33h-3v-1h3v1ZM195.5,174.33h-3v-1h3v1ZM189.5,174.33h-3v-1h3v1ZM183.5,174.33h-3v-1h3v1ZM177.5,174.33h-3v-1h3v1ZM171.5,174.33h-3v-1h3v1ZM165.5,174.33h-3v-1h3v1ZM159.5,174.33h-3v-1h3v1ZM153.5,174.33h-3v-1h3v1ZM147.5,174.33h-3v-1h3v1ZM141.5,174.33h-3v-1h3v1ZM135.5,174.33h-3v-1h3v1ZM129.5,174.33h-3v-1h3v1ZM123.5,174.33h-3v-1h3v1ZM117.5,174.33h-3v-1h3v1ZM111.5,174.33h-3v-1h3v1ZM105.5,174.33h-3v-1h3v1ZM99.5,174.33h-3v-1h3v1ZM93.5,174.33h-3v-1h3v1ZM87.5,174.33h-3v-1h3v1ZM81.5,174.33h-3v-1h3v1ZM75.5,174.33h-3v-1h3v1ZM69.5,174.33h-3v-1h3v1ZM63.5,174.33h-3v-1h3v1ZM57.5,174.33h-3v-1h3v1ZM51.5,174.33h-3v-1h3v1ZM45.5,174.33h-3v-1h3v1ZM39.5,174.33h-3v-1h3v1ZM33.5,174.33h-3v-1h3v1ZM27.5,174.33h-3v-1h3v1ZM21.5,174.33h-3v-1h3v1ZM15.5,174.33h-3v-1h3v1ZM9.5,174.33h-3v-1h3v1ZM3.5,174.33H.5v-1h3v1ZM605.29,170.5h-1v-3h1v3ZM504.57,170.5h-1v-3h1v3ZM403.86,170.5h-1v-3h1v3ZM303.14,170.5h-1v-3h1v3ZM202.43,170.5h-1v-3h1v3ZM101.71,170.5h-1v-3h1v3ZM605.29,164.5h-1v-3h1v3ZM504.57,164.5h-1v-3h1v3ZM403.86,164.5h-1v-3h1v3ZM303.14,164.5h-1v-3h1v3ZM202.43,164.5h-1v-3h1v3ZM101.71,164.5h-1v-3h1v3ZM605.29,158.5h-1v-3h1v3ZM504.57,158.5h-1v-3h1v3ZM403.86,158.5h-1v-3h1v3ZM303.14,158.5h-1v-3h1v3ZM202.43,158.5h-1v-3h1v3ZM101.71,158.5h-1v-3h1v3ZM605.29,152.5h-1v-3h1v3ZM504.57,152.5h-1v-3h1v3ZM403.86,152.5h-1v-3h1v3ZM303.14,152.5h-1v-3h1v3ZM202.43,152.5h-1v-3h1v3ZM101.71,152.5h-1v-3h1v3ZM605.29,146.5h-1v-3h1v3ZM504.57,146.5h-1v-3h1v3ZM403.86,146.5h-1v-3h1v3ZM303.14,146.5h-1v-3h1v3ZM202.43,146.5h-1v-3h1v3ZM101.71,146.5h-1v-3h1v3ZM605.29,140.5h-1v-3h1v3ZM504.57,140.5h-1v-3h1v3ZM403.86,140.5h-1v-3h1v3ZM303.14,140.5h-1v-3h1v3ZM202.43,140.5h-1v-3h1v3ZM101.71,140.5h-1v-3h1v3ZM605.29,134.5h-1v-3h1v3ZM504.57,134.5h-1v-3h1v3ZM403.86,134.5h-1v-3h1v3ZM303.14,134.5h-1v-3h1v3ZM202.43,134.5h-1v-3h1v3ZM101.71,134.5h-1v-3h1v3ZM605.29,128.5h-1v-3h1v3ZM504.57,128.5h-1v-3h1v3ZM403.86,128.5h-1v-3h1v3ZM303.14,128.5h-1v-3h1v3ZM202.43,128.5h-1v-3h1v3ZM101.71,128.5h-1v-3h1v3ZM605.29,122.5h-1v-3h1v3ZM504.57,122.5h-1v-3h1v3ZM403.86,122.5h-1v-3h1v3ZM303.14,122.5h-1v-3h1v3ZM202.43,122.5h-1v-3h1v3ZM101.71,122.5h-1v-3h1v3ZM605.29,116.5h-1v-3h1v3ZM504.57,116.5h-1v-3h1v3ZM403.86,116.5h-1v-3h1v3ZM303.14,116.5h-1v-3h1v3ZM202.43,116.5h-1v-3h1v3ZM101.71,116.5h-1v-3h1v3ZM605.29,110.5h-1v-3h1v3ZM504.57,110.5h-1v-3h1v3ZM403.86,110.5h-1v-3h1v3ZM303.14,110.5h-1v-3h1v3ZM202.43,110.5h-1v-3h1v3ZM101.71,110.5h-1v-3h1v3ZM605.29,104.5h-1v-3h1v3ZM504.57,104.5h-1v-3h1v3ZM403.86,104.5h-1v-3h1v3ZM303.14,104.5h-1v-3h1v3ZM202.43,104.5h-1v-3h1v3ZM101.71,104.5h-1v-3h1v3Z"/>
    <rect class="cls-8" x=".5" y="100.5" width="705" height="220"/>
    <path class="cls-1" d="M95.5,78.5c0,6.6-5.4,12-12,12H17.5c-6.6,0-12-5.4-12-12v-1c0-6.6,5.4-12,12-12h66c6.6,0,12,5.4,12,12v1ZM195.5,77.5c0-6.6-5.4-12-12-12h-66c-6.6,0-12,5.4-12,12v1c0,6.6,5.4,12,12,12h66c6.6,0,12-5.4,12-12v-1ZM295.5,77.5c0-6.6-5.4-12-12-12h-66c-6.6,0-12,5.4-12,12v1c0,6.6,5.4,12,12,12h66c6.6,0,12-5.4,12-12v-1ZM395.5,77.5c0-6.6-5.4-12-12-12h-66c-6.6,0-12,5.4-12,12v1c0,6.6,5.4,12,12,12h66c6.6,0,12-5.4,12-12v-1ZM500.5,77.5c0-6.6-5.4-12-12-12h-66c-6.6,0-12,5.4-12,12v1c0,6.6,5.4,12,12,12h66c6.6,0,12-5.4,12-12v-1Z"/>
    <rect class="cls-5" x="510.5" y="65.5" width="90" height="25" rx="12" ry="12"/>
    <rect class="cls-3" x="610.5" y="65.5" width="90" height="25" rx="12" ry="12"/>
    <path id="_曜日" data-name="曜日" class="cls-6" d="M57.02,82.67c0,1.15-.27,1.7-1.01,2.02-.77.34-1.89.37-3.54.37-.11-.56-.5-1.47-.8-2,1.12.06,2.46.05,2.82.05.38,0,.51-.13.51-.46v-2.32h-6.85c-.42,1.79-1.22,3.54-2.71,4.79-.29-.4-1.06-1.1-1.47-1.38,2.42-2.06,2.64-5.12,2.64-7.56v-5.27h10.4v11.76ZM55.01,78.47v-1.95h-6.42c-.02.61-.05,1.28-.11,1.95h6.53ZM48.59,72.76v1.95h6.42v-1.95h-6.42ZM152.54,75.35c0,2.43,1.5,6.11,6.48,7.96-.43.42-1.04,1.23-1.33,1.79-3.83-1.57-5.75-4.77-6.19-6.35-.42,1.63-2.18,4.74-5.94,6.35-.26-.43-.93-1.25-1.34-1.63,4.82-1.84,6.27-5.71,6.27-8.1v-4.99h2.05v4.98ZM148.38,73.73c-.27,2-.74,3.91-2.11,5.04l-1.73-1.07c1.17-.99,1.7-2.58,1.92-4.39l1.92.42ZM158.34,74.09c-.82,1.55-1.78,3.27-2.58,4.35l-1.67-.7c.77-1.2,1.65-3.03,2.15-4.43l2.1.78ZM250.3,74.47c-.74,4.34-2.5,7.59-4.75,9.25-.34-.45-1.1-1.22-1.58-1.5,1.86-1.25,3.27-3.44,3.99-6.24h-3.47v-1.92h4.18l.35-.06,1.3.48ZM258.8,73.89c-1.28,1.36-2.88,2.87-4.18,3.87,1.14,1.92,2.64,3.47,4.61,4.4-.48.4-1.14,1.2-1.47,1.78-2.32-1.31-3.94-3.43-5.09-6.03v4.72c0,1.15-.26,1.73-.91,2.05-.69.35-1.73.43-3.19.43-.08-.61-.45-1.57-.75-2.13,1.06.05,2.06.03,2.4.03s.43-.11.43-.38v-12.47h2.02v2.82c.3,1.12.67,2.19,1.14,3.22,1.14-1.06,2.4-2.42,3.22-3.55l1.78,1.25ZM353.39,75.75c1.33,2.45,3.57,4.83,5.92,6.11-.46.38-1.12,1.14-1.42,1.66-2.02-1.3-3.86-3.35-5.27-5.65v7.22h-2.03v-7.14c-1.39,2.32-3.23,4.35-5.28,5.63-.32-.5-.98-1.23-1.42-1.63,2.38-1.28,4.56-3.7,5.87-6.21h-5.14v-1.89h5.97v-3.71h2.03v3.71h6v1.89h-5.23ZM461.56,80.47c-.61.88-1.23,1.86-1.79,2.53h3.62v1.63h-13.54v-1.63h3.12c-.24-.72-.77-1.79-1.33-2.58l1.46-.62h-2.45v-1.63h4.87v-1.58h-2.95v-.78c-.75.54-1.57,1.06-2.39,1.49-.24-.45-.77-1.14-1.18-1.54,2.72-1.33,5.28-3.73,6.47-5.65h1.97c1.73,2.42,4.31,4.43,6.83,5.46-.48.48-.91,1.12-1.26,1.71-.8-.42-1.63-.94-2.43-1.52v.83h-3.06v1.58h4.93v1.63h-4.93v3.2h1.74l-1.04-.43c.53-.75,1.17-1.92,1.52-2.77l1.82.67ZM453.19,79.8c.61.82,1.23,1.9,1.47,2.64l-1.31.56h2.16v-3.2h-2.32ZM459.48,74.92c-1.18-.96-2.24-2-2.94-2.96-.69.96-1.68,2-2.83,2.96h5.78ZM563.88,82.55v1.87h-14.5v-1.87h6.18v-5.57h-5.14v-1.89h5.14v-4.91h2.05v4.91h5.22v1.89h-5.22v5.57h6.27ZM662.2,71.11v13.77h-2.05v-1.01h-7.11v1.04h-1.97v-13.8h11.12ZM653.04,73.03v3.44h7.11v-3.44h-7.11ZM660.15,81.95v-3.59h-7.11v3.59h7.11Z"/>
    <path class="cls-4" d="M518.94,284.29c.78.59,2.37,1.95,2.8,2.29l-1.1,1.63c-.38-.5-1.06-1.22-1.7-1.87v5.52h-1.84v-5.73c-.72,1.46-1.57,2.83-2.45,3.76-.19-.56-.66-1.38-.96-1.86,1.15-1.12,2.32-2.95,3.04-4.61h-2.67v-1.74h3.04v-1.98c-.91.18-1.82.32-2.69.43-.08-.42-.32-1.09-.54-1.49,2.31-.34,4.88-.94,6.43-1.65l1.34,1.47c-.8.32-1.73.59-2.71.83v2.39h2.75v1.74h-2.75v.86ZM524.3,287.83h-1.86v-8.95h1.86v8.95ZM528.11,277.25v12.33c0,1.1-.22,1.63-.88,1.94-.66.32-1.73.38-3.19.37-.08-.54-.37-1.42-.66-1.97,1.04.05,2.06.05,2.4.05.3-.02.43-.11.43-.4v-12.31h1.89ZM545.3,289.64c0,1.02-.22,1.54-.86,1.82-.66.32-1.63.35-3.07.34-.06-.51-.37-1.33-.61-1.82.9.05,1.95.03,2.24.03.3,0,.42-.1.42-.38v-2.4h-3.38v4.47h-1.92v-4.47h-3.27c-.29,1.74-.86,3.51-2.02,4.75-.3-.35-1.07-1.01-1.5-1.23,1.74-1.92,1.89-4.77,1.89-7.01v-5.71h12.08v11.62ZM538.11,285.43v-1.97h-3.01v.29c0,.51-.02,1.09-.05,1.68h3.06ZM535.1,279.82v1.86h3.01v-1.86h-3.01ZM543.41,279.82h-3.38v1.86h3.38v-1.86ZM543.41,285.43v-1.97h-3.38v1.97h3.38ZM551.66,283.22v8.68h-1.86v-14.34h6.16v5.67h-4.31ZM551.66,278.91v.82h2.51v-.82h-2.51ZM554.17,281.84v-.86h-2.51v.86h2.51ZM558.86,288.29v3.3h-1.66v-3.3h-1.54c-.16,1.1-.69,2.66-2.05,3.59-.27-.34-.85-.83-1.22-1.09,1.02-.64,1.47-1.68,1.63-2.5h-1.62v-1.55h1.68v-1.2h-1.46v-1.5h7.73v1.5h-1.5v1.2h1.76v1.55h-1.76ZM557.2,286.74v-1.2h-1.49v1.2h1.49ZM563.3,289.67c0,.98-.18,1.5-.75,1.81-.58.32-1.41.37-2.62.37-.06-.53-.32-1.39-.58-1.89.72.03,1.5.03,1.74.02.26,0,.34-.1.34-.32v-6.4h-4.4v-5.7h6.27v12.12ZM558.83,278.91v.82h2.59v-.82h-2.59ZM561.42,281.87v-.9h-2.59v.9h2.59ZM573,280.26c-.18,2.91-.61,5.23-1.33,7.09.7.58,1.31,1.15,1.71,1.66l-1.14,1.52c-.34-.45-.83-.98-1.41-1.5-.75,1.23-1.71,2.19-2.9,2.93-.27-.48-.78-1.17-1.15-1.52,1.06-.56,1.94-1.44,2.61-2.61-.32-.26-.66-.51-.98-.74l-.16.56-1.54-.83c.38-1.31.82-3.09,1.22-4.95h-1.17v-1.74h1.54c.22-1.1.43-2.19.59-3.19l1.79.18c-.18.94-.38,1.97-.61,3.01h1.46l.32-.05,1.14.18ZM569.71,281.87c-.27,1.2-.56,2.38-.83,3.47.42.26.85.54,1.28.85.46-1.23.77-2.69.96-4.32h-1.41ZM574.22,282.14c.58-1.57,1.15-3.63,1.46-5.2l2.11.37c-.51,1.58-1.12,3.33-1.71,4.72.93-.05,1.9-.11,2.9-.16-.34-.59-.69-1.17-1.04-1.68l1.5-.77c.99,1.34,2.05,3.12,2.43,4.34l-1.65.88c-.1-.34-.22-.7-.4-1.1-2.39.19-4.9.37-6.72.5l-.19-1.82,1.31-.06ZM573.93,285.22h7.04v6.61h-1.89v-.56h-3.36v.62h-1.79v-6.67ZM575.73,286.93v2.62h3.36v-2.62h-3.36ZM597.31,277.9v13.77h-2.05v-1.01h-7.11v1.04h-1.97v-13.8h11.12ZM588.16,279.82v3.44h7.11v-3.44h-7.11ZM595.26,288.74v-3.59h-7.11v3.59h7.11Z"/>
    <g>
      <rect class="cls-3" x="15.5" y="293.57" width="480" height="5"/>
      <path class="cls-3" d="M496.44,298.99c2.23-1.61,2.23-4.24,0-5.85l-11.89-8.58c-2.23-1.61-4.05-.68-4.05,2.07v18.87c0,2.75,1.82,3.68,4.05,2.07l11.89-8.58Z"/>
      <path class="cls-3" d="M9.55,293.14c-2.23,1.61-2.23,4.24,0,5.85l11.89,8.58c2.23,1.61,4.05.68,4.05-2.07v-18.87c0-2.75-1.82-3.68-4.05-2.07l-11.89,8.58Z"/>
    </g>
    <g>
      <g>
        <path class="cls-7" d="M179.76,267.85l2.26-.37c.05.32.1.86.18,1.25.03.22.13.75.26,1.47,1.36-.22,2.58-.42,3.15-.53.51-.1,1.12-.22,1.5-.34l.38,2.1c-.35.03-.99.13-1.47.19-.66.11-1.87.3-3.2.51.16.8.32,1.68.5,2.56,1.44-.24,2.75-.46,3.47-.61.62-.13,1.22-.26,1.63-.38l.43,2.11c-.43.03-1.09.14-1.7.24-.77.13-2.06.34-3.47.56.26,1.31.48,2.38.58,2.88.11.48.27,1.06.42,1.57l-2.31.42c-.08-.59-.13-1.15-.22-1.62-.08-.46-.29-1.57-.54-2.91-1.63.27-3.14.53-3.83.66-.69.13-1.23.24-1.6.34l-.45-2.15c.43-.02,1.15-.11,1.66-.18.74-.1,2.23-.34,3.84-.59-.16-.86-.34-1.76-.48-2.58-1.41.22-2.64.43-3.14.51-.51.11-.93.19-1.47.34l-.43-2.21c.51-.02.99-.05,1.49-.11.56-.06,1.79-.24,3.17-.46-.13-.67-.24-1.2-.29-1.46-.1-.46-.21-.83-.32-1.22Z"/>
        <path class="cls-7" d="M198.51,271.55c.11.38.26.93.43,1.55,2.03-.38,4.27-.82,4.9-.96.29-.05.59-.14.82-.26l1.28.91c-.67,1.41-2.29,3.81-3.41,5.01l-1.76-.88c.82-.74,1.94-2.1,2.37-2.88-.38.06-1.98.4-3.71.75.61,2.21,1.3,4.67,1.54,5.51.1.27.3.99.43,1.31l-2.18.54c-.05-.43-.16-.96-.29-1.41-.24-.86-.9-3.36-1.47-5.54-1.34.29-2.51.53-2.99.64l-.5-1.92c.51-.05.94-.1,1.47-.19.22-.03.8-.13,1.54-.27-.16-.62-.3-1.14-.42-1.49-.11-.42-.27-.8-.45-1.14l2.15-.51c.06.37.16.8.26,1.22Z"/>
        <path class="cls-7" d="M217.44,276.9c2.74-1.62,4.82-4.07,5.83-6.23l1.25,2.26c-1.22,2.16-3.35,4.37-5.92,5.92-1.62.98-3.68,1.87-5.94,2.26l-1.34-2.11c2.5-.35,4.58-1.17,6.13-2.1ZM217.44,271.73l-1.63,1.66c-.83-.9-2.83-2.64-4-3.46l1.5-1.6c1.12.75,3.2,2.42,4.13,3.39Z"/>
        <path class="cls-7" d="M231.57,274c-1.42.29-2.69.54-3.36.7l-.38-2.1c.75-.1,2.16-.34,3.75-.62v-2.29c0-.53-.05-1.34-.13-1.84h2.38c-.06.5-.14,1.3-.14,1.84v1.89c2.34-.45,4.58-.9,5.3-1.07.45-.1.83-.21,1.14-.37l1.54,1.18c-.14.22-.38.59-.53.88-.7,1.33-2.16,3.52-3.31,4.66l-1.76-1.04c1.06-.94,2.11-2.4,2.56-3.25-.5.11-2.66.53-4.93.99v4.24c0,.99.29,1.34,2.05,1.34s3.46-.22,5.04-.54l-.06,2.18c-1.33.19-3.25.35-4.96.35-3.65,0-4.18-.88-4.18-2.77v-4.37Z"/>
        <path class="cls-7" d="M248.01,276.08c.45-1.38.46-4.4.46-6.34,0-.64-.05-1.07-.14-1.47h2.35c-.02.08-.11.78-.11,1.46,0,1.89-.05,5.27-.48,6.88-.48,1.81-1.49,3.38-2.85,4.59l-1.95-1.3c1.41-.99,2.27-2.46,2.72-3.83ZM252.83,278.96v-9.33c0-.72-.11-1.33-.13-1.38h2.38s-.11.67-.11,1.39v8.37c1.3-.56,2.88-1.82,3.95-3.38l1.23,1.76c-1.33,1.73-3.63,3.46-5.43,4.37-.35.19-.54.35-.69.48l-1.34-1.1c.06-.3.13-.75.13-1.18Z"/>
        <path class="cls-7" d="M266.24,275.86v3.92c0,.83-.13,1.3-.59,1.58-.45.29-1.06.35-1.97.35-.03-.48-.24-1.22-.46-1.7.45.02.88.02,1.02.02.18,0,.22-.06.22-.24v-3.33c-.46.16-.91.3-1.33.45l-.45-1.82c.51-.13,1.1-.3,1.78-.5v-2.87h-1.55v-1.76h1.55v-3.01h1.78v3.01h1.33v1.76h-1.33v2.3l1.15-.38.3,1.68-1.46.53ZM274.35,278.08c.9.85,2.22,1.6,3.52,2.02-.38.32-.93.99-1.2,1.44-1.12-.48-2.26-1.28-3.14-2.23v2.61h-1.81v-2.56c-1.09,1.02-2.45,1.82-3.87,2.3-.27-.43-.78-1.12-1.17-1.47,1.55-.4,3.09-1.18,4.13-2.11h-2.95v-1.54h3.86v-.98h-3.65v-3.76h4.23v3.7h.62v-3.7h4.37v3.76h-3.76v.98h4.03v1.54h-3.22ZM270.82,273.09h-1.33v1.18h1.33v-1.18ZM275.78,271.25h-6.26v-3.71h6.26v3.71ZM274.05,268.86h-2.91v1.06h2.91v-1.06ZM274.38,274.27h1.39v-1.18h-1.39v1.18Z"/>
        <path class="cls-7" d="M285.74,267.58c-.42,1.12-.94,2.26-1.54,3.33v10.96h-1.92v-8c-.34.4-.67.8-.99,1.15-.18-.46-.72-1.55-1.06-2.03,1.46-1.44,2.85-3.71,3.65-5.99l1.86.58ZM290.82,271.36v1.68h4.15v1.73h-4.15v1.81h4.35v1.76h-4.35v3.55h-1.95v-10.53h-.61c-.64,1.18-1.38,2.27-2.1,3.1-.3-.35-1.06-1.02-1.46-1.33,1.41-1.44,2.67-3.75,3.39-6.03l1.84.46c-.22.67-.48,1.33-.78,1.98h6.21v1.81h-4.55Z"/>
        <path class="cls-7" d="M307.68,272.11c1.71,1.23,4.18,3.07,5.33,4.34l-1.62,1.46c-.99-1.18-3.17-3.01-4.9-4.34v8.29h-2.08v-7.81c-1.46,1.55-3.17,2.95-5.09,3.94-.3-.51-.9-1.3-1.31-1.73,2.91-1.36,5.41-3.84,6.9-6.29h-6.39v-1.95h13.88v1.95h-4.98c-.27.5-.59.99-.93,1.47v1.66l1.18-.99Z"/>
        <path class="cls-7" d="M330.29,269.94h-1.84v9.54c0,1.15-.27,1.71-1.02,2.03-.8.32-1.98.35-3.62.35-.11-.56-.5-1.5-.78-2.02,1.14.06,2.53.05,2.91.05s.51-.11.51-.45v-9.51h-10.58v-1.92h14.42v1.92ZM319.2,277.92v1.22h-1.86v-7.41h6.79v6.19h-4.93ZM319.2,273.54v2.56h3.04v-2.56h-3.04Z"/>
      </g>
      <g>
        <path class="cls-3" d="M179.76,267.85l2.26-.37c.05.32.1.86.18,1.25.03.22.13.75.26,1.47,1.36-.22,2.58-.42,3.15-.53.51-.1,1.12-.22,1.5-.34l.38,2.1c-.35.03-.99.13-1.47.19-.66.11-1.87.3-3.2.51.16.8.32,1.68.5,2.56,1.44-.24,2.75-.46,3.47-.61.62-.13,1.22-.26,1.63-.38l.43,2.11c-.43.03-1.09.14-1.7.24-.77.13-2.06.34-3.47.56.26,1.31.48,2.38.58,2.88.11.48.27,1.06.42,1.57l-2.31.42c-.08-.59-.13-1.15-.22-1.62-.08-.46-.29-1.57-.54-2.91-1.63.27-3.14.53-3.83.66-.69.13-1.23.24-1.6.34l-.45-2.15c.43-.02,1.15-.11,1.66-.18.74-.1,2.23-.34,3.84-.59-.16-.86-.34-1.76-.48-2.58-1.41.22-2.64.43-3.14.51-.51.11-.93.19-1.47.34l-.43-2.21c.51-.02.99-.05,1.49-.11.56-.06,1.79-.24,3.17-.46-.13-.67-.24-1.2-.29-1.46-.1-.46-.21-.83-.32-1.22Z"/>
        <path class="cls-3" d="M198.51,271.55c.11.38.26.93.43,1.55,2.03-.38,4.27-.82,4.9-.96.29-.05.59-.14.82-.26l1.28.91c-.67,1.41-2.29,3.81-3.41,5.01l-1.76-.88c.82-.74,1.94-2.1,2.37-2.88-.38.06-1.98.4-3.71.75.61,2.21,1.3,4.67,1.54,5.51.1.27.3.99.43,1.31l-2.18.54c-.05-.43-.16-.96-.29-1.41-.24-.86-.9-3.36-1.47-5.54-1.34.29-2.51.53-2.99.64l-.5-1.92c.51-.05.94-.1,1.47-.19.22-.03.8-.13,1.54-.27-.16-.62-.3-1.14-.42-1.49-.11-.42-.27-.8-.45-1.14l2.15-.51c.06.37.16.8.26,1.22Z"/>
        <path class="cls-3" d="M217.44,276.9c2.74-1.62,4.82-4.07,5.83-6.23l1.25,2.26c-1.22,2.16-3.35,4.37-5.92,5.92-1.62.98-3.68,1.87-5.94,2.26l-1.34-2.11c2.5-.35,4.58-1.17,6.13-2.1ZM217.44,271.73l-1.63,1.66c-.83-.9-2.83-2.64-4-3.46l1.5-1.6c1.12.75,3.2,2.42,4.13,3.39Z"/>
        <path class="cls-3" d="M231.57,274c-1.42.29-2.69.54-3.36.7l-.38-2.1c.75-.1,2.16-.34,3.75-.62v-2.29c0-.53-.05-1.34-.13-1.84h2.38c-.06.5-.14,1.3-.14,1.84v1.89c2.34-.45,4.58-.9,5.3-1.07.45-.1.83-.21,1.14-.37l1.54,1.18c-.14.22-.38.59-.53.88-.7,1.33-2.16,3.52-3.31,4.66l-1.76-1.04c1.06-.94,2.11-2.4,2.56-3.25-.5.11-2.66.53-4.93.99v4.24c0,.99.29,1.34,2.05,1.34s3.46-.22,5.04-.54l-.06,2.18c-1.33.19-3.25.35-4.96.35-3.65,0-4.18-.88-4.18-2.77v-4.37Z"/>
        <path class="cls-3" d="M248.01,276.08c.45-1.38.46-4.4.46-6.34,0-.64-.05-1.07-.14-1.47h2.35c-.02.08-.11.78-.11,1.46,0,1.89-.05,5.27-.48,6.88-.48,1.81-1.49,3.38-2.85,4.59l-1.95-1.3c1.41-.99,2.27-2.46,2.72-3.83ZM252.83,278.96v-9.33c0-.72-.11-1.33-.13-1.38h2.38s-.11.67-.11,1.39v8.37c1.3-.56,2.88-1.82,3.95-3.38l1.23,1.76c-1.33,1.73-3.63,3.46-5.43,4.37-.35.19-.54.35-.69.48l-1.34-1.1c.06-.3.13-.75.13-1.18Z"/>
        <path class="cls-3" d="M266.24,275.86v3.92c0,.83-.13,1.3-.59,1.58-.45.29-1.06.35-1.97.35-.03-.48-.24-1.22-.46-1.7.45.02.88.02,1.02.02.18,0,.22-.06.22-.24v-3.33c-.46.16-.91.3-1.33.45l-.45-1.82c.51-.13,1.1-.3,1.78-.5v-2.87h-1.55v-1.76h1.55v-3.01h1.78v3.01h1.33v1.76h-1.33v2.3l1.15-.38.3,1.68-1.46.53ZM274.35,278.08c.9.85,2.22,1.6,3.52,2.02-.38.32-.93.99-1.2,1.44-1.12-.48-2.26-1.28-3.14-2.23v2.61h-1.81v-2.56c-1.09,1.02-2.45,1.82-3.87,2.3-.27-.43-.78-1.12-1.17-1.47,1.55-.4,3.09-1.18,4.13-2.11h-2.95v-1.54h3.86v-.98h-3.65v-3.76h4.23v3.7h.62v-3.7h4.37v3.76h-3.76v.98h4.03v1.54h-3.22ZM270.82,273.09h-1.33v1.18h1.33v-1.18ZM275.78,271.25h-6.26v-3.71h6.26v3.71ZM274.05,268.86h-2.91v1.06h2.91v-1.06ZM274.38,274.27h1.39v-1.18h-1.39v1.18Z"/>
        <path class="cls-3" d="M285.74,267.58c-.42,1.12-.94,2.26-1.54,3.33v10.96h-1.92v-8c-.34.4-.67.8-.99,1.15-.18-.46-.72-1.55-1.06-2.03,1.46-1.44,2.85-3.71,3.65-5.99l1.86.58ZM290.82,271.36v1.68h4.15v1.73h-4.15v1.81h4.35v1.76h-4.35v3.55h-1.95v-10.53h-.61c-.64,1.18-1.38,2.27-2.1,3.1-.3-.35-1.06-1.02-1.46-1.33,1.41-1.44,2.67-3.75,3.39-6.03l1.84.46c-.22.67-.48,1.33-.78,1.98h6.21v1.81h-4.55Z"/>
        <path class="cls-3" d="M307.68,272.11c1.71,1.23,4.18,3.07,5.33,4.34l-1.62,1.46c-.99-1.18-3.17-3.01-4.9-4.34v8.29h-2.08v-7.81c-1.46,1.55-3.17,2.95-5.09,3.94-.3-.51-.9-1.3-1.31-1.73,2.91-1.36,5.41-3.84,6.9-6.29h-6.39v-1.95h13.88v1.95h-4.98c-.27.5-.59.99-.93,1.47v1.66l1.18-.99Z"/>
        <path class="cls-3" d="M330.29,269.94h-1.84v9.54c0,1.15-.27,1.71-1.02,2.03-.8.32-1.98.35-3.62.35-.11-.56-.5-1.5-.78-2.02,1.14.06,2.53.05,2.91.05s.51-.11.51-.45v-9.51h-10.58v-1.92h14.42v1.92ZM319.2,277.92v1.22h-1.86v-7.41h6.79v6.19h-4.93ZM319.2,273.54v2.56h3.04v-2.56h-3.04Z"/>
      </g>
    </g>
    <g>
      <rect class="cls-5" x=".5" y="220.5" width="695" height="5"/>
      <path class="cls-5" d="M696.45,225.93c2.23-1.61,2.23-4.24,0-5.85l-11.89-8.58c-2.23-1.61-4.05-.68-4.05,2.07v18.87c0,2.75,1.82,3.68,4.05,2.07l11.89-8.58Z"/>
      <path class="cls-5" d="M9.55,145.07c-2.23,1.61-2.23,4.24,0,5.85l11.89,8.58c2.23,1.61,4.05.68,4.05-2.07v-18.87c0-2.75-1.82-3.68-4.05-2.07l-11.89,8.58Z"/>
      <rect class="cls-5" x="10.5" y="145.5" width="695" height="5"/>
    </g>
    <g>
      <g>
        <path class="cls-7" d="M281.7,118.1l2.26-.37c.05.32.1.86.18,1.25.03.22.13.75.26,1.47,1.36-.22,2.58-.42,3.15-.53.51-.1,1.12-.22,1.5-.34l.38,2.1c-.35.03-.99.13-1.47.19-.66.11-1.87.3-3.2.51.16.8.32,1.68.5,2.56,1.44-.24,2.75-.46,3.47-.61.62-.13,1.22-.26,1.63-.38l.43,2.11c-.43.03-1.09.14-1.7.24-.77.13-2.06.34-3.47.56.26,1.31.48,2.38.58,2.88.11.48.27,1.06.42,1.57l-2.31.42c-.08-.59-.13-1.15-.22-1.62-.08-.46-.29-1.57-.54-2.91-1.63.27-3.14.53-3.83.66-.69.13-1.23.24-1.6.34l-.45-2.15c.43-.02,1.15-.11,1.66-.18.74-.1,2.23-.34,3.84-.59-.16-.86-.34-1.76-.48-2.58-1.41.22-2.64.43-3.14.51-.51.11-.93.19-1.47.34l-.43-2.21c.51-.02.99-.05,1.49-.11.56-.06,1.79-.24,3.17-.46-.13-.67-.24-1.2-.29-1.46-.1-.46-.21-.83-.32-1.22Z"/>
        <path class="cls-7" d="M300.45,121.79c.11.38.26.93.43,1.55,2.03-.38,4.27-.82,4.9-.96.29-.05.59-.14.82-.26l1.28.91c-.67,1.41-2.29,3.81-3.41,5.01l-1.76-.88c.82-.74,1.94-2.1,2.37-2.88-.38.06-1.98.4-3.71.75.61,2.21,1.3,4.67,1.54,5.51.1.27.3.99.43,1.31l-2.18.54c-.05-.43-.16-.96-.29-1.41-.24-.86-.9-3.36-1.47-5.54-1.34.29-2.51.53-2.99.64l-.5-1.92c.51-.05.94-.1,1.47-.19.22-.03.8-.13,1.54-.27-.16-.62-.3-1.14-.42-1.49-.11-.42-.27-.8-.45-1.14l2.15-.51c.06.37.16.8.26,1.22Z"/>
        <path class="cls-7" d="M319.38,127.14c2.74-1.62,4.82-4.07,5.83-6.23l1.25,2.26c-1.22,2.16-3.35,4.37-5.92,5.92-1.62.98-3.68,1.87-5.94,2.26l-1.34-2.11c2.5-.35,4.58-1.17,6.13-2.1ZM319.38,121.97l-1.63,1.66c-.83-.9-2.83-2.64-4-3.46l1.5-1.6c1.12.75,3.2,2.42,4.13,3.39Z"/>
        <path class="cls-7" d="M333.5,124.24c-1.42.29-2.69.54-3.36.7l-.38-2.1c.75-.1,2.16-.34,3.75-.62v-2.29c0-.53-.05-1.34-.13-1.84h2.38c-.06.5-.14,1.3-.14,1.84v1.89c2.34-.45,4.58-.9,5.3-1.07.45-.1.83-.21,1.14-.37l1.54,1.18c-.14.22-.38.59-.53.88-.7,1.33-2.16,3.52-3.31,4.66l-1.76-1.04c1.06-.94,2.11-2.4,2.56-3.25-.5.11-2.66.53-4.93.99v4.24c0,.99.29,1.34,2.05,1.34s3.46-.22,5.04-.54l-.06,2.18c-1.33.19-3.25.35-4.96.35-3.65,0-4.18-.88-4.18-2.77v-4.37Z"/>
        <path class="cls-7" d="M349.95,126.32c.45-1.38.46-4.4.46-6.34,0-.64-.05-1.07-.14-1.47h2.35c-.02.08-.11.78-.11,1.46,0,1.89-.05,5.27-.48,6.88-.48,1.81-1.49,3.38-2.85,4.59l-1.95-1.3c1.41-.99,2.27-2.46,2.72-3.83ZM354.77,129.2v-9.33c0-.72-.11-1.33-.13-1.38h2.38s-.11.67-.11,1.39v8.37c1.3-.56,2.88-1.82,3.95-3.38l1.23,1.76c-1.33,1.73-3.63,3.46-5.43,4.37-.35.19-.54.35-.69.48l-1.34-1.1c.06-.3.13-.75.13-1.18Z"/>
        <path class="cls-7" d="M368.18,126.1v3.92c0,.83-.13,1.3-.59,1.58-.45.29-1.06.35-1.97.35-.03-.48-.24-1.22-.46-1.7.45.02.88.02,1.02.02.18,0,.22-.06.22-.24v-3.33c-.46.16-.91.3-1.33.45l-.45-1.82c.51-.13,1.1-.3,1.78-.5v-2.87h-1.55v-1.76h1.55v-3.01h1.78v3.01h1.33v1.76h-1.33v2.3l1.15-.38.3,1.68-1.46.53ZM376.29,128.32c.9.85,2.22,1.6,3.52,2.02-.38.32-.93.99-1.2,1.44-1.12-.48-2.26-1.28-3.14-2.23v2.61h-1.81v-2.56c-1.09,1.02-2.45,1.82-3.87,2.3-.27-.43-.78-1.12-1.17-1.47,1.55-.4,3.09-1.18,4.13-2.11h-2.95v-1.54h3.86v-.98h-3.65v-3.76h4.23v3.7h.62v-3.7h4.37v3.76h-3.76v.98h4.03v1.54h-3.22ZM372.75,123.33h-1.33v1.18h1.33v-1.18ZM377.72,121.49h-6.26v-3.71h6.26v3.71ZM375.99,119.1h-2.91v1.06h2.91v-1.06ZM376.32,124.51h1.39v-1.18h-1.39v1.18Z"/>
        <path class="cls-7" d="M387.68,117.82c-.42,1.12-.94,2.26-1.54,3.33v10.96h-1.92v-8c-.34.4-.67.8-.99,1.15-.18-.46-.72-1.55-1.06-2.03,1.46-1.44,2.85-3.71,3.65-5.99l1.86.58ZM392.75,121.6v1.68h4.15v1.73h-4.15v1.81h4.35v1.76h-4.35v3.55h-1.95v-10.53h-.61c-.64,1.18-1.38,2.27-2.1,3.1-.3-.35-1.06-1.02-1.46-1.33,1.41-1.44,2.67-3.75,3.39-6.03l1.84.46c-.22.67-.48,1.33-.78,1.98h6.21v1.81h-4.55Z"/>
        <path class="cls-7" d="M404.01,124.66c0-3.33,2.59-5.79,6.13-5.79s6.13,2.45,6.13,5.79-2.61,5.79-6.13,5.79-6.13-2.46-6.13-5.79ZM413.65,124.66c0-2.13-1.5-3.59-3.51-3.59s-3.51,1.46-3.51,3.59,1.5,3.59,3.51,3.59,3.51-1.46,3.51-3.59Z"/>
        <path class="cls-7" d="M423.9,125.86l-1.5,1.57v2.83h-2.58v-11.2h2.58v5.23l4.96-5.23h2.88l-4.64,4.99,4.91,6.21h-3.03l-3.59-4.4Z"/>
      </g>
      <g>
        <path class="cls-3" d="M281.7,118.1l2.26-.37c.05.32.1.86.18,1.25.03.22.13.75.26,1.47,1.36-.22,2.58-.42,3.15-.53.51-.1,1.12-.22,1.5-.34l.38,2.1c-.35.03-.99.13-1.47.19-.66.11-1.87.3-3.2.51.16.8.32,1.68.5,2.56,1.44-.24,2.75-.46,3.47-.61.62-.13,1.22-.26,1.63-.38l.43,2.11c-.43.03-1.09.14-1.7.24-.77.13-2.06.34-3.47.56.26,1.31.48,2.38.58,2.88.11.48.27,1.06.42,1.57l-2.31.42c-.08-.59-.13-1.15-.22-1.62-.08-.46-.29-1.57-.54-2.91-1.63.27-3.14.53-3.83.66-.69.13-1.23.24-1.6.34l-.45-2.15c.43-.02,1.15-.11,1.66-.18.74-.1,2.23-.34,3.84-.59-.16-.86-.34-1.76-.48-2.58-1.41.22-2.64.43-3.14.51-.51.11-.93.19-1.47.34l-.43-2.21c.51-.02.99-.05,1.49-.11.56-.06,1.79-.24,3.17-.46-.13-.67-.24-1.2-.29-1.46-.1-.46-.21-.83-.32-1.22Z"/>
        <path class="cls-3" d="M300.45,121.79c.11.38.26.93.43,1.55,2.03-.38,4.27-.82,4.9-.96.29-.05.59-.14.82-.26l1.28.91c-.67,1.41-2.29,3.81-3.41,5.01l-1.76-.88c.82-.74,1.94-2.1,2.37-2.88-.38.06-1.98.4-3.71.75.61,2.21,1.3,4.67,1.54,5.51.1.27.3.99.43,1.31l-2.18.54c-.05-.43-.16-.96-.29-1.41-.24-.86-.9-3.36-1.47-5.54-1.34.29-2.51.53-2.99.64l-.5-1.92c.51-.05.94-.1,1.47-.19.22-.03.8-.13,1.54-.27-.16-.62-.3-1.14-.42-1.49-.11-.42-.27-.8-.45-1.14l2.15-.51c.06.37.16.8.26,1.22Z"/>
        <path class="cls-3" d="M319.38,127.14c2.74-1.62,4.82-4.07,5.83-6.23l1.25,2.26c-1.22,2.16-3.35,4.37-5.92,5.92-1.62.98-3.68,1.87-5.94,2.26l-1.34-2.11c2.5-.35,4.58-1.17,6.13-2.1ZM319.38,121.97l-1.63,1.66c-.83-.9-2.83-2.64-4-3.46l1.5-1.6c1.12.75,3.2,2.42,4.13,3.39Z"/>
        <path class="cls-3" d="M333.5,124.24c-1.42.29-2.69.54-3.36.7l-.38-2.1c.75-.1,2.16-.34,3.75-.62v-2.29c0-.53-.05-1.34-.13-1.84h2.38c-.06.5-.14,1.3-.14,1.84v1.89c2.34-.45,4.58-.9,5.3-1.07.45-.1.83-.21,1.14-.37l1.54,1.18c-.14.22-.38.59-.53.88-.7,1.33-2.16,3.52-3.31,4.66l-1.76-1.04c1.06-.94,2.11-2.4,2.56-3.25-.5.11-2.66.53-4.93.99v4.24c0,.99.29,1.34,2.05,1.34s3.46-.22,5.04-.54l-.06,2.18c-1.33.19-3.25.35-4.96.35-3.65,0-4.18-.88-4.18-2.77v-4.37Z"/>
        <path class="cls-3" d="M349.95,126.32c.45-1.38.46-4.4.46-6.34,0-.64-.05-1.07-.14-1.47h2.35c-.02.08-.11.78-.11,1.46,0,1.89-.05,5.27-.48,6.88-.48,1.81-1.49,3.38-2.85,4.59l-1.95-1.3c1.41-.99,2.27-2.46,2.72-3.83ZM354.77,129.2v-9.33c0-.72-.11-1.33-.13-1.38h2.38s-.11.67-.11,1.39v8.37c1.3-.56,2.88-1.82,3.95-3.38l1.23,1.76c-1.33,1.73-3.63,3.46-5.43,4.37-.35.19-.54.35-.69.48l-1.34-1.1c.06-.3.13-.75.13-1.18Z"/>
        <path class="cls-3" d="M368.18,126.1v3.92c0,.83-.13,1.3-.59,1.58-.45.29-1.06.35-1.97.35-.03-.48-.24-1.22-.46-1.7.45.02.88.02,1.02.02.18,0,.22-.06.22-.24v-3.33c-.46.16-.91.3-1.33.45l-.45-1.82c.51-.13,1.1-.3,1.78-.5v-2.87h-1.55v-1.76h1.55v-3.01h1.78v3.01h1.33v1.76h-1.33v2.3l1.15-.38.3,1.68-1.46.53ZM376.29,128.32c.9.85,2.22,1.6,3.52,2.02-.38.32-.93.99-1.2,1.44-1.12-.48-2.26-1.28-3.14-2.23v2.61h-1.81v-2.56c-1.09,1.02-2.45,1.82-3.87,2.3-.27-.43-.78-1.12-1.17-1.47,1.55-.4,3.09-1.18,4.13-2.11h-2.95v-1.54h3.86v-.98h-3.65v-3.76h4.23v3.7h.62v-3.7h4.37v3.76h-3.76v.98h4.03v1.54h-3.22ZM372.75,123.33h-1.33v1.18h1.33v-1.18ZM377.72,121.49h-6.26v-3.71h6.26v3.71ZM375.99,119.1h-2.91v1.06h2.91v-1.06ZM376.32,124.51h1.39v-1.18h-1.39v1.18Z"/>
        <path class="cls-3" d="M387.68,117.82c-.42,1.12-.94,2.26-1.54,3.33v10.96h-1.92v-8c-.34.4-.67.8-.99,1.15-.18-.46-.72-1.55-1.06-2.03,1.46-1.44,2.85-3.71,3.65-5.99l1.86.58ZM392.75,121.6v1.68h4.15v1.73h-4.15v1.81h4.35v1.76h-4.35v3.55h-1.95v-10.53h-.61c-.64,1.18-1.38,2.27-2.1,3.1-.3-.35-1.06-1.02-1.46-1.33,1.41-1.44,2.67-3.75,3.39-6.03l1.84.46c-.22.67-.48,1.33-.78,1.98h6.21v1.81h-4.55Z"/>
        <path class="cls-3" d="M404.01,124.66c0-3.33,2.59-5.79,6.13-5.79s6.13,2.45,6.13,5.79-2.61,5.79-6.13,5.79-6.13-2.46-6.13-5.79ZM413.65,124.66c0-2.13-1.5-3.59-3.51-3.59s-3.51,1.46-3.51,3.59,1.5,3.59,3.51,3.59,3.51-1.46,3.51-3.59Z"/>
        <path class="cls-3" d="M423.9,125.86l-1.5,1.57v2.83h-2.58v-11.2h2.58v5.23l4.96-5.23h2.88l-4.64,4.99,4.91,6.21h-3.03l-3.59-4.4Z"/>
      </g>
      <g>
        <path class="cls-5" d="M281.7,118.1l2.26-.37c.05.32.1.86.18,1.25.03.22.13.75.26,1.47,1.36-.22,2.58-.42,3.15-.53.51-.1,1.12-.22,1.5-.34l.38,2.1c-.35.03-.99.13-1.47.19-.66.11-1.87.3-3.2.51.16.8.32,1.68.5,2.56,1.44-.24,2.75-.46,3.47-.61.62-.13,1.22-.26,1.63-.38l.43,2.11c-.43.03-1.09.14-1.7.24-.77.13-2.06.34-3.47.56.26,1.31.48,2.38.58,2.88.11.48.27,1.06.42,1.57l-2.31.42c-.08-.59-.13-1.15-.22-1.62-.08-.46-.29-1.57-.54-2.91-1.63.27-3.14.53-3.83.66-.69.13-1.23.24-1.6.34l-.45-2.15c.43-.02,1.15-.11,1.66-.18.74-.1,2.23-.34,3.84-.59-.16-.86-.34-1.76-.48-2.58-1.41.22-2.64.43-3.14.51-.51.11-.93.19-1.47.34l-.43-2.21c.51-.02.99-.05,1.49-.11.56-.06,1.79-.24,3.17-.46-.13-.67-.24-1.2-.29-1.46-.1-.46-.21-.83-.32-1.22Z"/>
        <path class="cls-5" d="M300.45,121.79c.11.38.26.93.43,1.55,2.03-.38,4.27-.82,4.9-.96.29-.05.59-.14.82-.26l1.28.91c-.67,1.41-2.29,3.81-3.41,5.01l-1.76-.88c.82-.74,1.94-2.1,2.37-2.88-.38.06-1.98.4-3.71.75.61,2.21,1.3,4.67,1.54,5.51.1.27.3.99.43,1.31l-2.18.54c-.05-.43-.16-.96-.29-1.41-.24-.86-.9-3.36-1.47-5.54-1.34.29-2.51.53-2.99.64l-.5-1.92c.51-.05.94-.1,1.47-.19.22-.03.8-.13,1.54-.27-.16-.62-.3-1.14-.42-1.49-.11-.42-.27-.8-.45-1.14l2.15-.51c.06.37.16.8.26,1.22Z"/>
        <path class="cls-5" d="M319.38,127.14c2.74-1.62,4.82-4.07,5.83-6.23l1.25,2.26c-1.22,2.16-3.35,4.37-5.92,5.92-1.62.98-3.68,1.87-5.94,2.26l-1.34-2.11c2.5-.35,4.58-1.17,6.13-2.1ZM319.38,121.97l-1.63,1.66c-.83-.9-2.83-2.64-4-3.46l1.5-1.6c1.12.75,3.2,2.42,4.13,3.39Z"/>
        <path class="cls-5" d="M333.5,124.24c-1.42.29-2.69.54-3.36.7l-.38-2.1c.75-.1,2.16-.34,3.75-.62v-2.29c0-.53-.05-1.34-.13-1.84h2.38c-.06.5-.14,1.3-.14,1.84v1.89c2.34-.45,4.58-.9,5.3-1.07.45-.1.83-.21,1.14-.37l1.54,1.18c-.14.22-.38.59-.53.88-.7,1.33-2.16,3.52-3.31,4.66l-1.76-1.04c1.06-.94,2.11-2.4,2.56-3.25-.5.11-2.66.53-4.93.99v4.24c0,.99.29,1.34,2.05,1.34s3.46-.22,5.04-.54l-.06,2.18c-1.33.19-3.25.35-4.96.35-3.65,0-4.18-.88-4.18-2.77v-4.37Z"/>
        <path class="cls-5" d="M349.95,126.32c.45-1.38.46-4.4.46-6.34,0-.64-.05-1.07-.14-1.47h2.35c-.02.08-.11.78-.11,1.46,0,1.89-.05,5.27-.48,6.88-.48,1.81-1.49,3.38-2.85,4.59l-1.95-1.3c1.41-.99,2.27-2.46,2.72-3.83ZM354.77,129.2v-9.33c0-.72-.11-1.33-.13-1.38h2.38s-.11.67-.11,1.39v8.37c1.3-.56,2.88-1.82,3.95-3.38l1.23,1.76c-1.33,1.73-3.63,3.46-5.43,4.37-.35.19-.54.35-.69.48l-1.34-1.1c.06-.3.13-.75.13-1.18Z"/>
        <path class="cls-5" d="M368.18,126.1v3.92c0,.83-.13,1.3-.59,1.58-.45.29-1.06.35-1.97.35-.03-.48-.24-1.22-.46-1.7.45.02.88.02,1.02.02.18,0,.22-.06.22-.24v-3.33c-.46.16-.91.3-1.33.45l-.45-1.82c.51-.13,1.1-.3,1.78-.5v-2.87h-1.55v-1.76h1.55v-3.01h1.78v3.01h1.33v1.76h-1.33v2.3l1.15-.38.3,1.68-1.46.53ZM376.29,128.32c.9.85,2.22,1.6,3.52,2.02-.38.32-.93.99-1.2,1.44-1.12-.48-2.26-1.28-3.14-2.23v2.61h-1.81v-2.56c-1.09,1.02-2.45,1.82-3.87,2.3-.27-.43-.78-1.12-1.17-1.47,1.55-.4,3.09-1.18,4.13-2.11h-2.95v-1.54h3.86v-.98h-3.65v-3.76h4.23v3.7h.62v-3.7h4.37v3.76h-3.76v.98h4.03v1.54h-3.22ZM372.75,123.33h-1.33v1.18h1.33v-1.18ZM377.72,121.49h-6.26v-3.71h6.26v3.71ZM375.99,119.1h-2.91v1.06h2.91v-1.06ZM376.32,124.51h1.39v-1.18h-1.39v1.18Z"/>
        <path class="cls-5" d="M387.68,117.82c-.42,1.12-.94,2.26-1.54,3.33v10.96h-1.92v-8c-.34.4-.67.8-.99,1.15-.18-.46-.72-1.55-1.06-2.03,1.46-1.44,2.85-3.71,3.65-5.99l1.86.58ZM392.75,121.6v1.68h4.15v1.73h-4.15v1.81h4.35v1.76h-4.35v3.55h-1.95v-10.53h-.61c-.64,1.18-1.38,2.27-2.1,3.1-.3-.35-1.06-1.02-1.46-1.33,1.41-1.44,2.67-3.75,3.39-6.03l1.84.46c-.22.67-.48,1.33-.78,1.98h6.21v1.81h-4.55Z"/>
        <path class="cls-5" d="M404.01,124.66c0-3.33,2.59-5.79,6.13-5.79s6.13,2.45,6.13,5.79-2.61,5.79-6.13,5.79-6.13-2.46-6.13-5.79ZM413.65,124.66c0-2.13-1.5-3.59-3.51-3.59s-3.51,1.46-3.51,3.59,1.5,3.59,3.51,3.59,3.51-1.46,3.51-3.59Z"/>
        <path class="cls-5" d="M423.9,125.86l-1.5,1.57v2.83h-2.58v-11.2h2.58v5.23l4.96-5.23h2.88l-4.64,4.99,4.91,6.21h-3.03l-3.59-4.4Z"/>
      </g>
    </g>
    <g>
      <g>
        <path class="cls-7" d="M281.7,193.1l2.26-.37c.05.32.1.86.18,1.25.03.22.13.75.26,1.47,1.36-.22,2.58-.42,3.15-.53.51-.1,1.12-.22,1.5-.34l.38,2.1c-.35.03-.99.13-1.47.19-.66.11-1.87.3-3.2.51.16.8.32,1.68.5,2.56,1.44-.24,2.75-.46,3.47-.61.62-.13,1.22-.26,1.63-.38l.43,2.11c-.43.03-1.09.14-1.7.24-.77.13-2.06.34-3.47.56.26,1.31.48,2.38.58,2.88.11.48.27,1.06.42,1.57l-2.31.42c-.08-.59-.13-1.15-.22-1.62-.08-.46-.29-1.57-.54-2.91-1.63.27-3.14.53-3.83.66-.69.13-1.23.24-1.6.34l-.45-2.15c.43-.02,1.15-.11,1.66-.18.74-.1,2.23-.34,3.84-.59-.16-.86-.34-1.76-.48-2.58-1.41.22-2.64.43-3.14.51-.51.11-.93.19-1.47.34l-.43-2.21c.51-.02.99-.05,1.49-.11.56-.06,1.79-.24,3.17-.46-.13-.67-.24-1.2-.29-1.46-.1-.46-.21-.83-.32-1.22Z"/>
        <path class="cls-7" d="M300.45,196.79c.11.38.26.93.43,1.55,2.03-.38,4.27-.82,4.9-.96.29-.05.59-.14.82-.26l1.28.91c-.67,1.41-2.29,3.81-3.41,5.01l-1.76-.88c.82-.74,1.94-2.1,2.37-2.88-.38.06-1.98.4-3.71.75.61,2.21,1.3,4.67,1.54,5.51.1.27.3.99.43,1.31l-2.18.54c-.05-.43-.16-.96-.29-1.41-.24-.86-.9-3.36-1.47-5.54-1.34.29-2.51.53-2.99.64l-.5-1.92c.51-.05.94-.1,1.47-.19.22-.03.8-.13,1.54-.27-.16-.62-.3-1.14-.42-1.49-.11-.42-.27-.8-.45-1.14l2.15-.51c.06.37.16.8.26,1.22Z"/>
        <path class="cls-7" d="M319.38,202.14c2.74-1.62,4.82-4.07,5.83-6.23l1.25,2.26c-1.22,2.16-3.35,4.37-5.92,5.92-1.62.98-3.68,1.87-5.94,2.26l-1.34-2.11c2.5-.35,4.58-1.17,6.13-2.1ZM319.38,196.97l-1.63,1.66c-.83-.9-2.83-2.64-4-3.46l1.5-1.6c1.12.75,3.2,2.42,4.13,3.39Z"/>
        <path class="cls-7" d="M333.5,199.24c-1.42.29-2.69.54-3.36.7l-.38-2.1c.75-.1,2.16-.34,3.75-.62v-2.29c0-.53-.05-1.34-.13-1.84h2.38c-.06.5-.14,1.3-.14,1.84v1.89c2.34-.45,4.58-.9,5.3-1.07.45-.1.83-.21,1.14-.37l1.54,1.18c-.14.22-.38.59-.53.88-.7,1.33-2.16,3.52-3.31,4.66l-1.76-1.04c1.06-.94,2.11-2.4,2.56-3.25-.5.11-2.66.53-4.93.99v4.24c0,.99.29,1.34,2.05,1.34s3.46-.22,5.04-.54l-.06,2.18c-1.33.19-3.25.35-4.96.35-3.65,0-4.18-.88-4.18-2.77v-4.37Z"/>
        <path class="cls-7" d="M349.95,201.32c.45-1.38.46-4.4.46-6.34,0-.64-.05-1.07-.14-1.47h2.35c-.02.08-.11.78-.11,1.46,0,1.89-.05,5.27-.48,6.88-.48,1.81-1.49,3.38-2.85,4.59l-1.95-1.3c1.41-.99,2.27-2.46,2.72-3.83ZM354.77,204.2v-9.33c0-.72-.11-1.33-.13-1.38h2.38s-.11.67-.11,1.39v8.37c1.3-.56,2.88-1.82,3.95-3.38l1.23,1.76c-1.33,1.73-3.63,3.46-5.43,4.37-.35.19-.54.35-.69.48l-1.34-1.1c.06-.3.13-.75.13-1.18Z"/>
        <path class="cls-7" d="M368.18,201.1v3.92c0,.83-.13,1.3-.59,1.58-.45.29-1.06.35-1.97.35-.03-.48-.24-1.22-.46-1.7.45.02.88.02,1.02.02.18,0,.22-.06.22-.24v-3.33c-.46.16-.91.3-1.33.45l-.45-1.82c.51-.13,1.1-.3,1.78-.5v-2.87h-1.55v-1.76h1.55v-3.01h1.78v3.01h1.33v1.76h-1.33v2.3l1.15-.38.3,1.68-1.46.53ZM376.29,203.32c.9.85,2.22,1.6,3.52,2.02-.38.32-.93.99-1.2,1.44-1.12-.48-2.26-1.28-3.14-2.23v2.61h-1.81v-2.56c-1.09,1.02-2.45,1.82-3.87,2.3-.27-.43-.78-1.12-1.17-1.47,1.55-.4,3.09-1.18,4.13-2.11h-2.95v-1.54h3.86v-.98h-3.65v-3.76h4.23v3.7h.62v-3.7h4.37v3.76h-3.76v.98h4.03v1.54h-3.22ZM372.75,198.33h-1.33v1.18h1.33v-1.18ZM377.72,196.49h-6.26v-3.71h6.26v3.71ZM375.99,194.1h-2.91v1.06h2.91v-1.06ZM376.32,199.51h1.39v-1.18h-1.39v1.18Z"/>
        <path class="cls-7" d="M387.68,192.82c-.42,1.12-.94,2.26-1.54,3.33v10.96h-1.92v-8c-.34.4-.67.8-.99,1.15-.18-.46-.72-1.55-1.06-2.03,1.46-1.44,2.85-3.71,3.65-5.99l1.86.58ZM392.75,196.6v1.68h4.15v1.73h-4.15v1.81h4.35v1.76h-4.35v3.55h-1.95v-10.53h-.61c-.64,1.18-1.38,2.27-2.1,3.1-.3-.35-1.06-1.02-1.46-1.33,1.41-1.44,2.67-3.75,3.39-6.03l1.84.46c-.22.67-.48,1.33-.78,1.98h6.21v1.81h-4.55Z"/>
        <path class="cls-7" d="M404.01,199.66c0-3.33,2.59-5.79,6.13-5.79s6.13,2.45,6.13,5.79-2.61,5.79-6.13,5.79-6.13-2.46-6.13-5.79ZM413.65,199.66c0-2.13-1.5-3.59-3.51-3.59s-3.51,1.46-3.51,3.59,1.5,3.59,3.51,3.59,3.51-1.46,3.51-3.59Z"/>
        <path class="cls-7" d="M423.9,200.86l-1.5,1.57v2.83h-2.58v-11.2h2.58v5.23l4.96-5.23h2.88l-4.64,4.99,4.91,6.21h-3.03l-3.59-4.4Z"/>
      </g>
      <g>
        <path class="cls-3" d="M281.7,193.1l2.26-.37c.05.32.1.86.18,1.25.03.22.13.75.26,1.47,1.36-.22,2.58-.42,3.15-.53.51-.1,1.12-.22,1.5-.34l.38,2.1c-.35.03-.99.13-1.47.19-.66.11-1.87.3-3.2.51.16.8.32,1.68.5,2.56,1.44-.24,2.75-.46,3.47-.61.62-.13,1.22-.26,1.63-.38l.43,2.11c-.43.03-1.09.14-1.7.24-.77.13-2.06.34-3.47.56.26,1.31.48,2.38.58,2.88.11.48.27,1.06.42,1.57l-2.31.42c-.08-.59-.13-1.15-.22-1.62-.08-.46-.29-1.57-.54-2.91-1.63.27-3.14.53-3.83.66-.69.13-1.23.24-1.6.34l-.45-2.15c.43-.02,1.15-.11,1.66-.18.74-.1,2.23-.34,3.84-.59-.16-.86-.34-1.76-.48-2.58-1.41.22-2.64.43-3.14.51-.51.11-.93.19-1.47.34l-.43-2.21c.51-.02.99-.05,1.49-.11.56-.06,1.79-.24,3.17-.46-.13-.67-.24-1.2-.29-1.46-.1-.46-.21-.83-.32-1.22Z"/>
        <path class="cls-3" d="M300.45,196.79c.11.38.26.93.43,1.55,2.03-.38,4.27-.82,4.9-.96.29-.05.59-.14.82-.26l1.28.91c-.67,1.41-2.29,3.81-3.41,5.01l-1.76-.88c.82-.74,1.94-2.1,2.37-2.88-.38.06-1.98.4-3.71.75.61,2.21,1.3,4.67,1.54,5.51.1.27.3.99.43,1.31l-2.18.54c-.05-.43-.16-.96-.29-1.41-.24-.86-.9-3.36-1.47-5.54-1.34.29-2.51.53-2.99.64l-.5-1.92c.51-.05.94-.1,1.47-.19.22-.03.8-.13,1.54-.27-.16-.62-.3-1.14-.42-1.49-.11-.42-.27-.8-.45-1.14l2.15-.51c.06.37.16.8.26,1.22Z"/>
        <path class="cls-3" d="M319.38,202.14c2.74-1.62,4.82-4.07,5.83-6.23l1.25,2.26c-1.22,2.16-3.35,4.37-5.92,5.92-1.62.98-3.68,1.87-5.94,2.26l-1.34-2.11c2.5-.35,4.58-1.17,6.13-2.1ZM319.38,196.97l-1.63,1.66c-.83-.9-2.83-2.64-4-3.46l1.5-1.6c1.12.75,3.2,2.42,4.13,3.39Z"/>
        <path class="cls-3" d="M333.5,199.24c-1.42.29-2.69.54-3.36.7l-.38-2.1c.75-.1,2.16-.34,3.75-.62v-2.29c0-.53-.05-1.34-.13-1.84h2.38c-.06.5-.14,1.3-.14,1.84v1.89c2.34-.45,4.58-.9,5.3-1.07.45-.1.83-.21,1.14-.37l1.54,1.18c-.14.22-.38.59-.53.88-.7,1.33-2.16,3.52-3.31,4.66l-1.76-1.04c1.06-.94,2.11-2.4,2.56-3.25-.5.11-2.66.53-4.93.99v4.24c0,.99.29,1.34,2.05,1.34s3.46-.22,5.04-.54l-.06,2.18c-1.33.19-3.25.35-4.96.35-3.65,0-4.18-.88-4.18-2.77v-4.37Z"/>
        <path class="cls-3" d="M349.95,201.32c.45-1.38.46-4.4.46-6.34,0-.64-.05-1.07-.14-1.47h2.35c-.02.08-.11.78-.11,1.46,0,1.89-.05,5.27-.48,6.88-.48,1.81-1.49,3.38-2.85,4.59l-1.95-1.3c1.41-.99,2.27-2.46,2.72-3.83ZM354.77,204.2v-9.33c0-.72-.11-1.33-.13-1.38h2.38s-.11.67-.11,1.39v8.37c1.3-.56,2.88-1.82,3.95-3.38l1.23,1.76c-1.33,1.73-3.63,3.46-5.43,4.37-.35.19-.54.35-.69.48l-1.34-1.1c.06-.3.13-.75.13-1.18Z"/>
        <path class="cls-3" d="M368.18,201.1v3.92c0,.83-.13,1.3-.59,1.58-.45.29-1.06.35-1.97.35-.03-.48-.24-1.22-.46-1.7.45.02.88.02,1.02.02.18,0,.22-.06.22-.24v-3.33c-.46.16-.91.3-1.33.45l-.45-1.82c.51-.13,1.1-.3,1.78-.5v-2.87h-1.55v-1.76h1.55v-3.01h1.78v3.01h1.33v1.76h-1.33v2.3l1.15-.38.3,1.68-1.46.53ZM376.29,203.32c.9.85,2.22,1.6,3.52,2.02-.38.32-.93.99-1.2,1.44-1.12-.48-2.26-1.28-3.14-2.23v2.61h-1.81v-2.56c-1.09,1.02-2.45,1.82-3.87,2.3-.27-.43-.78-1.12-1.17-1.47,1.55-.4,3.09-1.18,4.13-2.11h-2.95v-1.54h3.86v-.98h-3.65v-3.76h4.23v3.7h.62v-3.7h4.37v3.76h-3.76v.98h4.03v1.54h-3.22ZM372.75,198.33h-1.33v1.18h1.33v-1.18ZM377.72,196.49h-6.26v-3.71h6.26v3.71ZM375.99,194.1h-2.91v1.06h2.91v-1.06ZM376.32,199.51h1.39v-1.18h-1.39v1.18Z"/>
        <path class="cls-3" d="M387.68,192.82c-.42,1.12-.94,2.26-1.54,3.33v10.96h-1.92v-8c-.34.4-.67.8-.99,1.15-.18-.46-.72-1.55-1.06-2.03,1.46-1.44,2.85-3.71,3.65-5.99l1.86.58ZM392.75,196.6v1.68h4.15v1.73h-4.15v1.81h4.35v1.76h-4.35v3.55h-1.95v-10.53h-.61c-.64,1.18-1.38,2.27-2.1,3.1-.3-.35-1.06-1.02-1.46-1.33,1.41-1.44,2.67-3.75,3.39-6.03l1.84.46c-.22.67-.48,1.33-.78,1.98h6.21v1.81h-4.55Z"/>
        <path class="cls-3" d="M404.01,199.66c0-3.33,2.59-5.79,6.13-5.79s6.13,2.45,6.13,5.79-2.61,5.79-6.13,5.79-6.13-2.46-6.13-5.79ZM413.65,199.66c0-2.13-1.5-3.59-3.51-3.59s-3.51,1.46-3.51,3.59,1.5,3.59,3.51,3.59,3.51-1.46,3.51-3.59Z"/>
        <path class="cls-3" d="M423.9,200.86l-1.5,1.57v2.83h-2.58v-11.2h2.58v5.23l4.96-5.23h2.88l-4.64,4.99,4.91,6.21h-3.03l-3.59-4.4Z"/>
      </g>
      <g>
        <path class="cls-5" d="M281.7,193.1l2.26-.37c.05.32.1.86.18,1.25.03.22.13.75.26,1.47,1.36-.22,2.58-.42,3.15-.53.51-.1,1.12-.22,1.5-.34l.38,2.1c-.35.03-.99.13-1.47.19-.66.11-1.87.3-3.2.51.16.8.32,1.68.5,2.56,1.44-.24,2.75-.46,3.47-.61.62-.13,1.22-.26,1.63-.38l.43,2.11c-.43.03-1.09.14-1.7.24-.77.13-2.06.34-3.47.56.26,1.31.48,2.38.58,2.88.11.48.27,1.06.42,1.57l-2.31.42c-.08-.59-.13-1.15-.22-1.62-.08-.46-.29-1.57-.54-2.91-1.63.27-3.14.53-3.83.66-.69.13-1.23.24-1.6.34l-.45-2.15c.43-.02,1.15-.11,1.66-.18.74-.1,2.23-.34,3.84-.59-.16-.86-.34-1.76-.48-2.58-1.41.22-2.64.43-3.14.51-.51.11-.93.19-1.47.34l-.43-2.21c.51-.02.99-.05,1.49-.11.56-.06,1.79-.24,3.17-.46-.13-.67-.24-1.2-.29-1.46-.1-.46-.21-.83-.32-1.22Z"/>
        <path class="cls-5" d="M300.45,196.79c.11.38.26.93.43,1.55,2.03-.38,4.27-.82,4.9-.96.29-.05.59-.14.82-.26l1.28.91c-.67,1.41-2.29,3.81-3.41,5.01l-1.76-.88c.82-.74,1.94-2.1,2.37-2.88-.38.06-1.98.4-3.71.75.61,2.21,1.3,4.67,1.54,5.51.1.27.3.99.43,1.31l-2.18.54c-.05-.43-.16-.96-.29-1.41-.24-.86-.9-3.36-1.47-5.54-1.34.29-2.51.53-2.99.64l-.5-1.92c.51-.05.94-.1,1.47-.19.22-.03.8-.13,1.54-.27-.16-.62-.3-1.14-.42-1.49-.11-.42-.27-.8-.45-1.14l2.15-.51c.06.37.16.8.26,1.22Z"/>
        <path class="cls-5" d="M319.38,202.14c2.74-1.62,4.82-4.07,5.83-6.23l1.25,2.26c-1.22,2.16-3.35,4.37-5.92,5.92-1.62.98-3.68,1.87-5.94,2.26l-1.34-2.11c2.5-.35,4.58-1.17,6.13-2.1ZM319.38,196.97l-1.63,1.66c-.83-.9-2.83-2.64-4-3.46l1.5-1.6c1.12.75,3.2,2.42,4.13,3.39Z"/>
        <path class="cls-5" d="M333.5,199.24c-1.42.29-2.69.54-3.36.7l-.38-2.1c.75-.1,2.16-.34,3.75-.62v-2.29c0-.53-.05-1.34-.13-1.84h2.38c-.06.5-.14,1.3-.14,1.84v1.89c2.34-.45,4.58-.9,5.3-1.07.45-.1.83-.21,1.14-.37l1.54,1.18c-.14.22-.38.59-.53.88-.7,1.33-2.16,3.52-3.31,4.66l-1.76-1.04c1.06-.94,2.11-2.4,2.56-3.25-.5.11-2.66.53-4.93.99v4.24c0,.99.29,1.34,2.05,1.34s3.46-.22,5.04-.54l-.06,2.18c-1.33.19-3.25.35-4.96.35-3.65,0-4.18-.88-4.18-2.77v-4.37Z"/>
        <path class="cls-5" d="M349.95,201.32c.45-1.38.46-4.4.46-6.34,0-.64-.05-1.07-.14-1.47h2.35c-.02.08-.11.78-.11,1.46,0,1.89-.05,5.27-.48,6.88-.48,1.81-1.49,3.38-2.85,4.59l-1.95-1.3c1.41-.99,2.27-2.46,2.72-3.83ZM354.77,204.2v-9.33c0-.72-.11-1.33-.13-1.38h2.38s-.11.67-.11,1.39v8.37c1.3-.56,2.88-1.82,3.95-3.38l1.23,1.76c-1.33,1.73-3.63,3.46-5.43,4.37-.35.19-.54.35-.69.48l-1.34-1.1c.06-.3.13-.75.13-1.18Z"/>
        <path class="cls-5" d="M368.18,201.1v3.92c0,.83-.13,1.3-.59,1.58-.45.29-1.06.35-1.97.35-.03-.48-.24-1.22-.46-1.7.45.02.88.02,1.02.02.18,0,.22-.06.22-.24v-3.33c-.46.16-.91.3-1.33.45l-.45-1.82c.51-.13,1.1-.3,1.78-.5v-2.87h-1.55v-1.76h1.55v-3.01h1.78v3.01h1.33v1.76h-1.33v2.3l1.15-.38.3,1.68-1.46.53ZM376.29,203.32c.9.85,2.22,1.6,3.52,2.02-.38.32-.93.99-1.2,1.44-1.12-.48-2.26-1.28-3.14-2.23v2.61h-1.81v-2.56c-1.09,1.02-2.45,1.82-3.87,2.3-.27-.43-.78-1.12-1.17-1.47,1.55-.4,3.09-1.18,4.13-2.11h-2.95v-1.54h3.86v-.98h-3.65v-3.76h4.23v3.7h.62v-3.7h4.37v3.76h-3.76v.98h4.03v1.54h-3.22ZM372.75,198.33h-1.33v1.18h1.33v-1.18ZM377.72,196.49h-6.26v-3.71h6.26v3.71ZM375.99,194.1h-2.91v1.06h2.91v-1.06ZM376.32,199.51h1.39v-1.18h-1.39v1.18Z"/>
        <path class="cls-5" d="M387.68,192.82c-.42,1.12-.94,2.26-1.54,3.33v10.96h-1.92v-8c-.34.4-.67.8-.99,1.15-.18-.46-.72-1.55-1.06-2.03,1.46-1.44,2.85-3.71,3.65-5.99l1.86.58ZM392.75,196.6v1.68h4.15v1.73h-4.15v1.81h4.35v1.76h-4.35v3.55h-1.95v-10.53h-.61c-.64,1.18-1.38,2.27-2.1,3.1-.3-.35-1.06-1.02-1.46-1.33,1.41-1.44,2.67-3.75,3.39-6.03l1.84.46c-.22.67-.48,1.33-.78,1.98h6.21v1.81h-4.55Z"/>
        <path class="cls-5" d="M404.01,199.66c0-3.33,2.59-5.79,6.13-5.79s6.13,2.45,6.13,5.79-2.61,5.79-6.13,5.79-6.13-2.46-6.13-5.79ZM413.65,199.66c0-2.13-1.5-3.59-3.51-3.59s-3.51,1.46-3.51,3.59,1.5,3.59,3.51,3.59,3.51-1.46,3.51-3.59Z"/>
        <path class="cls-5" d="M423.9,200.86l-1.5,1.57v2.83h-2.58v-11.2h2.58v5.23l4.96-5.23h2.88l-4.64,4.99,4.91,6.21h-3.03l-3.59-4.4Z"/>
      </g>
    </g>
    <path class="cls-1" d="M131.13,18.18c1.02.74,2.84,2.26,3.32,2.66l-1.64,2.52c-.44-.56-1.04-1.28-1.68-1.98v6.3h-2.84v-6.32c-.78,1.54-1.66,2.96-2.62,3.98-.28-.86-1-2.1-1.46-2.88,1.34-1.3,2.64-3.32,3.5-5.18h-3.04v-2.68h3.62v-1.94c-1.04.2-2.08.36-3.06.5-.12-.66-.52-1.66-.84-2.26,2.88-.46,5.96-1.24,7.94-2.14l2.04,2.22c-1,.4-2.1.74-3.24,1.04v2.58h3.18v2.68h-3.18v.9ZM137.89,22.5h-2.82v-11.34h2.82v11.34ZM142.59,9.08v15.16c0,1.62-.3,2.4-1.22,2.88-.94.46-2.38.56-4.22.56-.12-.84-.58-2.2-1-3.02,1.26.06,2.58.06,3.02.06.38,0,.54-.12.54-.5v-15.14h2.88ZM164.07,24.44c0,1.44-.3,2.2-1.18,2.64-.92.46-2.16.52-3.94.5-.1-.78-.54-2.04-.92-2.78.98.08,2.28.06,2.64.06s.5-.12.5-.46v-2.4h-3.56v5.42h-2.94v-5.42h-3.6c-.38,2.18-1.14,4.32-2.54,5.82-.46-.54-1.66-1.52-2.3-1.88,2.18-2.38,2.34-5.98,2.34-8.8v-7.14h15.5v14.44ZM154.67,19.26v-1.98h-3.22c0,.62-.02,1.28-.06,1.98h3.28ZM151.45,12.76v1.82h3.22v-1.82h-3.22ZM161.17,12.76h-3.56v1.82h3.56v-1.82ZM161.17,19.26v-1.98h-3.56v1.98h3.56ZM172.17,16.74v10.96h-2.84V9.42h8v7.32h-5.16ZM172.17,11.44v.68h2.44v-.68h-2.44ZM174.61,14.7v-.74h-2.44v.74h2.44ZM180.99,23.38v3.96h-2.54v-3.96h-1.4c-.22,1.38-.92,3.26-2.5,4.36-.4-.5-1.26-1.26-1.84-1.64,1.08-.66,1.62-1.78,1.84-2.72h-1.72v-2.34h1.84v-1.14h-1.58v-2.26h9.56v2.26h-1.66v1.14h1.94v2.34h-1.94ZM178.45,21.04v-1.14h-1.32v1.14h1.32ZM186.51,24.44c0,1.38-.22,2.16-1.02,2.64-.82.48-1.88.56-3.42.54-.08-.78-.46-2.12-.84-2.86.76.04,1.72.04,2.02.04s.4-.12.4-.4v-7.6h-5.28v-7.38h8.14v15.02ZM181.13,11.44v.68h2.52v-.68h-2.52ZM183.65,14.76v-.8h-2.52v.8h2.52ZM198.43,15.54c-.26,2.44-.7,4.48-1.36,6.22.86.72,1.6,1.42,2.08,2.06l-1.74,2.34c-.38-.54-.96-1.16-1.62-1.8-.9,1.42-2.06,2.54-3.48,3.44-.4-.72-1.16-1.78-1.74-2.32,1.26-.66,2.28-1.68,3.06-3-.24-.2-.5-.4-.74-.6l-.16.6-2.34-1.26c.46-1.6.96-3.72,1.44-5.94h-1.24v-2.68h1.8c.26-1.36.5-2.68.7-3.92l2.72.3c-.22,1.16-.46,2.38-.74,3.62h1.36l.5-.06,1.72.28c-.04.8-.1,1.56-.18,2.3l1.56-.08c.66-1.94,1.3-4.4,1.6-6.36l3.24.58c-.6,1.92-1.32,3.96-2,5.64l2.7-.16c-.34-.6-.7-1.2-1.06-1.74l2.3-1.16c1.2,1.7,2.5,3.92,2.96,5.48l-2.52,1.32c-.1-.4-.26-.86-.46-1.36-2.86.24-5.86.46-8.12.62l-.24-2.36ZM194.49,15.28c-.3,1.34-.6,2.66-.9,3.9.38.26.78.52,1.18.82.48-1.4.8-2.98,1-4.72h-1.28ZM199.63,19.16h9.04v8.46h-2.88v-.64h-3.42v.72h-2.74v-8.54ZM202.37,21.78v2.58h3.42v-2.58h-3.42ZM229.13,9.82v17.64h-3.14v-1.32h-8.3v1.32h-3V9.82h14.44ZM217.69,12.76v3.66h8.3v-3.66h-8.3ZM225.99,23.2v-3.9h-8.3v3.9h8.3ZM244.95,26.92l-1.84-2.88c.84-.1,1.38-.22,1.96-.36,2.54-.62,4.24-2.4,4.24-5.04s-1.26-4.42-3.56-4.96c-.26,1.62-.62,3.36-1.18,5.22-1.18,4-2.98,6.68-5.34,6.68-2.48,0-4.36-2.68-4.36-6.1,0-4.76,4.1-8.8,9.44-8.8s8.32,3.52,8.32,8.06c0,4.22-2.48,7.3-7.68,8.18ZM239.31,21.8c.8,0,1.4-1.22,2.12-3.54.44-1.36.78-2.94,1.02-4.5-2.96.8-4.44,3.5-4.44,5.4,0,1.74.6,2.64,1.3,2.64ZM272.55,20.7c0,2.5-1.88,4.78-6.1,4.78-1.94,0-4-.48-5.42-1.38l1.42-2.98c1.14.76,2.54,1.16,3.88,1.16s2.24-.54,2.24-1.48c0-.86-.58-1.42-2.72-1.42h-3.8l.7-8.18h8.92v3.06h-5.64l-.18,2.04h.94c4.14,0,5.76,1.92,5.76,4.4ZM297.27,9.82v17.64h-3.14v-1.32h-8.3v1.32h-3V9.82h14.44ZM285.83,12.76v3.66h8.3v-3.66h-8.3ZM294.13,23.2v-3.9h-8.3v3.9h8.3ZM321.21,11.56v2.62h-18.38v-2.62h3.88c-.32-.62-.84-1.36-1.32-1.92l2.78-.96c.7.74,1.48,1.74,1.8,2.5l-1.1.38h5.28c.58-.9,1.16-2,1.5-2.9l3.18.92c-.44.7-.9,1.38-1.34,1.98h3.72ZM312.13,24.98c0,1.16-.22,1.82-.96,2.22-.74.42-1.66.46-2.84.46-.14-.72-.54-1.8-.9-2.44.58.04,1.34.04,1.58.02.24,0,.32-.08.32-.3v-1.26h-2.76v3.9h-2.74v-12.26h8.3v9.66ZM306.57,17.74v.84h2.76v-.84h-2.76ZM309.33,21.58v-.9h-2.76v.9h2.76ZM316.09,23.74h-2.66v-8.2h2.66v8.2ZM317.41,15.02h2.86v9.62c0,1.34-.24,2.06-1.12,2.5-.86.44-1.98.52-3.4.5-.14-.78-.6-2-1.02-2.74.9.06,1.94.06,2.26.04.32,0,.42-.08.42-.34v-9.58ZM329.65,12.36c-.22,1.04-.96,5.28-.96,7.14,0,.06,0,.38.02.46.28-.56.52-.96.78-1.54l1.46,1.16c-.6,1.82-1.22,4.02-1.44,5.14-.06.3-.12.78-.12.96,0,.22,0,.58.02.9l-2.8.18c-.4-1.34-.8-3.86-.8-6.58,0-3.06.58-6.4.78-7.88.08-.6.22-1.5.24-2.26l3.38.28c-.18.46-.48,1.68-.56,2.04ZM334.73,21.9c0,.88.84,1.22,2.48,1.22,1.78,0,3.22-.16,5.04-.54l.06,3.28c-1.32.24-2.9.38-5.26.38-3.5,0-5.24-1.3-5.24-3.44,0-.86.12-1.7.36-2.74l2.76.24c-.14.64-.2,1.08-.2,1.6ZM341.69,11.52v3.12c-2.62.22-6.12.24-8.8,0l-.02-3.1c2.62.32,6.58.22,8.82-.02ZM364.79,11.8v4.46h-2.8v-2.02h-11.9v2.02h-2.64v-4.46h2.24c-.34-.58-.78-1.24-1.18-1.76l2.52-1.06c.66.74,1.42,1.78,1.74,2.52l-.7.3h2.66c-.28-.7-.76-1.62-1.2-2.32l2.56-.88c.54.78,1.2,1.88,1.48,2.6l-1.66.6h3.12c.6-.86,1.26-2.1,1.62-3.04l3.16.92c-.58.76-1.14,1.5-1.64,2.12h2.62ZM357.37,20c-.14.36-.3.68-.46,1h6.42v6.76h-2.9v-.6h-8.68v.6h-2.76v-6.76h5c.08-.34.16-.68.22-1h-3.4v-5.08h10.46v5.08h-3.9ZM360.43,23.48h-8.68v1.2h8.68v-1.2ZM353.49,17.92h4.94v-.92h-4.94v.92ZM381.95,23.24c1.58.78,3.6,1.34,5.7,1.64-.66.62-1.52,1.84-1.96,2.64-2.36-.56-4.52-1.6-6.26-3v3.18h-2.88v-3.08c-1.8,1.3-4.04,2.32-6.3,2.9-.4-.7-1.24-1.82-1.86-2.42,2.06-.36,4.16-1.02,5.78-1.86h-5.12v-2.36h7.5v-.56h-5.66v-2.06h5.66v-.56h-6.64v-2.24h3.5c-.12-.42-.32-.92-.48-1.3h-3.84v-2.36h2.4c-.28-.7-.7-1.56-1.08-2.24l2.5-.84c.54.84,1.16,2,1.42,2.76l-.9.32h1.44v-3.12h2.7v3.12h.96v-3.12h2.74v3.12h1.32l-.6-.18c.42-.8.88-1.96,1.12-2.82l3.06.7c-.52.86-1.02,1.66-1.46,2.3h2.3v2.36h-3.62c-.28.46-.54.9-.78,1.3h3.6v2.24h-6.78v.56h5.88v2.06h-5.88v.56h7.64v2.36h-5.12ZM375.99,14.16c.22.44.42.92.52,1.26l-.24.04h3.4c.18-.4.36-.86.5-1.3h-4.18ZM405.99,18.2c1.2,1,2.52,1.84,3.92,2.44-.7.6-1.64,1.78-2.12,2.56-.62-.34-1.22-.7-1.8-1.12v5.58h-3.04v-8.36c-.78-.88-1.5-1.84-2.16-2.86-1.52,5.34-4.18,9.06-7.64,11.06-.48-.64-1.6-1.74-2.32-2.18,2.1-1.08,3.82-2.68,5.16-4.8-.68-.64-1.64-1.36-2.52-1.96-.28.34-.56.68-.86.98-.52-.5-1.74-1.46-2.42-1.88,2.2-1.98,3.82-5.36,4.66-8.98l2.9.6c-.2.76-.42,1.52-.68,2.26h2.24l.5-.1,1.92.64c-.1.62-.2,1.22-.32,1.82l.76-.28c.22.44.48.86.78,1.28v-6.14h3.04v9.44ZM395.99,14.28c-.32.72-.66,1.4-1.04,2.04.82.5,1.68,1.06,2.36,1.6.44-1.1.82-2.32,1.1-3.64h-2.42ZM423.09,26.92l-1.84-2.88c.84-.1,1.38-.22,1.96-.36,2.54-.62,4.24-2.4,4.24-5.04s-1.26-4.42-3.56-4.96c-.26,1.62-.62,3.36-1.18,5.22-1.18,4-2.98,6.68-5.34,6.68-2.48,0-4.36-2.68-4.36-6.1,0-4.76,4.1-8.8,9.44-8.8s8.32,3.52,8.32,8.06c0,4.22-2.48,7.3-7.68,8.18ZM417.45,21.8c.8,0,1.4-1.22,2.12-3.54.44-1.36.78-2.94,1.02-4.5-2.96.8-4.44,3.5-4.44,5.4,0,1.74.6,2.64,1.3,2.64ZM451.27,9.82v17.64h-3.14v-1.32h-8.3v1.32h-3V9.82h14.44ZM439.83,12.76v3.66h8.3v-3.66h-8.3ZM448.13,23.2v-3.9h-8.3v3.9h8.3ZM465.03,12c-.12.54-.24,1.1-.36,1.62.54-.04,1-.06,1.36-.06,2.3,0,3.82,1.08,3.82,4.08,0,2.34-.26,5.62-1.12,7.38-.68,1.44-1.86,1.94-3.48,1.94-.78,0-1.72-.12-2.44-.28l-.52-3.18c.74.2,1.94.42,2.44.42.64,0,1.1-.22,1.36-.76.5-1,.74-3.34.74-5.2,0-1.46-.6-1.64-1.84-1.64-.24,0-.56.02-.96.06-.8,3.12-2.3,7.96-4,10.7l-3.16-1.26c1.9-2.56,3.2-6.36,3.94-9.1-.52.08-.96.14-1.24.18-.64.1-1.8.26-2.46.38l-.28-3.26c.78.06,1.54.02,2.34,0,.58-.02,1.4-.08,2.3-.14.28-1.56.42-2.94.38-4.18l3.6.38c-.14.6-.3,1.36-.42,1.92ZM473.21,11.96l-.66.28c1.2,1.88,2.7,5.34,3.24,7.18l-3.1,1.42c-.48-2.32-1.82-5.86-3.26-7.7l1.7-.72c-.38-.78-.88-1.76-1.36-2.44l1.88-.76c.5.74,1.2,2.04,1.56,2.74ZM475.69,10.98l-1.88.8c-.4-.82-1.04-2-1.58-2.76l1.88-.76c.52.76,1.24,2.04,1.58,2.72ZM489.25,8.66c2.3,2.3,5.4,3.88,8.54,4.68-.64.68-1.28,1.68-1.74,2.5-1.3-.48-2.78-1.16-4.16-1.96v1.1h-7.76v-1.14c-1.34.78-2.82,1.48-4.28,2.02-.32-.66-1.04-1.76-1.58-2.34,3.28-1.02,6.5-3.04,8.12-4.86h2.86ZM494.49,16.58c-.66,1.28-1.4,2.54-2.14,3.72h2.52v7.44h-3v-.62h-7.62v.62h-2.86v-7.44h7.5c.38-.6.78-1.26,1.14-1.88h-8.88v-2.52h10.56l.5-.12,2.28.8ZM491.87,24.64v-1.86h-7.62v1.86h7.62ZM489.89,12.62c-.76-.52-1.42-1.06-1.96-1.6-.52.54-1.16,1.08-1.9,1.6h3.86ZM512.09,10.92c0,.16-.02.36-.02.58,1.54-.08,3.12-.24,4.86-.52l-.02,2.76c-1.2.18-2.96.34-4.88.42-.02.58-.02,1.14-.02,1.66,2.06-.1,3.66-.28,5.2-.46l-.02,2.84c-1.76.18-3.22.3-5.12.36.04.64.08,1.32.12,2,2.46.72,4.32,2,5.48,2.98l-1.74,2.7c-.98-.94-2.2-1.9-3.58-2.6v.4c0,1.88-1.52,3.16-4.16,3.16-3.38,0-5.12-1.34-5.12-3.56s1.92-3.66,5.1-3.66c.34,0,.66.02.98.04-.02-.46-.04-.94-.06-1.4h-.98c-1.06,0-3.36-.1-4.62-.26l-.04-2.84c1.24.24,3.78.38,4.7.38h.9c0-.54,0-1.1.02-1.64h-.64c-1.2,0-3.44-.18-4.8-.36l-.06-2.74c1.5.24,3.68.44,4.84.44h.68v-.68c0-.38-.04-1.02-.14-1.46h3.28c-.06.42-.12.98-.14,1.46ZM507.71,24.46c1.02,0,1.58-.28,1.58-1.3,0-.14,0-.34-.02-.58-.48-.08-.98-.12-1.5-.12-1.12,0-1.76.44-1.76,1,0,.66.66,1,1.7,1ZM527.13,9.4l3.5.1c-.14.62-.3,1.64-.46,2.84l.76,1.02c-.26.34-.72,1.06-1.08,1.58v.04c1.56-1.3,3.74-2.76,5.62-2.76,2.32,0,3.34,1.4,3.34,3.12,0,2.1-.62,4.76-.62,6.86,0,.44.24.7.62.7.62,0,1.5-.48,2.34-1.3l.38,3.42c-.86.74-2.04,1.4-3.82,1.4-1.6,0-2.66-1.2-2.66-3.3s.7-4.88.7-6.64c0-.88-.46-1.36-1.22-1.36-1.38,0-3.4,1.76-4.94,3.46-.02.42-.02.86-.02,1.26,0,1.52,0,3.48.14,5.4.02.36.1,1.22.16,1.72h-3.32c.04-.52.06-1.34.06-1.66.02-1.2.04-2.26.08-3.52-.76,1.12-1.56,2.32-2.12,3.06l-1.88-2.66c1.12-1.4,3-3.8,4.2-5.52.02-.36.06-.72.08-1.08-1.04.12-2.46.3-3.5.44l-.3-3.08c.64.02,1.14.02,1.98-.02.54-.04,1.26-.12,2.02-.22.04-.64.06-1.14.06-1.34,0-.64.02-1.28-.1-1.96ZM553.01,12.1c.94-.18,1.78-.38,2.46-.58l.08,2.78c-.82.22-2.04.5-3.4.68-.94,2.82-2.62,6.32-4.24,8.62l-2.92-1.48c1.56-1.96,3.08-4.76,3.96-6.84-.22.02-.42.02-.64.02-.84,0-1.66-.02-2.58-.08l-.22-2.8c.92.1,2.12.14,2.78.14.52,0,1.04-.02,1.56-.06.28-1.08.46-2.24.5-3.26l3.32.32c-.14.62-.38,1.54-.66,2.54ZM558.35,18.62c.02.48.06,1.26.1,2.1,1.74.66,3.14,1.68,4.14,2.6l-1.6,2.6c-.62-.58-1.44-1.36-2.42-2.04-.06,1.92-1.1,3.36-4.06,3.36-2.64,0-4.7-1.24-4.7-3.56,0-2,1.58-3.72,4.66-3.72.36,0,.72.02,1.06.06-.08-1.42-.16-3.08-.22-4.2h3.04c-.06.86-.02,1.82,0,2.8ZM554.07,24.46c1.2,0,1.56-.7,1.56-1.82v-.1c-.44-.08-.88-.14-1.36-.14-.98,0-1.6.4-1.6.98,0,.64.56,1.08,1.4,1.08ZM556.53,14.28l1.56-2.4c1.44.62,4.02,2,5.1,2.74l-1.72,2.56c-1.2-.94-3.54-2.28-4.94-2.9ZM571.33,14.04c0,1.32,0,2.62.12,3.96.24,2.62.64,4.46,1.8,4.46.92,0,1.62-2.5,1.92-3.86l2.44,3c-1.4,3.54-2.68,4.78-4.42,4.78-2.38,0-4.34-2.02-4.9-7.48-.2-1.9-.22-4.2-.22-5.46,0-.6-.04-1.46-.18-2.16l3.72.04c-.16.84-.28,2.14-.28,2.72ZM585.11,22.3l-3.22,1.24c-.28-3.02-1.26-8.28-3.6-10.84l3.1-1c1.96,2.3,3.54,7.72,3.72,10.6ZM599.65,19.1c-.12.24-.26.48-.4.7h7.92s-.02.64-.06.96c-.26,3.78-.58,5.42-1.12,6.04-.42.5-.9.68-1.44.76-.48.08-1.22.1-2.06.08-.04-.58-.2-1.36-.48-1.94-.6.82-1.26,1.56-1.94,2.08-.5-.54-1.34-1.2-2.06-1.6,1.44-.88,2.72-2.46,3.58-4.12h-.7c-1.08,1.82-2.92,3.76-4.6,4.82-.46-.58-1.22-1.28-1.9-1.7,1.36-.66,2.74-1.84,3.8-3.12h-.7c-.66.68-1.38,1.28-2.12,1.76-.32-.36-.96-.96-1.48-1.4-1.56.8-3.14,1.58-4.5,2.24l-1.06-2.94c.64-.22,1.44-.52,2.32-.86v-5.28h-1.84v-2.74h1.84v-3.84h2.7v3.84h1.68v2.74h-1.68v4.18l1.34-.56.44,1.74c.62-.54,1.2-1.16,1.66-1.84h-1.96v-2.42h12.7v2.42h-7.88ZM606.17,16.12h-9.7v-6.96h9.7v6.96ZM603.49,11.12h-4.46v.6h4.46v-.6ZM603.49,13.56h-4.46v.6h4.46v-.6ZM604.03,22.06c-.44,1.12-1.08,2.3-1.82,3.36.4.02.72.02.92.02.26,0,.42-.04.58-.24.24-.26.46-1.14.64-3.14h-.32ZM621.33,8.72c2.18,3.12,5.26,5.54,8.48,6.76-.72.74-1.38,1.72-1.9,2.62-.96-.5-1.92-1.1-2.86-1.76v1.32h-10v-1.42c-.94.68-1.94,1.3-2.96,1.84-.38-.68-1.2-1.76-1.82-2.36,3.42-1.62,6.58-4.62,8.02-7h3.04ZM613.59,19.36h13.04v8.38h-3v-.7h-7.18v.7h-2.86v-8.38ZM616.45,21.9v2.6h7.18v-2.6h-7.18ZM623.43,15.12c-1.42-1.16-2.66-2.4-3.5-3.56-.84,1.18-2.02,2.4-3.42,3.56h6.92Z"/>
    <path class="cls-2" d="M93.96,36c-9.93,0-18-8.07-18-18S84.03,0,93.96,0s18,8.07,18,18-8.07,18-18,18ZM93.96,1c-9.37,0-17,7.63-17,17s7.63,17,17,17,17-7.63,17-17S103.33,1,93.96,1ZM96.51,22.07v-9.76h-2.99c-.12.62-.25,1.28-.39,1.92h1.58l.34-.07,1.23.37c-.64,5.74-2.51,9.76-5.23,11.75-.27-.48-.92-1.3-1.32-1.62,1.3-.89,2.33-2.2,3.11-3.93-.37-.44-1-1.01-1.55-1.46-.3.55-.64,1.05-1.03,1.49-.27-.41-.8-1.05-1.17-1.42v6.91h-1.94v-8.9c-.36.53-.73,1.03-1.1,1.46-.16-.5-.68-1.72-1.01-2.28,1.44-1.65,2.74-4.25,3.52-6.84l1.96.59-.05.18h6.17v1.26h1.74v10.34h-1.87ZM89.1,19.23c1.35-1.71,2.06-4.48,2.42-6.91h-1.17v-1.51c-.36,1.03-.78,2.06-1.24,3.07v5.35ZM92.66,16.06c-.18.53-.36,1.05-.55,1.55.5.36,1.07.78,1.48,1.17.25-.84.44-1.74.6-2.72h-1.53ZM101.46,10.02v13.86c0,1.12-.2,1.67-.85,2.01-.64.34-1.64.41-3.04.41-.07-.57-.36-1.49-.64-2.08.96.05,1.87.05,2.19.04.28-.02.39-.09.39-.39v-13.85h1.96Z"/>
  </g>
</svg>