<?xml version="1.0" encoding="UTF-8"?><svg id="_レイヤー_2" xmlns="http://www.w3.org/2000/svg" viewBox="0 0 900 611"><defs><style>.cls-1{fill:#5a5;}.cls-1,.cls-2,.cls-3,.cls-4{stroke-width:0px;}.cls-2{fill:#ddd;}.cls-3{fill:#4b5654;}.cls-4{fill:#fff;}</style></defs><g id="_レンタル全般"><rect class="cls-2" width="900" height="611" rx="15" ry="15"/><rect class="cls-1" x="44" y="44" width="78" height="521"/><path class="cls-4" d="M75.432,161.528v8.799c0,2.342-.34,3.701-1.625,4.532-1.247.831-2.984,1.02-5.402,1.02-.151-1.359-.718-3.55-1.36-4.985,1.209.075,2.456.075,2.909.075s.604-.151.604-.642v-7.439l-3.022.793-1.133-5.25c1.209-.227,2.607-.529,4.156-.906v-5.627h-3.438v-5.023h3.438v-6.911h4.874v6.911h2.607v4.721h4.118v-3.172h-3.627v-4.268h3.627v-4.192h4.874v4.192h3.589v4.268h-3.589v3.172h3.929v4.268h-13.11l.68,4.796-3.098.869ZM75.432,156.354l2.418-.604v-3.852h-2.418v4.456ZM91.111,168.024l.113,4.343c-4.987.604-10.276,1.133-14.281,1.548l-.68-4.645c1.662-.113,3.665-.265,5.818-.453v-3.664h-3.929v-4.305h3.929v-4.079h4.874v4.079h3.816v4.305h-3.816v3.248l4.156-.377ZM100.216,162.586c-.869-1.284-2.191-2.983-3.514-4.57v17.826h-5.062v-35.877h5.062v11.972c1.663,1.322,5.629,4.985,6.574,5.929l-3.061,4.721Z"/><path class="cls-4" d="M77.208,184.973c-.378,1.02-.831,2.492-.982,3.323-.755,3.361-2.078,10.423-1.36,14.125.491-.869,1.095-2.379,1.625-3.475l2.72,1.737c-1.171,3.512-2.078,7.175-2.569,9.403-.151.604-.264,1.473-.264,1.851,0,.416.038,1.133.075,1.7l-4.949.491c-.831-2.228-2.229-7.515-2.229-12.009,0-6.042.642-11.254,1.133-14.238.189-1.095.227-2.455.265-3.55l6.536.642ZM100.216,196.453c-1.398.113-3.211.227-5.213.302v1.246c0,8.762-1.021,13.671-8.047,18.392l-5.101-4.041c1.549-.718,3.589-2.001,4.685-3.286,2.153-2.644,2.984-5.4,2.984-11.103v-.982c-1.285.038-2.569.038-3.816.038-1.511,0-3.551-.113-5.516-.188v-5.627c1.927.265,3.438.378,5.403.378,1.209,0,2.531-.038,3.892-.076-.038-1.775-.076-3.474-.151-4.494-.076-.755-.264-2.001-.453-2.719h6.385c-.151.944-.189,1.888-.227,2.719-.038.793-.038,2.417-.038,4.192,2.002-.151,3.854-.302,5.251-.528l-.038,5.778Z"/><path class="cls-4" d="M87.446,247.579h14.508v5.061h-14.508v6.231h-5.667v-6.231h-14.206v-5.061h14.206v-2.077l-5.025.377-.416-2.455c-2.305,1.133-4.723,2.228-6.763,3.134l-2.569-4.418c2.418-.718,6.083-2.04,9.596-3.323l.642,2.644,2.342-.076c.529-.491,1.058-1.02,1.625-1.586-1.398-1.095-3.174-2.379-4.647-3.361l-2.947,2.455c-1.133-1.208-3.627-3.021-5.554-4.192l3.627-2.908c1.7.906,3.929,2.341,5.327,3.474l1.738-2.152.793.491c.491-.755.907-1.51,1.322-2.266h-11.977v-4.947h12.883v-3.324h5.667v3.324h13.261v4.947h-15.188l.643.227c-1.134,1.435-2.305,2.908-3.363,4.154.491.302.907.642,1.323.944,1.209-1.397,2.342-2.833,3.211-4.079l4.231,1.888c-1.397,1.586-2.947,3.21-4.534,4.796l3.363-1.397c.566.831,1.209,1.737,1.738,2.682l2.456-1.926c2.418,1.246,5.818,3.248,7.556,4.683l-3.967,3.248c-1.02-.982-2.833-2.266-4.685-3.437.265.604.491,1.171.643,1.699l-4.118,1.813c-.151-.529-.34-1.133-.604-1.775-2.305.189-4.609.377-6.801.566h4.836v2.153ZM87.522,241.045c-.264-.491-.566-.982-.869-1.397-.529.491-1.058,1.02-1.587,1.511l2.456-.113ZM91.792,236.325c1.549-1.284,3.513-3.286,4.647-4.834l4.949,2.304c-1.927,1.775-4.005,3.475-5.592,4.607l-4.004-2.077Z"/><path class="cls-4" d="M76.264,270.57l6.536,1.397c-.34,1.171-.869,3.399-.982,4.23-.529,2.794-1.889,7.628-3.061,10.914-1.284,3.701-3.589,8.12-5.44,10.801l-6.309-2.682c2.267-2.983,4.496-7.024,5.78-10.385,1.7-4.305,3.022-9.291,3.476-14.275ZM85.708,272.005l6.007-1.926c1.587,2.946,4.231,8.988,5.516,12.35,1.247,3.172,3.211,9.215,4.231,13.067l-6.688,2.19c-1.096-4.759-2.229-9.215-3.665-13.256-1.398-3.928-3.816-9.592-5.403-12.425ZM98.252,264.905c2.493,0,4.571,2.04,4.571,4.57s-2.078,4.607-4.571,4.607c-2.531,0-4.609-2.077-4.609-4.607s2.078-4.57,4.609-4.57ZM98.252,271.438c1.058,0,1.964-.907,1.964-1.964s-.907-1.964-1.964-1.964c-1.096,0-1.965.906-1.965,1.964s.869,1.964,1.965,1.964Z"/><path class="cls-4" d="M100.065,314.709c-.491.831-1.058,1.926-1.474,3.021-.907,2.644-2.569,6.156-4.912,9.63,1.36.831,2.569,1.662,3.514,2.341l-4.08,5.287c-.907-.793-2.078-1.699-3.4-2.644-3.287,3.475-7.443,6.609-13.186,8.837l-5.214-4.532c6.536-2.001,10.465-4.872,13.337-7.78-2.229-1.435-4.458-2.832-6.234-3.852l3.816-4.268c1.851.944,4.08,2.19,6.309,3.475,1.549-2.304,2.872-4.91,3.325-6.76h-9.521c-2.72,3.512-6.234,7.024-9.709,9.441l-4.874-3.739c6.574-4.003,9.785-8.837,11.75-11.934.642-1.058,1.549-2.946,1.964-4.418l6.46,2.001c-.793,1.133-1.662,2.568-2.229,3.55h6.158c1.209,0,2.72-.189,3.665-.453l4.534,2.794Z"/><path class="cls-4" d="M80.608,380.224c.377-2.682.377-5.854.377-7.402,0-2.983.038-13.444.038-17.07,0-1.435,0-3.852-.378-5.778h7.292c-.377,1.926-.377,4.306-.377,5.741,0,3.663-.038,14.086-.038,17.107,0,1.058,0,4.721.378,7.402h-7.292Z"/><path class="cls-4" d="M83.782,412.505c6.687-3.853,11.674-9.593,14.168-14.804l3.476,6.345c-2.947,5.249-8.236,10.385-14.395,14.011-3.778,2.228-8.614,4.154-13.261,4.872l-3.816-5.891c5.44-.755,10.201-2.417,13.828-4.532ZM84.613,400.76l-4.571,4.721c-1.964-2.153-6.649-6.231-9.294-8.12l4.231-4.532c2.569,1.737,7.405,5.589,9.634,7.931Z"/><path class="cls-4" d="M73.846,434.514h10.692c6.574,0,11.41,1.586,11.41,7.1,0,2.493-1.398,5.212-3.967,6.081v.151c3.211.755,5.516,2.87,5.516,6.609,0,5.741-4.836,8.309-12.052,8.309h-11.599v-28.249ZM84.84,445.806c2.645,0,4.42-1.095,4.42-3.135,0-2.266-1.662-3.021-4.42-3.021h-4.231v6.156h4.231ZM85.52,457.588c3.325,0,5.252-1.02,5.252-3.588,0-2.304-1.852-3.21-5.252-3.21h-4.911v6.798h4.911Z"/><path class="cls-3" d="M690.154,152.576v24.876h-5.76v-20.256h-4.977v-4.62h10.737Z"/><path class="cls-3" d="M696.981,165.015c0-8.209,4.551-12.865,10.666-12.865,6.151,0,10.666,4.655,10.666,12.865s-4.515,12.864-10.666,12.864c-6.115,0-10.666-4.655-10.666-12.864ZM712.518,165.015c0-5.651-1.991-7.996-4.871-7.996-2.844,0-4.835,2.345-4.835,7.996s1.991,7.996,4.835,7.996c2.88,0,4.871-2.345,4.871-7.996Z"/><path class="cls-3" d="M728.482,174.254c0,.924-.142,1.599-.96,3.554l-2.026,5.117h-3.52l1.564-5.65c-1.173-.462-1.92-1.563-1.92-3.021,0-2.062,1.494-3.412,3.449-3.412,1.991,0,3.413,1.386,3.413,3.412Z"/><path class="cls-3" d="M732.038,165.015c0-8.209,4.551-12.865,10.666-12.865,6.151,0,10.666,4.655,10.666,12.865s-4.515,12.864-10.666,12.864c-6.115,0-10.666-4.655-10.666-12.864ZM747.575,165.015c0-5.651-1.991-7.996-4.871-7.996-2.844,0-4.835,2.345-4.835,7.996s1.991,7.996,4.835,7.996c2.88,0,4.871-2.345,4.871-7.996Z"/><path class="cls-3" d="M757.282,165.015c0-8.209,4.551-12.865,10.666-12.865,6.151,0,10.666,4.655,10.666,12.865s-4.515,12.864-10.666,12.864c-6.115,0-10.666-4.655-10.666-12.864ZM772.818,165.015c0-5.651-1.991-7.996-4.871-7.996-2.844,0-4.835,2.345-4.835,7.996s1.991,7.996,4.835,7.996c2.88,0,4.871-2.345,4.871-7.996Z"/><path class="cls-3" d="M782.526,165.015c0-8.209,4.551-12.865,10.666-12.865,6.151,0,10.666,4.655,10.666,12.865s-4.515,12.864-10.666,12.864c-6.115,0-10.666-4.655-10.666-12.864ZM798.062,165.015c0-5.651-1.991-7.996-4.871-7.996-2.844,0-4.835,2.345-4.835,7.996s1.991,7.996,4.835,7.996c2.88,0,4.871-2.345,4.871-7.996Z"/><path class="cls-3" d="M831.254,158.48v17.018c0,1.933-.845,2.044-4.977,2.044-.089-.422-.355-1.088-.578-1.511.8.022,1.556.044,2.178.044,1.755,0,1.888,0,1.888-.578v-7.243h-15.507v9.331h-1.488v-19.106h18.484ZM814.258,159.947v6.821h6.887v-6.821h-6.887ZM822.634,166.768h7.131v-6.821h-7.131v6.821Z"/><path class="cls-3" d="M170.974,173.224h5.653v-16.632h-4.764v-3.234c2.631-.498,4.444-1.172,6.115-2.203h3.875v22.069h4.942v4.229h-15.821v-4.229Z"/><path class="cls-3" d="M228.109,149.484v30.562h-4.551v-2.239h-15.786v2.31h-4.373v-30.634h24.709ZM207.773,153.749v7.641h15.786v-7.641h-15.786ZM223.559,173.543v-7.96h-15.786v7.96h15.786Z"/><path class="cls-3" d="M240.52,161.532v19.013h-4.195v-31.842h13.617v12.829h-9.421ZM240.52,151.759v1.884h5.475v-1.884h-5.475ZM245.995,158.511v-2.026h-5.475v2.026h5.475ZM266.332,175.534c0,2.274-.462,3.518-1.884,4.193-1.387.711-3.449.817-6.506.817-.107-.889-.498-2.203-.924-3.305h-8.817v1.812h-3.84v-15.388h13.688v12.616c1.387.036,2.702.036,3.165,0,.64,0,.853-.213.853-.782v-13.895h-9.67v-12.9h13.937v26.831ZM248.199,166.792v2.132h5.866v-2.132h-5.866ZM254.065,174.147v-2.203h-5.866v2.203h5.866ZM256.412,151.759v1.884h5.653v-1.884h-5.653ZM262.065,158.582v-2.097h-5.653v2.097h5.653Z"/><path class="cls-3" d="M390.391,167.01l4.693,4.726-1.422,1.528-4.729-4.762-4.764,4.762-1.422-1.528,4.693-4.726-4.693-4.727,1.422-1.528,4.764,4.762,4.729-4.762,1.422,1.528-4.693,4.727Z"/><path class="cls-3" d="M411.44,154.572v24.876h-2.56v-22.602h-5.866v-2.274h8.426Z"/><path class="cls-3" d="M420.969,177.671c0-1.102.854-1.919,1.884-1.919s1.92.817,1.92,1.919-.889,1.955-1.92,1.955-1.884-.853-1.884-1.955Z"/><path class="cls-3" d="M432.026,167.01c0-7.925,4.16-12.652,9.919-12.652s9.955,4.727,9.955,12.652-4.195,12.651-9.955,12.651-9.919-4.727-9.919-12.651ZM449.27,167.01c0-6.646-2.986-10.306-7.324-10.306s-7.324,3.66-7.324,10.306,2.986,10.306,7.324,10.306,7.324-3.66,7.324-10.306Z"/><polygon class="cls-3" points="525 200 523 200 523 199 524 199 524 198 525 198 525 200"/><path class="cls-3" d="M520,200h-3v-1h3v1ZM514,200h-3v-1h3v1ZM508,200h-3v-1h3v1ZM502,200h-3v-1h3v1ZM496,200h-3v-1h3v1ZM490,200h-3v-1h3v1ZM484,200h-3v-1h3v1ZM478,200h-3v-1h3v1ZM472,200h-3v-1h3v1ZM466,200h-3v-1h3v1ZM460,200h-3v-1h3v1ZM454,200h-3v-1h3v1ZM448,200h-3v-1h3v1ZM442,200h-3v-1h3v1ZM436,200h-3v-1h3v1ZM430,200h-3v-1h3v1ZM424,200h-3v-1h3v1ZM418,200h-3v-1h3v1ZM412,200h-3v-1h3v1ZM405,200h-3v-1h3v1ZM399,200h-3v-1h3v1ZM393,200h-3v-1h3v1ZM387,200h-3v-1h3v1ZM381,200h-3v-1h3v1ZM375,200h-3v-1h3v1ZM369,200h-3v-1h3v1ZM363,200h-3v-1h3v1ZM357,200h-3v-1h3v1ZM351,200h-3v-1h3v1ZM345,200h-3v-1h3v1ZM339,200h-3v-1h3v1ZM333,200h-3v-1h3v1ZM327,200h-3v-1h3v1ZM321,200h-3v-1h3v1Z"/><polygon class="cls-3" points="315 200 313 200 313 198 314 198 314 199 315 199 315 200"/><path class="cls-3" d="M314,195h-1v-3h1v3ZM314,189h-1v-3h1v3ZM314,183h-1v-3h1v3ZM314,177h-1v-3h1v3ZM314,171h-1v-3h1v3ZM314,165h-1v-3h1v3ZM314,159h-1v-3h1v3ZM314,153h-1v-3h1v3ZM314,147h-1v-3h1v3ZM314,141h-1v-3h1v3Z"/><polygon class="cls-3" points="314 135 313 135 313 133 315 133 315 134 314 134 314 135"/><path class="cls-3" d="M520,134h-3v-1h3v1ZM514,134h-3v-1h3v1ZM508,134h-3v-1h3v1ZM502,134h-3v-1h3v1ZM496,134h-3v-1h3v1ZM490,134h-3v-1h3v1ZM484,134h-3v-1h3v1ZM478,134h-3v-1h3v1ZM472,134h-3v-1h3v1ZM466,134h-3v-1h3v1ZM460,134h-3v-1h3v1ZM454,134h-3v-1h3v1ZM448,134h-3v-1h3v1ZM442,134h-3v-1h3v1ZM436,134h-3v-1h3v1ZM430,134h-3v-1h3v1ZM424,134h-3v-1h3v1ZM418,134h-3v-1h3v1ZM412,134h-3v-1h3v1ZM405,134h-3v-1h3v1ZM399,134h-3v-1h3v1ZM393,134h-3v-1h3v1ZM387,134h-3v-1h3v1ZM381,134h-3v-1h3v1ZM375,134h-3v-1h3v1ZM369,134h-3v-1h3v1ZM363,134h-3v-1h3v1ZM357,134h-3v-1h3v1ZM351,134h-3v-1h3v1ZM345,134h-3v-1h3v1ZM339,134h-3v-1h3v1ZM333,134h-3v-1h3v1ZM327,134h-3v-1h3v1ZM321,134h-3v-1h3v1Z"/><polygon class="cls-3" points="525 135 524 135 524 134 523 134 523 133 525 133 525 135"/><path class="cls-3" d="M525,195h-1v-3h1v3ZM525,189h-1v-3h1v3ZM525,183h-1v-3h1v3ZM525,177h-1v-3h1v3ZM525,171h-1v-3h1v3ZM525,165h-1v-3h1v3ZM525,159h-1v-3h1v3ZM525,153h-1v-3h1v3ZM525,147h-1v-3h1v3ZM525,141h-1v-3h1v3Z"/><path class="cls-3" d="M634,167h-3v-1h3v1ZM628,167h-3v-1h3v1ZM622,167h-3v-1h3v1ZM616,167h-3v-1h3v1ZM610,167h-3v-1h3v1ZM604,167h-3v-1h3v1ZM598,167h-3v-1h3v1ZM592,167h-3v-1h3v1ZM586,167h-3v-1h3v1ZM580,167h-3v-1h3v1ZM574,167h-3v-1h3v1ZM568,167h-3v-1h3v1ZM562,167h-3v-1h3v1ZM556,167h-3v-1h3v1ZM550,167h-3v-1h3v1ZM544,167h-3v-1h3v1ZM538,167h-3v-1h3v1Z"/><path class="cls-3" d="M634.725,177.656c-.128,0-.256-.049-.353-.146-.195-.195-.195-.511,0-.706l10.462-10.457-10.462-10.457c-.195-.195-.195-.511,0-.706s.511-.195.706,0l10.815,10.809c.195.195.195.511,0,.706l-10.815,10.81c-.098.097-.225.146-.353.146Z"/><path class="cls-3" d="M690.154,241.418v24.876h-5.76v-20.256h-4.977v-4.62h10.737Z"/><path class="cls-3" d="M717.53,258.44c0,5.082-4.16,8.28-9.421,8.28-6.862,0-11.128-4.3-11.128-12.332,0-8.6,5.19-13.397,12.692-13.397,2.631,0,5.19.604,6.933,1.706l-2.133,4.229c-1.386-.924-2.986-1.244-4.657-1.244-4.16,0-6.826,2.452-7.004,7.214,1.458-1.457,3.555-2.203,6.15-2.203,4.8,0,8.568,3.056,8.568,7.747ZM711.949,258.725c0-2.274-1.671-3.731-4.231-3.731-2.524,0-4.302,1.563-4.302,3.731,0,2.132,1.6,3.696,4.373,3.696,2.453,0,4.16-1.421,4.16-3.696Z"/><path class="cls-3" d="M728.126,263.096c0,.924-.142,1.599-.96,3.554l-2.026,5.117h-3.52l1.564-5.65c-1.173-.462-1.92-1.563-1.92-3.021,0-2.062,1.494-3.412,3.449-3.412,1.991,0,3.413,1.386,3.413,3.412Z"/><path class="cls-3" d="M731.683,253.856c0-8.209,4.551-12.865,10.666-12.865,6.151,0,10.666,4.655,10.666,12.865s-4.515,12.864-10.666,12.864c-6.115,0-10.666-4.655-10.666-12.864ZM747.219,253.856c0-5.651-1.991-7.996-4.871-7.996-2.844,0-4.835,2.345-4.835,7.996s1.991,7.996,4.835,7.996c2.88,0,4.871-2.345,4.871-7.996Z"/><path class="cls-3" d="M756.927,253.856c0-8.209,4.551-12.865,10.666-12.865,6.151,0,10.666,4.655,10.666,12.865s-4.515,12.864-10.666,12.864c-6.115,0-10.666-4.655-10.666-12.864ZM772.463,253.856c0-5.651-1.991-7.996-4.871-7.996-2.844,0-4.835,2.345-4.835,7.996s1.991,7.996,4.835,7.996c2.88,0,4.871-2.345,4.871-7.996Z"/><path class="cls-3" d="M782.17,253.856c0-8.209,4.551-12.865,10.666-12.865,6.151,0,10.666,4.655,10.666,12.865s-4.515,12.864-10.666,12.864c-6.115,0-10.666-4.655-10.666-12.864ZM797.707,253.856c0-5.651-1.991-7.996-4.871-7.996-2.844,0-4.835,2.345-4.835,7.996s1.991,7.996,4.835,7.996c2.88,0,4.871-2.345,4.871-7.996Z"/><path class="cls-3" d="M830.898,247.322v17.018c0,1.933-.845,2.044-4.977,2.044-.089-.422-.355-1.088-.578-1.511.8.022,1.556.044,2.178.044,1.755,0,1.888,0,1.888-.578v-7.243h-15.507v9.331h-1.488v-19.106h18.484ZM813.902,248.789v6.821h6.887v-6.821h-6.887ZM822.278,255.609h7.131v-6.821h-7.131v6.821Z"/><path class="cls-3" d="M169.586,263.275c7.146-6.397,11.377-11.337,11.377-15.388,0-2.665-1.458-4.264-3.946-4.264-1.92,0-3.52,1.244-4.835,2.701l-2.844-2.843c2.417-2.559,4.764-3.98,8.355-3.98,4.978,0,8.284,3.198,8.284,8.103,0,4.762-3.947,9.879-8.746,14.57,1.315-.142,3.058-.284,4.266-.284h5.724v4.407h-17.634v-3.021Z"/><path class="cls-3" d="M228.108,238.327v30.562h-4.551v-2.239h-15.786v2.31h-4.373v-30.634h24.709ZM207.772,242.592v7.641h15.786v-7.641h-15.786ZM223.558,262.386v-7.96h-15.786v7.96h15.786Z"/><path class="cls-3" d="M240.519,250.375v19.013h-4.195v-31.842h13.617v12.829h-9.421ZM240.519,240.602v1.884h5.475v-1.884h-5.475ZM245.994,247.354v-2.026h-5.475v2.026h5.475ZM266.331,264.376c0,2.274-.462,3.518-1.884,4.193-1.387.711-3.449.817-6.506.817-.107-.889-.498-2.203-.924-3.305h-8.817v1.812h-3.84v-15.388h13.688v12.616c1.387.036,2.702.036,3.165,0,.64,0,.853-.213.853-.782v-13.895h-9.67v-12.9h13.937v26.831ZM248.198,255.634v2.132h5.866v-2.132h-5.866ZM254.064,262.99v-2.203h-5.866v2.203h5.866ZM256.411,240.602v1.884h5.653v-1.884h-5.653ZM262.064,247.425v-2.097h-5.653v2.097h5.653Z"/><path class="cls-3" d="M391.332,255.853l4.693,4.726-1.422,1.528-4.729-4.762-4.764,4.762-1.422-1.528,4.693-4.726-4.693-4.727,1.422-1.528,4.764,4.762,4.729-4.762,1.422,1.528-4.693,4.727Z"/><path class="cls-3" d="M412.381,243.414v24.876h-2.56v-22.602h-5.866v-2.274h8.426Z"/><path class="cls-3" d="M421.911,266.514c0-1.102.854-1.919,1.884-1.919s1.92.817,1.92,1.919-.889,1.955-1.92,1.955-1.884-.853-1.884-1.955Z"/><path class="cls-3" d="M451.669,260.863c0,4.655-3.662,7.641-8.498,7.641-6.613,0-10.204-4.584-10.204-12.438,0-8.458,4.622-12.865,11.377-12.865,2.24,0,4.337.391,5.902,1.351l-1.031,2.061c-1.28-.853-2.987-1.172-4.835-1.172-5.369,0-8.817,3.447-8.817,10.199,0,.568.035,1.279.106,2.025,1.244-2.736,4.16-4.264,7.608-4.264,4.942,0,8.391,2.914,8.391,7.463ZM449.145,260.934c0-3.27-2.417-5.366-6.257-5.366-3.804,0-6.399,2.346-6.399,5.438,0,2.736,2.275,5.331,6.577,5.331,3.591,0,6.08-2.097,6.08-5.402Z"/><polygon class="cls-3" points="525 290 523 290 523 289 524 289 524 288 525 288 525 290"/><path class="cls-3" d="M520,290h-3v-1h3v1ZM514,290h-3v-1h3v1ZM508,290h-3v-1h3v1ZM502,290h-3v-1h3v1ZM496,290h-3v-1h3v1ZM490,290h-3v-1h3v1ZM484,290h-3v-1h3v1ZM478,290h-3v-1h3v1ZM472,290h-3v-1h3v1ZM466,290h-3v-1h3v1ZM460,290h-3v-1h3v1ZM454,290h-3v-1h3v1ZM448,290h-3v-1h3v1ZM442,290h-3v-1h3v1ZM436,290h-3v-1h3v1ZM430,290h-3v-1h3v1ZM424,290h-3v-1h3v1ZM418,290h-3v-1h3v1ZM412,290h-3v-1h3v1ZM405,290h-3v-1h3v1ZM399,290h-3v-1h3v1ZM393,290h-3v-1h3v1ZM387,290h-3v-1h3v1ZM381,290h-3v-1h3v1ZM375,290h-3v-1h3v1ZM369,290h-3v-1h3v1ZM363,290h-3v-1h3v1ZM357,290h-3v-1h3v1ZM351,290h-3v-1h3v1ZM345,290h-3v-1h3v1ZM339,290h-3v-1h3v1ZM333,290h-3v-1h3v1ZM327,290h-3v-1h3v1ZM321,290h-3v-1h3v1Z"/><polygon class="cls-3" points="315 290 313 290 313 288 314 288 314 289 315 289 315 290"/><path class="cls-3" d="M314,285h-1v-3h1v3ZM314,279h-1v-3h1v3ZM314,273h-1v-3h1v3ZM314,267h-1v-3h1v3ZM314,261h-1v-3h1v3ZM314,255h-1v-3h1v3ZM314,249h-1v-3h1v3ZM314,243h-1v-3h1v3ZM314,237h-1v-3h1v3ZM314,231h-1v-3h1v3Z"/><polygon class="cls-3" points="314 225 313 225 313 223 315 223 315 224 314 224 314 225"/><path class="cls-3" d="M520,224h-3v-1h3v1ZM514,224h-3v-1h3v1ZM508,224h-3v-1h3v1ZM502,224h-3v-1h3v1ZM496,224h-3v-1h3v1ZM490,224h-3v-1h3v1ZM484,224h-3v-1h3v1ZM478,224h-3v-1h3v1ZM472,224h-3v-1h3v1ZM466,224h-3v-1h3v1ZM460,224h-3v-1h3v1ZM454,224h-3v-1h3v1ZM448,224h-3v-1h3v1ZM442,224h-3v-1h3v1ZM436,224h-3v-1h3v1ZM430,224h-3v-1h3v1ZM424,224h-3v-1h3v1ZM418,224h-3v-1h3v1ZM412,224h-3v-1h3v1ZM405,224h-3v-1h3v1ZM399,224h-3v-1h3v1ZM393,224h-3v-1h3v1ZM387,224h-3v-1h3v1ZM381,224h-3v-1h3v1ZM375,224h-3v-1h3v1ZM369,224h-3v-1h3v1ZM363,224h-3v-1h3v1ZM357,224h-3v-1h3v1ZM351,224h-3v-1h3v1ZM345,224h-3v-1h3v1ZM339,224h-3v-1h3v1ZM333,224h-3v-1h3v1ZM327,224h-3v-1h3v1ZM321,224h-3v-1h3v1Z"/><polygon class="cls-3" points="525 225 524 225 524 224 523 224 523 223 525 223 525 225"/><path class="cls-3" d="M525,285h-1v-3h1v3ZM525,279h-1v-3h1v3ZM525,273h-1v-3h1v3ZM525,267h-1v-3h1v3ZM525,261h-1v-3h1v3ZM525,255h-1v-3h1v3ZM525,249h-1v-3h1v3ZM525,243h-1v-3h1v3ZM525,237h-1v-3h1v3ZM525,231h-1v-3h1v3Z"/><path class="cls-3" d="M634,256h-3v-1h3v1ZM628,256h-3v-1h3v1ZM622,256h-3v-1h3v1ZM616,256h-3v-1h3v1ZM610,256h-3v-1h3v1ZM604,256h-3v-1h3v1ZM598,256h-3v-1h3v1ZM592,256h-3v-1h3v1ZM586,256h-3v-1h3v1ZM580,256h-3v-1h3v1ZM574,256h-3v-1h3v1ZM568,256h-3v-1h3v1ZM562,256h-3v-1h3v1ZM556,256h-3v-1h3v1ZM550,256h-3v-1h3v1ZM544,256h-3v-1h3v1ZM538,256h-3v-1h3v1Z"/><path class="cls-3" d="M634.724,266.498c-.128,0-.256-.049-.353-.146-.195-.195-.195-.511,0-.706l10.462-10.457-10.462-10.457c-.195-.195-.195-.511,0-.706s.511-.195.706,0l10.816,10.809c.094.094.146.22.146.353s-.053.259-.146.353l-10.816,10.809c-.098.097-.225.146-.353.146Z"/><path class="cls-3" d="M699.151,350.447v4.691h-18.808v-3.731l9.599-9.062c2.205-2.097,2.596-3.376,2.596-4.584,0-1.955-1.351-3.092-3.982-3.092-2.133,0-3.946.817-5.155,2.488l-4.195-2.701c1.92-2.807,5.404-4.62,9.884-4.62,5.546,0,9.244,2.843,9.244,7.356,0,2.417-.676,4.62-4.16,7.854l-5.724,5.402h10.702Z"/><path class="cls-3" d="M721.978,350.447v4.691h-18.808v-3.731l9.599-9.062c2.205-2.097,2.595-3.376,2.595-4.584,0-1.955-1.351-3.092-3.981-3.092-2.133,0-3.947.817-5.155,2.488l-4.195-2.701c1.92-2.807,5.404-4.62,9.884-4.62,5.546,0,9.244,2.843,9.244,7.356,0,2.417-.675,4.62-4.16,7.854l-5.724,5.402h10.702Z"/><path class="cls-3" d="M731.827,351.94c0,.924-.142,1.599-.96,3.554l-2.026,5.117h-3.52l1.564-5.65c-1.173-.462-1.92-1.563-1.92-3.021,0-2.062,1.494-3.412,3.449-3.412,1.991,0,3.413,1.386,3.413,3.412Z"/><path class="cls-3" d="M734.423,342.7c0-8.209,4.551-12.865,10.666-12.865,6.151,0,10.666,4.655,10.666,12.865s-4.515,12.864-10.666,12.864c-6.115,0-10.666-4.655-10.666-12.864ZM749.959,342.7c0-5.651-1.991-7.996-4.871-7.996-2.844,0-4.835,2.345-4.835,7.996s1.991,7.996,4.835,7.996c2.88,0,4.871-2.345,4.871-7.996Z"/><path class="cls-3" d="M758.564,342.7c0-8.209,4.551-12.865,10.666-12.865,6.151,0,10.666,4.655,10.666,12.865s-4.515,12.864-10.666,12.864c-6.115,0-10.666-4.655-10.666-12.864ZM774.101,342.7c0-5.651-1.991-7.996-4.871-7.996-2.844,0-4.835,2.345-4.835,7.996s1.991,7.996,4.835,7.996c2.88,0,4.871-2.345,4.871-7.996Z"/><path class="cls-3" d="M782.706,342.7c0-8.209,4.551-12.865,10.666-12.865,6.151,0,10.666,4.655,10.666,12.865s-4.515,12.864-10.666,12.864c-6.115,0-10.666-4.655-10.666-12.864ZM798.243,342.7c0-5.651-1.991-7.996-4.871-7.996-2.844,0-4.835,2.345-4.835,7.996s1.991,7.996,4.835,7.996c2.88,0,4.871-2.345,4.871-7.996Z"/><path class="cls-3" d="M831.434,336.166v17.018c0,1.933-.844,2.044-4.977,2.044-.089-.422-.355-1.088-.577-1.511.8.022,1.555.044,2.177.044,1.755,0,1.889,0,1.889-.578v-7.243h-15.507v9.331h-1.489v-19.106h18.484ZM814.438,337.632v6.821h6.887v-6.821h-6.887ZM822.813,344.453h7.132v-6.821h-7.132v6.821Z"/><path class="cls-3" d="M168.982,351.975l2.453-3.305c1.564,1.528,3.484,2.701,5.866,2.701,2.667,0,4.48-1.315,4.48-3.66,0-2.594-1.529-4.193-7.253-4.193v-3.767c4.835,0,6.399-1.67,6.399-4.016,0-2.061-1.28-3.269-3.52-3.305-1.884.036-3.413.924-4.978,2.345l-2.667-3.198c2.275-1.99,4.8-3.234,7.893-3.234,5.084,0,8.533,2.488,8.533,7.001,0,2.843-1.6,4.904-4.408,6.006v.178c2.986.817,5.262,3.021,5.262,6.468,0,4.833-4.231,7.641-9.244,7.641-4.16,0-6.969-1.563-8.817-3.661Z"/><path class="cls-3" d="M228.108,327.17v30.562h-4.551v-2.239h-15.786v2.31h-4.373v-30.634h24.709ZM207.772,331.435v7.641h15.786v-7.641h-15.786ZM223.558,351.229v-7.96h-15.786v7.96h15.786Z"/><path class="cls-3" d="M240.519,339.217v19.013h-4.195v-31.842h13.617v12.829h-9.421ZM240.519,329.444v1.884h5.475v-1.884h-5.475ZM245.994,336.197v-2.026h-5.475v2.026h5.475ZM266.331,353.219c0,2.274-.462,3.518-1.884,4.193-1.387.711-3.449.817-6.506.817-.107-.889-.498-2.203-.924-3.305h-8.817v1.812h-3.84v-15.388h13.688v12.616c1.387.036,2.702.036,3.165,0,.64,0,.853-.213.853-.782v-13.895h-9.67v-12.9h13.937v26.831ZM248.198,344.477v2.132h5.866v-2.132h-5.866ZM254.064,351.833v-2.203h-5.866v2.203h5.866ZM256.411,329.444v1.884h5.653v-1.884h-5.653ZM262.064,336.268v-2.097h-5.653v2.097h5.653Z"/><path class="cls-3" d="M388.383,344.697l4.693,4.726-1.422,1.528-4.729-4.762-4.764,4.762-1.422-1.528,4.693-4.726-4.693-4.727,1.422-1.528,4.764,4.762,4.729-4.762,1.422,1.528-4.693,4.727Z"/><path class="cls-3" d="M419.529,354.86v2.274h-17.457v-1.812l10.346-10.128c2.809-2.772,3.342-4.442,3.342-6.148,0-2.878-2.027-4.655-5.831-4.655-2.915,0-5.155.889-6.791,2.772l-1.813-1.563c1.92-2.274,5.013-3.554,8.817-3.554,5.048,0,8.249,2.559,8.249,6.717,0,2.381-.747,4.513-4.089,7.783l-8.461,8.316h13.688Z"/><path class="cls-3" d="M426.321,355.358c0-1.102.854-1.919,1.884-1.919s1.92.817,1.92,1.919-.889,1.955-1.92,1.955-1.884-.853-1.884-1.955Z"/><path class="cls-3" d="M454.373,354.86v2.274h-17.457v-1.812l10.346-10.128c2.809-2.772,3.342-4.442,3.342-6.148,0-2.878-2.027-4.655-5.831-4.655-2.915,0-5.155.889-6.791,2.772l-1.813-1.563c1.92-2.274,5.013-3.554,8.817-3.554,5.048,0,8.249,2.559,8.249,6.717,0,2.381-.747,4.513-4.089,7.783l-8.461,8.316h13.688Z"/><polygon class="cls-3" points="525 378 523 378 523 377 524 377 524 376 525 376 525 378"/><path class="cls-3" d="M520,378h-3v-1h3v1ZM514,378h-3v-1h3v1ZM508,378h-3v-1h3v1ZM502,378h-3v-1h3v1ZM496,378h-3v-1h3v1ZM490,378h-3v-1h3v1ZM484,378h-3v-1h3v1ZM478,378h-3v-1h3v1ZM472,378h-3v-1h3v1ZM466,378h-3v-1h3v1ZM460,378h-3v-1h3v1ZM454,378h-3v-1h3v1ZM448,378h-3v-1h3v1ZM442,378h-3v-1h3v1ZM436,378h-3v-1h3v1ZM430,378h-3v-1h3v1ZM424,378h-3v-1h3v1ZM418,378h-3v-1h3v1ZM412,378h-3v-1h3v1ZM405,378h-3v-1h3v1ZM399,378h-3v-1h3v1ZM393,378h-3v-1h3v1ZM387,378h-3v-1h3v1ZM381,378h-3v-1h3v1ZM375,378h-3v-1h3v1ZM369,378h-3v-1h3v1ZM363,378h-3v-1h3v1ZM357,378h-3v-1h3v1ZM351,378h-3v-1h3v1ZM345,378h-3v-1h3v1ZM339,378h-3v-1h3v1ZM333,378h-3v-1h3v1ZM327,378h-3v-1h3v1ZM321,378h-3v-1h3v1Z"/><polygon class="cls-3" points="315 378 313 378 313 376 314 376 314 377 315 377 315 378"/><path class="cls-3" d="M314,373h-1v-3h1v3ZM314,367h-1v-3h1v3ZM314,361h-1v-3h1v3ZM314,355h-1v-3h1v3ZM314,349h-1v-3h1v3ZM314,343h-1v-3h1v3ZM314,337h-1v-3h1v3ZM314,331h-1v-3h1v3ZM314,325h-1v-3h1v3ZM314,319h-1v-3h1v3Z"/><polygon class="cls-3" points="314 313 313 313 313 311 315 311 315 312 314 312 314 313"/><path class="cls-3" d="M520,312h-3v-1h3v1ZM514,312h-3v-1h3v1ZM508,312h-3v-1h3v1ZM502,312h-3v-1h3v1ZM496,312h-3v-1h3v1ZM490,312h-3v-1h3v1ZM484,312h-3v-1h3v1ZM478,312h-3v-1h3v1ZM472,312h-3v-1h3v1ZM466,312h-3v-1h3v1ZM460,312h-3v-1h3v1ZM454,312h-3v-1h3v1ZM448,312h-3v-1h3v1ZM442,312h-3v-1h3v1ZM436,312h-3v-1h3v1ZM430,312h-3v-1h3v1ZM424,312h-3v-1h3v1ZM418,312h-3v-1h3v1ZM412,312h-3v-1h3v1ZM405,312h-3v-1h3v1ZM399,312h-3v-1h3v1ZM393,312h-3v-1h3v1ZM387,312h-3v-1h3v1ZM381,312h-3v-1h3v1ZM375,312h-3v-1h3v1ZM369,312h-3v-1h3v1ZM363,312h-3v-1h3v1ZM357,312h-3v-1h3v1ZM351,312h-3v-1h3v1ZM345,312h-3v-1h3v1ZM339,312h-3v-1h3v1ZM333,312h-3v-1h3v1ZM327,312h-3v-1h3v1ZM321,312h-3v-1h3v1Z"/><polygon class="cls-3" points="525 313 524 313 524 312 523 312 523 311 525 311 525 313"/><path class="cls-3" d="M525,373h-1v-3h1v3ZM525,367h-1v-3h1v3ZM525,361h-1v-3h1v3ZM525,355h-1v-3h1v3ZM525,349h-1v-3h1v3ZM525,343h-1v-3h1v3ZM525,337h-1v-3h1v3ZM525,331h-1v-3h1v3ZM525,325h-1v-3h1v3ZM525,319h-1v-3h1v3Z"/><path class="cls-3" d="M634,345h-3v-1h3v1ZM628,345h-3v-1h3v1ZM622,345h-3v-1h3v1ZM616,345h-3v-1h3v1ZM610,345h-3v-1h3v1ZM604,345h-3v-1h3v1ZM598,345h-3v-1h3v1ZM592,345h-3v-1h3v1ZM586,345h-3v-1h3v1ZM580,345h-3v-1h3v1ZM574,345h-3v-1h3v1ZM568,345h-3v-1h3v1ZM562,345h-3v-1h3v1ZM556,345h-3v-1h3v1ZM550,345h-3v-1h3v1ZM544,345h-3v-1h3v1ZM538,345h-3v-1h3v1Z"/><path class="cls-3" d="M634.727,355.34c-.128,0-.256-.049-.353-.146-.195-.195-.195-.511,0-.706l10.462-10.457-10.462-10.457c-.195-.195-.195-.511,0-.706s.511-.195.706,0l10.815,10.81c.195.195.195.511,0,.706l-10.815,10.809c-.098.097-.225.146-.353.146Z"/><path class="cls-3" d="M699.149,439.289v4.691h-18.808v-3.731l9.599-9.062c2.205-2.097,2.596-3.376,2.596-4.584,0-1.955-1.351-3.092-3.982-3.092-2.133,0-3.946.817-5.155,2.488l-4.195-2.701c1.92-2.807,5.404-4.62,9.884-4.62,5.546,0,9.244,2.843,9.244,7.356,0,2.417-.676,4.62-4.16,7.854l-5.724,5.402h10.702Z"/><path class="cls-3" d="M723.113,436.126c0,5.082-4.16,8.28-9.421,8.28-6.862,0-11.128-4.3-11.128-12.332,0-8.6,5.19-13.397,12.692-13.397,2.631,0,5.19.604,6.933,1.706l-2.133,4.229c-1.386-.924-2.986-1.244-4.657-1.244-4.16,0-6.826,2.452-7.004,7.214,1.458-1.457,3.555-2.203,6.151-2.203,4.799,0,8.568,3.056,8.568,7.747ZM717.531,436.411c0-2.274-1.671-3.731-4.231-3.731-2.524,0-4.302,1.563-4.302,3.731,0,2.132,1.6,3.696,4.373,3.696,2.453,0,4.16-1.421,4.16-3.696Z"/><path class="cls-3" d="M731.931,440.782c0,.924-.142,1.599-.96,3.554l-2.026,5.117h-3.52l1.564-5.65c-1.173-.462-1.92-1.563-1.92-3.021,0-2.062,1.494-3.412,3.449-3.412,1.991,0,3.413,1.386,3.413,3.412Z"/><path class="cls-3" d="M734.527,431.542c0-8.209,4.551-12.865,10.666-12.865,6.151,0,10.666,4.655,10.666,12.865s-4.515,12.864-10.666,12.864c-6.115,0-10.666-4.655-10.666-12.864ZM750.064,431.542c0-5.651-1.991-7.996-4.871-7.996-2.844,0-4.835,2.345-4.835,7.996s1.991,7.996,4.835,7.996c2.88,0,4.871-2.345,4.871-7.996Z"/><path class="cls-3" d="M758.669,431.542c0-8.209,4.551-12.865,10.666-12.865,6.151,0,10.666,4.655,10.666,12.865s-4.515,12.864-10.666,12.864c-6.115,0-10.666-4.655-10.666-12.864ZM774.206,431.542c0-5.651-1.991-7.996-4.871-7.996-2.844,0-4.835,2.345-4.835,7.996s1.991,7.996,4.835,7.996c2.88,0,4.871-2.345,4.871-7.996Z"/><path class="cls-3" d="M782.811,431.542c0-8.209,4.551-12.865,10.666-12.865,6.151,0,10.666,4.655,10.666,12.865s-4.515,12.864-10.666,12.864c-6.115,0-10.666-4.655-10.666-12.864ZM798.347,431.542c0-5.651-1.991-7.996-4.871-7.996-2.844,0-4.835,2.345-4.835,7.996s1.991,7.996,4.835,7.996c2.88,0,4.871-2.345,4.871-7.996Z"/><path class="cls-3" d="M831.538,425.008v17.018c0,1.933-.844,2.044-4.977,2.044-.089-.422-.355-1.088-.577-1.511.8.022,1.555.044,2.177.044,1.755,0,1.889,0,1.889-.578v-7.243h-15.507v9.331h-1.489v-19.106h18.484ZM814.542,426.474v6.821h6.887v-6.821h-6.887ZM822.918,433.295h7.132v-6.821h-7.132v6.821Z"/><path class="cls-3" d="M188.003,437.157h-3.129v6.823h-4.871v-6.823h-11.199v-3.554l9.812-15.921h6.257v15.495h3.129v3.98ZM180.003,433.177v-5.366c0-1.528.142-3.909.213-5.438h-.142c-.64,1.386-1.351,2.843-2.098,4.265l-4.089,6.539h6.115Z"/><path class="cls-3" d="M228.108,416.012v30.562h-4.551v-2.239h-15.786v2.31h-4.373v-30.634h24.709ZM207.772,420.276v7.641h15.786v-7.641h-15.786ZM223.558,440.071v-7.96h-15.786v7.96h15.786Z"/><path class="cls-3" d="M240.519,428.059v19.013h-4.195v-31.842h13.617v12.829h-9.421ZM240.519,418.286v1.884h5.475v-1.884h-5.475ZM245.994,425.039v-2.026h-5.475v2.026h5.475ZM266.331,442.061c0,2.274-.462,3.518-1.884,4.193-1.387.711-3.449.817-6.506.817-.107-.889-.498-2.203-.924-3.305h-8.817v1.812h-3.84v-15.388h13.688v12.616c1.387.036,2.702.036,3.165,0,.64,0,.853-.213.853-.782v-13.895h-9.67v-12.9h13.937v26.831ZM248.198,433.319v2.132h5.866v-2.132h-5.866ZM254.064,440.675v-2.203h-5.866v2.203h5.866ZM256.411,418.286v1.884h5.653v-1.884h-5.653ZM262.064,425.109v-2.097h-5.653v2.097h5.653Z"/><path class="cls-3" d="M387.654,433.538l4.693,4.726-1.422,1.528-4.729-4.762-4.764,4.762-1.422-1.528,4.693-4.726-4.693-4.727,1.422-1.528,4.764,4.762,4.729-4.762,1.422,1.528-4.693,4.727Z"/><path class="cls-3" d="M418.8,443.702v2.274h-17.457v-1.812l10.346-10.128c2.809-2.771,3.342-4.442,3.342-6.148,0-2.878-2.026-4.655-5.831-4.655-2.915,0-5.155.889-6.791,2.772l-1.813-1.563c1.919-2.274,5.013-3.554,8.817-3.554,5.049,0,8.249,2.559,8.249,6.717,0,2.381-.747,4.513-4.089,7.783l-8.461,8.316h13.688Z"/><path class="cls-3" d="M425.592,444.199c0-1.102.854-1.919,1.884-1.919s1.92.817,1.92,1.919-.889,1.955-1.92,1.955-1.884-.853-1.884-1.955Z"/><path class="cls-3" d="M455.351,438.549c0,4.655-3.662,7.641-8.498,7.641-6.613,0-10.204-4.584-10.204-12.438,0-8.458,4.622-12.865,11.377-12.865,2.24,0,4.337.391,5.902,1.351l-1.031,2.061c-1.28-.853-2.987-1.172-4.835-1.172-5.369,0-8.817,3.447-8.817,10.199,0,.568.035,1.279.106,2.025,1.244-2.736,4.16-4.264,7.608-4.264,4.942,0,8.391,2.914,8.391,7.463ZM452.826,438.62c0-3.27-2.417-5.366-6.257-5.366-3.804,0-6.399,2.346-6.399,5.438,0,2.736,2.275,5.331,6.577,5.331,3.591,0,6.08-2.097,6.08-5.402Z"/><polygon class="cls-3" points="525 468 523 468 523 467 524 467 524 466 525 466 525 468"/><path class="cls-3" d="M520,468h-3v-1h3v1ZM514,468h-3v-1h3v1ZM508,468h-3v-1h3v1ZM502,468h-3v-1h3v1ZM496,468h-3v-1h3v1ZM490,468h-3v-1h3v1ZM484,468h-3v-1h3v1ZM478,468h-3v-1h3v1ZM472,468h-3v-1h3v1ZM466,468h-3v-1h3v1ZM460,468h-3v-1h3v1ZM454,468h-3v-1h3v1ZM448,468h-3v-1h3v1ZM442,468h-3v-1h3v1ZM436,468h-3v-1h3v1ZM430,468h-3v-1h3v1ZM424,468h-3v-1h3v1ZM418,468h-3v-1h3v1ZM412,468h-3v-1h3v1ZM405,468h-3v-1h3v1ZM399,468h-3v-1h3v1ZM393,468h-3v-1h3v1ZM387,468h-3v-1h3v1ZM381,468h-3v-1h3v1ZM375,468h-3v-1h3v1ZM369,468h-3v-1h3v1ZM363,468h-3v-1h3v1ZM357,468h-3v-1h3v1ZM351,468h-3v-1h3v1ZM345,468h-3v-1h3v1ZM339,468h-3v-1h3v1ZM333,468h-3v-1h3v1ZM327,468h-3v-1h3v1ZM321,468h-3v-1h3v1Z"/><polygon class="cls-3" points="315 468 313 468 313 466 314 466 314 467 315 467 315 468"/><path class="cls-3" d="M314,463h-1v-3h1v3ZM314,457h-1v-3h1v3ZM314,451h-1v-3h1v3ZM314,445h-1v-3h1v3ZM314,439h-1v-3h1v3ZM314,433h-1v-3h1v3ZM314,427h-1v-3h1v3ZM314,421h-1v-3h1v3ZM314,415h-1v-3h1v3ZM314,409h-1v-3h1v3Z"/><polygon class="cls-3" points="314 403 313 403 313 401 315 401 315 402 314 402 314 403"/><path class="cls-3" d="M520,402h-3v-1h3v1ZM514,402h-3v-1h3v1ZM508,402h-3v-1h3v1ZM502,402h-3v-1h3v1ZM496,402h-3v-1h3v1ZM490,402h-3v-1h3v1ZM484,402h-3v-1h3v1ZM478,402h-3v-1h3v1ZM472,402h-3v-1h3v1ZM466,402h-3v-1h3v1ZM460,402h-3v-1h3v1ZM454,402h-3v-1h3v1ZM448,402h-3v-1h3v1ZM442,402h-3v-1h3v1ZM436,402h-3v-1h3v1ZM430,402h-3v-1h3v1ZM424,402h-3v-1h3v1ZM418,402h-3v-1h3v1ZM412,402h-3v-1h3v1ZM405,402h-3v-1h3v1ZM399,402h-3v-1h3v1ZM393,402h-3v-1h3v1ZM387,402h-3v-1h3v1ZM381,402h-3v-1h3v1ZM375,402h-3v-1h3v1ZM369,402h-3v-1h3v1ZM363,402h-3v-1h3v1ZM357,402h-3v-1h3v1ZM351,402h-3v-1h3v1ZM345,402h-3v-1h3v1ZM339,402h-3v-1h3v1ZM333,402h-3v-1h3v1ZM327,402h-3v-1h3v1ZM321,402h-3v-1h3v1Z"/><polygon class="cls-3" points="525 403 524 403 524 402 523 402 523 401 525 401 525 403"/><path class="cls-3" d="M525,463h-1v-3h1v3ZM525,457h-1v-3h1v3ZM525,451h-1v-3h1v3ZM525,445h-1v-3h1v3ZM525,439h-1v-3h1v3ZM525,433h-1v-3h1v3ZM525,427h-1v-3h1v3ZM525,421h-1v-3h1v3ZM525,415h-1v-3h1v3ZM525,409h-1v-3h1v3Z"/><path class="cls-3" d="M634,434h-3v-1h3v1ZM628,434h-3v-1h3v1ZM622,434h-3v-1h3v1ZM616,434h-3v-1h3v1ZM610,434h-3v-1h3v1ZM604,434h-3v-1h3v1ZM598,434h-3v-1h3v1ZM592,434h-3v-1h3v1ZM586,434h-3v-1h3v1ZM580,434h-3v-1h3v1ZM574,434h-3v-1h3v1ZM568,434h-3v-1h3v1ZM562,434h-3v-1h3v1ZM556,434h-3v-1h3v1ZM550,434h-3v-1h3v1ZM544,434h-3v-1h3v1ZM538,434h-3v-1h3v1Z"/><path class="cls-3" d="M634.726,444.183c-.128,0-.256-.049-.353-.146-.195-.195-.195-.511,0-.706l10.462-10.457-10.462-10.457c-.195-.195-.195-.511,0-.706s.511-.195.706,0l10.815,10.809c.195.195.195.511,0,.706l-10.815,10.81c-.098.097-.225.146-.353.146Z"/><path class="cls-3" d="M698.938,525.217c0,4.193-3.235,8.031-10.311,8.031-3.484,0-7.075-.959-9.493-2.665l2.24-4.407c1.884,1.421,4.516,2.239,7.111,2.239,2.88,0,4.657-1.173,4.657-3.198,0-1.884-1.386-3.056-4.657-3.056h-2.631v-3.803l5.12-5.792h-10.595v-4.62h17.421v3.731l-5.618,6.397c4.48.71,6.755,3.482,6.755,7.143Z"/><path class="cls-3" d="M701.605,520.384c0-8.209,4.551-12.865,10.666-12.865,6.151,0,10.666,4.655,10.666,12.865s-4.515,12.864-10.666,12.864c-6.115,0-10.666-4.655-10.666-12.864ZM717.142,520.384c0-5.651-1.991-7.996-4.871-7.996-2.844,0-4.835,2.345-4.835,7.996s1.991,7.996,4.835,7.996c2.88,0,4.871-2.345,4.871-7.996Z"/><path class="cls-3" d="M732.466,529.624c0,.924-.142,1.599-.96,3.554l-2.026,5.117h-3.52l1.564-5.65c-1.173-.462-1.92-1.563-1.92-3.021,0-2.062,1.494-3.412,3.449-3.412,1.991,0,3.413,1.386,3.413,3.412Z"/><path class="cls-3" d="M735.062,520.384c0-8.209,4.551-12.865,10.666-12.865,6.151,0,10.666,4.655,10.666,12.865s-4.515,12.864-10.666,12.864c-6.115,0-10.666-4.655-10.666-12.864ZM750.599,520.384c0-5.651-1.991-7.996-4.871-7.996-2.844,0-4.835,2.345-4.835,7.996s1.991,7.996,4.835,7.996c2.88,0,4.871-2.345,4.871-7.996Z"/><path class="cls-3" d="M759.204,520.384c0-8.209,4.551-12.865,10.666-12.865,6.151,0,10.666,4.655,10.666,12.865s-4.515,12.864-10.666,12.864c-6.115,0-10.666-4.655-10.666-12.864ZM774.741,520.384c0-5.651-1.991-7.996-4.871-7.996-2.844,0-4.835,2.345-4.835,7.996s1.991,7.996,4.835,7.996c2.88,0,4.871-2.345,4.871-7.996Z"/><path class="cls-3" d="M783.346,520.384c0-8.209,4.551-12.865,10.666-12.865,6.151,0,10.666,4.655,10.666,12.865s-4.515,12.864-10.666,12.864c-6.115,0-10.666-4.655-10.666-12.864ZM798.882,520.384c0-5.651-1.991-7.996-4.871-7.996-2.844,0-4.835,2.345-4.835,7.996s1.991,7.996,4.835,7.996c2.88,0,4.871-2.345,4.871-7.996Z"/><path class="cls-3" d="M832.073,513.85v17.018c0,1.933-.844,2.044-4.977,2.044-.089-.422-.355-1.089-.577-1.511.8.022,1.555.044,2.177.044,1.755,0,1.889,0,1.889-.578v-7.243h-15.507v9.331h-1.489v-19.106h18.484ZM815.078,515.316v6.82h6.887v-6.82h-6.887ZM823.453,522.137h7.132v-6.82h-7.132v6.82Z"/><path class="cls-3" d="M168.982,529.73l2.417-3.34c1.493,1.457,3.342,2.665,5.795,2.665,2.737,0,4.657-1.741,4.657-4.833,0-3.056-1.777-4.762-4.444-4.762-1.564,0-2.418.391-3.946,1.386l-2.382-1.564.711-12.758h14.079v4.371h-9.564l-.498,5.58c1.031-.498,1.956-.747,3.164-.747,4.409,0,8.106,2.63,8.106,8.352,0,5.864-4.337,9.24-9.208,9.24-4.16,0-6.933-1.635-8.888-3.589Z"/><path class="cls-3" d="M228.108,504.854v30.562h-4.551v-2.239h-15.786v2.31h-4.373v-30.634h24.709ZM207.772,509.119v7.641h15.786v-7.641h-15.786ZM223.558,528.913v-7.96h-15.786v7.96h15.786Z"/><path class="cls-3" d="M240.519,516.901v19.013h-4.195v-31.842h13.617v12.829h-9.421ZM240.519,507.128v1.884h5.475v-1.884h-5.475ZM245.994,513.881v-2.026h-5.475v2.026h5.475ZM266.331,530.903c0,2.274-.462,3.518-1.884,4.193-1.387.711-3.449.817-6.506.817-.107-.889-.498-2.203-.924-3.305h-8.817v1.812h-3.84v-15.388h13.688v12.616c1.387.036,2.702.036,3.165,0,.64,0,.853-.213.853-.782v-13.895h-9.67v-12.9h13.937v26.831ZM248.198,522.161v2.132h5.866v-2.132h-5.866ZM254.064,529.517v-2.203h-5.866v2.203h5.866ZM256.411,507.128v1.884h5.653v-1.884h-5.653ZM262.064,513.952v-2.097h-5.653v2.097h5.653Z"/><path class="cls-3" d="M386.783,522.38l4.693,4.726-1.422,1.528-4.729-4.762-4.764,4.762-1.422-1.528,4.693-4.726-4.693-4.727,1.422-1.528,4.764,4.762,4.729-4.762,1.422,1.528-4.693,4.727Z"/><path class="cls-3" d="M417.396,527.675c0,4.158-3.022,7.356-9.03,7.356-3.591,0-7.04-1.244-8.959-3.199l1.245-2.025c1.6,1.67,4.479,2.878,7.715,2.878,4.124,0,6.399-1.919,6.399-5.011,0-2.985-2.098-4.94-6.719-4.94h-1.778v-1.883l6.897-8.636h-12.728v-2.274h15.999v1.812l-7.039,8.849c5.333.285,7.999,3.092,7.999,7.072Z"/><path class="cls-3" d="M424.579,533.041c0-1.102.854-1.919,1.884-1.919s1.92.817,1.92,1.919-.889,1.955-1.92,1.955-1.884-.853-1.884-1.955Z"/><path class="cls-3" d="M435.636,522.38c0-7.925,4.16-12.652,9.919-12.652s9.955,4.727,9.955,12.652-4.195,12.651-9.955,12.651-9.919-4.727-9.919-12.651ZM452.879,522.38c0-6.646-2.986-10.306-7.324-10.306s-7.324,3.66-7.324,10.306,2.986,10.306,7.324,10.306,7.324-3.66,7.324-10.306Z"/><polygon class="cls-3" points="525 556 523 556 523 555 524 555 524 554 525 554 525 556"/><path class="cls-3" d="M520,556h-3v-1h3v1ZM514,556h-3v-1h3v1ZM508,556h-3v-1h3v1ZM502,556h-3v-1h3v1ZM496,556h-3v-1h3v1ZM490,556h-3v-1h3v1ZM484,556h-3v-1h3v1ZM478,556h-3v-1h3v1ZM472,556h-3v-1h3v1ZM466,556h-3v-1h3v1ZM460,556h-3v-1h3v1ZM454,556h-3v-1h3v1ZM448,556h-3v-1h3v1ZM442,556h-3v-1h3v1ZM436,556h-3v-1h3v1ZM430,556h-3v-1h3v1ZM424,556h-3v-1h3v1ZM418,556h-3v-1h3v1ZM412,556h-3v-1h3v1ZM405,556h-3v-1h3v1ZM399,556h-3v-1h3v1ZM393,556h-3v-1h3v1ZM387,556h-3v-1h3v1ZM381,556h-3v-1h3v1ZM375,556h-3v-1h3v1ZM369,556h-3v-1h3v1ZM363,556h-3v-1h3v1ZM357,556h-3v-1h3v1ZM351,556h-3v-1h3v1ZM345,556h-3v-1h3v1ZM339,556h-3v-1h3v1ZM333,556h-3v-1h3v1ZM327,556h-3v-1h3v1ZM321,556h-3v-1h3v1Z"/><polygon class="cls-3" points="315 556 313 556 313 554 314 554 314 555 315 555 315 556"/><path class="cls-3" d="M314,551h-1v-3h1v3ZM314,545h-1v-3h1v3ZM314,539h-1v-3h1v3ZM314,533h-1v-3h1v3ZM314,527h-1v-3h1v3ZM314,521h-1v-3h1v3ZM314,515h-1v-3h1v3ZM314,509h-1v-3h1v3ZM314,503h-1v-3h1v3ZM314,497h-1v-3h1v3Z"/><polygon class="cls-3" points="314 491 313 491 313 489 315 489 315 490 314 490 314 491"/><path class="cls-3" d="M520,490h-3v-1h3v1ZM514,490h-3v-1h3v1ZM508,490h-3v-1h3v1ZM502,490h-3v-1h3v1ZM496,490h-3v-1h3v1ZM490,490h-3v-1h3v1ZM484,490h-3v-1h3v1ZM478,490h-3v-1h3v1ZM472,490h-3v-1h3v1ZM466,490h-3v-1h3v1ZM460,490h-3v-1h3v1ZM454,490h-3v-1h3v1ZM448,490h-3v-1h3v1ZM442,490h-3v-1h3v1ZM436,490h-3v-1h3v1ZM430,490h-3v-1h3v1ZM424,490h-3v-1h3v1ZM418,490h-3v-1h3v1ZM412,490h-3v-1h3v1ZM405,490h-3v-1h3v1ZM399,490h-3v-1h3v1ZM393,490h-3v-1h3v1ZM387,490h-3v-1h3v1ZM381,490h-3v-1h3v1ZM375,490h-3v-1h3v1ZM369,490h-3v-1h3v1ZM363,490h-3v-1h3v1ZM357,490h-3v-1h3v1ZM351,490h-3v-1h3v1ZM345,490h-3v-1h3v1ZM339,490h-3v-1h3v1ZM333,490h-3v-1h3v1ZM327,490h-3v-1h3v1ZM321,490h-3v-1h3v1Z"/><polygon class="cls-3" points="525 491 524 491 524 490 523 490 523 489 525 489 525 491"/><path class="cls-3" d="M525,551h-1v-3h1v3ZM525,545h-1v-3h1v3ZM525,539h-1v-3h1v3ZM525,533h-1v-3h1v3ZM525,527h-1v-3h1v3ZM525,521h-1v-3h1v3ZM525,515h-1v-3h1v3ZM525,509h-1v-3h1v3ZM525,503h-1v-3h1v3ZM525,497h-1v-3h1v3Z"/><path class="cls-3" d="M634,523h-3v-1h3v1ZM628,523h-3v-1h3v1ZM622,523h-3v-1h3v1ZM616,523h-3v-1h3v1ZM610,523h-3v-1h3v1ZM604,523h-3v-1h3v1ZM598,523h-3v-1h3v1ZM592,523h-3v-1h3v1ZM586,523h-3v-1h3v1ZM580,523h-3v-1h3v1ZM574,523h-3v-1h3v1ZM568,523h-3v-1h3v1ZM562,523h-3v-1h3v1ZM556,523h-3v-1h3v1ZM550,523h-3v-1h3v1ZM544,523h-3v-1h3v1ZM538,523h-3v-1h3v1Z"/><path class="cls-3" d="M634.726,533.025c-.128,0-.256-.049-.353-.146-.195-.195-.195-.511,0-.706l10.462-10.457-10.462-10.457c-.195-.195-.195-.511,0-.706s.511-.195.706,0l10.815,10.809c.195.195.195.511,0,.706l-10.815,10.809c-.098.097-.225.146-.353.146Z"/><path class="cls-3" d="M208.283,60.643v30.562h-4.551v-2.239h-15.786v2.31h-4.373v-30.634h24.709ZM187.947,64.908v7.641h15.786v-7.641h-15.786ZM203.732,84.702v-7.96h-15.786v7.96h15.786Z"/><path class="cls-3" d="M245.972,68.817c-.747,5.259-1.955,9.666-3.875,13.255,1.635,2.523,3.697,4.549,6.293,5.899-.96.853-2.275,2.488-2.916,3.66-2.417-1.457-4.373-3.34-5.973-5.65-1.955,2.346-4.408,4.265-7.501,5.828-.249-.604-.782-1.563-1.351-2.417l-1.6,1.635c-.96-.817-2.24-1.741-3.698-2.665-2.098,1.563-4.942,2.594-8.746,3.376-.249-1.208-.996-2.63-1.671-3.519,2.844-.355,5.084-.959,6.755-1.883-.64-.355-1.315-.675-1.991-.959l-.391.675-3.698-1.137c.782-1.244,1.671-2.843,2.56-4.549h-3.377v-3.412h5.155c.426-.889.853-1.742,1.208-2.523l.782.178v-3.412c-1.635,1.635-3.555,3.127-5.333,4.123-.462-.924-1.351-2.31-2.133-3.056,2.169-.889,4.551-2.594,6.258-4.442h-5.546v-3.34h2.702c-.32-1.208-1.102-2.843-1.849-4.123l3.058-1.279c.924,1.35,1.849,3.163,2.133,4.407l-2.275.995h2.986v-5.971h3.875v5.971h2.809l-2.347-1.031c.818-1.279,1.813-3.163,2.382-4.513l3.555,1.421c-1.102,1.528-2.204,3.021-3.058,4.123h3.377v3.34h-5.831c1.707.959,4.231,2.452,5.013,2.985l-2.24,2.914c-.782-.747-2.275-1.99-3.662-3.092v4.3h-2.275l1.529.32-.854,1.706h8.461c-.817-.817-2.097-1.919-2.879-2.452,3.022-3.625,4.729-9.667,5.582-15.992l4.267.569c-.285,1.99-.676,3.945-1.138,5.828h9.457v3.909h-1.991ZM221.44,82.25c1.066.427,2.098.853,3.128,1.351.569-.889,1.031-1.955,1.351-3.234h-3.449l-1.031,1.883ZM229.902,80.367c-.391,1.99-.996,3.66-1.884,5.046,1.102.64,2.133,1.279,2.951,1.883,2.631-1.386,4.693-3.163,6.257-5.366-.995-2.097-1.777-4.442-2.417-7.001-.498.924-1.066,1.777-1.635,2.559-.142-.142-.285-.32-.498-.533v3.412h-2.773ZM237.51,68.817c.498,2.985,1.209,5.792,2.169,8.351.889-2.417,1.529-5.224,1.919-8.351h-4.088Z"/><path class="cls-3" d="M370.116,77.132c-1.066.32-2.168.675-3.235.995v9.168c0,1.955-.32,2.985-1.422,3.625-1.031.675-2.56.817-4.835.782-.106-1.031-.568-2.701-1.066-3.838,1.28.071,2.524.071,2.951.071s.604-.142.604-.64v-8.031c-1.173.32-2.311.64-3.342.924l-.924-4.051c1.209-.249,2.667-.64,4.266-1.031v-6.006h-3.626v-3.874h3.626v-6.681h3.769v6.681h2.737v3.874h-2.737v4.975l2.702-.746.533,3.803ZM382.168,84.737l.106,3.34c-4.764.675-9.848,1.315-13.617,1.812l-.569-3.625c1.635-.177,3.662-.391,5.831-.604v-4.087h-4.124v-3.376h4.124v-4.193h3.733v4.193h4.053v3.376h-4.053v3.661l4.515-.498ZM373.956,66.044h-3.769v-3.305h3.769v-4.193h3.769v4.193h3.733v3.305h-3.733v3.66h4.231v3.341h-12.515v-3.341h4.515v-3.66ZM390.666,78.979c-.924-1.244-2.524-3.056-3.982-4.62v17.342h-3.911v-33.157h3.911v11.266c1.564,1.208,5.369,4.655,6.329,5.544l-2.347,3.625Z"/><path class="cls-3" d="M403.681,61.069c-.285.853-.676,2.097-.818,2.843-.853,3.909-2.098,11.266-1.173,15.637.462-1.066,1.067-2.772,1.636-4.051l2.24,1.386c-1.031,3.056-1.956,6.61-2.382,8.6-.143.533-.249,1.315-.249,1.706.036.355.071.959.106,1.457l-3.946.391c-.747-2.132-2.026-7.036-2.026-11.407,0-5.757.711-11.195,1.173-14.038.178-.995.213-2.168.213-3.056l5.227.533ZM426.257,71.304c-1.422.177-3.235.32-5.227.426v1.457c0,8.316-.64,13.397-7.644,17.875l-4.089-3.198c1.351-.604,3.129-1.706,4.125-2.808,2.702-2.808,3.271-5.935,3.271-11.87v-1.279c-1.315.036-2.667.071-3.946.071-1.529,0-3.697-.106-5.439-.178v-4.478c1.742.249,3.449.355,5.333.355,1.28,0,2.631-.036,3.982-.071-.036-1.955-.107-3.767-.178-4.727-.071-.746-.213-1.812-.391-2.417h5.155c-.142.782-.142,1.599-.178,2.381-.035.782-.035,2.594-.035,4.513,1.991-.142,3.839-.355,5.297-.64l-.036,4.584Z"/><path class="cls-3" d="M442.081,75.923c.675-.64,1.351-1.315,2.026-1.99-1.28-1.102-2.986-2.345-4.479-3.305l-2.595,2.167c-1.103-1.137-3.449-2.843-5.333-3.909l2.809-2.31c1.635.888,3.804,2.274,5.12,3.376l1.635-1.99.854.533c.604-.889,1.173-1.848,1.671-2.736h-11.626v-3.767h12.515v-3.447h4.337v3.447h12.835v3.767h-14.719l.782.284c-1.102,1.421-2.275,2.878-3.306,4.087.64.462,1.244.888,1.777,1.315,1.245-1.457,2.347-2.879,3.235-4.158l3.307,1.528c-1.956,2.31-4.337,4.797-6.613,6.93l3.662-.178c-.391-.675-.853-1.315-1.28-1.919l2.986-1.244c.569.746,1.209,1.599,1.778,2.452l2.168-1.742c2.454,1.208,5.76,3.163,7.431,4.549l-3.058,2.523c-1.208-1.066-3.484-2.63-5.653-3.874.533.924.96,1.812,1.209,2.559l-3.2,1.421c-.178-.533-.427-1.137-.747-1.777-4.302.391-8.64.711-12.053.959l-.426-2.452c-2.24,1.102-4.586,2.204-6.506,3.056l-1.991-3.411c2.24-.711,5.653-2.026,8.924-3.305l.64,2.63,1.884-.071ZM449.013,81.467h13.937v3.909h-13.937v6.326h-4.337v-6.326h-13.652v-3.909h13.652v-2.274h4.337v2.274ZM453.529,70.735c1.6-1.208,3.591-3.056,4.799-4.513l3.769,1.812c-1.813,1.67-3.875,3.27-5.475,4.371l-3.093-1.67Z"/><path class="cls-3" d="M721.227,59.79c-.889,2.346-1.991,4.727-3.2,7.001v24.876h-3.982v-18.551c-.711.959-1.422,1.848-2.168,2.63-.391-.995-1.493-3.234-2.169-4.265,3.058-3.092,5.973-7.996,7.715-12.9l3.804,1.208ZM736.835,65.761v4.442h6.008v20.505h-4.053v-1.812h-14.079v2.026h-3.911v-20.719h5.724v-4.442h-6.079v-3.767h22.576v3.767h-6.187ZM724.711,85.271h2.204v-11.408h-2.204v11.408ZM730.471,73.863v11.408h2.382v-11.408h-2.382ZM732.853,65.761h-2.346v4.442h2.346v-4.442ZM738.791,73.863h-2.382v11.408h2.382v-11.408Z"/><path class="cls-3" d="M777.013,63.344c-1.209,3.696-3.058,6.823-5.404,9.453,2.24,1.706,4.942,3.092,8.035,3.945-.854.817-2.026,2.488-2.56,3.518l-.64-.249v11.585h-4.089v-1.137h-7.43v1.244h-3.947v-11.372c-.604.284-1.208.533-1.813.746-.391-.817-1.138-1.955-1.813-2.807l-.32.462c-.427-.889-1.173-2.204-1.956-3.447v16.383h-3.982v-13.469c-.995,2.843-2.204,5.473-3.555,7.285-.391-1.173-1.315-2.807-1.955-3.838,2.168-2.808,4.195-7.712,5.19-11.941h-4.337v-3.909h4.657v-7.285h3.982v7.285h3.982v1.919c2.524-2.452,4.729-5.829,6.009-9.24l4.018,1.102c-.356.888-.747,1.777-1.173,2.665h5.724l.747-.142,2.631,1.244ZM758.099,77.239c2.844-1.066,5.546-2.559,7.857-4.478-.996-1.137-1.884-2.31-2.667-3.483-.853,1.031-1.742,1.955-2.631,2.736-.533-.568-1.635-1.563-2.56-2.31h-3.022v.853c.96,1.031,3.626,4.193,4.231,5.011l-1.208,1.67ZM773.066,78.448c-1.564-.853-2.987-1.848-4.267-2.915-1.28,1.102-2.631,2.062-4.088,2.915h8.355ZM772.355,86.834v-4.833h-7.43v4.833h7.43ZM765.849,65.832l-.249.355c.818,1.351,1.813,2.701,3.058,3.98,1.173-1.315,2.204-2.772,3.022-4.336h-5.831Z"/><rect class="cls-3" x="151" y="109" width="689" height="1"/></g></svg>