<?xml version="1.0" encoding="UTF-8"?><svg id="_レイヤー_2" xmlns="http://www.w3.org/2000/svg" viewBox="0 0 901 612"><defs><style>.cls-1{fill:#4b5654;}.cls-1,.cls-2,.cls-3{stroke-width:0px;}.cls-2{fill:#ddd;}.cls-4{fill:#fff;font-family:NotoSansJP-Black-90ms-RKSJ-H, 'Noto Sans JP';font-size:37.82px;font-weight:800;glyph-orientation-vertical:0deg;letter-spacing:.1em;text-orientation:upright;writing-mode:tb;}.cls-3{fill:#5a5;}</style></defs><g id="_レンタル全般"><rect class="cls-2" width="901" height="612" rx="15" ry="15"/><rect class="cls-3" x="45" y="45" width="78" height="522"/><text class="cls-4" transform="translate(85.319 139.756)"><tspan x="0" y="0">掛け率パターンＢ</tspan></text><path class="cls-1" d="M691.423,153.325v24.919h-5.767v-20.292h-4.984v-4.627h10.751Z"/><path class="cls-1" d="M698.256,165.785c0-8.224,4.557-12.887,10.68-12.887,6.159,0,10.68,4.663,10.68,12.887s-4.521,12.887-10.68,12.887c-6.123,0-10.68-4.664-10.68-12.887ZM713.813,165.785c0-5.66-1.993-8.01-4.877-8.01-2.848,0-4.841,2.35-4.841,8.01s1.994,8.01,4.841,8.01c2.884,0,4.877-2.35,4.877-8.01Z"/><path class="cls-1" d="M729.794,175.04c0,.926-.143,1.602-.961,3.56l-2.029,5.126h-3.524l1.566-5.661c-1.175-.462-1.922-1.566-1.922-3.026,0-2.064,1.495-3.417,3.453-3.417,1.993,0,3.417,1.389,3.417,3.417Z"/><path class="cls-1" d="M733.352,165.785c0-8.224,4.557-12.887,10.68-12.887,6.159,0,10.68,4.663,10.68,12.887s-4.521,12.887-10.68,12.887c-6.123,0-10.68-4.664-10.68-12.887ZM748.909,165.785c0-5.66-1.993-8.01-4.877-8.01-2.848,0-4.841,2.35-4.841,8.01s1.994,8.01,4.841,8.01c2.884,0,4.877-2.35,4.877-8.01Z"/><path class="cls-1" d="M758.624,165.785c0-8.224,4.557-12.887,10.68-12.887,6.159,0,10.68,4.663,10.68,12.887s-4.521,12.887-10.68,12.887c-6.123,0-10.68-4.664-10.68-12.887ZM774.181,165.785c0-5.66-1.993-8.01-4.877-8.01-2.848,0-4.841,2.35-4.841,8.01s1.994,8.01,4.841,8.01c2.884,0,4.877-2.35,4.877-8.01Z"/><path class="cls-1" d="M783.896,165.785c0-8.224,4.557-12.887,10.68-12.887,6.159,0,10.68,4.663,10.68,12.887s-4.521,12.887-10.68,12.887c-6.123,0-10.68-4.664-10.68-12.887ZM799.453,165.785c0-5.66-1.993-8.01-4.877-8.01-2.848,0-4.841,2.35-4.841,8.01s1.994,8.01,4.841,8.01c2.884,0,4.877-2.35,4.877-8.01Z"/><path class="cls-1" d="M832.683,159.246v17.041c0,1.936-.845,2.047-4.983,2.047-.089-.422-.356-1.09-.579-1.513.801.022,1.558.044,2.18.044,1.758,0,1.891,0,1.891-.579v-7.252h-15.528v9.344h-1.491v-19.132h18.51ZM815.664,160.714v6.83h6.896v-6.83h-6.896ZM824.051,167.543h7.141v-6.83h-7.141v6.83Z"/><path class="cls-1" d="M171.665,174.008h5.66v-16.66h-4.77v-3.239c2.634-.499,4.45-1.175,6.123-2.208h3.88v22.107h4.948v4.236h-15.842v-4.236Z"/><path class="cls-1" d="M228.869,150.228v30.615h-4.557v-2.243h-15.806v2.314h-4.379v-30.686h24.741ZM208.507,154.5v7.653h15.806v-7.653h-15.806ZM224.312,174.328v-7.974h-15.806v7.974h15.806Z"/><path class="cls-1" d="M241.29,162.296v19.045h-4.201v-31.896h13.635v12.851h-9.434ZM241.29,152.506v1.887h5.482v-1.887h-5.482ZM246.772,159.27v-2.029h-5.482v2.029h5.482ZM267.134,176.322c0,2.278-.462,3.524-1.887,4.201-1.388.712-3.453.819-6.515.819-.106-.89-.498-2.207-.925-3.311h-8.829v1.815h-3.845v-15.415h13.706v12.638c1.388.036,2.706.036,3.168,0,.641,0,.854-.213.854-.783v-13.919h-9.683v-12.922h13.955v26.877ZM248.979,167.564v2.136h5.874v-2.136h-5.874ZM254.853,174.934v-2.207h-5.874v2.207h5.874ZM257.202,152.506v1.887h5.661v-1.887h-5.661ZM262.863,159.341v-2.101h-5.661v2.101h5.661Z"/><path class="cls-1" d="M391.327,167.784l4.699,4.734-1.424,1.531-4.735-4.77-4.77,4.77-1.424-1.531,4.699-4.734-4.699-4.735,1.424-1.531,4.77,4.771,4.735-4.771,1.424,1.531-4.699,4.735Z"/><path class="cls-1" d="M412.399,155.324v24.919h-2.563v-22.641h-5.874v-2.278h8.437Z"/><path class="cls-1" d="M421.938,178.463c0-1.104.854-1.922,1.887-1.922s1.922.819,1.922,1.922-.89,1.958-1.922,1.958-1.887-.854-1.887-1.958Z"/><path class="cls-1" d="M433.008,167.784c0-7.938,4.165-12.673,9.932-12.673s9.968,4.735,9.968,12.673-4.201,12.673-9.968,12.673-9.932-4.734-9.932-12.673ZM450.273,167.784c0-6.657-2.99-10.324-7.333-10.324s-7.333,3.667-7.333,10.324,2.99,10.324,7.333,10.324,7.333-3.667,7.333-10.324Z"/><polygon class="cls-1" points="526 201 524 201 524 200 525 200 525 199 526 199 526 201"/><path class="cls-1" d="M520.985,201h-3.015v-1h3.015v1ZM514.957,201h-3.015v-1h3.015v1ZM508.927,201h-3.014v-1h3.014v1ZM502.898,201h-3.015v-1h3.015v1ZM496.87,201h-3.015v-1h3.015v1ZM490.84,201h-3.014v-1h3.014v1ZM484.812,201h-3.015v-1h3.015v1ZM478.782,201h-3.014v-1h3.014v1ZM472.753,201h-3.015v-1h3.015v1ZM466.725,201h-3.015v-1h3.015v1ZM460.695,201h-3.014v-1h3.014v1ZM454.667,201h-3.015v-1h3.015v1ZM448.638,201h-3.015v-1h3.015v1ZM442.608,201h-3.014v-1h3.014v1ZM436.58,201h-3.015v-1h3.015v1ZM430.551,201h-3.015v-1h3.015v1ZM424.521,201h-3.015v-1h3.015v1ZM418.493,201h-3.015v-1h3.015v1ZM412.463,201h-3.014v-1h3.014v1ZM406.435,201h-3.015v-1h3.015v1ZM400.406,201h-3.015v-1h3.015v1ZM394.376,201h-3.014v-1h3.014v1ZM388.348,201h-3.015v-1h3.015v1ZM382.319,201h-3.015v-1h3.015v1ZM376.29,201h-3.015v-1h3.015v1ZM370.261,201h-3.015v-1h3.015v1ZM364.231,201h-3.014v-1h3.014v1ZM358.203,201h-3.015v-1h3.015v1ZM352.174,201h-3.015v-1h3.015v1ZM346.145,201h-3.014v-1h3.014v1ZM340.116,201h-3.015v-1h3.015v1ZM334.087,201h-3.015v-1h3.015v1ZM328.058,201h-3.015v-1h3.015v1ZM322.029,201h-3.015v-1h3.015v1Z"/><polygon class="cls-1" points="316 201 314 201 314 199 315 199 315 200 316 200 316 201"/><path class="cls-1" d="M315,196h-1v-3h1v3ZM315,190h-1v-3h1v3ZM315,184h-1v-3h1v3ZM315,178h-1v-3h1v3ZM315,172h-1v-3h1v3ZM315,166h-1v-3h1v3ZM315,160h-1v-3h1v3ZM315,154h-1v-3h1v3ZM315,148h-1v-3h1v3ZM315,142h-1v-3h1v3Z"/><polygon class="cls-1" points="315 136 314 136 314 134 316 134 316 135 315 135 315 136"/><path class="cls-1" d="M520.986,135h-3.015v-1h3.015v1ZM514.957,135h-3.015v-1h3.015v1ZM508.928,135h-3.015v-1h3.015v1ZM502.899,135h-3.015v-1h3.015v1ZM496.87,135h-3.014v-1h3.014v1ZM490.841,135h-3.015v-1h3.015v1ZM484.812,135h-3.015v-1h3.015v1ZM478.783,135h-3.014v-1h3.014v1ZM472.754,135h-3.015v-1h3.015v1ZM466.725,135h-3.015v-1h3.015v1ZM460.696,135h-3.015v-1h3.015v1ZM454.667,135h-3.015v-1h3.015v1ZM448.638,135h-3.014v-1h3.014v1ZM442.609,135h-3.015v-1h3.015v1ZM436.58,135h-3.015v-1h3.015v1ZM430.551,135h-3.014v-1h3.014v1ZM424.522,135h-3.015v-1h3.015v1ZM418.493,135h-3.015v-1h3.015v1ZM412.464,135h-3.015v-1h3.015v1ZM406.435,135h-3.015v-1h3.015v1ZM400.406,135h-3.014v-1h3.014v1ZM394.377,135h-3.015v-1h3.015v1ZM388.348,135h-3.015v-1h3.015v1ZM382.319,135h-3.014v-1h3.014v1ZM376.29,135h-3.015v-1h3.015v1ZM370.261,135h-3.015v-1h3.015v1ZM364.232,135h-3.014v-1h3.014v1ZM358.203,135h-3.015v-1h3.015v1ZM352.174,135h-3.014v-1h3.014v1ZM346.145,135h-3.015v-1h3.015v1ZM340.116,135h-3.015v-1h3.015v1ZM334.087,135h-3.014v-1h3.014v1ZM328.058,135h-3.015v-1h3.015v1ZM322.029,135h-3.015v-1h3.015v1Z"/><polygon class="cls-1" points="526 136 525 136 525 135 524 135 524 134 526 134 526 136"/><path class="cls-1" d="M526,196h-1v-3h1v3ZM526,190h-1v-3h1v3ZM526,184h-1v-3h1v3ZM526,178h-1v-3h1v3ZM526,172h-1v-3h1v3ZM526,166h-1v-3h1v3ZM526,160h-1v-3h1v3ZM526,154h-1v-3h1v3ZM526,148h-1v-3h1v3ZM526,142h-1v-3h1v3Z"/><path class="cls-1" d="M635,168h-3v-1h3v1ZM629,168h-3v-1h3v1ZM623,168h-3v-1h3v1ZM617,168h-3v-1h3v1ZM611,168h-3v-1h3v1ZM605,168h-3v-1h3v1ZM599,168h-3v-1h3v1ZM593,168h-3v-1h3v1ZM587,168h-3v-1h3v1ZM581,168h-3v-1h3v1ZM575,168h-3v-1h3v1ZM569,168h-3v-1h3v1ZM563,168h-3v-1h3v1ZM557,168h-3v-1h3v1ZM551,168h-3v-1h3v1ZM545,168h-3v-1h3v1ZM539,168h-3v-1h3v1Z"/><path class="cls-1" d="M635.931,178.448c-.128,0-.256-.049-.354-.146-.195-.195-.195-.512,0-.707l10.474-10.474-10.474-10.474c-.195-.195-.195-.512,0-.707s.512-.195.707,0l10.827,10.827c.195.195.195.512,0,.707l-10.827,10.828c-.098.098-.226.146-.354.146Z"/><path class="cls-1" d="M691.423,242.312v24.919h-5.767v-20.292h-4.984v-4.627h10.751Z"/><path class="cls-1" d="M718.833,259.364c0,5.09-4.165,8.294-9.434,8.294-6.871,0-11.143-4.308-11.143-12.353,0-8.615,5.198-13.42,12.709-13.42,2.634,0,5.197.605,6.942,1.708l-2.136,4.236c-1.388-.925-2.99-1.246-4.664-1.246-4.165,0-6.835,2.457-7.013,7.227,1.459-1.459,3.56-2.207,6.159-2.207,4.806,0,8.579,3.062,8.579,7.761ZM713.244,259.649c0-2.278-1.673-3.738-4.236-3.738-2.527,0-4.308,1.566-4.308,3.738,0,2.136,1.602,3.702,4.379,3.702,2.456,0,4.165-1.424,4.165-3.702Z"/><path class="cls-1" d="M729.438,264.027c0,.926-.143,1.602-.961,3.56l-2.029,5.126h-3.524l1.566-5.661c-1.175-.462-1.922-1.566-1.922-3.026,0-2.064,1.495-3.417,3.453-3.417,1.993,0,3.417,1.389,3.417,3.417Z"/><path class="cls-1" d="M732.997,254.772c0-8.224,4.557-12.887,10.68-12.887,6.159,0,10.68,4.663,10.68,12.887s-4.521,12.887-10.68,12.887c-6.123,0-10.68-4.664-10.68-12.887ZM748.553,254.772c0-5.66-1.993-8.01-4.877-8.01-2.848,0-4.841,2.35-4.841,8.01s1.994,8.01,4.841,8.01c2.884,0,4.877-2.35,4.877-8.01Z"/><path class="cls-1" d="M758.269,254.772c0-8.224,4.557-12.887,10.68-12.887,6.159,0,10.68,4.663,10.68,12.887s-4.521,12.887-10.68,12.887c-6.123,0-10.68-4.664-10.68-12.887ZM773.825,254.772c0-5.66-1.993-8.01-4.877-8.01-2.848,0-4.841,2.35-4.841,8.01s1.994,8.01,4.841,8.01c2.884,0,4.877-2.35,4.877-8.01Z"/><path class="cls-1" d="M783.541,254.772c0-8.224,4.557-12.887,10.68-12.887,6.159,0,10.68,4.663,10.68,12.887s-4.521,12.887-10.68,12.887c-6.123,0-10.68-4.664-10.68-12.887ZM799.097,254.772c0-5.66-1.993-8.01-4.877-8.01-2.848,0-4.841,2.35-4.841,8.01s1.994,8.01,4.841,8.01c2.884,0,4.877-2.35,4.877-8.01Z"/><path class="cls-1" d="M832.328,248.233v17.041c0,1.936-.845,2.047-4.983,2.047-.089-.422-.356-1.09-.579-1.513.801.022,1.558.044,2.18.044,1.758,0,1.891,0,1.891-.579v-7.252h-15.528v9.344h-1.491v-19.132h18.51ZM815.309,249.701v6.83h6.896v-6.83h-6.896ZM823.696,256.531h7.141v-6.83h-7.141v6.83Z"/><path class="cls-1" d="M170.276,264.207c7.155-6.408,11.392-11.356,11.392-15.414,0-2.67-1.459-4.272-3.952-4.272-1.922,0-3.524,1.246-4.841,2.706l-2.848-2.848c2.42-2.563,4.77-3.987,8.366-3.987,4.983,0,8.294,3.204,8.294,8.116,0,4.771-3.952,9.896-8.757,14.596,1.317-.143,3.062-.285,4.272-.285h5.731v4.414h-17.657v-3.026Z"/><path class="cls-1" d="M228.868,239.216v30.615h-4.557v-2.243h-15.806v2.314h-4.379v-30.686h24.741ZM208.506,243.488v7.653h15.806v-7.653h-15.806ZM224.312,263.316v-7.974h-15.806v7.974h15.806Z"/><path class="cls-1" d="M241.289,251.284v19.045h-4.201v-31.896h13.635v12.851h-9.434ZM241.289,241.495v1.887h5.482v-1.887h-5.482ZM246.771,248.258v-2.029h-5.482v2.029h5.482ZM267.133,265.31c0,2.278-.462,3.524-1.887,4.201-1.388.712-3.453.819-6.515.819-.106-.89-.498-2.207-.925-3.311h-8.829v1.815h-3.845v-15.415h13.706v12.638c1.388.036,2.706.036,3.168,0,.641,0,.854-.213.854-.783v-13.919h-9.683v-12.922h13.955v26.877ZM248.978,256.553v2.136h5.874v-2.136h-5.874ZM254.852,263.922v-2.207h-5.874v2.207h5.874ZM257.201,241.495v1.887h5.661v-1.887h-5.661ZM262.862,248.33v-2.101h-5.661v2.101h5.661Z"/><path class="cls-1" d="M392.27,256.771l4.699,4.734-1.424,1.531-4.735-4.77-4.77,4.77-1.424-1.531,4.699-4.734-4.699-4.735,1.424-1.531,4.77,4.771,4.735-4.771,1.424,1.531-4.699,4.735Z"/><path class="cls-1" d="M413.342,244.312v24.919h-2.563v-22.641h-5.874v-2.278h8.437Z"/><path class="cls-1" d="M422.88,267.451c0-1.104.854-1.922,1.887-1.922s1.922.819,1.922,1.922-.89,1.958-1.922,1.958-1.887-.854-1.887-1.958Z"/><path class="cls-1" d="M452.675,261.791c0,4.663-3.667,7.653-8.508,7.653-6.621,0-10.217-4.592-10.217-12.459,0-8.472,4.628-12.887,11.392-12.887,2.243,0,4.343.392,5.91,1.353l-1.033,2.064c-1.281-.854-2.99-1.175-4.841-1.175-5.375,0-8.829,3.453-8.829,10.217,0,.57.036,1.282.107,2.029,1.246-2.741,4.165-4.272,7.618-4.272,4.948,0,8.401,2.919,8.401,7.476ZM450.147,261.862c0-3.275-2.42-5.375-6.265-5.375-3.809,0-6.408,2.349-6.408,5.446,0,2.741,2.278,5.34,6.586,5.34,3.595,0,6.087-2.1,6.087-5.411Z"/><polygon class="cls-1" points="526 291 524 291 524 290 525 290 525 289 526 289 526 291"/><path class="cls-1" d="M520.985,291h-3.015v-1h3.015v1ZM514.957,291h-3.015v-1h3.015v1ZM508.927,291h-3.014v-1h3.014v1ZM502.898,291h-3.015v-1h3.015v1ZM496.87,291h-3.015v-1h3.015v1ZM490.84,291h-3.014v-1h3.014v1ZM484.812,291h-3.015v-1h3.015v1ZM478.782,291h-3.014v-1h3.014v1ZM472.753,291h-3.015v-1h3.015v1ZM466.725,291h-3.015v-1h3.015v1ZM460.695,291h-3.014v-1h3.014v1ZM454.667,291h-3.015v-1h3.015v1ZM448.638,291h-3.015v-1h3.015v1ZM442.608,291h-3.014v-1h3.014v1ZM436.58,291h-3.015v-1h3.015v1ZM430.551,291h-3.015v-1h3.015v1ZM424.521,291h-3.015v-1h3.015v1ZM418.493,291h-3.015v-1h3.015v1ZM412.463,291h-3.014v-1h3.014v1ZM406.435,291h-3.015v-1h3.015v1ZM400.406,291h-3.015v-1h3.015v1ZM394.376,291h-3.014v-1h3.014v1ZM388.348,291h-3.015v-1h3.015v1ZM382.319,291h-3.015v-1h3.015v1ZM376.29,291h-3.015v-1h3.015v1ZM370.261,291h-3.015v-1h3.015v1ZM364.231,291h-3.014v-1h3.014v1ZM358.203,291h-3.015v-1h3.015v1ZM352.174,291h-3.015v-1h3.015v1ZM346.145,291h-3.014v-1h3.014v1ZM340.116,291h-3.015v-1h3.015v1ZM334.087,291h-3.015v-1h3.015v1ZM328.058,291h-3.015v-1h3.015v1ZM322.029,291h-3.015v-1h3.015v1Z"/><polygon class="cls-1" points="316 291 314 291 314 289 315 289 315 290 316 290 316 291"/><path class="cls-1" d="M315,286h-1v-3h1v3ZM315,280h-1v-3h1v3ZM315,274h-1v-3h1v3ZM315,268h-1v-3h1v3ZM315,262h-1v-3h1v3ZM315,256h-1v-3h1v3ZM315,250h-1v-3h1v3ZM315,244h-1v-3h1v3ZM315,238h-1v-3h1v3ZM315,232h-1v-3h1v3Z"/><polygon class="cls-1" points="315 226 314 226 314 224 316 224 316 225 315 225 315 226"/><path class="cls-1" d="M520.986,225h-3.015v-1h3.015v1ZM514.957,225h-3.015v-1h3.015v1ZM508.928,225h-3.015v-1h3.015v1ZM502.899,225h-3.015v-1h3.015v1ZM496.87,225h-3.014v-1h3.014v1ZM490.841,225h-3.015v-1h3.015v1ZM484.812,225h-3.015v-1h3.015v1ZM478.783,225h-3.014v-1h3.014v1ZM472.754,225h-3.015v-1h3.015v1ZM466.725,225h-3.015v-1h3.015v1ZM460.696,225h-3.015v-1h3.015v1ZM454.667,225h-3.015v-1h3.015v1ZM448.638,225h-3.014v-1h3.014v1ZM442.609,225h-3.015v-1h3.015v1ZM436.58,225h-3.015v-1h3.015v1ZM430.551,225h-3.014v-1h3.014v1ZM424.522,225h-3.015v-1h3.015v1ZM418.493,225h-3.015v-1h3.015v1ZM412.464,225h-3.015v-1h3.015v1ZM406.435,225h-3.015v-1h3.015v1ZM400.406,225h-3.014v-1h3.014v1ZM394.377,225h-3.015v-1h3.015v1ZM388.348,225h-3.015v-1h3.015v1ZM382.319,225h-3.014v-1h3.014v1ZM376.29,225h-3.015v-1h3.015v1ZM370.261,225h-3.015v-1h3.015v1ZM364.232,225h-3.014v-1h3.014v1ZM358.203,225h-3.015v-1h3.015v1ZM352.174,225h-3.014v-1h3.014v1ZM346.145,225h-3.015v-1h3.015v1ZM340.116,225h-3.015v-1h3.015v1ZM334.087,225h-3.014v-1h3.014v1ZM328.058,225h-3.015v-1h3.015v1ZM322.029,225h-3.015v-1h3.015v1Z"/><polygon class="cls-1" points="526 226 525 226 525 225 524 225 524 224 526 224 526 226"/><path class="cls-1" d="M526,286h-1v-3h1v3ZM526,280h-1v-3h1v3ZM526,274h-1v-3h1v3ZM526,268h-1v-3h1v3ZM526,262h-1v-3h1v3ZM526,256h-1v-3h1v3ZM526,250h-1v-3h1v3ZM526,244h-1v-3h1v3ZM526,238h-1v-3h1v3ZM526,232h-1v-3h1v3Z"/><path class="cls-1" d="M635,257h-3v-1h3v1ZM629,257h-3v-1h3v1ZM623,257h-3v-1h3v1ZM617,257h-3v-1h3v1ZM611,257h-3v-1h3v1ZM605,257h-3v-1h3v1ZM599,257h-3v-1h3v1ZM593,257h-3v-1h3v1ZM587,257h-3v-1h3v1ZM581,257h-3v-1h3v1ZM575,257h-3v-1h3v1ZM569,257h-3v-1h3v1ZM563,257h-3v-1h3v1ZM557,257h-3v-1h3v1ZM551,257h-3v-1h3v1ZM545,257h-3v-1h3v1ZM539,257h-3v-1h3v1Z"/><path class="cls-1" d="M635.93,267.435c-.128,0-.256-.049-.354-.146-.195-.195-.195-.512,0-.707l10.474-10.474-10.474-10.474c-.195-.195-.195-.512,0-.707s.512-.195.707,0l10.828,10.827c.094.094.146.221.146.354s-.053.26-.146.354l-10.828,10.827c-.098.098-.226.146-.354.146Z"/><path class="cls-1" d="M700.432,351.521v4.699h-18.832v-3.738l9.612-9.077c2.207-2.101,2.599-3.382,2.599-4.593,0-1.957-1.353-3.097-3.987-3.097-2.136,0-3.951.818-5.162,2.492l-4.201-2.706c1.922-2.812,5.411-4.628,9.896-4.628,5.553,0,9.255,2.849,9.255,7.369,0,2.421-.676,4.628-4.165,7.867l-5.731,5.411h10.715Z"/><path class="cls-1" d="M723.284,351.521v4.699h-18.832v-3.738l9.612-9.077c2.207-2.101,2.599-3.382,2.599-4.593,0-1.957-1.353-3.097-3.987-3.097-2.136,0-3.951.818-5.162,2.492l-4.201-2.706c1.922-2.812,5.411-4.628,9.896-4.628,5.553,0,9.255,2.849,9.255,7.369,0,2.421-.676,4.628-4.165,7.867l-5.731,5.411h10.715Z"/><path class="cls-1" d="M733.143,353.016c0,.926-.143,1.603-.961,3.561l-2.029,5.126h-3.524l1.566-5.66c-1.175-.463-1.922-1.566-1.922-3.026,0-2.064,1.495-3.417,3.453-3.417,1.993,0,3.417,1.388,3.417,3.417Z"/><path class="cls-1" d="M735.74,343.76c0-8.223,4.557-12.887,10.68-12.887,6.159,0,10.68,4.664,10.68,12.887s-4.521,12.887-10.68,12.887c-6.123,0-10.68-4.663-10.68-12.887ZM751.296,343.76c0-5.66-1.993-8.01-4.877-8.01-2.848,0-4.841,2.35-4.841,8.01s1.994,8.01,4.841,8.01c2.884,0,4.877-2.35,4.877-8.01Z"/><path class="cls-1" d="M759.908,343.76c0-8.223,4.557-12.887,10.68-12.887,6.159,0,10.68,4.664,10.68,12.887s-4.521,12.887-10.68,12.887c-6.123,0-10.68-4.663-10.68-12.887ZM775.465,343.76c0-5.66-1.993-8.01-4.877-8.01-2.848,0-4.841,2.35-4.841,8.01s1.994,8.01,4.841,8.01c2.884,0,4.877-2.35,4.877-8.01Z"/><path class="cls-1" d="M784.077,343.76c0-8.223,4.557-12.887,10.68-12.887,6.159,0,10.68,4.664,10.68,12.887s-4.521,12.887-10.68,12.887c-6.123,0-10.68-4.663-10.68-12.887ZM799.633,343.76c0-5.66-1.993-8.01-4.877-8.01-2.848,0-4.841,2.35-4.841,8.01s1.994,8.01,4.841,8.01c2.884,0,4.877-2.35,4.877-8.01Z"/><path class="cls-1" d="M832.864,337.221v17.042c0,1.936-.845,2.047-4.983,2.047-.089-.423-.356-1.091-.579-1.514.801.022,1.558.045,2.18.045,1.758,0,1.891,0,1.891-.578v-7.253h-15.528v9.344h-1.491v-19.133h18.51ZM815.845,338.69v6.83h6.896v-6.83h-6.896ZM824.232,345.52h7.141v-6.83h-7.141v6.83Z"/><path class="cls-1" d="M169.671,353.052l2.456-3.311c1.566,1.53,3.489,2.705,5.874,2.705,2.67,0,4.485-1.317,4.485-3.667,0-2.599-1.531-4.2-7.262-4.2v-3.773c4.841,0,6.408-1.674,6.408-4.022,0-2.065-1.282-3.275-3.524-3.312-1.887.036-3.417.926-4.984,2.35l-2.669-3.203c2.278-1.994,4.806-3.24,7.903-3.24,5.09,0,8.543,2.492,8.543,7.014,0,2.848-1.602,4.912-4.414,6.016v.178c2.99.819,5.269,3.026,5.269,6.479,0,4.842-4.236,7.653-9.256,7.653-4.165,0-6.977-1.566-8.828-3.666Z"/><path class="cls-1" d="M228.868,328.204v30.615h-4.557v-2.242h-15.806v2.313h-4.379v-30.687h24.741ZM208.506,332.476v7.653h15.806v-7.653h-15.806ZM224.312,352.304v-7.974h-15.806v7.974h15.806Z"/><path class="cls-1" d="M241.289,340.272v19.045h-4.201v-31.896h13.635v12.852h-9.434ZM241.289,330.482v1.887h5.482v-1.887h-5.482ZM246.771,337.246v-2.028h-5.482v2.028h5.482ZM267.133,354.298c0,2.278-.462,3.523-1.887,4.2-1.388.712-3.453.818-6.515.818-.106-.89-.498-2.207-.925-3.311h-8.829v1.815h-3.845v-15.414h13.706v12.638c1.388.036,2.706.036,3.168,0,.641,0,.854-.214.854-.783v-13.919h-9.683v-12.923h13.955v26.878ZM248.978,345.541v2.136h5.874v-2.136h-5.874ZM254.852,352.91v-2.207h-5.874v2.207h5.874ZM257.201,330.482v1.887h5.661v-1.887h-5.661ZM262.862,337.317v-2.1h-5.661v2.1h5.661Z"/><path class="cls-1" d="M389.317,345.76l4.699,4.735-1.424,1.53-4.735-4.771-4.77,4.771-1.424-1.53,4.699-4.735-4.699-4.734,1.424-1.53,4.77,4.77,4.735-4.77,1.424,1.53-4.699,4.734Z"/><path class="cls-1" d="M420.499,355.942v2.278h-17.479v-1.815l10.359-10.146c2.812-2.777,3.346-4.45,3.346-6.159,0-2.883-2.029-4.663-5.838-4.663-2.919,0-5.162.89-6.799,2.776l-1.816-1.566c1.922-2.278,5.02-3.56,8.829-3.56,5.055,0,8.259,2.563,8.259,6.729,0,2.385-.748,4.521-4.094,7.796l-8.473,8.33h13.706Z"/><path class="cls-1" d="M427.296,356.44c0-1.104.854-1.922,1.887-1.922s1.922.818,1.922,1.922-.89,1.958-1.922,1.958-1.887-.854-1.887-1.958Z"/><path class="cls-1" d="M455.382,355.942v2.278h-17.479v-1.815l10.359-10.146c2.812-2.777,3.346-4.45,3.346-6.159,0-2.883-2.029-4.663-5.838-4.663-2.919,0-5.162.89-6.799,2.776l-1.816-1.566c1.922-2.278,5.02-3.56,8.829-3.56,5.055,0,8.259,2.563,8.259,6.729,0,2.385-.748,4.521-4.094,7.796l-8.473,8.33h13.706Z"/><polygon class="cls-1" points="526 379 524 379 524 378 525 378 525 377 526 377 526 379"/><path class="cls-1" d="M520.985,379h-3.015v-1h3.015v1ZM514.957,379h-3.015v-1h3.015v1ZM508.927,379h-3.014v-1h3.014v1ZM502.898,379h-3.015v-1h3.015v1ZM496.87,379h-3.015v-1h3.015v1ZM490.84,379h-3.014v-1h3.014v1ZM484.812,379h-3.015v-1h3.015v1ZM478.782,379h-3.014v-1h3.014v1ZM472.753,379h-3.015v-1h3.015v1ZM466.725,379h-3.015v-1h3.015v1ZM460.695,379h-3.014v-1h3.014v1ZM454.667,379h-3.015v-1h3.015v1ZM448.638,379h-3.015v-1h3.015v1ZM442.608,379h-3.014v-1h3.014v1ZM436.58,379h-3.015v-1h3.015v1ZM430.551,379h-3.015v-1h3.015v1ZM424.521,379h-3.015v-1h3.015v1ZM418.493,379h-3.015v-1h3.015v1ZM412.463,379h-3.014v-1h3.014v1ZM406.435,379h-3.015v-1h3.015v1ZM400.406,379h-3.015v-1h3.015v1ZM394.376,379h-3.014v-1h3.014v1ZM388.348,379h-3.015v-1h3.015v1ZM382.319,379h-3.015v-1h3.015v1ZM376.29,379h-3.015v-1h3.015v1ZM370.261,379h-3.015v-1h3.015v1ZM364.231,379h-3.014v-1h3.014v1ZM358.203,379h-3.015v-1h3.015v1ZM352.174,379h-3.015v-1h3.015v1ZM346.145,379h-3.014v-1h3.014v1ZM340.116,379h-3.015v-1h3.015v1ZM334.087,379h-3.015v-1h3.015v1ZM328.058,379h-3.015v-1h3.015v1ZM322.029,379h-3.015v-1h3.015v1Z"/><polygon class="cls-1" points="316 379 314 379 314 377 315 377 315 378 316 378 316 379"/><path class="cls-1" d="M315,374h-1v-3h1v3ZM315,368h-1v-3h1v3ZM315,362h-1v-3h1v3ZM315,356h-1v-3h1v3ZM315,350h-1v-3h1v3ZM315,344h-1v-3h1v3ZM315,338h-1v-3h1v3ZM315,332h-1v-3h1v3ZM315,326h-1v-3h1v3ZM315,320h-1v-3h1v3Z"/><polygon class="cls-1" points="315 314 314 314 314 312 316 312 316 313 315 313 315 314"/><path class="cls-1" d="M520.986,313h-3.015v-1h3.015v1ZM514.957,313h-3.015v-1h3.015v1ZM508.928,313h-3.015v-1h3.015v1ZM502.899,313h-3.015v-1h3.015v1ZM496.87,313h-3.014v-1h3.014v1ZM490.841,313h-3.015v-1h3.015v1ZM484.812,313h-3.015v-1h3.015v1ZM478.783,313h-3.014v-1h3.014v1ZM472.754,313h-3.015v-1h3.015v1ZM466.725,313h-3.015v-1h3.015v1ZM460.696,313h-3.015v-1h3.015v1ZM454.667,313h-3.015v-1h3.015v1ZM448.638,313h-3.014v-1h3.014v1ZM442.609,313h-3.015v-1h3.015v1ZM436.58,313h-3.015v-1h3.015v1ZM430.551,313h-3.014v-1h3.014v1ZM424.522,313h-3.015v-1h3.015v1ZM418.493,313h-3.015v-1h3.015v1ZM412.464,313h-3.015v-1h3.015v1ZM406.435,313h-3.015v-1h3.015v1ZM400.406,313h-3.014v-1h3.014v1ZM394.377,313h-3.015v-1h3.015v1ZM388.348,313h-3.015v-1h3.015v1ZM382.319,313h-3.014v-1h3.014v1ZM376.29,313h-3.015v-1h3.015v1ZM370.261,313h-3.015v-1h3.015v1ZM364.232,313h-3.014v-1h3.014v1ZM358.203,313h-3.015v-1h3.015v1ZM352.174,313h-3.014v-1h3.014v1ZM346.145,313h-3.015v-1h3.015v1ZM340.116,313h-3.015v-1h3.015v1ZM334.087,313h-3.014v-1h3.014v1ZM328.058,313h-3.015v-1h3.015v1ZM322.029,313h-3.015v-1h3.015v1Z"/><polygon class="cls-1" points="526 314 525 314 525 313 524 313 524 312 526 312 526 314"/><path class="cls-1" d="M526,374h-1v-3h1v3ZM526,368h-1v-3h1v3ZM526,362h-1v-3h1v3ZM526,356h-1v-3h1v3ZM526,350h-1v-3h1v3ZM526,344h-1v-3h1v3ZM526,338h-1v-3h1v3ZM526,332h-1v-3h1v3ZM526,326h-1v-3h1v3ZM526,320h-1v-3h1v3Z"/><path class="cls-1" d="M635,346h-3v-1h3v1ZM629,346h-3v-1h3v1ZM623,346h-3v-1h3v1ZM617,346h-3v-1h3v1ZM611,346h-3v-1h3v1ZM605,346h-3v-1h3v1ZM599,346h-3v-1h3v1ZM593,346h-3v-1h3v1ZM587,346h-3v-1h3v1ZM581,346h-3v-1h3v1ZM575,346h-3v-1h3v1ZM569,346h-3v-1h3v1ZM563,346h-3v-1h3v1ZM557,346h-3v-1h3v1ZM551,346h-3v-1h3v1ZM545,346h-3v-1h3v1ZM539,346h-3v-1h3v1Z"/><path class="cls-1" d="M635.933,356.423c-.128,0-.256-.049-.354-.146-.195-.195-.195-.512,0-.707l10.474-10.474-10.474-10.474c-.195-.195-.195-.512,0-.707s.512-.195.707,0l10.827,10.828c.195.195.195.512,0,.707l-10.827,10.827c-.098.098-.226.146-.354.146Z"/><path class="cls-1" d="M700.43,440.508v4.699h-18.832v-3.738l9.612-9.077c2.207-2.101,2.599-3.382,2.599-4.593,0-1.958-1.353-3.097-3.987-3.097-2.136,0-3.951.818-5.162,2.492l-4.201-2.706c1.922-2.812,5.411-4.628,9.896-4.628,5.553,0,9.255,2.849,9.255,7.369,0,2.421-.676,4.628-4.165,7.867l-5.731,5.411h10.715Z"/><path class="cls-1" d="M724.421,437.34c0,5.091-4.165,8.294-9.434,8.294-6.871,0-11.143-4.307-11.143-12.353,0-8.614,5.198-13.421,12.709-13.421,2.634,0,5.197.605,6.942,1.709l-2.136,4.236c-1.388-.926-2.99-1.246-4.663-1.246-4.166,0-6.835,2.456-7.013,7.227,1.459-1.459,3.56-2.207,6.159-2.207,4.806,0,8.579,3.062,8.579,7.761ZM718.832,437.625c0-2.278-1.673-3.737-4.236-3.737-2.527,0-4.308,1.566-4.308,3.737,0,2.137,1.602,3.703,4.379,3.703,2.456,0,4.165-1.425,4.165-3.703Z"/><path class="cls-1" d="M733.247,442.003c0,.926-.143,1.603-.961,3.561l-2.029,5.126h-3.524l1.566-5.66c-1.175-.463-1.922-1.566-1.922-3.026,0-2.064,1.495-3.417,3.453-3.417,1.993,0,3.417,1.388,3.417,3.417Z"/><path class="cls-1" d="M735.844,432.748c0-8.223,4.557-12.887,10.68-12.887,6.159,0,10.68,4.664,10.68,12.887s-4.521,12.887-10.68,12.887c-6.123,0-10.68-4.663-10.68-12.887ZM751.401,432.748c0-5.66-1.993-8.01-4.877-8.01-2.848,0-4.841,2.35-4.841,8.01s1.994,8.01,4.841,8.01c2.884,0,4.877-2.35,4.877-8.01Z"/><path class="cls-1" d="M760.013,432.748c0-8.223,4.557-12.887,10.68-12.887,6.159,0,10.68,4.664,10.68,12.887s-4.521,12.887-10.68,12.887c-6.123,0-10.68-4.663-10.68-12.887ZM775.569,432.748c0-5.66-1.993-8.01-4.877-8.01-2.848,0-4.841,2.35-4.841,8.01s1.994,8.01,4.841,8.01c2.884,0,4.877-2.35,4.877-8.01Z"/><path class="cls-1" d="M784.181,432.748c0-8.223,4.557-12.887,10.68-12.887,6.159,0,10.68,4.664,10.68,12.887s-4.521,12.887-10.68,12.887c-6.123,0-10.68-4.663-10.68-12.887ZM799.738,432.748c0-5.66-1.993-8.01-4.877-8.01-2.848,0-4.841,2.35-4.841,8.01s1.994,8.01,4.841,8.01c2.884,0,4.877-2.35,4.877-8.01Z"/><path class="cls-1" d="M832.968,426.208v17.042c0,1.936-.845,2.047-4.983,2.047-.089-.423-.356-1.091-.579-1.513.801.021,1.558.044,2.18.044,1.758,0,1.891,0,1.891-.578v-7.253h-15.528v9.344h-1.491v-19.133h18.51ZM815.949,427.677v6.83h6.896v-6.83h-6.896ZM824.336,434.507h7.141v-6.83h-7.141v6.83Z"/><path class="cls-1" d="M188.716,438.373h-3.132v6.835h-4.877v-6.835h-11.213v-3.56l9.825-15.948h6.266v15.521h3.132v3.987ZM180.706,434.385v-5.375c0-1.531.143-3.916.214-5.446h-.143c-.641,1.388-1.353,2.848-2.1,4.271l-4.094,6.55h6.123Z"/><path class="cls-1" d="M228.868,417.191v30.615h-4.557v-2.242h-15.806v2.313h-4.379v-30.687h24.741ZM208.506,421.463v7.653h15.806v-7.653h-15.806ZM224.312,441.292v-7.974h-15.806v7.974h15.806Z"/><path class="cls-1" d="M241.289,429.259v19.045h-4.201v-31.896h13.635v12.852h-9.434ZM241.289,419.469v1.887h5.482v-1.887h-5.482ZM246.771,426.233v-2.028h-5.482v2.028h5.482ZM267.133,443.286c0,2.278-.462,3.523-1.887,4.2-1.388.712-3.453.818-6.515.818-.106-.89-.498-2.207-.925-3.311h-8.829v1.815h-3.845v-15.414h13.706v12.638c1.388.035,2.706.035,3.168,0,.641,0,.854-.214.854-.783v-13.919h-9.683v-12.923h13.955v26.878ZM248.978,434.528v2.136h5.874v-2.136h-5.874ZM254.852,441.897v-2.207h-5.874v2.207h5.874ZM257.201,419.469v1.887h5.661v-1.887h-5.661ZM262.862,426.304v-2.1h-5.661v2.1h5.661Z"/><path class="cls-1" d="M388.587,434.748l4.699,4.735-1.424,1.53-4.735-4.771-4.77,4.771-1.424-1.53,4.699-4.735-4.699-4.734,1.424-1.53,4.77,4.77,4.735-4.77,1.424,1.53-4.699,4.734Z"/><path class="cls-1" d="M419.77,444.929v2.278h-17.479v-1.815l10.359-10.146c2.812-2.777,3.346-4.45,3.346-6.159,0-2.883-2.029-4.663-5.838-4.663-2.919,0-5.162.89-6.799,2.776l-1.816-1.566c1.922-2.278,5.02-3.56,8.829-3.56,5.055,0,8.259,2.563,8.259,6.729,0,2.385-.748,4.521-4.094,7.796l-8.473,8.33h13.706Z"/><path class="cls-1" d="M426.566,445.427c0-1.104.854-1.922,1.887-1.922s1.922.818,1.922,1.922-.89,1.958-1.922,1.958-1.887-.854-1.887-1.958Z"/><path class="cls-1" d="M456.361,439.767c0,4.664-3.667,7.654-8.508,7.654-6.621,0-10.217-4.593-10.217-12.46,0-8.473,4.628-12.887,11.392-12.887,2.243,0,4.343.392,5.91,1.353l-1.033,2.065c-1.281-.854-2.99-1.175-4.841-1.175-5.375,0-8.829,3.453-8.829,10.217,0,.569.036,1.281.107,2.029,1.246-2.741,4.165-4.272,7.618-4.272,4.948,0,8.401,2.919,8.401,7.476ZM453.833,439.838c0-3.274-2.42-5.375-6.265-5.375-3.809,0-6.408,2.35-6.408,5.446,0,2.741,2.278,5.34,6.585,5.34,3.596,0,6.087-2.101,6.087-5.411Z"/><polygon class="cls-1" points="526 469 524 469 524 468 525 468 525 467 526 467 526 469"/><path class="cls-1" d="M520.985,469h-3.015v-1h3.015v1ZM514.957,469h-3.015v-1h3.015v1ZM508.927,469h-3.014v-1h3.014v1ZM502.898,469h-3.015v-1h3.015v1ZM496.87,469h-3.015v-1h3.015v1ZM490.84,469h-3.014v-1h3.014v1ZM484.812,469h-3.015v-1h3.015v1ZM478.782,469h-3.014v-1h3.014v1ZM472.753,469h-3.015v-1h3.015v1ZM466.725,469h-3.015v-1h3.015v1ZM460.695,469h-3.014v-1h3.014v1ZM454.667,469h-3.015v-1h3.015v1ZM448.638,469h-3.015v-1h3.015v1ZM442.608,469h-3.014v-1h3.014v1ZM436.58,469h-3.015v-1h3.015v1ZM430.551,469h-3.015v-1h3.015v1ZM424.521,469h-3.015v-1h3.015v1ZM418.493,469h-3.015v-1h3.015v1ZM412.463,469h-3.014v-1h3.014v1ZM406.435,469h-3.015v-1h3.015v1ZM400.406,469h-3.015v-1h3.015v1ZM394.376,469h-3.014v-1h3.014v1ZM388.348,469h-3.015v-1h3.015v1ZM382.319,469h-3.015v-1h3.015v1ZM376.29,469h-3.015v-1h3.015v1ZM370.261,469h-3.015v-1h3.015v1ZM364.231,469h-3.014v-1h3.014v1ZM358.203,469h-3.015v-1h3.015v1ZM352.174,469h-3.015v-1h3.015v1ZM346.145,469h-3.014v-1h3.014v1ZM340.116,469h-3.015v-1h3.015v1ZM334.087,469h-3.015v-1h3.015v1ZM328.058,469h-3.015v-1h3.015v1ZM322.029,469h-3.015v-1h3.015v1Z"/><polygon class="cls-1" points="316 469 314 469 314 467 315 467 315 468 316 468 316 469"/><path class="cls-1" d="M315,464h-1v-3h1v3ZM315,458h-1v-3h1v3ZM315,452h-1v-3h1v3ZM315,446h-1v-3h1v3ZM315,440h-1v-3h1v3ZM315,434h-1v-3h1v3ZM315,428h-1v-3h1v3ZM315,422h-1v-3h1v3ZM315,416h-1v-3h1v3ZM315,410h-1v-3h1v3Z"/><polygon class="cls-1" points="315 404 314 404 314 402 316 402 316 403 315 403 315 404"/><path class="cls-1" d="M520.986,403h-3.015v-1h3.015v1ZM514.957,403h-3.015v-1h3.015v1ZM508.928,403h-3.015v-1h3.015v1ZM502.899,403h-3.015v-1h3.015v1ZM496.87,403h-3.014v-1h3.014v1ZM490.841,403h-3.015v-1h3.015v1ZM484.812,403h-3.015v-1h3.015v1ZM478.783,403h-3.014v-1h3.014v1ZM472.754,403h-3.015v-1h3.015v1ZM466.725,403h-3.015v-1h3.015v1ZM460.696,403h-3.015v-1h3.015v1ZM454.667,403h-3.015v-1h3.015v1ZM448.638,403h-3.014v-1h3.014v1ZM442.609,403h-3.015v-1h3.015v1ZM436.58,403h-3.015v-1h3.015v1ZM430.551,403h-3.014v-1h3.014v1ZM424.522,403h-3.015v-1h3.015v1ZM418.493,403h-3.015v-1h3.015v1ZM412.464,403h-3.015v-1h3.015v1ZM406.435,403h-3.015v-1h3.015v1ZM400.406,403h-3.014v-1h3.014v1ZM394.377,403h-3.015v-1h3.015v1ZM388.348,403h-3.015v-1h3.015v1ZM382.319,403h-3.014v-1h3.014v1ZM376.29,403h-3.015v-1h3.015v1ZM370.261,403h-3.015v-1h3.015v1ZM364.232,403h-3.014v-1h3.014v1ZM358.203,403h-3.015v-1h3.015v1ZM352.174,403h-3.014v-1h3.014v1ZM346.145,403h-3.015v-1h3.015v1ZM340.116,403h-3.015v-1h3.015v1ZM334.087,403h-3.014v-1h3.014v1ZM328.058,403h-3.015v-1h3.015v1ZM322.029,403h-3.015v-1h3.015v1Z"/><polygon class="cls-1" points="526 404 525 404 525 403 524 403 524 402 526 402 526 404"/><path class="cls-1" d="M526,464h-1v-3h1v3ZM526,458h-1v-3h1v3ZM526,452h-1v-3h1v3ZM526,446h-1v-3h1v3ZM526,440h-1v-3h1v3ZM526,434h-1v-3h1v3ZM526,428h-1v-3h1v3ZM526,422h-1v-3h1v3ZM526,416h-1v-3h1v3ZM526,410h-1v-3h1v3Z"/><path class="cls-1" d="M635,435h-3v-1h3v1ZM629,435h-3v-1h3v1ZM623,435h-3v-1h3v1ZM617,435h-3v-1h3v1ZM611,435h-3v-1h3v1ZM605,435h-3v-1h3v1ZM599,435h-3v-1h3v1ZM593,435h-3v-1h3v1ZM587,435h-3v-1h3v1ZM581,435h-3v-1h3v1ZM575,435h-3v-1h3v1ZM569,435h-3v-1h3v1ZM563,435h-3v-1h3v1ZM557,435h-3v-1h3v1ZM551,435h-3v-1h3v1ZM545,435h-3v-1h3v1ZM539,435h-3v-1h3v1Z"/><path class="cls-1" d="M635.932,445.411c-.128,0-.256-.049-.354-.146-.195-.195-.195-.512,0-.707l10.474-10.474-10.474-10.474c-.195-.195-.195-.512,0-.707s.512-.195.707,0l10.827,10.827c.195.195.195.512,0,.707l-10.827,10.828c-.098.098-.226.146-.354.146Z"/><path class="cls-1" d="M700.218,526.577c0,4.2-3.24,8.045-10.324,8.045-3.489,0-7.084-.961-9.505-2.67l2.243-4.414c1.887,1.424,4.521,2.243,7.12,2.243,2.884,0,4.664-1.175,4.664-3.204,0-1.887-1.388-3.062-4.664-3.062h-2.634v-3.809l5.126-5.803h-10.608v-4.628h17.443v3.737l-5.625,6.408c4.485.712,6.764,3.488,6.764,7.155Z"/><path class="cls-1" d="M702.886,521.735c0-8.223,4.557-12.887,10.68-12.887,6.159,0,10.68,4.664,10.68,12.887s-4.521,12.887-10.68,12.887c-6.123,0-10.68-4.663-10.68-12.887ZM718.442,521.735c0-5.66-1.993-8.01-4.877-8.01-2.848,0-4.841,2.35-4.841,8.01s1.994,8.01,4.841,8.01c2.884,0,4.877-2.35,4.877-8.01Z"/><path class="cls-1" d="M733.783,530.991c0,.926-.143,1.603-.961,3.561l-2.029,5.126h-3.524l1.566-5.66c-1.175-.463-1.922-1.566-1.922-3.026,0-2.064,1.495-3.417,3.453-3.417,1.993,0,3.417,1.388,3.417,3.417Z"/><path class="cls-1" d="M736.38,521.735c0-8.223,4.557-12.887,10.68-12.887,6.159,0,10.68,4.664,10.68,12.887s-4.521,12.887-10.68,12.887c-6.123,0-10.68-4.663-10.68-12.887ZM751.937,521.735c0-5.66-1.993-8.01-4.877-8.01-2.848,0-4.841,2.35-4.841,8.01s1.994,8.01,4.841,8.01c2.884,0,4.877-2.35,4.877-8.01Z"/><path class="cls-1" d="M760.548,521.735c0-8.223,4.557-12.887,10.68-12.887,6.159,0,10.68,4.664,10.68,12.887s-4.521,12.887-10.68,12.887c-6.123,0-10.68-4.663-10.68-12.887ZM776.105,521.735c0-5.66-1.993-8.01-4.877-8.01-2.848,0-4.841,2.35-4.841,8.01s1.994,8.01,4.841,8.01c2.884,0,4.877-2.35,4.877-8.01Z"/><path class="cls-1" d="M784.717,521.735c0-8.223,4.557-12.887,10.68-12.887,6.159,0,10.68,4.664,10.68,12.887s-4.521,12.887-10.68,12.887c-6.123,0-10.68-4.663-10.68-12.887ZM800.273,521.735c0-5.66-1.993-8.01-4.877-8.01-2.848,0-4.841,2.35-4.841,8.01s1.994,8.01,4.841,8.01c2.884,0,4.877-2.35,4.877-8.01Z"/><path class="cls-1" d="M833.504,515.196v17.042c0,1.936-.845,2.047-4.983,2.047-.089-.423-.356-1.091-.579-1.514.801.022,1.558.045,2.18.045,1.758,0,1.891,0,1.891-.578v-7.253h-15.528v9.344h-1.491v-19.133h18.51ZM816.485,516.665v6.83h6.896v-6.83h-6.896ZM824.872,523.495h7.141v-6.83h-7.141v6.83Z"/><path class="cls-1" d="M169.671,531.098l2.42-3.347c1.495,1.46,3.346,2.67,5.803,2.67,2.741,0,4.664-1.744,4.664-4.842,0-3.062-1.78-4.77-4.45-4.77-1.566,0-2.42.392-3.951,1.388l-2.385-1.566.712-12.779h14.097v4.378h-9.576l-.498,5.59c1.032-.499,1.958-.748,3.168-.748,4.415,0,8.117,2.635,8.117,8.366,0,5.873-4.343,9.255-9.22,9.255-4.165,0-6.942-1.637-8.899-3.595Z"/><path class="cls-1" d="M228.868,506.178v30.615h-4.557v-2.242h-15.806v2.313h-4.379v-30.687h24.741ZM208.506,510.451v7.653h15.806v-7.653h-15.806ZM224.312,530.279v-7.974h-15.806v7.974h15.806Z"/><path class="cls-1" d="M241.289,518.247v19.045h-4.201v-31.896h13.635v12.852h-9.434ZM241.289,508.457v1.887h5.482v-1.887h-5.482ZM246.771,515.22v-2.028h-5.482v2.028h5.482ZM267.133,532.273c0,2.278-.462,3.523-1.887,4.2-1.388.712-3.453.818-6.515.818-.106-.89-.498-2.207-.925-3.311h-8.829v1.815h-3.845v-15.414h13.706v12.638c1.388.036,2.706.036,3.168,0,.641,0,.854-.214.854-.783v-13.919h-9.683v-12.923h13.955v26.878ZM248.978,523.515v2.136h5.874v-2.136h-5.874ZM254.852,530.884v-2.207h-5.874v2.207h5.874ZM257.201,508.457v1.887h5.661v-1.887h-5.661ZM262.862,515.292v-2.1h-5.661v2.1h5.661Z"/><path class="cls-1" d="M387.715,523.735l4.699,4.735-1.424,1.53-4.735-4.771-4.77,4.771-1.424-1.53,4.699-4.735-4.699-4.734,1.424-1.53,4.77,4.77,4.735-4.77,1.424,1.53-4.699,4.734Z"/><path class="cls-1" d="M418.364,529.04c0,4.165-3.026,7.369-9.042,7.369-3.596,0-7.049-1.246-8.971-3.204l1.246-2.029c1.602,1.673,4.485,2.884,7.725,2.884,4.129,0,6.408-1.923,6.408-5.02,0-2.99-2.101-4.948-6.729-4.948h-1.78v-1.887l6.906-8.65h-12.745v-2.278h16.02v1.815l-7.048,8.864c5.34.284,8.01,3.097,8.01,7.084Z"/><path class="cls-1" d="M425.552,534.415c0-1.104.854-1.922,1.887-1.922s1.922.818,1.922,1.922-.89,1.958-1.922,1.958-1.887-.854-1.887-1.958Z"/><path class="cls-1" d="M436.622,523.735c0-7.938,4.165-12.673,9.932-12.673s9.968,4.734,9.968,12.673-4.201,12.674-9.968,12.674-9.932-4.735-9.932-12.674ZM453.888,523.735c0-6.656-2.99-10.323-7.333-10.323s-7.333,3.667-7.333,10.323,2.99,10.324,7.333,10.324,7.333-3.667,7.333-10.324Z"/><polygon class="cls-1" points="526 557 524 557 524 556 525 556 525 555 526 555 526 557"/><path class="cls-1" d="M520.985,557h-3.015v-1h3.015v1ZM514.957,557h-3.015v-1h3.015v1ZM508.927,557h-3.014v-1h3.014v1ZM502.898,557h-3.015v-1h3.015v1ZM496.87,557h-3.015v-1h3.015v1ZM490.84,557h-3.014v-1h3.014v1ZM484.812,557h-3.015v-1h3.015v1ZM478.782,557h-3.014v-1h3.014v1ZM472.753,557h-3.015v-1h3.015v1ZM466.725,557h-3.015v-1h3.015v1ZM460.695,557h-3.014v-1h3.014v1ZM454.667,557h-3.015v-1h3.015v1ZM448.638,557h-3.015v-1h3.015v1ZM442.608,557h-3.014v-1h3.014v1ZM436.58,557h-3.015v-1h3.015v1ZM430.551,557h-3.015v-1h3.015v1ZM424.521,557h-3.015v-1h3.015v1ZM418.493,557h-3.015v-1h3.015v1ZM412.463,557h-3.014v-1h3.014v1ZM406.435,557h-3.015v-1h3.015v1ZM400.406,557h-3.015v-1h3.015v1ZM394.376,557h-3.014v-1h3.014v1ZM388.348,557h-3.015v-1h3.015v1ZM382.319,557h-3.015v-1h3.015v1ZM376.29,557h-3.015v-1h3.015v1ZM370.261,557h-3.015v-1h3.015v1ZM364.231,557h-3.014v-1h3.014v1ZM358.203,557h-3.015v-1h3.015v1ZM352.174,557h-3.015v-1h3.015v1ZM346.145,557h-3.014v-1h3.014v1ZM340.116,557h-3.015v-1h3.015v1ZM334.087,557h-3.015v-1h3.015v1ZM328.058,557h-3.015v-1h3.015v1ZM322.029,557h-3.015v-1h3.015v1Z"/><polygon class="cls-1" points="316 557 314 557 314 555 315 555 315 556 316 556 316 557"/><path class="cls-1" d="M315,552h-1v-3h1v3ZM315,546h-1v-3h1v3ZM315,540h-1v-3h1v3ZM315,534h-1v-3h1v3ZM315,528h-1v-3h1v3ZM315,522h-1v-3h1v3ZM315,516h-1v-3h1v3ZM315,510h-1v-3h1v3ZM315,504h-1v-3h1v3ZM315,498h-1v-3h1v3Z"/><polygon class="cls-1" points="315 492 314 492 314 490 316 490 316 491 315 491 315 492"/><path class="cls-1" d="M520.986,491h-3.015v-1h3.015v1ZM514.957,491h-3.015v-1h3.015v1ZM508.928,491h-3.015v-1h3.015v1ZM502.899,491h-3.015v-1h3.015v1ZM496.87,491h-3.014v-1h3.014v1ZM490.841,491h-3.015v-1h3.015v1ZM484.812,491h-3.015v-1h3.015v1ZM478.783,491h-3.014v-1h3.014v1ZM472.754,491h-3.015v-1h3.015v1ZM466.725,491h-3.015v-1h3.015v1ZM460.696,491h-3.015v-1h3.015v1ZM454.667,491h-3.015v-1h3.015v1ZM448.638,491h-3.014v-1h3.014v1ZM442.609,491h-3.015v-1h3.015v1ZM436.58,491h-3.015v-1h3.015v1ZM430.551,491h-3.014v-1h3.014v1ZM424.522,491h-3.015v-1h3.015v1ZM418.493,491h-3.015v-1h3.015v1ZM412.464,491h-3.015v-1h3.015v1ZM406.435,491h-3.015v-1h3.015v1ZM400.406,491h-3.014v-1h3.014v1ZM394.377,491h-3.015v-1h3.015v1ZM388.348,491h-3.015v-1h3.015v1ZM382.319,491h-3.014v-1h3.014v1ZM376.29,491h-3.015v-1h3.015v1ZM370.261,491h-3.015v-1h3.015v1ZM364.232,491h-3.014v-1h3.014v1ZM358.203,491h-3.015v-1h3.015v1ZM352.174,491h-3.014v-1h3.014v1ZM346.145,491h-3.015v-1h3.015v1ZM340.116,491h-3.015v-1h3.015v1ZM334.087,491h-3.014v-1h3.014v1ZM328.058,491h-3.015v-1h3.015v1ZM322.029,491h-3.015v-1h3.015v1Z"/><polygon class="cls-1" points="526 492 525 492 525 491 524 491 524 490 526 490 526 492"/><path class="cls-1" d="M526,552h-1v-3h1v3ZM526,546h-1v-3h1v3ZM526,540h-1v-3h1v3ZM526,534h-1v-3h1v3ZM526,528h-1v-3h1v3ZM526,522h-1v-3h1v3ZM526,516h-1v-3h1v3ZM526,510h-1v-3h1v3ZM526,504h-1v-3h1v3ZM526,498h-1v-3h1v3Z"/><path class="cls-1" d="M635,524h-3v-1h3v1ZM629,524h-3v-1h3v1ZM623,524h-3v-1h3v1ZM617,524h-3v-1h3v1ZM611,524h-3v-1h3v1ZM605,524h-3v-1h3v1ZM599,524h-3v-1h3v1ZM593,524h-3v-1h3v1ZM587,524h-3v-1h3v1ZM581,524h-3v-1h3v1ZM575,524h-3v-1h3v1ZM569,524h-3v-1h3v1ZM563,524h-3v-1h3v1ZM557,524h-3v-1h3v1ZM551,524h-3v-1h3v1ZM545,524h-3v-1h3v1ZM539,524h-3v-1h3v1Z"/><path class="cls-1" d="M635.932,534.398c-.128,0-.256-.049-.354-.146-.195-.195-.195-.512,0-.707l10.474-10.474-10.474-10.474c-.195-.195-.195-.512,0-.707s.512-.195.707,0l10.827,10.827c.195.195.195.512,0,.707l-10.827,10.827c-.098.098-.226.146-.354.146Z"/><path class="cls-1" d="M209.02,61.241v30.615h-4.557v-2.243h-15.806v2.314h-4.379v-30.686h24.741ZM188.658,65.513v7.653h15.806v-7.653h-15.806ZM204.463,85.341v-7.974h-15.806v7.974h15.806Z"/><path class="cls-1" d="M246.751,69.429c-.748,5.269-1.958,9.683-3.88,13.278,1.638,2.528,3.702,4.557,6.301,5.91-.961.854-2.278,2.492-2.919,3.667-2.421-1.459-4.378-3.346-5.98-5.66-1.958,2.35-4.415,4.272-7.511,5.838-.25-.605-.783-1.566-1.353-2.421l-1.602,1.638c-.961-.819-2.243-1.745-3.702-2.67-2.1,1.566-4.948,2.599-8.757,3.382-.249-1.21-.997-2.634-1.673-3.524,2.848-.356,5.09-.961,6.764-1.887-.641-.356-1.317-.676-1.994-.961l-.392.676-3.702-1.139c.783-1.246,1.673-2.848,2.563-4.557h-3.382v-3.417h5.162c.427-.89.854-1.745,1.21-2.528l.783.178v-3.417c-1.638,1.638-3.56,3.133-5.34,4.129-.463-.925-1.353-2.314-2.136-3.062,2.171-.89,4.557-2.599,6.265-4.45h-5.553v-3.346h2.706c-.32-1.21-1.104-2.848-1.851-4.129l3.062-1.282c.925,1.353,1.851,3.168,2.136,4.414l-2.278.997h2.99v-5.981h3.88v5.981h2.812l-2.349-1.033c.818-1.281,1.815-3.168,2.385-4.521l3.56,1.424c-1.104,1.53-2.207,3.026-3.062,4.129h3.382v3.346h-5.838c1.708.961,4.236,2.456,5.019,2.99l-2.243,2.919c-.783-.748-2.278-1.993-3.667-3.097v4.308h-2.278l1.531.32-.854,1.709h8.473c-.819-.819-2.101-1.922-2.884-2.457,3.026-3.631,4.735-9.683,5.589-16.02l4.271.57c-.285,1.994-.676,3.952-1.139,5.838h9.469v3.916h-1.993ZM222.188,82.885c1.068.427,2.101.854,3.133,1.353.57-.89,1.032-1.958,1.353-3.239h-3.453l-1.033,1.887ZM230.661,80.999c-.392,1.993-.997,3.667-1.887,5.055,1.104.641,2.136,1.282,2.955,1.887,2.634-1.388,4.699-3.168,6.266-5.375-.997-2.101-1.78-4.45-2.421-7.013-.499.926-1.068,1.78-1.638,2.563-.142-.142-.285-.32-.498-.534v3.417h-2.777ZM238.279,69.429c.499,2.99,1.21,5.803,2.171,8.366.89-2.42,1.531-5.233,1.922-8.366h-4.094Z"/><path class="cls-1" d="M371.03,77.758c-1.068.32-2.171.676-3.239.997v9.184c0,1.958-.32,2.991-1.424,3.631-1.032.676-2.563.819-4.841.783-.106-1.032-.569-2.706-1.068-3.845,1.282.071,2.527.071,2.955.071s.605-.143.605-.641v-8.045c-1.175.32-2.314.641-3.346.925l-.926-4.058c1.21-.249,2.67-.641,4.272-1.032v-6.017h-3.631v-3.88h3.631v-6.693h3.773v6.693h2.741v3.88h-2.741v4.984l2.706-.748.534,3.809ZM383.098,85.376l.107,3.346c-4.77.677-9.861,1.317-13.634,1.816l-.569-3.631c1.637-.178,3.667-.392,5.838-.605v-4.094h-4.129v-3.382h4.129v-4.2h3.738v4.2h4.059v3.382h-4.059v3.667l4.521-.499ZM374.875,66.651h-3.773v-3.311h3.773v-4.201h3.773v4.201h3.738v3.311h-3.738v3.667h4.236v3.346h-12.531v-3.346h4.521v-3.667ZM391.606,79.609c-.926-1.246-2.527-3.062-3.987-4.627v17.372h-3.916v-33.214h3.916v11.285c1.566,1.21,5.375,4.663,6.336,5.553l-2.35,3.631Z"/><path class="cls-1" d="M404.631,61.667c-.285.854-.676,2.1-.818,2.848-.854,3.916-2.101,11.285-1.175,15.664.462-1.068,1.068-2.777,1.637-4.058l2.243,1.388c-1.033,3.062-1.958,6.622-2.385,8.615-.143.534-.25,1.317-.25,1.709.036.356.071.961.107,1.459l-3.951.392c-.748-2.136-2.029-7.049-2.029-11.427,0-5.767.712-11.214,1.175-14.062.178-.997.213-2.171.213-3.062l5.233.534ZM427.237,71.92c-1.424.178-3.24.32-5.233.427v1.459c0,8.33-.641,13.42-7.654,17.906l-4.094-3.204c1.353-.605,3.132-1.709,4.129-2.812,2.706-2.812,3.275-5.945,3.275-11.89v-1.282c-1.317.036-2.67.071-3.951.071-1.531,0-3.703-.107-5.447-.178v-4.485c1.744.25,3.453.356,5.34.356,1.281,0,2.634-.036,3.987-.071-.036-1.958-.106-3.773-.178-4.734-.071-.748-.214-1.815-.392-2.421h5.162c-.142.783-.142,1.602-.178,2.385s-.036,2.599-.036,4.521c1.994-.143,3.845-.356,5.304-.641l-.036,4.592Z"/><path class="cls-1" d="M443.075,76.547c.676-.641,1.353-1.317,2.029-1.993-1.282-1.104-2.991-2.35-4.486-3.311l-2.599,2.172c-1.104-1.139-3.453-2.848-5.34-3.916l2.812-2.314c1.638.89,3.809,2.278,5.126,3.382l1.638-1.994.854.534c.605-.89,1.175-1.851,1.673-2.741h-11.641v-3.773h12.531v-3.453h4.343v3.453h12.851v3.773h-14.738l.783.285c-1.104,1.424-2.278,2.883-3.311,4.094.641.463,1.246.89,1.78,1.317,1.246-1.459,2.349-2.883,3.239-4.165l3.311,1.531c-1.958,2.314-4.343,4.806-6.621,6.942l3.667-.178c-.392-.676-.854-1.317-1.281-1.922l2.99-1.246c.569.748,1.21,1.602,1.78,2.456l2.171-1.744c2.457,1.21,5.767,3.168,7.44,4.557l-3.062,2.527c-1.21-1.068-3.489-2.634-5.66-3.88.534.926.961,1.816,1.21,2.563l-3.204,1.424c-.178-.534-.427-1.139-.748-1.78-4.308.392-8.65.712-12.068.961l-.427-2.456c-2.243,1.104-4.592,2.207-6.515,3.061l-1.994-3.417c2.243-.712,5.66-2.029,8.936-3.311l.641,2.634,1.887-.071ZM450.017,82.101h13.955v3.916h-13.955v6.336h-4.343v-6.336h-13.67v-3.916h13.67v-2.278h4.343v2.278ZM454.538,71.35c1.602-1.21,3.595-3.062,4.806-4.521l3.773,1.815c-1.815,1.673-3.88,3.275-5.482,4.379l-3.097-1.673Z"/><path class="cls-1" d="M722.531,60.387c-.89,2.35-1.994,4.735-3.204,7.013v24.919h-3.987v-18.583c-.712.961-1.424,1.851-2.171,2.634-.392-.997-1.495-3.24-2.171-4.272,3.062-3.097,5.98-8.01,7.725-12.922l3.809,1.21ZM738.159,66.367v4.45h6.016v20.54h-4.058v-1.815h-14.097v2.029h-3.916v-20.754h5.731v-4.45h-6.087v-3.773h22.605v3.773h-6.194ZM726.02,85.911h2.207v-11.427h-2.207v11.427ZM731.787,74.484v11.427h2.385v-11.427h-2.385ZM734.172,66.367h-2.35v4.45h2.35v-4.45ZM740.117,74.484h-2.385v11.427h2.385v-11.427Z"/><path class="cls-1" d="M778.382,63.947c-1.21,3.702-3.062,6.835-5.411,9.469,2.243,1.708,4.948,3.097,8.045,3.951-.854.819-2.029,2.492-2.563,3.524l-.641-.249v11.605h-4.094v-1.139h-7.44v1.246h-3.952v-11.392c-.605.285-1.21.534-1.815.748-.392-.819-1.139-1.958-1.815-2.812l-.32.463c-.427-.89-1.175-2.207-1.958-3.453v16.411h-3.987v-13.492c-.997,2.848-2.207,5.482-3.56,7.298-.392-1.175-1.317-2.812-1.958-3.845,2.171-2.812,4.201-7.725,5.197-11.961h-4.343v-3.916h4.663v-7.298h3.987v7.298h3.987v1.922c2.528-2.456,4.735-5.838,6.016-9.255l4.023,1.104c-.356.89-.748,1.78-1.175,2.67h5.731l.748-.143,2.634,1.246ZM759.444,77.866c2.848-1.068,5.553-2.563,7.867-4.485-.997-1.139-1.887-2.314-2.67-3.489-.854,1.032-1.744,1.958-2.634,2.741-.534-.57-1.638-1.566-2.563-2.314h-3.026v.854c.961,1.032,3.631,4.201,4.236,5.019l-1.21,1.673ZM774.431,79.076c-1.566-.854-2.99-1.851-4.271-2.919-1.282,1.104-2.635,2.065-4.094,2.919h8.366ZM773.719,87.478v-4.842h-7.44v4.842h7.44ZM767.204,66.438l-.249.356c.819,1.353,1.815,2.706,3.062,3.987,1.175-1.317,2.207-2.777,3.026-4.343h-5.838Z"/><rect class="cls-1" x="152" y="110" width="690" height="1"/></g></svg>