<?xml version="1.0" encoding="UTF-8"?><svg id="_レイヤー_2" xmlns="http://www.w3.org/2000/svg" viewBox="0 0 900 729"><defs><style>.cls-1{fill:none;stroke:#dd6743;stroke-width:5px;}.cls-2{fill:#ddd;}.cls-2,.cls-3,.cls-4,.cls-5{stroke-width:0px;}.cls-3{fill:#4b5654;}.cls-4{fill:#dd6743;}.cls-5{fill:#fff;}</style></defs><g id="_レンタル全般"><rect class="cls-2" x="1.8" y="67.5" width="898.2" height="92.7" rx="15" ry="15"/><path class="cls-3" d="M180.871,97.793c1.39-.446,2.818-.669,4.023-.669,2.669,0,4.598,1.468,4.598,3.661,0,2.23-1.391,3.643-3.912,4.256-.816.186-1.632.223-2.262.241l-.519-1.468c.686,0,1.446.019,2.151-.13,1.613-.297,3.077-1.171,3.077-2.881,0-1.561-1.409-2.397-3.151-2.397-1.372,0-2.67.26-3.986.725.037,1.561.074,3.178.074,3.977,0,1.71-.648,2.249-1.631,2.249-1.446,0-3.837-1.394-3.837-3.048,0-1.505,1.909-3.104,4.023-4.014v-1.041c0-.743,0-1.598.019-2.416-.5.037-.964.056-1.354.056-.834,0-1.631-.019-2.336-.093l-.037-1.413c1.001.13,1.668.149,2.336.149.426,0,.909-.019,1.409-.056.019-.967.037-1.766.037-2.1,0-.372-.037-.985-.111-1.301h1.613c-.037.334-.074.836-.093,1.264-.019.446-.037,1.17-.056,1.988,1.335-.167,2.726-.427,3.764-.743l.019,1.468c-1.075.241-2.484.483-3.819.632-.018.874-.037,1.747-.037,2.49v.613ZM179.591,102.923c0-.669-.037-1.914-.056-3.252-1.483.706-2.577,1.747-2.577,2.583s1.261,1.561,1.984,1.561c.426,0,.649-.316.649-.892ZM186.822,92.106c1.297.688,3.3,1.952,4.189,2.695l-.741,1.189c-.909-.874-2.948-2.119-4.116-2.75l.667-1.134Z"/><path class="cls-3" d="M203.233,98.258s-.019.446-.037.632c-.333,4.386-.649,6.114-1.316,6.747-.371.446-.797.557-1.465.595-.575.056-1.743.019-2.929-.038-.019-.427-.223-1.022-.482-1.412,1.224.111,2.447.13,2.911.13.389,0,.612-.019.815-.205.445-.39.76-1.821,1.001-5.167h-4.876c-.074.316-.148.613-.204.892l-1.353-.223c.371-1.542.815-3.996,1.075-5.873h5.414v-2.937h-6.044v-1.301h7.397v5.539h-5.58c-.148.874-.297,1.784-.463,2.621h6.136ZM209.574,89.523v16.764h-1.372v-16.764h1.372Z"/><path class="cls-3" d="M230.175,96.195c-.815.279-1.873.539-3.115.78.538,1.171,1.131,2.417,1.65,3.383l-.723.911c-.927-.167-2.41-.372-3.578-.521l.13-1.134c.89.112,1.761.205,2.336.26-.353-.725-.779-1.691-1.205-2.658-2.373.316-5.376.353-8.213.167l-.056-1.357c2.799.26,5.524.242,7.712-.037l-.649-1.505c-.148-.316-.278-.65-.408-.948-1.854.167-4.171.167-6.452-.037l-.092-1.357c2.188.242,4.245.279,6.006.149-.092-.205-.167-.391-.241-.558-.278-.576-.445-.911-.686-1.301l1.668-.353c.167.632.408,1.338.686,2.044,1.279-.205,2.577-.483,3.652-.874l.259,1.32c-.945.297-2.15.576-3.411.78l.334.762c.148.39.408.966.723,1.654,1.446-.26,2.559-.595,3.393-.911l.278,1.338ZM219.626,100.024c-.223.576-.426,1.394-.426,1.877,0,1.413,1.112,2.305,3.726,2.305,1.483,0,3.226-.13,4.524-.428l-.037,1.505c-1.149.205-2.929.354-4.431.354-3.281,0-5.209-1.134-5.209-3.438,0-.781.223-1.636.426-2.305l1.428.13Z"/><path class="cls-3" d="M243.324,91.772v14.478h-1.334v-3.364c-2.336.391-4.709.744-6.47,1.041l-.241-1.394c.519-.056,1.131-.13,1.798-.223v-10.538h-1.446v-1.282h8.992v1.282h-1.298ZM241.99,91.772h-3.615v2.472h3.615v-2.472ZM241.99,95.47h-3.615v2.583h3.615v-2.583ZM238.375,102.124c1.131-.149,2.373-.334,3.615-.521v-2.286h-3.615v2.807ZM251.927,92.069c-.482,3.977-1.521,7.062-3.003,9.423,1.02,1.487,2.28,2.676,3.819,3.457-.315.26-.76.781-.983,1.134-1.464-.836-2.688-1.97-3.689-3.364-1.094,1.394-2.373,2.49-3.782,3.308-.204-.353-.612-.855-.909-1.115,1.465-.762,2.781-1.914,3.894-3.438-1.279-2.193-2.151-4.888-2.763-7.936l1.316-.242c.482,2.565,1.224,4.907,2.28,6.876,1.076-1.896,1.873-4.219,2.299-6.951h-6.248v-1.357h6.619l.259-.056.89.26Z"/><path class="cls-3" d="M261.405,90.267c-.389,1.356-.741,3.829-.853,5.111.723-1.896,2.651-4.182,4.968-4.182,2.447,0,4.208,2.453,4.208,6.319,0,5.111-3.207,7.36-7.768,8.196l-.871-1.338c3.986-.613,7.101-2.211,7.101-6.839,0-2.899-.964-4.98-2.911-4.98-2.28,0-4.394,3.327-4.616,5.743-.093.706-.093,1.338.037,2.249l-1.446.112c-.093-.688-.186-1.729-.186-2.918,0-1.747.334-4.46.556-5.947.074-.576.13-1.134.148-1.58l1.631.056Z"/><path class="cls-3" d="M290.85,90.601v15.407h-1.446v-1.134h-9.196v1.208h-1.391v-15.481h12.032ZM280.208,91.958v5.018h9.196v-5.018h-9.196ZM289.404,103.518v-5.185h-9.196v5.185h9.196Z"/><path class="cls-3" d="M308.763,97.812c0-3.624,1.465-6.579,3.689-8.846l1.112.576c-2.132,2.212-3.448,4.962-3.448,8.271s1.316,6.059,3.448,8.271l-1.112.576c-2.225-2.268-3.689-5.223-3.689-8.847Z"/><path class="cls-3" d="M327.196,98.834c1.687,2.267,4.431,4.479,6.934,5.557-.297.279-.742.799-.964,1.171-2.466-1.227-5.117-3.55-6.916-6.003v6.728h-1.427v-6.691c-1.798,2.454-4.431,4.684-6.86,5.892-.222-.334-.667-.855-.964-1.134,2.484-1.078,5.209-3.252,6.896-5.52h-6.507v-1.32h7.435v-4.627h-6.563v-1.32h6.563v-2.23h1.427v2.23h6.711v1.32h-6.711v4.627h7.49v1.32h-6.544ZM320.967,93.314c.742,1.078,1.502,2.509,1.761,3.476l-1.298.502c-.241-.93-.945-2.435-1.668-3.513l1.205-.465ZM328.401,96.938c.63-1.003,1.427-2.583,1.872-3.698l1.409.446c-.649,1.264-1.465,2.732-2.132,3.643l-1.149-.391Z"/><path class="cls-3" d="M344.368,100.953c-.482-.539-1.501-1.58-2.336-2.36v7.694h-1.354v-7.192c-.927.911-1.891,1.691-2.836,2.304-.148-.353-.5-.985-.723-1.245,2.207-1.282,4.524-3.624,5.803-6.096h-5.154v-1.264h2.911v-3.457h1.354v3.457h1.613l.241-.056.779.521c-.575,1.431-1.428,2.806-2.392,4.052.853.688,2.484,2.119,2.948,2.527l-.853,1.115ZM354.583,104.41v1.357h-10.382v-1.357h4.69v-7.712h-3.967v-1.338h3.967v-5.892h1.372v5.892h3.949v1.338h-3.949v7.712h4.32Z"/><path class="cls-3" d="M366.082,103.964c.575-.037,1.131-.13,1.576-.223,2.354-.521,4.653-2.267,4.653-5.445,0-2.788-1.761-5.074-4.875-5.334-.241,1.71-.593,3.568-1.094,5.297-1.131,3.772-2.595,5.724-4.301,5.724-1.632,0-3.282-1.896-3.282-4.925,0-3.996,3.56-7.49,8.046-7.49,4.301,0,7.045,3.048,7.045,6.765,0,3.866-2.54,6.449-6.916,7.025l-.853-1.394ZM364.877,97.942c.463-1.524.815-3.271,1.02-4.962-3.522.446-5.673,3.476-5.673,5.947,0,2.323,1.075,3.345,1.873,3.345.815,0,1.835-1.227,2.781-4.33Z"/><path class="cls-3" d="M384.144,100.228c-1.873.948-3.894,1.933-5.451,2.676l-.538-1.356c.705-.297,1.576-.669,2.521-1.097v-5.817h-2.169v-1.301h2.169v-3.866h1.279v3.866h2.002v1.301h-2.002v5.222l1.891-.855.297,1.227ZM387.592,98.091c-.241.446-.5.892-.797,1.301h7.972s-.019.372-.056.557c-.278,3.829-.575,5.278-1.094,5.817-.278.316-.612.409-1.038.465-.408.019-1.094.019-1.835-.019,0-.335-.13-.836-.315-1.115.686.056,1.298.074,1.576.074.259,0,.426-.019.556-.205.315-.334.593-1.505.834-4.423h-1.446c-.742,2.212-2.188,4.609-3.782,5.817-.223-.279-.649-.595-.982-.799,1.501-1.003,2.855-3.011,3.615-5.018h-1.798c-.983,1.915-2.8,3.94-4.505,5.018-.204-.297-.575-.632-.908-.855,1.539-.836,3.17-2.509,4.171-4.163h-1.873c-.742.836-1.576,1.562-2.41,2.119-.186-.223-.667-.669-.946-.855,1.465-.874,2.8-2.193,3.671-3.717h-2.595v-1.171h11.605v1.171h-7.62ZM393.896,95.879h-8.472v-6.003h8.472v6.003ZM392.616,90.917h-5.933v1.468h5.933v-1.468ZM392.616,93.352h-5.933v1.487h5.933v-1.487Z"/><path class="cls-3" d="M407.712,89.375c1.965,2.732,5.229,5.315,8.139,6.635-.334.316-.667.799-.909,1.189-2.874-1.505-6.118-4.107-7.842-6.486-1.52,2.268-4.523,4.907-7.694,6.598-.167-.316-.538-.799-.853-1.097,3.226-1.636,6.322-4.46,7.768-6.839h1.39ZM401.539,98.909h11.272v7.397h-1.409v-.762h-8.509v.762h-1.354v-7.397ZM411.791,95.359v1.227h-9.289v-1.227h9.289ZM402.892,100.154v4.145h8.509v-4.145h-8.509Z"/><path class="cls-3" d="M423.92,97.812c0,3.624-1.464,6.579-3.689,8.847l-1.112-.576c2.132-2.211,3.448-4.962,3.448-8.271s-1.316-6.059-3.448-8.271l1.112-.576c2.225,2.267,3.689,5.222,3.689,8.846Z"/><path class="cls-3" d="M453.81,104.651c-1.075-.985-2.595-2.1-4.431-2.769.019.464.037.874.037,1.152,0,1.264-.853,2.583-3.245,2.583-2.632,0-4.097-.948-4.097-2.732,0-1.672,1.613-2.806,4.264-2.806.538,0,1.038.037,1.539.111-.037-.818-.074-1.691-.092-2.453h-1.02c-1.261,0-3.3-.111-4.616-.26v-1.413c1.242.223,3.411.354,4.616.354h.983v-2.639h-.909c-1.279,0-3.226-.149-4.319-.279v-1.375c1.112.205,3.077.353,4.301.353h.946v-1.208c0-.297-.019-.836-.056-1.096h1.576c-.056.334-.074.688-.093,1.227-.019.223-.019.576-.019,1.022,1.595-.056,3.096-.205,4.709-.446l.019,1.356c-1.446.149-3.022.297-4.746.391v2.639c1.761-.074,3.448-.241,5.099-.483l.019,1.394c-1.724.223-3.356.354-5.099.428.037.948.093,1.914.13,2.788,2.429.669,4.301,2.026,5.339,2.862l-.834,1.301ZM447.933,101.474c-.575-.112-1.168-.167-1.78-.167-1.743,0-2.688.669-2.688,1.505,0,.855.723,1.487,2.54,1.487,1.057,0,1.946-.316,1.946-1.58,0-.316-.019-.744-.019-1.245Z"/><path class="cls-3" d="M470.203,93.928c-1.205.279-2.521.483-3.8.632-.167.799-.371,1.654-.575,2.435-.667,2.639-1.91,6.431-2.874,8.438l-1.631-.539c1.094-1.896,2.392-5.631,3.078-8.233.167-.613.315-1.282.463-1.951-.593.037-1.149.056-1.668.056-.816,0-1.483-.037-2.132-.074l-.056-1.45c.871.111,1.539.13,2.206.13.612,0,1.261-.037,1.965-.074.129-.669.222-1.245.278-1.617.056-.521.093-1.134.056-1.524l1.798.148c-.13.409-.259,1.097-.333,1.468l-.278,1.357c1.187-.149,2.392-.372,3.504-.669v1.468ZM469.48,100.377c-.167.613-.259,1.189-.259,1.654,0,.874.408,1.71,3.022,1.71,1.187,0,2.466-.148,3.578-.353l-.056,1.505c-.983.13-2.206.242-3.541.242-2.892,0-4.413-.892-4.413-2.713,0-.707.111-1.394.278-2.175l1.39.13ZM469.017,95.898c.964-.093,2.169-.149,3.356-.149,1.057,0,2.188.037,3.17.149l-.037,1.413c-.927-.112-2.021-.223-3.096-.223-1.149,0-2.262.074-3.393.205v-1.394Z"/><path class="cls-3" d="M484.242,90.731c-.111.297-.26.911-.315,1.246-.371,1.709-.908,5.353-.908,7.416,0,.892.037,1.617.167,2.509.296-.836.723-1.933,1.038-2.676l.779.613c-.464,1.282-1.112,3.16-1.298,4.07-.056.242-.111.595-.093.817,0,.186.037.446.056.632l-1.316.111c-.371-1.319-.705-3.345-.705-5.836,0-2.695.612-6.208.834-7.731.074-.427.13-.911.13-1.301l1.631.13ZM496.182,104.131c-.909-.854-1.817-1.58-2.763-2.1v.335c0,1.524-.704,3.011-3.188,3.011-2.466,0-3.819-1.022-3.819-2.658,0-1.542,1.372-2.807,3.782-2.807.612,0,1.187.056,1.706.167-.056-1.413-.167-3.178-.186-4.702-.593.019-1.168.037-1.761.037-1.038,0-2.002-.056-3.077-.111v-1.413c1.038.111,2.039.167,3.114.167.575,0,1.149-.019,1.724-.038v-2.286c0-.316-.037-.799-.092-1.115h1.687c-.056.353-.093.725-.111,1.097-.019.501-.037,1.356-.056,2.211,1.112-.074,2.188-.223,3.17-.427v1.45c-1.001.167-2.077.279-3.17.353.019,1.84.148,3.68.223,5.222,1.483.595,2.651,1.543,3.615,2.397l-.797,1.208ZM491.955,101.399c-.593-.204-1.224-.297-1.873-.297-1.372,0-2.317.613-2.317,1.468,0,.911.89,1.431,2.206,1.431,1.558,0,2.002-.762,2.002-1.989,0-.167,0-.39-.019-.613Z"/><path class="cls-3" d="M180.871,130.31c1.39-.446,2.818-.669,4.023-.669,2.669,0,4.598,1.468,4.598,3.661,0,2.23-1.391,3.643-3.912,4.256-.816.186-1.632.223-2.262.241l-.519-1.468c.686,0,1.446.019,2.151-.13,1.613-.297,3.077-1.171,3.077-2.881,0-1.561-1.409-2.397-3.151-2.397-1.372,0-2.67.26-3.986.725.037,1.561.074,3.178.074,3.977,0,1.71-.648,2.249-1.631,2.249-1.446,0-3.837-1.394-3.837-3.048,0-1.505,1.909-3.104,4.023-4.014v-1.041c0-.743,0-1.598.019-2.416-.5.037-.964.056-1.354.056-.834,0-1.631-.019-2.336-.093l-.037-1.413c1.001.13,1.668.149,2.336.149.426,0,.909-.019,1.409-.056.019-.967.037-1.766.037-2.1,0-.372-.037-.985-.111-1.301h1.613c-.037.334-.074.836-.093,1.264-.019.446-.037,1.171-.056,1.989,1.335-.167,2.726-.427,3.764-.743l.019,1.468c-1.075.241-2.484.483-3.819.632-.018.874-.037,1.747-.037,2.49v.613ZM179.591,135.439c0-.669-.037-1.914-.056-3.252-1.483.707-2.577,1.747-2.577,2.583s1.261,1.561,1.984,1.561c.426,0,.649-.316.649-.892ZM186.822,124.623c1.297.688,3.3,1.952,4.189,2.695l-.741,1.189c-.909-.874-2.948-2.119-4.116-2.75l.667-1.134Z"/><path class="cls-3" d="M203.233,130.774s-.019.446-.037.632c-.333,4.386-.649,6.114-1.316,6.747-.371.446-.797.557-1.465.595-.575.056-1.743.019-2.929-.038-.019-.427-.223-1.022-.482-1.412,1.224.111,2.447.13,2.911.13.389,0,.612-.019.815-.205.445-.39.76-1.821,1.001-5.167h-4.876c-.074.316-.148.613-.204.892l-1.353-.223c.371-1.542.815-3.996,1.075-5.873h5.414v-2.937h-6.044v-1.301h7.397v5.539h-5.58c-.148.874-.297,1.784-.463,2.621h6.136ZM209.574,122.039v16.764h-1.372v-16.764h1.372Z"/><path class="cls-3" d="M218.217,129.919c-.649-.613-2.021-1.431-3.17-1.952l.778-1.022c1.113.464,2.503,1.245,3.189,1.84l-.797,1.134ZM219.33,132.559c-.797,1.97-1.873,4.256-2.781,6.003l-1.242-.818c.853-1.431,2.04-3.866,2.911-5.984l1.113.799ZM219.145,125.087c-.612-.632-1.947-1.487-3.041-2.026l.76-1.004c1.094.483,2.447,1.283,3.096,1.933l-.815,1.097ZM221.814,128.693c0,2.974-.278,7.211-2.188,10.073-.241-.223-.816-.539-1.149-.669,1.854-2.732,2.021-6.616,2.021-9.404v-4.981h5.154v-1.858h1.372v1.858h4.82v1.189h-10.03v1.989h2.077v-1.487h1.205v1.487h3.43v-1.487h1.261v1.487h2.188v1.133h-2.188v2.862h-5.896v-2.862h-2.077v.669ZM231.01,132.261c-.667,1.672-1.743,2.992-3.096,3.996,1.205.65,2.651,1.134,4.264,1.394-.297.26-.649.781-.834,1.134-1.743-.353-3.281-.948-4.579-1.766-1.428.818-3.059,1.375-4.728,1.747-.13-.316-.426-.855-.667-1.115,1.521-.279,3.003-.744,4.32-1.431-.946-.799-1.724-1.766-2.299-2.881l.871-.26h-1.965v-1.134h7.639l.241-.056.834.372ZM224.632,133.079c.5.966,1.242,1.784,2.169,2.472,1.001-.669,1.835-1.487,2.41-2.472h-4.579ZM225.096,128.023v1.766h3.43v-1.766h-3.43Z"/><path class="cls-3" d="M241.025,122.969c-.093.595-.148,1.245-.185,1.84-.074,2.082-.223,6.43-.223,9.181,0,2.025,1.298,2.732,3.003,2.732,3.374,0,5.284-1.896,6.6-3.81l1.02,1.282c-1.242,1.747-3.615,4.052-7.657,4.052-2.633,0-4.449-1.115-4.449-4.107,0-2.732.185-7.378.185-9.33,0-.669-.056-1.32-.167-1.859l1.873.019Z"/><path class="cls-3" d="M270.452,123.117v15.407h-1.446v-1.134h-9.196v1.208h-1.391v-15.481h12.032ZM259.811,124.474v5.018h9.196v-5.018h-9.196ZM269.006,136.034v-5.185h-9.196v5.185h9.196Z"/><path class="cls-3" d="M288.366,130.328c0-3.624,1.465-6.579,3.689-8.847l1.112.576c-2.132,2.212-3.448,4.962-3.448,8.271s1.316,6.059,3.448,8.271l-1.112.576c-2.225-2.268-3.689-5.223-3.689-8.847Z"/><path class="cls-3" d="M309.635,124.864c-.353.706-.723,1.394-1.057,1.951h3.912v10.278c0,.818-.186,1.264-.779,1.487-.612.205-1.631.223-3.151.223-.056-.353-.26-.985-.464-1.338,1.205.056,2.317.037,2.651.019.315,0,.408-.093.408-.39v-9.07h-3.875v1.84c0,.372.074.409.538.409h1.613c.408,0,.482-.13.538-1.227.204.186.705.353,1.057.427-.129,1.487-.463,1.859-1.446,1.859h-1.91c-1.298,0-1.613-.297-1.613-1.45v-1.859h-2.206c-.223,2.23-1.057,3.383-3.764,4.033-.111-.279-.426-.743-.667-.966,2.336-.483,3.003-1.338,3.189-3.067h-3.319v10.761h-1.298v-11.969h3.634c-.204-.595-.556-1.375-.871-1.951h-3.541v-1.264h7.175v-1.747h1.39v1.747h7.342v1.264h-3.485ZM302.96,136.814v1.134h-1.224v-5.668h6.989v4.535h-5.766ZM307.058,126.815c.315-.539.705-1.319.964-1.951h-5.785c.371.632.705,1.413.872,1.951h3.949ZM302.96,133.357v2.379h4.505v-2.379h-4.505Z"/><path class="cls-3" d="M317.871,130.737h6.544v7.917h-1.353v-.836h-3.875v1.004h-1.316v-8.084ZM319.187,132.075v4.405h3.875v-4.405h-3.875ZM330.645,128.786h-10.085v-6.152h10.085v6.152ZM329.254,123.954h-7.36v3.513h7.36v-3.513ZM333.333,130.737v7.954h-1.353v-.874h-4.208v1.004h-1.335v-8.084h6.896ZM331.979,136.48v-4.405h-4.208v4.405h4.208Z"/><path class="cls-3" d="M348.873,129.696v2.769h4.394v1.283h-4.394v2.992c0,.576.111.688.742.688h2.114c.575,0,.667-.372.741-2.36.297.242.872.483,1.242.576-.13,2.36-.519,3.011-1.873,3.011h-2.428c-1.558,0-1.965-.409-1.965-1.933v-2.974h-3.337c-.296,1.988-1.39,3.884-5.024,5.148-.167-.316-.593-.836-.872-1.097,3.096-1.041,4.153-2.509,4.487-4.051h-4.116v-1.283h4.264v-2.769h-1.947v-.706c-.89.669-1.835,1.208-2.762,1.635-.186-.297-.593-.78-.853-1.041,1.279-.521,2.614-1.357,3.764-2.416-.556-.595-1.465-1.375-2.225-1.952l.853-.725c.742.539,1.65,1.264,2.243,1.821.667-.762,1.261-1.58,1.724-2.454h-4.598v-1.227h5.284l.241-.056.908.446c-.797,2.174-2.206,3.996-3.856,5.39h8.713c-1.798-1.617-3.208-3.754-4.134-6.152l1.187-.353c.315.799.705,1.598,1.168,2.323.816-.669,1.706-1.542,2.28-2.193l1.038.744c-.815.799-1.835,1.691-2.707,2.342.371.501.76.985,1.205,1.431.908-.707,1.984-1.691,2.632-2.397l1.039.725c-.853.836-1.965,1.729-2.911,2.416,1.038.911,2.206,1.654,3.467,2.156-.297.26-.723.799-.946,1.152-.945-.409-1.835-.966-2.651-1.617v.706h-2.132ZM347.446,129.696h-3.226v2.769h3.226v-2.769Z"/><path class="cls-3" d="M361.966,135.049c.871,1.357,2.484,1.989,4.616,2.082,2.021.074,6.137.019,8.306-.13-.148.334-.389.985-.445,1.412-2.021.075-5.821.112-7.861.038-2.41-.093-4.06-.762-5.247-2.193-.89.781-1.817,1.58-2.799,2.379l-.742-1.394c.853-.558,1.891-1.338,2.818-2.119v-4.702h-2.577v-1.301h3.931v5.929ZM361.392,126.072c-.575-.892-1.947-2.119-3.152-2.937l1.02-.836c1.187.781,2.596,1.97,3.226,2.862l-1.094.911ZM369.809,130.421c.778,2.323,2.354,3.903,4.838,4.609-.315.279-.686.799-.871,1.152-2.41-.836-3.967-2.416-4.876-4.776-.575,1.673-1.891,3.382-4.839,4.702-.185-.279-.612-.762-.908-1.022,3.207-1.301,4.283-3.066,4.616-4.665h-4.765v-1.246h4.913c.019-.186.019-.353.019-.52v-2.063h-4.338v-1.227h2.317c-.223-.836-.908-2.082-1.594-2.992l1.168-.465c.723.892,1.427,2.119,1.687,2.955l-1.112.502h7.99v1.227h-4.746v2.082c0,.167,0,.334-.019.501h5.321v1.246h-4.801ZM373.053,122.299c-.649,1.06-1.391,2.286-2.002,3.067l-1.131-.409c.593-.855,1.354-2.193,1.724-3.122l1.409.464Z"/><path class="cls-3" d="M386.48,136.48c.575-.037,1.131-.13,1.576-.223,2.354-.521,4.653-2.267,4.653-5.445,0-2.788-1.761-5.074-4.875-5.334-.241,1.71-.593,3.568-1.094,5.297-1.131,3.772-2.595,5.724-4.301,5.724-1.632,0-3.282-1.896-3.282-4.925,0-3.996,3.56-7.49,8.046-7.49,4.301,0,7.045,3.048,7.045,6.765,0,3.866-2.54,6.449-6.916,7.025l-.853-1.394ZM385.275,130.458c.463-1.524.815-3.271,1.02-4.962-3.522.446-5.673,3.476-5.673,5.947,0,2.323,1.075,3.345,1.873,3.345.815,0,1.835-1.227,2.781-4.33Z"/><path class="cls-3" d="M404.542,132.744c-1.873.948-3.894,1.933-5.451,2.676l-.538-1.356c.705-.297,1.576-.669,2.521-1.097v-5.817h-2.169v-1.301h2.169v-3.866h1.279v3.866h2.002v1.301h-2.002v5.222l1.891-.855.297,1.227ZM407.99,130.607c-.241.446-.5.892-.797,1.301h7.972s-.019.372-.056.557c-.278,3.829-.575,5.278-1.094,5.817-.278.316-.612.409-1.038.465-.408.019-1.094.019-1.835-.019,0-.334-.13-.836-.315-1.115.686.056,1.298.074,1.576.074.26,0,.427-.019.557-.205.315-.334.593-1.505.834-4.423h-1.446c-.742,2.212-2.188,4.609-3.782,5.817-.223-.279-.649-.595-.982-.799,1.501-1.003,2.855-3.011,3.615-5.018h-1.798c-.983,1.915-2.8,3.94-4.505,5.018-.204-.297-.575-.632-.908-.855,1.539-.836,3.17-2.509,4.171-4.163h-1.873c-.742.836-1.576,1.562-2.41,2.119-.186-.223-.667-.669-.946-.855,1.465-.874,2.8-2.193,3.671-3.717h-2.595v-1.171h11.605v1.171h-7.62ZM414.293,128.396h-8.472v-6.003h8.472v6.003ZM413.014,123.433h-5.933v1.468h5.933v-1.468ZM413.014,125.868h-5.933v1.487h5.933v-1.487Z"/><path class="cls-3" d="M428.11,121.891c1.965,2.732,5.229,5.315,8.139,6.635-.334.316-.667.799-.909,1.189-2.874-1.505-6.118-4.107-7.842-6.486-1.52,2.268-4.523,4.907-7.694,6.598-.167-.316-.538-.799-.853-1.097,3.226-1.636,6.322-4.46,7.768-6.839h1.39ZM421.937,131.425h11.272v7.397h-1.409v-.762h-8.509v.762h-1.354v-7.397ZM432.189,127.875v1.227h-9.289v-1.227h9.289ZM423.29,132.67v4.145h8.509v-4.145h-8.509Z"/><path class="cls-3" d="M447.673,136.48c.575-.037,1.131-.13,1.576-.223,2.354-.521,4.653-2.267,4.653-5.445,0-2.788-1.761-5.074-4.875-5.334-.241,1.71-.593,3.568-1.094,5.297-1.131,3.772-2.595,5.724-4.301,5.724-1.632,0-3.282-1.896-3.282-4.925,0-3.996,3.56-7.49,8.046-7.49,4.301,0,7.045,3.048,7.045,6.765,0,3.866-2.54,6.449-6.916,7.025l-.853-1.394ZM446.468,130.458c.463-1.524.815-3.271,1.02-4.962-3.522.446-5.673,3.476-5.673,5.947,0,2.323,1.075,3.345,1.873,3.345.815,0,1.835-1.227,2.781-4.33Z"/><path class="cls-3" d="M465.717,129.733c-.148.372-.315.744-.482,1.115h9.362v7.88h-1.409v-.632h-7.75v.669h-1.353v-5.873c-.946,1.45-2.077,2.695-3.3,3.624-.204-.279-.742-.781-1.038-1.022,1.928-1.32,3.504-3.383,4.468-5.762h-3.875v-1.134h7.286v-1.282h-5.599v-1.078h5.599v-1.282h-6.415v-1.115h3.393c-.278-.501-.686-1.096-1.094-1.58l1.187-.427c.556.558,1.112,1.338,1.353,1.914l-.222.093h4.894l-.204-.074c.408-.558.982-1.413,1.261-1.97l1.446.427c-.426.576-.871,1.152-1.279,1.617h3.56v1.115h-6.489v1.282h5.655v1.078h-5.655v1.282h7.286v1.134h-10.586ZM465.438,131.908v1.115h7.75v-1.115h-7.75ZM473.188,133.896h-7.75v1.115h7.75v-1.115ZM473.188,137.038v-1.152h-7.75v1.152h7.75Z"/><path class="cls-3" d="M494.828,123.117v15.407h-1.446v-1.134h-9.196v1.208h-1.391v-15.481h12.032ZM484.187,124.474v5.018h9.196v-5.018h-9.196ZM493.382,136.034v-5.185h-9.196v5.185h9.196Z"/><path class="cls-3" d="M505.511,130.328c0,3.624-1.464,6.579-3.689,8.847l-1.112-.576c2.132-2.211,3.448-4.962,3.448-8.271s-1.316-6.059-3.448-8.271l1.112-.576c2.225,2.268,3.689,5.223,3.689,8.847Z"/><path class="cls-3" d="M53.625,120.695l-3.133-4.516-3.078,4.516h-3.448l4.802-6.616-4.561-6.394h3.412l2.985,4.219,2.929-4.219h3.244l-4.523,6.282,4.839,6.728h-3.467Z"/><path class="cls-3" d="M77.34,120.044c0,1.338-.315,1.97-1.168,2.342-.89.39-2.188.427-4.097.427-.13-.65-.575-1.71-.927-2.323,1.298.075,2.855.056,3.263.056.445,0,.593-.149.593-.539v-2.695h-7.935c-.482,2.082-1.409,4.107-3.133,5.557-.333-.464-1.224-1.282-1.706-1.598,2.8-2.397,3.059-5.947,3.059-8.772v-6.115h12.051v13.66ZM75.004,115.175v-2.268h-7.435c-.019.706-.056,1.487-.13,2.268h7.564ZM67.569,108.54v2.268h7.435v-2.268h-7.435Z"/><path class="cls-3" d="M90.693,107.685v13.01h-3.003v-10.594h-2.595v-2.416h5.599Z"/><path class="cls-3" d="M112.627,106.626v15.983h-2.373v-1.171h-8.231v1.208h-2.28v-16.021h12.885ZM102.023,108.856v3.996h8.231v-3.996h-8.231ZM110.254,119.208v-4.163h-8.231v4.163h8.231Z"/><path class="cls-3" d="M122.013,115.356c0-3.478,1.443-6.078,3.195-7.8l1.541.683c-1.622,1.755-2.903,3.998-2.903,7.118s1.281,5.363,2.903,7.118l-1.541.683c-1.752-1.723-3.195-4.323-3.195-7.8Z"/><path class="cls-3" d="M136.551,113.048c0,2.47,1.525,6.208,6.569,8.077-.438.422-1.054,1.251-1.346,1.82-3.86-1.592-5.823-4.842-6.277-6.451-.422,1.658-2.206,4.81-6.018,6.451-.26-.438-.941-1.267-1.362-1.657,4.882-1.869,6.358-5.802,6.358-8.223v-5.07h2.076v5.054ZM132.334,111.407c-.275,2.031-.746,3.965-2.141,5.119l-1.752-1.088c1.184-1.008,1.719-2.617,1.946-4.453l1.946.423ZM142.423,111.765c-.827,1.576-1.8,3.315-2.611,4.42l-1.687-.715c.778-1.219,1.67-3.071,2.173-4.501l2.125.796Z"/><path class="cls-3" d="M149.176,115.356c0,3.478-1.444,6.078-3.195,7.8l-1.541-.683c1.622-1.755,2.903-3.998,2.903-7.118s-1.281-5.363-2.903-7.118l1.541-.683c1.751,1.723,3.195,4.323,3.195,7.8Z"/><rect class="cls-2" x="1.8" y="177.3" width="898.2" height="63.9" rx="15" ry="15"/><path class="cls-3" d="M182.484,207.247h-6.989v-1.134h6.989v1.134ZM181.835,218.937h-4.301v.855h-1.205v-6.226h5.506v5.371ZM176.366,208.622h5.488v1.097h-5.488v-1.097ZM176.366,211.076h5.488v1.115h-5.488v-1.115ZM181.798,204.794h-5.339v-1.115h5.339v1.115ZM177.534,214.7v3.122h3.096v-3.122h-3.096ZM185.247,205.872c0,1.599-.408,3.55-2.373,4.851-.204-.242-.723-.725-1.001-.911,1.78-1.133,2.058-2.676,2.058-3.958v-2.23h5.785v4.535c0,.409.056.483.352.483h.927c.333,0,.408-.242.445-2.026.259.223.797.427,1.149.501-.111,2.175-.445,2.714-1.428,2.714h-1.279c-1.131,0-1.464-.354-1.464-1.673v-3.308h-3.17v1.022ZM191.476,211.317c-.63,2.286-1.724,4.088-3.133,5.482,1.205.911,2.633,1.598,4.264,2.007-.297.279-.705.836-.89,1.171-1.687-.502-3.151-1.264-4.412-2.286-1.372,1.06-2.966,1.803-4.653,2.305-.13-.334-.482-.929-.742-1.208,1.576-.409,3.078-1.078,4.375-2.044-1.094-1.134-1.965-2.491-2.596-4.052l1.224-.372c.538,1.357,1.354,2.565,2.392,3.587,1.038-.985,1.873-2.193,2.429-3.624h-7.008v-1.264h7.62l.241-.056.89.354Z"/><path class="cls-3" d="M212.115,205.965v3.624h-1.316v-2.435h-12.644v2.435h-1.279v-3.624h2.614c-.353-.651-.964-1.506-1.502-2.156l1.168-.52c.667.725,1.409,1.747,1.724,2.416l-.556.26h3.615c-.259-.725-.853-1.766-1.372-2.546l1.205-.409c.556.78,1.205,1.896,1.446,2.602l-.909.354h3.375c.667-.799,1.464-1.952,1.891-2.77l1.427.483c-.556.78-1.205,1.617-1.798,2.286h2.911ZM204.885,212.86c-.186.52-.39,1.022-.593,1.487h6.526v5.65h-1.354v-.688h-9.845v.707h-1.297v-5.668h4.653c.13-.465.296-1.004.408-1.487h-3.782v-4.293h9.771v4.293h-4.486ZM209.464,215.555h-9.845v2.527h9.845v-2.527ZM200.898,211.782h7.138v-2.137h-7.138v2.137Z"/><path class="cls-3" d="M230.881,204.311v15.407h-1.446v-1.134h-9.196v1.208h-1.391v-15.481h12.032ZM220.239,205.667v5.018h9.196v-5.018h-9.196ZM229.435,217.227v-5.185h-9.196v5.185h9.196Z"/><path class="cls-3" d="M53.625,218.137l-3.133-4.516-3.078,4.516h-3.448l4.802-6.616-4.561-6.394h3.412l2.985,4.219,2.929-4.219h3.244l-4.523,6.282,4.839,6.728h-3.467Z"/><path class="cls-3" d="M77.34,217.487c0,1.338-.315,1.97-1.168,2.342-.89.39-2.188.427-4.097.427-.13-.65-.575-1.71-.927-2.323,1.298.075,2.855.056,3.263.056.445,0,.593-.149.593-.539v-2.695h-7.935c-.482,2.082-1.409,4.107-3.133,5.557-.333-.464-1.224-1.282-1.706-1.598,2.8-2.397,3.059-5.947,3.059-8.772v-6.115h12.051v13.66ZM75.004,212.618v-2.268h-7.435c-.019.706-.056,1.487-.13,2.268h7.564ZM67.569,205.982v2.268h7.435v-2.268h-7.435Z"/><path class="cls-3" d="M95.383,215.684v2.453h-9.807v-1.952l5.006-4.739c1.149-1.096,1.353-1.765,1.353-2.397,0-1.022-.705-1.617-2.076-1.617-1.112,0-2.058.427-2.688,1.301l-2.188-1.412c1.001-1.468,2.818-2.417,5.154-2.417,2.892,0,4.82,1.487,4.82,3.847,0,1.264-.352,2.417-2.169,4.107l-2.985,2.825h5.58Z"/><path class="cls-3" d="M116.299,204.068v15.983h-2.373v-1.171h-8.231v1.208h-2.28v-16.021h12.885ZM105.694,206.298v3.996h8.231v-3.996h-8.231ZM113.926,216.65v-4.163h-8.231v4.163h8.231Z"/><path class="cls-3" d="M125.684,212.798c0-3.478,1.444-6.078,3.195-7.8l1.541.683c-1.622,1.755-2.903,3.998-2.903,7.118s1.281,5.363,2.903,7.118l-1.541.683c-1.751-1.723-3.195-4.323-3.195-7.8Z"/><path class="cls-3" d="M137.952,209.597c-.746,4.404-2.53,7.703-4.817,9.393-.341-.455-1.119-1.235-1.606-1.527,1.881-1.268,3.309-3.494,4.039-6.338h-3.52v-1.95h4.233l.357-.065,1.314.488ZM146.565,209.012c-1.298,1.381-2.92,2.909-4.233,3.933,1.151,1.95,2.676,3.526,4.671,4.469-.487.406-1.152,1.219-1.492,1.804-2.352-1.333-3.99-3.478-5.158-6.126v4.794c0,1.17-.259,1.755-.924,2.08-.698.357-1.752.439-3.228.439-.081-.618-.454-1.593-.762-2.162,1.07.049,2.092.033,2.433.033.324,0,.438-.114.438-.39v-12.659h2.044v2.86c.308,1.137.681,2.242,1.152,3.266,1.151-1.072,2.433-2.454,3.26-3.607l1.8,1.268Z"/><path class="cls-3" d="M152.848,212.798c0,3.478-1.444,6.078-3.195,7.8l-1.541-.683c1.622-1.755,2.903-3.998,2.903-7.118s-1.281-5.363-2.903-7.118l1.541-.683c1.751,1.723,3.195,4.323,3.195,7.8Z"/><rect class="cls-4" x="1.8" y="259.2" width="898.2" height="63.9" rx="15" ry="15"/><path class="cls-5" d="M177.198,285.917c-.037.353-.056.892-.056,1.338v6.207c0,.465.019,1.078.056,1.413h-1.706c.019-.279.074-.874.074-1.431v-6.188c0-.335-.037-.985-.074-1.338h1.706ZM185.782,285.788c-.037.446-.074.985-.074,1.598v3.011c0,4.46-.593,5.929-1.928,7.527-1.205,1.45-3.059,2.249-4.412,2.714l-1.205-1.283c1.706-.427,3.3-1.171,4.449-2.472,1.335-1.542,1.557-3.048,1.557-6.561v-2.937c0-.613-.055-1.152-.092-1.598h1.706Z"/><path class="cls-5" d="M197.875,287.088l1.65.334c-.13.428-.26.966-.352,1.357-.241,1.152-.89,3.903-1.669,5.817-.686,1.71-1.706,3.605-2.744,5.111l-1.576-.669c1.187-1.561,2.225-3.513,2.855-5.055.815-1.933,1.576-4.758,1.835-6.895ZM202.491,287.386l1.501-.502c.723,1.357,1.91,3.922,2.707,5.892.742,1.821,1.724,4.684,2.225,6.356l-1.65.539c-.463-1.896-1.335-4.423-2.095-6.393-.741-1.915-1.891-4.498-2.688-5.892Z"/><path class="cls-5" d="M214.082,291.828c.556.037,1.539.093,2.577.093h10.16c.927,0,1.595-.056,2.002-.093v1.821c-.371-.019-1.149-.093-1.984-.093h-10.178c-1.02,0-2.002.037-2.577.093v-1.821Z"/><path class="cls-5" d="M247.977,289.263c.816,0,1.446-.056,1.687-.093v1.561c-.185-.019-.871-.056-1.687-.056h-2.039v.65c0,4.962-1.057,7.508-5.303,9.404l-1.242-1.171c3.374-1.301,5.061-2.899,5.061-8.103v-.781h-5.284v3.011c0,.688.056,1.505.074,1.691h-1.631c.019-.186.074-.985.074-1.691v-3.011h-1.983c-.816,0-1.65.056-1.873.074v-1.617c.167.037,1.075.13,1.873.13h1.983v-2.379c0-.595-.055-1.171-.074-1.356h1.65c-.019.186-.093.706-.093,1.356v2.379h5.284v-2.323c0-.725-.056-1.338-.093-1.524h1.668c-.019.186-.092.799-.092,1.524v2.323h2.039Z"/><path class="cls-5" d="M254.21,299.392c1.557-1.115,2.669-2.769,3.226-4.572.538-1.71.556-5.408.556-7.471,0-.558-.056-.966-.13-1.357h1.706c-.019.223-.093.781-.093,1.338,0,2.063-.074,6.04-.575,7.898-.556,1.989-1.743,3.81-3.3,5.093l-1.391-.93ZM262.702,299.485c.074-.297.129-.669.129-1.041v-11.132c0-.707-.092-1.227-.111-1.375h1.706c-.019.149-.074.669-.074,1.375v10.724c1.706-.781,3.986-2.472,5.395-4.572l.89,1.264c-1.594,2.174-4.171,4.07-6.322,5.148-.278.148-.445.279-.63.427l-.982-.817Z"/><path class="cls-5" d="M53.625,299.428l-3.133-4.516-3.078,4.516h-3.448l4.802-6.616-4.561-6.394h3.412l2.985,4.219,2.929-4.219h3.244l-4.523,6.282,4.839,6.728h-3.467Z"/><path class="cls-5" d="M77.34,298.777c0,1.338-.315,1.97-1.168,2.342-.89.39-2.188.427-4.097.427-.13-.65-.575-1.709-.927-2.323,1.298.075,2.855.056,3.263.056.445,0,.593-.149.593-.539v-2.695h-7.935c-.482,2.082-1.409,4.107-3.133,5.557-.333-.464-1.224-1.282-1.706-1.598,2.8-2.397,3.059-5.947,3.059-8.772v-6.115h12.051v13.66ZM75.004,293.908v-2.268h-7.435c-.019.706-.056,1.487-.13,2.268h7.564ZM67.569,287.273v2.268h7.435v-2.268h-7.435Z"/><path class="cls-5" d="M95.272,295.451c0,2.193-1.688,4.2-5.376,4.2-1.817,0-3.689-.502-4.95-1.394l1.168-2.305c.982.744,2.354,1.171,3.708,1.171,1.501,0,2.429-.613,2.429-1.672,0-.985-.723-1.599-2.429-1.599h-1.372v-1.988l2.67-3.03h-5.525v-2.416h9.084v1.952l-2.929,3.345c2.336.372,3.522,1.821,3.522,3.736Z"/><path class="cls-5" d="M116.336,285.359v15.983h-2.373v-1.171h-8.231v1.208h-2.28v-16.021h12.885ZM105.731,287.589v3.996h8.231v-3.996h-8.231ZM113.963,297.941v-4.163h-8.231v4.163h8.231Z"/><path class="cls-5" d="M125.721,294.089c0-3.478,1.444-6.078,3.195-7.8l1.541.683c-1.622,1.755-2.903,3.998-2.903,7.118s1.281,5.363,2.903,7.118l-1.541.683c-1.751-1.723-3.195-4.323-3.195-7.8Z"/><path class="cls-5" d="M141.12,292.188c1.346,2.486,3.617,4.908,6.001,6.208-.471.39-1.136,1.154-1.444,1.69-2.043-1.316-3.909-3.396-5.336-5.736v7.329h-2.06v-7.248c-1.411,2.356-3.277,4.42-5.353,5.72-.324-.504-.989-1.251-1.443-1.658,2.4-1.3,4.623-3.754,5.953-6.305h-5.207v-1.917h6.05v-3.77h2.06v3.77h6.083v1.917h-5.304Z"/><path class="cls-5" d="M152.885,294.089c0,3.478-1.444,6.078-3.195,7.8l-1.541-.683c1.622-1.755,2.903-3.998,2.903-7.118s-1.281-5.363-2.903-7.118l1.541-.683c1.751,1.723,3.195,4.323,3.195,7.8Z"/><rect class="cls-4" x="1.8" y="340.2" width="898.2" height="63.9" rx="15" ry="15"/><path class="cls-5" d="M185.69,370.887c1.539,3.178,4.208,6.133,7.119,7.546-.334.279-.816.818-1.02,1.208-2.799-1.542-5.284-4.368-6.952-7.583v5.687h3.522v1.375h-3.522v3.457h-1.427v-3.457h-3.615v-1.375h3.615v-5.687c-1.706,3.215-4.208,6.022-6.934,7.602-.204-.334-.667-.855-.982-1.115,2.818-1.468,5.506-4.479,7.063-7.657h-6.433v-1.375h7.286v-3.884h1.427v3.884h7.342v1.375h-6.489Z"/><path class="cls-5" d="M206.626,371.947c1.668,1.45,4.227,2.732,6.526,3.364-.334.279-.723.799-.927,1.171-.556-.186-1.131-.409-1.706-.669v6.709h-1.372v-.558h-9.029v.632h-1.316v-6.821c-.667.334-1.335.613-1.965.855-.167-.334-.556-.818-.871-1.097,2.206-.688,4.728-2.063,6.396-3.587h-5.914v-1.189h4.004c-.278-.688-.797-1.598-1.316-2.286l1.113-.446c-.853.056-1.688.093-2.484.111-.037-.297-.148-.78-.297-1.059,4.394-.167,9.678-.613,12.57-1.227l.927,1.022c-1.595.334-3.634.595-5.822.799v3.085h2.54l-.538-.205c.538-.762,1.187-2.007,1.52-2.862l1.483.409c-.556.929-1.187,1.933-1.706,2.658h4.208v1.189h-6.025ZM209.833,375.478c-1.761-.892-3.467-2.082-4.69-3.382v3.029h-1.334v-2.955c-1.187,1.245-2.8,2.397-4.45,3.308h10.475ZM203.845,376.575h-3.727v1.598h3.727v-1.598ZM200.119,380.868h3.727v-1.71h-3.727v1.71ZM203.808,367.802c-1.149.093-2.336.167-3.486.223.612.743,1.205,1.747,1.446,2.453l-.686.279h2.726v-2.955ZM209.147,376.575h-4.005v1.598h4.005v-1.598ZM209.147,380.868v-1.71h-4.005v1.71h4.005Z"/><path class="cls-5" d="M224.928,372.133c1.094,0,1.965.874,1.965,1.97s-.871,1.97-1.965,1.97-1.965-.874-1.965-1.97.871-1.97,1.965-1.97Z"/><path class="cls-5" d="M242.082,374.642l-1.817.632v5.78c0,.706-.167,1.078-.593,1.301-.426.186-1.131.223-2.225.223-.056-.316-.223-.855-.39-1.208.779.019,1.465.019,1.687,0,.223,0,.315-.075.315-.316v-5.353c-.742.26-1.446.501-2.077.706l-.333-1.319c.667-.205,1.501-.465,2.41-.762v-3.717h-2.169v-1.264h2.169v-3.717h1.205v3.717h1.539v1.264h-1.539v3.309l1.613-.539.204,1.264ZM253.02,370.367c-.296,2.974-.778,5.501-1.631,7.62.63,1.413,1.483,2.676,2.651,3.568-.241.223-.649.725-.834,1.041-1.02-.874-1.817-2.007-2.429-3.29-.686,1.282-1.539,2.397-2.614,3.327-.148-.223-.538-.688-.797-.911-.056.297-.204.521-.482.65-.371.205-.964.205-1.835.205-.037-.297-.186-.799-.353-1.115h1.298c.186,0,.241-.056.241-.223v-1.821h-2.633v3.141h-1.168v-9.07h4.969v7.75c0,.149,0,.279-.019.409,1.224-1.004,2.113-2.249,2.781-3.773-.593-1.617-.982-3.364-1.224-5-.222.558-.463,1.078-.741,1.542-.148-.242-.593-.762-.853-1.003.167-.297.333-.595.482-.929l-.63.297c-.074-.205-.167-.446-.296-.707-1.854.186-3.708.316-5.154.428l-.204-1.152,1.205-.074c.296-.725.612-1.673.815-2.454h-2.039v-1.133h2.799v-2.063h1.261v2.063h2.559v1.133h-3.3c-.296.781-.63,1.654-.945,2.398.778-.056,1.631-.112,2.503-.167-.241-.427-.501-.874-.76-1.245l.927-.409c.556.781,1.131,1.784,1.483,2.546.686-1.784,1.075-4.033,1.316-6.337l1.205.167c-.148,1.152-.315,2.286-.538,3.364h3.819v1.227h-.834ZM243.602,374.549v1.431h2.633v-1.431h-2.633ZM246.235,378.415v-1.468h-2.633v1.468h2.633ZM249.757,370.367c-.037.13-.074.26-.111.39.186,1.766.5,3.736,1.094,5.576.556-1.729.89-3.736,1.094-5.966h-2.076Z"/><path class="cls-5" d="M265.039,374.642c-.797,1.803-1.817,3.94-2.744,5.576,2.577-.112,5.525-.242,8.398-.39-.742-1.078-1.594-2.156-2.392-3.067l1.261-.613c1.65,1.803,3.448,4.237,4.283,5.854l-1.354.725c-.223-.464-.538-1.003-.89-1.58-4.82.279-9.9.502-13.255.669l-.204-1.45c.779-.019,1.65-.056,2.596-.093.89-1.598,1.91-3.866,2.558-5.631h-5.803v-1.356h7.472v-3.513h-6.044v-1.357h6.044v-2.806h1.427v2.806h6.267v1.357h-6.267v3.513h7.638v1.356h-8.991Z"/><path class="cls-5" d="M53.625,380.719l-3.133-4.516-3.078,4.516h-3.448l4.802-6.616-4.561-6.394h3.412l2.985,4.219,2.929-4.219h3.244l-4.523,6.282,4.839,6.728h-3.467Z"/><path class="cls-5" d="M77.34,380.068c0,1.338-.315,1.97-1.168,2.342-.89.39-2.188.427-4.097.427-.13-.65-.575-1.709-.927-2.323,1.298.075,2.855.056,3.263.056.445,0,.593-.149.593-.539v-2.695h-7.935c-.482,2.082-1.409,4.107-3.133,5.557-.333-.464-1.224-1.282-1.706-1.598,2.8-2.397,3.059-5.947,3.059-8.772v-6.115h12.051v13.66ZM75.004,375.199v-2.268h-7.435c-.019.706-.056,1.487-.13,2.268h7.564ZM67.569,368.564v2.268h7.435v-2.268h-7.435Z"/><path class="cls-5" d="M97.571,377.987h-2.114v2.732h-2.929v-2.732h-6.989v-2.026l6.118-8.252h3.151l-5.673,7.825h3.485v-2.435h2.836v2.435h2.114v2.453Z"/><path class="cls-5" d="M118.135,366.65v15.983h-2.373v-1.171h-8.231v1.208h-2.28v-16.021h12.885ZM107.53,368.88v3.996h8.231v-3.996h-8.231ZM115.762,379.232v-4.163h-8.231v4.163h8.231Z"/><path class="cls-5" d="M127.52,375.38c0-3.478,1.444-6.078,3.195-7.8l1.541.683c-1.622,1.755-2.903,3.998-2.903,7.118s1.281,5.363,2.903,7.118l-1.541.683c-1.751-1.723-3.195-4.323-3.195-7.8Z"/><path class="cls-5" d="M146.13,378.272c-.616.894-1.249,1.885-1.816,2.568h3.666v1.657h-13.722v-1.657h3.163c-.244-.731-.779-1.82-1.346-2.617l1.476-.634h-2.481v-1.657h4.931v-1.609h-2.985v-.796c-.762.553-1.589,1.073-2.417,1.511-.244-.455-.779-1.154-1.201-1.56,2.758-1.349,5.353-3.786,6.553-5.736h1.995c1.751,2.454,4.363,4.501,6.926,5.542-.486.487-.924,1.138-1.281,1.739-.811-.422-1.654-.959-2.465-1.544v.845h-3.098v1.609h4.996v1.657h-4.996v3.25h1.768l-1.055-.439c.536-.764,1.184-1.95,1.541-2.812l1.849.683ZM137.647,377.59c.616.829,1.249,1.934,1.492,2.682l-1.33.569h2.19v-3.25h-2.352ZM144.021,372.634c-1.2-.975-2.271-2.032-2.984-3.006-.698.975-1.703,2.031-2.871,3.006h5.855Z"/><path class="cls-5" d="M154.684,375.38c0,3.478-1.444,6.078-3.195,7.8l-1.541-.683c1.622-1.755,2.903-3.998,2.903-7.118s-1.281-5.363-2.903-7.118l1.541-.683c1.751,1.723,3.195,4.323,3.195,7.8Z"/><circle class="cls-4" cx="29.25" cy="29.25" r="29.25"/><path class="cls-5" d="M33.675,35.417v-16.185h-4.942c-.206,1.032-.412,2.123-.647,3.184h2.618l.559-.118,2.03.619c-1.059,9.522-4.148,16.185-8.649,19.486-.441-.796-1.53-2.152-2.177-2.683,2.148-1.474,3.854-3.656,5.148-6.515-.618-.737-1.647-1.681-2.56-2.417-.5.914-1.059,1.739-1.706,2.476-.441-.678-1.324-1.739-1.941-2.358v11.468h-3.207v-14.77c-.588.885-1.206,1.71-1.824,2.417-.265-.825-1.118-2.859-1.677-3.773,2.383-2.742,4.531-7.046,5.825-11.35l3.236.973-.088.295h10.208v2.093h2.883v17.158h-3.089ZM21.407,30.701c2.235-2.83,3.412-7.429,4.001-11.468h-1.942v-2.506c-.588,1.71-1.294,3.419-2.059,5.1v8.874ZM27.291,25.453c-.294.884-.589,1.739-.912,2.565.824.589,1.765,1.297,2.441,1.945.412-1.385.736-2.889,1-4.51h-2.53ZM41.853,15.43v22.995c0,1.857-.324,2.771-1.412,3.331-1.059.56-2.707.678-5.031.678-.117-.943-.588-2.477-1.059-3.449,1.588.088,3.089.088,3.618.059.471-.03.647-.147.647-.648V15.43h3.236Z"/><rect class="cls-2" x="1.8" y="421.2" width="898.2" height="63.9" rx="15" ry="15"/><path class="cls-3" d="M181.889,447.457c-.556,1.356-1.242,2.713-2.021,3.977v12.415h-1.354v-10.426c-.686.911-1.427,1.747-2.188,2.453-.13-.334-.575-1.06-.834-1.394,2.04-1.766,3.931-4.535,5.024-7.453l1.372.428ZM188.1,452.958c1.187,2.955,3.115,5.91,5.042,7.471-.333.26-.815.744-1.038,1.115-1.798-1.673-3.56-4.498-4.802-7.471v9.813h-1.353v-9.423c-1.242,2.899-3.003,5.557-4.82,7.155-.26-.316-.723-.818-1.039-1.059,2.002-1.58,3.968-4.572,5.136-7.602h-4.487v-1.338h5.21v-4.46h1.353v4.46h5.358v1.338h-4.561Z"/><path class="cls-3" d="M206.644,459.463c1.687,1.338,4.246,2.435,6.619,2.937-.315.297-.742.836-.927,1.227-2.484-.706-5.191-2.1-6.971-3.81v4.052h-1.353v-3.959c-1.78,1.617-4.487,2.955-6.916,3.662-.185-.353-.593-.874-.89-1.171,2.299-.521,4.875-1.636,6.544-2.937h-6.062v-1.171h7.323v-1.375h-5.581v-1.059h5.581v-1.357h-6.507v-1.134h4.042c-.167-.557-.538-1.301-.909-1.858l.649-.13h-4.523v-1.189h2.948c-.26-.744-.909-1.859-1.465-2.695l1.168-.391c.63.836,1.298,1.989,1.576,2.732l-.946.353h2.28v-3.29h1.279v3.29h2.207v-3.29h1.297v3.29h2.244l-.686-.223c.482-.781,1.075-1.989,1.409-2.825l1.409.372c-.519.948-1.112,1.97-1.631,2.676h2.874v1.189h-3.708c-.371.706-.779,1.431-1.149,1.988h4.208v1.134h-6.711v1.357h5.803v1.059h-5.803v1.375h7.435v1.171h-6.155ZM202.028,451.378c.408.576.779,1.356.927,1.858l-.593.13h4.357l-.186-.056c.315-.539.686-1.301.946-1.933h-5.451Z"/><path class="cls-3" d="M231.213,448.182v15.407h-1.446v-1.134h-9.196v1.208h-1.391v-15.481h12.032ZM220.571,449.539v5.018h9.196v-5.018h-9.196ZM229.767,461.098v-5.185h-9.196v5.185h9.196Z"/><path class="cls-3" d="M53.625,462.009l-3.133-4.516-3.078,4.516h-3.448l4.802-6.616-4.561-6.394h3.412l2.985,4.219,2.929-4.219h3.244l-4.523,6.282,4.839,6.728h-3.467Z"/><path class="cls-3" d="M77.34,461.358c0,1.338-.315,1.97-1.168,2.342-.89.39-2.188.427-4.097.427-.13-.65-.575-1.709-.927-2.323,1.298.075,2.855.056,3.263.056.445,0,.593-.149.593-.539v-2.695h-7.935c-.482,2.082-1.409,4.107-3.133,5.557-.333-.464-1.224-1.282-1.706-1.598,2.8-2.397,3.059-5.947,3.059-8.772v-6.115h12.051v13.66ZM75.004,456.489v-2.268h-7.435c-.019.706-.056,1.487-.13,2.268h7.564ZM67.569,449.854v2.268h7.435v-2.268h-7.435Z"/><path class="cls-3" d="M95.495,457.92c0,2.305-1.687,4.312-5.395,4.312-1.798,0-3.689-.502-4.95-1.394l1.187-2.305c.982.744,2.336,1.171,3.689,1.171,1.502,0,2.429-.632,2.429-1.691,0-1.022-.667-1.691-3.022-1.691h-3.318l.667-7.323h7.917v2.416h-5.414l-.204,2.472h1.057c3.838,0,5.358,1.728,5.358,4.033Z"/><path class="cls-3" d="M116.392,447.94v15.983h-2.373v-1.171h-8.231v1.208h-2.28v-16.021h12.885ZM105.787,450.17v3.996h8.231v-3.996h-8.231ZM114.019,460.522v-4.163h-8.231v4.163h8.231Z"/><path class="cls-3" d="M125.777,456.67c0-3.478,1.444-6.078,3.195-7.8l1.541.683c-1.622,1.755-2.903,3.998-2.903,7.118s1.281,5.363,2.903,7.118l-1.541.683c-1.751-1.723-3.195-4.323-3.195-7.8Z"/><path class="cls-4" d="M146.739,461.675v1.901h-14.695v-1.901h6.261v-5.655h-5.207v-1.917h5.207v-4.989h2.076v4.989h5.288v1.917h-5.288v5.655h6.358Z"/><path class="cls-3" d="M152.94,456.67c0,3.478-1.444,6.078-3.195,7.8l-1.541-.683c1.622-1.755,2.903-3.998,2.903-7.118s-1.281-5.363-2.903-7.118l1.541-.683c1.751,1.723,3.195,4.323,3.195,7.8Z"/><rect class="cls-2" x="1.8" y="503.1" width="898.2" height="63.9" rx="15" ry="15"/><path class="cls-3" d="M181.889,528.747c-.556,1.356-1.242,2.713-2.021,3.977v12.415h-1.354v-10.426c-.686.911-1.427,1.747-2.188,2.453-.13-.334-.575-1.06-.834-1.394,2.04-1.766,3.931-4.535,5.024-7.453l1.372.428ZM188.1,534.248c1.187,2.955,3.115,5.91,5.042,7.471-.333.26-.815.744-1.038,1.115-1.798-1.673-3.56-4.498-4.802-7.471v9.813h-1.353v-9.423c-1.242,2.899-3.003,5.557-4.82,7.155-.26-.316-.723-.818-1.039-1.059,2.002-1.58,3.968-4.572,5.136-7.602h-4.487v-1.338h5.21v-4.46h1.353v4.46h5.358v1.338h-4.561Z"/><path class="cls-3" d="M206.644,540.753c1.687,1.338,4.246,2.435,6.619,2.937-.315.297-.742.836-.927,1.227-2.484-.706-5.191-2.1-6.971-3.81v4.052h-1.353v-3.959c-1.78,1.617-4.487,2.955-6.916,3.662-.185-.353-.593-.874-.89-1.171,2.299-.521,4.875-1.636,6.544-2.937h-6.062v-1.171h7.323v-1.375h-5.581v-1.059h5.581v-1.357h-6.507v-1.134h4.042c-.167-.557-.538-1.301-.909-1.858l.649-.13h-4.523v-1.189h2.948c-.26-.744-.909-1.859-1.465-2.695l1.168-.391c.63.836,1.298,1.989,1.576,2.732l-.946.353h2.28v-3.29h1.279v3.29h2.207v-3.29h1.297v3.29h2.244l-.686-.223c.482-.781,1.075-1.989,1.409-2.825l1.409.372c-.519.948-1.112,1.97-1.631,2.676h2.874v1.189h-3.708c-.371.706-.779,1.431-1.149,1.988h4.208v1.134h-6.711v1.357h5.803v1.059h-5.803v1.375h7.435v1.171h-6.155ZM202.028,532.668c.408.576.779,1.356.927,1.858l-.593.13h4.357l-.186-.056c.315-.539.686-1.301.946-1.933h-5.451Z"/><path class="cls-3" d="M231.213,529.472v15.407h-1.446v-1.134h-9.196v1.208h-1.391v-15.481h12.032ZM220.571,530.829v5.018h9.196v-5.018h-9.196ZM229.767,542.388v-5.185h-9.196v5.185h9.196Z"/><path class="cls-3" d="M53.625,543.299l-3.133-4.516-3.078,4.516h-3.448l4.802-6.616-4.561-6.394h3.412l2.985,4.219,2.929-4.219h3.244l-4.523,6.282,4.839,6.728h-3.467Z"/><path class="cls-3" d="M77.34,542.648c0,1.338-.315,1.97-1.168,2.342-.89.39-2.188.427-4.097.427-.13-.65-.575-1.709-.927-2.323,1.298.075,2.855.056,3.263.056.445,0,.593-.149.593-.539v-2.695h-7.935c-.482,2.082-1.409,4.107-3.133,5.557-.333-.464-1.224-1.282-1.706-1.598,2.8-2.397,3.059-5.947,3.059-8.772v-6.115h12.051v13.66ZM75.004,537.779v-2.268h-7.435c-.019.706-.056,1.487-.13,2.268h7.564ZM67.569,531.144v2.268h7.435v-2.268h-7.435Z"/><path class="cls-3" d="M96.403,539.191c0,2.658-2.169,4.331-4.913,4.331-3.578,0-5.803-2.249-5.803-6.449,0-4.498,2.707-7.006,6.619-7.006,1.372,0,2.707.316,3.615.892l-1.113,2.212c-.723-.483-1.557-.65-2.429-.65-2.169,0-3.56,1.282-3.652,3.772.76-.762,1.854-1.152,3.207-1.152,2.503,0,4.468,1.598,4.468,4.051ZM93.493,539.34c0-1.189-.872-1.952-2.207-1.952-1.316,0-2.243.818-2.243,1.952,0,1.115.834,1.933,2.28,1.933,1.279,0,2.169-.743,2.169-1.933Z"/><path class="cls-3" d="M117.17,529.23v15.983h-2.373v-1.171h-8.231v1.208h-2.28v-16.021h12.885ZM106.566,531.46v3.996h8.231v-3.996h-8.231ZM114.797,541.812v-4.163h-8.231v4.163h8.231Z"/><path class="cls-3" d="M126.556,537.96c0-3.478,1.443-6.078,3.195-7.8l1.541.683c-1.622,1.755-2.903,3.998-2.903,7.118s1.281,5.363,2.903,7.118l-1.541.683c-1.752-1.723-3.195-4.323-3.195-7.8Z"/><path class="cls-4" d="M145.814,531.346v13.976h-2.076v-1.024h-7.202v1.056h-1.995v-14.008h11.273ZM136.537,533.296v3.494h7.202v-3.494h-7.202ZM143.738,542.348v-3.64h-7.202v3.64h7.202Z"/><path class="cls-3" d="M153.719,537.96c0,3.478-1.444,6.078-3.195,7.8l-1.541-.683c1.622-1.755,2.903-3.998,2.903-7.118s-1.281-5.363-2.903-7.118l1.541-.683c1.751,1.723,3.195,4.323,3.195,7.8Z"/><rect class="cls-2" x="1.8" y="584.1" width="898.2" height="63.9" rx="15" ry="15"/><path class="cls-3" d="M179.462,622.694c.909,1.375,2.559,1.989,4.783,2.082,2.021.074,6.174.019,8.361-.13-.167.334-.389.985-.463,1.412-2.021.075-5.858.112-7.898.038-2.466-.093-4.19-.744-5.376-2.193-.834.781-1.706,1.58-2.632,2.379l-.742-1.375c.834-.576,1.78-1.375,2.632-2.138v-4.702h-2.354v-1.301h3.689v5.929ZM178.925,613.792c-.575-.911-1.835-2.193-2.985-3.048l1.02-.818c1.149.836,2.447,2.063,3.022,2.974l-1.057.892ZM183.245,615.52c-.056,2.49-.482,5.631-2.169,7.843-.204-.241-.797-.65-1.112-.762,1.798-2.323,1.965-5.539,1.965-7.936v-4.256h9.937v1.282h-8.602v2.602h6.878l.26-.056.871.297c-.593,2.453-1.668,4.423-3.059,5.947,1.187,1.041,2.633,1.84,4.32,2.304-.315.279-.705.799-.89,1.189-1.724-.557-3.17-1.431-4.375-2.546-1.187,1.041-2.54,1.84-3.967,2.379-.167-.334-.519-.874-.779-1.152,1.354-.446,2.67-1.189,3.801-2.211-1.149-1.357-2.021-3.011-2.651-4.925h-.426ZM184.969,615.52c.538,1.524,1.298,2.881,2.299,4.014,1.001-1.115,1.798-2.453,2.336-4.014h-4.635Z"/><path class="cls-3" d="M202.752,619.888c1.02,1.58,2.114,3.643,2.503,4.98l-1.224.502c-.13-.409-.296-.892-.519-1.413-2.633.279-5.358.539-7.323.744l-.204-1.357c.408-.019.871-.056,1.372-.093.612-1.45,1.316-3.55,1.761-5.204h-3.114v-1.301h3.967v-3.066h-3.226v-1.245h3.226v-2.955h1.316v2.955h3.133v1.245h-3.133v3.066h3.763v1.301h-4.394c-.556,1.617-1.279,3.587-1.91,5.074,1.298-.112,2.744-.242,4.19-.372-.389-.836-.853-1.672-1.316-2.397l1.131-.464ZM212.152,621.449c0,.762-.148,1.189-.686,1.45-.501.26-1.354.279-2.596.279-.056-.409-.278-1.041-.463-1.45.964.037,1.798.037,2.076.019.241,0,.315-.056.315-.316v-9.534h-3.745v14.552h-1.316v-15.854h6.415v10.854Z"/><path class="cls-3" d="M230.974,610.762v15.407h-1.446v-1.134h-9.196v1.208h-1.391v-15.481h12.032ZM220.332,612.119v5.018h9.196v-5.018h-9.196ZM229.528,623.679v-5.185h-9.196v5.185h9.196Z"/><path class="cls-3" d="M248.887,617.973c0-3.624,1.465-6.579,3.689-8.846l1.112.576c-2.132,2.212-3.448,4.962-3.448,8.271s1.316,6.059,3.448,8.271l-1.112.576c-2.225-2.268-3.689-5.223-3.689-8.847Z"/><path class="cls-3" d="M261.221,619.646c-.223.725-.371,1.394-.371,2.082,0,1.394,1.409,2.36,4.338,2.36,2.54,0,4.895-.279,6.285-.707l.019,1.58c-1.316.372-3.652.65-6.267.65-3.727,0-5.896-1.245-5.896-3.55,0-.966.204-1.821.389-2.565l1.502.149ZM260.46,612.212c1.335.167,3.022.242,4.857.242,1.761,0,3.634-.13,4.95-.26v1.524c-1.242.093-3.245.223-4.95.223-1.835,0-3.393-.075-4.857-.205v-1.524ZM272.363,612.676l-1.001.465c-.371-.762-1.001-1.896-1.521-2.602l1.001-.409c.463.65,1.131,1.803,1.52,2.546ZM274.458,611.915l-1.02.446c-.389-.799-1.001-1.858-1.539-2.564l.982-.428c.5.688,1.205,1.859,1.576,2.546Z"/><path class="cls-3" d="M287.718,618.996c1.687,2.267,4.431,4.479,6.934,5.557-.297.279-.742.799-.964,1.171-2.466-1.227-5.117-3.55-6.916-6.003v6.728h-1.427v-6.691c-1.798,2.454-4.431,4.684-6.86,5.892-.222-.334-.667-.855-.964-1.134,2.484-1.078,5.209-3.252,6.896-5.52h-6.507v-1.32h7.435v-4.627h-6.563v-1.32h6.563v-2.23h1.427v2.23h6.711v1.32h-6.711v4.627h7.49v1.32h-6.544ZM281.489,613.476c.742,1.078,1.502,2.509,1.761,3.476l-1.298.502c-.241-.93-.945-2.435-1.668-3.513l1.205-.465ZM288.923,617.1c.63-1.003,1.427-2.583,1.872-3.698l1.409.446c-.649,1.264-1.464,2.732-2.132,3.643l-1.149-.391Z"/><path class="cls-3" d="M304.89,621.114c-.482-.539-1.501-1.58-2.336-2.36v7.694h-1.354v-7.192c-.927.911-1.891,1.691-2.836,2.304-.148-.353-.5-.985-.723-1.245,2.207-1.282,4.524-3.624,5.803-6.096h-5.154v-1.264h2.911v-3.457h1.354v3.457h1.613l.241-.056.779.521c-.575,1.431-1.428,2.806-2.392,4.052.853.688,2.484,2.119,2.948,2.527l-.853,1.115ZM315.105,624.571v1.357h-10.382v-1.357h4.69v-7.712h-3.967v-1.338h3.967v-5.892h1.372v5.892h3.949v1.338h-3.949v7.712h4.32Z"/><path class="cls-3" d="M326.604,624.125c.575-.037,1.131-.13,1.576-.223,2.354-.521,4.653-2.267,4.653-5.445,0-2.788-1.761-5.074-4.875-5.334-.241,1.71-.593,3.568-1.094,5.297-1.131,3.772-2.595,5.724-4.301,5.724-1.632,0-3.282-1.896-3.282-4.925,0-3.996,3.56-7.49,8.046-7.49,4.301,0,7.045,3.048,7.045,6.765,0,3.866-2.54,6.449-6.916,7.025l-.853-1.394ZM325.399,618.104c.463-1.524.815-3.271,1.02-4.962-3.522.446-5.673,3.476-5.673,5.947,0,2.323,1.075,3.345,1.873,3.345.815,0,1.835-1.227,2.781-4.33Z"/><path class="cls-3" d="M344.666,620.389c-1.873.948-3.894,1.933-5.451,2.676l-.538-1.356c.705-.297,1.576-.669,2.521-1.097v-5.817h-2.169v-1.301h2.169v-3.866h1.279v3.866h2.002v1.301h-2.002v5.222l1.891-.855.297,1.227ZM348.114,618.252c-.241.446-.5.892-.797,1.301h7.972s-.019.372-.056.557c-.278,3.829-.575,5.278-1.094,5.817-.278.316-.612.409-1.038.465-.408.019-1.094.019-1.835-.019,0-.335-.13-.836-.315-1.115.686.056,1.298.074,1.576.074.26,0,.427-.019.557-.205.315-.334.593-1.505.834-4.423h-1.446c-.742,2.212-2.188,4.609-3.782,5.817-.223-.279-.649-.595-.982-.799,1.501-1.003,2.855-3.011,3.615-5.018h-1.798c-.983,1.915-2.8,3.94-4.505,5.018-.204-.297-.575-.632-.908-.855,1.539-.836,3.17-2.509,4.171-4.163h-1.873c-.742.836-1.576,1.562-2.41,2.119-.186-.223-.667-.669-.946-.855,1.465-.874,2.8-2.193,3.671-3.717h-2.595v-1.171h11.605v1.171h-7.62ZM354.417,616.041h-8.472v-6.003h8.472v6.003ZM353.138,611.078h-5.933v1.468h5.933v-1.468ZM353.138,613.513h-5.933v1.487h5.933v-1.487Z"/><path class="cls-3" d="M368.233,609.536c1.965,2.732,5.229,5.315,8.139,6.635-.334.316-.667.799-.909,1.189-2.874-1.505-6.118-4.107-7.842-6.486-1.52,2.268-4.523,4.907-7.694,6.598-.167-.316-.538-.799-.853-1.097,3.226-1.636,6.322-4.46,7.768-6.839h1.39ZM362.06,619.07h11.272v7.397h-1.409v-.762h-8.509v.762h-1.354v-7.397ZM372.312,615.52v1.227h-9.289v-1.227h9.289ZM363.414,620.315v4.145h8.509v-4.145h-8.509Z"/><path class="cls-3" d="M384.441,617.973c0,3.624-1.464,6.579-3.689,8.847l-1.112-.576c2.132-2.211,3.448-4.962,3.448-8.271s-1.316-6.059-3.448-8.271l1.112-.576c2.225,2.267,3.689,5.222,3.689,8.846Z"/><path class="cls-3" d="M53.625,624.589l-3.133-4.516-3.078,4.516h-3.448l4.802-6.616-4.561-6.394h3.412l2.985,4.219,2.929-4.219h3.244l-4.523,6.282,4.839,6.728h-3.467Z"/><path class="cls-3" d="M77.34,623.939c0,1.338-.315,1.97-1.168,2.342-.89.39-2.188.427-4.097.427-.13-.65-.575-1.71-.927-2.323,1.298.075,2.855.056,3.263.056.445,0,.593-.149.593-.539v-2.695h-7.935c-.482,2.082-1.409,4.107-3.133,5.557-.333-.464-1.224-1.282-1.706-1.598,2.8-2.397,3.059-5.947,3.059-8.772v-6.115h12.051v13.66ZM75.004,619.07v-2.268h-7.435c-.019.706-.056,1.487-.13,2.268h7.564ZM67.569,612.435v2.268h7.435v-2.268h-7.435Z"/><path class="cls-3" d="M95.847,611.58v1.952l-4.82,11.058h-3.263l4.653-10.556h-4.301v2.119h-2.67v-4.572h10.401Z"/><path class="cls-3" d="M116.855,610.521v15.983h-2.373v-1.171h-8.231v1.208h-2.28v-16.021h12.885ZM106.251,612.75v3.996h8.231v-3.996h-8.231ZM114.482,623.103v-4.163h-8.231v4.163h8.231Z"/><path class="cls-3" d="M126.241,619.25c0-3.478,1.444-6.078,3.195-7.8l1.541.683c-1.622,1.755-2.903,3.998-2.903,7.118s1.281,5.363,2.903,7.118l-1.541.683c-1.751-1.723-3.195-4.323-3.195-7.8Z"/><path class="cls-3" d="M145.321,624.37c0,1.17-.276,1.723-1.022,2.047-.779.341-1.914.374-3.585.374-.113-.569-.502-1.495-.811-2.032,1.136.065,2.498.049,2.855.049.389,0,.519-.13.519-.471v-2.356h-6.942c-.421,1.82-1.232,3.592-2.741,4.859-.292-.406-1.07-1.121-1.492-1.397,2.449-2.096,2.676-5.2,2.676-7.67v-5.347h10.543v11.944ZM143.277,620.112v-1.982h-6.504c-.016.617-.048,1.3-.113,1.982h6.618ZM136.773,614.311v1.982h6.504v-1.982h-6.504Z"/><path class="cls-3" d="M153.404,619.25c0,3.478-1.444,6.078-3.195,7.8l-1.541-.683c1.622-1.755,2.903-3.998,2.903-7.118s-1.281-5.363-2.903-7.118l1.541-.683c1.751,1.723,3.195,4.323,3.195,7.8Z"/><rect class="cls-2" x="1.8" y="665.1" width="898.2" height="63.9" rx="15" ry="15"/><path class="cls-3" d="M179.462,703.985c.909,1.375,2.559,1.989,4.783,2.082,2.021.074,6.174.019,8.361-.13-.167.334-.389.985-.463,1.412-2.021.075-5.858.112-7.898.038-2.466-.093-4.19-.744-5.376-2.193-.834.781-1.706,1.58-2.632,2.379l-.742-1.375c.834-.576,1.78-1.375,2.632-2.138v-4.702h-2.354v-1.301h3.689v5.929ZM178.925,695.083c-.575-.911-1.835-2.193-2.985-3.048l1.02-.818c1.149.836,2.447,2.063,3.022,2.974l-1.057.892ZM183.245,696.811c-.056,2.49-.482,5.631-2.169,7.843-.204-.241-.797-.65-1.112-.762,1.798-2.323,1.965-5.539,1.965-7.936v-4.256h9.937v1.282h-8.602v2.602h6.878l.26-.056.871.297c-.593,2.453-1.668,4.423-3.059,5.947,1.187,1.041,2.633,1.84,4.32,2.304-.315.279-.705.799-.89,1.189-1.724-.557-3.17-1.431-4.375-2.546-1.187,1.041-2.54,1.84-3.967,2.379-.167-.334-.519-.874-.779-1.152,1.354-.446,2.67-1.189,3.801-2.211-1.149-1.357-2.021-3.011-2.651-4.925h-.426ZM184.969,696.811c.538,1.524,1.298,2.881,2.299,4.014,1.001-1.115,1.798-2.453,2.336-4.014h-4.635Z"/><path class="cls-3" d="M202.752,701.179c1.02,1.58,2.114,3.643,2.503,4.98l-1.224.502c-.13-.409-.296-.892-.519-1.413-2.633.279-5.358.539-7.323.744l-.204-1.357c.408-.019.871-.056,1.372-.093.612-1.45,1.316-3.55,1.761-5.204h-3.114v-1.301h3.967v-3.066h-3.226v-1.245h3.226v-2.955h1.316v2.955h3.133v1.245h-3.133v3.066h3.763v1.301h-4.394c-.556,1.617-1.279,3.587-1.91,5.074,1.298-.112,2.744-.242,4.19-.372-.389-.836-.853-1.672-1.316-2.397l1.131-.464ZM212.152,702.74c0,.762-.148,1.189-.686,1.45-.501.26-1.354.279-2.596.279-.056-.409-.278-1.041-.463-1.45.964.037,1.798.037,2.076.019.241,0,.315-.056.315-.316v-9.534h-3.745v14.552h-1.316v-15.854h6.415v10.854Z"/><path class="cls-3" d="M230.974,692.053v15.407h-1.446v-1.134h-9.196v1.208h-1.391v-15.481h12.032ZM220.332,693.41v5.018h9.196v-5.018h-9.196ZM229.528,704.97v-5.185h-9.196v5.185h9.196Z"/><path class="cls-3" d="M248.887,699.264c0-3.624,1.465-6.579,3.689-8.846l1.112.576c-2.132,2.212-3.448,4.962-3.448,8.271s1.316,6.059,3.448,8.271l-1.112.576c-2.225-2.268-3.689-5.223-3.689-8.847Z"/><path class="cls-3" d="M268.599,698.632v2.769h4.394v1.283h-4.394v2.992c0,.576.111.688.742.688h2.114c.575,0,.667-.372.741-2.36.297.242.872.483,1.242.576-.129,2.36-.519,3.011-1.873,3.011h-2.428c-1.558,0-1.965-.409-1.965-1.933v-2.974h-3.337c-.296,1.988-1.39,3.884-5.024,5.148-.167-.316-.593-.836-.872-1.097,3.096-1.041,4.153-2.509,4.487-4.051h-4.116v-1.283h4.264v-2.769h-1.947v-.706c-.89.669-1.835,1.208-2.762,1.635-.186-.297-.593-.78-.853-1.041,1.279-.521,2.614-1.357,3.764-2.416-.556-.595-1.465-1.375-2.225-1.952l.853-.725c.742.539,1.65,1.264,2.243,1.821.667-.762,1.261-1.58,1.724-2.453h-4.598v-1.227h5.284l.241-.056.908.446c-.797,2.174-2.206,3.996-3.856,5.39h8.713c-1.798-1.617-3.208-3.754-4.134-6.152l1.187-.353c.315.799.705,1.598,1.168,2.323.816-.669,1.706-1.542,2.28-2.193l1.038.744c-.815.799-1.835,1.691-2.707,2.342.371.501.76.985,1.205,1.431.908-.707,1.984-1.691,2.632-2.398l1.039.725c-.853.836-1.965,1.729-2.911,2.416,1.038.911,2.206,1.654,3.467,2.156-.297.26-.723.799-.946,1.152-.945-.409-1.835-.966-2.651-1.617v.706h-2.132ZM267.172,698.632h-3.226v2.769h3.226v-2.769Z"/><path class="cls-3" d="M281.693,703.985c.871,1.357,2.484,1.989,4.616,2.082,2.021.074,6.137.019,8.306-.13-.148.334-.389.985-.445,1.412-2.021.075-5.821.112-7.861.038-2.41-.093-4.06-.762-5.247-2.193-.89.781-1.817,1.58-2.799,2.379l-.742-1.394c.853-.557,1.891-1.338,2.818-2.119v-4.702h-2.577v-1.301h3.931v5.929ZM281.118,695.008c-.575-.892-1.947-2.119-3.152-2.937l1.02-.836c1.187.781,2.596,1.97,3.226,2.862l-1.094.911ZM289.535,699.357c.778,2.323,2.354,3.903,4.838,4.609-.315.279-.686.799-.871,1.152-2.41-.836-3.967-2.416-4.876-4.776-.575,1.672-1.891,3.382-4.839,4.702-.185-.279-.612-.762-.908-1.022,3.207-1.301,4.283-3.066,4.616-4.665h-4.765v-1.246h4.913c.019-.186.019-.353.019-.52v-2.063h-4.338v-1.227h2.317c-.223-.836-.908-2.082-1.594-2.993l1.168-.464c.723.892,1.427,2.119,1.687,2.955l-1.112.502h7.99v1.227h-4.746v2.082c0,.167,0,.334-.019.501h5.321v1.246h-4.801ZM292.779,691.235c-.649,1.06-1.391,2.286-2.002,3.067l-1.131-.409c.593-.855,1.354-2.193,1.724-3.122l1.409.464Z"/><path class="cls-3" d="M301.849,703.985c.909,1.375,2.559,1.989,4.783,2.082,2.021.074,6.174.019,8.361-.13-.167.334-.389.985-.463,1.412-2.021.075-5.858.112-7.898.038-2.466-.093-4.19-.744-5.376-2.193-.834.781-1.706,1.58-2.632,2.379l-.742-1.375c.834-.576,1.78-1.375,2.632-2.138v-4.702h-2.354v-1.301h3.689v5.929ZM301.312,695.083c-.575-.911-1.835-2.193-2.985-3.048l1.02-.818c1.149.836,2.447,2.063,3.022,2.974l-1.057.892ZM305.631,696.811c-.056,2.49-.482,5.631-2.169,7.843-.204-.241-.797-.65-1.112-.762,1.798-2.323,1.965-5.539,1.965-7.936v-4.256h9.937v1.282h-8.602v2.602h6.878l.26-.056.871.297c-.593,2.453-1.668,4.423-3.059,5.947,1.187,1.041,2.633,1.84,4.32,2.304-.315.279-.705.799-.89,1.189-1.724-.557-3.17-1.431-4.375-2.546-1.187,1.041-2.54,1.84-3.967,2.379-.167-.334-.519-.874-.779-1.152,1.354-.446,2.67-1.189,3.801-2.211-1.149-1.357-2.021-3.011-2.651-4.925h-.426ZM307.355,696.811c.538,1.524,1.298,2.881,2.299,4.014,1.001-1.115,1.798-2.453,2.336-4.014h-4.635Z"/><path class="cls-3" d="M325.139,701.179c1.02,1.58,2.114,3.643,2.503,4.98l-1.224.502c-.13-.409-.296-.892-.519-1.413-2.633.279-5.358.539-7.323.744l-.204-1.357c.408-.019.871-.056,1.372-.093.612-1.45,1.316-3.55,1.761-5.204h-3.114v-1.301h3.967v-3.066h-3.226v-1.245h3.226v-2.955h1.316v2.955h3.133v1.245h-3.133v3.066h3.763v1.301h-4.394c-.556,1.617-1.279,3.587-1.91,5.074,1.298-.112,2.744-.242,4.19-.372-.389-.836-.853-1.672-1.316-2.397l1.131-.464ZM334.539,702.74c0,.762-.148,1.189-.686,1.45-.501.26-1.354.279-2.596.279-.056-.409-.278-1.041-.463-1.45.964.037,1.798.037,2.076.019.241,0,.315-.056.315-.316v-9.534h-3.745v14.552h-1.316v-15.854h6.415v10.854Z"/><path class="cls-3" d="M347.002,705.416c.575-.037,1.131-.13,1.576-.223,2.354-.521,4.653-2.267,4.653-5.445,0-2.788-1.761-5.074-4.875-5.334-.241,1.71-.593,3.568-1.094,5.297-1.131,3.772-2.595,5.724-4.301,5.724-1.632,0-3.282-1.896-3.282-4.925,0-3.996,3.56-7.49,8.046-7.49,4.301,0,7.045,3.048,7.045,6.765,0,3.866-2.54,6.449-6.916,7.025l-.853-1.394ZM345.797,699.395c.463-1.524.815-3.271,1.02-4.962-3.522.446-5.673,3.476-5.673,5.947,0,2.323,1.075,3.345,1.873,3.345.815,0,1.835-1.227,2.781-4.33Z"/><path class="cls-3" d="M365.063,701.68c-1.873.948-3.894,1.933-5.451,2.676l-.538-1.356c.705-.297,1.576-.669,2.521-1.097v-5.817h-2.169v-1.301h2.169v-3.866h1.279v3.866h2.002v1.301h-2.002v5.222l1.891-.855.297,1.227ZM368.512,699.543c-.241.446-.5.892-.797,1.301h7.972s-.019.372-.056.557c-.278,3.829-.575,5.278-1.094,5.817-.278.316-.612.409-1.038.465-.408.019-1.094.019-1.835-.019,0-.335-.13-.836-.315-1.115.686.056,1.298.074,1.576.074.26,0,.427-.019.557-.205.315-.334.593-1.505.834-4.423h-1.446c-.742,2.212-2.188,4.609-3.782,5.817-.223-.279-.649-.595-.982-.799,1.501-1.003,2.855-3.011,3.615-5.018h-1.798c-.983,1.915-2.8,3.94-4.505,5.018-.204-.297-.575-.632-.908-.855,1.539-.836,3.17-2.509,4.171-4.163h-1.873c-.742.836-1.576,1.562-2.41,2.119-.186-.223-.667-.669-.946-.855,1.465-.874,2.8-2.193,3.671-3.717h-2.595v-1.171h11.605v1.171h-7.62ZM374.815,697.332h-8.472v-6.003h8.472v6.003ZM373.536,692.369h-5.933v1.468h5.933v-1.468ZM373.536,694.804h-5.933v1.487h5.933v-1.487Z"/><path class="cls-3" d="M388.631,690.827c1.965,2.732,5.229,5.315,8.139,6.635-.334.316-.667.799-.909,1.189-2.874-1.505-6.118-4.107-7.842-6.486-1.52,2.268-4.523,4.907-7.694,6.598-.167-.316-.538-.799-.853-1.097,3.226-1.636,6.322-4.46,7.768-6.839h1.39ZM382.458,700.361h11.272v7.397h-1.409v-.762h-8.509v.762h-1.354v-7.397ZM392.71,696.811v1.227h-9.289v-1.227h9.289ZM383.812,701.606v4.145h8.509v-4.145h-8.509Z"/><path class="cls-3" d="M408.195,705.416c.575-.037,1.131-.13,1.576-.223,2.354-.521,4.653-2.267,4.653-5.445,0-2.788-1.761-5.074-4.875-5.334-.241,1.71-.593,3.568-1.094,5.297-1.131,3.772-2.595,5.724-4.301,5.724-1.632,0-3.282-1.896-3.282-4.925,0-3.996,3.56-7.49,8.046-7.49,4.301,0,7.045,3.048,7.045,6.765,0,3.866-2.54,6.449-6.916,7.025l-.853-1.394ZM406.99,699.395c.463-1.524.815-3.271,1.02-4.962-3.522.446-5.673,3.476-5.673,5.947,0,2.323,1.075,3.345,1.873,3.345.815,0,1.835-1.227,2.781-4.33Z"/><path class="cls-3" d="M430.076,704.58l.037,1.245c-3.448.502-7.063,1.004-9.511,1.357l-.222-1.375c1.168-.13,2.651-.316,4.282-.52v-3.252h-3.541v-1.264h3.541v-2.211h1.335v2.211h3.485v1.264h-3.485v3.085l4.079-.539ZM427.444,694.19c1.112,1.282,2.41,3.011,2.929,4.145l-1.075.65c-.167-.334-.371-.725-.63-1.152-2.911.205-5.896.354-8.009.483l-.111-1.319,1.688-.075c.5-1.096,1.02-2.527,1.372-3.698h-3.022v-1.227h9.455v1.227h-4.894c-.464,1.171-1.001,2.546-1.521,3.643,1.316-.056,2.781-.111,4.264-.186-.463-.669-.982-1.338-1.465-1.915l1.02-.576ZM432.153,703.223h-1.316v-10.222h1.316v10.222ZM436.528,691.291v14.59c0,.948-.222,1.375-.834,1.617-.612.223-1.706.242-3.208.242-.074-.372-.278-1.022-.463-1.431,1.205.056,2.373.037,2.725.037.334-.019.445-.111.445-.464v-14.59h1.334Z"/><path class="cls-3" d="M446.636,698.669c-.148.372-.315.744-.482,1.115h9.362v7.88h-1.409v-.632h-7.75v.669h-1.353v-5.873c-.946,1.45-2.077,2.695-3.3,3.624-.204-.279-.742-.781-1.038-1.022,1.928-1.32,3.504-3.383,4.468-5.762h-3.875v-1.134h7.286v-1.282h-5.599v-1.078h5.599v-1.283h-6.415v-1.115h3.393c-.278-.501-.686-1.096-1.094-1.58l1.187-.427c.557.558,1.113,1.338,1.354,1.914l-.222.093h4.894l-.204-.074c.408-.558.982-1.413,1.261-1.97l1.446.427c-.426.576-.871,1.152-1.279,1.617h3.56v1.115h-6.489v1.283h5.655v1.078h-5.655v1.282h7.286v1.134h-10.586ZM446.358,700.844v1.115h7.75v-1.115h-7.75ZM454.107,702.833h-7.75v1.115h7.75v-1.115ZM454.107,705.974v-1.152h-7.75v1.152h7.75Z"/><path class="cls-3" d="M475.748,692.053v15.407h-1.446v-1.134h-9.196v1.208h-1.391v-15.481h12.032ZM465.106,693.41v5.018h9.196v-5.018h-9.196ZM474.302,704.97v-5.185h-9.196v5.185h9.196Z"/><path class="cls-3" d="M486.431,699.264c0,3.624-1.464,6.579-3.689,8.847l-1.112-.576c2.132-2.211,3.448-4.962,3.448-8.271s-1.316-6.059-3.448-8.271l1.112-.576c2.225,2.267,3.689,5.222,3.689,8.846Z"/><path class="cls-3" d="M53.625,705.88l-3.133-4.516-3.078,4.516h-3.448l4.802-6.616-4.561-6.394h3.412l2.985,4.219,2.929-4.219h3.244l-4.523,6.282,4.839,6.728h-3.467Z"/><path class="cls-3" d="M77.34,705.23c0,1.338-.315,1.97-1.168,2.342-.89.39-2.188.427-4.097.427-.13-.65-.575-1.71-.927-2.323,1.298.075,2.855.056,3.263.056.445,0,.593-.149.593-.539v-2.695h-7.935c-.482,2.082-1.409,4.107-3.133,5.557-.333-.464-1.224-1.282-1.706-1.598,2.8-2.397,3.059-5.947,3.059-8.772v-6.115h12.051v13.66ZM75.004,700.361v-2.268h-7.435c-.019.706-.056,1.487-.13,2.268h7.564ZM67.569,693.726v2.268h7.435v-2.268h-7.435Z"/><path class="cls-3" d="M96.551,702.107c0,2.454-2.188,3.996-5.487,3.996-3.282,0-5.451-1.542-5.451-3.996,0-1.394.723-2.435,1.965-3.066-.964-.595-1.502-1.505-1.502-2.676,0-2.286,2.04-3.717,4.987-3.717,2.985,0,5.024,1.431,5.024,3.717,0,1.171-.556,2.082-1.52,2.676,1.261.632,1.983,1.673,1.983,3.066ZM93.511,702.015c0-1.152-.946-1.858-2.447-1.858-1.483,0-2.41.706-2.41,1.858s.927,1.877,2.41,1.877c1.501,0,2.447-.725,2.447-1.877ZM89.062,696.495c0,.985.779,1.599,2.002,1.599,1.242,0,2.039-.613,2.039-1.599,0-1.022-.815-1.635-2.039-1.635-1.205,0-2.002.613-2.002,1.635Z"/><path class="cls-3" d="M117.597,691.812v15.983h-2.373v-1.171h-8.231v1.208h-2.28v-16.021h12.885ZM106.993,694.042v3.996h8.231v-3.996h-8.231ZM115.224,704.394v-4.163h-8.231v4.163h8.231Z"/><path class="cls-3" d="M126.982,700.542c0-3.478,1.443-6.078,3.195-7.8l1.541.683c-1.622,1.755-2.903,3.998-2.903,7.118s1.281,5.363,2.903,7.118l-1.541.683c-1.752-1.723-3.195-4.323-3.195-7.8Z"/><path class="cls-3" d="M141.521,698.234c0,2.47,1.525,6.208,6.569,8.077-.438.422-1.054,1.251-1.346,1.82-3.86-1.592-5.823-4.842-6.277-6.451-.422,1.658-2.206,4.81-6.018,6.451-.26-.438-.941-1.267-1.362-1.657,4.882-1.869,6.358-5.802,6.358-8.223v-5.07h2.076v5.054ZM137.304,696.593c-.275,2.031-.746,3.965-2.141,5.119l-1.752-1.088c1.184-1.008,1.719-2.617,1.946-4.453l1.946.423ZM147.393,696.95c-.827,1.576-1.8,3.315-2.611,4.42l-1.687-.715c.778-1.219,1.67-3.071,2.173-4.501l2.125.796Z"/><path class="cls-3" d="M154.146,700.542c0,3.478-1.444,6.078-3.195,7.8l-1.541-.683c1.622-1.755,2.903-3.998,2.903-7.118s-1.281-5.363-2.903-7.118l1.541-.683c1.751,1.723,3.195,4.323,3.195,7.8Z"/><rect class="cls-3" x="644.4" y="270.9" width="238.5" height="121.5" rx="15" ry="15"/><path class="cls-1" d="M615.129,386.771l-13.479,13.506v-136.932l13.542,13.568c.791.793,1.827,1.189,2.863,1.189s2.072-.396,2.863-1.189c1.582-1.584,1.582-4.154,0-5.738l-20.451-20.492c-1.583-1.586-4.153-1.586-5.736,0l-20.451,20.492c-1.879,1.882-1.526,5.155,1.059,6.513,1.558.819,3.487.408,4.731-.838l13.479-13.506v136.932l-13.479-13.506c-1.244-1.246-3.172-1.657-4.731-.838-2.585,1.359-2.938,4.632-1.059,6.513l20.456,20.497c.791.793,1.827,1.189,2.863,1.189s2.072-.396,2.863-1.189l20.456-20.497c1.879-1.882,1.526-5.155-1.059-6.513-1.558-.819-3.487-.408-4.731.838Z"/><path class="cls-5" d="M615.129,386.771l-13.479,13.506v-136.932l13.542,13.568c.791.793,1.827,1.189,2.863,1.189s2.072-.396,2.863-1.189c1.582-1.584,1.582-4.154,0-5.738l-20.451-20.492c-1.583-1.586-4.153-1.586-5.736,0l-20.451,20.492c-1.879,1.882-1.526,5.155,1.059,6.513,1.558.819,3.487.408,4.731-.838l13.479-13.506v136.932l-13.479-13.506c-1.244-1.246-3.172-1.657-4.731-.838-2.585,1.359-2.938,4.632-1.059,6.513l20.456,20.497c.791.793,1.827,1.189,2.863,1.189s2.072-.396,2.863-1.189l20.456-20.497c1.879-1.882,1.526-5.155-1.059-6.513-1.558-.819-3.487-.408-4.731.838Z"/><path class="cls-5" d="M715.292,327.277v-6.617h-8.185v-13.311h8.185v-3.449h3.213v3.449h8.235v13.311h-8.235v6.617h-3.213ZM710.371,312.638h4.921v-2.453h-4.921v2.453ZM710.371,317.825h4.921v-2.504h-4.921v2.504ZM718.504,312.638h4.972v-2.453h-4.972v2.453ZM718.504,317.825h4.972v-2.504h-4.972v2.504Z"/><path class="cls-5" d="M748.745,326.817c-1.802,0-3.298-.089-4.488-.268s-2.167-.452-2.932-.817c-.765-.367-1.419-.822-1.963-1.367-.306.222-.701.481-1.186.779s-.978.596-1.479.895c-.501.297-.939.549-1.313.753l-1.25-2.989c.34-.136.752-.302,1.237-.498s.956-.4,1.415-.613c.459-.213.799-.379,1.02-.498v-6.362h-3.034v-2.657h5.941v8.635c.323.817,1.1,1.397,2.333,1.737,1.232.341,3.132.511,5.699.511,2.175,0,4.045-.038,5.609-.115,1.563-.077,2.83-.183,3.799-.319-.085.188-.178.481-.28.881-.102.4-.187.813-.255,1.239-.068.425-.111.767-.127,1.022-.476,0-1.097.004-1.861.013-.765.008-1.577.017-2.435.025-.858.008-1.679.013-2.46.013h-1.989ZM739.693,310.134c-.306-.374-.714-.8-1.224-1.277-.51-.477-1.045-.949-1.606-1.418-.561-.468-1.08-.847-1.555-1.137l1.912-1.967c.425.239.931.583,1.517,1.035.586.452,1.156.92,1.708,1.405.552.485.981.907,1.288,1.265-.153.137-.366.336-.638.601s-.54.532-.803.805-.463.502-.599.689ZM743.518,322.807c-.289-.358-.633-.729-1.033-1.111-.399-.383-.795-.686-1.186-.907,1.173-.817,2.171-1.814,2.996-2.989.824-1.175,1.487-2.436,1.989-3.781.501-1.346.829-2.674.981-3.986l1.53.23c-.034-.375-.06-.754-.076-1.137-.018-.383-.026-.779-.026-1.188h-4.64v-2.938h7.547c-.153,2.3-.068,4.391.255,6.272.323,1.882.969,3.573,1.938,5.071.969,1.499,2.329,2.845,4.08,4.037-.391.324-.799.724-1.224,1.201-.425.477-.756.86-.994,1.15-1.496-1.09-2.788-2.38-3.875-3.871-1.088-1.49-1.896-3.249-2.422-5.276-.527,1.874-1.279,3.589-2.256,5.148-.978,1.559-2.172,2.917-3.583,4.075Z"/><path class="cls-5" d="M764.579,322.704v-16.862h7.624v16.862h-7.624ZM767.383,312.894h2.014v-4.369h-2.014v4.369ZM767.383,319.996h2.014v-4.42h-2.014v4.42ZM779.138,327.252c-.034-.426-.115-.937-.242-1.533-.127-.596-.268-1.073-.421-1.431h1.785c.357,0,.612-.059.765-.179.153-.119.229-.349.229-.69v-4.317h-5.278c.391.272.807.587,1.25.945.441.357.862.711,1.262,1.06.399.35.718.669.957.958-.188.153-.421.379-.701.677-.281.298-.544.596-.791.894-.247.298-.421.524-.523.677-.255-.375-.604-.788-1.045-1.239-.442-.451-.896-.877-1.364-1.277-.468-.4-.872-.711-1.211-.933l1.581-1.763h-2.193v-2.683h8.057v-2.095h-8.439v-2.708h5.278v-2.121h-4.666v-2.683h4.666v-2.938h3.187v2.938h4.972v2.683h-4.972v2.121h5.941v2.708h-2.855v2.095h2.575v2.683h-2.575v5.416c0,1.822-1.088,2.734-3.264,2.734h-1.963Z"/><path class="cls-5" d="M806.139,326.102c-.136-.255-.315-.558-.536-.907-.221-.349-.455-.694-.701-1.035s-.497-.622-.752-.843c2.057-.357,3.727-.92,5.01-1.686,1.283-.767,2.222-1.669,2.817-2.708.595-1.039.893-2.146.893-3.321,0-1.227-.251-2.346-.752-3.36-.501-1.013-1.224-1.852-2.167-2.517-.943-.664-2.095-1.09-3.455-1.277-.204,2.163-.536,4.194-.994,6.093-.459,1.899-1.012,3.573-1.658,5.021s-1.351,2.584-2.116,3.411c-.765.826-1.564,1.239-2.396,1.239-.68,0-1.356-.195-2.027-.587-.671-.392-1.275-.949-1.81-1.673-.536-.724-.965-1.58-1.288-2.568-.323-.987-.484-2.069-.484-3.245,0-1.362.255-2.674.765-3.934s1.258-2.385,2.244-3.373,2.193-1.767,3.621-2.338c1.428-.57,3.06-.855,4.896-.855,1.734,0,3.272.277,4.615.83,1.343.554,2.473,1.299,3.391,2.235.918.937,1.615,2.001,2.091,3.194.476,1.192.714,2.427.714,3.705,0,2.606-.841,4.807-2.524,6.604-1.683,1.797-4.147,3.095-7.394,3.896ZM799.153,320.737c.289,0,.633-.297,1.033-.894.399-.596.812-1.443,1.237-2.542.424-1.099.82-2.397,1.186-3.896.365-1.499.65-3.151.854-4.957-1.445.205-2.673.686-3.685,1.443-1.011.758-1.776,1.678-2.294,2.759-.519,1.082-.778,2.219-.778,3.411,0,.92.119,1.733.357,2.44.238.707.544,1.256.918,1.648.374.392.765.587,1.173.587Z"/><path class="cls-5" d="M681.609,357.596c-.204-.153-.484-.361-.841-.626-.357-.264-.655-.455-.893-.575.034-.425.064-1.056.089-1.891.025-.834.046-1.771.063-2.81.017-1.039.026-2.078.026-3.117v-5.314c0-.954-.013-1.771-.039-2.453-.025-.681-.047-1.132-.063-1.354.271,0,.628.009,1.071.025.442.017.879.03,1.313.039.434.009.769.013,1.007.013-.017.255-.047.728-.089,1.418s-.064,1.469-.064,2.337v3.769c0,.894-.004,1.789-.013,2.683s-.013,1.695-.013,2.401v1.495c.782-.272,1.657-.643,2.626-1.111.969-.468,1.972-.987,3.009-1.558,1.037-.571,2.052-1.175,3.047-1.814.994-.639,1.916-1.282,2.766-1.929.85-.647,1.564-1.26,2.142-1.839.067.341.153.732.255,1.175s.212.865.332,1.265c.119.4.221.703.306.907-.952.835-2.082,1.687-3.391,2.555s-2.694,1.708-4.156,2.516c-1.462.81-2.924,1.542-4.386,2.197-1.462.656-2.83,1.188-4.105,1.597Z"/><path class="cls-5" d="M713.252,346.1c-.306-.323-.697-.703-1.173-1.137-.476-.435-.995-.877-1.556-1.329-.561-.451-1.109-.877-1.645-1.277-.535-.4-1.016-.729-1.44-.984.221-.204.493-.473.816-.805.323-.332.633-.66.931-.983.297-.324.505-.553.625-.69.408.255.884.587,1.428.997.543.409,1.096.843,1.657,1.303s1.083.907,1.568,1.341c.484.434.863.805,1.135,1.111-.188.17-.43.409-.727.715-.298.307-.595.618-.893.933-.297.315-.54.583-.727.805ZM709.58,357.392c-.119-.221-.297-.541-.535-.958-.238-.417-.484-.831-.74-1.239-.255-.409-.467-.698-.637-.869,1.683-.375,3.395-.924,5.138-1.648,1.742-.724,3.451-1.584,5.125-2.58,1.674-.997,3.264-2.099,4.768-3.309s2.868-2.487,4.092-3.833c.034.205.098.473.191.805.093.333.191.677.293,1.035.102.357.2.677.293.958.093.281.166.473.216.575-1.479,1.567-3.2,3.066-5.163,4.497s-4.059,2.712-6.285,3.845c-2.227,1.133-4.479,2.04-6.757,2.721Z"/><path class="cls-5" d="M740.075,359.283c-.221-.358-.548-.788-.981-1.291-.434-.502-.863-.915-1.288-1.239,1.768-.681,3.404-1.533,4.908-2.555,1.504-1.021,2.852-2.18,4.042-3.474-.629-.46-1.241-.877-1.836-1.252-.595-.375-1.147-.673-1.657-.895.153-.153.361-.378.625-.677.263-.298.523-.604.778-.92.255-.315.442-.566.561-.753.526.221,1.087.511,1.683.869.595.357,1.198.75,1.811,1.175,1.002-1.431,1.818-2.938,2.447-4.522l-6.323.026c-1.564,2.401-3.332,4.454-5.303,6.157-.323-.306-.731-.634-1.224-.983-.493-.349-.969-.626-1.428-.83,1.105-.869,2.163-1.908,3.174-3.117,1.011-1.209,1.921-2.495,2.729-3.858.807-1.362,1.466-2.699,1.976-4.011.238.068.569.166.994.293.425.128.85.243,1.275.345.425.102.748.179.969.23-.476,1.039-.986,2.061-1.53,3.065h1.823c.722,0,1.47-.004,2.244-.013.773-.008,1.487-.021,2.142-.038.654-.017,1.16-.042,1.517-.077.187.17.416.375.688.613.272.238.493.443.663.613-.119.222-.28.524-.484.907s-.417.788-.638,1.213c-.221.426-.408.809-.561,1.15-.374.834-.782,1.644-1.224,2.427-.442.784-.927,1.542-1.453,2.274,1.087.886,2.014,1.721,2.779,2.504-.17.153-.417.392-.74.715-.323.324-.646.647-.969.971-.323.324-.578.587-.765.792-.289-.357-.633-.745-1.033-1.163-.399-.417-.837-.838-1.313-1.265-1.207,1.329-2.562,2.547-4.067,3.654s-3.174,2.086-5.01,2.938Z"/><path class="cls-5" d="M767.077,357.417c-.34-.29-.782-.622-1.326-.996s-1.045-.69-1.504-.945c.884-.715,1.645-1.431,2.282-2.146.637-.715,1.164-1.503,1.581-2.363s.727-1.861.931-3.002c.204-1.141.306-2.495.306-4.062,0-1.226-.004-2.15-.013-2.772-.009-.622-.038-1.103-.089-1.443.323.017.692.042,1.109.077.416.034.824.064,1.224.089s.727.047.982.064c-.051.375-.094.86-.128,1.456-.034.597-.051,1.457-.051,2.581,0,2.214-.196,4.13-.586,5.749-.391,1.618-.978,3.04-1.759,4.267-.782,1.226-1.768,2.376-2.958,3.449ZM776.894,357.315c-.204-.153-.455-.332-.752-.537s-.54-.366-.727-.485v-12.8c0-.954-.013-1.763-.038-2.427-.026-.664-.047-1.115-.064-1.354.272,0,.629.009,1.071.026s.88.034,1.313.051c.433.017.769.026,1.007.026-.017.255-.047.698-.089,1.328-.042.63-.063,1.422-.063,2.376v9.658c.527-.239,1.156-.566,1.887-.984.73-.417,1.483-.869,2.256-1.354s1.492-.966,2.155-1.443c.663-.477,1.189-.895,1.581-1.252.051.307.124.677.217,1.111.093.434.195.852.306,1.252.11.4.2.703.268.907-.629.494-1.368,1.022-2.218,1.584s-1.755,1.116-2.715,1.661c-.96.545-1.904,1.048-2.83,1.507-.927.46-1.781.843-2.562,1.15Z"/><path class="cls-5" d="M796.782,358.107v-20.03h16.216v20.03h-16.216ZM800.02,346.508h9.74v-5.519h-9.74v5.519ZM800.02,355.195h9.74v-5.902h-9.74v5.902Z"/><path class="cls-5" d="M834.543,359.743c-.119-.239-.285-.528-.497-.869-.213-.341-.438-.673-.676-.997-.221.255-.451.528-.688.817-.238.29-.425.528-.561.715-.306-.29-.663-.592-1.071-.907-.408-.315-.85-.635-1.326-.958-.833.579-1.781,1.043-2.843,1.392s-2.24.609-3.531.779c-.051-.204-.132-.473-.242-.805-.111-.332-.226-.656-.344-.971-.119-.315-.238-.558-.357-.728,1.921-.153,3.519-.571,4.793-1.252-1.377-.8-2.575-1.414-3.595-1.84.187-.238.399-.54.638-.907.238-.366.484-.762.739-1.188h-2.473v-2.427h3.875c.561-.987.96-1.788,1.198-2.401v-2.504c-.527.597-1.113,1.192-1.759,1.789s-1.249,1.099-1.81,1.507c-.136-.205-.319-.435-.548-.69s-.459-.489-.688-.703c-.229-.212-.42-.37-.574-.473.374-.221.803-.515,1.288-.881.485-.366.973-.771,1.466-1.213.493-.443.943-.869,1.352-1.277h-3.544v-2.325h1.887c-.255-.494-.544-.992-.867-1.495-.323-.502-.629-.915-.918-1.239l1.989-1.124c.238.272.493.604.765.996.271.392.531.779.777,1.163s.438.72.574,1.009c-.408.17-.85.4-1.326.689h1.938v-4.062h2.55v4.062h1.811c-.221-.136-.442-.255-.663-.357-.221-.103-.417-.188-.586-.255.374-.511.727-1.064,1.058-1.661s.59-1.141.778-1.635l2.295.945c-.204.443-.463.937-.778,1.482-.315.545-.625,1.039-.931,1.481h1.759v2.325h-3.468c.442.494.939.992,1.492,1.495.552.502,1.066.907,1.542,1.213-.255.205-.552.481-.892.83-.34.35-.621.677-.842.984-.442-.34-.884-.728-1.326-1.163-.442-.434-.858-.89-1.25-1.367v2.657h-1.887l1.938.639c-.102.221-.221.464-.357.728-.136.264-.281.541-.434.83h5.762v2.427h-1.657c-.374,1.414-.96,2.623-1.759,3.628.374.222.727.452,1.058.69s.642.477.931.715c1.054-.443,1.993-.988,2.817-1.635.824-.647,1.534-1.371,2.129-2.172-.476-.868-.884-1.779-1.224-2.733-.34-.954-.621-1.933-.841-2.938-.17.324-.344.626-.523.907-.178.281-.361.558-.548.831-.272-.238-.642-.49-1.109-.754-.468-.264-.914-.464-1.338-.6.578-.715,1.096-1.542,1.555-2.479.459-.937.862-1.929,1.211-2.976.349-1.048.633-2.086.854-3.117.221-1.03.382-1.997.484-2.899l2.805.409c-.238,1.481-.561,2.98-.969,4.497h6.91v2.555h-1.504c-.136,1.839-.404,3.53-.803,5.071s-.956,2.942-1.67,4.203c1.224,1.55,2.762,2.896,4.615,4.037-.221.222-.468.485-.739.792-.272.307-.522.604-.752.895-.229.289-.379.511-.446.664-.867-.562-1.662-1.18-2.384-1.852-.723-.673-1.381-1.375-1.976-2.108-1.479,1.686-3.391,3.048-5.737,4.088ZM829.316,354.25c.51-.647.918-1.388,1.224-2.223h-2.524c-.153.239-.293.464-.42.677-.128.213-.243.405-.344.575.68.272,1.368.596,2.065.971ZM840.255,350.468c.408-.987.722-2.031.943-3.129.221-1.099.357-2.227.408-3.385h-2.983c.085,1.209.263,2.359.536,3.449.271,1.09.637,2.112,1.096,3.066Z"/></g></svg>