<?xml version="1.0" encoding="UTF-8"?><svg id="_レイヤー_2" xmlns="http://www.w3.org/2000/svg" viewBox="0 0 900 611"><defs><style>.cls-1{fill:#4b5654;}.cls-1,.cls-2,.cls-3{stroke-width:0px;}.cls-2{fill:#ddd;}.cls-4{fill:#fff;font-family:NotoSansJP-Black-90ms-RKSJ-H, 'Noto Sans JP';font-size:37.778px;font-weight:800;glyph-orientation-vertical:0deg;letter-spacing:.1em;text-orientation:upright;writing-mode:tb;}.cls-3{fill:#3bb2a3;}</style></defs><g id="_レンタル全般"><rect class="cls-2" width="900" height="611" rx="15" ry="15"/><rect class="cls-3" x="45" y="45" width="78" height="521"/><text class="cls-4" transform="translate(85.222 139.333)"><tspan x="0" y="0">掛け率パターンＡ</tspan></text><path class="cls-1" d="M690.654,152.89v24.887h-5.76v-20.265h-4.977v-4.622h10.737Z"/><path class="cls-1" d="M697.481,165.333c0-8.213,4.551-12.871,10.666-12.871,6.151,0,10.666,4.658,10.666,12.871s-4.515,12.87-10.666,12.87c-6.115,0-10.666-4.658-10.666-12.87ZM713.018,165.333c0-5.653-1.991-8-4.871-8-2.844,0-4.835,2.346-4.835,8s1.991,7.999,4.835,7.999c2.88,0,4.871-2.346,4.871-7.999Z"/><path class="cls-1" d="M728.982,174.577c0,.924-.142,1.6-.96,3.555l-2.026,5.12h-3.52l1.564-5.653c-1.173-.462-1.92-1.564-1.92-3.022,0-2.062,1.494-3.413,3.449-3.413,1.991,0,3.413,1.387,3.413,3.413Z"/><path class="cls-1" d="M732.538,165.333c0-8.213,4.551-12.871,10.666-12.871,6.151,0,10.666,4.658,10.666,12.871s-4.515,12.87-10.666,12.87c-6.115,0-10.666-4.658-10.666-12.87ZM748.075,165.333c0-5.653-1.991-8-4.871-8-2.844,0-4.835,2.346-4.835,8s1.991,7.999,4.835,7.999c2.88,0,4.871-2.346,4.871-7.999Z"/><path class="cls-1" d="M757.782,165.333c0-8.213,4.551-12.871,10.666-12.871,6.151,0,10.666,4.658,10.666,12.871s-4.515,12.87-10.666,12.87c-6.115,0-10.666-4.658-10.666-12.87ZM773.318,165.333c0-5.653-1.991-8-4.871-8-2.844,0-4.835,2.346-4.835,8s1.991,7.999,4.835,7.999c2.88,0,4.871-2.346,4.871-7.999Z"/><path class="cls-1" d="M783.026,165.333c0-8.213,4.551-12.871,10.666-12.871,6.151,0,10.666,4.658,10.666,12.871s-4.515,12.87-10.666,12.87c-6.115,0-10.666-4.658-10.666-12.87ZM798.562,165.333c0-5.653-1.991-8-4.871-8-2.844,0-4.835,2.346-4.835,8s1.991,7.999,4.835,7.999c2.88,0,4.871-2.346,4.871-7.999Z"/><path class="cls-1" d="M831.754,158.804v17.018c0,1.933-.845,2.044-4.977,2.044-.089-.422-.355-1.088-.578-1.511.8.022,1.556.044,2.178.044,1.755,0,1.888,0,1.888-.578v-7.243h-15.507v9.331h-1.488v-19.106h18.484ZM814.758,160.27v6.821h6.887v-6.821h-6.887ZM823.134,167.091h7.131v-6.821h-7.131v6.821Z"/><path class="cls-1" d="M170.364,173.54h5.653v-16.639h-4.764v-3.235c2.631-.498,4.444-1.173,6.115-2.204h3.875v22.078h4.942v4.231h-15.821v-4.231Z"/><path class="cls-1" d="M227.499,149.791v30.575h-4.551v-2.24h-15.786v2.311h-4.373v-30.646h24.709ZM207.163,154.057v7.644h15.786v-7.644h-15.786ZM222.948,173.86v-7.964h-15.786v7.964h15.786Z"/><path class="cls-1" d="M239.91,161.843v19.021h-4.195v-31.855h13.617v12.834h-9.421ZM239.91,152.066v1.884h5.475v-1.884h-5.475ZM245.385,158.821v-2.026h-5.475v2.026h5.475ZM265.721,175.851c0,2.275-.462,3.52-1.884,4.195-1.387.711-3.449.818-6.506.818-.107-.889-.498-2.205-.924-3.307h-8.817v1.813h-3.84v-15.395h13.688v12.621c1.387.036,2.702.036,3.165,0,.64,0,.853-.213.853-.782v-13.901h-9.67v-12.906h13.937v26.842ZM247.589,167.105v2.133h5.866v-2.133h-5.866ZM253.455,174.464v-2.204h-5.866v2.204h5.866ZM255.802,152.066v1.884h5.653v-1.884h-5.653ZM261.455,158.893v-2.098h-5.653v2.098h5.653Z"/><path class="cls-1" d="M390.891,167.332l4.693,4.729-1.422,1.529-4.729-4.764-4.764,4.764-1.422-1.529,4.693-4.729-4.693-4.729,1.422-1.529,4.764,4.764,4.729-4.764,1.422,1.529-4.693,4.729Z"/><path class="cls-1" d="M411.94,154.888v24.887h-2.56v-22.612h-5.866v-2.275h8.426Z"/><path class="cls-1" d="M421.47,177.997c0-1.102.854-1.92,1.884-1.92s1.92.818,1.92,1.92-.889,1.956-1.92,1.956-1.884-.853-1.884-1.956Z"/><path class="cls-1" d="M432.527,167.332c0-7.929,4.16-12.657,9.919-12.657s9.955,4.729,9.955,12.657-4.195,12.657-9.955,12.657-9.919-4.729-9.919-12.657ZM449.77,167.332c0-6.648-2.986-10.311-7.324-10.311s-7.324,3.662-7.324,10.311,2.986,10.31,7.324,10.31,7.324-3.662,7.324-10.31Z"/><polygon class="cls-1" points="525 200 523 200 523 199 524 199 524 198 525 198 525 200"/><path class="cls-1" d="M519.985,200h-3.015v-1h3.015v1ZM513.957,200h-3.015v-1h3.015v1ZM507.927,200h-3.014v-1h3.014v1ZM501.898,200h-3.015v-1h3.015v1ZM495.87,200h-3.015v-1h3.015v1ZM489.84,200h-3.014v-1h3.014v1ZM483.812,200h-3.015v-1h3.015v1ZM477.782,200h-3.014v-1h3.014v1ZM471.753,200h-3.015v-1h3.015v1ZM465.725,200h-3.015v-1h3.015v1ZM459.695,200h-3.014v-1h3.014v1ZM453.667,200h-3.015v-1h3.015v1ZM447.638,200h-3.015v-1h3.015v1ZM441.608,200h-3.014v-1h3.014v1ZM435.58,200h-3.015v-1h3.015v1ZM429.551,200h-3.015v-1h3.015v1ZM423.521,200h-3.015v-1h3.015v1ZM417.493,200h-3.015v-1h3.015v1ZM411.463,200h-3.014v-1h3.014v1ZM405.435,200h-3.015v-1h3.015v1ZM399.406,200h-3.015v-1h3.015v1ZM393.376,200h-3.014v-1h3.014v1ZM387.348,200h-3.015v-1h3.015v1ZM381.319,200h-3.015v-1h3.015v1ZM375.29,200h-3.015v-1h3.015v1ZM369.261,200h-3.015v-1h3.015v1ZM363.231,200h-3.014v-1h3.014v1ZM357.203,200h-3.015v-1h3.015v1ZM351.174,200h-3.015v-1h3.015v1ZM345.145,200h-3.014v-1h3.014v1ZM339.116,200h-3.015v-1h3.015v1ZM333.087,200h-3.015v-1h3.015v1ZM327.058,200h-3.015v-1h3.015v1ZM321.029,200h-3.015v-1h3.015v1Z"/><polygon class="cls-1" points="315 200 313 200 313 198 314 198 314 199 315 199 315 200"/><path class="cls-1" d="M314,195h-1v-3h1v3ZM314,189h-1v-3h1v3ZM314,183h-1v-3h1v3ZM314,177h-1v-3h1v3ZM314,171h-1v-3h1v3ZM314,165h-1v-3h1v3ZM314,159h-1v-3h1v3ZM314,153h-1v-3h1v3ZM314,147h-1v-3h1v3ZM314,141h-1v-3h1v3Z"/><polygon class="cls-1" points="314 135 313 135 313 133 315 133 315 134 314 134 314 135"/><path class="cls-1" d="M519.986,134h-3.015v-1h3.015v1ZM513.957,134h-3.015v-1h3.015v1ZM507.928,134h-3.015v-1h3.015v1ZM501.899,134h-3.015v-1h3.015v1ZM495.87,134h-3.014v-1h3.014v1ZM489.841,134h-3.015v-1h3.015v1ZM483.812,134h-3.015v-1h3.015v1ZM477.783,134h-3.014v-1h3.014v1ZM471.754,134h-3.015v-1h3.015v1ZM465.725,134h-3.015v-1h3.015v1ZM459.696,134h-3.015v-1h3.015v1ZM453.667,134h-3.015v-1h3.015v1ZM447.638,134h-3.014v-1h3.014v1ZM441.609,134h-3.015v-1h3.015v1ZM435.58,134h-3.015v-1h3.015v1ZM429.551,134h-3.014v-1h3.014v1ZM423.522,134h-3.015v-1h3.015v1ZM417.493,134h-3.015v-1h3.015v1ZM411.464,134h-3.015v-1h3.015v1ZM405.435,134h-3.015v-1h3.015v1ZM399.406,134h-3.014v-1h3.014v1ZM393.377,134h-3.015v-1h3.015v1ZM387.348,134h-3.015v-1h3.015v1ZM381.319,134h-3.014v-1h3.014v1ZM375.29,134h-3.015v-1h3.015v1ZM369.261,134h-3.015v-1h3.015v1ZM363.232,134h-3.014v-1h3.014v1ZM357.203,134h-3.015v-1h3.015v1ZM351.174,134h-3.014v-1h3.014v1ZM345.145,134h-3.015v-1h3.015v1ZM339.116,134h-3.015v-1h3.015v1ZM333.087,134h-3.014v-1h3.014v1ZM327.058,134h-3.015v-1h3.015v1ZM321.029,134h-3.015v-1h3.015v1Z"/><polygon class="cls-1" points="525 135 524 135 524 134 523 134 523 133 525 133 525 135"/><path class="cls-1" d="M525,195h-1v-3h1v3ZM525,189h-1v-3h1v3ZM525,183h-1v-3h1v3ZM525,177h-1v-3h1v3ZM525,171h-1v-3h1v3ZM525,165h-1v-3h1v3ZM525,159h-1v-3h1v3ZM525,153h-1v-3h1v3ZM525,147h-1v-3h1v3ZM525,141h-1v-3h1v3Z"/><path class="cls-1" d="M634,167h-3v-1h3v1ZM628,167h-3v-1h3v1ZM622,167h-3v-1h3v1ZM616,167h-3v-1h3v1ZM610,167h-3v-1h3v1ZM604,167h-3v-1h3v1ZM598,167h-3v-1h3v1ZM592,167h-3v-1h3v1ZM586,167h-3v-1h3v1ZM580,167h-3v-1h3v1ZM574,167h-3v-1h3v1ZM568,167h-3v-1h3v1ZM562,167h-3v-1h3v1ZM556,167h-3v-1h3v1ZM550,167h-3v-1h3v1ZM544,167h-3v-1h3v1ZM538,167h-3v-1h3v1Z"/><path class="cls-1" d="M635.225,177.982c-.128,0-.256-.049-.354-.146-.195-.195-.195-.512,0-.707l10.462-10.462-10.462-10.461c-.195-.195-.195-.512,0-.707s.512-.195.707,0l10.815,10.815c.094.094.146.221.146.354s-.053.26-.146.354l-10.815,10.815c-.098.098-.226.146-.354.146Z"/><path class="cls-1" d="M690.653,241.778v24.887h-5.76v-20.265h-4.977v-4.622h10.737Z"/><path class="cls-1" d="M717.39,259.057c0,4.195-3.235,8.035-10.311,8.035-3.484,0-7.075-.96-9.493-2.667l2.24-4.409c1.884,1.422,4.516,2.24,7.111,2.24,2.88,0,4.657-1.173,4.657-3.2,0-1.884-1.386-3.058-4.657-3.058h-2.631v-3.804l5.12-5.795h-10.595v-4.622h17.421v3.733l-5.618,6.399c4.48.711,6.755,3.484,6.755,7.146Z"/><path class="cls-1" d="M728.626,263.466c0,.924-.142,1.6-.96,3.555l-2.026,5.12h-3.52l1.564-5.653c-1.173-.462-1.92-1.564-1.92-3.022,0-2.062,1.494-3.413,3.449-3.413,1.991,0,3.413,1.387,3.413,3.413Z"/><path class="cls-1" d="M732.182,254.222c0-8.213,4.551-12.871,10.666-12.871,6.151,0,10.666,4.658,10.666,12.871s-4.515,12.87-10.666,12.87c-6.115,0-10.666-4.658-10.666-12.87ZM747.719,254.222c0-5.653-1.991-8-4.871-8-2.844,0-4.835,2.346-4.835,8s1.991,7.999,4.835,7.999c2.88,0,4.871-2.346,4.871-7.999Z"/><path class="cls-1" d="M757.426,254.222c0-8.213,4.551-12.871,10.666-12.871,6.151,0,10.666,4.658,10.666,12.871s-4.515,12.87-10.666,12.87c-6.115,0-10.666-4.658-10.666-12.87ZM772.962,254.222c0-5.653-1.991-8-4.871-8-2.844,0-4.835,2.346-4.835,8s1.991,7.999,4.835,7.999c2.88,0,4.871-2.346,4.871-7.999Z"/><path class="cls-1" d="M782.67,254.222c0-8.213,4.551-12.871,10.666-12.871,6.151,0,10.666,4.658,10.666,12.871s-4.515,12.87-10.666,12.87c-6.115,0-10.666-4.658-10.666-12.87ZM798.207,254.222c0-5.653-1.991-8-4.871-8-2.844,0-4.835,2.346-4.835,8s1.991,7.999,4.835,7.999c2.88,0,4.871-2.346,4.871-7.999Z"/><path class="cls-1" d="M831.397,247.692v17.018c0,1.933-.844,2.044-4.977,2.044-.089-.422-.355-1.088-.577-1.511.8.022,1.555.044,2.177.044,1.755,0,1.889,0,1.889-.578v-7.243h-15.507v9.331h-1.489v-19.106h18.484ZM814.402,249.159v6.821h6.887v-6.821h-6.887ZM822.777,255.979h7.132v-6.821h-7.132v6.821Z"/><path class="cls-1" d="M170.087,263.645c7.146-6.399,11.377-11.341,11.377-15.395,0-2.667-1.458-4.266-3.946-4.266-1.92,0-3.52,1.244-4.835,2.702l-2.844-2.844c2.417-2.56,4.764-3.982,8.355-3.982,4.978,0,8.284,3.2,8.284,8.106,0,4.764-3.947,9.884-8.746,14.577,1.315-.142,3.058-.285,4.266-.285h5.724v4.409h-17.634v-3.022Z"/><path class="cls-1" d="M228.609,238.687v30.575h-4.551v-2.24h-15.786v2.311h-4.373v-30.646h24.709ZM208.273,242.953v7.644h15.786v-7.644h-15.786ZM224.059,262.756v-7.964h-15.786v7.964h15.786Z"/><path class="cls-1" d="M241.02,250.739v19.021h-4.195v-31.855h13.617v12.834h-9.421ZM241.02,240.962v1.884h5.475v-1.884h-5.475ZM246.495,247.717v-2.026h-5.475v2.026h5.475ZM266.832,264.747c0,2.275-.462,3.52-1.884,4.195-1.387.711-3.449.818-6.506.818-.107-.889-.498-2.205-.924-3.307h-8.817v1.813h-3.84v-15.395h13.688v12.621c1.387.036,2.702.036,3.165,0,.64,0,.853-.213.853-.782v-13.901h-9.67v-12.906h13.937v26.842ZM248.699,256v2.133h5.866v-2.133h-5.866ZM254.565,263.36v-2.204h-5.866v2.204h5.866ZM256.912,240.962v1.884h5.653v-1.884h-5.653ZM262.565,247.788v-2.098h-5.653v2.098h5.653Z"/><path class="cls-1" d="M392.632,256.22l4.693,4.729-1.422,1.529-4.729-4.764-4.764,4.764-1.422-1.529,4.693-4.729-4.693-4.729,1.422-1.529,4.764,4.764,4.729-4.764,1.422,1.529-4.693,4.729Z"/><path class="cls-1" d="M413.682,243.776v24.887h-2.56v-22.612h-5.866v-2.275h8.426Z"/><path class="cls-1" d="M423.211,266.886c0-1.102.854-1.92,1.884-1.92s1.92.818,1.92,1.92-.889,1.956-1.92,1.956-1.884-.853-1.884-1.956Z"/><path class="cls-1" d="M450.729,261.518c0,4.16-3.022,7.359-9.03,7.359-3.591,0-7.04-1.245-8.959-3.2l1.245-2.027c1.6,1.671,4.479,2.88,7.715,2.88,4.124,0,6.399-1.92,6.399-5.013,0-2.987-2.098-4.942-6.719-4.942h-1.778v-1.884l6.897-8.64h-12.728v-2.275h15.999v1.813l-7.04,8.853c5.333.284,7.999,3.093,7.999,7.075Z"/><polygon class="cls-1" points="525 290 523 290 523 289 524 289 524 288 525 288 525 290"/><path class="cls-1" d="M519.985,290h-3.015v-1h3.015v1ZM513.957,290h-3.015v-1h3.015v1ZM507.927,290h-3.014v-1h3.014v1ZM501.898,290h-3.015v-1h3.015v1ZM495.87,290h-3.015v-1h3.015v1ZM489.84,290h-3.014v-1h3.014v1ZM483.812,290h-3.015v-1h3.015v1ZM477.782,290h-3.014v-1h3.014v1ZM471.753,290h-3.015v-1h3.015v1ZM465.725,290h-3.015v-1h3.015v1ZM459.695,290h-3.014v-1h3.014v1ZM453.667,290h-3.015v-1h3.015v1ZM447.638,290h-3.015v-1h3.015v1ZM441.608,290h-3.014v-1h3.014v1ZM435.58,290h-3.015v-1h3.015v1ZM429.551,290h-3.015v-1h3.015v1ZM423.521,290h-3.015v-1h3.015v1ZM417.493,290h-3.015v-1h3.015v1ZM411.463,290h-3.014v-1h3.014v1ZM405.435,290h-3.015v-1h3.015v1ZM399.406,290h-3.015v-1h3.015v1ZM393.376,290h-3.014v-1h3.014v1ZM387.348,290h-3.015v-1h3.015v1ZM381.319,290h-3.015v-1h3.015v1ZM375.29,290h-3.015v-1h3.015v1ZM369.261,290h-3.015v-1h3.015v1ZM363.231,290h-3.014v-1h3.014v1ZM357.203,290h-3.015v-1h3.015v1ZM351.174,290h-3.015v-1h3.015v1ZM345.145,290h-3.014v-1h3.014v1ZM339.116,290h-3.015v-1h3.015v1ZM333.087,290h-3.015v-1h3.015v1ZM327.058,290h-3.015v-1h3.015v1ZM321.029,290h-3.015v-1h3.015v1Z"/><polygon class="cls-1" points="315 290 313 290 313 288 314 288 314 289 315 289 315 290"/><path class="cls-1" d="M314,285h-1v-3h1v3ZM314,279h-1v-3h1v3ZM314,273h-1v-3h1v3ZM314,267h-1v-3h1v3ZM314,261h-1v-3h1v3ZM314,255h-1v-3h1v3ZM314,249h-1v-3h1v3ZM314,243h-1v-3h1v3ZM314,237h-1v-3h1v3ZM314,231h-1v-3h1v3Z"/><polygon class="cls-1" points="314 225 313 225 313 223 315 223 315 224 314 224 314 225"/><path class="cls-1" d="M519.986,224h-3.015v-1h3.015v1ZM513.957,224h-3.015v-1h3.015v1ZM507.928,224h-3.015v-1h3.015v1ZM501.899,224h-3.015v-1h3.015v1ZM495.87,224h-3.014v-1h3.014v1ZM489.841,224h-3.015v-1h3.015v1ZM483.812,224h-3.015v-1h3.015v1ZM477.783,224h-3.014v-1h3.014v1ZM471.754,224h-3.015v-1h3.015v1ZM465.725,224h-3.015v-1h3.015v1ZM459.696,224h-3.015v-1h3.015v1ZM453.667,224h-3.015v-1h3.015v1ZM447.638,224h-3.014v-1h3.014v1ZM441.609,224h-3.015v-1h3.015v1ZM435.58,224h-3.015v-1h3.015v1ZM429.551,224h-3.014v-1h3.014v1ZM423.522,224h-3.015v-1h3.015v1ZM417.493,224h-3.015v-1h3.015v1ZM411.464,224h-3.015v-1h3.015v1ZM405.435,224h-3.015v-1h3.015v1ZM399.406,224h-3.014v-1h3.014v1ZM393.377,224h-3.015v-1h3.015v1ZM387.348,224h-3.015v-1h3.015v1ZM381.319,224h-3.014v-1h3.014v1ZM375.29,224h-3.015v-1h3.015v1ZM369.261,224h-3.015v-1h3.015v1ZM363.232,224h-3.014v-1h3.014v1ZM357.203,224h-3.015v-1h3.015v1ZM351.174,224h-3.014v-1h3.014v1ZM345.145,224h-3.015v-1h3.015v1ZM339.116,224h-3.015v-1h3.015v1ZM333.087,224h-3.014v-1h3.014v1ZM327.058,224h-3.015v-1h3.015v1ZM321.029,224h-3.015v-1h3.015v1Z"/><polygon class="cls-1" points="525 225 524 225 524 224 523 224 523 223 525 223 525 225"/><path class="cls-1" d="M525,285h-1v-3h1v3ZM525,279h-1v-3h1v3ZM525,273h-1v-3h1v3ZM525,267h-1v-3h1v3ZM525,261h-1v-3h1v3ZM525,255h-1v-3h1v3ZM525,249h-1v-3h1v3ZM525,243h-1v-3h1v3ZM525,237h-1v-3h1v3ZM525,231h-1v-3h1v3Z"/><path class="cls-1" d="M634,257h-3v-1h3v1ZM628,257h-3v-1h3v1ZM622,257h-3v-1h3v1ZM616,257h-3v-1h3v1ZM610,257h-3v-1h3v1ZM604,257h-3v-1h3v1ZM598,257h-3v-1h3v1ZM592,257h-3v-1h3v1ZM586,257h-3v-1h3v1ZM580,257h-3v-1h3v1ZM574,257h-3v-1h3v1ZM568,257h-3v-1h3v1ZM562,257h-3v-1h3v1ZM556,257h-3v-1h3v1ZM550,257h-3v-1h3v1ZM544,257h-3v-1h3v1ZM538,257h-3v-1h3v1Z"/><path class="cls-1" d="M635.225,266.871c-.128,0-.256-.049-.354-.146-.195-.195-.195-.512,0-.707l10.461-10.461-10.461-10.462c-.195-.195-.195-.512,0-.707s.512-.195.707,0l10.815,10.815c.195.195.195.512,0,.707l-10.815,10.815c-.098.098-.226.146-.354.146Z"/><path class="cls-1" d="M690.656,330.669v24.887h-5.76v-20.265h-4.977v-4.622h10.737Z"/><path class="cls-1" d="M717.393,347.734c0,4.409-3.235,8.249-10.346,8.249-3.449,0-7.075-.96-9.493-2.667l2.275-4.409c1.884,1.422,4.48,2.24,7.075,2.24,2.88,0,4.657-1.208,4.657-3.235,0-1.955-1.28-3.235-5.795-3.235h-6.364l1.28-14.008h15.181v4.622h-10.382l-.391,4.729h2.027c7.359,0,10.274,3.307,10.274,7.715Z"/><path class="cls-1" d="M728.237,352.356c0,.924-.142,1.6-.96,3.555l-2.026,5.12h-3.52l1.564-5.653c-1.173-.462-1.92-1.564-1.92-3.022,0-2.062,1.494-3.413,3.449-3.413,1.991,0,3.413,1.387,3.413,3.413Z"/><path class="cls-1" d="M731.794,343.113c0-8.213,4.551-12.871,10.666-12.871,6.151,0,10.666,4.658,10.666,12.871s-4.515,12.87-10.666,12.87c-6.115,0-10.666-4.658-10.666-12.87ZM747.331,343.113c0-5.653-1.991-8-4.871-8-2.844,0-4.835,2.346-4.835,8s1.991,7.999,4.835,7.999c2.88,0,4.871-2.346,4.871-7.999Z"/><path class="cls-1" d="M757.038,343.113c0-8.213,4.551-12.871,10.666-12.871,6.151,0,10.666,4.658,10.666,12.871s-4.515,12.87-10.666,12.87c-6.115,0-10.666-4.658-10.666-12.87ZM772.574,343.113c0-5.653-1.991-8-4.871-8-2.844,0-4.835,2.346-4.835,8s1.991,7.999,4.835,7.999c2.88,0,4.871-2.346,4.871-7.999Z"/><path class="cls-1" d="M782.281,343.113c0-8.213,4.551-12.871,10.666-12.871,6.151,0,10.666,4.658,10.666,12.871s-4.515,12.87-10.666,12.87c-6.115,0-10.666-4.658-10.666-12.87ZM797.818,343.113c0-5.653-1.991-8-4.871-8-2.844,0-4.835,2.346-4.835,8s1.991,7.999,4.835,7.999c2.88,0,4.871-2.346,4.871-7.999Z"/><path class="cls-1" d="M831.009,336.583v17.018c0,1.933-.844,2.044-4.977,2.044-.089-.422-.355-1.088-.577-1.511.8.022,1.555.044,2.177.044,1.755,0,1.889,0,1.889-.578v-7.243h-15.507v9.331h-1.489v-19.106h18.484ZM814.013,338.049v6.821h6.887v-6.821h-6.887ZM822.389,344.87h7.132v-6.821h-7.132v6.821Z"/><path class="cls-1" d="M169.486,352.392l2.453-3.307c1.564,1.529,3.484,2.702,5.866,2.702,2.667,0,4.48-1.315,4.48-3.662,0-2.595-1.529-4.195-7.253-4.195v-3.769c4.835,0,6.399-1.671,6.399-4.018,0-2.062-1.28-3.271-3.52-3.306-1.884.036-3.413.924-4.978,2.346l-2.667-3.2c2.275-1.991,4.8-3.235,7.893-3.235,5.084,0,8.533,2.489,8.533,7.004,0,2.844-1.6,4.907-4.408,6.009v.178c2.986.817,5.262,3.022,5.262,6.471,0,4.835-4.231,7.644-9.244,7.644-4.16,0-6.969-1.564-8.817-3.662Z"/><path class="cls-1" d="M228.612,327.576v30.575h-4.551v-2.24h-15.786v2.311h-4.373v-30.646h24.709ZM208.276,331.842v7.644h15.786v-7.644h-15.786ZM224.062,351.646v-7.964h-15.786v7.964h15.786Z"/><path class="cls-1" d="M241.023,339.628v19.021h-4.195v-31.855h13.617v12.834h-9.421ZM241.023,329.852v1.884h5.475v-1.884h-5.475ZM246.498,336.606v-2.026h-5.475v2.026h5.475ZM266.834,353.636c0,2.275-.462,3.52-1.884,4.195-1.387.711-3.449.818-6.506.818-.107-.889-.498-2.205-.924-3.307h-8.817v1.813h-3.84v-15.395h13.688v12.621c1.387.036,2.702.036,3.165,0,.64,0,.853-.213.853-.782v-13.901h-9.67v-12.906h13.937v26.842ZM248.702,344.89v2.133h5.866v-2.133h-5.866ZM254.568,352.25v-2.204h-5.866v2.204h5.866ZM256.915,329.852v1.884h5.653v-1.884h-5.653ZM262.568,336.678v-2.098h-5.653v2.098h5.653Z"/><path class="cls-1" d="M392.599,345.109l4.693,4.729-1.422,1.529-4.729-4.764-4.764,4.764-1.422-1.529,4.693-4.729-4.693-4.729,1.422-1.529,4.764,4.764,4.729-4.764,1.422,1.529-4.693,4.729Z"/><path class="cls-1" d="M413.648,332.665v24.887h-2.56v-22.612h-5.866v-2.275h8.426Z"/><path class="cls-1" d="M423.177,355.774c0-1.102.854-1.92,1.884-1.92s1.92.818,1.92,1.92-.889,1.956-1.92,1.956-1.884-.853-1.884-1.956Z"/><path class="cls-1" d="M451.122,350.229c0,4.23-2.951,7.537-9.03,7.537-3.591,0-7.004-1.245-8.924-3.2l1.244-2.027c1.6,1.671,4.444,2.88,7.644,2.88,4.231,0,6.471-2.062,6.471-5.084,0-3.2-1.991-5.191-8.319-5.191h-5.297l1.28-12.479h13.617v2.275h-11.377l-.853,7.928h3.2c7.501,0,10.346,2.951,10.346,7.36Z"/><polygon class="cls-1" points="525 378 523 378 523 377 524 377 524 376 525 376 525 378"/><path class="cls-1" d="M519.985,378h-3.015v-1h3.015v1ZM513.957,378h-3.015v-1h3.015v1ZM507.927,378h-3.014v-1h3.014v1ZM501.898,378h-3.015v-1h3.015v1ZM495.87,378h-3.015v-1h3.015v1ZM489.84,378h-3.014v-1h3.014v1ZM483.812,378h-3.015v-1h3.015v1ZM477.782,378h-3.014v-1h3.014v1ZM471.753,378h-3.015v-1h3.015v1ZM465.725,378h-3.015v-1h3.015v1ZM459.695,378h-3.014v-1h3.014v1ZM453.667,378h-3.015v-1h3.015v1ZM447.638,378h-3.015v-1h3.015v1ZM441.608,378h-3.014v-1h3.014v1ZM435.58,378h-3.015v-1h3.015v1ZM429.551,378h-3.015v-1h3.015v1ZM423.521,378h-3.015v-1h3.015v1ZM417.493,378h-3.015v-1h3.015v1ZM411.463,378h-3.014v-1h3.014v1ZM405.435,378h-3.015v-1h3.015v1ZM399.406,378h-3.015v-1h3.015v1ZM393.376,378h-3.014v-1h3.014v1ZM387.348,378h-3.015v-1h3.015v1ZM381.319,378h-3.015v-1h3.015v1ZM375.29,378h-3.015v-1h3.015v1ZM369.261,378h-3.015v-1h3.015v1ZM363.231,378h-3.014v-1h3.014v1ZM357.203,378h-3.015v-1h3.015v1ZM351.174,378h-3.015v-1h3.015v1ZM345.145,378h-3.014v-1h3.014v1ZM339.116,378h-3.015v-1h3.015v1ZM333.087,378h-3.015v-1h3.015v1ZM327.058,378h-3.015v-1h3.015v1ZM321.029,378h-3.015v-1h3.015v1Z"/><polygon class="cls-1" points="315 378 313 378 313 376 314 376 314 377 315 377 315 378"/><path class="cls-1" d="M314,373h-1v-3h1v3ZM314,367h-1v-3h1v3ZM314,361h-1v-3h1v3ZM314,355h-1v-3h1v3ZM314,349h-1v-3h1v3ZM314,343h-1v-3h1v3ZM314,337h-1v-3h1v3ZM314,331h-1v-3h1v3ZM314,325h-1v-3h1v3ZM314,319h-1v-3h1v3Z"/><polygon class="cls-1" points="314 313 313 313 313 311 315 311 315 312 314 312 314 313"/><path class="cls-1" d="M519.986,312h-3.015v-1h3.015v1ZM513.957,312h-3.015v-1h3.015v1ZM507.928,312h-3.015v-1h3.015v1ZM501.899,312h-3.015v-1h3.015v1ZM495.87,312h-3.014v-1h3.014v1ZM489.841,312h-3.015v-1h3.015v1ZM483.812,312h-3.015v-1h3.015v1ZM477.783,312h-3.014v-1h3.014v1ZM471.754,312h-3.015v-1h3.015v1ZM465.725,312h-3.015v-1h3.015v1ZM459.696,312h-3.015v-1h3.015v1ZM453.667,312h-3.015v-1h3.015v1ZM447.638,312h-3.014v-1h3.014v1ZM441.609,312h-3.015v-1h3.015v1ZM435.58,312h-3.015v-1h3.015v1ZM429.551,312h-3.014v-1h3.014v1ZM423.522,312h-3.015v-1h3.015v1ZM417.493,312h-3.015v-1h3.015v1ZM411.464,312h-3.015v-1h3.015v1ZM405.435,312h-3.015v-1h3.015v1ZM399.406,312h-3.014v-1h3.014v1ZM393.377,312h-3.015v-1h3.015v1ZM387.348,312h-3.015v-1h3.015v1ZM381.319,312h-3.014v-1h3.014v1ZM375.29,312h-3.015v-1h3.015v1ZM369.261,312h-3.015v-1h3.015v1ZM363.232,312h-3.014v-1h3.014v1ZM357.203,312h-3.015v-1h3.015v1ZM351.174,312h-3.014v-1h3.014v1ZM345.145,312h-3.015v-1h3.015v1ZM339.116,312h-3.015v-1h3.015v1ZM333.087,312h-3.014v-1h3.014v1ZM327.058,312h-3.015v-1h3.015v1ZM321.029,312h-3.015v-1h3.015v1Z"/><polygon class="cls-1" points="525 313 524 313 524 312 523 312 523 311 525 311 525 313"/><path class="cls-1" d="M525,373h-1v-3h1v3ZM525,367h-1v-3h1v3ZM525,361h-1v-3h1v3ZM525,355h-1v-3h1v3ZM525,349h-1v-3h1v3ZM525,343h-1v-3h1v3ZM525,337h-1v-3h1v3ZM525,331h-1v-3h1v3ZM525,325h-1v-3h1v3ZM525,319h-1v-3h1v3Z"/><path class="cls-1" d="M634,345h-3v-1h3v1ZM628,345h-3v-1h3v1ZM622,345h-3v-1h3v1ZM616,345h-3v-1h3v1ZM610,345h-3v-1h3v1ZM604,345h-3v-1h3v1ZM598,345h-3v-1h3v1ZM592,345h-3v-1h3v1ZM586,345h-3v-1h3v1ZM580,345h-3v-1h3v1ZM574,345h-3v-1h3v1ZM568,345h-3v-1h3v1ZM562,345h-3v-1h3v1ZM556,345h-3v-1h3v1ZM550,345h-3v-1h3v1ZM544,345h-3v-1h3v1ZM538,345h-3v-1h3v1Z"/><path class="cls-1" d="M635.227,355.76c-.128,0-.256-.049-.354-.146-.195-.195-.195-.512,0-.707l10.462-10.462-10.462-10.461c-.195-.195-.195-.512,0-.707s.512-.195.707,0l10.815,10.815c.094.094.146.221.146.354s-.053.26-.146.354l-10.815,10.815c-.098.098-.226.146-.354.146Z"/><path class="cls-1" d="M690.654,419.557v24.887h-5.76v-20.265h-4.977v-4.622h10.737Z"/><path class="cls-1" d="M717.675,419.557v3.733l-9.244,21.154h-6.257l8.924-20.194h-8.249v4.053h-5.12v-8.746h19.945Z"/><path class="cls-1" d="M726.956,441.244c0,.924-.142,1.6-.96,3.555l-2.026,5.12h-3.52l1.564-5.653c-1.173-.462-1.92-1.564-1.92-3.022,0-2.062,1.494-3.413,3.449-3.413,1.991,0,3.413,1.387,3.413,3.413Z"/><path class="cls-1" d="M731.686,432c0-8.213,4.551-12.871,10.666-12.871,6.151,0,10.666,4.658,10.666,12.871s-4.515,12.87-10.666,12.87c-6.115,0-10.666-4.658-10.666-12.87ZM747.222,432c0-5.653-1.991-8-4.871-8-2.844,0-4.835,2.346-4.835,8s1.991,7.999,4.835,7.999c2.88,0,4.871-2.346,4.871-7.999Z"/><path class="cls-1" d="M756.929,432c0-8.213,4.551-12.871,10.666-12.871,6.151,0,10.666,4.658,10.666,12.871s-4.515,12.87-10.666,12.87c-6.115,0-10.666-4.658-10.666-12.87ZM772.466,432c0-5.653-1.991-8-4.871-8-2.844,0-4.835,2.346-4.835,8s1.991,7.999,4.835,7.999c2.88,0,4.871-2.346,4.871-7.999Z"/><path class="cls-1" d="M782.173,432c0-8.213,4.551-12.871,10.666-12.871,6.151,0,10.666,4.658,10.666,12.871s-4.515,12.87-10.666,12.87c-6.115,0-10.666-4.658-10.666-12.87ZM797.709,432c0-5.653-1.991-8-4.871-8-2.844,0-4.835,2.346-4.835,8s1.991,7.999,4.835,7.999c2.88,0,4.871-2.346,4.871-7.999Z"/><path class="cls-1" d="M830.9,425.471v17.018c0,1.933-.844,2.044-4.977,2.044-.089-.422-.355-1.088-.577-1.511.8.022,1.555.044,2.177.044,1.755,0,1.889,0,1.889-.578v-7.243h-15.507v9.331h-1.489v-19.106h18.484ZM813.905,426.937v6.821h6.887v-6.821h-6.887ZM822.28,433.758h7.132v-6.821h-7.132v6.821Z"/><path class="cls-1" d="M188.507,437.619h-3.129v6.826h-4.871v-6.826h-11.199v-3.555l9.812-15.928h6.257v15.501h3.129v3.982ZM180.507,433.637v-5.369c0-1.529.142-3.911.213-5.439h-.142c-.64,1.387-1.351,2.844-2.098,4.266l-4.089,6.542h6.115Z"/><path class="cls-1" d="M228.612,416.465v30.575h-4.551v-2.24h-15.786v2.311h-4.373v-30.646h24.709ZM208.276,420.731v7.644h15.786v-7.644h-15.786ZM224.062,440.534v-7.964h-15.786v7.964h15.786Z"/><path class="cls-1" d="M241.023,428.517v19.021h-4.195v-31.855h13.617v12.834h-9.421ZM241.023,418.74v1.884h5.475v-1.884h-5.475ZM246.498,425.495v-2.026h-5.475v2.026h5.475ZM266.834,442.525c0,2.275-.462,3.52-1.884,4.195-1.387.711-3.449.818-6.506.818-.107-.889-.498-2.205-.924-3.307h-8.817v1.813h-3.84v-15.395h13.688v12.621c1.387.036,2.702.036,3.165,0,.64,0,.853-.213.853-.782v-13.901h-9.67v-12.906h13.937v26.842ZM248.702,433.779v2.133h5.866v-2.133h-5.866ZM254.568,441.138v-2.204h-5.866v2.204h5.866ZM256.915,418.74v1.884h5.653v-1.884h-5.653ZM262.568,425.566v-2.098h-5.653v2.098h5.653Z"/><path class="cls-1" d="M392.189,433.999l4.693,4.729-1.422,1.529-4.729-4.764-4.764,4.764-1.422-1.529,4.693-4.729-4.693-4.729,1.422-1.529,4.764,4.764,4.729-4.764,1.422,1.529-4.693,4.729Z"/><path class="cls-1" d="M413.238,421.555v24.887h-2.56v-22.612h-5.866v-2.275h8.426Z"/><path class="cls-1" d="M422.768,444.664c0-1.102.854-1.92,1.884-1.92s1.92.818,1.92,1.92-.889,1.956-1.92,1.956-1.884-.853-1.884-1.956Z"/><path class="cls-1" d="M451.388,421.555v1.813l-10.417,23.074h-2.773l10.239-22.612h-12.799v4.658h-2.524v-6.933h18.274Z"/><polygon class="cls-1" points="525 468 523 468 523 467 524 467 524 466 525 466 525 468"/><path class="cls-1" d="M519.985,468h-3.015v-1h3.015v1ZM513.957,468h-3.015v-1h3.015v1ZM507.927,468h-3.014v-1h3.014v1ZM501.898,468h-3.015v-1h3.015v1ZM495.87,468h-3.015v-1h3.015v1ZM489.84,468h-3.014v-1h3.014v1ZM483.812,468h-3.015v-1h3.015v1ZM477.782,468h-3.014v-1h3.014v1ZM471.753,468h-3.015v-1h3.015v1ZM465.725,468h-3.015v-1h3.015v1ZM459.695,468h-3.014v-1h3.014v1ZM453.667,468h-3.015v-1h3.015v1ZM447.638,468h-3.015v-1h3.015v1ZM441.608,468h-3.014v-1h3.014v1ZM435.58,468h-3.015v-1h3.015v1ZM429.551,468h-3.015v-1h3.015v1ZM423.521,468h-3.015v-1h3.015v1ZM417.493,468h-3.015v-1h3.015v1ZM411.463,468h-3.014v-1h3.014v1ZM405.435,468h-3.015v-1h3.015v1ZM399.406,468h-3.015v-1h3.015v1ZM393.376,468h-3.014v-1h3.014v1ZM387.348,468h-3.015v-1h3.015v1ZM381.319,468h-3.015v-1h3.015v1ZM375.29,468h-3.015v-1h3.015v1ZM369.261,468h-3.015v-1h3.015v1ZM363.231,468h-3.014v-1h3.014v1ZM357.203,468h-3.015v-1h3.015v1ZM351.174,468h-3.015v-1h3.015v1ZM345.145,468h-3.014v-1h3.014v1ZM339.116,468h-3.015v-1h3.015v1ZM333.087,468h-3.015v-1h3.015v1ZM327.058,468h-3.015v-1h3.015v1ZM321.029,468h-3.015v-1h3.015v1Z"/><polygon class="cls-1" points="315 468 313 468 313 466 314 466 314 467 315 467 315 468"/><path class="cls-1" d="M314,463h-1v-3h1v3ZM314,457h-1v-3h1v3ZM314,451h-1v-3h1v3ZM314,445h-1v-3h1v3ZM314,439h-1v-3h1v3ZM314,433h-1v-3h1v3ZM314,427h-1v-3h1v3ZM314,421h-1v-3h1v3ZM314,415h-1v-3h1v3ZM314,409h-1v-3h1v3Z"/><polygon class="cls-1" points="314 403 313 403 313 401 315 401 315 402 314 402 314 403"/><path class="cls-1" d="M519.986,402h-3.015v-1h3.015v1ZM513.957,402h-3.015v-1h3.015v1ZM507.928,402h-3.015v-1h3.015v1ZM501.899,402h-3.015v-1h3.015v1ZM495.87,402h-3.014v-1h3.014v1ZM489.841,402h-3.015v-1h3.015v1ZM483.812,402h-3.015v-1h3.015v1ZM477.783,402h-3.014v-1h3.014v1ZM471.754,402h-3.015v-1h3.015v1ZM465.725,402h-3.015v-1h3.015v1ZM459.696,402h-3.015v-1h3.015v1ZM453.667,402h-3.015v-1h3.015v1ZM447.638,402h-3.014v-1h3.014v1ZM441.609,402h-3.015v-1h3.015v1ZM435.58,402h-3.015v-1h3.015v1ZM429.551,402h-3.014v-1h3.014v1ZM423.522,402h-3.015v-1h3.015v1ZM417.493,402h-3.015v-1h3.015v1ZM411.464,402h-3.015v-1h3.015v1ZM405.435,402h-3.015v-1h3.015v1ZM399.406,402h-3.014v-1h3.014v1ZM393.377,402h-3.015v-1h3.015v1ZM387.348,402h-3.015v-1h3.015v1ZM381.319,402h-3.014v-1h3.014v1ZM375.29,402h-3.015v-1h3.015v1ZM369.261,402h-3.015v-1h3.015v1ZM363.232,402h-3.014v-1h3.014v1ZM357.203,402h-3.015v-1h3.015v1ZM351.174,402h-3.014v-1h3.014v1ZM345.145,402h-3.015v-1h3.015v1ZM339.116,402h-3.015v-1h3.015v1ZM333.087,402h-3.014v-1h3.014v1ZM327.058,402h-3.015v-1h3.015v1ZM321.029,402h-3.015v-1h3.015v1Z"/><polygon class="cls-1" points="525 403 524 403 524 402 523 402 523 401 525 401 525 403"/><path class="cls-1" d="M525,463h-1v-3h1v3ZM525,457h-1v-3h1v3ZM525,451h-1v-3h1v3ZM525,445h-1v-3h1v3ZM525,439h-1v-3h1v3ZM525,433h-1v-3h1v3ZM525,427h-1v-3h1v3ZM525,421h-1v-3h1v3ZM525,415h-1v-3h1v3ZM525,409h-1v-3h1v3Z"/><path class="cls-1" d="M634,435h-3v-1h3v1ZM628,435h-3v-1h3v1ZM622,435h-3v-1h3v1ZM616,435h-3v-1h3v1ZM610,435h-3v-1h3v1ZM604,435h-3v-1h3v1ZM598,435h-3v-1h3v1ZM592,435h-3v-1h3v1ZM586,435h-3v-1h3v1ZM580,435h-3v-1h3v1ZM574,435h-3v-1h3v1ZM568,435h-3v-1h3v1ZM562,435h-3v-1h3v1ZM556,435h-3v-1h3v1ZM550,435h-3v-1h3v1ZM544,435h-3v-1h3v1ZM538,435h-3v-1h3v1Z"/><path class="cls-1" d="M635.226,444.648c-.128,0-.256-.049-.354-.146-.195-.195-.195-.512,0-.707l10.461-10.461-10.461-10.462c-.195-.195-.195-.512,0-.707s.512-.195.707,0l10.815,10.815c.195.195.195.512,0,.707l-10.815,10.815c-.098.098-.226.146-.354.146Z"/><path class="cls-1" d="M690.656,508.445v24.887h-5.76v-20.265h-4.977v-4.622h10.737Z"/><path class="cls-1" d="M717.606,526.115c0,4.693-4.195,7.644-10.524,7.644-6.293,0-10.453-2.951-10.453-7.644,0-2.667,1.387-4.657,3.769-5.866-1.849-1.138-2.88-2.88-2.88-5.12,0-4.373,3.911-7.111,9.563-7.111,5.724,0,9.635,2.738,9.635,7.111,0,2.24-1.066,3.982-2.915,5.12,2.417,1.209,3.804,3.2,3.804,5.866ZM711.775,525.938c0-2.204-1.813-3.555-4.693-3.555-2.844,0-4.622,1.351-4.622,3.555s1.777,3.591,4.622,3.591c2.88,0,4.693-1.387,4.693-3.591ZM703.243,515.378c0,1.884,1.493,3.058,3.839,3.058,2.382,0,3.911-1.173,3.911-3.058,0-1.956-1.564-3.129-3.911-3.129-2.311,0-3.839,1.173-3.839,3.129Z"/><path class="cls-1" d="M728.628,530.133c0,.924-.142,1.6-.96,3.555l-2.026,5.12h-3.52l1.564-5.653c-1.173-.462-1.92-1.564-1.92-3.022,0-2.062,1.494-3.413,3.449-3.413,1.991,0,3.413,1.387,3.413,3.413Z"/><path class="cls-1" d="M732.185,520.889c0-8.213,4.551-12.871,10.666-12.871,6.151,0,10.666,4.658,10.666,12.871s-4.515,12.87-10.666,12.87c-6.115,0-10.666-4.658-10.666-12.87ZM747.721,520.889c0-5.653-1.991-8-4.871-8-2.844,0-4.835,2.346-4.835,8s1.991,7.999,4.835,7.999c2.88,0,4.871-2.346,4.871-7.999Z"/><path class="cls-1" d="M757.429,520.889c0-8.213,4.551-12.871,10.666-12.871,6.151,0,10.666,4.658,10.666,12.871s-4.515,12.87-10.666,12.87c-6.115,0-10.666-4.658-10.666-12.87ZM772.965,520.889c0-5.653-1.991-8-4.871-8-2.844,0-4.835,2.346-4.835,8s1.991,7.999,4.835,7.999c2.88,0,4.871-2.346,4.871-7.999Z"/><path class="cls-1" d="M782.672,520.889c0-8.213,4.551-12.871,10.666-12.871,6.151,0,10.666,4.658,10.666,12.871s-4.515,12.87-10.666,12.87c-6.115,0-10.666-4.658-10.666-12.87ZM798.209,520.889c0-5.653-1.991-8-4.871-8-2.844,0-4.835,2.346-4.835,8s1.991,7.999,4.835,7.999c2.88,0,4.871-2.346,4.871-7.999Z"/><path class="cls-1" d="M831.4,514.359v17.018c0,1.933-.845,2.044-4.977,2.044-.089-.422-.355-1.088-.578-1.511.8.022,1.556.044,2.178.044,1.755,0,1.888,0,1.888-.578v-7.243h-15.507v9.331h-1.488v-19.106h18.484ZM814.404,515.826v6.821h6.887v-6.821h-6.887ZM822.78,522.646h7.131v-6.821h-7.131v6.821Z"/><path class="cls-1" d="M169.486,530.24l2.417-3.342c1.493,1.458,3.342,2.667,5.795,2.667,2.737,0,4.657-1.742,4.657-4.835,0-3.058-1.777-4.764-4.444-4.764-1.564,0-2.418.391-3.946,1.386l-2.382-1.564.711-12.763h14.079v4.373h-9.564l-.498,5.582c1.031-.498,1.956-.747,3.164-.747,4.409,0,8.106,2.631,8.106,8.355,0,5.866-4.337,9.244-9.208,9.244-4.16,0-6.933-1.635-8.888-3.591Z"/><path class="cls-1" d="M228.612,505.354v30.575h-4.551v-2.24h-15.786v2.311h-4.373v-30.646h24.709ZM208.276,509.62v7.644h15.786v-7.644h-15.786ZM224.062,529.423v-7.964h-15.786v7.964h15.786Z"/><path class="cls-1" d="M241.023,517.406v19.021h-4.195v-31.855h13.617v12.834h-9.421ZM241.023,507.629v1.884h5.475v-1.884h-5.475ZM246.498,514.384v-2.026h-5.475v2.026h5.475ZM266.834,531.414c0,2.275-.462,3.52-1.884,4.195-1.387.711-3.449.818-6.506.818-.107-.889-.498-2.205-.924-3.307h-8.817v1.813h-3.84v-15.395h13.688v12.621c1.387.036,2.702.036,3.165,0,.64,0,.853-.213.853-.782v-13.901h-9.67v-12.906h13.937v26.842ZM248.702,522.667v2.133h5.866v-2.133h-5.866ZM254.568,530.027v-2.204h-5.866v2.204h5.866ZM256.915,507.629v1.884h5.653v-1.884h-5.653ZM262.568,514.455v-2.098h-5.653v2.098h5.653Z"/><path class="cls-1" d="M391.319,522.886l4.693,4.729-1.422,1.529-4.729-4.764-4.764,4.764-1.422-1.529,4.693-4.729-4.693-4.729,1.422-1.529,4.764,4.764,4.729-4.764,1.422,1.529-4.693,4.729Z"/><path class="cls-1" d="M412.368,510.442v24.887h-2.56v-22.612h-5.866v-2.275h8.426Z"/><path class="cls-1" d="M421.897,533.552c0-1.102.854-1.92,1.884-1.92s1.92.818,1.92,1.92-.889,1.956-1.92,1.956-1.884-.853-1.884-1.956Z"/><path class="cls-1" d="M452.082,528.397c0,4.408-3.733,7.146-9.67,7.146-5.973,0-9.599-2.738-9.599-7.146,0-2.987,1.707-5.084,4.8-6.115-2.524-.996-3.911-2.88-3.911-5.475,0-4.053,3.449-6.578,8.71-6.578s8.782,2.524,8.782,6.578c0,2.595-1.422,4.479-3.982,5.475,3.129,1.031,4.871,3.164,4.871,6.115ZM449.451,528.361c0-3.058-2.631-4.978-7.04-4.978s-7.004,1.92-7.004,4.978c0,3.093,2.596,5.013,7.004,5.013s7.04-1.92,7.04-5.013ZM442.412,521.357c3.875,0,6.187-1.742,6.187-4.444,0-2.809-2.453-4.515-6.187-4.515-3.769,0-6.15,1.707-6.15,4.479,0,2.738,2.275,4.48,6.15,4.48Z"/><polygon class="cls-1" points="525 556 523 556 523 555 524 555 524 554 525 554 525 556"/><path class="cls-1" d="M519.985,556h-3.015v-1h3.015v1ZM513.957,556h-3.015v-1h3.015v1ZM507.927,556h-3.014v-1h3.014v1ZM501.898,556h-3.015v-1h3.015v1ZM495.87,556h-3.015v-1h3.015v1ZM489.84,556h-3.014v-1h3.014v1ZM483.812,556h-3.015v-1h3.015v1ZM477.782,556h-3.014v-1h3.014v1ZM471.753,556h-3.015v-1h3.015v1ZM465.725,556h-3.015v-1h3.015v1ZM459.695,556h-3.014v-1h3.014v1ZM453.667,556h-3.015v-1h3.015v1ZM447.638,556h-3.015v-1h3.015v1ZM441.608,556h-3.014v-1h3.014v1ZM435.58,556h-3.015v-1h3.015v1ZM429.551,556h-3.015v-1h3.015v1ZM423.521,556h-3.015v-1h3.015v1ZM417.493,556h-3.015v-1h3.015v1ZM411.463,556h-3.014v-1h3.014v1ZM405.435,556h-3.015v-1h3.015v1ZM399.406,556h-3.015v-1h3.015v1ZM393.376,556h-3.014v-1h3.014v1ZM387.348,556h-3.015v-1h3.015v1ZM381.319,556h-3.015v-1h3.015v1ZM375.29,556h-3.015v-1h3.015v1ZM369.261,556h-3.015v-1h3.015v1ZM363.231,556h-3.014v-1h3.014v1ZM357.203,556h-3.015v-1h3.015v1ZM351.174,556h-3.015v-1h3.015v1ZM345.145,556h-3.014v-1h3.014v1ZM339.116,556h-3.015v-1h3.015v1ZM333.087,556h-3.015v-1h3.015v1ZM327.058,556h-3.015v-1h3.015v1ZM321.029,556h-3.015v-1h3.015v1Z"/><polygon class="cls-1" points="315 556 313 556 313 554 314 554 314 555 315 555 315 556"/><path class="cls-1" d="M314,551h-1v-3h1v3ZM314,545h-1v-3h1v3ZM314,539h-1v-3h1v3ZM314,533h-1v-3h1v3ZM314,527h-1v-3h1v3ZM314,521h-1v-3h1v3ZM314,515h-1v-3h1v3ZM314,509h-1v-3h1v3ZM314,503h-1v-3h1v3ZM314,497h-1v-3h1v3Z"/><polygon class="cls-1" points="314 491 313 491 313 489 315 489 315 490 314 490 314 491"/><path class="cls-1" d="M519.986,490h-3.015v-1h3.015v1ZM513.957,490h-3.015v-1h3.015v1ZM507.928,490h-3.015v-1h3.015v1ZM501.899,490h-3.015v-1h3.015v1ZM495.87,490h-3.014v-1h3.014v1ZM489.841,490h-3.015v-1h3.015v1ZM483.812,490h-3.015v-1h3.015v1ZM477.783,490h-3.014v-1h3.014v1ZM471.754,490h-3.015v-1h3.015v1ZM465.725,490h-3.015v-1h3.015v1ZM459.696,490h-3.015v-1h3.015v1ZM453.667,490h-3.015v-1h3.015v1ZM447.638,490h-3.014v-1h3.014v1ZM441.609,490h-3.015v-1h3.015v1ZM435.58,490h-3.015v-1h3.015v1ZM429.551,490h-3.014v-1h3.014v1ZM423.522,490h-3.015v-1h3.015v1ZM417.493,490h-3.015v-1h3.015v1ZM411.464,490h-3.015v-1h3.015v1ZM405.435,490h-3.015v-1h3.015v1ZM399.406,490h-3.014v-1h3.014v1ZM393.377,490h-3.015v-1h3.015v1ZM387.348,490h-3.015v-1h3.015v1ZM381.319,490h-3.014v-1h3.014v1ZM375.29,490h-3.015v-1h3.015v1ZM369.261,490h-3.015v-1h3.015v1ZM363.232,490h-3.014v-1h3.014v1ZM357.203,490h-3.015v-1h3.015v1ZM351.174,490h-3.014v-1h3.014v1ZM345.145,490h-3.015v-1h3.015v1ZM339.116,490h-3.015v-1h3.015v1ZM333.087,490h-3.014v-1h3.014v1ZM327.058,490h-3.015v-1h3.015v1ZM321.029,490h-3.015v-1h3.015v1Z"/><polygon class="cls-1" points="525 491 524 491 524 490 523 490 523 489 525 489 525 491"/><path class="cls-1" d="M525,551h-1v-3h1v3ZM525,545h-1v-3h1v3ZM525,539h-1v-3h1v3ZM525,533h-1v-3h1v3ZM525,527h-1v-3h1v3ZM525,521h-1v-3h1v3ZM525,515h-1v-3h1v3ZM525,509h-1v-3h1v3ZM525,503h-1v-3h1v3ZM525,497h-1v-3h1v3Z"/><path class="cls-1" d="M634,523h-3v-1h3v1ZM628,523h-3v-1h3v1ZM622,523h-3v-1h3v1ZM616,523h-3v-1h3v1ZM610,523h-3v-1h3v1ZM604,523h-3v-1h3v1ZM598,523h-3v-1h3v1ZM592,523h-3v-1h3v1ZM586,523h-3v-1h3v1ZM580,523h-3v-1h3v1ZM574,523h-3v-1h3v1ZM568,523h-3v-1h3v1ZM562,523h-3v-1h3v1ZM556,523h-3v-1h3v1ZM550,523h-3v-1h3v1ZM544,523h-3v-1h3v1ZM538,523h-3v-1h3v1Z"/><path class="cls-1" d="M635.226,533.538c-.128,0-.256-.049-.354-.146-.195-.195-.195-.512,0-.707l10.462-10.462-10.462-10.462c-.195-.195-.195-.512,0-.707s.512-.195.707,0l10.815,10.815c.195.195.195.512,0,.707l-10.815,10.815c-.098.098-.226.146-.354.146Z"/><path class="cls-1" d="M208.784,60.909v30.575h-4.551v-2.24h-15.786v2.311h-4.373v-30.646h24.709ZM188.447,65.175v7.644h15.786v-7.644h-15.786ZM204.233,84.979v-7.964h-15.786v7.964h15.786Z"/><path class="cls-1" d="M246.472,69.086c-.747,5.262-1.955,9.67-3.875,13.262,1.635,2.524,3.697,4.551,6.293,5.901-.96.854-2.275,2.489-2.916,3.662-2.417-1.458-4.373-3.342-5.973-5.653-1.956,2.346-4.409,4.266-7.502,5.831-.249-.604-.782-1.564-1.351-2.417l-1.6,1.635c-.96-.817-2.24-1.742-3.698-2.667-2.098,1.564-4.942,2.596-8.746,3.377-.249-1.208-.995-2.631-1.671-3.52,2.844-.355,5.084-.96,6.755-1.884-.64-.355-1.315-.675-1.991-.96l-.391.675-3.697-1.138c.782-1.244,1.671-2.844,2.56-4.551h-3.377v-3.413h5.155c.426-.889.853-1.742,1.208-2.524l.782.178v-3.413c-1.635,1.635-3.555,3.128-5.333,4.124-.462-.924-1.351-2.311-2.133-3.058,2.168-.889,4.551-2.595,6.257-4.444h-5.546v-3.342h2.702c-.32-1.208-1.103-2.844-1.849-4.124l3.058-1.28c.924,1.351,1.849,3.164,2.133,4.409l-2.275.995h2.986v-5.973h3.875v5.973h2.809l-2.347-1.031c.818-1.28,1.813-3.165,2.382-4.515l3.555,1.422c-1.102,1.529-2.204,3.022-3.058,4.124h3.377v3.342h-5.831c1.707.96,4.231,2.453,5.013,2.986l-2.24,2.916c-.782-.747-2.275-1.991-3.662-3.093v4.302h-2.275l1.529.32-.854,1.706h8.462c-.818-.817-2.098-1.919-2.88-2.453,3.022-3.626,4.729-9.67,5.582-15.999l4.267.569c-.285,1.991-.676,3.946-1.138,5.831h9.457v3.911h-1.991ZM221.941,82.525c1.066.426,2.098.853,3.128,1.351.569-.889,1.031-1.955,1.351-3.235h-3.449l-1.031,1.885ZM230.402,80.641c-.391,1.991-.996,3.662-1.884,5.049,1.102.64,2.133,1.28,2.951,1.884,2.631-1.387,4.693-3.164,6.258-5.369-.996-2.098-1.778-4.444-2.418-7.004-.498.924-1.066,1.778-1.635,2.56-.142-.143-.285-.32-.498-.534v3.413h-2.773ZM238.011,69.086c.498,2.987,1.209,5.795,2.169,8.355.889-2.417,1.528-5.226,1.919-8.355h-4.088Z"/><path class="cls-1" d="M370.615,77.403c-1.066.32-2.168.675-3.235.995v9.173c0,1.956-.32,2.986-1.422,3.626-1.031.675-2.56.817-4.835.782-.107-1.031-.569-2.702-1.067-3.84,1.28.071,2.524.071,2.951.071s.604-.143.604-.64v-8.035c-1.173.32-2.311.64-3.342.924l-.924-4.053c1.208-.249,2.667-.64,4.266-1.031v-6.008h-3.626v-3.875h3.626v-6.684h3.769v6.684h2.738v3.875h-2.738v4.978l2.702-.747.533,3.804ZM382.668,85.011l.106,3.342c-4.764.675-9.848,1.315-13.617,1.813l-.569-3.626c1.636-.178,3.662-.391,5.831-.604v-4.089h-4.124v-3.377h4.124v-4.195h3.733v4.195h4.053v3.377h-4.053v3.662l4.515-.498ZM374.455,66.31h-3.769v-3.306h3.769v-4.195h3.769v4.195h3.733v3.306h-3.733v3.662h4.231v3.342h-12.515v-3.342h4.515v-3.662ZM391.165,79.251c-.924-1.245-2.524-3.058-3.982-4.622v17.35h-3.911v-33.171h3.911v11.27c1.564,1.209,5.369,4.658,6.329,5.546l-2.347,3.626Z"/><path class="cls-1" d="M404.18,61.333c-.285.854-.675,2.098-.818,2.844-.853,3.911-2.098,11.271-1.173,15.644.462-1.067,1.067-2.773,1.636-4.053l2.24,1.387c-1.031,3.058-1.956,6.613-2.382,8.604-.143.533-.249,1.315-.249,1.706.036.356.071.96.106,1.458l-3.946.391c-.747-2.133-2.026-7.04-2.026-11.413,0-5.76.711-11.199,1.173-14.043.178-.996.213-2.169.213-3.058l5.226.533ZM426.756,71.572c-1.422.178-3.235.32-5.227.427v1.458c0,8.319-.64,13.404-7.644,17.883l-4.089-3.2c1.351-.604,3.129-1.707,4.125-2.809,2.702-2.809,3.271-5.938,3.271-11.875v-1.28c-1.315.036-2.667.071-3.946.071-1.529,0-3.697-.107-5.439-.178v-4.48c1.742.249,3.449.355,5.333.355,1.28,0,2.631-.035,3.982-.071-.036-1.956-.107-3.769-.178-4.729-.071-.747-.213-1.813-.391-2.417h5.155c-.143.782-.143,1.6-.178,2.382-.035.782-.035,2.595-.035,4.515,1.991-.142,3.839-.355,5.297-.64l-.036,4.586Z"/><path class="cls-1" d="M442.58,76.194c.675-.64,1.351-1.315,2.026-1.991-1.28-1.102-2.986-2.346-4.479-3.306l-2.595,2.168c-1.103-1.138-3.449-2.844-5.333-3.911l2.809-2.311c1.635.889,3.804,2.275,5.12,3.377l1.635-1.991.854.533c.604-.889,1.173-1.849,1.671-2.737h-11.626v-3.769h12.515v-3.448h4.337v3.448h12.835v3.769h-14.719l.782.284c-1.102,1.422-2.275,2.88-3.306,4.088.64.462,1.244.889,1.777,1.316,1.245-1.458,2.347-2.88,3.235-4.16l3.307,1.528c-1.956,2.311-4.337,4.8-6.613,6.933l3.662-.178c-.391-.676-.853-1.315-1.28-1.92l2.986-1.245c.569.747,1.209,1.6,1.778,2.454l2.169-1.742c2.453,1.208,5.759,3.164,7.43,4.551l-3.058,2.524c-1.208-1.066-3.484-2.631-5.653-3.875.533.924.96,1.813,1.209,2.56l-3.2,1.422c-.178-.533-.427-1.138-.747-1.778-4.302.391-8.64.711-12.053.96l-.427-2.453c-2.24,1.102-4.586,2.204-6.506,3.058l-1.991-3.413c2.24-.711,5.653-2.026,8.924-3.307l.64,2.631,1.884-.071ZM449.513,81.74h13.937v3.911h-13.937v6.329h-4.337v-6.329h-13.652v-3.911h13.652v-2.275h4.337v2.275ZM454.028,71.003c1.6-1.208,3.591-3.058,4.799-4.515l3.769,1.813c-1.813,1.671-3.875,3.271-5.475,4.373l-3.093-1.671Z"/><path class="cls-1" d="M721.728,60.056c-.889,2.347-1.991,4.729-3.2,7.004v24.887h-3.982v-18.559c-.711.96-1.422,1.849-2.168,2.631-.391-.996-1.493-3.235-2.169-4.267,3.058-3.093,5.973-7.999,7.715-12.906l3.804,1.209ZM737.336,66.029v4.444h6.008v20.514h-4.053v-1.813h-14.079v2.026h-3.911v-20.728h5.724v-4.444h-6.079v-3.769h22.576v3.769h-6.187ZM725.212,85.547h2.204v-11.413h-2.204v11.413ZM730.972,74.135v11.413h2.382v-11.413h-2.382ZM733.354,66.029h-2.346v4.444h2.346v-4.444ZM739.292,74.135h-2.382v11.413h2.382v-11.413Z"/><path class="cls-1" d="M777.514,63.611c-1.209,3.698-3.058,6.826-5.404,9.457,2.24,1.707,4.942,3.093,8.035,3.947-.854.817-2.026,2.488-2.56,3.52l-.64-.249v11.59h-4.089v-1.138h-7.43v1.245h-3.947v-11.377c-.604.284-1.208.533-1.813.747-.391-.818-1.138-1.956-1.813-2.809l-.32.462c-.427-.889-1.173-2.204-1.956-3.449v16.39h-3.982v-13.475c-.995,2.844-2.204,5.475-3.555,7.289-.391-1.173-1.315-2.809-1.955-3.84,2.168-2.809,4.195-7.715,5.19-11.946h-4.337v-3.911h4.657v-7.288h3.982v7.288h3.982v1.92c2.524-2.453,4.729-5.831,6.009-9.244l4.018,1.102c-.356.889-.747,1.778-1.173,2.667h5.724l.747-.142,2.631,1.244ZM758.6,77.512c2.844-1.066,5.546-2.56,7.857-4.479-.996-1.138-1.884-2.311-2.667-3.484-.853,1.031-1.742,1.956-2.631,2.738-.533-.569-1.635-1.564-2.56-2.311h-3.022v.853c.96,1.031,3.626,4.195,4.231,5.013l-1.208,1.671ZM773.567,78.721c-1.564-.854-2.987-1.849-4.267-2.916-1.28,1.102-2.631,2.062-4.088,2.916h8.355ZM772.856,87.111v-4.835h-7.43v4.835h7.43ZM766.35,66.1l-.249.355c.818,1.351,1.813,2.702,3.058,3.982,1.173-1.315,2.204-2.773,3.022-4.337h-5.831Z"/><rect class="cls-1" x="159" y="110" width="689" height="1"/></g></svg>